<?xml version="1.0" encoding="UTF-8" standalone="no"?>
<!DOCTYPE svg PUBLIC "-//W3C//DTD SVG 1.1//EN"
 "http://www.w3.org/Graphics/SVG/1.1/DTD/svg11.dtd">
<!-- Generated by graphviz version 2.40.1 (20161225.0304)
 -->
<!-- Title: public.applicant_articles Pages: 1 -->
<svg width="980pt" height="1252pt"
 viewBox="0.00 0.00 980.00 1252.00" xmlns="http://www.w3.org/2000/svg" xmlns:xlink="http://www.w3.org/1999/xlink">
<g id="graph0" class="graph" transform="scale(1 1) rotate(0) translate(4 1248)">
<title>public.applicant_articles</title>
<polygon fill="#ffffff" stroke="transparent" points="-4,4 -4,-1248 976,-1248 976,4 -4,4"/>
<!-- public.applicant_articles -->
<g id="node1" class="node">
<title>public.applicant_articles</title>
<polygon fill="#efefef" stroke="transparent" points="278,-1162.5 278,-1197.5 610,-1197.5 610,-1162.5 278,-1162.5"/>
<polygon fill="none" stroke="#000000" points="278,-1162.5 278,-1197.5 610,-1197.5 610,-1162.5 278,-1162.5"/>
<text text-anchor="start" x="284.6999" y="-1175.3" font-family="Arial Bold" font-size="18.00" fill="#000000">public.applicant_articles</text>
<text text-anchor="start" x="475.7321" y="-1175.3" font-family="Arial" font-size="14.00" fill="#000000">    </text>
<text text-anchor="start" x="509.9369" y="-1175.3" font-family="Arial" font-size="14.00" fill="#666666">[BASE TABLE]</text>
<polygon fill="none" stroke="#000000" points="278,-1132.5 278,-1162.5 610,-1162.5 610,-1132.5 278,-1132.5"/>
<text text-anchor="start" x="285" y="-1143.9" font-family="Arial" font-size="14.00" fill="#000000">id </text>
<text text-anchor="start" x="299.7798" y="-1143.9" font-family="Arial" font-size="14.00" fill="#666666">[bigint]</text>
<polygon fill="none" stroke="#000000" points="278,-1102.5 278,-1132.5 610,-1132.5 610,-1102.5 278,-1102.5"/>
<text text-anchor="start" x="285" y="-1113.9" font-family="Arial" font-size="14.00" fill="#000000">applicant_id </text>
<text text-anchor="start" x="363.5792" y="-1113.9" font-family="Arial" font-size="14.00" fill="#666666">[bigint]</text>
<polygon fill="none" stroke="#000000" points="278,-1072.5 278,-1102.5 610,-1102.5 610,-1072.5 278,-1072.5"/>
<text text-anchor="start" x="285" y="-1083.9" font-family="Arial" font-size="14.00" fill="#000000">article_id </text>
<text text-anchor="start" x="344.892" y="-1083.9" font-family="Arial" font-size="14.00" fill="#666666">[bigint]</text>
<polygon fill="none" stroke="#000000" points="278,-1042.5 278,-1072.5 610,-1072.5 610,-1042.5 278,-1042.5"/>
<text text-anchor="start" x="285" y="-1053.9" font-family="Arial" font-size="14.00" fill="#000000">created_at </text>
<text text-anchor="start" x="355.028" y="-1053.9" font-family="Arial" font-size="14.00" fill="#666666">[timestamp(6) without time zone]</text>
<polygon fill="none" stroke="#000000" points="278,-1012.5 278,-1042.5 610,-1042.5 610,-1012.5 278,-1012.5"/>
<text text-anchor="start" x="285" y="-1023.9" font-family="Arial" font-size="14.00" fill="#000000">updated_at </text>
<text text-anchor="start" x="358.9326" y="-1023.9" font-family="Arial" font-size="14.00" fill="#666666">[timestamp(6) without time zone]</text>
<polygon fill="none" stroke="#000000" stroke-width="3" points="276.5,-1011.5 276.5,-1199.5 611.5,-1199.5 611.5,-1011.5 276.5,-1011.5"/>
</g>
<!-- public.applicants -->
<g id="node2" class="node">
<title>public.applicants</title>
<polygon fill="#efefef" stroke="transparent" points="72,-612.5 72,-647.5 392,-647.5 392,-612.5 72,-612.5"/>
<polygon fill="none" stroke="#000000" points="72,-612.5 72,-647.5 392,-647.5 392,-612.5 72,-612.5"/>
<text text-anchor="start" x="101.7006" y="-625.3" font-family="Arial Bold" font-size="18.00" fill="#000000">public.applicants</text>
<text text-anchor="start" x="234.7314" y="-625.3" font-family="Arial" font-size="14.00" fill="#000000">    </text>
<text text-anchor="start" x="268.9362" y="-625.3" font-family="Arial" font-size="14.00" fill="#666666">[BASE TABLE]</text>
<polygon fill="none" stroke="#000000" points="72,-582.5 72,-612.5 392,-612.5 392,-582.5 72,-582.5"/>
<text text-anchor="start" x="79" y="-593.9" font-family="Arial" font-size="14.00" fill="#000000">id    </text>
<text text-anchor="start" x="124.094" y="-593.9" font-family="Arial" font-size="14.00" fill="#666666">[bigint]</text>
<polygon fill="none" stroke="#000000" points="72,-552.5 72,-582.5 392,-582.5 392,-552.5 72,-552.5"/>
<text text-anchor="start" x="79" y="-563.9" font-family="Arial" font-size="14.00" fill="#000000">name    </text>
<text text-anchor="start" x="148.2132" y="-563.9" font-family="Arial" font-size="14.00" fill="#666666">[varchar]</text>
<polygon fill="none" stroke="#000000" points="72,-522.5 72,-552.5 392,-552.5 392,-522.5 72,-522.5"/>
<text text-anchor="start" x="79" y="-533.9" font-family="Arial" font-size="14.00" fill="#000000">user_id    </text>
<text text-anchor="start" x="159.1024" y="-533.9" font-family="Arial" font-size="14.00" fill="#666666">[integer]</text>
<polygon fill="none" stroke="#000000" points="72,-492.5 72,-522.5 392,-522.5 392,-492.5 72,-492.5"/>
<text text-anchor="start" x="79" y="-503.9" font-family="Arial" font-size="14.00" fill="#000000">created_at    </text>
<text text-anchor="start" x="179.3422" y="-503.9" font-family="Arial" font-size="14.00" fill="#666666">[timestamp(6) without time zone]</text>
<polygon fill="none" stroke="#000000" points="72,-462.5 72,-492.5 392,-492.5 392,-462.5 72,-462.5"/>
<text text-anchor="start" x="78.7546" y="-473.9" font-family="Arial" font-size="14.00" fill="#000000">updated_at    </text>
<text text-anchor="start" x="183.0014" y="-473.9" font-family="Arial" font-size="14.00" fill="#666666">[timestamp(6) without time zone]</text>
<polygon fill="none" stroke="#000000" points="72,-432.5 72,-462.5 392,-462.5 392,-432.5 72,-432.5"/>
<text text-anchor="start" x="79" y="-443.9" font-family="Arial" font-size="14.00" fill="#000000">birthday    </text>
<text text-anchor="start" x="162.993" y="-443.9" font-family="Arial" font-size="14.00" fill="#666666">[date]</text>
<polygon fill="none" stroke="#000000" points="72,-402.5 72,-432.5 392,-432.5 392,-402.5 72,-402.5"/>
<text text-anchor="start" x="79" y="-413.9" font-family="Arial" font-size="14.00" fill="#000000">age    </text>
<text text-anchor="start" x="136.5526" y="-413.9" font-family="Arial" font-size="14.00" fill="#666666">[integer]</text>
<polygon fill="none" stroke="#000000" points="72,-372.5 72,-402.5 392,-402.5 392,-372.5 72,-372.5"/>
<text text-anchor="start" x="79" y="-383.9" font-family="Arial" font-size="14.00" fill="#000000">nationality    </text>
<text text-anchor="start" x="176.2188" y="-383.9" font-family="Arial" font-size="14.00" fill="#666666">[integer]</text>
<polygon fill="none" stroke="#000000" points="72,-342.5 72,-372.5 392,-372.5 392,-342.5 72,-342.5"/>
<text text-anchor="start" x="79" y="-353.9" font-family="Arial" font-size="14.00" fill="#000000">phone_number    </text>
<text text-anchor="start" x="207.352" y="-353.9" font-family="Arial" font-size="14.00" fill="#666666">[integer]</text>
<polygon fill="none" stroke="#000000" points="72,-312.5 72,-342.5 392,-342.5 392,-312.5 72,-312.5"/>
<text text-anchor="start" x="79" y="-323.9" font-family="Arial" font-size="14.00" fill="#000000">self_introduction    </text>
<text text-anchor="start" x="215.1178" y="-323.9" font-family="Arial" font-size="14.00" fill="#666666">[text]</text>
<polygon fill="none" stroke="#000000" points="72,-282.5 72,-312.5 392,-312.5 392,-282.5 72,-282.5"/>
<text text-anchor="start" x="79" y="-293.9" font-family="Arial" font-size="14.00" fill="#000000">desired_salary    </text>
<text text-anchor="start" x="204.2174" y="-293.9" font-family="Arial" font-size="14.00" fill="#666666">[text]</text>
</g>
<!-- public.applicant_articles&#45;&gt;public.applicants -->
<g id="edge1" class="edge">
<title>public.applicant_articles:applicant_id&#45;&gt;public.applicants:id</title>
<path fill="none" stroke="#000000" d="M267.767,-1116.7019C217.0828,-1107.9454 265.7207,-1028.8939 278,-967 303.8271,-836.8186 366.1729,-821.1814 392,-691 400.0867,-650.2389 433.5556,-597.5 392,-597.5"/>
<polygon fill="#000000" stroke="#000000" points="268.0303,-1116.7224 277.6501,-1121.9864 273.0151,-1117.1112 278,-1117.5 278,-1117.5 278,-1117.5 273.0151,-1117.1112 278.3499,-1113.0136 268.0303,-1116.7224 268.0303,-1116.7224"/>
<text text-anchor="start" x="6.7695" y="-1127.5" font-family="Arial" font-size="10.00" fill="#000000">FOREIGN KEY (applicant_id) REFERENCES applicants(id)</text>
</g>
<!-- public.articles -->
<g id="node3" class="node">
<title>public.articles</title>
<polygon fill="#efefef" stroke="transparent" points="496,-852.5 496,-887.5 816,-887.5 816,-852.5 496,-852.5"/>
<polygon fill="none" stroke="#000000" points="496,-852.5 496,-887.5 816,-887.5 816,-852.5 496,-852.5"/>
<text text-anchor="start" x="537.7138" y="-865.3" font-family="Arial Bold" font-size="18.00" fill="#000000">public.articles</text>
<text text-anchor="start" x="646.7182" y="-865.3" font-family="Arial" font-size="14.00" fill="#000000">    </text>
<text text-anchor="start" x="680.923" y="-865.3" font-family="Arial" font-size="14.00" fill="#666666">[BASE TABLE]</text>
<polygon fill="none" stroke="#000000" points="496,-822.5 496,-852.5 816,-852.5 816,-822.5 496,-822.5"/>
<text text-anchor="start" x="503" y="-833.9" font-family="Arial" font-size="14.00" fill="#000000">id    </text>
<text text-anchor="start" x="548.094" y="-833.9" font-family="Arial" font-size="14.00" fill="#666666">[bigint]</text>
<polygon fill="none" stroke="#000000" points="496,-792.5 496,-822.5 816,-822.5 816,-792.5 496,-792.5"/>
<text text-anchor="start" x="503" y="-803.9" font-family="Arial" font-size="14.00" fill="#000000">body    </text>
<text text-anchor="start" x="567.5526" y="-803.9" font-family="Arial" font-size="14.00" fill="#666666">[text]</text>
<polygon fill="none" stroke="#000000" points="496,-762.5 496,-792.5 816,-792.5 816,-762.5 496,-762.5"/>
<text text-anchor="start" x="503" y="-773.9" font-family="Arial" font-size="14.00" fill="#000000">user_id    </text>
<text text-anchor="start" x="583.1024" y="-773.9" font-family="Arial" font-size="14.00" fill="#666666">[bigint]</text>
<polygon fill="none" stroke="#000000" points="496,-732.5 496,-762.5 816,-762.5 816,-732.5 496,-732.5"/>
<text text-anchor="start" x="503" y="-743.9" font-family="Arial" font-size="14.00" fill="#000000">created_at    </text>
<text text-anchor="start" x="603.3422" y="-743.9" font-family="Arial" font-size="14.00" fill="#666666">[timestamp(6) without time zone]</text>
<polygon fill="none" stroke="#000000" points="496,-702.5 496,-732.5 816,-732.5 816,-702.5 496,-702.5"/>
<text text-anchor="start" x="502.7546" y="-713.9" font-family="Arial" font-size="14.00" fill="#000000">updated_at    </text>
<text text-anchor="start" x="607.0014" y="-713.9" font-family="Arial" font-size="14.00" fill="#666666">[timestamp(6) without time zone]</text>
<polygon fill="none" stroke="#000000" points="496,-672.5 496,-702.5 816,-702.5 816,-672.5 496,-672.5"/>
<text text-anchor="start" x="503" y="-683.9" font-family="Arial" font-size="14.00" fill="#000000">impressions_count    </text>
<text text-anchor="start" x="653.8906" y="-683.9" font-family="Arial" font-size="14.00" fill="#666666">[integer]</text>
<polygon fill="none" stroke="#000000" points="496,-642.5 496,-672.5 816,-672.5 816,-642.5 496,-642.5"/>
<text text-anchor="start" x="503" y="-653.9" font-family="Arial" font-size="14.00" fill="#000000">start_time    </text>
<text text-anchor="start" x="598.6522" y="-653.9" font-family="Arial" font-size="14.00" fill="#666666">[timestamp(6) without time zone]</text>
<polygon fill="none" stroke="#000000" points="496,-612.5 496,-642.5 816,-642.5 816,-612.5 496,-612.5"/>
<text text-anchor="start" x="503" y="-623.9" font-family="Arial" font-size="14.00" fill="#000000">end_time    </text>
<text text-anchor="start" x="594.7756" y="-623.9" font-family="Arial" font-size="14.00" fill="#666666">[timestamp(6) without time zone]</text>
<polygon fill="none" stroke="#000000" points="496,-582.5 496,-612.5 816,-612.5 816,-582.5 496,-582.5"/>
<text text-anchor="start" x="503" y="-593.9" font-family="Arial" font-size="14.00" fill="#000000">title    </text>
<text text-anchor="start" x="558.9818" y="-593.9" font-family="Arial" font-size="14.00" fill="#666666">[varchar]</text>
<polygon fill="none" stroke="#000000" points="496,-552.5 496,-582.5 816,-582.5 816,-552.5 496,-552.5"/>
<text text-anchor="start" x="503" y="-563.9" font-family="Arial" font-size="14.00" fill="#000000">application_deadline    </text>
<text text-anchor="start" x="664.8022" y="-563.9" font-family="Arial" font-size="14.00" fill="#666666">[date]</text>
<polygon fill="none" stroke="#000000" points="496,-522.5 496,-552.5 816,-552.5 816,-522.5 496,-522.5"/>
<text text-anchor="start" x="503" y="-533.9" font-family="Arial" font-size="14.00" fill="#000000">salary_details    </text>
<text text-anchor="start" x="622.7714" y="-533.9" font-family="Arial" font-size="14.00" fill="#666666">[text]</text>
<polygon fill="none" stroke="#000000" points="496,-492.5 496,-522.5 816,-522.5 816,-492.5 496,-492.5"/>
<text text-anchor="start" x="503" y="-503.9" font-family="Arial" font-size="14.00" fill="#000000">work_location    </text>
<text text-anchor="start" x="622.7714" y="-503.9" font-family="Arial" font-size="14.00" fill="#666666">[varchar]</text>
<polygon fill="none" stroke="#000000" points="496,-462.5 496,-492.5 816,-492.5 816,-462.5 496,-462.5"/>
<text text-anchor="start" x="503" y="-473.9" font-family="Arial" font-size="14.00" fill="#000000">language_requirement    </text>
<text text-anchor="start" x="677.2468" y="-473.9" font-family="Arial" font-size="14.00" fill="#666666">[varchar]</text>
<polygon fill="none" stroke="#000000" points="496,-432.5 496,-462.5 816,-462.5 816,-432.5 496,-432.5"/>
<text text-anchor="start" x="503" y="-443.9" font-family="Arial" font-size="14.00" fill="#000000">japanese_level    </text>
<text text-anchor="start" x="630.568" y="-443.9" font-family="Arial" font-size="14.00" fill="#666666">[varchar]</text>
<polygon fill="none" stroke="#000000" points="496,-402.5 496,-432.5 816,-432.5 816,-402.5 496,-402.5"/>
<text text-anchor="start" x="503" y="-413.9" font-family="Arial" font-size="14.00" fill="#000000">skills_required    </text>
<text text-anchor="start" x="626.648" y="-413.9" font-family="Arial" font-size="14.00" fill="#666666">[text]</text>
<polygon fill="none" stroke="#000000" points="496,-372.5 496,-402.5 816,-402.5 816,-372.5 496,-372.5"/>
<text text-anchor="start" x="503" y="-383.9" font-family="Arial" font-size="14.00" fill="#000000">employment_type    </text>
<text text-anchor="start" x="647.6746" y="-383.9" font-family="Arial" font-size="14.00" fill="#666666">[varchar]</text>
<polygon fill="none" stroke="#000000" points="496,-342.5 496,-372.5 816,-372.5 816,-342.5 496,-342.5"/>
<text text-anchor="start" x="503" y="-353.9" font-family="Arial" font-size="14.00" fill="#000000">description    </text>
<text text-anchor="start" x="604.8822" y="-353.9" font-family="Arial" font-size="14.00" fill="#666666">[text]</text>
<polygon fill="none" stroke="#000000" points="496,-312.5 496,-342.5 816,-342.5 816,-312.5 496,-312.5"/>
<text text-anchor="start" x="503" y="-323.9" font-family="Arial" font-size="14.00" fill="#000000">work_hours    </text>
<text text-anchor="start" x="609.5456" y="-323.9" font-family="Arial" font-size="14.00" fill="#666666">[varchar]</text>
<polygon fill="none" stroke="#000000" points="496,-282.5 496,-312.5 816,-312.5 816,-282.5 496,-282.5"/>
<text text-anchor="start" x="503" y="-293.9" font-family="Arial" font-size="14.00" fill="#000000">trial_period    </text>
<text text-anchor="start" x="606.432" y="-293.9" font-family="Arial" font-size="14.00" fill="#666666">[varchar]</text>
<polygon fill="none" stroke="#000000" points="496,-252.5 496,-282.5 816,-282.5 816,-252.5 496,-252.5"/>
<text text-anchor="start" x="503" y="-263.9" font-family="Arial" font-size="14.00" fill="#000000">days_off    </text>
<text text-anchor="start" x="590.1164" y="-263.9" font-family="Arial" font-size="14.00" fill="#666666">[varchar]</text>
<polygon fill="none" stroke="#000000" points="496,-222.5 496,-252.5 816,-252.5 816,-222.5 496,-222.5"/>
<text text-anchor="start" x="503" y="-233.9" font-family="Arial" font-size="14.00" fill="#000000">overtime    </text>
<text text-anchor="start" x="590.871" y="-233.9" font-family="Arial" font-size="14.00" fill="#666666">[varchar]</text>
<polygon fill="none" stroke="#000000" points="496,-192.5 496,-222.5 816,-222.5 816,-192.5 496,-192.5"/>
<text text-anchor="start" x="503" y="-203.9" font-family="Arial" font-size="14.00" fill="#000000">transportation    </text>
<text text-anchor="start" x="622.7826" y="-203.9" font-family="Arial" font-size="14.00" fill="#666666">[varchar]</text>
<polygon fill="none" stroke="#000000" points="496,-162.5 496,-192.5 816,-192.5 816,-162.5 496,-162.5"/>
<text text-anchor="start" x="503" y="-173.9" font-family="Arial" font-size="14.00" fill="#000000">work_environment    </text>
<text text-anchor="start" x="651.5512" y="-173.9" font-family="Arial" font-size="14.00" fill="#666666">[varchar]</text>
<polygon fill="none" stroke="#000000" points="496,-132.5 496,-162.5 816,-162.5 816,-132.5 496,-132.5"/>
<text text-anchor="start" x="503" y="-143.9" font-family="Arial" font-size="14.00" fill="#000000">other_allowances    </text>
<text text-anchor="start" x="646.1192" y="-143.9" font-family="Arial" font-size="14.00" fill="#666666">[varchar]</text>
<polygon fill="none" stroke="#000000" points="496,-102.5 496,-132.5 816,-132.5 816,-102.5 496,-102.5"/>
<text text-anchor="start" x="503" y="-113.9" font-family="Arial" font-size="14.00" fill="#000000">insurance    </text>
<text text-anchor="start" x="597.885" y="-113.9" font-family="Arial" font-size="14.00" fill="#666666">[varchar]</text>
<polygon fill="none" stroke="#000000" points="496,-72.5 496,-102.5 816,-102.5 816,-72.5 496,-72.5"/>
<text text-anchor="start" x="503" y="-83.9" font-family="Arial" font-size="14.00" fill="#000000">other_benefits    </text>
<text text-anchor="start" x="625.9046" y="-83.9" font-family="Arial" font-size="14.00" fill="#666666">[varchar]</text>
<polygon fill="none" stroke="#000000" points="496,-42.5 496,-72.5 816,-72.5 816,-42.5 496,-42.5"/>
<text text-anchor="start" x="503" y="-53.9" font-family="Arial" font-size="14.00" fill="#000000">status    </text>
<text text-anchor="start" x="574.5512" y="-53.9" font-family="Arial" font-size="14.00" fill="#666666">[integer]</text>
</g>
<!-- public.applicant_articles&#45;&gt;public.articles -->
<g id="edge2" class="edge">
<title>public.applicant_articles:article_id&#45;&gt;public.articles:id</title>
<path fill="none" stroke="#000000" d="M619.9463,-1086.4519C660.5162,-1077.0906 639.4941,-1007.2438 610,-967 578.5915,-924.1442 527.4085,-973.8558 496,-931 471.4353,-897.4823 454.4444,-837.5 496,-837.5"/>
<polygon fill="#000000" stroke="#000000" points="619.9449,-1086.4519 609.5284,-1083.0248 614.9725,-1086.976 610,-1087.5 610,-1087.5 610,-1087.5 614.9725,-1086.976 610.4716,-1091.9752 619.9449,-1086.4519 619.9449,-1086.4519"/>
<text text-anchor="start" x="616.8365" y="-1097.5" font-family="Arial" font-size="10.00" fill="#000000">FOREIGN KEY (article_id) REFERENCES articles(id) ON DELETE CASCADE</text>
</g>
</g>
</svg>
