<?xml version="1.0" encoding="UTF-8" standalone="no"?>
<!DOCTYPE svg PUBLIC "-//W3C//DTD SVG 1.1//EN"
 "http://www.w3.org/Graphics/SVG/1.1/DTD/svg11.dtd">
<!-- Generated by graphviz version 2.40.1 (20161225.0304)
 -->
<!-- Title: public.category_articles Pages: 1 -->
<svg width="865pt" height="712pt"
 viewBox="0.00 0.00 865.00 712.00" xmlns="http://www.w3.org/2000/svg" xmlns:xlink="http://www.w3.org/1999/xlink">
<g id="graph0" class="graph" transform="scale(1 1) rotate(0) translate(4 708)">
<title>public.category_articles</title>
<polygon fill="#ffffff" stroke="transparent" points="-4,4 -4,-708 861,-708 861,4 -4,4"/>
<!-- public.category_articles -->
<g id="node1" class="node">
<title>public.category_articles</title>
<polygon fill="#efefef" stroke="transparent" points="277,-622.5 277,-657.5 606,-657.5 606,-622.5 277,-622.5"/>
<polygon fill="none" stroke="#000000" points="277,-622.5 277,-657.5 606,-657.5 606,-622.5 277,-622.5"/>
<text text-anchor="start" x="283.7011" y="-635.3" font-family="Arial Bold" font-size="18.00" fill="#000000">public.category_articles</text>
<text text-anchor="start" x="471.7309" y="-635.3" font-family="Arial" font-size="14.00" fill="#000000">    </text>
<text text-anchor="start" x="505.9357" y="-635.3" font-family="Arial" font-size="14.00" fill="#666666">[BASE TABLE]</text>
<polygon fill="none" stroke="#000000" points="277,-592.5 277,-622.5 606,-622.5 606,-592.5 277,-592.5"/>
<text text-anchor="start" x="284" y="-603.9" font-family="Arial" font-size="14.00" fill="#000000">id </text>
<text text-anchor="start" x="298.7798" y="-603.9" font-family="Arial" font-size="14.00" fill="#666666">[bigint]</text>
<polygon fill="none" stroke="#000000" points="277,-562.5 277,-592.5 606,-592.5 606,-562.5 277,-562.5"/>
<text text-anchor="start" x="284" y="-573.9" font-family="Arial" font-size="14.00" fill="#000000">category_id </text>
<text text-anchor="start" x="360.244" y="-573.9" font-family="Arial" font-size="14.00" fill="#666666">[bigint]</text>
<polygon fill="none" stroke="#000000" points="277,-532.5 277,-562.5 606,-562.5 606,-532.5 277,-532.5"/>
<text text-anchor="start" x="284" y="-543.9" font-family="Arial" font-size="14.00" fill="#000000">article_id </text>
<text text-anchor="start" x="343.892" y="-543.9" font-family="Arial" font-size="14.00" fill="#666666">[bigint]</text>
<polygon fill="none" stroke="#000000" points="277,-502.5 277,-532.5 606,-532.5 606,-502.5 277,-502.5"/>
<text text-anchor="start" x="284" y="-513.9" font-family="Arial" font-size="14.00" fill="#000000">created_at </text>
<text text-anchor="start" x="354.028" y="-513.9" font-family="Arial" font-size="14.00" fill="#666666">[timestamp(6) without time zone]</text>
<polygon fill="none" stroke="#000000" points="277,-472.5 277,-502.5 606,-502.5 606,-472.5 277,-472.5"/>
<text text-anchor="start" x="284" y="-483.9" font-family="Arial" font-size="14.00" fill="#000000">updated_at </text>
<text text-anchor="start" x="357.9326" y="-483.9" font-family="Arial" font-size="14.00" fill="#666666">[timestamp(6) without time zone]</text>
<polygon fill="none" stroke="#000000" stroke-width="3" points="275,-471.5 275,-659.5 607,-659.5 607,-471.5 275,-471.5"/>
</g>
<!-- public.categories -->
<g id="node2" class="node">
<title>public.categories</title>
<polygon fill="#efefef" stroke="transparent" points="70,-237.5 70,-272.5 390,-272.5 390,-237.5 70,-237.5"/>
<polygon fill="none" stroke="#000000" points="70,-237.5 70,-272.5 390,-272.5 390,-237.5 70,-237.5"/>
<text text-anchor="start" x="98.7016" y="-250.3" font-family="Arial Bold" font-size="18.00" fill="#000000">public.categories</text>
<text text-anchor="start" x="233.7304" y="-250.3" font-family="Arial" font-size="14.00" fill="#000000">    </text>
<text text-anchor="start" x="267.9352" y="-250.3" font-family="Arial" font-size="14.00" fill="#666666">[BASE TABLE]</text>
<polygon fill="none" stroke="#000000" points="70,-207.5 70,-237.5 390,-237.5 390,-207.5 70,-207.5"/>
<text text-anchor="start" x="77" y="-218.9" font-family="Arial" font-size="14.00" fill="#000000">id    </text>
<text text-anchor="start" x="122.094" y="-218.9" font-family="Arial" font-size="14.00" fill="#666666">[bigint]</text>
<polygon fill="none" stroke="#000000" points="70,-177.5 70,-207.5 390,-207.5 390,-177.5 70,-177.5"/>
<text text-anchor="start" x="77" y="-188.9" font-family="Arial" font-size="14.00" fill="#000000">name    </text>
<text text-anchor="start" x="146.2132" y="-188.9" font-family="Arial" font-size="14.00" fill="#666666">[varchar]</text>
<polygon fill="none" stroke="#000000" points="70,-147.5 70,-177.5 390,-177.5 390,-147.5 70,-147.5"/>
<text text-anchor="start" x="77" y="-158.9" font-family="Arial" font-size="14.00" fill="#000000">created_at    </text>
<text text-anchor="start" x="177.3422" y="-158.9" font-family="Arial" font-size="14.00" fill="#666666">[timestamp(6) without time zone]</text>
<polygon fill="none" stroke="#000000" points="70,-117.5 70,-147.5 390,-147.5 390,-117.5 70,-117.5"/>
<text text-anchor="start" x="76.7546" y="-128.9" font-family="Arial" font-size="14.00" fill="#000000">updated_at    </text>
<text text-anchor="start" x="181.0014" y="-128.9" font-family="Arial" font-size="14.00" fill="#666666">[timestamp(6) without time zone]</text>
</g>
<!-- public.category_articles&#45;&gt;public.categories -->
<g id="edge1" class="edge">
<title>public.category_articles:category_id&#45;&gt;public.categories:id</title>
<path fill="none" stroke="#000000" d="M266.9741,-576.7221C214.5519,-567.8667 252.542,-485.3091 277,-427 304.2307,-362.0805 362.7693,-380.9195 390,-316 406.0739,-277.679 431.5556,-222.5 390,-222.5"/>
<polygon fill="#000000" stroke="#000000" points="267.03,-576.7263 276.6518,-581.9865 272.015,-577.1132 277,-577.5 277,-577.5 277,-577.5 272.015,-577.1132 277.3482,-573.0135 267.03,-576.7263 267.03,-576.7263"/>
<text text-anchor="start" x="7.0485" y="-587.5" font-family="Arial" font-size="10.00" fill="#000000">FOREIGN KEY (category_id) REFERENCES categories(id)</text>
</g>
<!-- public.articles -->
<g id="node3" class="node">
<title>public.articles</title>
<polygon fill="#efefef" stroke="transparent" points="494,-312.5 494,-347.5 814,-347.5 814,-312.5 494,-312.5"/>
<polygon fill="none" stroke="#000000" points="494,-312.5 494,-347.5 814,-347.5 814,-312.5 494,-312.5"/>
<text text-anchor="start" x="535.7138" y="-325.3" font-family="Arial Bold" font-size="18.00" fill="#000000">public.articles</text>
<text text-anchor="start" x="644.7182" y="-325.3" font-family="Arial" font-size="14.00" fill="#000000">    </text>
<text text-anchor="start" x="678.923" y="-325.3" font-family="Arial" font-size="14.00" fill="#666666">[BASE TABLE]</text>
<polygon fill="none" stroke="#000000" points="494,-282.5 494,-312.5 814,-312.5 814,-282.5 494,-282.5"/>
<text text-anchor="start" x="501" y="-293.9" font-family="Arial" font-size="14.00" fill="#000000">id    </text>
<text text-anchor="start" x="546.094" y="-293.9" font-family="Arial" font-size="14.00" fill="#666666">[bigint]</text>
<polygon fill="none" stroke="#000000" points="494,-252.5 494,-282.5 814,-282.5 814,-252.5 494,-252.5"/>
<text text-anchor="start" x="501" y="-263.9" font-family="Arial" font-size="14.00" fill="#000000">body    </text>
<text text-anchor="start" x="565.5526" y="-263.9" font-family="Arial" font-size="14.00" fill="#666666">[text]</text>
<polygon fill="none" stroke="#000000" points="494,-222.5 494,-252.5 814,-252.5 814,-222.5 494,-222.5"/>
<text text-anchor="start" x="501" y="-233.9" font-family="Arial" font-size="14.00" fill="#000000">user_id    </text>
<text text-anchor="start" x="581.1024" y="-233.9" font-family="Arial" font-size="14.00" fill="#666666">[bigint]</text>
<polygon fill="none" stroke="#000000" points="494,-192.5 494,-222.5 814,-222.5 814,-192.5 494,-192.5"/>
<text text-anchor="start" x="501" y="-203.9" font-family="Arial" font-size="14.00" fill="#000000">created_at    </text>
<text text-anchor="start" x="601.3422" y="-203.9" font-family="Arial" font-size="14.00" fill="#666666">[timestamp(6) without time zone]</text>
<polygon fill="none" stroke="#000000" points="494,-162.5 494,-192.5 814,-192.5 814,-162.5 494,-162.5"/>
<text text-anchor="start" x="500.7546" y="-173.9" font-family="Arial" font-size="14.00" fill="#000000">updated_at    </text>
<text text-anchor="start" x="605.0014" y="-173.9" font-family="Arial" font-size="14.00" fill="#666666">[timestamp(6) without time zone]</text>
<polygon fill="none" stroke="#000000" points="494,-132.5 494,-162.5 814,-162.5 814,-132.5 494,-132.5"/>
<text text-anchor="start" x="501" y="-143.9" font-family="Arial" font-size="14.00" fill="#000000">impressions_count    </text>
<text text-anchor="start" x="651.8906" y="-143.9" font-family="Arial" font-size="14.00" fill="#666666">[integer]</text>
<polygon fill="none" stroke="#000000" points="494,-102.5 494,-132.5 814,-132.5 814,-102.5 494,-102.5"/>
<text text-anchor="start" x="501" y="-113.9" font-family="Arial" font-size="14.00" fill="#000000">file    </text>
<text text-anchor="start" x="553.0912" y="-113.9" font-family="Arial" font-size="14.00" fill="#666666">[varchar]</text>
<polygon fill="none" stroke="#000000" points="494,-72.5 494,-102.5 814,-102.5 814,-72.5 494,-72.5"/>
<text text-anchor="start" x="501" y="-83.9" font-family="Arial" font-size="14.00" fill="#000000">start_time    </text>
<text text-anchor="start" x="596.6522" y="-83.9" font-family="Arial" font-size="14.00" fill="#666666">[timestamp(6) without time zone]</text>
<polygon fill="none" stroke="#000000" points="494,-42.5 494,-72.5 814,-72.5 814,-42.5 494,-42.5"/>
<text text-anchor="start" x="501" y="-53.9" font-family="Arial" font-size="14.00" fill="#000000">end_time    </text>
<text text-anchor="start" x="592.7756" y="-53.9" font-family="Arial" font-size="14.00" fill="#666666">[timestamp(6) without time zone]</text>
</g>
<!-- public.category_articles&#45;&gt;public.articles -->
<g id="edge2" class="edge">
<title>public.category_articles:article_id&#45;&gt;public.articles:id</title>
<path fill="none" stroke="#000000" d="M616.1991,-546.3933C656.4135,-536.8084 635.3294,-467.2346 606,-427 575.2002,-384.7484 524.7998,-433.2516 494,-391 469.5212,-357.4195 452.4444,-297.5 494,-297.5"/>
<polygon fill="#000000" stroke="#000000" points="615.9416,-546.4212 605.5145,-543.0263 610.9708,-546.9606 606,-547.5 606,-547.5 606,-547.5 610.9708,-546.9606 606.4855,-551.9737 615.9416,-546.4212 615.9416,-546.4212"/>
<text text-anchor="start" x="613.1175" y="-557.5" font-family="Arial" font-size="10.00" fill="#000000">FOREIGN KEY (article_id) REFERENCES articles(id)</text>
</g>
</g>
</svg>
