<?xml version="1.0" encoding="UTF-8" standalone="no"?>
<!DOCTYPE svg PUBLIC "-//W3C//DTD SVG 1.1//EN"
 "http://www.w3.org/Graphics/SVG/1.1/DTD/svg11.dtd">
<!-- Generated by graphviz version 2.40.1 (20161225.0304)
 -->
<!-- Title: public.users Pages: 1 -->
<svg width="1262pt" height="1312pt"
 viewBox="0.00 0.00 1262.00 1312.00" xmlns="http://www.w3.org/2000/svg" xmlns:xlink="http://www.w3.org/1999/xlink">
<g id="graph0" class="graph" transform="scale(1 1) rotate(0) translate(4 1308)">
<title>public.users</title>
<polygon fill="#ffffff" stroke="transparent" points="-4,4 -4,-1308 1258,-1308 1258,4 -4,4"/>
<!-- public.users -->
<g id="node1" class="node">
<title>public.users</title>
<polygon fill="#efefef" stroke="transparent" points="482,-255.5 482,-290.5 772,-290.5 772,-255.5 482,-255.5"/>
<polygon fill="none" stroke="#000000" points="482,-255.5 482,-290.5 772,-290.5 772,-255.5 482,-255.5"/>
<text text-anchor="start" x="515.2091" y="-268.3" font-family="Arial Bold" font-size="18.00" fill="#000000">public.users</text>
<text text-anchor="start" x="611.2229" y="-268.3" font-family="Arial" font-size="14.00" fill="#000000">    </text>
<text text-anchor="start" x="645.4277" y="-268.3" font-family="Arial" font-size="14.00" fill="#666666">[BASE TABLE]</text>
<polygon fill="none" stroke="#000000" points="482,-225.5 482,-255.5 772,-255.5 772,-225.5 482,-225.5"/>
<text text-anchor="start" x="489" y="-236.9" font-family="Arial" font-size="14.00" fill="#000000">id </text>
<text text-anchor="start" x="503.7798" y="-236.9" font-family="Arial" font-size="14.00" fill="#666666">[bigint]</text>
<polygon fill="none" stroke="#000000" points="482,-195.5 482,-225.5 772,-225.5 772,-195.5 482,-195.5"/>
<text text-anchor="start" x="489" y="-206.9" font-family="Arial" font-size="14.00" fill="#000000">email </text>
<text text-anchor="start" x="526.3296" y="-206.9" font-family="Arial" font-size="14.00" fill="#666666">[varchar]</text>
<polygon fill="none" stroke="#000000" points="482,-165.5 482,-195.5 772,-195.5 772,-165.5 482,-165.5"/>
<text text-anchor="start" x="489" y="-176.9" font-family="Arial" font-size="14.00" fill="#000000">created_at </text>
<text text-anchor="start" x="559.028" y="-176.9" font-family="Arial" font-size="14.00" fill="#666666">[timestamp(6) without time zone]</text>
<polygon fill="none" stroke="#000000" points="482,-135.5 482,-165.5 772,-165.5 772,-135.5 482,-135.5"/>
<text text-anchor="start" x="488.9117" y="-146.9" font-family="Arial" font-size="14.00" fill="#000000">updated_at </text>
<text text-anchor="start" x="562.8443" y="-146.9" font-family="Arial" font-size="14.00" fill="#666666">[timestamp(6) without time zone]</text>
<polygon fill="none" stroke="#000000" points="482,-105.5 482,-135.5 772,-135.5 772,-105.5 482,-105.5"/>
<text text-anchor="start" x="489" y="-116.9" font-family="Arial" font-size="14.00" fill="#000000">role </text>
<text text-anchor="start" x="516.223" y="-116.9" font-family="Arial" font-size="14.00" fill="#666666">[integer]</text>
<polygon fill="none" stroke="#000000" points="482,-75.5 482,-105.5 772,-105.5 772,-75.5 482,-75.5"/>
<text text-anchor="start" x="489" y="-86.9" font-family="Arial" font-size="14.00" fill="#000000">username </text>
<text text-anchor="start" x="555.1248" y="-86.9" font-family="Arial" font-size="14.00" fill="#666666">[varchar]</text>
<polygon fill="none" stroke="#000000" points="482,-45.5 482,-75.5 772,-75.5 772,-45.5 482,-45.5"/>
<text text-anchor="start" x="489" y="-56.9" font-family="Arial" font-size="14.00" fill="#000000">avatar </text>
<text text-anchor="start" x="531.7896" y="-56.9" font-family="Arial" font-size="14.00" fill="#666666">[varchar]</text>
<polygon fill="none" stroke="#000000" stroke-width="3" points="480.5,-44.5 480.5,-292.5 773.5,-292.5 773.5,-44.5 480.5,-44.5"/>
</g>
<!-- public.articles -->
<g id="node2" class="node">
<title>public.articles</title>
<polygon fill="#efefef" stroke="transparent" points="43,-1225.5 43,-1260.5 363,-1260.5 363,-1225.5 43,-1225.5"/>
<polygon fill="none" stroke="#000000" points="43,-1225.5 43,-1260.5 363,-1260.5 363,-1225.5 43,-1225.5"/>
<text text-anchor="start" x="84.7138" y="-1238.3" font-family="Arial Bold" font-size="18.00" fill="#000000">public.articles</text>
<text text-anchor="start" x="193.7182" y="-1238.3" font-family="Arial" font-size="14.00" fill="#000000">    </text>
<text text-anchor="start" x="227.923" y="-1238.3" font-family="Arial" font-size="14.00" fill="#666666">[BASE TABLE]</text>
<polygon fill="none" stroke="#000000" points="43,-1195.5 43,-1225.5 363,-1225.5 363,-1195.5 43,-1195.5"/>
<text text-anchor="start" x="50" y="-1206.9" font-family="Arial" font-size="14.00" fill="#000000">id    </text>
<text text-anchor="start" x="95.094" y="-1206.9" font-family="Arial" font-size="14.00" fill="#666666">[bigint]</text>
<polygon fill="none" stroke="#000000" points="43,-1165.5 43,-1195.5 363,-1195.5 363,-1165.5 43,-1165.5"/>
<text text-anchor="start" x="50" y="-1176.9" font-family="Arial" font-size="14.00" fill="#000000">body    </text>
<text text-anchor="start" x="114.5526" y="-1176.9" font-family="Arial" font-size="14.00" fill="#666666">[text]</text>
<polygon fill="none" stroke="#000000" points="43,-1135.5 43,-1165.5 363,-1165.5 363,-1135.5 43,-1135.5"/>
<text text-anchor="start" x="50" y="-1146.9" font-family="Arial" font-size="14.00" fill="#000000">user_id    </text>
<text text-anchor="start" x="130.1024" y="-1146.9" font-family="Arial" font-size="14.00" fill="#666666">[bigint]</text>
<polygon fill="none" stroke="#000000" points="43,-1105.5 43,-1135.5 363,-1135.5 363,-1105.5 43,-1105.5"/>
<text text-anchor="start" x="50" y="-1116.9" font-family="Arial" font-size="14.00" fill="#000000">created_at    </text>
<text text-anchor="start" x="150.3422" y="-1116.9" font-family="Arial" font-size="14.00" fill="#666666">[timestamp(6) without time zone]</text>
<polygon fill="none" stroke="#000000" points="43,-1075.5 43,-1105.5 363,-1105.5 363,-1075.5 43,-1075.5"/>
<text text-anchor="start" x="49.7546" y="-1086.9" font-family="Arial" font-size="14.00" fill="#000000">updated_at    </text>
<text text-anchor="start" x="154.0014" y="-1086.9" font-family="Arial" font-size="14.00" fill="#666666">[timestamp(6) without time zone]</text>
<polygon fill="none" stroke="#000000" points="43,-1045.5 43,-1075.5 363,-1075.5 363,-1045.5 43,-1045.5"/>
<text text-anchor="start" x="50" y="-1056.9" font-family="Arial" font-size="14.00" fill="#000000">impressions_count    </text>
<text text-anchor="start" x="200.8906" y="-1056.9" font-family="Arial" font-size="14.00" fill="#666666">[integer]</text>
<polygon fill="none" stroke="#000000" points="43,-1015.5 43,-1045.5 363,-1045.5 363,-1015.5 43,-1015.5"/>
<text text-anchor="start" x="50" y="-1026.9" font-family="Arial" font-size="14.00" fill="#000000">start_time    </text>
<text text-anchor="start" x="145.6522" y="-1026.9" font-family="Arial" font-size="14.00" fill="#666666">[timestamp(6) without time zone]</text>
<polygon fill="none" stroke="#000000" points="43,-985.5 43,-1015.5 363,-1015.5 363,-985.5 43,-985.5"/>
<text text-anchor="start" x="50" y="-996.9" font-family="Arial" font-size="14.00" fill="#000000">end_time    </text>
<text text-anchor="start" x="141.7756" y="-996.9" font-family="Arial" font-size="14.00" fill="#666666">[timestamp(6) without time zone]</text>
<polygon fill="none" stroke="#000000" points="43,-955.5 43,-985.5 363,-985.5 363,-955.5 43,-955.5"/>
<text text-anchor="start" x="50" y="-966.9" font-family="Arial" font-size="14.00" fill="#000000">title    </text>
<text text-anchor="start" x="105.9818" y="-966.9" font-family="Arial" font-size="14.00" fill="#666666">[varchar]</text>
<polygon fill="none" stroke="#000000" points="43,-925.5 43,-955.5 363,-955.5 363,-925.5 43,-925.5"/>
<text text-anchor="start" x="50" y="-936.9" font-family="Arial" font-size="14.00" fill="#000000">application_deadline    </text>
<text text-anchor="start" x="211.8022" y="-936.9" font-family="Arial" font-size="14.00" fill="#666666">[date]</text>
<polygon fill="none" stroke="#000000" points="43,-895.5 43,-925.5 363,-925.5 363,-895.5 43,-895.5"/>
<text text-anchor="start" x="50" y="-906.9" font-family="Arial" font-size="14.00" fill="#000000">salary_details    </text>
<text text-anchor="start" x="169.7714" y="-906.9" font-family="Arial" font-size="14.00" fill="#666666">[text]</text>
<polygon fill="none" stroke="#000000" points="43,-865.5 43,-895.5 363,-895.5 363,-865.5 43,-865.5"/>
<text text-anchor="start" x="50" y="-876.9" font-family="Arial" font-size="14.00" fill="#000000">work_location    </text>
<text text-anchor="start" x="169.7714" y="-876.9" font-family="Arial" font-size="14.00" fill="#666666">[varchar]</text>
<polygon fill="none" stroke="#000000" points="43,-835.5 43,-865.5 363,-865.5 363,-835.5 43,-835.5"/>
<text text-anchor="start" x="50" y="-846.9" font-family="Arial" font-size="14.00" fill="#000000">language_requirement    </text>
<text text-anchor="start" x="224.2468" y="-846.9" font-family="Arial" font-size="14.00" fill="#666666">[varchar]</text>
<polygon fill="none" stroke="#000000" points="43,-805.5 43,-835.5 363,-835.5 363,-805.5 43,-805.5"/>
<text text-anchor="start" x="50" y="-816.9" font-family="Arial" font-size="14.00" fill="#000000">japanese_level    </text>
<text text-anchor="start" x="177.568" y="-816.9" font-family="Arial" font-size="14.00" fill="#666666">[varchar]</text>
<polygon fill="none" stroke="#000000" points="43,-775.5 43,-805.5 363,-805.5 363,-775.5 43,-775.5"/>
<text text-anchor="start" x="50" y="-786.9" font-family="Arial" font-size="14.00" fill="#000000">skills_required    </text>
<text text-anchor="start" x="173.648" y="-786.9" font-family="Arial" font-size="14.00" fill="#666666">[text]</text>
<polygon fill="none" stroke="#000000" points="43,-745.5 43,-775.5 363,-775.5 363,-745.5 43,-745.5"/>
<text text-anchor="start" x="50" y="-756.9" font-family="Arial" font-size="14.00" fill="#000000">employment_type    </text>
<text text-anchor="start" x="194.6746" y="-756.9" font-family="Arial" font-size="14.00" fill="#666666">[varchar]</text>
<polygon fill="none" stroke="#000000" points="43,-715.5 43,-745.5 363,-745.5 363,-715.5 43,-715.5"/>
<text text-anchor="start" x="50" y="-726.9" font-family="Arial" font-size="14.00" fill="#000000">description    </text>
<text text-anchor="start" x="151.8822" y="-726.9" font-family="Arial" font-size="14.00" fill="#666666">[text]</text>
<polygon fill="none" stroke="#000000" points="43,-685.5 43,-715.5 363,-715.5 363,-685.5 43,-685.5"/>
<text text-anchor="start" x="50" y="-696.9" font-family="Arial" font-size="14.00" fill="#000000">work_hours    </text>
<text text-anchor="start" x="156.5456" y="-696.9" font-family="Arial" font-size="14.00" fill="#666666">[varchar]</text>
<polygon fill="none" stroke="#000000" points="43,-655.5 43,-685.5 363,-685.5 363,-655.5 43,-655.5"/>
<text text-anchor="start" x="50" y="-666.9" font-family="Arial" font-size="14.00" fill="#000000">trial_period    </text>
<text text-anchor="start" x="153.432" y="-666.9" font-family="Arial" font-size="14.00" fill="#666666">[varchar]</text>
<polygon fill="none" stroke="#000000" points="43,-625.5 43,-655.5 363,-655.5 363,-625.5 43,-625.5"/>
<text text-anchor="start" x="50" y="-636.9" font-family="Arial" font-size="14.00" fill="#000000">days_off    </text>
<text text-anchor="start" x="137.1164" y="-636.9" font-family="Arial" font-size="14.00" fill="#666666">[varchar]</text>
<polygon fill="none" stroke="#000000" points="43,-595.5 43,-625.5 363,-625.5 363,-595.5 43,-595.5"/>
<text text-anchor="start" x="50" y="-606.9" font-family="Arial" font-size="14.00" fill="#000000">overtime    </text>
<text text-anchor="start" x="137.871" y="-606.9" font-family="Arial" font-size="14.00" fill="#666666">[varchar]</text>
<polygon fill="none" stroke="#000000" points="43,-565.5 43,-595.5 363,-595.5 363,-565.5 43,-565.5"/>
<text text-anchor="start" x="50" y="-576.9" font-family="Arial" font-size="14.00" fill="#000000">transportation    </text>
<text text-anchor="start" x="169.7826" y="-576.9" font-family="Arial" font-size="14.00" fill="#666666">[varchar]</text>
<polygon fill="none" stroke="#000000" points="43,-535.5 43,-565.5 363,-565.5 363,-535.5 43,-535.5"/>
<text text-anchor="start" x="50" y="-546.9" font-family="Arial" font-size="14.00" fill="#000000">work_environment    </text>
<text text-anchor="start" x="198.5512" y="-546.9" font-family="Arial" font-size="14.00" fill="#666666">[varchar]</text>
<polygon fill="none" stroke="#000000" points="43,-505.5 43,-535.5 363,-535.5 363,-505.5 43,-505.5"/>
<text text-anchor="start" x="50" y="-516.9" font-family="Arial" font-size="14.00" fill="#000000">other_allowances    </text>
<text text-anchor="start" x="193.1192" y="-516.9" font-family="Arial" font-size="14.00" fill="#666666">[varchar]</text>
<polygon fill="none" stroke="#000000" points="43,-475.5 43,-505.5 363,-505.5 363,-475.5 43,-475.5"/>
<text text-anchor="start" x="50" y="-486.9" font-family="Arial" font-size="14.00" fill="#000000">insurance    </text>
<text text-anchor="start" x="144.885" y="-486.9" font-family="Arial" font-size="14.00" fill="#666666">[varchar]</text>
<polygon fill="none" stroke="#000000" points="43,-445.5 43,-475.5 363,-475.5 363,-445.5 43,-445.5"/>
<text text-anchor="start" x="50" y="-456.9" font-family="Arial" font-size="14.00" fill="#000000">other_benefits    </text>
<text text-anchor="start" x="172.9046" y="-456.9" font-family="Arial" font-size="14.00" fill="#666666">[varchar]</text>
<polygon fill="none" stroke="#000000" points="43,-415.5 43,-445.5 363,-445.5 363,-415.5 43,-415.5"/>
<text text-anchor="start" x="50" y="-426.9" font-family="Arial" font-size="14.00" fill="#000000">status    </text>
<text text-anchor="start" x="121.5512" y="-426.9" font-family="Arial" font-size="14.00" fill="#666666">[integer]</text>
</g>
<!-- public.articles&#45;&gt;public.users -->
<g id="edge1" class="edge">
<title>public.articles:user_id&#45;&gt;public.users:id</title>
<path fill="none" stroke="#000000" d="M372.9421,-1147.0875C445.0031,-1094.5976 393.0553,-453.0782 415,-373 432.4407,-309.357 416.0105,-240.5 482,-240.5"/>
<polygon fill="#000000" stroke="#000000" points="372.4584,-1147.2535 361.5391,-1146.2437 367.7292,-1148.8767 363,-1150.5 363,-1150.5 363,-1150.5 367.7292,-1148.8767 364.4609,-1154.7563 372.4584,-1147.2535 372.4584,-1147.2535"/>
<text text-anchor="start" x="370.3345" y="-1160.5" font-family="Arial" font-size="10.00" fill="#000000">FOREIGN KEY (user_id) REFERENCES users(id)</text>
</g>
<!-- public.bookmarks -->
<g id="node3" class="node">
<title>public.bookmarks</title>
<polygon fill="#efefef" stroke="transparent" points="467,-895.5 467,-930.5 787,-930.5 787,-895.5 467,-895.5"/>
<polygon fill="none" stroke="#000000" points="467,-895.5 467,-930.5 787,-930.5 787,-895.5 467,-895.5"/>
<text text-anchor="start" x="493.2068" y="-908.3" font-family="Arial Bold" font-size="18.00" fill="#000000">public.bookmarks</text>
<text text-anchor="start" x="633.2252" y="-908.3" font-family="Arial" font-size="14.00" fill="#000000">    </text>
<text text-anchor="start" x="667.43" y="-908.3" font-family="Arial" font-size="14.00" fill="#666666">[BASE TABLE]</text>
<polygon fill="none" stroke="#000000" points="467,-865.5 467,-895.5 787,-895.5 787,-865.5 467,-865.5"/>
<text text-anchor="start" x="474" y="-876.9" font-family="Arial" font-size="14.00" fill="#000000">id    </text>
<text text-anchor="start" x="519.094" y="-876.9" font-family="Arial" font-size="14.00" fill="#666666">[bigint]</text>
<polygon fill="none" stroke="#000000" points="467,-835.5 467,-865.5 787,-865.5 787,-835.5 467,-835.5"/>
<text text-anchor="start" x="474" y="-846.9" font-family="Arial" font-size="14.00" fill="#000000">user_id    </text>
<text text-anchor="start" x="554.1024" y="-846.9" font-family="Arial" font-size="14.00" fill="#666666">[bigint]</text>
<polygon fill="none" stroke="#000000" points="467,-805.5 467,-835.5 787,-835.5 787,-805.5 467,-805.5"/>
<text text-anchor="start" x="474" y="-816.9" font-family="Arial" font-size="14.00" fill="#000000">article_id    </text>
<text text-anchor="start" x="564.2062" y="-816.9" font-family="Arial" font-size="14.00" fill="#666666">[bigint]</text>
<polygon fill="none" stroke="#000000" points="467,-775.5 467,-805.5 787,-805.5 787,-775.5 467,-775.5"/>
<text text-anchor="start" x="474" y="-786.9" font-family="Arial" font-size="14.00" fill="#000000">created_at    </text>
<text text-anchor="start" x="574.3422" y="-786.9" font-family="Arial" font-size="14.00" fill="#666666">[timestamp(6) without time zone]</text>
<polygon fill="none" stroke="#000000" points="467,-745.5 467,-775.5 787,-775.5 787,-745.5 467,-745.5"/>
<text text-anchor="start" x="473.7546" y="-756.9" font-family="Arial" font-size="14.00" fill="#000000">updated_at    </text>
<text text-anchor="start" x="578.0014" y="-756.9" font-family="Arial" font-size="14.00" fill="#666666">[timestamp(6) without time zone]</text>
</g>
<!-- public.bookmarks&#45;&gt;public.users -->
<g id="edge2" class="edge">
<title>public.bookmarks:user_id&#45;&gt;public.users:id</title>
<path fill="none" stroke="#000000" d="M796.3427,-846.279C853.2075,-792.384 836.4878,-240.5 772,-240.5"/>
<polygon fill="#000000" stroke="#000000" points="796.1131,-846.3826 785.1472,-846.3991 791.5565,-848.4413 787,-850.5 787,-850.5 787,-850.5 791.5565,-848.4413 788.8528,-854.6009 796.1131,-846.3826 796.1131,-846.3826"/>
<text text-anchor="start" x="794.3345" y="-860.5" font-family="Arial" font-size="10.00" fill="#000000">FOREIGN KEY (user_id) REFERENCES users(id)</text>
</g>
<!-- public.likes -->
<g id="node4" class="node">
<title>public.likes</title>
<polygon fill="#efefef" stroke="transparent" points="891,-895.5 891,-930.5 1211,-930.5 1211,-895.5 891,-895.5"/>
<polygon fill="none" stroke="#000000" points="891,-895.5 891,-930.5 1211,-930.5 1211,-895.5 891,-895.5"/>
<text text-anchor="start" x="943.2141" y="-908.3" font-family="Arial Bold" font-size="18.00" fill="#000000">public.likes</text>
<text text-anchor="start" x="1031.2179" y="-908.3" font-family="Arial" font-size="14.00" fill="#000000">    </text>
<text text-anchor="start" x="1065.4227" y="-908.3" font-family="Arial" font-size="14.00" fill="#666666">[BASE TABLE]</text>
<polygon fill="none" stroke="#000000" points="891,-865.5 891,-895.5 1211,-895.5 1211,-865.5 891,-865.5"/>
<text text-anchor="start" x="898" y="-876.9" font-family="Arial" font-size="14.00" fill="#000000">id    </text>
<text text-anchor="start" x="943.094" y="-876.9" font-family="Arial" font-size="14.00" fill="#666666">[bigint]</text>
<polygon fill="none" stroke="#000000" points="891,-835.5 891,-865.5 1211,-865.5 1211,-835.5 891,-835.5"/>
<text text-anchor="start" x="898" y="-846.9" font-family="Arial" font-size="14.00" fill="#000000">user_id    </text>
<text text-anchor="start" x="978.1024" y="-846.9" font-family="Arial" font-size="14.00" fill="#666666">[bigint]</text>
<polygon fill="none" stroke="#000000" points="891,-805.5 891,-835.5 1211,-835.5 1211,-805.5 891,-805.5"/>
<text text-anchor="start" x="898" y="-816.9" font-family="Arial" font-size="14.00" fill="#000000">article_id    </text>
<text text-anchor="start" x="988.2062" y="-816.9" font-family="Arial" font-size="14.00" fill="#666666">[bigint]</text>
<polygon fill="none" stroke="#000000" points="891,-775.5 891,-805.5 1211,-805.5 1211,-775.5 891,-775.5"/>
<text text-anchor="start" x="898" y="-786.9" font-family="Arial" font-size="14.00" fill="#000000">created_at    </text>
<text text-anchor="start" x="998.3422" y="-786.9" font-family="Arial" font-size="14.00" fill="#666666">[timestamp(6) without time zone]</text>
<polygon fill="none" stroke="#000000" points="891,-745.5 891,-775.5 1211,-775.5 1211,-745.5 891,-745.5"/>
<text text-anchor="start" x="897.7546" y="-756.9" font-family="Arial" font-size="14.00" fill="#000000">updated_at    </text>
<text text-anchor="start" x="1002.0014" y="-756.9" font-family="Arial" font-size="14.00" fill="#666666">[timestamp(6) without time zone]</text>
</g>
<!-- public.likes&#45;&gt;public.users -->
<g id="edge3" class="edge">
<title>public.likes:user_id&#45;&gt;public.users:id</title>
<path fill="none" stroke="#000000" d="M882.0523,-845.9892C839.5179,-800.249 853.2563,-421.0684 839,-373 820.2364,-309.7343 837.9895,-240.5 772,-240.5"/>
<polygon fill="#000000" stroke="#000000" points="882.0705,-845.9983 888.9742,-854.5183 886.5353,-848.2492 891,-850.5 891,-850.5 891,-850.5 886.5353,-848.2492 893.0258,-846.4817 882.0705,-845.9983 882.0705,-845.9983"/>
<text text-anchor="start" x="839.0845" y="-834.5" font-family="Arial" font-size="10.00" fill="#000000">FOREIGN KEY (user_id) REFERENCES users(id)</text>
</g>
</g>
</svg>
