<?xml version="1.0" encoding="UTF-8" standalone="no"?>
<!DOCTYPE svg PUBLIC "-//W3C//DTD SVG 1.1//EN"
 "http://www.w3.org/Graphics/SVG/1.1/DTD/svg11.dtd">
<!-- Generated by graphviz version 2.40.1 (20161225.0304)
 -->
<!-- Title: public.applicants Pages: 1 -->
<svg width="661pt" height="772pt"
 viewBox="0.00 0.00 661.00 772.00" xmlns="http://www.w3.org/2000/svg" xmlns:xlink="http://www.w3.org/1999/xlink">
<g id="graph0" class="graph" transform="scale(1 1) rotate(0) translate(4 768)">
<title>public.applicants</title>
<polygon fill="#ffffff" stroke="transparent" points="-4,4 -4,-768 657,-768 657,4 -4,4"/>
<!-- public.applicants -->
<g id="node1" class="node">
<title>public.applicants</title>
<polygon fill="#efefef" stroke="transparent" points="64,-375.5 64,-410.5 354,-410.5 354,-375.5 64,-375.5"/>
<polygon fill="none" stroke="#000000" points="64,-375.5 64,-410.5 354,-410.5 354,-375.5 64,-375.5"/>
<text text-anchor="start" x="78.7006" y="-388.3" font-family="Arial Bold" font-size="18.00" fill="#000000">public.applicants</text>
<text text-anchor="start" x="211.7314" y="-388.3" font-family="Arial" font-size="14.00" fill="#000000">    </text>
<text text-anchor="start" x="245.9362" y="-388.3" font-family="Arial" font-size="14.00" fill="#666666">[BASE TABLE]</text>
<polygon fill="none" stroke="#000000" points="64,-345.5 64,-375.5 354,-375.5 354,-345.5 64,-345.5"/>
<text text-anchor="start" x="71" y="-356.9" font-family="Arial" font-size="14.00" fill="#000000">id </text>
<text text-anchor="start" x="85.7798" y="-356.9" font-family="Arial" font-size="14.00" fill="#666666">[bigint]</text>
<polygon fill="none" stroke="#000000" points="64,-315.5 64,-345.5 354,-345.5 354,-315.5 64,-315.5"/>
<text text-anchor="start" x="71" y="-326.9" font-family="Arial" font-size="14.00" fill="#000000">name </text>
<text text-anchor="start" x="109.899" y="-326.9" font-family="Arial" font-size="14.00" fill="#666666">[varchar]</text>
<polygon fill="none" stroke="#000000" points="64,-285.5 64,-315.5 354,-315.5 354,-285.5 64,-285.5"/>
<text text-anchor="start" x="71" y="-296.9" font-family="Arial" font-size="14.00" fill="#000000">user_id </text>
<text text-anchor="start" x="120.7882" y="-296.9" font-family="Arial" font-size="14.00" fill="#666666">[integer]</text>
<polygon fill="none" stroke="#000000" points="64,-255.5 64,-285.5 354,-285.5 354,-255.5 64,-255.5"/>
<text text-anchor="start" x="71" y="-266.9" font-family="Arial" font-size="14.00" fill="#000000">created_at </text>
<text text-anchor="start" x="141.028" y="-266.9" font-family="Arial" font-size="14.00" fill="#666666">[timestamp(6) without time zone]</text>
<polygon fill="none" stroke="#000000" points="64,-225.5 64,-255.5 354,-255.5 354,-225.5 64,-225.5"/>
<text text-anchor="start" x="70.9117" y="-236.9" font-family="Arial" font-size="14.00" fill="#000000">updated_at </text>
<text text-anchor="start" x="144.8443" y="-236.9" font-family="Arial" font-size="14.00" fill="#666666">[timestamp(6) without time zone]</text>
<polygon fill="none" stroke="#000000" points="64,-195.5 64,-225.5 354,-225.5 354,-195.5 64,-195.5"/>
<text text-anchor="start" x="71" y="-206.9" font-family="Arial" font-size="14.00" fill="#000000">birthday </text>
<text text-anchor="start" x="124.6788" y="-206.9" font-family="Arial" font-size="14.00" fill="#666666">[date]</text>
<polygon fill="none" stroke="#000000" points="64,-165.5 64,-195.5 354,-195.5 354,-165.5 64,-165.5"/>
<text text-anchor="start" x="71" y="-176.9" font-family="Arial" font-size="14.00" fill="#000000">age </text>
<text text-anchor="start" x="98.2384" y="-176.9" font-family="Arial" font-size="14.00" fill="#666666">[integer]</text>
<polygon fill="none" stroke="#000000" points="64,-135.5 64,-165.5 354,-165.5 354,-135.5 64,-135.5"/>
<text text-anchor="start" x="71" y="-146.9" font-family="Arial" font-size="14.00" fill="#000000">nationality </text>
<text text-anchor="start" x="137.9046" y="-146.9" font-family="Arial" font-size="14.00" fill="#666666">[integer]</text>
<polygon fill="none" stroke="#000000" points="64,-105.5 64,-135.5 354,-135.5 354,-105.5 64,-105.5"/>
<text text-anchor="start" x="71" y="-116.9" font-family="Arial" font-size="14.00" fill="#000000">phone_number </text>
<text text-anchor="start" x="169.0378" y="-116.9" font-family="Arial" font-size="14.00" fill="#666666">[integer]</text>
<polygon fill="none" stroke="#000000" points="64,-75.5 64,-105.5 354,-105.5 354,-75.5 64,-75.5"/>
<text text-anchor="start" x="71" y="-86.9" font-family="Arial" font-size="14.00" fill="#000000">self_introduction </text>
<text text-anchor="start" x="176.8036" y="-86.9" font-family="Arial" font-size="14.00" fill="#666666">[text]</text>
<polygon fill="none" stroke="#000000" points="64,-45.5 64,-75.5 354,-75.5 354,-45.5 64,-45.5"/>
<text text-anchor="start" x="71" y="-56.9" font-family="Arial" font-size="14.00" fill="#000000">desired_salary </text>
<text text-anchor="start" x="165.9032" y="-56.9" font-family="Arial" font-size="14.00" fill="#666666">[text]</text>
<polygon fill="none" stroke="#000000" stroke-width="3" points="62.5,-44.5 62.5,-412.5 355.5,-412.5 355.5,-44.5 62.5,-44.5"/>
</g>
<!-- public.applicant_articles -->
<g id="node2" class="node">
<title>public.applicant_articles</title>
<polygon fill="#efefef" stroke="transparent" points="43,-685.5 43,-720.5 375,-720.5 375,-685.5 43,-685.5"/>
<polygon fill="none" stroke="#000000" points="43,-685.5 43,-720.5 375,-720.5 375,-685.5 43,-685.5"/>
<text text-anchor="start" x="49.6999" y="-698.3" font-family="Arial Bold" font-size="18.00" fill="#000000">public.applicant_articles</text>
<text text-anchor="start" x="240.7321" y="-698.3" font-family="Arial" font-size="14.00" fill="#000000">    </text>
<text text-anchor="start" x="274.9369" y="-698.3" font-family="Arial" font-size="14.00" fill="#666666">[BASE TABLE]</text>
<polygon fill="none" stroke="#000000" points="43,-655.5 43,-685.5 375,-685.5 375,-655.5 43,-655.5"/>
<text text-anchor="start" x="50" y="-666.9" font-family="Arial" font-size="14.00" fill="#000000">id    </text>
<text text-anchor="start" x="95.094" y="-666.9" font-family="Arial" font-size="14.00" fill="#666666">[bigint]</text>
<polygon fill="none" stroke="#000000" points="43,-625.5 43,-655.5 375,-655.5 375,-625.5 43,-625.5"/>
<text text-anchor="start" x="50" y="-636.9" font-family="Arial" font-size="14.00" fill="#000000">applicant_id    </text>
<text text-anchor="start" x="158.8934" y="-636.9" font-family="Arial" font-size="14.00" fill="#666666">[bigint]</text>
<polygon fill="none" stroke="#000000" points="43,-595.5 43,-625.5 375,-625.5 375,-595.5 43,-595.5"/>
<text text-anchor="start" x="50" y="-606.9" font-family="Arial" font-size="14.00" fill="#000000">article_id    </text>
<text text-anchor="start" x="140.2062" y="-606.9" font-family="Arial" font-size="14.00" fill="#666666">[bigint]</text>
<polygon fill="none" stroke="#000000" points="43,-565.5 43,-595.5 375,-595.5 375,-565.5 43,-565.5"/>
<text text-anchor="start" x="50" y="-576.9" font-family="Arial" font-size="14.00" fill="#000000">created_at    </text>
<text text-anchor="start" x="150.3422" y="-576.9" font-family="Arial" font-size="14.00" fill="#666666">[timestamp(6) without time zone]</text>
<polygon fill="none" stroke="#000000" points="43,-535.5 43,-565.5 375,-565.5 375,-535.5 43,-535.5"/>
<text text-anchor="start" x="50" y="-546.9" font-family="Arial" font-size="14.00" fill="#000000">updated_at    </text>
<text text-anchor="start" x="154.2468" y="-546.9" font-family="Arial" font-size="14.00" fill="#666666">[timestamp(6) without time zone]</text>
</g>
<!-- public.applicant_articles&#45;&gt;public.applicants -->
<g id="edge1" class="edge">
<title>public.applicant_articles:applicant_id&#45;&gt;public.applicants:id</title>
<path fill="none" stroke="#000000" d="M384.8076,-637.9069C434.8853,-609.6795 412.8628,-360.5 354,-360.5"/>
<polygon fill="#000000" stroke="#000000" points="384.6678,-637.9438 373.8497,-636.1495 379.8339,-639.2219 375,-640.5 375,-640.5 375,-640.5 379.8339,-639.2219 376.1503,-644.8505 384.6678,-637.9438 384.6678,-637.9438"/>
<text text-anchor="start" x="381.7695" y="-650.5" font-family="Arial" font-size="10.00" fill="#000000">FOREIGN KEY (applicant_id) REFERENCES applicants(id)</text>
</g>
</g>
</svg>
