<?xml version="1.0" encoding="UTF-8" standalone="no"?>
<!DOCTYPE svg PUBLIC "-//W3C//DTD SVG 1.1//EN"
 "http://www.w3.org/Graphics/SVG/1.1/DTD/svg11.dtd">
<!-- Generated by graphviz version 2.40.1 (20161225.0304)
 -->
<!-- Title: public.category_articles Pages: 1 -->
<svg width="865pt" height="1252pt"
 viewBox="0.00 0.00 865.00 1252.00" xmlns="http://www.w3.org/2000/svg" xmlns:xlink="http://www.w3.org/1999/xlink">
<g id="graph0" class="graph" transform="scale(1 1) rotate(0) translate(4 1248)">
<title>public.category_articles</title>
<polygon fill="#ffffff" stroke="transparent" points="-4,4 -4,-1248 861,-1248 861,4 -4,4"/>
<!-- public.category_articles -->
<g id="node1" class="node">
<title>public.category_articles</title>
<polygon fill="#efefef" stroke="transparent" points="277,-1162.5 277,-1197.5 606,-1197.5 606,-1162.5 277,-1162.5"/>
<polygon fill="none" stroke="#000000" points="277,-1162.5 277,-1197.5 606,-1197.5 606,-1162.5 277,-1162.5"/>
<text text-anchor="start" x="283.7011" y="-1175.3" font-family="Arial Bold" font-size="18.00" fill="#000000">public.category_articles</text>
<text text-anchor="start" x="471.7309" y="-1175.3" font-family="Arial" font-size="14.00" fill="#000000">    </text>
<text text-anchor="start" x="505.9357" y="-1175.3" font-family="Arial" font-size="14.00" fill="#666666">[BASE TABLE]</text>
<polygon fill="none" stroke="#000000" points="277,-1132.5 277,-1162.5 606,-1162.5 606,-1132.5 277,-1132.5"/>
<text text-anchor="start" x="284" y="-1143.9" font-family="Arial" font-size="14.00" fill="#000000">id </text>
<text text-anchor="start" x="298.7798" y="-1143.9" font-family="Arial" font-size="14.00" fill="#666666">[bigint]</text>
<polygon fill="none" stroke="#000000" points="277,-1102.5 277,-1132.5 606,-1132.5 606,-1102.5 277,-1102.5"/>
<text text-anchor="start" x="284" y="-1113.9" font-family="Arial" font-size="14.00" fill="#000000">category_id </text>
<text text-anchor="start" x="360.244" y="-1113.9" font-family="Arial" font-size="14.00" fill="#666666">[bigint]</text>
<polygon fill="none" stroke="#000000" points="277,-1072.5 277,-1102.5 606,-1102.5 606,-1072.5 277,-1072.5"/>
<text text-anchor="start" x="284" y="-1083.9" font-family="Arial" font-size="14.00" fill="#000000">article_id </text>
<text text-anchor="start" x="343.892" y="-1083.9" font-family="Arial" font-size="14.00" fill="#666666">[bigint]</text>
<polygon fill="none" stroke="#000000" points="277,-1042.5 277,-1072.5 606,-1072.5 606,-1042.5 277,-1042.5"/>
<text text-anchor="start" x="284" y="-1053.9" font-family="Arial" font-size="14.00" fill="#000000">created_at </text>
<text text-anchor="start" x="354.028" y="-1053.9" font-family="Arial" font-size="14.00" fill="#666666">[timestamp(6) without time zone]</text>
<polygon fill="none" stroke="#000000" points="277,-1012.5 277,-1042.5 606,-1042.5 606,-1012.5 277,-1012.5"/>
<text text-anchor="start" x="284" y="-1023.9" font-family="Arial" font-size="14.00" fill="#000000">updated_at </text>
<text text-anchor="start" x="357.9326" y="-1023.9" font-family="Arial" font-size="14.00" fill="#666666">[timestamp(6) without time zone]</text>
<polygon fill="none" stroke="#000000" stroke-width="3" points="275,-1011.5 275,-1199.5 607,-1199.5 607,-1011.5 275,-1011.5"/>
</g>
<!-- public.categories -->
<g id="node2" class="node">
<title>public.categories</title>
<polygon fill="#efefef" stroke="transparent" points="70,-507.5 70,-542.5 390,-542.5 390,-507.5 70,-507.5"/>
<polygon fill="none" stroke="#000000" points="70,-507.5 70,-542.5 390,-542.5 390,-507.5 70,-507.5"/>
<text text-anchor="start" x="98.7016" y="-520.3" font-family="Arial Bold" font-size="18.00" fill="#000000">public.categories</text>
<text text-anchor="start" x="233.7304" y="-520.3" font-family="Arial" font-size="14.00" fill="#000000">    </text>
<text text-anchor="start" x="267.9352" y="-520.3" font-family="Arial" font-size="14.00" fill="#666666">[BASE TABLE]</text>
<polygon fill="none" stroke="#000000" points="70,-477.5 70,-507.5 390,-507.5 390,-477.5 70,-477.5"/>
<text text-anchor="start" x="77" y="-488.9" font-family="Arial" font-size="14.00" fill="#000000">id    </text>
<text text-anchor="start" x="122.094" y="-488.9" font-family="Arial" font-size="14.00" fill="#666666">[bigint]</text>
<polygon fill="none" stroke="#000000" points="70,-447.5 70,-477.5 390,-477.5 390,-447.5 70,-447.5"/>
<text text-anchor="start" x="77" y="-458.9" font-family="Arial" font-size="14.00" fill="#000000">name    </text>
<text text-anchor="start" x="146.2132" y="-458.9" font-family="Arial" font-size="14.00" fill="#666666">[varchar]</text>
<polygon fill="none" stroke="#000000" points="70,-417.5 70,-447.5 390,-447.5 390,-417.5 70,-417.5"/>
<text text-anchor="start" x="77" y="-428.9" font-family="Arial" font-size="14.00" fill="#000000">created_at    </text>
<text text-anchor="start" x="177.3422" y="-428.9" font-family="Arial" font-size="14.00" fill="#666666">[timestamp(6) without time zone]</text>
<polygon fill="none" stroke="#000000" points="70,-387.5 70,-417.5 390,-417.5 390,-387.5 70,-387.5"/>
<text text-anchor="start" x="76.7546" y="-398.9" font-family="Arial" font-size="14.00" fill="#000000">updated_at    </text>
<text text-anchor="start" x="181.0014" y="-398.9" font-family="Arial" font-size="14.00" fill="#666666">[timestamp(6) without time zone]</text>
</g>
<!-- public.category_articles&#45;&gt;public.categories -->
<g id="edge1" class="edge">
<title>public.category_articles:category_id&#45;&gt;public.categories:id</title>
<path fill="none" stroke="#000000" d="M266.9347,-1116.2194C156.3313,-1084.9755 527.4192,-492.5 390,-492.5"/>
<polygon fill="#000000" stroke="#000000" points="267.08,-1116.2378 276.432,-1121.964 272.04,-1116.8689 277,-1117.5 277,-1117.5 277,-1117.5 272.04,-1116.8689 277.568,-1113.036 267.08,-1116.2378 267.08,-1116.2378"/>
<text text-anchor="start" x="7.0485" y="-1127.5" font-family="Arial" font-size="10.00" fill="#000000">FOREIGN KEY (category_id) REFERENCES categories(id)</text>
</g>
<!-- public.articles -->
<g id="node3" class="node">
<title>public.articles</title>
<polygon fill="#efefef" stroke="transparent" points="494,-852.5 494,-887.5 814,-887.5 814,-852.5 494,-852.5"/>
<polygon fill="none" stroke="#000000" points="494,-852.5 494,-887.5 814,-887.5 814,-852.5 494,-852.5"/>
<text text-anchor="start" x="535.7138" y="-865.3" font-family="Arial Bold" font-size="18.00" fill="#000000">public.articles</text>
<text text-anchor="start" x="644.7182" y="-865.3" font-family="Arial" font-size="14.00" fill="#000000">    </text>
<text text-anchor="start" x="678.923" y="-865.3" font-family="Arial" font-size="14.00" fill="#666666">[BASE TABLE]</text>
<polygon fill="none" stroke="#000000" points="494,-822.5 494,-852.5 814,-852.5 814,-822.5 494,-822.5"/>
<text text-anchor="start" x="501" y="-833.9" font-family="Arial" font-size="14.00" fill="#000000">id    </text>
<text text-anchor="start" x="546.094" y="-833.9" font-family="Arial" font-size="14.00" fill="#666666">[bigint]</text>
<polygon fill="none" stroke="#000000" points="494,-792.5 494,-822.5 814,-822.5 814,-792.5 494,-792.5"/>
<text text-anchor="start" x="501" y="-803.9" font-family="Arial" font-size="14.00" fill="#000000">body    </text>
<text text-anchor="start" x="565.5526" y="-803.9" font-family="Arial" font-size="14.00" fill="#666666">[text]</text>
<polygon fill="none" stroke="#000000" points="494,-762.5 494,-792.5 814,-792.5 814,-762.5 494,-762.5"/>
<text text-anchor="start" x="501" y="-773.9" font-family="Arial" font-size="14.00" fill="#000000">user_id    </text>
<text text-anchor="start" x="581.1024" y="-773.9" font-family="Arial" font-size="14.00" fill="#666666">[bigint]</text>
<polygon fill="none" stroke="#000000" points="494,-732.5 494,-762.5 814,-762.5 814,-732.5 494,-732.5"/>
<text text-anchor="start" x="501" y="-743.9" font-family="Arial" font-size="14.00" fill="#000000">created_at    </text>
<text text-anchor="start" x="601.3422" y="-743.9" font-family="Arial" font-size="14.00" fill="#666666">[timestamp(6) without time zone]</text>
<polygon fill="none" stroke="#000000" points="494,-702.5 494,-732.5 814,-732.5 814,-702.5 494,-702.5"/>
<text text-anchor="start" x="500.7546" y="-713.9" font-family="Arial" font-size="14.00" fill="#000000">updated_at    </text>
<text text-anchor="start" x="605.0014" y="-713.9" font-family="Arial" font-size="14.00" fill="#666666">[timestamp(6) without time zone]</text>
<polygon fill="none" stroke="#000000" points="494,-672.5 494,-702.5 814,-702.5 814,-672.5 494,-672.5"/>
<text text-anchor="start" x="501" y="-683.9" font-family="Arial" font-size="14.00" fill="#000000">impressions_count    </text>
<text text-anchor="start" x="651.8906" y="-683.9" font-family="Arial" font-size="14.00" fill="#666666">[integer]</text>
<polygon fill="none" stroke="#000000" points="494,-642.5 494,-672.5 814,-672.5 814,-642.5 494,-642.5"/>
<text text-anchor="start" x="501" y="-653.9" font-family="Arial" font-size="14.00" fill="#000000">start_time    </text>
<text text-anchor="start" x="596.6522" y="-653.9" font-family="Arial" font-size="14.00" fill="#666666">[timestamp(6) without time zone]</text>
<polygon fill="none" stroke="#000000" points="494,-612.5 494,-642.5 814,-642.5 814,-612.5 494,-612.5"/>
<text text-anchor="start" x="501" y="-623.9" font-family="Arial" font-size="14.00" fill="#000000">end_time    </text>
<text text-anchor="start" x="592.7756" y="-623.9" font-family="Arial" font-size="14.00" fill="#666666">[timestamp(6) without time zone]</text>
<polygon fill="none" stroke="#000000" points="494,-582.5 494,-612.5 814,-612.5 814,-582.5 494,-582.5"/>
<text text-anchor="start" x="501" y="-593.9" font-family="Arial" font-size="14.00" fill="#000000">title    </text>
<text text-anchor="start" x="556.9818" y="-593.9" font-family="Arial" font-size="14.00" fill="#666666">[varchar]</text>
<polygon fill="none" stroke="#000000" points="494,-552.5 494,-582.5 814,-582.5 814,-552.5 494,-552.5"/>
<text text-anchor="start" x="501" y="-563.9" font-family="Arial" font-size="14.00" fill="#000000">application_deadline    </text>
<text text-anchor="start" x="662.8022" y="-563.9" font-family="Arial" font-size="14.00" fill="#666666">[date]</text>
<polygon fill="none" stroke="#000000" points="494,-522.5 494,-552.5 814,-552.5 814,-522.5 494,-522.5"/>
<text text-anchor="start" x="501" y="-533.9" font-family="Arial" font-size="14.00" fill="#000000">salary_details    </text>
<text text-anchor="start" x="620.7714" y="-533.9" font-family="Arial" font-size="14.00" fill="#666666">[text]</text>
<polygon fill="none" stroke="#000000" points="494,-492.5 494,-522.5 814,-522.5 814,-492.5 494,-492.5"/>
<text text-anchor="start" x="501" y="-503.9" font-family="Arial" font-size="14.00" fill="#000000">work_location    </text>
<text text-anchor="start" x="620.7714" y="-503.9" font-family="Arial" font-size="14.00" fill="#666666">[varchar]</text>
<polygon fill="none" stroke="#000000" points="494,-462.5 494,-492.5 814,-492.5 814,-462.5 494,-462.5"/>
<text text-anchor="start" x="501" y="-473.9" font-family="Arial" font-size="14.00" fill="#000000">language_requirement    </text>
<text text-anchor="start" x="675.2468" y="-473.9" font-family="Arial" font-size="14.00" fill="#666666">[varchar]</text>
<polygon fill="none" stroke="#000000" points="494,-432.5 494,-462.5 814,-462.5 814,-432.5 494,-432.5"/>
<text text-anchor="start" x="501" y="-443.9" font-family="Arial" font-size="14.00" fill="#000000">japanese_level    </text>
<text text-anchor="start" x="628.568" y="-443.9" font-family="Arial" font-size="14.00" fill="#666666">[varchar]</text>
<polygon fill="none" stroke="#000000" points="494,-402.5 494,-432.5 814,-432.5 814,-402.5 494,-402.5"/>
<text text-anchor="start" x="501" y="-413.9" font-family="Arial" font-size="14.00" fill="#000000">skills_required    </text>
<text text-anchor="start" x="624.648" y="-413.9" font-family="Arial" font-size="14.00" fill="#666666">[text]</text>
<polygon fill="none" stroke="#000000" points="494,-372.5 494,-402.5 814,-402.5 814,-372.5 494,-372.5"/>
<text text-anchor="start" x="501" y="-383.9" font-family="Arial" font-size="14.00" fill="#000000">employment_type    </text>
<text text-anchor="start" x="645.6746" y="-383.9" font-family="Arial" font-size="14.00" fill="#666666">[varchar]</text>
<polygon fill="none" stroke="#000000" points="494,-342.5 494,-372.5 814,-372.5 814,-342.5 494,-342.5"/>
<text text-anchor="start" x="501" y="-353.9" font-family="Arial" font-size="14.00" fill="#000000">description    </text>
<text text-anchor="start" x="602.8822" y="-353.9" font-family="Arial" font-size="14.00" fill="#666666">[text]</text>
<polygon fill="none" stroke="#000000" points="494,-312.5 494,-342.5 814,-342.5 814,-312.5 494,-312.5"/>
<text text-anchor="start" x="501" y="-323.9" font-family="Arial" font-size="14.00" fill="#000000">work_hours    </text>
<text text-anchor="start" x="607.5456" y="-323.9" font-family="Arial" font-size="14.00" fill="#666666">[varchar]</text>
<polygon fill="none" stroke="#000000" points="494,-282.5 494,-312.5 814,-312.5 814,-282.5 494,-282.5"/>
<text text-anchor="start" x="501" y="-293.9" font-family="Arial" font-size="14.00" fill="#000000">trial_period    </text>
<text text-anchor="start" x="604.432" y="-293.9" font-family="Arial" font-size="14.00" fill="#666666">[varchar]</text>
<polygon fill="none" stroke="#000000" points="494,-252.5 494,-282.5 814,-282.5 814,-252.5 494,-252.5"/>
<text text-anchor="start" x="501" y="-263.9" font-family="Arial" font-size="14.00" fill="#000000">days_off    </text>
<text text-anchor="start" x="588.1164" y="-263.9" font-family="Arial" font-size="14.00" fill="#666666">[varchar]</text>
<polygon fill="none" stroke="#000000" points="494,-222.5 494,-252.5 814,-252.5 814,-222.5 494,-222.5"/>
<text text-anchor="start" x="501" y="-233.9" font-family="Arial" font-size="14.00" fill="#000000">overtime    </text>
<text text-anchor="start" x="588.871" y="-233.9" font-family="Arial" font-size="14.00" fill="#666666">[varchar]</text>
<polygon fill="none" stroke="#000000" points="494,-192.5 494,-222.5 814,-222.5 814,-192.5 494,-192.5"/>
<text text-anchor="start" x="501" y="-203.9" font-family="Arial" font-size="14.00" fill="#000000">transportation    </text>
<text text-anchor="start" x="620.7826" y="-203.9" font-family="Arial" font-size="14.00" fill="#666666">[varchar]</text>
<polygon fill="none" stroke="#000000" points="494,-162.5 494,-192.5 814,-192.5 814,-162.5 494,-162.5"/>
<text text-anchor="start" x="501" y="-173.9" font-family="Arial" font-size="14.00" fill="#000000">work_environment    </text>
<text text-anchor="start" x="649.5512" y="-173.9" font-family="Arial" font-size="14.00" fill="#666666">[varchar]</text>
<polygon fill="none" stroke="#000000" points="494,-132.5 494,-162.5 814,-162.5 814,-132.5 494,-132.5"/>
<text text-anchor="start" x="501" y="-143.9" font-family="Arial" font-size="14.00" fill="#000000">other_allowances    </text>
<text text-anchor="start" x="644.1192" y="-143.9" font-family="Arial" font-size="14.00" fill="#666666">[varchar]</text>
<polygon fill="none" stroke="#000000" points="494,-102.5 494,-132.5 814,-132.5 814,-102.5 494,-102.5"/>
<text text-anchor="start" x="501" y="-113.9" font-family="Arial" font-size="14.00" fill="#000000">insurance    </text>
<text text-anchor="start" x="595.885" y="-113.9" font-family="Arial" font-size="14.00" fill="#666666">[varchar]</text>
<polygon fill="none" stroke="#000000" points="494,-72.5 494,-102.5 814,-102.5 814,-72.5 494,-72.5"/>
<text text-anchor="start" x="501" y="-83.9" font-family="Arial" font-size="14.00" fill="#000000">other_benefits    </text>
<text text-anchor="start" x="623.9046" y="-83.9" font-family="Arial" font-size="14.00" fill="#666666">[varchar]</text>
<polygon fill="none" stroke="#000000" points="494,-42.5 494,-72.5 814,-72.5 814,-42.5 494,-42.5"/>
<text text-anchor="start" x="501" y="-53.9" font-family="Arial" font-size="14.00" fill="#000000">status    </text>
<text text-anchor="start" x="572.5512" y="-53.9" font-family="Arial" font-size="14.00" fill="#666666">[integer]</text>
</g>
<!-- public.category_articles&#45;&gt;public.articles -->
<g id="edge2" class="edge">
<title>public.category_articles:article_id&#45;&gt;public.articles:id</title>
<path fill="none" stroke="#000000" d="M616.1991,-1086.3933C656.4135,-1076.8084 635.3294,-1007.2346 606,-967 575.2002,-924.7484 524.7998,-973.2516 494,-931 469.5212,-897.4195 452.4444,-837.5 494,-837.5"/>
<polygon fill="#000000" stroke="#000000" points="615.9416,-1086.4212 605.5145,-1083.0263 610.9708,-1086.9606 606,-1087.5 606,-1087.5 606,-1087.5 610.9708,-1086.9606 606.4855,-1091.9737 615.9416,-1086.4212 615.9416,-1086.4212"/>
<text text-anchor="start" x="613.1175" y="-1097.5" font-family="Arial" font-size="10.00" fill="#000000">FOREIGN KEY (article_id) REFERENCES articles(id)</text>
</g>
</g>
</svg>
