<?xml version="1.0" encoding="UTF-8" standalone="no"?>
<!DOCTYPE svg PUBLIC "-//W3C//DTD SVG 1.1//EN"
 "http://www.w3.org/Graphics/SVG/1.1/DTD/svg11.dtd">
<!-- Generated by graphviz version 2.40.1 (20161225.0304)
 -->
<!-- Title: public.applicant_articles Pages: 1 -->
<svg width="980pt" height="712pt"
 viewBox="0.00 0.00 980.00 712.00" xmlns="http://www.w3.org/2000/svg" xmlns:xlink="http://www.w3.org/1999/xlink">
<g id="graph0" class="graph" transform="scale(1 1) rotate(0) translate(4 708)">
<title>public.applicant_articles</title>
<polygon fill="#ffffff" stroke="transparent" points="-4,4 -4,-708 976,-708 976,4 -4,4"/>
<!-- public.applicant_articles -->
<g id="node1" class="node">
<title>public.applicant_articles</title>
<polygon fill="#efefef" stroke="transparent" points="278,-622.5 278,-657.5 610,-657.5 610,-622.5 278,-622.5"/>
<polygon fill="none" stroke="#000000" points="278,-622.5 278,-657.5 610,-657.5 610,-622.5 278,-622.5"/>
<text text-anchor="start" x="284.6999" y="-635.3" font-family="Arial Bold" font-size="18.00" fill="#000000">public.applicant_articles</text>
<text text-anchor="start" x="475.7321" y="-635.3" font-family="Arial" font-size="14.00" fill="#000000">    </text>
<text text-anchor="start" x="509.9369" y="-635.3" font-family="Arial" font-size="14.00" fill="#666666">[BASE TABLE]</text>
<polygon fill="none" stroke="#000000" points="278,-592.5 278,-622.5 610,-622.5 610,-592.5 278,-592.5"/>
<text text-anchor="start" x="285" y="-603.9" font-family="Arial" font-size="14.00" fill="#000000">id </text>
<text text-anchor="start" x="299.7798" y="-603.9" font-family="Arial" font-size="14.00" fill="#666666">[bigint]</text>
<polygon fill="none" stroke="#000000" points="278,-562.5 278,-592.5 610,-592.5 610,-562.5 278,-562.5"/>
<text text-anchor="start" x="285" y="-573.9" font-family="Arial" font-size="14.00" fill="#000000">applicant_id </text>
<text text-anchor="start" x="363.5792" y="-573.9" font-family="Arial" font-size="14.00" fill="#666666">[bigint]</text>
<polygon fill="none" stroke="#000000" points="278,-532.5 278,-562.5 610,-562.5 610,-532.5 278,-532.5"/>
<text text-anchor="start" x="285" y="-543.9" font-family="Arial" font-size="14.00" fill="#000000">article_id </text>
<text text-anchor="start" x="344.892" y="-543.9" font-family="Arial" font-size="14.00" fill="#666666">[bigint]</text>
<polygon fill="none" stroke="#000000" points="278,-502.5 278,-532.5 610,-532.5 610,-502.5 278,-502.5"/>
<text text-anchor="start" x="285" y="-513.9" font-family="Arial" font-size="14.00" fill="#000000">created_at </text>
<text text-anchor="start" x="355.028" y="-513.9" font-family="Arial" font-size="14.00" fill="#666666">[timestamp(6) without time zone]</text>
<polygon fill="none" stroke="#000000" points="278,-472.5 278,-502.5 610,-502.5 610,-472.5 278,-472.5"/>
<text text-anchor="start" x="285" y="-483.9" font-family="Arial" font-size="14.00" fill="#000000">updated_at </text>
<text text-anchor="start" x="358.9326" y="-483.9" font-family="Arial" font-size="14.00" fill="#666666">[timestamp(6) without time zone]</text>
<polygon fill="none" stroke="#000000" stroke-width="3" points="276.5,-471.5 276.5,-659.5 611.5,-659.5 611.5,-471.5 276.5,-471.5"/>
</g>
<!-- public.applicants -->
<g id="node2" class="node">
<title>public.applicants</title>
<polygon fill="#efefef" stroke="transparent" points="72,-267.5 72,-302.5 392,-302.5 392,-267.5 72,-267.5"/>
<polygon fill="none" stroke="#000000" points="72,-267.5 72,-302.5 392,-302.5 392,-267.5 72,-267.5"/>
<text text-anchor="start" x="101.7006" y="-280.3" font-family="Arial Bold" font-size="18.00" fill="#000000">public.applicants</text>
<text text-anchor="start" x="234.7314" y="-280.3" font-family="Arial" font-size="14.00" fill="#000000">    </text>
<text text-anchor="start" x="268.9362" y="-280.3" font-family="Arial" font-size="14.00" fill="#666666">[BASE TABLE]</text>
<polygon fill="none" stroke="#000000" points="72,-237.5 72,-267.5 392,-267.5 392,-237.5 72,-237.5"/>
<text text-anchor="start" x="79" y="-248.9" font-family="Arial" font-size="14.00" fill="#000000">id    </text>
<text text-anchor="start" x="124.094" y="-248.9" font-family="Arial" font-size="14.00" fill="#666666">[bigint]</text>
<polygon fill="none" stroke="#000000" points="72,-207.5 72,-237.5 392,-237.5 392,-207.5 72,-207.5"/>
<text text-anchor="start" x="79" y="-218.9" font-family="Arial" font-size="14.00" fill="#000000">name    </text>
<text text-anchor="start" x="148.2132" y="-218.9" font-family="Arial" font-size="14.00" fill="#666666">[varchar]</text>
<polygon fill="none" stroke="#000000" points="72,-177.5 72,-207.5 392,-207.5 392,-177.5 72,-177.5"/>
<text text-anchor="start" x="79" y="-188.9" font-family="Arial" font-size="14.00" fill="#000000">user_id    </text>
<text text-anchor="start" x="159.1024" y="-188.9" font-family="Arial" font-size="14.00" fill="#666666">[integer]</text>
<polygon fill="none" stroke="#000000" points="72,-147.5 72,-177.5 392,-177.5 392,-147.5 72,-147.5"/>
<text text-anchor="start" x="79" y="-158.9" font-family="Arial" font-size="14.00" fill="#000000">created_at    </text>
<text text-anchor="start" x="179.3422" y="-158.9" font-family="Arial" font-size="14.00" fill="#666666">[timestamp(6) without time zone]</text>
<polygon fill="none" stroke="#000000" points="72,-117.5 72,-147.5 392,-147.5 392,-117.5 72,-117.5"/>
<text text-anchor="start" x="78.7546" y="-128.9" font-family="Arial" font-size="14.00" fill="#000000">updated_at    </text>
<text text-anchor="start" x="183.0014" y="-128.9" font-family="Arial" font-size="14.00" fill="#666666">[timestamp(6) without time zone]</text>
<polygon fill="none" stroke="#000000" points="72,-87.5 72,-117.5 392,-117.5 392,-87.5 72,-87.5"/>
<text text-anchor="start" x="79" y="-98.9" font-family="Arial" font-size="14.00" fill="#000000">creater_id    </text>
<text text-anchor="start" x="175.4362" y="-98.9" font-family="Arial" font-size="14.00" fill="#666666">[integer]</text>
</g>
<!-- public.applicant_articles&#45;&gt;public.applicants -->
<g id="edge1" class="edge">
<title>public.applicant_articles:applicant_id&#45;&gt;public.applicants:id</title>
<path fill="none" stroke="#000000" d="M267.9333,-576.703C215.0548,-567.6346 248.9966,-483.1868 278,-427 306.5094,-371.7702 363.4906,-401.2298 392,-346 411.0611,-309.0739 433.5556,-252.5 392,-252.5"/>
<polygon fill="#000000" stroke="#000000" points="268.0312,-576.7107 277.6448,-581.986 273.0156,-577.1053 278,-577.5 278,-577.5 278,-577.5 273.0156,-577.1053 278.3552,-573.014 268.0312,-576.7107 268.0312,-576.7107"/>
<text text-anchor="start" x="6.7695" y="-587.5" font-family="Arial" font-size="10.00" fill="#000000">FOREIGN KEY (applicant_id) REFERENCES applicants(id)</text>
</g>
<!-- public.articles -->
<g id="node3" class="node">
<title>public.articles</title>
<polygon fill="#efefef" stroke="transparent" points="496,-312.5 496,-347.5 816,-347.5 816,-312.5 496,-312.5"/>
<polygon fill="none" stroke="#000000" points="496,-312.5 496,-347.5 816,-347.5 816,-312.5 496,-312.5"/>
<text text-anchor="start" x="537.7138" y="-325.3" font-family="Arial Bold" font-size="18.00" fill="#000000">public.articles</text>
<text text-anchor="start" x="646.7182" y="-325.3" font-family="Arial" font-size="14.00" fill="#000000">    </text>
<text text-anchor="start" x="680.923" y="-325.3" font-family="Arial" font-size="14.00" fill="#666666">[BASE TABLE]</text>
<polygon fill="none" stroke="#000000" points="496,-282.5 496,-312.5 816,-312.5 816,-282.5 496,-282.5"/>
<text text-anchor="start" x="503" y="-293.9" font-family="Arial" font-size="14.00" fill="#000000">id    </text>
<text text-anchor="start" x="548.094" y="-293.9" font-family="Arial" font-size="14.00" fill="#666666">[bigint]</text>
<polygon fill="none" stroke="#000000" points="496,-252.5 496,-282.5 816,-282.5 816,-252.5 496,-252.5"/>
<text text-anchor="start" x="503" y="-263.9" font-family="Arial" font-size="14.00" fill="#000000">body    </text>
<text text-anchor="start" x="567.5526" y="-263.9" font-family="Arial" font-size="14.00" fill="#666666">[text]</text>
<polygon fill="none" stroke="#000000" points="496,-222.5 496,-252.5 816,-252.5 816,-222.5 496,-222.5"/>
<text text-anchor="start" x="503" y="-233.9" font-family="Arial" font-size="14.00" fill="#000000">user_id    </text>
<text text-anchor="start" x="583.1024" y="-233.9" font-family="Arial" font-size="14.00" fill="#666666">[bigint]</text>
<polygon fill="none" stroke="#000000" points="496,-192.5 496,-222.5 816,-222.5 816,-192.5 496,-192.5"/>
<text text-anchor="start" x="503" y="-203.9" font-family="Arial" font-size="14.00" fill="#000000">created_at    </text>
<text text-anchor="start" x="603.3422" y="-203.9" font-family="Arial" font-size="14.00" fill="#666666">[timestamp(6) without time zone]</text>
<polygon fill="none" stroke="#000000" points="496,-162.5 496,-192.5 816,-192.5 816,-162.5 496,-162.5"/>
<text text-anchor="start" x="502.7546" y="-173.9" font-family="Arial" font-size="14.00" fill="#000000">updated_at    </text>
<text text-anchor="start" x="607.0014" y="-173.9" font-family="Arial" font-size="14.00" fill="#666666">[timestamp(6) without time zone]</text>
<polygon fill="none" stroke="#000000" points="496,-132.5 496,-162.5 816,-162.5 816,-132.5 496,-132.5"/>
<text text-anchor="start" x="503" y="-143.9" font-family="Arial" font-size="14.00" fill="#000000">impressions_count    </text>
<text text-anchor="start" x="653.8906" y="-143.9" font-family="Arial" font-size="14.00" fill="#666666">[integer]</text>
<polygon fill="none" stroke="#000000" points="496,-102.5 496,-132.5 816,-132.5 816,-102.5 496,-102.5"/>
<text text-anchor="start" x="503" y="-113.9" font-family="Arial" font-size="14.00" fill="#000000">file    </text>
<text text-anchor="start" x="555.0912" y="-113.9" font-family="Arial" font-size="14.00" fill="#666666">[varchar]</text>
<polygon fill="none" stroke="#000000" points="496,-72.5 496,-102.5 816,-102.5 816,-72.5 496,-72.5"/>
<text text-anchor="start" x="503" y="-83.9" font-family="Arial" font-size="14.00" fill="#000000">start_time    </text>
<text text-anchor="start" x="598.6522" y="-83.9" font-family="Arial" font-size="14.00" fill="#666666">[timestamp(6) without time zone]</text>
<polygon fill="none" stroke="#000000" points="496,-42.5 496,-72.5 816,-72.5 816,-42.5 496,-42.5"/>
<text text-anchor="start" x="503" y="-53.9" font-family="Arial" font-size="14.00" fill="#000000">end_time    </text>
<text text-anchor="start" x="594.7756" y="-53.9" font-family="Arial" font-size="14.00" fill="#666666">[timestamp(6) without time zone]</text>
</g>
<!-- public.applicant_articles&#45;&gt;public.articles -->
<g id="edge2" class="edge">
<title>public.applicant_articles:article_id&#45;&gt;public.articles:id</title>
<path fill="none" stroke="#000000" d="M619.9463,-546.4519C660.5162,-537.0906 639.4941,-467.2438 610,-427 578.5915,-384.1442 527.4085,-433.8558 496,-391 471.4353,-357.4823 454.4444,-297.5 496,-297.5"/>
<polygon fill="#000000" stroke="#000000" points="619.9449,-546.4519 609.5284,-543.0248 614.9725,-546.976 610,-547.5 610,-547.5 610,-547.5 614.9725,-546.976 610.4716,-551.9752 619.9449,-546.4519 619.9449,-546.4519"/>
<text text-anchor="start" x="616.8365" y="-557.5" font-family="Arial" font-size="10.00" fill="#000000">FOREIGN KEY (article_id) REFERENCES articles(id) ON DELETE CASCADE</text>
</g>
</g>
</svg>
