<?xml version="1.0" encoding="UTF-8" standalone="no"?>
<!DOCTYPE svg PUBLIC "-//W3C//DTD SVG 1.1//EN"
 "http://www.w3.org/Graphics/SVG/1.1/DTD/svg11.dtd">
<!-- Generated by graphviz version 2.40.1 (20161225.0304)
 -->
<!-- Title: public.active_storage_attachments Pages: 1 -->
<svg width="778pt" height="742pt"
 viewBox="0.00 0.00 778.00 742.00" xmlns="http://www.w3.org/2000/svg" xmlns:xlink="http://www.w3.org/1999/xlink">
<g id="graph0" class="graph" transform="scale(1 1) rotate(0) translate(4 738)">
<title>public.active_storage_attachments</title>
<polygon fill="#ffffff" stroke="transparent" points="-4,4 -4,-738 774,-738 774,4 -4,4"/>
<!-- public.active_storage_attachments -->
<g id="node1" class="node">
<title>public.active_storage_attachments</title>
<polygon fill="#efefef" stroke="transparent" points="306,-652.5 306,-687.5 724,-687.5 724,-652.5 306,-652.5"/>
<polygon fill="none" stroke="#000000" points="306,-652.5 306,-687.5 724,-687.5 724,-652.5 306,-652.5"/>
<text text-anchor="start" x="312.6763" y="-665.3" font-family="Arial Bold" font-size="18.00" fill="#000000">public.active_storage_attachments</text>
<text text-anchor="start" x="589.7557" y="-665.3" font-family="Arial" font-size="14.00" fill="#000000">    </text>
<text text-anchor="start" x="623.9605" y="-665.3" font-family="Arial" font-size="14.00" fill="#666666">[BASE TABLE]</text>
<polygon fill="none" stroke="#000000" points="306,-622.5 306,-652.5 724,-652.5 724,-622.5 306,-622.5"/>
<text text-anchor="start" x="313" y="-633.9" font-family="Arial" font-size="14.00" fill="#000000">id </text>
<text text-anchor="start" x="327.7798" y="-633.9" font-family="Arial" font-size="14.00" fill="#666666">[bigint]</text>
<polygon fill="none" stroke="#000000" points="306,-592.5 306,-622.5 724,-622.5 724,-592.5 306,-592.5"/>
<text text-anchor="start" x="313" y="-603.9" font-family="Arial" font-size="14.00" fill="#000000">name </text>
<text text-anchor="start" x="351.899" y="-603.9" font-family="Arial" font-size="14.00" fill="#666666">[varchar]</text>
<polygon fill="none" stroke="#000000" points="306,-562.5 306,-592.5 724,-592.5 724,-562.5 306,-562.5"/>
<text text-anchor="start" x="313" y="-573.9" font-family="Arial" font-size="14.00" fill="#000000">record_type </text>
<text text-anchor="start" x="390.798" y="-573.9" font-family="Arial" font-size="14.00" fill="#666666">[varchar]</text>
<polygon fill="none" stroke="#000000" points="306,-532.5 306,-562.5 724,-562.5 724,-532.5 306,-532.5"/>
<text text-anchor="start" x="313" y="-543.9" font-family="Arial" font-size="14.00" fill="#000000">record_id </text>
<text text-anchor="start" x="375.2314" y="-543.9" font-family="Arial" font-size="14.00" fill="#666666">[bigint]</text>
<polygon fill="none" stroke="#000000" points="306,-502.5 306,-532.5 724,-532.5 724,-502.5 306,-502.5"/>
<text text-anchor="start" x="313" y="-513.9" font-family="Arial" font-size="14.00" fill="#000000">blob_id </text>
<text text-anchor="start" x="362.0168" y="-513.9" font-family="Arial" font-size="14.00" fill="#666666">[bigint]</text>
<polygon fill="none" stroke="#000000" points="306,-472.5 306,-502.5 724,-502.5 724,-472.5 306,-472.5"/>
<text text-anchor="start" x="313" y="-483.9" font-family="Arial" font-size="14.00" fill="#000000">created_at </text>
<text text-anchor="start" x="383.028" y="-483.9" font-family="Arial" font-size="14.00" fill="#666666">[timestamp(6) without time zone]</text>
<polygon fill="none" stroke="#000000" stroke-width="3" points="304.5,-471.5 304.5,-689.5 725.5,-689.5 725.5,-471.5 304.5,-471.5"/>
</g>
<!-- public.active_storage_blobs -->
<g id="node2" class="node">
<title>public.active_storage_blobs</title>
<polygon fill="#efefef" stroke="transparent" points="333,-312.5 333,-347.5 696,-347.5 696,-312.5 333,-312.5"/>
<polygon fill="none" stroke="#000000" points="333,-312.5 333,-347.5 696,-347.5 696,-312.5 333,-312.5"/>
<text text-anchor="start" x="339.6848" y="-325.3" font-family="Arial Bold" font-size="18.00" fill="#000000">public.active_storage_blobs</text>
<text text-anchor="start" x="561.7472" y="-325.3" font-family="Arial" font-size="14.00" fill="#000000">    </text>
<text text-anchor="start" x="595.952" y="-325.3" font-family="Arial" font-size="14.00" fill="#666666">[BASE TABLE]</text>
<polygon fill="none" stroke="#000000" points="333,-282.5 333,-312.5 696,-312.5 696,-282.5 333,-282.5"/>
<text text-anchor="start" x="340" y="-293.9" font-family="Arial" font-size="14.00" fill="#000000">id    </text>
<text text-anchor="start" x="385.094" y="-293.9" font-family="Arial" font-size="14.00" fill="#666666">[bigint]</text>
<polygon fill="none" stroke="#000000" points="333,-252.5 333,-282.5 696,-282.5 696,-252.5 333,-252.5"/>
<text text-anchor="start" x="340" y="-263.9" font-family="Arial" font-size="14.00" fill="#000000">key    </text>
<text text-anchor="start" x="395.9874" y="-263.9" font-family="Arial" font-size="14.00" fill="#666666">[varchar]</text>
<polygon fill="none" stroke="#000000" points="333,-222.5 333,-252.5 696,-252.5 696,-222.5 333,-222.5"/>
<text text-anchor="start" x="340" y="-233.9" font-family="Arial" font-size="14.00" fill="#000000">filename    </text>
<text text-anchor="start" x="427.0996" y="-233.9" font-family="Arial" font-size="14.00" fill="#666666">[varchar]</text>
<polygon fill="none" stroke="#000000" points="333,-192.5 333,-222.5 696,-222.5 696,-192.5 333,-192.5"/>
<text text-anchor="start" x="340" y="-203.9" font-family="Arial" font-size="14.00" fill="#000000">content_type    </text>
<text text-anchor="start" x="454.3548" y="-203.9" font-family="Arial" font-size="14.00" fill="#666666">[varchar]</text>
<polygon fill="none" stroke="#000000" points="333,-162.5 333,-192.5 696,-192.5 696,-162.5 333,-162.5"/>
<text text-anchor="start" x="340" y="-173.9" font-family="Arial" font-size="14.00" fill="#000000">metadata    </text>
<text text-anchor="start" x="432.5596" y="-173.9" font-family="Arial" font-size="14.00" fill="#666666">[text]</text>
<polygon fill="none" stroke="#000000" points="333,-132.5 333,-162.5 696,-162.5 696,-132.5 333,-132.5"/>
<text text-anchor="start" x="340" y="-143.9" font-family="Arial" font-size="14.00" fill="#000000">service_name    </text>
<text text-anchor="start" x="461.3282" y="-143.9" font-family="Arial" font-size="14.00" fill="#666666">[varchar]</text>
<polygon fill="none" stroke="#000000" points="333,-102.5 333,-132.5 696,-132.5 696,-102.5 333,-102.5"/>
<text text-anchor="start" x="340" y="-113.9" font-family="Arial" font-size="14.00" fill="#000000">byte_size    </text>
<text text-anchor="start" x="433.3324" y="-113.9" font-family="Arial" font-size="14.00" fill="#666666">[bigint]</text>
<polygon fill="none" stroke="#000000" points="333,-72.5 333,-102.5 696,-102.5 696,-72.5 333,-72.5"/>
<text text-anchor="start" x="340" y="-83.9" font-family="Arial" font-size="14.00" fill="#000000">checksum    </text>
<text text-anchor="start" x="437.2132" y="-83.9" font-family="Arial" font-size="14.00" fill="#666666">[varchar]</text>
<polygon fill="none" stroke="#000000" points="333,-42.5 333,-72.5 696,-72.5 696,-42.5 333,-42.5"/>
<text text-anchor="start" x="340" y="-53.9" font-family="Arial" font-size="14.00" fill="#000000">created_at    </text>
<text text-anchor="start" x="440.3422" y="-53.9" font-family="Arial" font-size="14.00" fill="#666666">[timestamp(6) without time zone]</text>
</g>
<!-- public.active_storage_attachments&#45;&gt;public.active_storage_blobs -->
<g id="edge1" class="edge">
<title>public.active_storage_attachments:blob_id&#45;&gt;public.active_storage_blobs:id</title>
<path fill="none" stroke="#000000" d="M296.0615,-515.9731C268.3606,-506.3767 281.4381,-453.9336 306,-427 364.6465,-362.6906 637.3535,-455.3094 696,-391 724.0012,-360.295 737.5556,-297.5 696,-297.5"/>
<polygon fill="#000000" stroke="#000000" points="296.116,-515.9814 305.3166,-521.9478 301.058,-516.7407 306,-517.5 306,-517.5 306,-517.5 301.058,-516.7407 306.6834,-513.0522 296.116,-515.9814 296.116,-515.9814"/>
<text text-anchor="start" x="6.5965" y="-527.5" font-family="Arial" font-size="10.00" fill="#000000">FOREIGN KEY (blob_id) REFERENCES active_storage_blobs(id)</text>
</g>
</g>
</svg>
