<?xml version="1.0" encoding="UTF-8" standalone="no"?>
<!DOCTYPE svg PUBLIC "-//W3C//DTD SVG 1.1//EN"
 "http://www.w3.org/Graphics/SVG/1.1/DTD/svg11.dtd">
<!-- Generated by graphviz version 2.40.1 (20161225.0304)
 -->
<!-- Title: public.active_storage_variant_records Pages: 1 -->
<svg width="804pt" height="652pt"
 viewBox="0.00 0.00 804.00 652.00" xmlns="http://www.w3.org/2000/svg" xmlns:xlink="http://www.w3.org/1999/xlink">
<g id="graph0" class="graph" transform="scale(1 1) rotate(0) translate(4 648)">
<title>public.active_storage_variant_records</title>
<polygon fill="#ffffff" stroke="transparent" points="-4,4 -4,-648 800,-648 800,4 -4,4"/>
<!-- public.active_storage_variant_records -->
<g id="node1" class="node">
<title>public.active_storage_variant_records</title>
<polygon fill="#efefef" stroke="transparent" points="306,-562.5 306,-597.5 750,-597.5 750,-562.5 306,-562.5"/>
<polygon fill="none" stroke="#000000" points="306,-562.5 306,-597.5 750,-597.5 750,-562.5 306,-562.5"/>
<text text-anchor="start" x="312.683" y="-575.3" font-family="Arial Bold" font-size="18.00" fill="#000000">public.active_storage_variant_records</text>
<text text-anchor="start" x="615.749" y="-575.3" font-family="Arial" font-size="14.00" fill="#000000">    </text>
<text text-anchor="start" x="649.9538" y="-575.3" font-family="Arial" font-size="14.00" fill="#666666">[BASE TABLE]</text>
<polygon fill="none" stroke="#000000" points="306,-532.5 306,-562.5 750,-562.5 750,-532.5 306,-532.5"/>
<text text-anchor="start" x="313" y="-543.9" font-family="Arial" font-size="14.00" fill="#000000">id </text>
<text text-anchor="start" x="327.7798" y="-543.9" font-family="Arial" font-size="14.00" fill="#666666">[bigint]</text>
<polygon fill="none" stroke="#000000" points="306,-502.5 306,-532.5 750,-532.5 750,-502.5 306,-502.5"/>
<text text-anchor="start" x="313" y="-513.9" font-family="Arial" font-size="14.00" fill="#000000">blob_id </text>
<text text-anchor="start" x="362.0168" y="-513.9" font-family="Arial" font-size="14.00" fill="#666666">[bigint]</text>
<polygon fill="none" stroke="#000000" points="306,-472.5 306,-502.5 750,-502.5 750,-472.5 306,-472.5"/>
<text text-anchor="start" x="313" y="-483.9" font-family="Arial" font-size="14.00" fill="#000000">variation_digest </text>
<text text-anchor="start" x="414.913" y="-483.9" font-family="Arial" font-size="14.00" fill="#666666">[varchar]</text>
<polygon fill="none" stroke="#000000" stroke-width="3" points="304.5,-471.5 304.5,-599.5 751.5,-599.5 751.5,-471.5 304.5,-471.5"/>
</g>
<!-- public.active_storage_blobs -->
<g id="node2" class="node">
<title>public.active_storage_blobs</title>
<polygon fill="#efefef" stroke="transparent" points="346,-312.5 346,-347.5 709,-347.5 709,-312.5 346,-312.5"/>
<polygon fill="none" stroke="#000000" points="346,-312.5 346,-347.5 709,-347.5 709,-312.5 346,-312.5"/>
<text text-anchor="start" x="352.6848" y="-325.3" font-family="Arial Bold" font-size="18.00" fill="#000000">public.active_storage_blobs</text>
<text text-anchor="start" x="574.7472" y="-325.3" font-family="Arial" font-size="14.00" fill="#000000">    </text>
<text text-anchor="start" x="608.952" y="-325.3" font-family="Arial" font-size="14.00" fill="#666666">[BASE TABLE]</text>
<polygon fill="none" stroke="#000000" points="346,-282.5 346,-312.5 709,-312.5 709,-282.5 346,-282.5"/>
<text text-anchor="start" x="353" y="-293.9" font-family="Arial" font-size="14.00" fill="#000000">id    </text>
<text text-anchor="start" x="398.094" y="-293.9" font-family="Arial" font-size="14.00" fill="#666666">[bigint]</text>
<polygon fill="none" stroke="#000000" points="346,-252.5 346,-282.5 709,-282.5 709,-252.5 346,-252.5"/>
<text text-anchor="start" x="353" y="-263.9" font-family="Arial" font-size="14.00" fill="#000000">key    </text>
<text text-anchor="start" x="408.9874" y="-263.9" font-family="Arial" font-size="14.00" fill="#666666">[varchar]</text>
<polygon fill="none" stroke="#000000" points="346,-222.5 346,-252.5 709,-252.5 709,-222.5 346,-222.5"/>
<text text-anchor="start" x="353" y="-233.9" font-family="Arial" font-size="14.00" fill="#000000">filename    </text>
<text text-anchor="start" x="440.0996" y="-233.9" font-family="Arial" font-size="14.00" fill="#666666">[varchar]</text>
<polygon fill="none" stroke="#000000" points="346,-192.5 346,-222.5 709,-222.5 709,-192.5 346,-192.5"/>
<text text-anchor="start" x="353" y="-203.9" font-family="Arial" font-size="14.00" fill="#000000">content_type    </text>
<text text-anchor="start" x="467.3548" y="-203.9" font-family="Arial" font-size="14.00" fill="#666666">[varchar]</text>
<polygon fill="none" stroke="#000000" points="346,-162.5 346,-192.5 709,-192.5 709,-162.5 346,-162.5"/>
<text text-anchor="start" x="353" y="-173.9" font-family="Arial" font-size="14.00" fill="#000000">metadata    </text>
<text text-anchor="start" x="445.5596" y="-173.9" font-family="Arial" font-size="14.00" fill="#666666">[text]</text>
<polygon fill="none" stroke="#000000" points="346,-132.5 346,-162.5 709,-162.5 709,-132.5 346,-132.5"/>
<text text-anchor="start" x="353" y="-143.9" font-family="Arial" font-size="14.00" fill="#000000">service_name    </text>
<text text-anchor="start" x="474.3282" y="-143.9" font-family="Arial" font-size="14.00" fill="#666666">[varchar]</text>
<polygon fill="none" stroke="#000000" points="346,-102.5 346,-132.5 709,-132.5 709,-102.5 346,-102.5"/>
<text text-anchor="start" x="353" y="-113.9" font-family="Arial" font-size="14.00" fill="#000000">byte_size    </text>
<text text-anchor="start" x="446.3324" y="-113.9" font-family="Arial" font-size="14.00" fill="#666666">[bigint]</text>
<polygon fill="none" stroke="#000000" points="346,-72.5 346,-102.5 709,-102.5 709,-72.5 346,-72.5"/>
<text text-anchor="start" x="353" y="-83.9" font-family="Arial" font-size="14.00" fill="#000000">checksum    </text>
<text text-anchor="start" x="450.2132" y="-83.9" font-family="Arial" font-size="14.00" fill="#666666">[varchar]</text>
<polygon fill="none" stroke="#000000" points="346,-42.5 346,-72.5 709,-72.5 709,-42.5 346,-42.5"/>
<text text-anchor="start" x="353" y="-53.9" font-family="Arial" font-size="14.00" fill="#000000">created_at    </text>
<text text-anchor="start" x="453.3422" y="-53.9" font-family="Arial" font-size="14.00" fill="#666666">[timestamp(6) without time zone]</text>
</g>
<!-- public.active_storage_variant_records&#45;&gt;public.active_storage_blobs -->
<g id="edge1" class="edge">
<title>public.active_storage_variant_records:blob_id&#45;&gt;public.active_storage_blobs:id</title>
<path fill="none" stroke="#000000" d="M296.0605,-515.9721C268.3531,-506.3699 281.3984,-453.8973 306,-427 366.6832,-360.6543 648.3168,-457.3457 709,-391 737.0465,-360.3364 750.5556,-297.5 709,-297.5"/>
<polygon fill="#000000" stroke="#000000" points="296.1161,-515.9806 305.3163,-521.9478 301.058,-516.7403 306,-517.5 306,-517.5 306,-517.5 301.058,-516.7403 306.6837,-513.0522 296.1161,-515.9806 296.1161,-515.9806"/>
<text text-anchor="start" x="6.5965" y="-527.5" font-family="Arial" font-size="10.00" fill="#000000">FOREIGN KEY (blob_id) REFERENCES active_storage_blobs(id)</text>
</g>
</g>
</svg>
