<?xml version="1.0" encoding="UTF-8" standalone="no"?>
<!DOCTYPE svg PUBLIC "-//W3C//DTD SVG 1.1//EN"
 "http://www.w3.org/Graphics/SVG/1.1/DTD/svg11.dtd">
<!-- Generated by graphviz version 2.40.1 (20161225.0304)
 -->
<!-- Title: public.people Pages: 1 -->
<svg width="625pt" height="592pt"
 viewBox="0.00 0.00 625.00 592.00" xmlns="http://www.w3.org/2000/svg" xmlns:xlink="http://www.w3.org/1999/xlink">
<g id="graph0" class="graph" transform="scale(1 1) rotate(0) translate(4 588)">
<title>public.people</title>
<polygon fill="#ffffff" stroke="transparent" points="-4,4 -4,-588 621,-588 621,4 -4,4"/>
<!-- public.people -->
<g id="node1" class="node">
<title>public.people</title>
<polygon fill="#efefef" stroke="transparent" points="58,-195.5 58,-230.5 348,-230.5 348,-195.5 58,-195.5"/>
<polygon fill="none" stroke="#000000" points="58,-195.5 58,-230.5 348,-230.5 348,-195.5 58,-195.5"/>
<text text-anchor="start" x="86.1988" y="-208.3" font-family="Arial Bold" font-size="18.00" fill="#000000">public.people</text>
<text text-anchor="start" x="192.2332" y="-208.3" font-family="Arial" font-size="14.00" fill="#000000">    </text>
<text text-anchor="start" x="226.438" y="-208.3" font-family="Arial" font-size="14.00" fill="#666666">[BASE TABLE]</text>
<polygon fill="none" stroke="#000000" points="58,-165.5 58,-195.5 348,-195.5 348,-165.5 58,-165.5"/>
<text text-anchor="start" x="65" y="-176.9" font-family="Arial" font-size="14.00" fill="#000000">id </text>
<text text-anchor="start" x="79.7798" y="-176.9" font-family="Arial" font-size="14.00" fill="#666666">[bigint]</text>
<polygon fill="none" stroke="#000000" points="58,-135.5 58,-165.5 348,-165.5 348,-135.5 58,-135.5"/>
<text text-anchor="start" x="65" y="-146.9" font-family="Arial" font-size="14.00" fill="#000000">name </text>
<text text-anchor="start" x="103.899" y="-146.9" font-family="Arial" font-size="14.00" fill="#666666">[varchar]</text>
<polygon fill="none" stroke="#000000" points="58,-105.5 58,-135.5 348,-135.5 348,-105.5 58,-105.5"/>
<text text-anchor="start" x="65" y="-116.9" font-family="Arial" font-size="14.00" fill="#000000">user_id </text>
<text text-anchor="start" x="114.7882" y="-116.9" font-family="Arial" font-size="14.00" fill="#666666">[integer]</text>
<polygon fill="none" stroke="#000000" points="58,-75.5 58,-105.5 348,-105.5 348,-75.5 58,-75.5"/>
<text text-anchor="start" x="65" y="-86.9" font-family="Arial" font-size="14.00" fill="#000000">created_at </text>
<text text-anchor="start" x="135.028" y="-86.9" font-family="Arial" font-size="14.00" fill="#666666">[timestamp(6) without time zone]</text>
<polygon fill="none" stroke="#000000" points="58,-45.5 58,-75.5 348,-75.5 348,-45.5 58,-45.5"/>
<text text-anchor="start" x="64.9117" y="-56.9" font-family="Arial" font-size="14.00" fill="#000000">updated_at </text>
<text text-anchor="start" x="138.8443" y="-56.9" font-family="Arial" font-size="14.00" fill="#666666">[timestamp(6) without time zone]</text>
<polygon fill="none" stroke="#000000" stroke-width="3" points="56.5,-44.5 56.5,-232.5 349.5,-232.5 349.5,-44.5 56.5,-44.5"/>
</g>
<!-- public.person_articles -->
<g id="node2" class="node">
<title>public.person_articles</title>
<polygon fill="#efefef" stroke="transparent" points="43,-505.5 43,-540.5 363,-540.5 363,-505.5 43,-505.5"/>
<polygon fill="none" stroke="#000000" points="43,-505.5 43,-540.5 363,-540.5 363,-505.5 43,-505.5"/>
<text text-anchor="start" x="52.2022" y="-518.3" font-family="Arial Bold" font-size="18.00" fill="#000000">public.person_articles</text>
<text text-anchor="start" x="226.2298" y="-518.3" font-family="Arial" font-size="14.00" fill="#000000">    </text>
<text text-anchor="start" x="260.4346" y="-518.3" font-family="Arial" font-size="14.00" fill="#666666">[BASE TABLE]</text>
<polygon fill="none" stroke="#000000" points="43,-475.5 43,-505.5 363,-505.5 363,-475.5 43,-475.5"/>
<text text-anchor="start" x="50" y="-486.9" font-family="Arial" font-size="14.00" fill="#000000">id    </text>
<text text-anchor="start" x="95.094" y="-486.9" font-family="Arial" font-size="14.00" fill="#666666">[bigint]</text>
<polygon fill="none" stroke="#000000" points="43,-445.5 43,-475.5 363,-475.5 363,-445.5 43,-445.5"/>
<text text-anchor="start" x="50" y="-456.9" font-family="Arial" font-size="14.00" fill="#000000">person_id    </text>
<text text-anchor="start" x="145.6676" y="-456.9" font-family="Arial" font-size="14.00" fill="#666666">[bigint]</text>
<polygon fill="none" stroke="#000000" points="43,-415.5 43,-445.5 363,-445.5 363,-415.5 43,-415.5"/>
<text text-anchor="start" x="50" y="-426.9" font-family="Arial" font-size="14.00" fill="#000000">article_id    </text>
<text text-anchor="start" x="140.2062" y="-426.9" font-family="Arial" font-size="14.00" fill="#666666">[bigint]</text>
<polygon fill="none" stroke="#000000" points="43,-385.5 43,-415.5 363,-415.5 363,-385.5 43,-385.5"/>
<text text-anchor="start" x="50" y="-396.9" font-family="Arial" font-size="14.00" fill="#000000">created_at    </text>
<text text-anchor="start" x="150.3422" y="-396.9" font-family="Arial" font-size="14.00" fill="#666666">[timestamp(6) without time zone]</text>
<polygon fill="none" stroke="#000000" points="43,-355.5 43,-385.5 363,-385.5 363,-355.5 43,-355.5"/>
<text text-anchor="start" x="49.7546" y="-366.9" font-family="Arial" font-size="14.00" fill="#000000">updated_at    </text>
<text text-anchor="start" x="154.0014" y="-366.9" font-family="Arial" font-size="14.00" fill="#666666">[timestamp(6) without time zone]</text>
</g>
<!-- public.person_articles&#45;&gt;public.people -->
<g id="edge1" class="edge">
<title>public.person_articles:person_id&#45;&gt;public.people:id</title>
<path fill="none" stroke="#000000" d="M372.8494,-457.9069C423.4604,-429.6795 406.7821,-180.5 348,-180.5"/>
<polygon fill="#000000" stroke="#000000" points="372.6705,-457.954 361.8543,-456.1483 367.8352,-459.227 363,-460.5 363,-460.5 363,-460.5 367.8352,-459.227 364.1457,-464.8517 372.6705,-457.954 372.6705,-457.954"/>
<text text-anchor="start" x="369.992" y="-470.5" font-family="Arial" font-size="10.00" fill="#000000">FOREIGN KEY (person_id) REFERENCES people(id)</text>
</g>
</g>
</svg>
