<?xml version="1.0" encoding="UTF-8" standalone="no"?>
<!DOCTYPE svg PUBLIC "-//W3C//DTD SVG 1.1//EN"
 "http://www.w3.org/Graphics/SVG/1.1/DTD/svg11.dtd">
<!-- Generated by graphviz version 2.40.1 (20161225.0304)
 -->
<!-- Title: public.articles Pages: 1 -->
<svg width="1708pt" height="1619pt"
 viewBox="0.00 0.00 1708.00 1619.00" xmlns="http://www.w3.org/2000/svg" xmlns:xlink="http://www.w3.org/1999/xlink">
<g id="graph0" class="graph" transform="scale(1 1) rotate(0) translate(4 1615)">
<title>public.articles</title>
<polygon fill="#ffffff" stroke="transparent" points="-4,4 -4,-1615 1704,-1615 1704,4 -4,4"/>
<!-- public.articles -->
<g id="node1" class="node">
<title>public.articles</title>
<polygon fill="#efefef" stroke="transparent" points="709,-1222.5 709,-1257.5 999,-1257.5 999,-1222.5 709,-1222.5"/>
<polygon fill="none" stroke="#000000" points="709,-1222.5 709,-1257.5 999,-1257.5 999,-1222.5 709,-1222.5"/>
<text text-anchor="start" x="735.7138" y="-1235.3" font-family="Arial Bold" font-size="18.00" fill="#000000">public.articles</text>
<text text-anchor="start" x="844.7182" y="-1235.3" font-family="Arial" font-size="14.00" fill="#000000">    </text>
<text text-anchor="start" x="878.923" y="-1235.3" font-family="Arial" font-size="14.00" fill="#666666">[BASE TABLE]</text>
<polygon fill="none" stroke="#000000" points="709,-1192.5 709,-1222.5 999,-1222.5 999,-1192.5 709,-1192.5"/>
<text text-anchor="start" x="716" y="-1203.9" font-family="Arial" font-size="14.00" fill="#000000">id </text>
<text text-anchor="start" x="730.7798" y="-1203.9" font-family="Arial" font-size="14.00" fill="#666666">[bigint]</text>
<polygon fill="none" stroke="#000000" points="709,-1162.5 709,-1192.5 999,-1192.5 999,-1162.5 709,-1162.5"/>
<text text-anchor="start" x="716" y="-1173.9" font-family="Arial" font-size="14.00" fill="#000000">body </text>
<text text-anchor="start" x="750.2384" y="-1173.9" font-family="Arial" font-size="14.00" fill="#666666">[text]</text>
<polygon fill="none" stroke="#000000" points="709,-1132.5 709,-1162.5 999,-1162.5 999,-1132.5 709,-1132.5"/>
<text text-anchor="start" x="716" y="-1143.9" font-family="Arial" font-size="14.00" fill="#000000">user_id </text>
<text text-anchor="start" x="765.7882" y="-1143.9" font-family="Arial" font-size="14.00" fill="#666666">[bigint]</text>
<polygon fill="none" stroke="#000000" points="709,-1102.5 709,-1132.5 999,-1132.5 999,-1102.5 709,-1102.5"/>
<text text-anchor="start" x="716" y="-1113.9" font-family="Arial" font-size="14.00" fill="#000000">created_at </text>
<text text-anchor="start" x="786.028" y="-1113.9" font-family="Arial" font-size="14.00" fill="#666666">[timestamp(6) without time zone]</text>
<polygon fill="none" stroke="#000000" points="709,-1072.5 709,-1102.5 999,-1102.5 999,-1072.5 709,-1072.5"/>
<text text-anchor="start" x="715.9117" y="-1083.9" font-family="Arial" font-size="14.00" fill="#000000">updated_at </text>
<text text-anchor="start" x="789.8443" y="-1083.9" font-family="Arial" font-size="14.00" fill="#666666">[timestamp(6) without time zone]</text>
<polygon fill="none" stroke="#000000" points="709,-1042.5 709,-1072.5 999,-1072.5 999,-1042.5 709,-1042.5"/>
<text text-anchor="start" x="716" y="-1053.9" font-family="Arial" font-size="14.00" fill="#000000">impressions_count </text>
<text text-anchor="start" x="836.5764" y="-1053.9" font-family="Arial" font-size="14.00" fill="#666666">[integer]</text>
<polygon fill="none" stroke="#000000" points="709,-1012.5 709,-1042.5 999,-1042.5 999,-1012.5 709,-1012.5"/>
<text text-anchor="start" x="716" y="-1023.9" font-family="Arial" font-size="14.00" fill="#000000">start_time </text>
<text text-anchor="start" x="781.338" y="-1023.9" font-family="Arial" font-size="14.00" fill="#666666">[timestamp(6) without time zone]</text>
<polygon fill="none" stroke="#000000" points="709,-982.5 709,-1012.5 999,-1012.5 999,-982.5 709,-982.5"/>
<text text-anchor="start" x="716" y="-993.9" font-family="Arial" font-size="14.00" fill="#000000">end_time </text>
<text text-anchor="start" x="777.4614" y="-993.9" font-family="Arial" font-size="14.00" fill="#666666">[timestamp(6) without time zone]</text>
<polygon fill="none" stroke="#000000" points="709,-952.5 709,-982.5 999,-982.5 999,-952.5 709,-952.5"/>
<text text-anchor="start" x="716" y="-963.9" font-family="Arial" font-size="14.00" fill="#000000">title </text>
<text text-anchor="start" x="741.6676" y="-963.9" font-family="Arial" font-size="14.00" fill="#666666">[varchar]</text>
<polygon fill="none" stroke="#000000" points="709,-922.5 709,-952.5 999,-952.5 999,-922.5 709,-922.5"/>
<text text-anchor="start" x="716" y="-933.9" font-family="Arial" font-size="14.00" fill="#000000">application_deadline </text>
<text text-anchor="start" x="847.488" y="-933.9" font-family="Arial" font-size="14.00" fill="#666666">[date]</text>
<polygon fill="none" stroke="#000000" points="709,-892.5 709,-922.5 999,-922.5 999,-892.5 709,-892.5"/>
<text text-anchor="start" x="716" y="-903.9" font-family="Arial" font-size="14.00" fill="#000000">salary_details </text>
<text text-anchor="start" x="805.4572" y="-903.9" font-family="Arial" font-size="14.00" fill="#666666">[text]</text>
<polygon fill="none" stroke="#000000" points="709,-862.5 709,-892.5 999,-892.5 999,-862.5 709,-862.5"/>
<text text-anchor="start" x="716" y="-873.9" font-family="Arial" font-size="14.00" fill="#000000">work_location </text>
<text text-anchor="start" x="805.4572" y="-873.9" font-family="Arial" font-size="14.00" fill="#666666">[varchar]</text>
<polygon fill="none" stroke="#000000" points="709,-832.5 709,-862.5 999,-862.5 999,-832.5 709,-832.5"/>
<text text-anchor="start" x="716" y="-843.9" font-family="Arial" font-size="14.00" fill="#000000">language_requirement </text>
<text text-anchor="start" x="859.9326" y="-843.9" font-family="Arial" font-size="14.00" fill="#666666">[varchar]</text>
<polygon fill="none" stroke="#000000" points="709,-802.5 709,-832.5 999,-832.5 999,-802.5 709,-802.5"/>
<text text-anchor="start" x="716" y="-813.9" font-family="Arial" font-size="14.00" fill="#000000">japanese_level </text>
<text text-anchor="start" x="813.2538" y="-813.9" font-family="Arial" font-size="14.00" fill="#666666">[varchar]</text>
<polygon fill="none" stroke="#000000" points="709,-772.5 709,-802.5 999,-802.5 999,-772.5 709,-772.5"/>
<text text-anchor="start" x="716" y="-783.9" font-family="Arial" font-size="14.00" fill="#000000">skills_required </text>
<text text-anchor="start" x="809.3338" y="-783.9" font-family="Arial" font-size="14.00" fill="#666666">[text]</text>
<polygon fill="none" stroke="#000000" points="709,-742.5 709,-772.5 999,-772.5 999,-742.5 709,-742.5"/>
<text text-anchor="start" x="716" y="-753.9" font-family="Arial" font-size="14.00" fill="#000000">employment_type </text>
<text text-anchor="start" x="830.3604" y="-753.9" font-family="Arial" font-size="14.00" fill="#666666">[varchar]</text>
<polygon fill="none" stroke="#000000" points="709,-712.5 709,-742.5 999,-742.5 999,-712.5 709,-712.5"/>
<text text-anchor="start" x="716" y="-723.9" font-family="Arial" font-size="14.00" fill="#000000">description </text>
<text text-anchor="start" x="787.568" y="-723.9" font-family="Arial" font-size="14.00" fill="#666666">[text]</text>
<polygon fill="none" stroke="#000000" points="709,-682.5 709,-712.5 999,-712.5 999,-682.5 709,-682.5"/>
<text text-anchor="start" x="716" y="-693.9" font-family="Arial" font-size="14.00" fill="#000000">work_hours </text>
<text text-anchor="start" x="792.2314" y="-693.9" font-family="Arial" font-size="14.00" fill="#666666">[varchar]</text>
<polygon fill="none" stroke="#000000" points="709,-652.5 709,-682.5 999,-682.5 999,-652.5 709,-652.5"/>
<text text-anchor="start" x="716" y="-663.9" font-family="Arial" font-size="14.00" fill="#000000">trial_period </text>
<text text-anchor="start" x="789.1178" y="-663.9" font-family="Arial" font-size="14.00" fill="#666666">[varchar]</text>
<polygon fill="none" stroke="#000000" points="709,-622.5 709,-652.5 999,-652.5 999,-622.5 709,-622.5"/>
<text text-anchor="start" x="716" y="-633.9" font-family="Arial" font-size="14.00" fill="#000000">days_off </text>
<text text-anchor="start" x="772.8022" y="-633.9" font-family="Arial" font-size="14.00" fill="#666666">[varchar]</text>
<polygon fill="none" stroke="#000000" points="709,-592.5 709,-622.5 999,-622.5 999,-592.5 709,-592.5"/>
<text text-anchor="start" x="716" y="-603.9" font-family="Arial" font-size="14.00" fill="#000000">overtime </text>
<text text-anchor="start" x="773.5568" y="-603.9" font-family="Arial" font-size="14.00" fill="#666666">[varchar]</text>
<polygon fill="none" stroke="#000000" points="709,-562.5 709,-592.5 999,-592.5 999,-562.5 709,-562.5"/>
<text text-anchor="start" x="716" y="-573.9" font-family="Arial" font-size="14.00" fill="#000000">transportation </text>
<text text-anchor="start" x="805.4684" y="-573.9" font-family="Arial" font-size="14.00" fill="#666666">[varchar]</text>
<polygon fill="none" stroke="#000000" points="709,-532.5 709,-562.5 999,-562.5 999,-532.5 709,-532.5"/>
<text text-anchor="start" x="716" y="-543.9" font-family="Arial" font-size="14.00" fill="#000000">work_environment </text>
<text text-anchor="start" x="834.237" y="-543.9" font-family="Arial" font-size="14.00" fill="#666666">[varchar]</text>
<polygon fill="none" stroke="#000000" points="709,-502.5 709,-532.5 999,-532.5 999,-502.5 709,-502.5"/>
<text text-anchor="start" x="716" y="-513.9" font-family="Arial" font-size="14.00" fill="#000000">other_allowances </text>
<text text-anchor="start" x="828.805" y="-513.9" font-family="Arial" font-size="14.00" fill="#666666">[varchar]</text>
<polygon fill="none" stroke="#000000" points="709,-472.5 709,-502.5 999,-502.5 999,-472.5 709,-472.5"/>
<text text-anchor="start" x="716" y="-483.9" font-family="Arial" font-size="14.00" fill="#000000">insurance </text>
<text text-anchor="start" x="780.5708" y="-483.9" font-family="Arial" font-size="14.00" fill="#666666">[varchar]</text>
<polygon fill="none" stroke="#000000" points="709,-442.5 709,-472.5 999,-472.5 999,-442.5 709,-442.5"/>
<text text-anchor="start" x="716" y="-453.9" font-family="Arial" font-size="14.00" fill="#000000">other_benefits </text>
<text text-anchor="start" x="808.5904" y="-453.9" font-family="Arial" font-size="14.00" fill="#666666">[varchar]</text>
<polygon fill="none" stroke="#000000" points="709,-412.5 709,-442.5 999,-442.5 999,-412.5 709,-412.5"/>
<text text-anchor="start" x="716" y="-423.9" font-family="Arial" font-size="14.00" fill="#000000">status </text>
<text text-anchor="start" x="757.237" y="-423.9" font-family="Arial" font-size="14.00" fill="#666666">[integer]</text>
<polygon fill="none" stroke="#000000" stroke-width="3" points="707.5,-411.5 707.5,-1259.5 1000.5,-1259.5 1000.5,-411.5 707.5,-411.5"/>
</g>
<!-- public.users -->
<g id="node6" class="node">
<title>public.users</title>
<polygon fill="#efefef" stroke="transparent" points="694,-252.5 694,-287.5 1014,-287.5 1014,-252.5 694,-252.5"/>
<polygon fill="none" stroke="#000000" points="694,-252.5 694,-287.5 1014,-287.5 1014,-252.5 694,-252.5"/>
<text text-anchor="start" x="742.2091" y="-265.3" font-family="Arial Bold" font-size="18.00" fill="#000000">public.users</text>
<text text-anchor="start" x="838.2229" y="-265.3" font-family="Arial" font-size="14.00" fill="#000000">    </text>
<text text-anchor="start" x="872.4277" y="-265.3" font-family="Arial" font-size="14.00" fill="#666666">[BASE TABLE]</text>
<polygon fill="none" stroke="#000000" points="694,-222.5 694,-252.5 1014,-252.5 1014,-222.5 694,-222.5"/>
<text text-anchor="start" x="701" y="-233.9" font-family="Arial" font-size="14.00" fill="#000000">id    </text>
<text text-anchor="start" x="746.094" y="-233.9" font-family="Arial" font-size="14.00" fill="#666666">[bigint]</text>
<polygon fill="none" stroke="#000000" points="694,-192.5 694,-222.5 1014,-222.5 1014,-192.5 694,-192.5"/>
<text text-anchor="start" x="701" y="-203.9" font-family="Arial" font-size="14.00" fill="#000000">email    </text>
<text text-anchor="start" x="768.6438" y="-203.9" font-family="Arial" font-size="14.00" fill="#666666">[varchar]</text>
<polygon fill="none" stroke="#000000" points="694,-162.5 694,-192.5 1014,-192.5 1014,-162.5 694,-162.5"/>
<text text-anchor="start" x="701" y="-173.9" font-family="Arial" font-size="14.00" fill="#000000">created_at    </text>
<text text-anchor="start" x="801.3422" y="-173.9" font-family="Arial" font-size="14.00" fill="#666666">[timestamp(6) without time zone]</text>
<polygon fill="none" stroke="#000000" points="694,-132.5 694,-162.5 1014,-162.5 1014,-132.5 694,-132.5"/>
<text text-anchor="start" x="700.7546" y="-143.9" font-family="Arial" font-size="14.00" fill="#000000">updated_at    </text>
<text text-anchor="start" x="805.0014" y="-143.9" font-family="Arial" font-size="14.00" fill="#666666">[timestamp(6) without time zone]</text>
<polygon fill="none" stroke="#000000" points="694,-102.5 694,-132.5 1014,-132.5 1014,-102.5 694,-102.5"/>
<text text-anchor="start" x="701" y="-113.9" font-family="Arial" font-size="14.00" fill="#000000">role    </text>
<text text-anchor="start" x="758.5372" y="-113.9" font-family="Arial" font-size="14.00" fill="#666666">[integer]</text>
<polygon fill="none" stroke="#000000" points="694,-72.5 694,-102.5 1014,-102.5 1014,-72.5 694,-72.5"/>
<text text-anchor="start" x="701" y="-83.9" font-family="Arial" font-size="14.00" fill="#000000">username    </text>
<text text-anchor="start" x="797.439" y="-83.9" font-family="Arial" font-size="14.00" fill="#666666">[varchar]</text>
<polygon fill="none" stroke="#000000" points="694,-42.5 694,-72.5 1014,-72.5 1014,-42.5 694,-42.5"/>
<text text-anchor="start" x="701" y="-53.9" font-family="Arial" font-size="14.00" fill="#000000">avatar    </text>
<text text-anchor="start" x="774.1038" y="-53.9" font-family="Arial" font-size="14.00" fill="#666666">[varchar]</text>
</g>
<!-- public.articles&#45;&gt;public.users -->
<g id="edge5" class="edge">
<title>public.articles:user_id&#45;&gt;public.users:id</title>
<path fill="none" stroke="#000000" d="M1009.2839,-1147.3018C1403.7251,-1132.0147 1415.043,-237.5 1014,-237.5"/>
<polygon fill="#000000" stroke="#000000" points="1008.9981,-1147.3072 998.9132,-1143.0008 1003.9991,-1147.4036 999,-1147.5 999,-1147.5 999,-1147.5 1003.9991,-1147.4036 999.0868,-1151.9992 1008.9981,-1147.3072 1008.9981,-1147.3072"/>
<text text-anchor="start" x="1006.3345" y="-1157.5" font-family="Arial" font-size="10.00" fill="#000000">FOREIGN KEY (user_id) REFERENCES users(id)</text>
</g>
<!-- public.applicant_articles -->
<g id="node2" class="node">
<title>public.applicant_articles</title>
<polygon fill="#efefef" stroke="transparent" points="43,-1532.5 43,-1567.5 375,-1567.5 375,-1532.5 43,-1532.5"/>
<polygon fill="none" stroke="#000000" points="43,-1532.5 43,-1567.5 375,-1567.5 375,-1532.5 43,-1532.5"/>
<text text-anchor="start" x="49.6999" y="-1545.3" font-family="Arial Bold" font-size="18.00" fill="#000000">public.applicant_articles</text>
<text text-anchor="start" x="240.7321" y="-1545.3" font-family="Arial" font-size="14.00" fill="#000000">    </text>
<text text-anchor="start" x="274.9369" y="-1545.3" font-family="Arial" font-size="14.00" fill="#666666">[BASE TABLE]</text>
<polygon fill="none" stroke="#000000" points="43,-1502.5 43,-1532.5 375,-1532.5 375,-1502.5 43,-1502.5"/>
<text text-anchor="start" x="50" y="-1513.9" font-family="Arial" font-size="14.00" fill="#000000">id    </text>
<text text-anchor="start" x="95.094" y="-1513.9" font-family="Arial" font-size="14.00" fill="#666666">[bigint]</text>
<polygon fill="none" stroke="#000000" points="43,-1472.5 43,-1502.5 375,-1502.5 375,-1472.5 43,-1472.5"/>
<text text-anchor="start" x="50" y="-1483.9" font-family="Arial" font-size="14.00" fill="#000000">applicant_id    </text>
<text text-anchor="start" x="158.8934" y="-1483.9" font-family="Arial" font-size="14.00" fill="#666666">[bigint]</text>
<polygon fill="none" stroke="#000000" points="43,-1442.5 43,-1472.5 375,-1472.5 375,-1442.5 43,-1442.5"/>
<text text-anchor="start" x="50" y="-1453.9" font-family="Arial" font-size="14.00" fill="#000000">article_id    </text>
<text text-anchor="start" x="140.2062" y="-1453.9" font-family="Arial" font-size="14.00" fill="#666666">[bigint]</text>
<polygon fill="none" stroke="#000000" points="43,-1412.5 43,-1442.5 375,-1442.5 375,-1412.5 43,-1412.5"/>
<text text-anchor="start" x="50" y="-1423.9" font-family="Arial" font-size="14.00" fill="#000000">created_at    </text>
<text text-anchor="start" x="150.3422" y="-1423.9" font-family="Arial" font-size="14.00" fill="#666666">[timestamp(6) without time zone]</text>
<polygon fill="none" stroke="#000000" points="43,-1382.5 43,-1412.5 375,-1412.5 375,-1382.5 43,-1382.5"/>
<text text-anchor="start" x="50" y="-1393.9" font-family="Arial" font-size="14.00" fill="#000000">updated_at    </text>
<text text-anchor="start" x="154.2468" y="-1393.9" font-family="Arial" font-size="14.00" fill="#666666">[timestamp(6) without time zone]</text>
</g>
<!-- public.applicant_articles&#45;&gt;public.articles -->
<g id="edge1" class="edge">
<title>public.applicant_articles:article_id&#45;&gt;public.articles:id</title>
<path fill="none" stroke="#000000" d="M385.0805,-1456.5187C426.5017,-1447.4759 389.7288,-1378.1232 427,-1340 523.8065,-1240.9805 570.5213,-1207.5 709,-1207.5"/>
<polygon fill="#000000" stroke="#000000" points="384.953,-1456.531 374.564,-1453.0212 379.9765,-1457.0155 375,-1457.5 375,-1457.5 375,-1457.5 379.9765,-1457.0155 375.436,-1461.9788 384.953,-1456.531 384.953,-1456.531"/>
<text text-anchor="start" x="200.8365" y="-1441.5" font-family="Arial" font-size="10.00" fill="#000000">FOREIGN KEY (article_id) REFERENCES articles(id) ON DELETE CASCADE</text>
</g>
<!-- public.bookmarks -->
<g id="node3" class="node">
<title>public.bookmarks</title>
<polygon fill="#efefef" stroke="transparent" points="479,-1532.5 479,-1567.5 799,-1567.5 799,-1532.5 479,-1532.5"/>
<polygon fill="none" stroke="#000000" points="479,-1532.5 479,-1567.5 799,-1567.5 799,-1532.5 479,-1532.5"/>
<text text-anchor="start" x="505.2068" y="-1545.3" font-family="Arial Bold" font-size="18.00" fill="#000000">public.bookmarks</text>
<text text-anchor="start" x="645.2252" y="-1545.3" font-family="Arial" font-size="14.00" fill="#000000">    </text>
<text text-anchor="start" x="679.43" y="-1545.3" font-family="Arial" font-size="14.00" fill="#666666">[BASE TABLE]</text>
<polygon fill="none" stroke="#000000" points="479,-1502.5 479,-1532.5 799,-1532.5 799,-1502.5 479,-1502.5"/>
<text text-anchor="start" x="486" y="-1513.9" font-family="Arial" font-size="14.00" fill="#000000">id    </text>
<text text-anchor="start" x="531.094" y="-1513.9" font-family="Arial" font-size="14.00" fill="#666666">[bigint]</text>
<polygon fill="none" stroke="#000000" points="479,-1472.5 479,-1502.5 799,-1502.5 799,-1472.5 479,-1472.5"/>
<text text-anchor="start" x="486" y="-1483.9" font-family="Arial" font-size="14.00" fill="#000000">user_id    </text>
<text text-anchor="start" x="566.1024" y="-1483.9" font-family="Arial" font-size="14.00" fill="#666666">[bigint]</text>
<polygon fill="none" stroke="#000000" points="479,-1442.5 479,-1472.5 799,-1472.5 799,-1442.5 479,-1442.5"/>
<text text-anchor="start" x="486" y="-1453.9" font-family="Arial" font-size="14.00" fill="#000000">article_id    </text>
<text text-anchor="start" x="576.2062" y="-1453.9" font-family="Arial" font-size="14.00" fill="#666666">[bigint]</text>
<polygon fill="none" stroke="#000000" points="479,-1412.5 479,-1442.5 799,-1442.5 799,-1412.5 479,-1412.5"/>
<text text-anchor="start" x="486" y="-1423.9" font-family="Arial" font-size="14.00" fill="#000000">created_at    </text>
<text text-anchor="start" x="586.3422" y="-1423.9" font-family="Arial" font-size="14.00" fill="#666666">[timestamp(6) without time zone]</text>
<polygon fill="none" stroke="#000000" points="479,-1382.5 479,-1412.5 799,-1412.5 799,-1382.5 479,-1382.5"/>
<text text-anchor="start" x="485.7546" y="-1393.9" font-family="Arial" font-size="14.00" fill="#000000">updated_at    </text>
<text text-anchor="start" x="590.0014" y="-1393.9" font-family="Arial" font-size="14.00" fill="#666666">[timestamp(6) without time zone]</text>
</g>
<!-- public.bookmarks&#45;&gt;public.articles -->
<g id="edge2" class="edge">
<title>public.bookmarks:article_id&#45;&gt;public.articles:id</title>
<path fill="none" stroke="#000000" d="M809.4136,-1456.3159C847.7815,-1446.6484 826.1044,-1380.034 799,-1340 774.8474,-1304.3258 733.1526,-1339.6742 709,-1304 684.9553,-1268.4851 666.1111,-1207.5 709,-1207.5"/>
<polygon fill="#000000" stroke="#000000" points="808.936,-1456.3702 798.4916,-1453.0288 803.968,-1456.9351 799,-1457.5 799,-1457.5 799,-1457.5 803.968,-1456.9351 799.5084,-1461.9712 808.936,-1456.3702 808.936,-1456.3702"/>
<text text-anchor="start" x="806.1175" y="-1467.5" font-family="Arial" font-size="10.00" fill="#000000">FOREIGN KEY (article_id) REFERENCES articles(id)</text>
</g>
<!-- public.category_articles -->
<g id="node4" class="node">
<title>public.category_articles</title>
<polygon fill="#efefef" stroke="transparent" points="904,-1532.5 904,-1567.5 1233,-1567.5 1233,-1532.5 904,-1532.5"/>
<polygon fill="none" stroke="#000000" points="904,-1532.5 904,-1567.5 1233,-1567.5 1233,-1532.5 904,-1532.5"/>
<text text-anchor="start" x="910.7011" y="-1545.3" font-family="Arial Bold" font-size="18.00" fill="#000000">public.category_articles</text>
<text text-anchor="start" x="1098.7309" y="-1545.3" font-family="Arial" font-size="14.00" fill="#000000">    </text>
<text text-anchor="start" x="1132.9357" y="-1545.3" font-family="Arial" font-size="14.00" fill="#666666">[BASE TABLE]</text>
<polygon fill="none" stroke="#000000" points="904,-1502.5 904,-1532.5 1233,-1532.5 1233,-1502.5 904,-1502.5"/>
<text text-anchor="start" x="911" y="-1513.9" font-family="Arial" font-size="14.00" fill="#000000">id    </text>
<text text-anchor="start" x="956.094" y="-1513.9" font-family="Arial" font-size="14.00" fill="#666666">[bigint]</text>
<polygon fill="none" stroke="#000000" points="904,-1472.5 904,-1502.5 1233,-1502.5 1233,-1472.5 904,-1472.5"/>
<text text-anchor="start" x="911" y="-1483.9" font-family="Arial" font-size="14.00" fill="#000000">category_id    </text>
<text text-anchor="start" x="1017.5582" y="-1483.9" font-family="Arial" font-size="14.00" fill="#666666">[bigint]</text>
<polygon fill="none" stroke="#000000" points="904,-1442.5 904,-1472.5 1233,-1472.5 1233,-1442.5 904,-1442.5"/>
<text text-anchor="start" x="911" y="-1453.9" font-family="Arial" font-size="14.00" fill="#000000">article_id    </text>
<text text-anchor="start" x="1001.2062" y="-1453.9" font-family="Arial" font-size="14.00" fill="#666666">[bigint]</text>
<polygon fill="none" stroke="#000000" points="904,-1412.5 904,-1442.5 1233,-1442.5 1233,-1412.5 904,-1412.5"/>
<text text-anchor="start" x="911" y="-1423.9" font-family="Arial" font-size="14.00" fill="#000000">created_at    </text>
<text text-anchor="start" x="1011.3422" y="-1423.9" font-family="Arial" font-size="14.00" fill="#666666">[timestamp(6) without time zone]</text>
<polygon fill="none" stroke="#000000" points="904,-1382.5 904,-1412.5 1233,-1412.5 1233,-1382.5 904,-1382.5"/>
<text text-anchor="start" x="911" y="-1393.9" font-family="Arial" font-size="14.00" fill="#000000">updated_at    </text>
<text text-anchor="start" x="1015.2468" y="-1393.9" font-family="Arial" font-size="14.00" fill="#666666">[timestamp(6) without time zone]</text>
</g>
<!-- public.category_articles&#45;&gt;public.articles -->
<g id="edge3" class="edge">
<title>public.category_articles:article_id&#45;&gt;public.articles:id</title>
<path fill="none" stroke="#000000" d="M893.5804,-1456.3118C855.1644,-1446.6114 876.5309,-1379.7846 904,-1340 929.6543,-1302.8439 973.3457,-1341.1561 999,-1304 1023.3683,-1268.7064 1041.8889,-1207.5 999,-1207.5"/>
<polygon fill="#000000" stroke="#000000" points="894.0644,-1456.3669 903.4901,-1461.971 899.0322,-1456.9335 904,-1457.5 904,-1457.5 904,-1457.5 899.0322,-1456.9335 904.5099,-1453.029 894.0644,-1456.3669 894.0644,-1456.3669"/>
<text text-anchor="start" x="848.3675" y="-1441.5" font-family="Arial" font-size="10.00" fill="#000000">FOREIGN KEY (article_id) REFERENCES articles(id)</text>
</g>
<!-- public.likes -->
<g id="node5" class="node">
<title>public.likes</title>
<polygon fill="#efefef" stroke="transparent" points="1337,-1532.5 1337,-1567.5 1657,-1567.5 1657,-1532.5 1337,-1532.5"/>
<polygon fill="none" stroke="#000000" points="1337,-1532.5 1337,-1567.5 1657,-1567.5 1657,-1532.5 1337,-1532.5"/>
<text text-anchor="start" x="1389.2141" y="-1545.3" font-family="Arial Bold" font-size="18.00" fill="#000000">public.likes</text>
<text text-anchor="start" x="1477.2179" y="-1545.3" font-family="Arial" font-size="14.00" fill="#000000">    </text>
<text text-anchor="start" x="1511.4227" y="-1545.3" font-family="Arial" font-size="14.00" fill="#666666">[BASE TABLE]</text>
<polygon fill="none" stroke="#000000" points="1337,-1502.5 1337,-1532.5 1657,-1532.5 1657,-1502.5 1337,-1502.5"/>
<text text-anchor="start" x="1344" y="-1513.9" font-family="Arial" font-size="14.00" fill="#000000">id    </text>
<text text-anchor="start" x="1389.094" y="-1513.9" font-family="Arial" font-size="14.00" fill="#666666">[bigint]</text>
<polygon fill="none" stroke="#000000" points="1337,-1472.5 1337,-1502.5 1657,-1502.5 1657,-1472.5 1337,-1472.5"/>
<text text-anchor="start" x="1344" y="-1483.9" font-family="Arial" font-size="14.00" fill="#000000">user_id    </text>
<text text-anchor="start" x="1424.1024" y="-1483.9" font-family="Arial" font-size="14.00" fill="#666666">[bigint]</text>
<polygon fill="none" stroke="#000000" points="1337,-1442.5 1337,-1472.5 1657,-1472.5 1657,-1442.5 1337,-1442.5"/>
<text text-anchor="start" x="1344" y="-1453.9" font-family="Arial" font-size="14.00" fill="#000000">article_id    </text>
<text text-anchor="start" x="1434.2062" y="-1453.9" font-family="Arial" font-size="14.00" fill="#666666">[bigint]</text>
<polygon fill="none" stroke="#000000" points="1337,-1412.5 1337,-1442.5 1657,-1442.5 1657,-1412.5 1337,-1412.5"/>
<text text-anchor="start" x="1344" y="-1423.9" font-family="Arial" font-size="14.00" fill="#000000">created_at    </text>
<text text-anchor="start" x="1444.3422" y="-1423.9" font-family="Arial" font-size="14.00" fill="#666666">[timestamp(6) without time zone]</text>
<polygon fill="none" stroke="#000000" points="1337,-1382.5 1337,-1412.5 1657,-1412.5 1657,-1382.5 1337,-1382.5"/>
<text text-anchor="start" x="1343.7546" y="-1393.9" font-family="Arial" font-size="14.00" fill="#000000">updated_at    </text>
<text text-anchor="start" x="1448.0014" y="-1393.9" font-family="Arial" font-size="14.00" fill="#666666">[timestamp(6) without time zone]</text>
</g>
<!-- public.likes&#45;&gt;public.articles -->
<g id="edge4" class="edge">
<title>public.likes:article_id&#45;&gt;public.articles:id</title>
<path fill="none" stroke="#000000" d="M1326.9209,-1456.5174C1285.5119,-1447.4626 1322.374,-1378.0225 1285,-1340 1186.7974,-1240.0932 1139.0897,-1207.5 999,-1207.5"/>
<polygon fill="#000000" stroke="#000000" points="1327.0472,-1456.5296 1336.5633,-1461.9788 1332.0236,-1457.0148 1337,-1457.5 1337,-1457.5 1337,-1457.5 1332.0236,-1457.0148 1337.4367,-1453.0212 1327.0472,-1456.5296 1327.0472,-1456.5296"/>
<text text-anchor="start" x="1093.1175" y="-1467.5" font-family="Arial" font-size="10.00" fill="#000000">FOREIGN KEY (article_id) REFERENCES articles(id)</text>
</g>
</g>
</svg>
