<?xml version="1.0" encoding="UTF-8" standalone="no"?>
<!DOCTYPE svg PUBLIC "-//W3C//DTD SVG 1.1//EN"
 "http://www.w3.org/Graphics/SVG/1.1/DTD/svg11.dtd">
<!-- Generated by graphviz version 2.40.1 (20161225.0304)
 -->
<!-- Title: public.impressions Pages: 1 -->
<svg width="390pt" height="585pt"
 viewBox="0.00 0.00 390.00 585.00" xmlns="http://www.w3.org/2000/svg" xmlns:xlink="http://www.w3.org/1999/xlink">
<g id="graph0" class="graph" transform="scale(1 1) rotate(0) translate(4 581)">
<title>public.impressions</title>
<polygon fill="#ffffff" stroke="transparent" points="-4,4 -4,-581 386,-581 386,4 -4,4"/>
<!-- public.impressions -->
<g id="node1" class="node">
<title>public.impressions</title>
<polygon fill="#efefef" stroke="transparent" points="46,-495.5 46,-530.5 336,-530.5 336,-495.5 46,-495.5"/>
<polygon fill="none" stroke="#000000" points="46,-495.5 46,-530.5 336,-530.5 336,-495.5 46,-495.5"/>
<text text-anchor="start" x="53.2126" y="-508.3" font-family="Arial Bold" font-size="18.00" fill="#000000">public.impressions</text>
<text text-anchor="start" x="201.2194" y="-508.3" font-family="Arial" font-size="14.00" fill="#000000">    </text>
<text text-anchor="start" x="235.4242" y="-508.3" font-family="Arial" font-size="14.00" fill="#666666">[BASE TABLE]</text>
<polygon fill="none" stroke="#000000" points="46,-465.5 46,-495.5 336,-495.5 336,-465.5 46,-465.5"/>
<text text-anchor="start" x="53" y="-476.9" font-family="Arial" font-size="14.00" fill="#000000">id </text>
<text text-anchor="start" x="67.7798" y="-476.9" font-family="Arial" font-size="14.00" fill="#666666">[bigint]</text>
<polygon fill="none" stroke="#000000" points="46,-435.5 46,-465.5 336,-465.5 336,-435.5 46,-435.5"/>
<text text-anchor="start" x="53" y="-446.9" font-family="Arial" font-size="14.00" fill="#000000">impressionable_type </text>
<text text-anchor="start" x="185.2482" y="-446.9" font-family="Arial" font-size="14.00" fill="#666666">[varchar]</text>
<polygon fill="none" stroke="#000000" points="46,-405.5 46,-435.5 336,-435.5 336,-405.5 46,-405.5"/>
<text text-anchor="start" x="53" y="-416.9" font-family="Arial" font-size="14.00" fill="#000000">impressionable_id </text>
<text text-anchor="start" x="169.6816" y="-416.9" font-family="Arial" font-size="14.00" fill="#666666">[integer]</text>
<polygon fill="none" stroke="#000000" points="46,-375.5 46,-405.5 336,-405.5 336,-375.5 46,-375.5"/>
<text text-anchor="start" x="53" y="-386.9" font-family="Arial" font-size="14.00" fill="#000000">user_id </text>
<text text-anchor="start" x="102.7882" y="-386.9" font-family="Arial" font-size="14.00" fill="#666666">[integer]</text>
<polygon fill="none" stroke="#000000" points="46,-345.5 46,-375.5 336,-375.5 336,-345.5 46,-345.5"/>
<text text-anchor="start" x="53" y="-356.9" font-family="Arial" font-size="14.00" fill="#000000">controller_name </text>
<text text-anchor="start" x="157.237" y="-356.9" font-family="Arial" font-size="14.00" fill="#666666">[varchar]</text>
<polygon fill="none" stroke="#000000" points="46,-315.5 46,-345.5 336,-345.5 336,-315.5 46,-315.5"/>
<text text-anchor="start" x="53" y="-326.9" font-family="Arial" font-size="14.00" fill="#000000">action_name </text>
<text text-anchor="start" x="137.0266" y="-326.9" font-family="Arial" font-size="14.00" fill="#666666">[varchar]</text>
<polygon fill="none" stroke="#000000" points="46,-285.5 46,-315.5 336,-315.5 336,-285.5 46,-285.5"/>
<text text-anchor="start" x="53" y="-296.9" font-family="Arial" font-size="14.00" fill="#000000">view_name </text>
<text text-anchor="start" x="127.6774" y="-296.9" font-family="Arial" font-size="14.00" fill="#666666">[varchar]</text>
<polygon fill="none" stroke="#000000" points="46,-255.5 46,-285.5 336,-285.5 336,-255.5 46,-255.5"/>
<text text-anchor="start" x="53" y="-266.9" font-family="Arial" font-size="14.00" fill="#000000">request_hash </text>
<text text-anchor="start" x="141.7026" y="-266.9" font-family="Arial" font-size="14.00" fill="#666666">[varchar]</text>
<polygon fill="none" stroke="#000000" points="46,-225.5 46,-255.5 336,-255.5 336,-225.5 46,-225.5"/>
<text text-anchor="start" x="53" y="-236.9" font-family="Arial" font-size="14.00" fill="#000000">ip_address </text>
<text text-anchor="start" x="125.3534" y="-236.9" font-family="Arial" font-size="14.00" fill="#666666">[varchar]</text>
<polygon fill="none" stroke="#000000" points="46,-195.5 46,-225.5 336,-225.5 336,-195.5 46,-195.5"/>
<text text-anchor="start" x="53" y="-206.9" font-family="Arial" font-size="14.00" fill="#000000">session_hash </text>
<text text-anchor="start" x="142.4754" y="-206.9" font-family="Arial" font-size="14.00" fill="#666666">[varchar]</text>
<polygon fill="none" stroke="#000000" points="46,-165.5 46,-195.5 336,-195.5 336,-165.5 46,-165.5"/>
<text text-anchor="start" x="53" y="-176.9" font-family="Arial" font-size="14.00" fill="#000000">message </text>
<text text-anchor="start" x="113.6816" y="-176.9" font-family="Arial" font-size="14.00" fill="#666666">[text]</text>
<polygon fill="none" stroke="#000000" points="46,-135.5 46,-165.5 336,-165.5 336,-135.5 46,-135.5"/>
<text text-anchor="start" x="53" y="-146.9" font-family="Arial" font-size="14.00" fill="#000000">referrer </text>
<text text-anchor="start" x="102.7714" y="-146.9" font-family="Arial" font-size="14.00" fill="#666666">[text]</text>
<polygon fill="none" stroke="#000000" points="46,-105.5 46,-135.5 336,-135.5 336,-105.5 46,-105.5"/>
<text text-anchor="start" x="53" y="-116.9" font-family="Arial" font-size="14.00" fill="#000000">params </text>
<text text-anchor="start" x="103.5596" y="-116.9" font-family="Arial" font-size="14.00" fill="#666666">[text]</text>
<polygon fill="none" stroke="#000000" points="46,-75.5 46,-105.5 336,-105.5 336,-75.5 46,-75.5"/>
<text text-anchor="start" x="53" y="-86.9" font-family="Arial" font-size="14.00" fill="#000000">created_at </text>
<text text-anchor="start" x="123.028" y="-86.9" font-family="Arial" font-size="14.00" fill="#666666">[timestamp(6) without time zone]</text>
<polygon fill="none" stroke="#000000" points="46,-45.5 46,-75.5 336,-75.5 336,-45.5 46,-45.5"/>
<text text-anchor="start" x="52.9117" y="-56.9" font-family="Arial" font-size="14.00" fill="#000000">updated_at </text>
<text text-anchor="start" x="126.8443" y="-56.9" font-family="Arial" font-size="14.00" fill="#666666">[timestamp(6) without time zone]</text>
<polygon fill="none" stroke="#000000" stroke-width="3" points="44.5,-44.5 44.5,-532.5 337.5,-532.5 337.5,-44.5 44.5,-44.5"/>
</g>
</g>
</svg>
