<?xml version="1.0" encoding="UTF-8" standalone="no"?>
<!DOCTYPE svg PUBLIC "-//W3C//DTD SVG 1.1//EN"
 "http://www.w3.org/Graphics/SVG/1.1/DTD/svg11.dtd">
<!-- Generated by graphviz version 2.40.1 (20161225.0304)
 -->
<!-- Title: public.articles Pages: 1 -->
<svg width="1696pt" height="1139pt"
 viewBox="0.00 0.00 1695.50 1139.00" xmlns="http://www.w3.org/2000/svg" xmlns:xlink="http://www.w3.org/1999/xlink">
<g id="graph0" class="graph" transform="scale(1 1) rotate(0) translate(4 1135)">
<title>public.articles</title>
<polygon fill="#ffffff" stroke="transparent" points="-4,4 -4,-1135 1691.5,-1135 1691.5,4 -4,4"/>
<!-- public.articles -->
<g id="node1" class="node">
<title>public.articles</title>
<polygon fill="#efefef" stroke="transparent" points="703.5,-742.5 703.5,-777.5 993.5,-777.5 993.5,-742.5 703.5,-742.5"/>
<polygon fill="none" stroke="#000000" points="703.5,-742.5 703.5,-777.5 993.5,-777.5 993.5,-742.5 703.5,-742.5"/>
<text text-anchor="start" x="730.2138" y="-755.3" font-family="Arial Bold" font-size="18.00" fill="#000000">public.articles</text>
<text text-anchor="start" x="839.2182" y="-755.3" font-family="Arial" font-size="14.00" fill="#000000">    </text>
<text text-anchor="start" x="873.423" y="-755.3" font-family="Arial" font-size="14.00" fill="#666666">[BASE TABLE]</text>
<polygon fill="none" stroke="#000000" points="703.5,-712.5 703.5,-742.5 993.5,-742.5 993.5,-712.5 703.5,-712.5"/>
<text text-anchor="start" x="710.5" y="-723.9" font-family="Arial" font-size="14.00" fill="#000000">id </text>
<text text-anchor="start" x="725.2798" y="-723.9" font-family="Arial" font-size="14.00" fill="#666666">[bigint]</text>
<polygon fill="none" stroke="#000000" points="703.5,-682.5 703.5,-712.5 993.5,-712.5 993.5,-682.5 703.5,-682.5"/>
<text text-anchor="start" x="710.5" y="-693.9" font-family="Arial" font-size="14.00" fill="#000000">body </text>
<text text-anchor="start" x="744.7384" y="-693.9" font-family="Arial" font-size="14.00" fill="#666666">[text]</text>
<polygon fill="none" stroke="#000000" points="703.5,-652.5 703.5,-682.5 993.5,-682.5 993.5,-652.5 703.5,-652.5"/>
<text text-anchor="start" x="710.5" y="-663.9" font-family="Arial" font-size="14.00" fill="#000000">user_id </text>
<text text-anchor="start" x="760.2882" y="-663.9" font-family="Arial" font-size="14.00" fill="#666666">[bigint]</text>
<polygon fill="none" stroke="#000000" points="703.5,-622.5 703.5,-652.5 993.5,-652.5 993.5,-622.5 703.5,-622.5"/>
<text text-anchor="start" x="710.5" y="-633.9" font-family="Arial" font-size="14.00" fill="#000000">created_at </text>
<text text-anchor="start" x="780.528" y="-633.9" font-family="Arial" font-size="14.00" fill="#666666">[timestamp(6) without time zone]</text>
<polygon fill="none" stroke="#000000" points="703.5,-592.5 703.5,-622.5 993.5,-622.5 993.5,-592.5 703.5,-592.5"/>
<text text-anchor="start" x="710.4117" y="-603.9" font-family="Arial" font-size="14.00" fill="#000000">updated_at </text>
<text text-anchor="start" x="784.3443" y="-603.9" font-family="Arial" font-size="14.00" fill="#666666">[timestamp(6) without time zone]</text>
<polygon fill="none" stroke="#000000" points="703.5,-562.5 703.5,-592.5 993.5,-592.5 993.5,-562.5 703.5,-562.5"/>
<text text-anchor="start" x="710.5" y="-573.9" font-family="Arial" font-size="14.00" fill="#000000">impressions_count </text>
<text text-anchor="start" x="831.0764" y="-573.9" font-family="Arial" font-size="14.00" fill="#666666">[integer]</text>
<polygon fill="none" stroke="#000000" points="703.5,-532.5 703.5,-562.5 993.5,-562.5 993.5,-532.5 703.5,-532.5"/>
<text text-anchor="start" x="710.5" y="-543.9" font-family="Arial" font-size="14.00" fill="#000000">file </text>
<text text-anchor="start" x="732.277" y="-543.9" font-family="Arial" font-size="14.00" fill="#666666">[varchar]</text>
<polygon fill="none" stroke="#000000" points="703.5,-502.5 703.5,-532.5 993.5,-532.5 993.5,-502.5 703.5,-502.5"/>
<text text-anchor="start" x="710.5" y="-513.9" font-family="Arial" font-size="14.00" fill="#000000">start_time </text>
<text text-anchor="start" x="775.838" y="-513.9" font-family="Arial" font-size="14.00" fill="#666666">[timestamp(6) without time zone]</text>
<polygon fill="none" stroke="#000000" points="703.5,-472.5 703.5,-502.5 993.5,-502.5 993.5,-472.5 703.5,-472.5"/>
<text text-anchor="start" x="710.5" y="-483.9" font-family="Arial" font-size="14.00" fill="#000000">end_time </text>
<text text-anchor="start" x="771.9614" y="-483.9" font-family="Arial" font-size="14.00" fill="#666666">[timestamp(6) without time zone]</text>
<polygon fill="none" stroke="#000000" stroke-width="3" points="702,-471.5 702,-779.5 995,-779.5 995,-471.5 702,-471.5"/>
</g>
<!-- public.users -->
<g id="node6" class="node">
<title>public.users</title>
<polygon fill="#efefef" stroke="transparent" points="647.5,-312.5 647.5,-347.5 1049.5,-347.5 1049.5,-312.5 647.5,-312.5"/>
<polygon fill="none" stroke="#000000" points="647.5,-312.5 647.5,-347.5 1049.5,-347.5 1049.5,-312.5 647.5,-312.5"/>
<text text-anchor="start" x="736.7091" y="-325.3" font-family="Arial Bold" font-size="18.00" fill="#000000">public.users</text>
<text text-anchor="start" x="832.7229" y="-325.3" font-family="Arial" font-size="14.00" fill="#000000">    </text>
<text text-anchor="start" x="866.9277" y="-325.3" font-family="Arial" font-size="14.00" fill="#666666">[BASE TABLE]</text>
<polygon fill="none" stroke="#000000" points="647.5,-282.5 647.5,-312.5 1049.5,-312.5 1049.5,-282.5 647.5,-282.5"/>
<text text-anchor="start" x="654.5" y="-293.9" font-family="Arial" font-size="14.00" fill="#000000">id    </text>
<text text-anchor="start" x="699.594" y="-293.9" font-family="Arial" font-size="14.00" fill="#666666">[bigint]</text>
<polygon fill="none" stroke="#000000" points="647.5,-252.5 647.5,-282.5 1049.5,-282.5 1049.5,-252.5 647.5,-252.5"/>
<text text-anchor="start" x="654.5" y="-263.9" font-family="Arial" font-size="14.00" fill="#000000">email    </text>
<text text-anchor="start" x="722.1438" y="-263.9" font-family="Arial" font-size="14.00" fill="#666666">[varchar]</text>
<polygon fill="none" stroke="#000000" points="647.5,-222.5 647.5,-252.5 1049.5,-252.5 1049.5,-222.5 647.5,-222.5"/>
<text text-anchor="start" x="654.5" y="-233.9" font-family="Arial" font-size="14.00" fill="#000000">encrypted_password    </text>
<text text-anchor="start" x="817.8492" y="-233.9" font-family="Arial" font-size="14.00" fill="#666666">[varchar]</text>
<polygon fill="none" stroke="#000000" points="647.5,-192.5 647.5,-222.5 1049.5,-222.5 1049.5,-192.5 647.5,-192.5"/>
<text text-anchor="start" x="654.5" y="-203.9" font-family="Arial" font-size="14.00" fill="#000000">reset_password_token    </text>
<text text-anchor="start" x="829.5224" y="-203.9" font-family="Arial" font-size="14.00" fill="#666666">[varchar]</text>
<polygon fill="none" stroke="#000000" points="647.5,-162.5 647.5,-192.5 1049.5,-192.5 1049.5,-162.5 647.5,-162.5"/>
<text text-anchor="start" x="654.0302" y="-173.9" font-family="Arial" font-size="14.00" fill="#000000">reset_password_sent_at    </text>
<text text-anchor="start" x="840.7258" y="-173.9" font-family="Arial" font-size="14.00" fill="#666666">[timestamp(6) without time zone]</text>
<polygon fill="none" stroke="#000000" points="647.5,-132.5 647.5,-162.5 1049.5,-162.5 1049.5,-132.5 647.5,-132.5"/>
<text text-anchor="start" x="654.5" y="-143.9" font-family="Arial" font-size="14.00" fill="#000000">remember_created_at    </text>
<text text-anchor="start" x="826.3976" y="-143.9" font-family="Arial" font-size="14.00" fill="#666666">[timestamp(6) without time zone]</text>
<polygon fill="none" stroke="#000000" points="647.5,-102.5 647.5,-132.5 1049.5,-132.5 1049.5,-102.5 647.5,-102.5"/>
<text text-anchor="start" x="654.5" y="-113.9" font-family="Arial" font-size="14.00" fill="#000000">created_at    </text>
<text text-anchor="start" x="754.8422" y="-113.9" font-family="Arial" font-size="14.00" fill="#666666">[timestamp(6) without time zone]</text>
<polygon fill="none" stroke="#000000" points="647.5,-72.5 647.5,-102.5 1049.5,-102.5 1049.5,-72.5 647.5,-72.5"/>
<text text-anchor="start" x="654.5" y="-83.9" font-family="Arial" font-size="14.00" fill="#000000">updated_at    </text>
<text text-anchor="start" x="758.7468" y="-83.9" font-family="Arial" font-size="14.00" fill="#666666">[timestamp(6) without time zone]</text>
<polygon fill="none" stroke="#000000" points="647.5,-42.5 647.5,-72.5 1049.5,-72.5 1049.5,-42.5 647.5,-42.5"/>
<text text-anchor="start" x="654.5" y="-53.9" font-family="Arial" font-size="14.00" fill="#000000">avatar    </text>
<text text-anchor="start" x="727.6038" y="-53.9" font-family="Arial" font-size="14.00" fill="#666666">[varchar]</text>
</g>
<!-- public.articles&#45;&gt;public.users -->
<g id="edge5" class="edge">
<title>public.articles:user_id&#45;&gt;public.users:id</title>
<path fill="none" stroke="#000000" d="M1003.5923,-667.0395C1162.0206,-652.4798 1212.4065,-297.5 1049.5,-297.5"/>
<polygon fill="#000000" stroke="#000000" points="1003.4896,-667.0441 993.2949,-663.0047 998.4948,-667.2721 993.5,-667.5 993.5,-667.5 993.5,-667.5 998.4948,-667.2721 993.7051,-671.9953 1003.4896,-667.0441 1003.4896,-667.0441"/>
<text text-anchor="start" x="1000.8345" y="-677.5" font-family="Arial" font-size="10.00" fill="#000000">FOREIGN KEY (user_id) REFERENCES users(id)</text>
</g>
<!-- public.category_articles -->
<g id="node2" class="node">
<title>public.category_articles</title>
<polygon fill="#efefef" stroke="transparent" points="43.5,-1052.5 43.5,-1087.5 372.5,-1087.5 372.5,-1052.5 43.5,-1052.5"/>
<polygon fill="none" stroke="#000000" points="43.5,-1052.5 43.5,-1087.5 372.5,-1087.5 372.5,-1052.5 43.5,-1052.5"/>
<text text-anchor="start" x="50.2011" y="-1065.3" font-family="Arial Bold" font-size="18.00" fill="#000000">public.category_articles</text>
<text text-anchor="start" x="238.2309" y="-1065.3" font-family="Arial" font-size="14.00" fill="#000000">    </text>
<text text-anchor="start" x="272.4357" y="-1065.3" font-family="Arial" font-size="14.00" fill="#666666">[BASE TABLE]</text>
<polygon fill="none" stroke="#000000" points="43.5,-1022.5 43.5,-1052.5 372.5,-1052.5 372.5,-1022.5 43.5,-1022.5"/>
<text text-anchor="start" x="50.5" y="-1033.9" font-family="Arial" font-size="14.00" fill="#000000">id    </text>
<text text-anchor="start" x="95.594" y="-1033.9" font-family="Arial" font-size="14.00" fill="#666666">[bigint]</text>
<polygon fill="none" stroke="#000000" points="43.5,-992.5 43.5,-1022.5 372.5,-1022.5 372.5,-992.5 43.5,-992.5"/>
<text text-anchor="start" x="50.5" y="-1003.9" font-family="Arial" font-size="14.00" fill="#000000">category_id    </text>
<text text-anchor="start" x="157.0582" y="-1003.9" font-family="Arial" font-size="14.00" fill="#666666">[bigint]</text>
<polygon fill="none" stroke="#000000" points="43.5,-962.5 43.5,-992.5 372.5,-992.5 372.5,-962.5 43.5,-962.5"/>
<text text-anchor="start" x="50.5" y="-973.9" font-family="Arial" font-size="14.00" fill="#000000">article_id    </text>
<text text-anchor="start" x="140.7062" y="-973.9" font-family="Arial" font-size="14.00" fill="#666666">[bigint]</text>
<polygon fill="none" stroke="#000000" points="43.5,-932.5 43.5,-962.5 372.5,-962.5 372.5,-932.5 43.5,-932.5"/>
<text text-anchor="start" x="50.5" y="-943.9" font-family="Arial" font-size="14.00" fill="#000000">created_at    </text>
<text text-anchor="start" x="150.8422" y="-943.9" font-family="Arial" font-size="14.00" fill="#666666">[timestamp(6) without time zone]</text>
<polygon fill="none" stroke="#000000" points="43.5,-902.5 43.5,-932.5 372.5,-932.5 372.5,-902.5 43.5,-902.5"/>
<text text-anchor="start" x="50.5" y="-913.9" font-family="Arial" font-size="14.00" fill="#000000">updated_at    </text>
<text text-anchor="start" x="154.7468" y="-913.9" font-family="Arial" font-size="14.00" fill="#666666">[timestamp(6) without time zone]</text>
</g>
<!-- public.category_articles&#45;&gt;public.articles -->
<g id="edge1" class="edge">
<title>public.category_articles:article_id&#45;&gt;public.articles:id</title>
<path fill="none" stroke="#000000" d="M382.5815,-976.5197C424.0122,-967.4861 387.3076,-898.2001 424.5,-860 520.2607,-761.6446 566.2269,-727.5 703.5,-727.5"/>
<polygon fill="#000000" stroke="#000000" points="382.4531,-976.5321 372.0645,-973.0211 377.4765,-977.0161 372.5,-977.5 372.5,-977.5 372.5,-977.5 377.4765,-977.0161 372.9355,-981.9789 382.4531,-976.5321 382.4531,-976.5321"/>
<text text-anchor="start" x="379.6175" y="-987.5" font-family="Arial" font-size="10.00" fill="#000000">FOREIGN KEY (article_id) REFERENCES articles(id)</text>
</g>
<!-- public.bookmarks -->
<g id="node3" class="node">
<title>public.bookmarks</title>
<polygon fill="#efefef" stroke="transparent" points="476.5,-1052.5 476.5,-1087.5 796.5,-1087.5 796.5,-1052.5 476.5,-1052.5"/>
<polygon fill="none" stroke="#000000" points="476.5,-1052.5 476.5,-1087.5 796.5,-1087.5 796.5,-1052.5 476.5,-1052.5"/>
<text text-anchor="start" x="502.7068" y="-1065.3" font-family="Arial Bold" font-size="18.00" fill="#000000">public.bookmarks</text>
<text text-anchor="start" x="642.7252" y="-1065.3" font-family="Arial" font-size="14.00" fill="#000000">    </text>
<text text-anchor="start" x="676.93" y="-1065.3" font-family="Arial" font-size="14.00" fill="#666666">[BASE TABLE]</text>
<polygon fill="none" stroke="#000000" points="476.5,-1022.5 476.5,-1052.5 796.5,-1052.5 796.5,-1022.5 476.5,-1022.5"/>
<text text-anchor="start" x="483.5" y="-1033.9" font-family="Arial" font-size="14.00" fill="#000000">id    </text>
<text text-anchor="start" x="528.594" y="-1033.9" font-family="Arial" font-size="14.00" fill="#666666">[bigint]</text>
<polygon fill="none" stroke="#000000" points="476.5,-992.5 476.5,-1022.5 796.5,-1022.5 796.5,-992.5 476.5,-992.5"/>
<text text-anchor="start" x="483.5" y="-1003.9" font-family="Arial" font-size="14.00" fill="#000000">user_id    </text>
<text text-anchor="start" x="563.6024" y="-1003.9" font-family="Arial" font-size="14.00" fill="#666666">[bigint]</text>
<polygon fill="none" stroke="#000000" points="476.5,-962.5 476.5,-992.5 796.5,-992.5 796.5,-962.5 476.5,-962.5"/>
<text text-anchor="start" x="483.5" y="-973.9" font-family="Arial" font-size="14.00" fill="#000000">article_id    </text>
<text text-anchor="start" x="573.7062" y="-973.9" font-family="Arial" font-size="14.00" fill="#666666">[bigint]</text>
<polygon fill="none" stroke="#000000" points="476.5,-932.5 476.5,-962.5 796.5,-962.5 796.5,-932.5 476.5,-932.5"/>
<text text-anchor="start" x="483.5" y="-943.9" font-family="Arial" font-size="14.00" fill="#000000">created_at    </text>
<text text-anchor="start" x="583.8422" y="-943.9" font-family="Arial" font-size="14.00" fill="#666666">[timestamp(6) without time zone]</text>
<polygon fill="none" stroke="#000000" points="476.5,-902.5 476.5,-932.5 796.5,-932.5 796.5,-902.5 476.5,-902.5"/>
<text text-anchor="start" x="483.2546" y="-913.9" font-family="Arial" font-size="14.00" fill="#000000">updated_at    </text>
<text text-anchor="start" x="587.5014" y="-913.9" font-family="Arial" font-size="14.00" fill="#666666">[timestamp(6) without time zone]</text>
</g>
<!-- public.bookmarks&#45;&gt;public.articles -->
<g id="edge2" class="edge">
<title>public.bookmarks:article_id&#45;&gt;public.articles:id</title>
<path fill="none" stroke="#000000" d="M806.9173,-976.3134C845.3146,-966.6258 823.8276,-899.882 796.5,-860 771.4471,-823.4377 728.5529,-860.5623 703.5,-824 679.2572,-788.62 660.6111,-727.5 703.5,-727.5"/>
<polygon fill="#000000" stroke="#000000" points="806.4358,-976.3682 795.9907,-973.0289 801.4679,-976.9341 796.5,-977.5 796.5,-977.5 796.5,-977.5 801.4679,-976.9341 797.0093,-981.9711 806.4358,-976.3682 806.4358,-976.3682"/>
<text text-anchor="start" x="803.6175" y="-987.5" font-family="Arial" font-size="10.00" fill="#000000">FOREIGN KEY (article_id) REFERENCES articles(id)</text>
</g>
<!-- public.likes -->
<g id="node4" class="node">
<title>public.likes</title>
<polygon fill="#efefef" stroke="transparent" points="900.5,-1052.5 900.5,-1087.5 1220.5,-1087.5 1220.5,-1052.5 900.5,-1052.5"/>
<polygon fill="none" stroke="#000000" points="900.5,-1052.5 900.5,-1087.5 1220.5,-1087.5 1220.5,-1052.5 900.5,-1052.5"/>
<text text-anchor="start" x="952.7141" y="-1065.3" font-family="Arial Bold" font-size="18.00" fill="#000000">public.likes</text>
<text text-anchor="start" x="1040.7179" y="-1065.3" font-family="Arial" font-size="14.00" fill="#000000">    </text>
<text text-anchor="start" x="1074.9227" y="-1065.3" font-family="Arial" font-size="14.00" fill="#666666">[BASE TABLE]</text>
<polygon fill="none" stroke="#000000" points="900.5,-1022.5 900.5,-1052.5 1220.5,-1052.5 1220.5,-1022.5 900.5,-1022.5"/>
<text text-anchor="start" x="907.5" y="-1033.9" font-family="Arial" font-size="14.00" fill="#000000">id    </text>
<text text-anchor="start" x="952.594" y="-1033.9" font-family="Arial" font-size="14.00" fill="#666666">[bigint]</text>
<polygon fill="none" stroke="#000000" points="900.5,-992.5 900.5,-1022.5 1220.5,-1022.5 1220.5,-992.5 900.5,-992.5"/>
<text text-anchor="start" x="907.5" y="-1003.9" font-family="Arial" font-size="14.00" fill="#000000">user_id    </text>
<text text-anchor="start" x="987.6024" y="-1003.9" font-family="Arial" font-size="14.00" fill="#666666">[bigint]</text>
<polygon fill="none" stroke="#000000" points="900.5,-962.5 900.5,-992.5 1220.5,-992.5 1220.5,-962.5 900.5,-962.5"/>
<text text-anchor="start" x="907.5" y="-973.9" font-family="Arial" font-size="14.00" fill="#000000">article_id    </text>
<text text-anchor="start" x="997.7062" y="-973.9" font-family="Arial" font-size="14.00" fill="#666666">[bigint]</text>
<polygon fill="none" stroke="#000000" points="900.5,-932.5 900.5,-962.5 1220.5,-962.5 1220.5,-932.5 900.5,-932.5"/>
<text text-anchor="start" x="907.5" y="-943.9" font-family="Arial" font-size="14.00" fill="#000000">created_at    </text>
<text text-anchor="start" x="1007.8422" y="-943.9" font-family="Arial" font-size="14.00" fill="#666666">[timestamp(6) without time zone]</text>
<polygon fill="none" stroke="#000000" points="900.5,-902.5 900.5,-932.5 1220.5,-932.5 1220.5,-902.5 900.5,-902.5"/>
<text text-anchor="start" x="907.2546" y="-913.9" font-family="Arial" font-size="14.00" fill="#000000">updated_at    </text>
<text text-anchor="start" x="1011.5014" y="-913.9" font-family="Arial" font-size="14.00" fill="#666666">[timestamp(6) without time zone]</text>
</g>
<!-- public.likes&#45;&gt;public.articles -->
<g id="edge3" class="edge">
<title>public.likes:article_id&#45;&gt;public.articles:id</title>
<path fill="none" stroke="#000000" d="M890.0827,-976.3134C851.6854,-966.6258 873.1724,-899.882 900.5,-860 925.5529,-823.4377 968.4471,-860.5623 993.5,-824 1017.7428,-788.62 1036.3889,-727.5 993.5,-727.5"/>
<polygon fill="#000000" stroke="#000000" points="890.5642,-976.3682 899.9907,-981.9711 895.5321,-976.9341 900.5,-977.5 900.5,-977.5 900.5,-977.5 895.5321,-976.9341 901.0093,-973.0289 890.5642,-976.3682 890.5642,-976.3682"/>
<text text-anchor="start" x="907.6175" y="-961.5" font-family="Arial" font-size="10.00" fill="#000000">FOREIGN KEY (article_id) REFERENCES articles(id)</text>
</g>
<!-- public.person_articles -->
<g id="node5" class="node">
<title>public.person_articles</title>
<polygon fill="#efefef" stroke="transparent" points="1324.5,-1052.5 1324.5,-1087.5 1644.5,-1087.5 1644.5,-1052.5 1324.5,-1052.5"/>
<polygon fill="none" stroke="#000000" points="1324.5,-1052.5 1324.5,-1087.5 1644.5,-1087.5 1644.5,-1052.5 1324.5,-1052.5"/>
<text text-anchor="start" x="1333.7022" y="-1065.3" font-family="Arial Bold" font-size="18.00" fill="#000000">public.person_articles</text>
<text text-anchor="start" x="1507.7298" y="-1065.3" font-family="Arial" font-size="14.00" fill="#000000">    </text>
<text text-anchor="start" x="1541.9346" y="-1065.3" font-family="Arial" font-size="14.00" fill="#666666">[BASE TABLE]</text>
<polygon fill="none" stroke="#000000" points="1324.5,-1022.5 1324.5,-1052.5 1644.5,-1052.5 1644.5,-1022.5 1324.5,-1022.5"/>
<text text-anchor="start" x="1331.5" y="-1033.9" font-family="Arial" font-size="14.00" fill="#000000">id    </text>
<text text-anchor="start" x="1376.594" y="-1033.9" font-family="Arial" font-size="14.00" fill="#666666">[bigint]</text>
<polygon fill="none" stroke="#000000" points="1324.5,-992.5 1324.5,-1022.5 1644.5,-1022.5 1644.5,-992.5 1324.5,-992.5"/>
<text text-anchor="start" x="1331.5" y="-1003.9" font-family="Arial" font-size="14.00" fill="#000000">person_id    </text>
<text text-anchor="start" x="1427.1676" y="-1003.9" font-family="Arial" font-size="14.00" fill="#666666">[bigint]</text>
<polygon fill="none" stroke="#000000" points="1324.5,-962.5 1324.5,-992.5 1644.5,-992.5 1644.5,-962.5 1324.5,-962.5"/>
<text text-anchor="start" x="1331.5" y="-973.9" font-family="Arial" font-size="14.00" fill="#000000">article_id    </text>
<text text-anchor="start" x="1421.7062" y="-973.9" font-family="Arial" font-size="14.00" fill="#666666">[bigint]</text>
<polygon fill="none" stroke="#000000" points="1324.5,-932.5 1324.5,-962.5 1644.5,-962.5 1644.5,-932.5 1324.5,-932.5"/>
<text text-anchor="start" x="1331.5" y="-943.9" font-family="Arial" font-size="14.00" fill="#000000">created_at    </text>
<text text-anchor="start" x="1431.8422" y="-943.9" font-family="Arial" font-size="14.00" fill="#666666">[timestamp(6) without time zone]</text>
<polygon fill="none" stroke="#000000" points="1324.5,-902.5 1324.5,-932.5 1644.5,-932.5 1644.5,-902.5 1324.5,-902.5"/>
<text text-anchor="start" x="1331.2546" y="-913.9" font-family="Arial" font-size="14.00" fill="#000000">updated_at    </text>
<text text-anchor="start" x="1435.5014" y="-913.9" font-family="Arial" font-size="14.00" fill="#666666">[timestamp(6) without time zone]</text>
</g>
<!-- public.person_articles&#45;&gt;public.articles -->
<g id="edge4" class="edge">
<title>public.person_articles:article_id&#45;&gt;public.articles:id</title>
<path fill="none" stroke="#000000" d="M1314.4185,-976.5197C1272.9878,-967.4861 1309.6924,-898.2001 1272.5,-860 1176.7393,-761.6446 1130.7731,-727.5 993.5,-727.5"/>
<polygon fill="#000000" stroke="#000000" points="1314.5469,-976.5321 1324.0645,-981.9789 1319.5235,-977.0161 1324.5,-977.5 1324.5,-977.5 1324.5,-977.5 1319.5235,-977.0161 1324.9355,-973.0211 1314.5469,-976.5321 1314.5469,-976.5321"/>
<text text-anchor="start" x="1331.3365" y="-987.5" font-family="Arial" font-size="10.00" fill="#000000">FOREIGN KEY (article_id) REFERENCES articles(id) ON DELETE CASCADE</text>
</g>
</g>
</svg>
