<?xml version="1.0" encoding="UTF-8" standalone="no"?>
<!DOCTYPE svg PUBLIC "-//W3C//DTD SVG 1.1//EN"
 "http://www.w3.org/Graphics/SVG/1.1/DTD/svg11.dtd">
<!-- Generated by graphviz version 2.40.1 (20161225.0304)
 -->
<!-- Title: public.companies Pages: 1 -->
<svg width="653pt" height="1402pt"
 viewBox="0.00 0.00 653.00 1402.00" xmlns="http://www.w3.org/2000/svg" xmlns:xlink="http://www.w3.org/1999/xlink">
<g id="graph0" class="graph" transform="scale(1 1) rotate(0) translate(4 1398)">
<title>public.companies</title>
<polygon fill="#ffffff" stroke="transparent" points="-4,4 -4,-1398 649,-1398 649,4 -4,4"/>
<!-- public.companies -->
<g id="node1" class="node">
<title>public.companies</title>
<polygon fill="#efefef" stroke="transparent" points="58,-285.5 58,-320.5 348,-320.5 348,-285.5 58,-285.5"/>
<polygon fill="none" stroke="#000000" points="58,-285.5 58,-320.5 348,-320.5 348,-285.5 58,-285.5"/>
<text text-anchor="start" x="69.7027" y="-298.3" font-family="Arial Bold" font-size="18.00" fill="#000000">public.companies</text>
<text text-anchor="start" x="208.7293" y="-298.3" font-family="Arial" font-size="14.00" fill="#000000">    </text>
<text text-anchor="start" x="242.9341" y="-298.3" font-family="Arial" font-size="14.00" fill="#666666">[BASE TABLE]</text>
<polygon fill="none" stroke="#000000" points="58,-255.5 58,-285.5 348,-285.5 348,-255.5 58,-255.5"/>
<text text-anchor="start" x="65" y="-266.9" font-family="Arial" font-size="14.00" fill="#000000">id </text>
<text text-anchor="start" x="79.7798" y="-266.9" font-family="Arial" font-size="14.00" fill="#666666">[bigint]</text>
<polygon fill="none" stroke="#000000" points="58,-225.5 58,-255.5 348,-255.5 348,-225.5 58,-225.5"/>
<text text-anchor="start" x="65" y="-236.9" font-family="Arial" font-size="14.00" fill="#000000">name </text>
<text text-anchor="start" x="103.899" y="-236.9" font-family="Arial" font-size="14.00" fill="#666666">[varchar]</text>
<polygon fill="none" stroke="#000000" points="58,-195.5 58,-225.5 348,-225.5 348,-195.5 58,-195.5"/>
<text text-anchor="start" x="65" y="-206.9" font-family="Arial" font-size="14.00" fill="#000000">area </text>
<text text-anchor="start" x="96.899" y="-206.9" font-family="Arial" font-size="14.00" fill="#666666">[integer]</text>
<polygon fill="none" stroke="#000000" points="58,-165.5 58,-195.5 348,-195.5 348,-165.5 58,-165.5"/>
<text text-anchor="start" x="65" y="-176.9" font-family="Arial" font-size="14.00" fill="#000000">location </text>
<text text-anchor="start" x="117.1248" y="-176.9" font-family="Arial" font-size="14.00" fill="#666666">[varchar]</text>
<polygon fill="none" stroke="#000000" points="58,-135.5 58,-165.5 348,-165.5 348,-135.5 58,-135.5"/>
<text text-anchor="start" x="65" y="-146.9" font-family="Arial" font-size="14.00" fill="#000000">website_url </text>
<text text-anchor="start" x="139.6746" y="-146.9" font-family="Arial" font-size="14.00" fill="#666666">[varchar]</text>
<polygon fill="none" stroke="#000000" points="58,-105.5 58,-135.5 348,-135.5 348,-105.5 58,-105.5"/>
<text text-anchor="start" x="65" y="-116.9" font-family="Arial" font-size="14.00" fill="#000000">string </text>
<text text-anchor="start" x="103.1136" y="-116.9" font-family="Arial" font-size="14.00" fill="#666666">[varchar]</text>
<polygon fill="none" stroke="#000000" points="58,-75.5 58,-105.5 348,-105.5 348,-75.5 58,-75.5"/>
<text text-anchor="start" x="65" y="-86.9" font-family="Arial" font-size="14.00" fill="#000000">created_at </text>
<text text-anchor="start" x="135.028" y="-86.9" font-family="Arial" font-size="14.00" fill="#666666">[timestamp(6) without time zone]</text>
<polygon fill="none" stroke="#000000" points="58,-45.5 58,-75.5 348,-75.5 348,-45.5 58,-45.5"/>
<text text-anchor="start" x="64.9117" y="-56.9" font-family="Arial" font-size="14.00" fill="#000000">updated_at </text>
<text text-anchor="start" x="138.8443" y="-56.9" font-family="Arial" font-size="14.00" fill="#666666">[timestamp(6) without time zone]</text>
<polygon fill="none" stroke="#000000" stroke-width="3" points="56.5,-44.5 56.5,-322.5 349.5,-322.5 349.5,-44.5 56.5,-44.5"/>
</g>
<!-- public.articles -->
<g id="node2" class="node">
<title>public.articles</title>
<polygon fill="#efefef" stroke="transparent" points="43,-1315.5 43,-1350.5 363,-1350.5 363,-1315.5 43,-1315.5"/>
<polygon fill="none" stroke="#000000" points="43,-1315.5 43,-1350.5 363,-1350.5 363,-1315.5 43,-1315.5"/>
<text text-anchor="start" x="84.7138" y="-1328.3" font-family="Arial Bold" font-size="18.00" fill="#000000">public.articles</text>
<text text-anchor="start" x="193.7182" y="-1328.3" font-family="Arial" font-size="14.00" fill="#000000">    </text>
<text text-anchor="start" x="227.923" y="-1328.3" font-family="Arial" font-size="14.00" fill="#666666">[BASE TABLE]</text>
<polygon fill="none" stroke="#000000" points="43,-1285.5 43,-1315.5 363,-1315.5 363,-1285.5 43,-1285.5"/>
<text text-anchor="start" x="50" y="-1296.9" font-family="Arial" font-size="14.00" fill="#000000">id    </text>
<text text-anchor="start" x="95.094" y="-1296.9" font-family="Arial" font-size="14.00" fill="#666666">[bigint]</text>
<polygon fill="none" stroke="#000000" points="43,-1255.5 43,-1285.5 363,-1285.5 363,-1255.5 43,-1255.5"/>
<text text-anchor="start" x="50" y="-1266.9" font-family="Arial" font-size="14.00" fill="#000000">body    </text>
<text text-anchor="start" x="114.5526" y="-1266.9" font-family="Arial" font-size="14.00" fill="#666666">[text]</text>
<polygon fill="none" stroke="#000000" points="43,-1225.5 43,-1255.5 363,-1255.5 363,-1225.5 43,-1225.5"/>
<text text-anchor="start" x="50" y="-1236.9" font-family="Arial" font-size="14.00" fill="#000000">user_id    </text>
<text text-anchor="start" x="130.1024" y="-1236.9" font-family="Arial" font-size="14.00" fill="#666666">[bigint]</text>
<polygon fill="none" stroke="#000000" points="43,-1195.5 43,-1225.5 363,-1225.5 363,-1195.5 43,-1195.5"/>
<text text-anchor="start" x="50" y="-1206.9" font-family="Arial" font-size="14.00" fill="#000000">created_at    </text>
<text text-anchor="start" x="150.3422" y="-1206.9" font-family="Arial" font-size="14.00" fill="#666666">[timestamp(6) without time zone]</text>
<polygon fill="none" stroke="#000000" points="43,-1165.5 43,-1195.5 363,-1195.5 363,-1165.5 43,-1165.5"/>
<text text-anchor="start" x="49.7546" y="-1176.9" font-family="Arial" font-size="14.00" fill="#000000">updated_at    </text>
<text text-anchor="start" x="154.0014" y="-1176.9" font-family="Arial" font-size="14.00" fill="#666666">[timestamp(6) without time zone]</text>
<polygon fill="none" stroke="#000000" points="43,-1135.5 43,-1165.5 363,-1165.5 363,-1135.5 43,-1135.5"/>
<text text-anchor="start" x="50" y="-1146.9" font-family="Arial" font-size="14.00" fill="#000000">impressions_count    </text>
<text text-anchor="start" x="200.8906" y="-1146.9" font-family="Arial" font-size="14.00" fill="#666666">[integer]</text>
<polygon fill="none" stroke="#000000" points="43,-1105.5 43,-1135.5 363,-1135.5 363,-1105.5 43,-1105.5"/>
<text text-anchor="start" x="50" y="-1116.9" font-family="Arial" font-size="14.00" fill="#000000">file    </text>
<text text-anchor="start" x="102.0912" y="-1116.9" font-family="Arial" font-size="14.00" fill="#666666">[varchar]</text>
<polygon fill="none" stroke="#000000" points="43,-1075.5 43,-1105.5 363,-1105.5 363,-1075.5 43,-1075.5"/>
<text text-anchor="start" x="50" y="-1086.9" font-family="Arial" font-size="14.00" fill="#000000">start_time    </text>
<text text-anchor="start" x="145.6522" y="-1086.9" font-family="Arial" font-size="14.00" fill="#666666">[timestamp(6) without time zone]</text>
<polygon fill="none" stroke="#000000" points="43,-1045.5 43,-1075.5 363,-1075.5 363,-1045.5 43,-1045.5"/>
<text text-anchor="start" x="50" y="-1056.9" font-family="Arial" font-size="14.00" fill="#000000">end_time    </text>
<text text-anchor="start" x="141.7756" y="-1056.9" font-family="Arial" font-size="14.00" fill="#666666">[timestamp(6) without time zone]</text>
<polygon fill="none" stroke="#000000" points="43,-1015.5 43,-1045.5 363,-1045.5 363,-1015.5 43,-1015.5"/>
<text text-anchor="start" x="50" y="-1026.9" font-family="Arial" font-size="14.00" fill="#000000">company_id    </text>
<text text-anchor="start" x="159.6676" y="-1026.9" font-family="Arial" font-size="14.00" fill="#666666">[bigint]</text>
<polygon fill="none" stroke="#000000" points="43,-985.5 43,-1015.5 363,-1015.5 363,-985.5 43,-985.5"/>
<text text-anchor="start" x="50" y="-996.9" font-family="Arial" font-size="14.00" fill="#000000">title    </text>
<text text-anchor="start" x="105.9818" y="-996.9" font-family="Arial" font-size="14.00" fill="#666666">[varchar]</text>
<polygon fill="none" stroke="#000000" points="43,-955.5 43,-985.5 363,-985.5 363,-955.5 43,-955.5"/>
<text text-anchor="start" x="50" y="-966.9" font-family="Arial" font-size="14.00" fill="#000000">application_deadline    </text>
<text text-anchor="start" x="211.8022" y="-966.9" font-family="Arial" font-size="14.00" fill="#666666">[date]</text>
<polygon fill="none" stroke="#000000" points="43,-925.5 43,-955.5 363,-955.5 363,-925.5 43,-925.5"/>
<text text-anchor="start" x="50" y="-936.9" font-family="Arial" font-size="14.00" fill="#000000">salary_details    </text>
<text text-anchor="start" x="169.7714" y="-936.9" font-family="Arial" font-size="14.00" fill="#666666">[text]</text>
<polygon fill="none" stroke="#000000" points="43,-895.5 43,-925.5 363,-925.5 363,-895.5 43,-895.5"/>
<text text-anchor="start" x="50" y="-906.9" font-family="Arial" font-size="14.00" fill="#000000">work_location    </text>
<text text-anchor="start" x="169.7714" y="-906.9" font-family="Arial" font-size="14.00" fill="#666666">[varchar]</text>
<polygon fill="none" stroke="#000000" points="43,-865.5 43,-895.5 363,-895.5 363,-865.5 43,-865.5"/>
<text text-anchor="start" x="50" y="-876.9" font-family="Arial" font-size="14.00" fill="#000000">language_requirement    </text>
<text text-anchor="start" x="224.2468" y="-876.9" font-family="Arial" font-size="14.00" fill="#666666">[varchar]</text>
<polygon fill="none" stroke="#000000" points="43,-835.5 43,-865.5 363,-865.5 363,-835.5 43,-835.5"/>
<text text-anchor="start" x="50" y="-846.9" font-family="Arial" font-size="14.00" fill="#000000">japanese_level    </text>
<text text-anchor="start" x="177.568" y="-846.9" font-family="Arial" font-size="14.00" fill="#666666">[varchar]</text>
<polygon fill="none" stroke="#000000" points="43,-805.5 43,-835.5 363,-835.5 363,-805.5 43,-805.5"/>
<text text-anchor="start" x="50" y="-816.9" font-family="Arial" font-size="14.00" fill="#000000">skills_required    </text>
<text text-anchor="start" x="173.648" y="-816.9" font-family="Arial" font-size="14.00" fill="#666666">[text]</text>
<polygon fill="none" stroke="#000000" points="43,-775.5 43,-805.5 363,-805.5 363,-775.5 43,-775.5"/>
<text text-anchor="start" x="50" y="-786.9" font-family="Arial" font-size="14.00" fill="#000000">employment_type    </text>
<text text-anchor="start" x="194.6746" y="-786.9" font-family="Arial" font-size="14.00" fill="#666666">[varchar]</text>
<polygon fill="none" stroke="#000000" points="43,-745.5 43,-775.5 363,-775.5 363,-745.5 43,-745.5"/>
<text text-anchor="start" x="50" y="-756.9" font-family="Arial" font-size="14.00" fill="#000000">description    </text>
<text text-anchor="start" x="151.8822" y="-756.9" font-family="Arial" font-size="14.00" fill="#666666">[text]</text>
<polygon fill="none" stroke="#000000" points="43,-715.5 43,-745.5 363,-745.5 363,-715.5 43,-715.5"/>
<text text-anchor="start" x="50" y="-726.9" font-family="Arial" font-size="14.00" fill="#000000">work_hours    </text>
<text text-anchor="start" x="156.5456" y="-726.9" font-family="Arial" font-size="14.00" fill="#666666">[varchar]</text>
<polygon fill="none" stroke="#000000" points="43,-685.5 43,-715.5 363,-715.5 363,-685.5 43,-685.5"/>
<text text-anchor="start" x="50" y="-696.9" font-family="Arial" font-size="14.00" fill="#000000">trial_period    </text>
<text text-anchor="start" x="153.432" y="-696.9" font-family="Arial" font-size="14.00" fill="#666666">[varchar]</text>
<polygon fill="none" stroke="#000000" points="43,-655.5 43,-685.5 363,-685.5 363,-655.5 43,-655.5"/>
<text text-anchor="start" x="50" y="-666.9" font-family="Arial" font-size="14.00" fill="#000000">days_off    </text>
<text text-anchor="start" x="137.1164" y="-666.9" font-family="Arial" font-size="14.00" fill="#666666">[varchar]</text>
<polygon fill="none" stroke="#000000" points="43,-625.5 43,-655.5 363,-655.5 363,-625.5 43,-625.5"/>
<text text-anchor="start" x="50" y="-636.9" font-family="Arial" font-size="14.00" fill="#000000">overtime    </text>
<text text-anchor="start" x="137.871" y="-636.9" font-family="Arial" font-size="14.00" fill="#666666">[varchar]</text>
<polygon fill="none" stroke="#000000" points="43,-595.5 43,-625.5 363,-625.5 363,-595.5 43,-595.5"/>
<text text-anchor="start" x="50" y="-606.9" font-family="Arial" font-size="14.00" fill="#000000">transportation    </text>
<text text-anchor="start" x="169.7826" y="-606.9" font-family="Arial" font-size="14.00" fill="#666666">[varchar]</text>
<polygon fill="none" stroke="#000000" points="43,-565.5 43,-595.5 363,-595.5 363,-565.5 43,-565.5"/>
<text text-anchor="start" x="50" y="-576.9" font-family="Arial" font-size="14.00" fill="#000000">work_environment    </text>
<text text-anchor="start" x="198.5512" y="-576.9" font-family="Arial" font-size="14.00" fill="#666666">[varchar]</text>
<polygon fill="none" stroke="#000000" points="43,-535.5 43,-565.5 363,-565.5 363,-535.5 43,-535.5"/>
<text text-anchor="start" x="50" y="-546.9" font-family="Arial" font-size="14.00" fill="#000000">other_allowances    </text>
<text text-anchor="start" x="193.1192" y="-546.9" font-family="Arial" font-size="14.00" fill="#666666">[varchar]</text>
<polygon fill="none" stroke="#000000" points="43,-505.5 43,-535.5 363,-535.5 363,-505.5 43,-505.5"/>
<text text-anchor="start" x="50" y="-516.9" font-family="Arial" font-size="14.00" fill="#000000">insurance    </text>
<text text-anchor="start" x="144.885" y="-516.9" font-family="Arial" font-size="14.00" fill="#666666">[varchar]</text>
<polygon fill="none" stroke="#000000" points="43,-475.5 43,-505.5 363,-505.5 363,-475.5 43,-475.5"/>
<text text-anchor="start" x="50" y="-486.9" font-family="Arial" font-size="14.00" fill="#000000">other_benefits    </text>
<text text-anchor="start" x="172.9046" y="-486.9" font-family="Arial" font-size="14.00" fill="#666666">[varchar]</text>
<polygon fill="none" stroke="#000000" points="43,-445.5 43,-475.5 363,-475.5 363,-445.5 43,-445.5"/>
<text text-anchor="start" x="50" y="-456.9" font-family="Arial" font-size="14.00" fill="#000000">status    </text>
<text text-anchor="start" x="121.5512" y="-456.9" font-family="Arial" font-size="14.00" fill="#666666">[integer]</text>
</g>
<!-- public.articles&#45;&gt;public.companies -->
<g id="edge1" class="edge">
<title>public.articles:company_id&#45;&gt;public.companies:id</title>
<path fill="none" stroke="#000000" d="M372.4443,-1027.1116C446.183,-972.2847 429.1616,-270.5 348,-270.5"/>
<polygon fill="#000000" stroke="#000000" points="372.4125,-1027.1229 361.4803,-1026.2644 367.7063,-1028.8115 363,-1030.5 363,-1030.5 363,-1030.5 367.7063,-1028.8115 364.5197,-1034.7356 372.4125,-1027.1229 372.4125,-1027.1229"/>
<text text-anchor="start" x="369.8275" y="-1040.5" font-family="Arial" font-size="10.00" fill="#000000">FOREIGN KEY (company_id) REFERENCES companies(id)</text>
</g>
</g>
</svg>
