<?xml version="1.0" encoding="UTF-8" standalone="no"?>
<!DOCTYPE svg PUBLIC "-//W3C//DTD SVG 1.1//EN"
 "http://www.w3.org/Graphics/SVG/1.1/DTD/svg11.dtd">
<!-- Generated by graphviz version 2.40.1 (20161225.0304)
 -->
<!-- Title: public.articles Pages: 1 -->
<svg width="1272pt" height="1709pt"
 viewBox="0.00 0.00 1272.00 1709.00" xmlns="http://www.w3.org/2000/svg" xmlns:xlink="http://www.w3.org/1999/xlink">
<g id="graph0" class="graph" transform="scale(1 1) rotate(0) translate(4 1705)">
<title>public.articles</title>
<polygon fill="#ffffff" stroke="transparent" points="-4,4 -4,-1705 1268,-1705 1268,4 -4,4"/>
<!-- public.articles -->
<g id="node1" class="node">
<title>public.articles</title>
<polygon fill="#efefef" stroke="transparent" points="488,-1312.5 488,-1347.5 778,-1347.5 778,-1312.5 488,-1312.5"/>
<polygon fill="none" stroke="#000000" points="488,-1312.5 488,-1347.5 778,-1347.5 778,-1312.5 488,-1312.5"/>
<text text-anchor="start" x="514.7138" y="-1325.3" font-family="Arial Bold" font-size="18.00" fill="#000000">public.articles</text>
<text text-anchor="start" x="623.7182" y="-1325.3" font-family="Arial" font-size="14.00" fill="#000000">    </text>
<text text-anchor="start" x="657.923" y="-1325.3" font-family="Arial" font-size="14.00" fill="#666666">[BASE TABLE]</text>
<polygon fill="none" stroke="#000000" points="488,-1282.5 488,-1312.5 778,-1312.5 778,-1282.5 488,-1282.5"/>
<text text-anchor="start" x="495" y="-1293.9" font-family="Arial" font-size="14.00" fill="#000000">id </text>
<text text-anchor="start" x="509.7798" y="-1293.9" font-family="Arial" font-size="14.00" fill="#666666">[bigint]</text>
<polygon fill="none" stroke="#000000" points="488,-1252.5 488,-1282.5 778,-1282.5 778,-1252.5 488,-1252.5"/>
<text text-anchor="start" x="495" y="-1263.9" font-family="Arial" font-size="14.00" fill="#000000">body </text>
<text text-anchor="start" x="529.2384" y="-1263.9" font-family="Arial" font-size="14.00" fill="#666666">[text]</text>
<polygon fill="none" stroke="#000000" points="488,-1222.5 488,-1252.5 778,-1252.5 778,-1222.5 488,-1222.5"/>
<text text-anchor="start" x="495" y="-1233.9" font-family="Arial" font-size="14.00" fill="#000000">user_id </text>
<text text-anchor="start" x="544.7882" y="-1233.9" font-family="Arial" font-size="14.00" fill="#666666">[bigint]</text>
<polygon fill="none" stroke="#000000" points="488,-1192.5 488,-1222.5 778,-1222.5 778,-1192.5 488,-1192.5"/>
<text text-anchor="start" x="495" y="-1203.9" font-family="Arial" font-size="14.00" fill="#000000">created_at </text>
<text text-anchor="start" x="565.028" y="-1203.9" font-family="Arial" font-size="14.00" fill="#666666">[timestamp(6) without time zone]</text>
<polygon fill="none" stroke="#000000" points="488,-1162.5 488,-1192.5 778,-1192.5 778,-1162.5 488,-1162.5"/>
<text text-anchor="start" x="494.9117" y="-1173.9" font-family="Arial" font-size="14.00" fill="#000000">updated_at </text>
<text text-anchor="start" x="568.8443" y="-1173.9" font-family="Arial" font-size="14.00" fill="#666666">[timestamp(6) without time zone]</text>
<polygon fill="none" stroke="#000000" points="488,-1132.5 488,-1162.5 778,-1162.5 778,-1132.5 488,-1132.5"/>
<text text-anchor="start" x="495" y="-1143.9" font-family="Arial" font-size="14.00" fill="#000000">impressions_count </text>
<text text-anchor="start" x="615.5764" y="-1143.9" font-family="Arial" font-size="14.00" fill="#666666">[integer]</text>
<polygon fill="none" stroke="#000000" points="488,-1102.5 488,-1132.5 778,-1132.5 778,-1102.5 488,-1102.5"/>
<text text-anchor="start" x="495" y="-1113.9" font-family="Arial" font-size="14.00" fill="#000000">start_time </text>
<text text-anchor="start" x="560.338" y="-1113.9" font-family="Arial" font-size="14.00" fill="#666666">[timestamp(6) without time zone]</text>
<polygon fill="none" stroke="#000000" points="488,-1072.5 488,-1102.5 778,-1102.5 778,-1072.5 488,-1072.5"/>
<text text-anchor="start" x="495" y="-1083.9" font-family="Arial" font-size="14.00" fill="#000000">end_time </text>
<text text-anchor="start" x="556.4614" y="-1083.9" font-family="Arial" font-size="14.00" fill="#666666">[timestamp(6) without time zone]</text>
<polygon fill="none" stroke="#000000" points="488,-1042.5 488,-1072.5 778,-1072.5 778,-1042.5 488,-1042.5"/>
<text text-anchor="start" x="495" y="-1053.9" font-family="Arial" font-size="14.00" fill="#000000">title </text>
<text text-anchor="start" x="520.6676" y="-1053.9" font-family="Arial" font-size="14.00" fill="#666666">[varchar]</text>
<polygon fill="none" stroke="#000000" points="488,-1012.5 488,-1042.5 778,-1042.5 778,-1012.5 488,-1012.5"/>
<text text-anchor="start" x="495" y="-1023.9" font-family="Arial" font-size="14.00" fill="#000000">application_deadline </text>
<text text-anchor="start" x="626.488" y="-1023.9" font-family="Arial" font-size="14.00" fill="#666666">[date]</text>
<polygon fill="none" stroke="#000000" points="488,-982.5 488,-1012.5 778,-1012.5 778,-982.5 488,-982.5"/>
<text text-anchor="start" x="495" y="-993.9" font-family="Arial" font-size="14.00" fill="#000000">salary_details </text>
<text text-anchor="start" x="584.4572" y="-993.9" font-family="Arial" font-size="14.00" fill="#666666">[text]</text>
<polygon fill="none" stroke="#000000" points="488,-952.5 488,-982.5 778,-982.5 778,-952.5 488,-952.5"/>
<text text-anchor="start" x="495" y="-963.9" font-family="Arial" font-size="14.00" fill="#000000">work_location </text>
<text text-anchor="start" x="584.4572" y="-963.9" font-family="Arial" font-size="14.00" fill="#666666">[varchar]</text>
<polygon fill="none" stroke="#000000" points="488,-922.5 488,-952.5 778,-952.5 778,-922.5 488,-922.5"/>
<text text-anchor="start" x="495" y="-933.9" font-family="Arial" font-size="14.00" fill="#000000">language_requirement </text>
<text text-anchor="start" x="638.9326" y="-933.9" font-family="Arial" font-size="14.00" fill="#666666">[varchar]</text>
<polygon fill="none" stroke="#000000" points="488,-892.5 488,-922.5 778,-922.5 778,-892.5 488,-892.5"/>
<text text-anchor="start" x="495" y="-903.9" font-family="Arial" font-size="14.00" fill="#000000">japanese_level </text>
<text text-anchor="start" x="592.2538" y="-903.9" font-family="Arial" font-size="14.00" fill="#666666">[varchar]</text>
<polygon fill="none" stroke="#000000" points="488,-862.5 488,-892.5 778,-892.5 778,-862.5 488,-862.5"/>
<text text-anchor="start" x="495" y="-873.9" font-family="Arial" font-size="14.00" fill="#000000">skills_required </text>
<text text-anchor="start" x="588.3338" y="-873.9" font-family="Arial" font-size="14.00" fill="#666666">[text]</text>
<polygon fill="none" stroke="#000000" points="488,-832.5 488,-862.5 778,-862.5 778,-832.5 488,-832.5"/>
<text text-anchor="start" x="495" y="-843.9" font-family="Arial" font-size="14.00" fill="#000000">employment_type </text>
<text text-anchor="start" x="609.3604" y="-843.9" font-family="Arial" font-size="14.00" fill="#666666">[varchar]</text>
<polygon fill="none" stroke="#000000" points="488,-802.5 488,-832.5 778,-832.5 778,-802.5 488,-802.5"/>
<text text-anchor="start" x="495" y="-813.9" font-family="Arial" font-size="14.00" fill="#000000">description </text>
<text text-anchor="start" x="566.568" y="-813.9" font-family="Arial" font-size="14.00" fill="#666666">[text]</text>
<polygon fill="none" stroke="#000000" points="488,-772.5 488,-802.5 778,-802.5 778,-772.5 488,-772.5"/>
<text text-anchor="start" x="495" y="-783.9" font-family="Arial" font-size="14.00" fill="#000000">work_hours </text>
<text text-anchor="start" x="571.2314" y="-783.9" font-family="Arial" font-size="14.00" fill="#666666">[varchar]</text>
<polygon fill="none" stroke="#000000" points="488,-742.5 488,-772.5 778,-772.5 778,-742.5 488,-742.5"/>
<text text-anchor="start" x="495" y="-753.9" font-family="Arial" font-size="14.00" fill="#000000">trial_period </text>
<text text-anchor="start" x="568.1178" y="-753.9" font-family="Arial" font-size="14.00" fill="#666666">[varchar]</text>
<polygon fill="none" stroke="#000000" points="488,-712.5 488,-742.5 778,-742.5 778,-712.5 488,-712.5"/>
<text text-anchor="start" x="495" y="-723.9" font-family="Arial" font-size="14.00" fill="#000000">days_off </text>
<text text-anchor="start" x="551.8022" y="-723.9" font-family="Arial" font-size="14.00" fill="#666666">[varchar]</text>
<polygon fill="none" stroke="#000000" points="488,-682.5 488,-712.5 778,-712.5 778,-682.5 488,-682.5"/>
<text text-anchor="start" x="495" y="-693.9" font-family="Arial" font-size="14.00" fill="#000000">overtime </text>
<text text-anchor="start" x="552.5568" y="-693.9" font-family="Arial" font-size="14.00" fill="#666666">[varchar]</text>
<polygon fill="none" stroke="#000000" points="488,-652.5 488,-682.5 778,-682.5 778,-652.5 488,-652.5"/>
<text text-anchor="start" x="495" y="-663.9" font-family="Arial" font-size="14.00" fill="#000000">transportation </text>
<text text-anchor="start" x="584.4684" y="-663.9" font-family="Arial" font-size="14.00" fill="#666666">[varchar]</text>
<polygon fill="none" stroke="#000000" points="488,-622.5 488,-652.5 778,-652.5 778,-622.5 488,-622.5"/>
<text text-anchor="start" x="495" y="-633.9" font-family="Arial" font-size="14.00" fill="#000000">work_environment </text>
<text text-anchor="start" x="613.237" y="-633.9" font-family="Arial" font-size="14.00" fill="#666666">[varchar]</text>
<polygon fill="none" stroke="#000000" points="488,-592.5 488,-622.5 778,-622.5 778,-592.5 488,-592.5"/>
<text text-anchor="start" x="495" y="-603.9" font-family="Arial" font-size="14.00" fill="#000000">other_allowances </text>
<text text-anchor="start" x="607.805" y="-603.9" font-family="Arial" font-size="14.00" fill="#666666">[varchar]</text>
<polygon fill="none" stroke="#000000" points="488,-562.5 488,-592.5 778,-592.5 778,-562.5 488,-562.5"/>
<text text-anchor="start" x="495" y="-573.9" font-family="Arial" font-size="14.00" fill="#000000">insurance </text>
<text text-anchor="start" x="559.5708" y="-573.9" font-family="Arial" font-size="14.00" fill="#666666">[varchar]</text>
<polygon fill="none" stroke="#000000" points="488,-532.5 488,-562.5 778,-562.5 778,-532.5 488,-532.5"/>
<text text-anchor="start" x="495" y="-543.9" font-family="Arial" font-size="14.00" fill="#000000">other_benefits </text>
<text text-anchor="start" x="587.5904" y="-543.9" font-family="Arial" font-size="14.00" fill="#666666">[varchar]</text>
<polygon fill="none" stroke="#000000" points="488,-502.5 488,-532.5 778,-532.5 778,-502.5 488,-502.5"/>
<text text-anchor="start" x="495" y="-513.9" font-family="Arial" font-size="14.00" fill="#000000">status </text>
<text text-anchor="start" x="536.237" y="-513.9" font-family="Arial" font-size="14.00" fill="#666666">[integer]</text>
<polygon fill="none" stroke="#000000" stroke-width="3" points="486.5,-501.5 486.5,-1349.5 779.5,-1349.5 779.5,-501.5 486.5,-501.5"/>
</g>
<!-- public.users -->
<g id="node5" class="node">
<title>public.users</title>
<polygon fill="#efefef" stroke="transparent" points="473,-342.5 473,-377.5 793,-377.5 793,-342.5 473,-342.5"/>
<polygon fill="none" stroke="#000000" points="473,-342.5 473,-377.5 793,-377.5 793,-342.5 473,-342.5"/>
<text text-anchor="start" x="521.2091" y="-355.3" font-family="Arial Bold" font-size="18.00" fill="#000000">public.users</text>
<text text-anchor="start" x="617.2229" y="-355.3" font-family="Arial" font-size="14.00" fill="#000000">    </text>
<text text-anchor="start" x="651.4277" y="-355.3" font-family="Arial" font-size="14.00" fill="#666666">[BASE TABLE]</text>
<polygon fill="none" stroke="#000000" points="473,-312.5 473,-342.5 793,-342.5 793,-312.5 473,-312.5"/>
<text text-anchor="start" x="480" y="-323.9" font-family="Arial" font-size="14.00" fill="#000000">id    </text>
<text text-anchor="start" x="525.094" y="-323.9" font-family="Arial" font-size="14.00" fill="#666666">[bigint]</text>
<polygon fill="none" stroke="#000000" points="473,-282.5 473,-312.5 793,-312.5 793,-282.5 473,-282.5"/>
<text text-anchor="start" x="480" y="-293.9" font-family="Arial" font-size="14.00" fill="#000000">email    </text>
<text text-anchor="start" x="547.6438" y="-293.9" font-family="Arial" font-size="14.00" fill="#666666">[varchar]</text>
<polygon fill="none" stroke="#000000" points="473,-252.5 473,-282.5 793,-282.5 793,-252.5 473,-252.5"/>
<text text-anchor="start" x="480" y="-263.9" font-family="Arial" font-size="14.00" fill="#000000">created_at    </text>
<text text-anchor="start" x="580.3422" y="-263.9" font-family="Arial" font-size="14.00" fill="#666666">[timestamp(6) without time zone]</text>
<polygon fill="none" stroke="#000000" points="473,-222.5 473,-252.5 793,-252.5 793,-222.5 473,-222.5"/>
<text text-anchor="start" x="479.7546" y="-233.9" font-family="Arial" font-size="14.00" fill="#000000">updated_at    </text>
<text text-anchor="start" x="584.0014" y="-233.9" font-family="Arial" font-size="14.00" fill="#666666">[timestamp(6) without time zone]</text>
<polygon fill="none" stroke="#000000" points="473,-192.5 473,-222.5 793,-222.5 793,-192.5 473,-192.5"/>
<text text-anchor="start" x="480" y="-203.9" font-family="Arial" font-size="14.00" fill="#000000">role    </text>
<text text-anchor="start" x="537.5372" y="-203.9" font-family="Arial" font-size="14.00" fill="#666666">[integer]</text>
<polygon fill="none" stroke="#000000" points="473,-162.5 473,-192.5 793,-192.5 793,-162.5 473,-162.5"/>
<text text-anchor="start" x="480" y="-173.9" font-family="Arial" font-size="14.00" fill="#000000">username    </text>
<text text-anchor="start" x="576.439" y="-173.9" font-family="Arial" font-size="14.00" fill="#666666">[varchar]</text>
<polygon fill="none" stroke="#000000" points="473,-132.5 473,-162.5 793,-162.5 793,-132.5 473,-132.5"/>
<text text-anchor="start" x="480" y="-143.9" font-family="Arial" font-size="14.00" fill="#000000">avatar    </text>
<text text-anchor="start" x="553.1038" y="-143.9" font-family="Arial" font-size="14.00" fill="#666666">[varchar]</text>
<polygon fill="none" stroke="#000000" points="473,-102.5 473,-132.5 793,-132.5 793,-102.5 473,-102.5"/>
<text text-anchor="start" x="480" y="-113.9" font-family="Arial" font-size="14.00" fill="#000000">rolable_type    </text>
<text text-anchor="start" x="590.4474" y="-113.9" font-family="Arial" font-size="14.00" fill="#666666">[varchar]</text>
<polygon fill="none" stroke="#000000" points="473,-72.5 473,-102.5 793,-102.5 793,-72.5 473,-72.5"/>
<text text-anchor="start" x="480" y="-83.9" font-family="Arial" font-size="14.00" fill="#000000">rolable_id    </text>
<text text-anchor="start" x="574.8808" y="-83.9" font-family="Arial" font-size="14.00" fill="#666666">[bigint]</text>
<polygon fill="none" stroke="#000000" points="473,-42.5 473,-72.5 793,-72.5 793,-42.5 473,-42.5"/>
<text text-anchor="start" x="480" y="-53.9" font-family="Arial" font-size="14.00" fill="#000000">uid    </text>
<text text-anchor="start" x="532.8766" y="-53.9" font-family="Arial" font-size="14.00" fill="#666666">[varchar]</text>
</g>
<!-- public.articles&#45;&gt;public.users -->
<g id="edge4" class="edge">
<title>public.articles:user_id&#45;&gt;public.users:id</title>
<path fill="none" stroke="#000000" d="M788.2839,-1237.3018C1182.7251,-1222.0147 1194.043,-327.5 793,-327.5"/>
<polygon fill="#000000" stroke="#000000" points="787.9981,-1237.3072 777.9132,-1233.0008 782.9991,-1237.4036 778,-1237.5 778,-1237.5 778,-1237.5 782.9991,-1237.4036 778.0868,-1241.9992 787.9981,-1237.3072 787.9981,-1237.3072"/>
<text text-anchor="start" x="785.3345" y="-1247.5" font-family="Arial" font-size="10.00" fill="#000000">FOREIGN KEY (user_id) REFERENCES users(id)</text>
</g>
<!-- public.bookmarks -->
<g id="node2" class="node">
<title>public.bookmarks</title>
<polygon fill="#efefef" stroke="transparent" points="43,-1622.5 43,-1657.5 363,-1657.5 363,-1622.5 43,-1622.5"/>
<polygon fill="none" stroke="#000000" points="43,-1622.5 43,-1657.5 363,-1657.5 363,-1622.5 43,-1622.5"/>
<text text-anchor="start" x="69.2068" y="-1635.3" font-family="Arial Bold" font-size="18.00" fill="#000000">public.bookmarks</text>
<text text-anchor="start" x="209.2252" y="-1635.3" font-family="Arial" font-size="14.00" fill="#000000">    </text>
<text text-anchor="start" x="243.43" y="-1635.3" font-family="Arial" font-size="14.00" fill="#666666">[BASE TABLE]</text>
<polygon fill="none" stroke="#000000" points="43,-1592.5 43,-1622.5 363,-1622.5 363,-1592.5 43,-1592.5"/>
<text text-anchor="start" x="50" y="-1603.9" font-family="Arial" font-size="14.00" fill="#000000">id    </text>
<text text-anchor="start" x="95.094" y="-1603.9" font-family="Arial" font-size="14.00" fill="#666666">[bigint]</text>
<polygon fill="none" stroke="#000000" points="43,-1562.5 43,-1592.5 363,-1592.5 363,-1562.5 43,-1562.5"/>
<text text-anchor="start" x="50" y="-1573.9" font-family="Arial" font-size="14.00" fill="#000000">user_id    </text>
<text text-anchor="start" x="130.1024" y="-1573.9" font-family="Arial" font-size="14.00" fill="#666666">[bigint]</text>
<polygon fill="none" stroke="#000000" points="43,-1532.5 43,-1562.5 363,-1562.5 363,-1532.5 43,-1532.5"/>
<text text-anchor="start" x="50" y="-1543.9" font-family="Arial" font-size="14.00" fill="#000000">article_id    </text>
<text text-anchor="start" x="140.2062" y="-1543.9" font-family="Arial" font-size="14.00" fill="#666666">[bigint]</text>
<polygon fill="none" stroke="#000000" points="43,-1502.5 43,-1532.5 363,-1532.5 363,-1502.5 43,-1502.5"/>
<text text-anchor="start" x="50" y="-1513.9" font-family="Arial" font-size="14.00" fill="#000000">created_at    </text>
<text text-anchor="start" x="150.3422" y="-1513.9" font-family="Arial" font-size="14.00" fill="#666666">[timestamp(6) without time zone]</text>
<polygon fill="none" stroke="#000000" points="43,-1472.5 43,-1502.5 363,-1502.5 363,-1472.5 43,-1472.5"/>
<text text-anchor="start" x="49.7546" y="-1483.9" font-family="Arial" font-size="14.00" fill="#000000">updated_at    </text>
<text text-anchor="start" x="154.0014" y="-1483.9" font-family="Arial" font-size="14.00" fill="#666666">[timestamp(6) without time zone]</text>
</g>
<!-- public.bookmarks&#45;&gt;public.articles -->
<g id="edge1" class="edge">
<title>public.bookmarks:article_id&#45;&gt;public.articles:id</title>
<path fill="none" stroke="#000000" d="M372.9893,-1546.6952C416.4123,-1539.0125 391.2762,-1477.8708 415,-1430 444.8552,-1369.7571 420.765,-1297.5 488,-1297.5"/>
<polygon fill="#000000" stroke="#000000" points="372.9677,-1546.6968 362.6386,-1543.0145 367.9838,-1547.0984 363,-1547.5 363,-1547.5 363,-1547.5 367.9838,-1547.0984 363.3614,-1551.9855 372.9677,-1546.6968 372.9677,-1546.6968"/>
<text text-anchor="start" x="370.1175" y="-1557.5" font-family="Arial" font-size="10.00" fill="#000000">FOREIGN KEY (article_id) REFERENCES articles(id)</text>
</g>
<!-- public.category_articles -->
<g id="node3" class="node">
<title>public.category_articles</title>
<polygon fill="#efefef" stroke="transparent" points="468,-1622.5 468,-1657.5 797,-1657.5 797,-1622.5 468,-1622.5"/>
<polygon fill="none" stroke="#000000" points="468,-1622.5 468,-1657.5 797,-1657.5 797,-1622.5 468,-1622.5"/>
<text text-anchor="start" x="474.7011" y="-1635.3" font-family="Arial Bold" font-size="18.00" fill="#000000">public.category_articles</text>
<text text-anchor="start" x="662.7309" y="-1635.3" font-family="Arial" font-size="14.00" fill="#000000">    </text>
<text text-anchor="start" x="696.9357" y="-1635.3" font-family="Arial" font-size="14.00" fill="#666666">[BASE TABLE]</text>
<polygon fill="none" stroke="#000000" points="468,-1592.5 468,-1622.5 797,-1622.5 797,-1592.5 468,-1592.5"/>
<text text-anchor="start" x="475" y="-1603.9" font-family="Arial" font-size="14.00" fill="#000000">id    </text>
<text text-anchor="start" x="520.094" y="-1603.9" font-family="Arial" font-size="14.00" fill="#666666">[bigint]</text>
<polygon fill="none" stroke="#000000" points="468,-1562.5 468,-1592.5 797,-1592.5 797,-1562.5 468,-1562.5"/>
<text text-anchor="start" x="475" y="-1573.9" font-family="Arial" font-size="14.00" fill="#000000">category_id    </text>
<text text-anchor="start" x="581.5582" y="-1573.9" font-family="Arial" font-size="14.00" fill="#666666">[bigint]</text>
<polygon fill="none" stroke="#000000" points="468,-1532.5 468,-1562.5 797,-1562.5 797,-1532.5 468,-1532.5"/>
<text text-anchor="start" x="475" y="-1543.9" font-family="Arial" font-size="14.00" fill="#000000">article_id    </text>
<text text-anchor="start" x="565.2062" y="-1543.9" font-family="Arial" font-size="14.00" fill="#666666">[bigint]</text>
<polygon fill="none" stroke="#000000" points="468,-1502.5 468,-1532.5 797,-1532.5 797,-1502.5 468,-1502.5"/>
<text text-anchor="start" x="475" y="-1513.9" font-family="Arial" font-size="14.00" fill="#000000">created_at    </text>
<text text-anchor="start" x="575.3422" y="-1513.9" font-family="Arial" font-size="14.00" fill="#666666">[timestamp(6) without time zone]</text>
<polygon fill="none" stroke="#000000" points="468,-1472.5 468,-1502.5 797,-1502.5 797,-1472.5 468,-1472.5"/>
<text text-anchor="start" x="475" y="-1483.9" font-family="Arial" font-size="14.00" fill="#000000">updated_at    </text>
<text text-anchor="start" x="579.2468" y="-1483.9" font-family="Arial" font-size="14.00" fill="#666666">[timestamp(6) without time zone]</text>
</g>
<!-- public.category_articles&#45;&gt;public.articles -->
<g id="edge2" class="edge">
<title>public.category_articles:article_id&#45;&gt;public.articles:id</title>
<path fill="none" stroke="#000000" d="M806.9998,-1546.3768C846.6764,-1536.6569 829.2828,-1466.2623 797,-1430 705.0646,-1326.7318 579.9354,-1497.2682 488,-1394 459.4817,-1361.9662 445.1111,-1297.5 488,-1297.5"/>
<polygon fill="#000000" stroke="#000000" points="806.9375,-1546.3837 796.4977,-1543.0281 801.9688,-1546.9419 797,-1547.5 797,-1547.5 797,-1547.5 801.9688,-1546.9419 797.5023,-1551.9719 806.9375,-1546.3837 806.9375,-1546.3837"/>
<text text-anchor="start" x="678.6175" y="-1531.5" font-family="Arial" font-size="10.00" fill="#000000">FOREIGN KEY (article_id) REFERENCES articles(id)</text>
</g>
<!-- public.likes -->
<g id="node4" class="node">
<title>public.likes</title>
<polygon fill="#efefef" stroke="transparent" points="901,-1622.5 901,-1657.5 1221,-1657.5 1221,-1622.5 901,-1622.5"/>
<polygon fill="none" stroke="#000000" points="901,-1622.5 901,-1657.5 1221,-1657.5 1221,-1622.5 901,-1622.5"/>
<text text-anchor="start" x="953.2141" y="-1635.3" font-family="Arial Bold" font-size="18.00" fill="#000000">public.likes</text>
<text text-anchor="start" x="1041.2179" y="-1635.3" font-family="Arial" font-size="14.00" fill="#000000">    </text>
<text text-anchor="start" x="1075.4227" y="-1635.3" font-family="Arial" font-size="14.00" fill="#666666">[BASE TABLE]</text>
<polygon fill="none" stroke="#000000" points="901,-1592.5 901,-1622.5 1221,-1622.5 1221,-1592.5 901,-1592.5"/>
<text text-anchor="start" x="908" y="-1603.9" font-family="Arial" font-size="14.00" fill="#000000">id    </text>
<text text-anchor="start" x="953.094" y="-1603.9" font-family="Arial" font-size="14.00" fill="#666666">[bigint]</text>
<polygon fill="none" stroke="#000000" points="901,-1562.5 901,-1592.5 1221,-1592.5 1221,-1562.5 901,-1562.5"/>
<text text-anchor="start" x="908" y="-1573.9" font-family="Arial" font-size="14.00" fill="#000000">user_id    </text>
<text text-anchor="start" x="988.1024" y="-1573.9" font-family="Arial" font-size="14.00" fill="#666666">[bigint]</text>
<polygon fill="none" stroke="#000000" points="901,-1532.5 901,-1562.5 1221,-1562.5 1221,-1532.5 901,-1532.5"/>
<text text-anchor="start" x="908" y="-1543.9" font-family="Arial" font-size="14.00" fill="#000000">article_id    </text>
<text text-anchor="start" x="998.2062" y="-1543.9" font-family="Arial" font-size="14.00" fill="#666666">[bigint]</text>
<polygon fill="none" stroke="#000000" points="901,-1502.5 901,-1532.5 1221,-1532.5 1221,-1502.5 901,-1502.5"/>
<text text-anchor="start" x="908" y="-1513.9" font-family="Arial" font-size="14.00" fill="#000000">created_at    </text>
<text text-anchor="start" x="1008.3422" y="-1513.9" font-family="Arial" font-size="14.00" fill="#666666">[timestamp(6) without time zone]</text>
<polygon fill="none" stroke="#000000" points="901,-1472.5 901,-1502.5 1221,-1502.5 1221,-1472.5 901,-1472.5"/>
<text text-anchor="start" x="907.7546" y="-1483.9" font-family="Arial" font-size="14.00" fill="#000000">updated_at    </text>
<text text-anchor="start" x="1012.0014" y="-1483.9" font-family="Arial" font-size="14.00" fill="#666666">[timestamp(6) without time zone]</text>
</g>
<!-- public.likes&#45;&gt;public.articles -->
<g id="edge3" class="edge">
<title>public.likes:article_id&#45;&gt;public.articles:id</title>
<path fill="none" stroke="#000000" d="M891.0072,-1546.6969C847.5517,-1539.0302 872.4445,-1478.0082 849,-1430 819.6825,-1369.9655 844.8106,-1297.5 778,-1297.5"/>
<polygon fill="#000000" stroke="#000000" points="891.0321,-1546.6988 900.6395,-1551.9855 896.0161,-1547.0994 901,-1547.5 901,-1547.5 901,-1547.5 896.0161,-1547.0994 901.3605,-1543.0145 891.0321,-1546.6988 891.0321,-1546.6988"/>
<text text-anchor="start" x="657.1175" y="-1557.5" font-family="Arial" font-size="10.00" fill="#000000">FOREIGN KEY (article_id) REFERENCES articles(id)</text>
</g>
</g>
</svg>
