<?xml version="1.0" encoding="UTF-8" standalone="no"?>
<!DOCTYPE svg PUBLIC "-//W3C//DTD SVG 1.1//EN"
 "http://www.w3.org/Graphics/SVG/1.1/DTD/svg11.dtd">
<!-- Generated by graphviz version 2.40.1 (20161225.0304)
 -->
<!-- Title: public.articles Pages: 1 -->
<svg width="1708pt" height="1709pt"
 viewBox="0.00 0.00 1707.50 1709.00" xmlns="http://www.w3.org/2000/svg" xmlns:xlink="http://www.w3.org/1999/xlink">
<g id="graph0" class="graph" transform="scale(1 1) rotate(0) translate(4 1705)">
<title>public.articles</title>
<polygon fill="#ffffff" stroke="transparent" points="-4,4 -4,-1705 1703.5,-1705 1703.5,4 -4,4"/>
<!-- public.articles -->
<g id="node1" class="node">
<title>public.articles</title>
<polygon fill="#efefef" stroke="transparent" points="703.5,-1312.5 703.5,-1347.5 993.5,-1347.5 993.5,-1312.5 703.5,-1312.5"/>
<polygon fill="none" stroke="#000000" points="703.5,-1312.5 703.5,-1347.5 993.5,-1347.5 993.5,-1312.5 703.5,-1312.5"/>
<text text-anchor="start" x="730.2138" y="-1325.3" font-family="Arial Bold" font-size="18.00" fill="#000000">public.articles</text>
<text text-anchor="start" x="839.2182" y="-1325.3" font-family="Arial" font-size="14.00" fill="#000000">    </text>
<text text-anchor="start" x="873.423" y="-1325.3" font-family="Arial" font-size="14.00" fill="#666666">[BASE TABLE]</text>
<polygon fill="none" stroke="#000000" points="703.5,-1282.5 703.5,-1312.5 993.5,-1312.5 993.5,-1282.5 703.5,-1282.5"/>
<text text-anchor="start" x="710.5" y="-1293.9" font-family="Arial" font-size="14.00" fill="#000000">id </text>
<text text-anchor="start" x="725.2798" y="-1293.9" font-family="Arial" font-size="14.00" fill="#666666">[bigint]</text>
<polygon fill="none" stroke="#000000" points="703.5,-1252.5 703.5,-1282.5 993.5,-1282.5 993.5,-1252.5 703.5,-1252.5"/>
<text text-anchor="start" x="710.5" y="-1263.9" font-family="Arial" font-size="14.00" fill="#000000">body </text>
<text text-anchor="start" x="744.7384" y="-1263.9" font-family="Arial" font-size="14.00" fill="#666666">[text]</text>
<polygon fill="none" stroke="#000000" points="703.5,-1222.5 703.5,-1252.5 993.5,-1252.5 993.5,-1222.5 703.5,-1222.5"/>
<text text-anchor="start" x="710.5" y="-1233.9" font-family="Arial" font-size="14.00" fill="#000000">user_id </text>
<text text-anchor="start" x="760.2882" y="-1233.9" font-family="Arial" font-size="14.00" fill="#666666">[bigint]</text>
<polygon fill="none" stroke="#000000" points="703.5,-1192.5 703.5,-1222.5 993.5,-1222.5 993.5,-1192.5 703.5,-1192.5"/>
<text text-anchor="start" x="710.5" y="-1203.9" font-family="Arial" font-size="14.00" fill="#000000">created_at </text>
<text text-anchor="start" x="780.528" y="-1203.9" font-family="Arial" font-size="14.00" fill="#666666">[timestamp(6) without time zone]</text>
<polygon fill="none" stroke="#000000" points="703.5,-1162.5 703.5,-1192.5 993.5,-1192.5 993.5,-1162.5 703.5,-1162.5"/>
<text text-anchor="start" x="710.4117" y="-1173.9" font-family="Arial" font-size="14.00" fill="#000000">updated_at </text>
<text text-anchor="start" x="784.3443" y="-1173.9" font-family="Arial" font-size="14.00" fill="#666666">[timestamp(6) without time zone]</text>
<polygon fill="none" stroke="#000000" points="703.5,-1132.5 703.5,-1162.5 993.5,-1162.5 993.5,-1132.5 703.5,-1132.5"/>
<text text-anchor="start" x="710.5" y="-1143.9" font-family="Arial" font-size="14.00" fill="#000000">impressions_count </text>
<text text-anchor="start" x="831.0764" y="-1143.9" font-family="Arial" font-size="14.00" fill="#666666">[integer]</text>
<polygon fill="none" stroke="#000000" points="703.5,-1102.5 703.5,-1132.5 993.5,-1132.5 993.5,-1102.5 703.5,-1102.5"/>
<text text-anchor="start" x="710.5" y="-1113.9" font-family="Arial" font-size="14.00" fill="#000000">file </text>
<text text-anchor="start" x="732.277" y="-1113.9" font-family="Arial" font-size="14.00" fill="#666666">[varchar]</text>
<polygon fill="none" stroke="#000000" points="703.5,-1072.5 703.5,-1102.5 993.5,-1102.5 993.5,-1072.5 703.5,-1072.5"/>
<text text-anchor="start" x="710.5" y="-1083.9" font-family="Arial" font-size="14.00" fill="#000000">start_time </text>
<text text-anchor="start" x="775.838" y="-1083.9" font-family="Arial" font-size="14.00" fill="#666666">[timestamp(6) without time zone]</text>
<polygon fill="none" stroke="#000000" points="703.5,-1042.5 703.5,-1072.5 993.5,-1072.5 993.5,-1042.5 703.5,-1042.5"/>
<text text-anchor="start" x="710.5" y="-1053.9" font-family="Arial" font-size="14.00" fill="#000000">end_time </text>
<text text-anchor="start" x="771.9614" y="-1053.9" font-family="Arial" font-size="14.00" fill="#666666">[timestamp(6) without time zone]</text>
<polygon fill="none" stroke="#000000" points="703.5,-1012.5 703.5,-1042.5 993.5,-1042.5 993.5,-1012.5 703.5,-1012.5"/>
<text text-anchor="start" x="710.5" y="-1023.9" font-family="Arial" font-size="14.00" fill="#000000">company_id </text>
<text text-anchor="start" x="789.8534" y="-1023.9" font-family="Arial" font-size="14.00" fill="#666666">[bigint]</text>
<polygon fill="none" stroke="#000000" points="703.5,-982.5 703.5,-1012.5 993.5,-1012.5 993.5,-982.5 703.5,-982.5"/>
<text text-anchor="start" x="710.5" y="-993.9" font-family="Arial" font-size="14.00" fill="#000000">title </text>
<text text-anchor="start" x="736.1676" y="-993.9" font-family="Arial" font-size="14.00" fill="#666666">[varchar]</text>
<polygon fill="none" stroke="#000000" points="703.5,-952.5 703.5,-982.5 993.5,-982.5 993.5,-952.5 703.5,-952.5"/>
<text text-anchor="start" x="710.5" y="-963.9" font-family="Arial" font-size="14.00" fill="#000000">application_deadline </text>
<text text-anchor="start" x="841.988" y="-963.9" font-family="Arial" font-size="14.00" fill="#666666">[date]</text>
<polygon fill="none" stroke="#000000" points="703.5,-922.5 703.5,-952.5 993.5,-952.5 993.5,-922.5 703.5,-922.5"/>
<text text-anchor="start" x="710.5" y="-933.9" font-family="Arial" font-size="14.00" fill="#000000">salary_details </text>
<text text-anchor="start" x="799.9572" y="-933.9" font-family="Arial" font-size="14.00" fill="#666666">[text]</text>
<polygon fill="none" stroke="#000000" points="703.5,-892.5 703.5,-922.5 993.5,-922.5 993.5,-892.5 703.5,-892.5"/>
<text text-anchor="start" x="710.5" y="-903.9" font-family="Arial" font-size="14.00" fill="#000000">work_location </text>
<text text-anchor="start" x="799.9572" y="-903.9" font-family="Arial" font-size="14.00" fill="#666666">[varchar]</text>
<polygon fill="none" stroke="#000000" points="703.5,-862.5 703.5,-892.5 993.5,-892.5 993.5,-862.5 703.5,-862.5"/>
<text text-anchor="start" x="710.5" y="-873.9" font-family="Arial" font-size="14.00" fill="#000000">language_requirement </text>
<text text-anchor="start" x="854.4326" y="-873.9" font-family="Arial" font-size="14.00" fill="#666666">[varchar]</text>
<polygon fill="none" stroke="#000000" points="703.5,-832.5 703.5,-862.5 993.5,-862.5 993.5,-832.5 703.5,-832.5"/>
<text text-anchor="start" x="710.5" y="-843.9" font-family="Arial" font-size="14.00" fill="#000000">japanese_level </text>
<text text-anchor="start" x="807.7538" y="-843.9" font-family="Arial" font-size="14.00" fill="#666666">[varchar]</text>
<polygon fill="none" stroke="#000000" points="703.5,-802.5 703.5,-832.5 993.5,-832.5 993.5,-802.5 703.5,-802.5"/>
<text text-anchor="start" x="710.5" y="-813.9" font-family="Arial" font-size="14.00" fill="#000000">skills_required </text>
<text text-anchor="start" x="803.8338" y="-813.9" font-family="Arial" font-size="14.00" fill="#666666">[text]</text>
<polygon fill="none" stroke="#000000" points="703.5,-772.5 703.5,-802.5 993.5,-802.5 993.5,-772.5 703.5,-772.5"/>
<text text-anchor="start" x="710.5" y="-783.9" font-family="Arial" font-size="14.00" fill="#000000">employment_type </text>
<text text-anchor="start" x="824.8604" y="-783.9" font-family="Arial" font-size="14.00" fill="#666666">[varchar]</text>
<polygon fill="none" stroke="#000000" points="703.5,-742.5 703.5,-772.5 993.5,-772.5 993.5,-742.5 703.5,-742.5"/>
<text text-anchor="start" x="710.5" y="-753.9" font-family="Arial" font-size="14.00" fill="#000000">description </text>
<text text-anchor="start" x="782.068" y="-753.9" font-family="Arial" font-size="14.00" fill="#666666">[text]</text>
<polygon fill="none" stroke="#000000" points="703.5,-712.5 703.5,-742.5 993.5,-742.5 993.5,-712.5 703.5,-712.5"/>
<text text-anchor="start" x="710.5" y="-723.9" font-family="Arial" font-size="14.00" fill="#000000">work_hours </text>
<text text-anchor="start" x="786.7314" y="-723.9" font-family="Arial" font-size="14.00" fill="#666666">[varchar]</text>
<polygon fill="none" stroke="#000000" points="703.5,-682.5 703.5,-712.5 993.5,-712.5 993.5,-682.5 703.5,-682.5"/>
<text text-anchor="start" x="710.5" y="-693.9" font-family="Arial" font-size="14.00" fill="#000000">trial_period </text>
<text text-anchor="start" x="783.6178" y="-693.9" font-family="Arial" font-size="14.00" fill="#666666">[varchar]</text>
<polygon fill="none" stroke="#000000" points="703.5,-652.5 703.5,-682.5 993.5,-682.5 993.5,-652.5 703.5,-652.5"/>
<text text-anchor="start" x="710.5" y="-663.9" font-family="Arial" font-size="14.00" fill="#000000">days_off </text>
<text text-anchor="start" x="767.3022" y="-663.9" font-family="Arial" font-size="14.00" fill="#666666">[varchar]</text>
<polygon fill="none" stroke="#000000" points="703.5,-622.5 703.5,-652.5 993.5,-652.5 993.5,-622.5 703.5,-622.5"/>
<text text-anchor="start" x="710.5" y="-633.9" font-family="Arial" font-size="14.00" fill="#000000">overtime </text>
<text text-anchor="start" x="768.0568" y="-633.9" font-family="Arial" font-size="14.00" fill="#666666">[varchar]</text>
<polygon fill="none" stroke="#000000" points="703.5,-592.5 703.5,-622.5 993.5,-622.5 993.5,-592.5 703.5,-592.5"/>
<text text-anchor="start" x="710.5" y="-603.9" font-family="Arial" font-size="14.00" fill="#000000">transportation </text>
<text text-anchor="start" x="799.9684" y="-603.9" font-family="Arial" font-size="14.00" fill="#666666">[varchar]</text>
<polygon fill="none" stroke="#000000" points="703.5,-562.5 703.5,-592.5 993.5,-592.5 993.5,-562.5 703.5,-562.5"/>
<text text-anchor="start" x="710.5" y="-573.9" font-family="Arial" font-size="14.00" fill="#000000">work_environment </text>
<text text-anchor="start" x="828.737" y="-573.9" font-family="Arial" font-size="14.00" fill="#666666">[varchar]</text>
<polygon fill="none" stroke="#000000" points="703.5,-532.5 703.5,-562.5 993.5,-562.5 993.5,-532.5 703.5,-532.5"/>
<text text-anchor="start" x="710.5" y="-543.9" font-family="Arial" font-size="14.00" fill="#000000">other_allowances </text>
<text text-anchor="start" x="823.305" y="-543.9" font-family="Arial" font-size="14.00" fill="#666666">[varchar]</text>
<polygon fill="none" stroke="#000000" points="703.5,-502.5 703.5,-532.5 993.5,-532.5 993.5,-502.5 703.5,-502.5"/>
<text text-anchor="start" x="710.5" y="-513.9" font-family="Arial" font-size="14.00" fill="#000000">insurance </text>
<text text-anchor="start" x="775.0708" y="-513.9" font-family="Arial" font-size="14.00" fill="#666666">[varchar]</text>
<polygon fill="none" stroke="#000000" points="703.5,-472.5 703.5,-502.5 993.5,-502.5 993.5,-472.5 703.5,-472.5"/>
<text text-anchor="start" x="710.5" y="-483.9" font-family="Arial" font-size="14.00" fill="#000000">other_benefits </text>
<text text-anchor="start" x="803.0904" y="-483.9" font-family="Arial" font-size="14.00" fill="#666666">[varchar]</text>
<polygon fill="none" stroke="#000000" points="703.5,-442.5 703.5,-472.5 993.5,-472.5 993.5,-442.5 703.5,-442.5"/>
<text text-anchor="start" x="710.5" y="-453.9" font-family="Arial" font-size="14.00" fill="#000000">status </text>
<text text-anchor="start" x="751.737" y="-453.9" font-family="Arial" font-size="14.00" fill="#666666">[integer]</text>
<polygon fill="none" stroke="#000000" stroke-width="3" points="702,-441.5 702,-1349.5 995,-1349.5 995,-441.5 702,-441.5"/>
</g>
<!-- public.users -->
<g id="node6" class="node">
<title>public.users</title>
<polygon fill="#efefef" stroke="transparent" points="476.5,-237.5 476.5,-272.5 796.5,-272.5 796.5,-237.5 476.5,-237.5"/>
<polygon fill="none" stroke="#000000" points="476.5,-237.5 476.5,-272.5 796.5,-272.5 796.5,-237.5 476.5,-237.5"/>
<text text-anchor="start" x="524.7091" y="-250.3" font-family="Arial Bold" font-size="18.00" fill="#000000">public.users</text>
<text text-anchor="start" x="620.7229" y="-250.3" font-family="Arial" font-size="14.00" fill="#000000">    </text>
<text text-anchor="start" x="654.9277" y="-250.3" font-family="Arial" font-size="14.00" fill="#666666">[BASE TABLE]</text>
<polygon fill="none" stroke="#000000" points="476.5,-207.5 476.5,-237.5 796.5,-237.5 796.5,-207.5 476.5,-207.5"/>
<text text-anchor="start" x="483.5" y="-218.9" font-family="Arial" font-size="14.00" fill="#000000">id    </text>
<text text-anchor="start" x="528.594" y="-218.9" font-family="Arial" font-size="14.00" fill="#666666">[bigint]</text>
<polygon fill="none" stroke="#000000" points="476.5,-177.5 476.5,-207.5 796.5,-207.5 796.5,-177.5 476.5,-177.5"/>
<text text-anchor="start" x="483.5" y="-188.9" font-family="Arial" font-size="14.00" fill="#000000">email    </text>
<text text-anchor="start" x="551.1438" y="-188.9" font-family="Arial" font-size="14.00" fill="#666666">[varchar]</text>
<polygon fill="none" stroke="#000000" points="476.5,-147.5 476.5,-177.5 796.5,-177.5 796.5,-147.5 476.5,-147.5"/>
<text text-anchor="start" x="483.5" y="-158.9" font-family="Arial" font-size="14.00" fill="#000000">created_at    </text>
<text text-anchor="start" x="583.8422" y="-158.9" font-family="Arial" font-size="14.00" fill="#666666">[timestamp(6) without time zone]</text>
<polygon fill="none" stroke="#000000" points="476.5,-117.5 476.5,-147.5 796.5,-147.5 796.5,-117.5 476.5,-117.5"/>
<text text-anchor="start" x="483.2546" y="-128.9" font-family="Arial" font-size="14.00" fill="#000000">updated_at    </text>
<text text-anchor="start" x="587.5014" y="-128.9" font-family="Arial" font-size="14.00" fill="#666666">[timestamp(6) without time zone]</text>
<polygon fill="none" stroke="#000000" points="476.5,-87.5 476.5,-117.5 796.5,-117.5 796.5,-87.5 476.5,-87.5"/>
<text text-anchor="start" x="483.5" y="-98.9" font-family="Arial" font-size="14.00" fill="#000000">role    </text>
<text text-anchor="start" x="541.0372" y="-98.9" font-family="Arial" font-size="14.00" fill="#666666">[integer]</text>
</g>
<!-- public.articles&#45;&gt;public.users -->
<g id="edge5" class="edge">
<title>public.articles:user_id&#45;&gt;public.users:id</title>
<path fill="none" stroke="#000000" d="M693.2556,-1237.3713C333.9988,-1228.2271 550.1873,-733.8409 703.5,-397 726.2066,-347.1116 773.7934,-365.8884 796.5,-316 813.7147,-278.1778 838.0556,-222.5 796.5,-222.5"/>
<polygon fill="#000000" stroke="#000000" points="693.5008,-1237.3743 703.4434,-1241.9996 698.5004,-1237.4371 703.5,-1237.5 703.5,-1237.5 703.5,-1237.5 698.5004,-1237.4371 703.5566,-1233.0004 693.5008,-1237.3743 693.5008,-1237.3743"/>
<text text-anchor="start" x="473.8345" y="-1247.5" font-family="Arial" font-size="10.00" fill="#000000">FOREIGN KEY (user_id) REFERENCES users(id)</text>
</g>
<!-- public.companies -->
<g id="node7" class="node">
<title>public.companies</title>
<polygon fill="#efefef" stroke="transparent" points="900.5,-282.5 900.5,-317.5 1220.5,-317.5 1220.5,-282.5 900.5,-282.5"/>
<polygon fill="none" stroke="#000000" points="900.5,-282.5 900.5,-317.5 1220.5,-317.5 1220.5,-282.5 900.5,-282.5"/>
<text text-anchor="start" x="927.2027" y="-295.3" font-family="Arial Bold" font-size="18.00" fill="#000000">public.companies</text>
<text text-anchor="start" x="1066.2293" y="-295.3" font-family="Arial" font-size="14.00" fill="#000000">    </text>
<text text-anchor="start" x="1100.4341" y="-295.3" font-family="Arial" font-size="14.00" fill="#666666">[BASE TABLE]</text>
<polygon fill="none" stroke="#000000" points="900.5,-252.5 900.5,-282.5 1220.5,-282.5 1220.5,-252.5 900.5,-252.5"/>
<text text-anchor="start" x="907.5" y="-263.9" font-family="Arial" font-size="14.00" fill="#000000">id    </text>
<text text-anchor="start" x="952.594" y="-263.9" font-family="Arial" font-size="14.00" fill="#666666">[bigint]</text>
<polygon fill="none" stroke="#000000" points="900.5,-222.5 900.5,-252.5 1220.5,-252.5 1220.5,-222.5 900.5,-222.5"/>
<text text-anchor="start" x="907.5" y="-233.9" font-family="Arial" font-size="14.00" fill="#000000">name    </text>
<text text-anchor="start" x="976.7132" y="-233.9" font-family="Arial" font-size="14.00" fill="#666666">[varchar]</text>
<polygon fill="none" stroke="#000000" points="900.5,-192.5 900.5,-222.5 1220.5,-222.5 1220.5,-192.5 900.5,-192.5"/>
<text text-anchor="start" x="907.5" y="-203.9" font-family="Arial" font-size="14.00" fill="#000000">area    </text>
<text text-anchor="start" x="969.7132" y="-203.9" font-family="Arial" font-size="14.00" fill="#666666">[integer]</text>
<polygon fill="none" stroke="#000000" points="900.5,-162.5 900.5,-192.5 1220.5,-192.5 1220.5,-162.5 900.5,-162.5"/>
<text text-anchor="start" x="907.5" y="-173.9" font-family="Arial" font-size="14.00" fill="#000000">location    </text>
<text text-anchor="start" x="989.939" y="-173.9" font-family="Arial" font-size="14.00" fill="#666666">[varchar]</text>
<polygon fill="none" stroke="#000000" points="900.5,-132.5 900.5,-162.5 1220.5,-162.5 1220.5,-132.5 900.5,-132.5"/>
<text text-anchor="start" x="907.5" y="-143.9" font-family="Arial" font-size="14.00" fill="#000000">website_url    </text>
<text text-anchor="start" x="1012.4888" y="-143.9" font-family="Arial" font-size="14.00" fill="#666666">[varchar]</text>
<polygon fill="none" stroke="#000000" points="900.5,-102.5 900.5,-132.5 1220.5,-132.5 1220.5,-102.5 900.5,-102.5"/>
<text text-anchor="start" x="907.5" y="-113.9" font-family="Arial" font-size="14.00" fill="#000000">string    </text>
<text text-anchor="start" x="975.9278" y="-113.9" font-family="Arial" font-size="14.00" fill="#666666">[varchar]</text>
<polygon fill="none" stroke="#000000" points="900.5,-72.5 900.5,-102.5 1220.5,-102.5 1220.5,-72.5 900.5,-72.5"/>
<text text-anchor="start" x="907.5" y="-83.9" font-family="Arial" font-size="14.00" fill="#000000">created_at    </text>
<text text-anchor="start" x="1007.8422" y="-83.9" font-family="Arial" font-size="14.00" fill="#666666">[timestamp(6) without time zone]</text>
<polygon fill="none" stroke="#000000" points="900.5,-42.5 900.5,-72.5 1220.5,-72.5 1220.5,-42.5 900.5,-42.5"/>
<text text-anchor="start" x="907.2546" y="-53.9" font-family="Arial" font-size="14.00" fill="#000000">updated_at    </text>
<text text-anchor="start" x="1011.5014" y="-53.9" font-family="Arial" font-size="14.00" fill="#666666">[timestamp(6) without time zone]</text>
</g>
<!-- public.articles&#45;&gt;public.companies -->
<g id="edge6" class="edge">
<title>public.articles:company_id&#45;&gt;public.companies:id</title>
<path fill="none" stroke="#000000" d="M1003.583,-1027.3225C1270.7425,-1017.7756 1149.9609,-625.3398 993.5,-397 968.4471,-360.4377 925.5529,-397.5623 900.5,-361 877.0109,-326.7199 858.9444,-267.5 900.5,-267.5"/>
<polygon fill="#000000" stroke="#000000" points="1003.4985,-1027.3239 993.4208,-1023.0007 998.4992,-1027.412 993.5,-1027.5 993.5,-1027.5 993.5,-1027.5 998.4992,-1027.412 993.5792,-1031.9993 1003.4985,-1027.3239 1003.4985,-1027.3239"/>
<text text-anchor="start" x="1000.3275" y="-1037.5" font-family="Arial" font-size="10.00" fill="#000000">FOREIGN KEY (company_id) REFERENCES companies(id)</text>
</g>
<!-- public.category_articles -->
<g id="node2" class="node">
<title>public.category_articles</title>
<polygon fill="#efefef" stroke="transparent" points="43.5,-1622.5 43.5,-1657.5 372.5,-1657.5 372.5,-1622.5 43.5,-1622.5"/>
<polygon fill="none" stroke="#000000" points="43.5,-1622.5 43.5,-1657.5 372.5,-1657.5 372.5,-1622.5 43.5,-1622.5"/>
<text text-anchor="start" x="50.2011" y="-1635.3" font-family="Arial Bold" font-size="18.00" fill="#000000">public.category_articles</text>
<text text-anchor="start" x="238.2309" y="-1635.3" font-family="Arial" font-size="14.00" fill="#000000">    </text>
<text text-anchor="start" x="272.4357" y="-1635.3" font-family="Arial" font-size="14.00" fill="#666666">[BASE TABLE]</text>
<polygon fill="none" stroke="#000000" points="43.5,-1592.5 43.5,-1622.5 372.5,-1622.5 372.5,-1592.5 43.5,-1592.5"/>
<text text-anchor="start" x="50.5" y="-1603.9" font-family="Arial" font-size="14.00" fill="#000000">id    </text>
<text text-anchor="start" x="95.594" y="-1603.9" font-family="Arial" font-size="14.00" fill="#666666">[bigint]</text>
<polygon fill="none" stroke="#000000" points="43.5,-1562.5 43.5,-1592.5 372.5,-1592.5 372.5,-1562.5 43.5,-1562.5"/>
<text text-anchor="start" x="50.5" y="-1573.9" font-family="Arial" font-size="14.00" fill="#000000">category_id    </text>
<text text-anchor="start" x="157.0582" y="-1573.9" font-family="Arial" font-size="14.00" fill="#666666">[bigint]</text>
<polygon fill="none" stroke="#000000" points="43.5,-1532.5 43.5,-1562.5 372.5,-1562.5 372.5,-1532.5 43.5,-1532.5"/>
<text text-anchor="start" x="50.5" y="-1543.9" font-family="Arial" font-size="14.00" fill="#000000">article_id    </text>
<text text-anchor="start" x="140.7062" y="-1543.9" font-family="Arial" font-size="14.00" fill="#666666">[bigint]</text>
<polygon fill="none" stroke="#000000" points="43.5,-1502.5 43.5,-1532.5 372.5,-1532.5 372.5,-1502.5 43.5,-1502.5"/>
<text text-anchor="start" x="50.5" y="-1513.9" font-family="Arial" font-size="14.00" fill="#000000">created_at    </text>
<text text-anchor="start" x="150.8422" y="-1513.9" font-family="Arial" font-size="14.00" fill="#666666">[timestamp(6) without time zone]</text>
<polygon fill="none" stroke="#000000" points="43.5,-1472.5 43.5,-1502.5 372.5,-1502.5 372.5,-1472.5 43.5,-1472.5"/>
<text text-anchor="start" x="50.5" y="-1483.9" font-family="Arial" font-size="14.00" fill="#000000">updated_at    </text>
<text text-anchor="start" x="154.7468" y="-1483.9" font-family="Arial" font-size="14.00" fill="#666666">[timestamp(6) without time zone]</text>
</g>
<!-- public.category_articles&#45;&gt;public.articles -->
<g id="edge1" class="edge">
<title>public.category_articles:article_id&#45;&gt;public.articles:id</title>
<path fill="none" stroke="#000000" d="M382.5815,-1546.5197C424.0122,-1537.4861 387.3076,-1468.2001 424.5,-1430 520.2607,-1331.6446 566.2269,-1297.5 703.5,-1297.5"/>
<polygon fill="#000000" stroke="#000000" points="382.4531,-1546.5321 372.0645,-1543.0211 377.4765,-1547.0161 372.5,-1547.5 372.5,-1547.5 372.5,-1547.5 377.4765,-1547.0161 372.9355,-1551.9789 382.4531,-1546.5321 382.4531,-1546.5321"/>
<text text-anchor="start" x="254.1175" y="-1531.5" font-family="Arial" font-size="10.00" fill="#000000">FOREIGN KEY (article_id) REFERENCES articles(id)</text>
</g>
<!-- public.bookmarks -->
<g id="node3" class="node">
<title>public.bookmarks</title>
<polygon fill="#efefef" stroke="transparent" points="476.5,-1622.5 476.5,-1657.5 796.5,-1657.5 796.5,-1622.5 476.5,-1622.5"/>
<polygon fill="none" stroke="#000000" points="476.5,-1622.5 476.5,-1657.5 796.5,-1657.5 796.5,-1622.5 476.5,-1622.5"/>
<text text-anchor="start" x="502.7068" y="-1635.3" font-family="Arial Bold" font-size="18.00" fill="#000000">public.bookmarks</text>
<text text-anchor="start" x="642.7252" y="-1635.3" font-family="Arial" font-size="14.00" fill="#000000">    </text>
<text text-anchor="start" x="676.93" y="-1635.3" font-family="Arial" font-size="14.00" fill="#666666">[BASE TABLE]</text>
<polygon fill="none" stroke="#000000" points="476.5,-1592.5 476.5,-1622.5 796.5,-1622.5 796.5,-1592.5 476.5,-1592.5"/>
<text text-anchor="start" x="483.5" y="-1603.9" font-family="Arial" font-size="14.00" fill="#000000">id    </text>
<text text-anchor="start" x="528.594" y="-1603.9" font-family="Arial" font-size="14.00" fill="#666666">[bigint]</text>
<polygon fill="none" stroke="#000000" points="476.5,-1562.5 476.5,-1592.5 796.5,-1592.5 796.5,-1562.5 476.5,-1562.5"/>
<text text-anchor="start" x="483.5" y="-1573.9" font-family="Arial" font-size="14.00" fill="#000000">user_id    </text>
<text text-anchor="start" x="563.6024" y="-1573.9" font-family="Arial" font-size="14.00" fill="#666666">[bigint]</text>
<polygon fill="none" stroke="#000000" points="476.5,-1532.5 476.5,-1562.5 796.5,-1562.5 796.5,-1532.5 476.5,-1532.5"/>
<text text-anchor="start" x="483.5" y="-1543.9" font-family="Arial" font-size="14.00" fill="#000000">article_id    </text>
<text text-anchor="start" x="573.7062" y="-1543.9" font-family="Arial" font-size="14.00" fill="#666666">[bigint]</text>
<polygon fill="none" stroke="#000000" points="476.5,-1502.5 476.5,-1532.5 796.5,-1532.5 796.5,-1502.5 476.5,-1502.5"/>
<text text-anchor="start" x="483.5" y="-1513.9" font-family="Arial" font-size="14.00" fill="#000000">created_at    </text>
<text text-anchor="start" x="583.8422" y="-1513.9" font-family="Arial" font-size="14.00" fill="#666666">[timestamp(6) without time zone]</text>
<polygon fill="none" stroke="#000000" points="476.5,-1472.5 476.5,-1502.5 796.5,-1502.5 796.5,-1472.5 476.5,-1472.5"/>
<text text-anchor="start" x="483.2546" y="-1483.9" font-family="Arial" font-size="14.00" fill="#000000">updated_at    </text>
<text text-anchor="start" x="587.5014" y="-1483.9" font-family="Arial" font-size="14.00" fill="#666666">[timestamp(6) without time zone]</text>
</g>
<!-- public.bookmarks&#45;&gt;public.articles -->
<g id="edge2" class="edge">
<title>public.bookmarks:article_id&#45;&gt;public.articles:id</title>
<path fill="none" stroke="#000000" d="M806.9173,-1546.3134C845.3146,-1536.6258 823.8276,-1469.882 796.5,-1430 771.4471,-1393.4377 728.5529,-1430.5623 703.5,-1394 679.2572,-1358.62 660.6111,-1297.5 703.5,-1297.5"/>
<polygon fill="#000000" stroke="#000000" points="806.4358,-1546.3682 795.9907,-1543.0289 801.4679,-1546.9341 796.5,-1547.5 796.5,-1547.5 796.5,-1547.5 801.4679,-1546.9341 797.0093,-1551.9711 806.4358,-1546.3682 806.4358,-1546.3682"/>
<text text-anchor="start" x="803.6175" y="-1557.5" font-family="Arial" font-size="10.00" fill="#000000">FOREIGN KEY (article_id) REFERENCES articles(id)</text>
</g>
<!-- public.likes -->
<g id="node4" class="node">
<title>public.likes</title>
<polygon fill="#efefef" stroke="transparent" points="900.5,-1622.5 900.5,-1657.5 1220.5,-1657.5 1220.5,-1622.5 900.5,-1622.5"/>
<polygon fill="none" stroke="#000000" points="900.5,-1622.5 900.5,-1657.5 1220.5,-1657.5 1220.5,-1622.5 900.5,-1622.5"/>
<text text-anchor="start" x="952.7141" y="-1635.3" font-family="Arial Bold" font-size="18.00" fill="#000000">public.likes</text>
<text text-anchor="start" x="1040.7179" y="-1635.3" font-family="Arial" font-size="14.00" fill="#000000">    </text>
<text text-anchor="start" x="1074.9227" y="-1635.3" font-family="Arial" font-size="14.00" fill="#666666">[BASE TABLE]</text>
<polygon fill="none" stroke="#000000" points="900.5,-1592.5 900.5,-1622.5 1220.5,-1622.5 1220.5,-1592.5 900.5,-1592.5"/>
<text text-anchor="start" x="907.5" y="-1603.9" font-family="Arial" font-size="14.00" fill="#000000">id    </text>
<text text-anchor="start" x="952.594" y="-1603.9" font-family="Arial" font-size="14.00" fill="#666666">[bigint]</text>
<polygon fill="none" stroke="#000000" points="900.5,-1562.5 900.5,-1592.5 1220.5,-1592.5 1220.5,-1562.5 900.5,-1562.5"/>
<text text-anchor="start" x="907.5" y="-1573.9" font-family="Arial" font-size="14.00" fill="#000000">user_id    </text>
<text text-anchor="start" x="987.6024" y="-1573.9" font-family="Arial" font-size="14.00" fill="#666666">[bigint]</text>
<polygon fill="none" stroke="#000000" points="900.5,-1532.5 900.5,-1562.5 1220.5,-1562.5 1220.5,-1532.5 900.5,-1532.5"/>
<text text-anchor="start" x="907.5" y="-1543.9" font-family="Arial" font-size="14.00" fill="#000000">article_id    </text>
<text text-anchor="start" x="997.7062" y="-1543.9" font-family="Arial" font-size="14.00" fill="#666666">[bigint]</text>
<polygon fill="none" stroke="#000000" points="900.5,-1502.5 900.5,-1532.5 1220.5,-1532.5 1220.5,-1502.5 900.5,-1502.5"/>
<text text-anchor="start" x="907.5" y="-1513.9" font-family="Arial" font-size="14.00" fill="#000000">created_at    </text>
<text text-anchor="start" x="1007.8422" y="-1513.9" font-family="Arial" font-size="14.00" fill="#666666">[timestamp(6) without time zone]</text>
<polygon fill="none" stroke="#000000" points="900.5,-1472.5 900.5,-1502.5 1220.5,-1502.5 1220.5,-1472.5 900.5,-1472.5"/>
<text text-anchor="start" x="907.2546" y="-1483.9" font-family="Arial" font-size="14.00" fill="#000000">updated_at    </text>
<text text-anchor="start" x="1011.5014" y="-1483.9" font-family="Arial" font-size="14.00" fill="#666666">[timestamp(6) without time zone]</text>
</g>
<!-- public.likes&#45;&gt;public.articles -->
<g id="edge3" class="edge">
<title>public.likes:article_id&#45;&gt;public.articles:id</title>
<path fill="none" stroke="#000000" d="M890.0827,-1546.3134C851.6854,-1536.6258 873.1724,-1469.882 900.5,-1430 925.5529,-1393.4377 968.4471,-1430.5623 993.5,-1394 1017.7428,-1358.62 1036.3889,-1297.5 993.5,-1297.5"/>
<polygon fill="#000000" stroke="#000000" points="890.5642,-1546.3682 899.9907,-1551.9711 895.5321,-1546.9341 900.5,-1547.5 900.5,-1547.5 900.5,-1547.5 895.5321,-1546.9341 901.0093,-1543.0289 890.5642,-1546.3682 890.5642,-1546.3682"/>
<text text-anchor="start" x="907.6175" y="-1531.5" font-family="Arial" font-size="10.00" fill="#000000">FOREIGN KEY (article_id) REFERENCES articles(id)</text>
</g>
<!-- public.applicant_articles -->
<g id="node5" class="node">
<title>public.applicant_articles</title>
<polygon fill="#efefef" stroke="transparent" points="1324.5,-1622.5 1324.5,-1657.5 1656.5,-1657.5 1656.5,-1622.5 1324.5,-1622.5"/>
<polygon fill="none" stroke="#000000" points="1324.5,-1622.5 1324.5,-1657.5 1656.5,-1657.5 1656.5,-1622.5 1324.5,-1622.5"/>
<text text-anchor="start" x="1331.1999" y="-1635.3" font-family="Arial Bold" font-size="18.00" fill="#000000">public.applicant_articles</text>
<text text-anchor="start" x="1522.2321" y="-1635.3" font-family="Arial" font-size="14.00" fill="#000000">    </text>
<text text-anchor="start" x="1556.4369" y="-1635.3" font-family="Arial" font-size="14.00" fill="#666666">[BASE TABLE]</text>
<polygon fill="none" stroke="#000000" points="1324.5,-1592.5 1324.5,-1622.5 1656.5,-1622.5 1656.5,-1592.5 1324.5,-1592.5"/>
<text text-anchor="start" x="1331.5" y="-1603.9" font-family="Arial" font-size="14.00" fill="#000000">id    </text>
<text text-anchor="start" x="1376.594" y="-1603.9" font-family="Arial" font-size="14.00" fill="#666666">[bigint]</text>
<polygon fill="none" stroke="#000000" points="1324.5,-1562.5 1324.5,-1592.5 1656.5,-1592.5 1656.5,-1562.5 1324.5,-1562.5"/>
<text text-anchor="start" x="1331.5" y="-1573.9" font-family="Arial" font-size="14.00" fill="#000000">applicant_id    </text>
<text text-anchor="start" x="1440.3934" y="-1573.9" font-family="Arial" font-size="14.00" fill="#666666">[bigint]</text>
<polygon fill="none" stroke="#000000" points="1324.5,-1532.5 1324.5,-1562.5 1656.5,-1562.5 1656.5,-1532.5 1324.5,-1532.5"/>
<text text-anchor="start" x="1331.5" y="-1543.9" font-family="Arial" font-size="14.00" fill="#000000">article_id    </text>
<text text-anchor="start" x="1421.7062" y="-1543.9" font-family="Arial" font-size="14.00" fill="#666666">[bigint]</text>
<polygon fill="none" stroke="#000000" points="1324.5,-1502.5 1324.5,-1532.5 1656.5,-1532.5 1656.5,-1502.5 1324.5,-1502.5"/>
<text text-anchor="start" x="1331.5" y="-1513.9" font-family="Arial" font-size="14.00" fill="#000000">created_at    </text>
<text text-anchor="start" x="1431.8422" y="-1513.9" font-family="Arial" font-size="14.00" fill="#666666">[timestamp(6) without time zone]</text>
<polygon fill="none" stroke="#000000" points="1324.5,-1472.5 1324.5,-1502.5 1656.5,-1502.5 1656.5,-1472.5 1324.5,-1472.5"/>
<text text-anchor="start" x="1331.5" y="-1483.9" font-family="Arial" font-size="14.00" fill="#000000">updated_at    </text>
<text text-anchor="start" x="1435.7468" y="-1483.9" font-family="Arial" font-size="14.00" fill="#666666">[timestamp(6) without time zone]</text>
</g>
<!-- public.applicant_articles&#45;&gt;public.articles -->
<g id="edge4" class="edge">
<title>public.applicant_articles:article_id&#45;&gt;public.articles:id</title>
<path fill="none" stroke="#000000" d="M1314.4185,-1546.5197C1272.9878,-1537.4861 1309.6924,-1468.2001 1272.5,-1430 1176.7393,-1331.6446 1130.7731,-1297.5 993.5,-1297.5"/>
<polygon fill="#000000" stroke="#000000" points="1314.5469,-1546.5321 1324.0645,-1551.9789 1319.5235,-1547.0161 1324.5,-1547.5 1324.5,-1547.5 1324.5,-1547.5 1319.5235,-1547.0161 1324.9355,-1543.0211 1314.5469,-1546.5321 1314.5469,-1546.5321"/>
<text text-anchor="start" x="1331.3365" y="-1557.5" font-family="Arial" font-size="10.00" fill="#000000">FOREIGN KEY (article_id) REFERENCES articles(id) ON DELETE CASCADE</text>
</g>
</g>
</svg>
