<?xml version="1.0" encoding="UTF-8" standalone="no"?>
<!DOCTYPE svg PUBLIC "-//W3C//DTD SVG 1.1//EN"
 "http://www.w3.org/Graphics/SVG/1.1/DTD/svg11.dtd">
<!-- Generated by graphviz version 2.40.1 (20161225.0304)
 -->
<!-- Title: public.categories Pages: 1 -->
<svg width="658pt" height="562pt"
 viewBox="0.00 0.00 657.50 562.00" xmlns="http://www.w3.org/2000/svg" xmlns:xlink="http://www.w3.org/1999/xlink">
<g id="graph0" class="graph" transform="scale(1 1) rotate(0) translate(4 558)">
<title>public.categories</title>
<polygon fill="#ffffff" stroke="transparent" points="-4,4 -4,-558 653.5,-558 653.5,4 -4,4"/>
<!-- public.categories -->
<g id="node1" class="node">
<title>public.categories</title>
<polygon fill="#efefef" stroke="transparent" points="63.5,-165.5 63.5,-200.5 353.5,-200.5 353.5,-165.5 63.5,-165.5"/>
<polygon fill="none" stroke="#000000" points="63.5,-165.5 63.5,-200.5 353.5,-200.5 353.5,-165.5 63.5,-165.5"/>
<text text-anchor="start" x="77.2016" y="-178.3" font-family="Arial Bold" font-size="18.00" fill="#000000">public.categories</text>
<text text-anchor="start" x="212.2304" y="-178.3" font-family="Arial" font-size="14.00" fill="#000000">    </text>
<text text-anchor="start" x="246.4352" y="-178.3" font-family="Arial" font-size="14.00" fill="#666666">[BASE TABLE]</text>
<polygon fill="none" stroke="#000000" points="63.5,-135.5 63.5,-165.5 353.5,-165.5 353.5,-135.5 63.5,-135.5"/>
<text text-anchor="start" x="70.5" y="-146.9" font-family="Arial" font-size="14.00" fill="#000000">id </text>
<text text-anchor="start" x="85.2798" y="-146.9" font-family="Arial" font-size="14.00" fill="#666666">[bigint]</text>
<polygon fill="none" stroke="#000000" points="63.5,-105.5 63.5,-135.5 353.5,-135.5 353.5,-105.5 63.5,-105.5"/>
<text text-anchor="start" x="70.5" y="-116.9" font-family="Arial" font-size="14.00" fill="#000000">name </text>
<text text-anchor="start" x="109.399" y="-116.9" font-family="Arial" font-size="14.00" fill="#666666">[varchar]</text>
<polygon fill="none" stroke="#000000" points="63.5,-75.5 63.5,-105.5 353.5,-105.5 353.5,-75.5 63.5,-75.5"/>
<text text-anchor="start" x="70.5" y="-86.9" font-family="Arial" font-size="14.00" fill="#000000">created_at </text>
<text text-anchor="start" x="140.528" y="-86.9" font-family="Arial" font-size="14.00" fill="#666666">[timestamp(6) without time zone]</text>
<polygon fill="none" stroke="#000000" points="63.5,-45.5 63.5,-75.5 353.5,-75.5 353.5,-45.5 63.5,-45.5"/>
<text text-anchor="start" x="70.4117" y="-56.9" font-family="Arial" font-size="14.00" fill="#000000">updated_at </text>
<text text-anchor="start" x="144.3443" y="-56.9" font-family="Arial" font-size="14.00" fill="#666666">[timestamp(6) without time zone]</text>
<polygon fill="none" stroke="#000000" stroke-width="3" points="62,-44.5 62,-202.5 355,-202.5 355,-44.5 62,-44.5"/>
</g>
<!-- public.category_articles -->
<g id="node2" class="node">
<title>public.category_articles</title>
<polygon fill="#efefef" stroke="transparent" points="43.5,-475.5 43.5,-510.5 372.5,-510.5 372.5,-475.5 43.5,-475.5"/>
<polygon fill="none" stroke="#000000" points="43.5,-475.5 43.5,-510.5 372.5,-510.5 372.5,-475.5 43.5,-475.5"/>
<text text-anchor="start" x="50.2011" y="-488.3" font-family="Arial Bold" font-size="18.00" fill="#000000">public.category_articles</text>
<text text-anchor="start" x="238.2309" y="-488.3" font-family="Arial" font-size="14.00" fill="#000000">    </text>
<text text-anchor="start" x="272.4357" y="-488.3" font-family="Arial" font-size="14.00" fill="#666666">[BASE TABLE]</text>
<polygon fill="none" stroke="#000000" points="43.5,-445.5 43.5,-475.5 372.5,-475.5 372.5,-445.5 43.5,-445.5"/>
<text text-anchor="start" x="50.5" y="-456.9" font-family="Arial" font-size="14.00" fill="#000000">id    </text>
<text text-anchor="start" x="95.594" y="-456.9" font-family="Arial" font-size="14.00" fill="#666666">[bigint]</text>
<polygon fill="none" stroke="#000000" points="43.5,-415.5 43.5,-445.5 372.5,-445.5 372.5,-415.5 43.5,-415.5"/>
<text text-anchor="start" x="50.5" y="-426.9" font-family="Arial" font-size="14.00" fill="#000000">category_id    </text>
<text text-anchor="start" x="157.0582" y="-426.9" font-family="Arial" font-size="14.00" fill="#666666">[bigint]</text>
<polygon fill="none" stroke="#000000" points="43.5,-385.5 43.5,-415.5 372.5,-415.5 372.5,-385.5 43.5,-385.5"/>
<text text-anchor="start" x="50.5" y="-396.9" font-family="Arial" font-size="14.00" fill="#000000">article_id    </text>
<text text-anchor="start" x="140.7062" y="-396.9" font-family="Arial" font-size="14.00" fill="#666666">[bigint]</text>
<polygon fill="none" stroke="#000000" points="43.5,-355.5 43.5,-385.5 372.5,-385.5 372.5,-355.5 43.5,-355.5"/>
<text text-anchor="start" x="50.5" y="-366.9" font-family="Arial" font-size="14.00" fill="#000000">created_at    </text>
<text text-anchor="start" x="150.8422" y="-366.9" font-family="Arial" font-size="14.00" fill="#666666">[timestamp(6) without time zone]</text>
<polygon fill="none" stroke="#000000" points="43.5,-325.5 43.5,-355.5 372.5,-355.5 372.5,-325.5 43.5,-325.5"/>
<text text-anchor="start" x="50.5" y="-336.9" font-family="Arial" font-size="14.00" fill="#000000">updated_at    </text>
<text text-anchor="start" x="154.7468" y="-336.9" font-family="Arial" font-size="14.00" fill="#666666">[timestamp(6) without time zone]</text>
</g>
<!-- public.category_articles&#45;&gt;public.categories -->
<g id="edge1" class="edge">
<title>public.category_articles:category_id&#45;&gt;public.categories:id</title>
<path fill="none" stroke="#000000" d="M382.4807,-429.6401C435.5884,-419.8708 413.7064,-329.2858 372.5,-283 280.5646,-179.7318 155.4354,-350.2682 63.5,-247 34.9817,-214.9662 20.6111,-150.5 63.5,-150.5"/>
<polygon fill="#000000" stroke="#000000" points="382.4631,-429.6416 372.1137,-426.0166 377.4815,-430.0708 372.5,-430.5 372.5,-430.5 372.5,-430.5 377.4815,-430.0708 372.8863,-434.9834 382.4631,-429.6416 382.4631,-429.6416"/>
<text text-anchor="start" x="379.5485" y="-440.5" font-family="Arial" font-size="10.00" fill="#000000">FOREIGN KEY (category_id) REFERENCES categories(id)</text>
</g>
</g>
</svg>
