<?xml version="1.0" encoding="UTF-8" standalone="no"?>
<!DOCTYPE svg PUBLIC "-//W3C//DTD SVG 1.1//EN"
 "http://www.w3.org/Graphics/SVG/1.1/DTD/svg11.dtd">
<!-- Generated by graphviz version 2.40.1 (20161225.0304)
 -->
<!-- Title: public.articles Pages: 1 -->
<svg width="1708pt" height="1019pt"
 viewBox="0.00 0.00 1708.00 1019.00" xmlns="http://www.w3.org/2000/svg" xmlns:xlink="http://www.w3.org/1999/xlink">
<g id="graph0" class="graph" transform="scale(1 1) rotate(0) translate(4 1015)">
<title>public.articles</title>
<polygon fill="#ffffff" stroke="transparent" points="-4,4 -4,-1015 1704,-1015 1704,4 -4,4"/>
<!-- public.articles -->
<g id="node1" class="node">
<title>public.articles</title>
<polygon fill="#efefef" stroke="transparent" points="702,-622.5 702,-657.5 992,-657.5 992,-622.5 702,-622.5"/>
<polygon fill="none" stroke="#000000" points="702,-622.5 702,-657.5 992,-657.5 992,-622.5 702,-622.5"/>
<text text-anchor="start" x="728.7138" y="-635.3" font-family="Arial Bold" font-size="18.00" fill="#000000">public.articles</text>
<text text-anchor="start" x="837.7182" y="-635.3" font-family="Arial" font-size="14.00" fill="#000000">    </text>
<text text-anchor="start" x="871.923" y="-635.3" font-family="Arial" font-size="14.00" fill="#666666">[BASE TABLE]</text>
<polygon fill="none" stroke="#000000" points="702,-592.5 702,-622.5 992,-622.5 992,-592.5 702,-592.5"/>
<text text-anchor="start" x="709" y="-603.9" font-family="Arial" font-size="14.00" fill="#000000">id </text>
<text text-anchor="start" x="723.7798" y="-603.9" font-family="Arial" font-size="14.00" fill="#666666">[bigint]</text>
<polygon fill="none" stroke="#000000" points="702,-562.5 702,-592.5 992,-592.5 992,-562.5 702,-562.5"/>
<text text-anchor="start" x="709" y="-573.9" font-family="Arial" font-size="14.00" fill="#000000">body </text>
<text text-anchor="start" x="743.2384" y="-573.9" font-family="Arial" font-size="14.00" fill="#666666">[text]</text>
<polygon fill="none" stroke="#000000" points="702,-532.5 702,-562.5 992,-562.5 992,-532.5 702,-532.5"/>
<text text-anchor="start" x="709" y="-543.9" font-family="Arial" font-size="14.00" fill="#000000">user_id </text>
<text text-anchor="start" x="758.7882" y="-543.9" font-family="Arial" font-size="14.00" fill="#666666">[bigint]</text>
<polygon fill="none" stroke="#000000" points="702,-502.5 702,-532.5 992,-532.5 992,-502.5 702,-502.5"/>
<text text-anchor="start" x="709" y="-513.9" font-family="Arial" font-size="14.00" fill="#000000">created_at </text>
<text text-anchor="start" x="779.028" y="-513.9" font-family="Arial" font-size="14.00" fill="#666666">[timestamp(6) without time zone]</text>
<polygon fill="none" stroke="#000000" points="702,-472.5 702,-502.5 992,-502.5 992,-472.5 702,-472.5"/>
<text text-anchor="start" x="708.9117" y="-483.9" font-family="Arial" font-size="14.00" fill="#000000">updated_at </text>
<text text-anchor="start" x="782.8443" y="-483.9" font-family="Arial" font-size="14.00" fill="#666666">[timestamp(6) without time zone]</text>
<polygon fill="none" stroke="#000000" points="702,-442.5 702,-472.5 992,-472.5 992,-442.5 702,-442.5"/>
<text text-anchor="start" x="709" y="-453.9" font-family="Arial" font-size="14.00" fill="#000000">impressions_count </text>
<text text-anchor="start" x="829.5764" y="-453.9" font-family="Arial" font-size="14.00" fill="#666666">[integer]</text>
<polygon fill="none" stroke="#000000" points="702,-412.5 702,-442.5 992,-442.5 992,-412.5 702,-412.5"/>
<text text-anchor="start" x="709" y="-423.9" font-family="Arial" font-size="14.00" fill="#000000">file </text>
<text text-anchor="start" x="730.777" y="-423.9" font-family="Arial" font-size="14.00" fill="#666666">[varchar]</text>
<polygon fill="none" stroke="#000000" points="702,-382.5 702,-412.5 992,-412.5 992,-382.5 702,-382.5"/>
<text text-anchor="start" x="709" y="-393.9" font-family="Arial" font-size="14.00" fill="#000000">start_time </text>
<text text-anchor="start" x="774.338" y="-393.9" font-family="Arial" font-size="14.00" fill="#666666">[timestamp(6) without time zone]</text>
<polygon fill="none" stroke="#000000" points="702,-352.5 702,-382.5 992,-382.5 992,-352.5 702,-352.5"/>
<text text-anchor="start" x="709" y="-363.9" font-family="Arial" font-size="14.00" fill="#000000">end_time </text>
<text text-anchor="start" x="770.4614" y="-363.9" font-family="Arial" font-size="14.00" fill="#666666">[timestamp(6) without time zone]</text>
<polygon fill="none" stroke="#000000" stroke-width="3" points="700.5,-351.5 700.5,-659.5 993.5,-659.5 993.5,-351.5 700.5,-351.5"/>
</g>
<!-- public.users -->
<g id="node6" class="node">
<title>public.users</title>
<polygon fill="#efefef" stroke="transparent" points="687,-192.5 687,-227.5 1007,-227.5 1007,-192.5 687,-192.5"/>
<polygon fill="none" stroke="#000000" points="687,-192.5 687,-227.5 1007,-227.5 1007,-192.5 687,-192.5"/>
<text text-anchor="start" x="735.2091" y="-205.3" font-family="Arial Bold" font-size="18.00" fill="#000000">public.users</text>
<text text-anchor="start" x="831.2229" y="-205.3" font-family="Arial" font-size="14.00" fill="#000000">    </text>
<text text-anchor="start" x="865.4277" y="-205.3" font-family="Arial" font-size="14.00" fill="#666666">[BASE TABLE]</text>
<polygon fill="none" stroke="#000000" points="687,-162.5 687,-192.5 1007,-192.5 1007,-162.5 687,-162.5"/>
<text text-anchor="start" x="694" y="-173.9" font-family="Arial" font-size="14.00" fill="#000000">id    </text>
<text text-anchor="start" x="739.094" y="-173.9" font-family="Arial" font-size="14.00" fill="#666666">[bigint]</text>
<polygon fill="none" stroke="#000000" points="687,-132.5 687,-162.5 1007,-162.5 1007,-132.5 687,-132.5"/>
<text text-anchor="start" x="694" y="-143.9" font-family="Arial" font-size="14.00" fill="#000000">email    </text>
<text text-anchor="start" x="761.6438" y="-143.9" font-family="Arial" font-size="14.00" fill="#666666">[varchar]</text>
<polygon fill="none" stroke="#000000" points="687,-102.5 687,-132.5 1007,-132.5 1007,-102.5 687,-102.5"/>
<text text-anchor="start" x="694" y="-113.9" font-family="Arial" font-size="14.00" fill="#000000">created_at    </text>
<text text-anchor="start" x="794.3422" y="-113.9" font-family="Arial" font-size="14.00" fill="#666666">[timestamp(6) without time zone]</text>
<polygon fill="none" stroke="#000000" points="687,-72.5 687,-102.5 1007,-102.5 1007,-72.5 687,-72.5"/>
<text text-anchor="start" x="693.7546" y="-83.9" font-family="Arial" font-size="14.00" fill="#000000">updated_at    </text>
<text text-anchor="start" x="798.0014" y="-83.9" font-family="Arial" font-size="14.00" fill="#666666">[timestamp(6) without time zone]</text>
<polygon fill="none" stroke="#000000" points="687,-42.5 687,-72.5 1007,-72.5 1007,-42.5 687,-42.5"/>
<text text-anchor="start" x="694" y="-53.9" font-family="Arial" font-size="14.00" fill="#000000">role    </text>
<text text-anchor="start" x="751.5372" y="-53.9" font-family="Arial" font-size="14.00" fill="#666666">[integer]</text>
</g>
<!-- public.articles&#45;&gt;public.users -->
<g id="edge5" class="edge">
<title>public.articles:user_id&#45;&gt;public.users:id</title>
<path fill="none" stroke="#000000" d="M1002.4002,-546.995C1157.1412,-531.7723 1168.0436,-177.5 1007,-177.5"/>
<polygon fill="#000000" stroke="#000000" points="1001.9882,-547.0149 991.7817,-543.0053 996.9941,-547.2575 992,-547.5 992,-547.5 992,-547.5 996.9941,-547.2575 992.2183,-551.9947 1001.9882,-547.0149 1001.9882,-547.0149"/>
<text text-anchor="start" x="999.3345" y="-557.5" font-family="Arial" font-size="10.00" fill="#000000">FOREIGN KEY (user_id) REFERENCES users(id)</text>
</g>
<!-- public.bookmarks -->
<g id="node2" class="node">
<title>public.bookmarks</title>
<polygon fill="#efefef" stroke="transparent" points="43,-932.5 43,-967.5 363,-967.5 363,-932.5 43,-932.5"/>
<polygon fill="none" stroke="#000000" points="43,-932.5 43,-967.5 363,-967.5 363,-932.5 43,-932.5"/>
<text text-anchor="start" x="69.2068" y="-945.3" font-family="Arial Bold" font-size="18.00" fill="#000000">public.bookmarks</text>
<text text-anchor="start" x="209.2252" y="-945.3" font-family="Arial" font-size="14.00" fill="#000000">    </text>
<text text-anchor="start" x="243.43" y="-945.3" font-family="Arial" font-size="14.00" fill="#666666">[BASE TABLE]</text>
<polygon fill="none" stroke="#000000" points="43,-902.5 43,-932.5 363,-932.5 363,-902.5 43,-902.5"/>
<text text-anchor="start" x="50" y="-913.9" font-family="Arial" font-size="14.00" fill="#000000">id    </text>
<text text-anchor="start" x="95.094" y="-913.9" font-family="Arial" font-size="14.00" fill="#666666">[bigint]</text>
<polygon fill="none" stroke="#000000" points="43,-872.5 43,-902.5 363,-902.5 363,-872.5 43,-872.5"/>
<text text-anchor="start" x="50" y="-883.9" font-family="Arial" font-size="14.00" fill="#000000">user_id    </text>
<text text-anchor="start" x="130.1024" y="-883.9" font-family="Arial" font-size="14.00" fill="#666666">[bigint]</text>
<polygon fill="none" stroke="#000000" points="43,-842.5 43,-872.5 363,-872.5 363,-842.5 43,-842.5"/>
<text text-anchor="start" x="50" y="-853.9" font-family="Arial" font-size="14.00" fill="#000000">article_id    </text>
<text text-anchor="start" x="140.2062" y="-853.9" font-family="Arial" font-size="14.00" fill="#666666">[bigint]</text>
<polygon fill="none" stroke="#000000" points="43,-812.5 43,-842.5 363,-842.5 363,-812.5 43,-812.5"/>
<text text-anchor="start" x="50" y="-823.9" font-family="Arial" font-size="14.00" fill="#000000">created_at    </text>
<text text-anchor="start" x="150.3422" y="-823.9" font-family="Arial" font-size="14.00" fill="#666666">[timestamp(6) without time zone]</text>
<polygon fill="none" stroke="#000000" points="43,-782.5 43,-812.5 363,-812.5 363,-782.5 43,-782.5"/>
<text text-anchor="start" x="49.7546" y="-793.9" font-family="Arial" font-size="14.00" fill="#000000">updated_at    </text>
<text text-anchor="start" x="154.0014" y="-793.9" font-family="Arial" font-size="14.00" fill="#666666">[timestamp(6) without time zone]</text>
</g>
<!-- public.bookmarks&#45;&gt;public.articles -->
<g id="edge1" class="edge">
<title>public.bookmarks:article_id&#45;&gt;public.articles:id</title>
<path fill="none" stroke="#000000" d="M373.0788,-856.5171C414.4847,-847.4592 377.6008,-777.9977 415,-740 513.552,-639.871 561.5069,-607.5 702,-607.5"/>
<polygon fill="#000000" stroke="#000000" points="372.9528,-856.5293 362.5632,-853.0212 367.9764,-857.0146 363,-857.5 363,-857.5 363,-857.5 367.9764,-857.0146 363.4368,-861.9788 372.9528,-856.5293 372.9528,-856.5293"/>
<text text-anchor="start" x="244.6175" y="-841.5" font-family="Arial" font-size="10.00" fill="#000000">FOREIGN KEY (article_id) REFERENCES articles(id)</text>
</g>
<!-- public.category_articles -->
<g id="node3" class="node">
<title>public.category_articles</title>
<polygon fill="#efefef" stroke="transparent" points="468,-932.5 468,-967.5 797,-967.5 797,-932.5 468,-932.5"/>
<polygon fill="none" stroke="#000000" points="468,-932.5 468,-967.5 797,-967.5 797,-932.5 468,-932.5"/>
<text text-anchor="start" x="474.7011" y="-945.3" font-family="Arial Bold" font-size="18.00" fill="#000000">public.category_articles</text>
<text text-anchor="start" x="662.7309" y="-945.3" font-family="Arial" font-size="14.00" fill="#000000">    </text>
<text text-anchor="start" x="696.9357" y="-945.3" font-family="Arial" font-size="14.00" fill="#666666">[BASE TABLE]</text>
<polygon fill="none" stroke="#000000" points="468,-902.5 468,-932.5 797,-932.5 797,-902.5 468,-902.5"/>
<text text-anchor="start" x="475" y="-913.9" font-family="Arial" font-size="14.00" fill="#000000">id    </text>
<text text-anchor="start" x="520.094" y="-913.9" font-family="Arial" font-size="14.00" fill="#666666">[bigint]</text>
<polygon fill="none" stroke="#000000" points="468,-872.5 468,-902.5 797,-902.5 797,-872.5 468,-872.5"/>
<text text-anchor="start" x="475" y="-883.9" font-family="Arial" font-size="14.00" fill="#000000">category_id    </text>
<text text-anchor="start" x="581.5582" y="-883.9" font-family="Arial" font-size="14.00" fill="#666666">[bigint]</text>
<polygon fill="none" stroke="#000000" points="468,-842.5 468,-872.5 797,-872.5 797,-842.5 468,-842.5"/>
<text text-anchor="start" x="475" y="-853.9" font-family="Arial" font-size="14.00" fill="#000000">article_id    </text>
<text text-anchor="start" x="565.2062" y="-853.9" font-family="Arial" font-size="14.00" fill="#666666">[bigint]</text>
<polygon fill="none" stroke="#000000" points="468,-812.5 468,-842.5 797,-842.5 797,-812.5 468,-812.5"/>
<text text-anchor="start" x="475" y="-823.9" font-family="Arial" font-size="14.00" fill="#000000">created_at    </text>
<text text-anchor="start" x="575.3422" y="-823.9" font-family="Arial" font-size="14.00" fill="#666666">[timestamp(6) without time zone]</text>
<polygon fill="none" stroke="#000000" points="468,-782.5 468,-812.5 797,-812.5 797,-782.5 468,-782.5"/>
<text text-anchor="start" x="475" y="-793.9" font-family="Arial" font-size="14.00" fill="#000000">updated_at    </text>
<text text-anchor="start" x="579.2468" y="-793.9" font-family="Arial" font-size="14.00" fill="#666666">[timestamp(6) without time zone]</text>
</g>
<!-- public.category_articles&#45;&gt;public.articles -->
<g id="edge2" class="edge">
<title>public.category_articles:article_id&#45;&gt;public.articles:id</title>
<path fill="none" stroke="#000000" d="M807.4196,-856.3118C845.8356,-846.6114 824.4691,-779.7846 797,-740 771.3457,-702.8439 727.6543,-741.1561 702,-704 677.6317,-668.7064 659.1111,-607.5 702,-607.5"/>
<polygon fill="#000000" stroke="#000000" points="806.9356,-856.3669 796.4901,-853.029 801.9678,-856.9335 797,-857.5 797,-857.5 797,-857.5 801.9678,-856.9335 797.5099,-861.971 806.9356,-856.3669 806.9356,-856.3669"/>
<text text-anchor="start" x="804.1175" y="-867.5" font-family="Arial" font-size="10.00" fill="#000000">FOREIGN KEY (article_id) REFERENCES articles(id)</text>
</g>
<!-- public.likes -->
<g id="node4" class="node">
<title>public.likes</title>
<polygon fill="#efefef" stroke="transparent" points="901,-932.5 901,-967.5 1221,-967.5 1221,-932.5 901,-932.5"/>
<polygon fill="none" stroke="#000000" points="901,-932.5 901,-967.5 1221,-967.5 1221,-932.5 901,-932.5"/>
<text text-anchor="start" x="953.2141" y="-945.3" font-family="Arial Bold" font-size="18.00" fill="#000000">public.likes</text>
<text text-anchor="start" x="1041.2179" y="-945.3" font-family="Arial" font-size="14.00" fill="#000000">    </text>
<text text-anchor="start" x="1075.4227" y="-945.3" font-family="Arial" font-size="14.00" fill="#666666">[BASE TABLE]</text>
<polygon fill="none" stroke="#000000" points="901,-902.5 901,-932.5 1221,-932.5 1221,-902.5 901,-902.5"/>
<text text-anchor="start" x="908" y="-913.9" font-family="Arial" font-size="14.00" fill="#000000">id    </text>
<text text-anchor="start" x="953.094" y="-913.9" font-family="Arial" font-size="14.00" fill="#666666">[bigint]</text>
<polygon fill="none" stroke="#000000" points="901,-872.5 901,-902.5 1221,-902.5 1221,-872.5 901,-872.5"/>
<text text-anchor="start" x="908" y="-883.9" font-family="Arial" font-size="14.00" fill="#000000">user_id    </text>
<text text-anchor="start" x="988.1024" y="-883.9" font-family="Arial" font-size="14.00" fill="#666666">[bigint]</text>
<polygon fill="none" stroke="#000000" points="901,-842.5 901,-872.5 1221,-872.5 1221,-842.5 901,-842.5"/>
<text text-anchor="start" x="908" y="-853.9" font-family="Arial" font-size="14.00" fill="#000000">article_id    </text>
<text text-anchor="start" x="998.2062" y="-853.9" font-family="Arial" font-size="14.00" fill="#666666">[bigint]</text>
<polygon fill="none" stroke="#000000" points="901,-812.5 901,-842.5 1221,-842.5 1221,-812.5 901,-812.5"/>
<text text-anchor="start" x="908" y="-823.9" font-family="Arial" font-size="14.00" fill="#000000">created_at    </text>
<text text-anchor="start" x="1008.3422" y="-823.9" font-family="Arial" font-size="14.00" fill="#666666">[timestamp(6) without time zone]</text>
<polygon fill="none" stroke="#000000" points="901,-782.5 901,-812.5 1221,-812.5 1221,-782.5 901,-782.5"/>
<text text-anchor="start" x="907.7546" y="-793.9" font-family="Arial" font-size="14.00" fill="#000000">updated_at    </text>
<text text-anchor="start" x="1012.0014" y="-793.9" font-family="Arial" font-size="14.00" fill="#666666">[timestamp(6) without time zone]</text>
</g>
<!-- public.likes&#45;&gt;public.articles -->
<g id="edge3" class="edge">
<title>public.likes:article_id&#45;&gt;public.articles:id</title>
<path fill="none" stroke="#000000" d="M890.5852,-856.3151C852.2073,-846.6407 873.8197,-779.9825 901,-740 925.4524,-704.0301 967.5476,-739.9699 992,-704 1016.1121,-668.5308 1034.8889,-607.5 992,-607.5"/>
<polygon fill="#000000" stroke="#000000" points="891.0641,-856.3695 900.4913,-861.9712 896.032,-856.9347 901,-857.5 901,-857.5 901,-857.5 896.032,-856.9347 901.5087,-853.0288 891.0641,-856.3695 891.0641,-856.3695"/>
<text text-anchor="start" x="908.1175" y="-841.5" font-family="Arial" font-size="10.00" fill="#000000">FOREIGN KEY (article_id) REFERENCES articles(id)</text>
</g>
<!-- public.applicant_articles -->
<g id="node5" class="node">
<title>public.applicant_articles</title>
<polygon fill="#efefef" stroke="transparent" points="1325,-932.5 1325,-967.5 1657,-967.5 1657,-932.5 1325,-932.5"/>
<polygon fill="none" stroke="#000000" points="1325,-932.5 1325,-967.5 1657,-967.5 1657,-932.5 1325,-932.5"/>
<text text-anchor="start" x="1331.6999" y="-945.3" font-family="Arial Bold" font-size="18.00" fill="#000000">public.applicant_articles</text>
<text text-anchor="start" x="1522.7321" y="-945.3" font-family="Arial" font-size="14.00" fill="#000000">    </text>
<text text-anchor="start" x="1556.9369" y="-945.3" font-family="Arial" font-size="14.00" fill="#666666">[BASE TABLE]</text>
<polygon fill="none" stroke="#000000" points="1325,-902.5 1325,-932.5 1657,-932.5 1657,-902.5 1325,-902.5"/>
<text text-anchor="start" x="1332" y="-913.9" font-family="Arial" font-size="14.00" fill="#000000">id    </text>
<text text-anchor="start" x="1377.094" y="-913.9" font-family="Arial" font-size="14.00" fill="#666666">[bigint]</text>
<polygon fill="none" stroke="#000000" points="1325,-872.5 1325,-902.5 1657,-902.5 1657,-872.5 1325,-872.5"/>
<text text-anchor="start" x="1332" y="-883.9" font-family="Arial" font-size="14.00" fill="#000000">applicant_id    </text>
<text text-anchor="start" x="1440.8934" y="-883.9" font-family="Arial" font-size="14.00" fill="#666666">[bigint]</text>
<polygon fill="none" stroke="#000000" points="1325,-842.5 1325,-872.5 1657,-872.5 1657,-842.5 1325,-842.5"/>
<text text-anchor="start" x="1332" y="-853.9" font-family="Arial" font-size="14.00" fill="#000000">article_id    </text>
<text text-anchor="start" x="1422.2062" y="-853.9" font-family="Arial" font-size="14.00" fill="#666666">[bigint]</text>
<polygon fill="none" stroke="#000000" points="1325,-812.5 1325,-842.5 1657,-842.5 1657,-812.5 1325,-812.5"/>
<text text-anchor="start" x="1332" y="-823.9" font-family="Arial" font-size="14.00" fill="#000000">created_at    </text>
<text text-anchor="start" x="1432.3422" y="-823.9" font-family="Arial" font-size="14.00" fill="#666666">[timestamp(6) without time zone]</text>
<polygon fill="none" stroke="#000000" points="1325,-782.5 1325,-812.5 1657,-812.5 1657,-782.5 1325,-782.5"/>
<text text-anchor="start" x="1332" y="-793.9" font-family="Arial" font-size="14.00" fill="#000000">updated_at    </text>
<text text-anchor="start" x="1436.2468" y="-793.9" font-family="Arial" font-size="14.00" fill="#666666">[timestamp(6) without time zone]</text>
</g>
<!-- public.applicant_articles&#45;&gt;public.articles -->
<g id="edge4" class="edge">
<title>public.applicant_articles:article_id&#45;&gt;public.articles:id</title>
<path fill="none" stroke="#000000" d="M1314.9192,-856.519C1273.4948,-847.4793 1310.2451,-778.1487 1273,-740 1176.5422,-641.202 1130.0766,-607.5 992,-607.5"/>
<polygon fill="#000000" stroke="#000000" points="1315.047,-856.5314 1324.5641,-861.9788 1320.0235,-857.0157 1325,-857.5 1325,-857.5 1325,-857.5 1320.0235,-857.0157 1325.4359,-853.0212 1315.047,-856.5314 1315.047,-856.5314"/>
<text text-anchor="start" x="1331.8365" y="-867.5" font-family="Arial" font-size="10.00" fill="#000000">FOREIGN KEY (article_id) REFERENCES articles(id) ON DELETE CASCADE</text>
</g>
</g>
</svg>
