<?xml version="1.0" encoding="UTF-8" standalone="no"?>
<!DOCTYPE svg PUBLIC "-//W3C//DTD SVG 1.1//EN"
 "http://www.w3.org/Graphics/SVG/1.1/DTD/svg11.dtd">
<!-- Generated by graphviz version 2.40.1 (20161225.0304)
 -->
<!-- Title: public.articles Pages: 1 -->
<svg width="1272pt" height="1619pt"
 viewBox="0.00 0.00 1271.50 1619.00" xmlns="http://www.w3.org/2000/svg" xmlns:xlink="http://www.w3.org/1999/xlink">
<g id="graph0" class="graph" transform="scale(1 1) rotate(0) translate(4 1615)">
<title>public.articles</title>
<polygon fill="#ffffff" stroke="transparent" points="-4,4 -4,-1615 1267.5,-1615 1267.5,4 -4,4"/>
<!-- public.articles -->
<g id="node1" class="node">
<title>public.articles</title>
<polygon fill="#efefef" stroke="transparent" points="491.5,-1222.5 491.5,-1257.5 781.5,-1257.5 781.5,-1222.5 491.5,-1222.5"/>
<polygon fill="none" stroke="#000000" points="491.5,-1222.5 491.5,-1257.5 781.5,-1257.5 781.5,-1222.5 491.5,-1222.5"/>
<text text-anchor="start" x="518.2138" y="-1235.3" font-family="Arial Bold" font-size="18.00" fill="#000000">public.articles</text>
<text text-anchor="start" x="627.2182" y="-1235.3" font-family="Arial" font-size="14.00" fill="#000000">    </text>
<text text-anchor="start" x="661.423" y="-1235.3" font-family="Arial" font-size="14.00" fill="#666666">[BASE TABLE]</text>
<polygon fill="none" stroke="#000000" points="491.5,-1192.5 491.5,-1222.5 781.5,-1222.5 781.5,-1192.5 491.5,-1192.5"/>
<text text-anchor="start" x="498.5" y="-1203.9" font-family="Arial" font-size="14.00" fill="#000000">id </text>
<text text-anchor="start" x="513.2798" y="-1203.9" font-family="Arial" font-size="14.00" fill="#666666">[bigint]</text>
<polygon fill="none" stroke="#000000" points="491.5,-1162.5 491.5,-1192.5 781.5,-1192.5 781.5,-1162.5 491.5,-1162.5"/>
<text text-anchor="start" x="498.5" y="-1173.9" font-family="Arial" font-size="14.00" fill="#000000">body </text>
<text text-anchor="start" x="532.7384" y="-1173.9" font-family="Arial" font-size="14.00" fill="#666666">[text]</text>
<polygon fill="none" stroke="#000000" points="491.5,-1132.5 491.5,-1162.5 781.5,-1162.5 781.5,-1132.5 491.5,-1132.5"/>
<text text-anchor="start" x="498.5" y="-1143.9" font-family="Arial" font-size="14.00" fill="#000000">user_id </text>
<text text-anchor="start" x="548.2882" y="-1143.9" font-family="Arial" font-size="14.00" fill="#666666">[bigint]</text>
<polygon fill="none" stroke="#000000" points="491.5,-1102.5 491.5,-1132.5 781.5,-1132.5 781.5,-1102.5 491.5,-1102.5"/>
<text text-anchor="start" x="498.5" y="-1113.9" font-family="Arial" font-size="14.00" fill="#000000">created_at </text>
<text text-anchor="start" x="568.528" y="-1113.9" font-family="Arial" font-size="14.00" fill="#666666">[timestamp(6) without time zone]</text>
<polygon fill="none" stroke="#000000" points="491.5,-1072.5 491.5,-1102.5 781.5,-1102.5 781.5,-1072.5 491.5,-1072.5"/>
<text text-anchor="start" x="498.4117" y="-1083.9" font-family="Arial" font-size="14.00" fill="#000000">updated_at </text>
<text text-anchor="start" x="572.3443" y="-1083.9" font-family="Arial" font-size="14.00" fill="#666666">[timestamp(6) without time zone]</text>
<polygon fill="none" stroke="#000000" points="491.5,-1042.5 491.5,-1072.5 781.5,-1072.5 781.5,-1042.5 491.5,-1042.5"/>
<text text-anchor="start" x="498.5" y="-1053.9" font-family="Arial" font-size="14.00" fill="#000000">impressions_count </text>
<text text-anchor="start" x="619.0764" y="-1053.9" font-family="Arial" font-size="14.00" fill="#666666">[integer]</text>
<polygon fill="none" stroke="#000000" points="491.5,-1012.5 491.5,-1042.5 781.5,-1042.5 781.5,-1012.5 491.5,-1012.5"/>
<text text-anchor="start" x="498.5" y="-1023.9" font-family="Arial" font-size="14.00" fill="#000000">start_time </text>
<text text-anchor="start" x="563.838" y="-1023.9" font-family="Arial" font-size="14.00" fill="#666666">[timestamp(6) without time zone]</text>
<polygon fill="none" stroke="#000000" points="491.5,-982.5 491.5,-1012.5 781.5,-1012.5 781.5,-982.5 491.5,-982.5"/>
<text text-anchor="start" x="498.5" y="-993.9" font-family="Arial" font-size="14.00" fill="#000000">end_time </text>
<text text-anchor="start" x="559.9614" y="-993.9" font-family="Arial" font-size="14.00" fill="#666666">[timestamp(6) without time zone]</text>
<polygon fill="none" stroke="#000000" points="491.5,-952.5 491.5,-982.5 781.5,-982.5 781.5,-952.5 491.5,-952.5"/>
<text text-anchor="start" x="498.5" y="-963.9" font-family="Arial" font-size="14.00" fill="#000000">title </text>
<text text-anchor="start" x="524.1676" y="-963.9" font-family="Arial" font-size="14.00" fill="#666666">[varchar]</text>
<polygon fill="none" stroke="#000000" points="491.5,-922.5 491.5,-952.5 781.5,-952.5 781.5,-922.5 491.5,-922.5"/>
<text text-anchor="start" x="498.5" y="-933.9" font-family="Arial" font-size="14.00" fill="#000000">application_deadline </text>
<text text-anchor="start" x="629.988" y="-933.9" font-family="Arial" font-size="14.00" fill="#666666">[date]</text>
<polygon fill="none" stroke="#000000" points="491.5,-892.5 491.5,-922.5 781.5,-922.5 781.5,-892.5 491.5,-892.5"/>
<text text-anchor="start" x="498.5" y="-903.9" font-family="Arial" font-size="14.00" fill="#000000">salary_details </text>
<text text-anchor="start" x="587.9572" y="-903.9" font-family="Arial" font-size="14.00" fill="#666666">[text]</text>
<polygon fill="none" stroke="#000000" points="491.5,-862.5 491.5,-892.5 781.5,-892.5 781.5,-862.5 491.5,-862.5"/>
<text text-anchor="start" x="498.5" y="-873.9" font-family="Arial" font-size="14.00" fill="#000000">work_location </text>
<text text-anchor="start" x="587.9572" y="-873.9" font-family="Arial" font-size="14.00" fill="#666666">[varchar]</text>
<polygon fill="none" stroke="#000000" points="491.5,-832.5 491.5,-862.5 781.5,-862.5 781.5,-832.5 491.5,-832.5"/>
<text text-anchor="start" x="498.5" y="-843.9" font-family="Arial" font-size="14.00" fill="#000000">language_requirement </text>
<text text-anchor="start" x="642.4326" y="-843.9" font-family="Arial" font-size="14.00" fill="#666666">[varchar]</text>
<polygon fill="none" stroke="#000000" points="491.5,-802.5 491.5,-832.5 781.5,-832.5 781.5,-802.5 491.5,-802.5"/>
<text text-anchor="start" x="498.5" y="-813.9" font-family="Arial" font-size="14.00" fill="#000000">japanese_level </text>
<text text-anchor="start" x="595.7538" y="-813.9" font-family="Arial" font-size="14.00" fill="#666666">[varchar]</text>
<polygon fill="none" stroke="#000000" points="491.5,-772.5 491.5,-802.5 781.5,-802.5 781.5,-772.5 491.5,-772.5"/>
<text text-anchor="start" x="498.5" y="-783.9" font-family="Arial" font-size="14.00" fill="#000000">skills_required </text>
<text text-anchor="start" x="591.8338" y="-783.9" font-family="Arial" font-size="14.00" fill="#666666">[text]</text>
<polygon fill="none" stroke="#000000" points="491.5,-742.5 491.5,-772.5 781.5,-772.5 781.5,-742.5 491.5,-742.5"/>
<text text-anchor="start" x="498.5" y="-753.9" font-family="Arial" font-size="14.00" fill="#000000">employment_type </text>
<text text-anchor="start" x="612.8604" y="-753.9" font-family="Arial" font-size="14.00" fill="#666666">[varchar]</text>
<polygon fill="none" stroke="#000000" points="491.5,-712.5 491.5,-742.5 781.5,-742.5 781.5,-712.5 491.5,-712.5"/>
<text text-anchor="start" x="498.5" y="-723.9" font-family="Arial" font-size="14.00" fill="#000000">description </text>
<text text-anchor="start" x="570.068" y="-723.9" font-family="Arial" font-size="14.00" fill="#666666">[text]</text>
<polygon fill="none" stroke="#000000" points="491.5,-682.5 491.5,-712.5 781.5,-712.5 781.5,-682.5 491.5,-682.5"/>
<text text-anchor="start" x="498.5" y="-693.9" font-family="Arial" font-size="14.00" fill="#000000">work_hours </text>
<text text-anchor="start" x="574.7314" y="-693.9" font-family="Arial" font-size="14.00" fill="#666666">[varchar]</text>
<polygon fill="none" stroke="#000000" points="491.5,-652.5 491.5,-682.5 781.5,-682.5 781.5,-652.5 491.5,-652.5"/>
<text text-anchor="start" x="498.5" y="-663.9" font-family="Arial" font-size="14.00" fill="#000000">trial_period </text>
<text text-anchor="start" x="571.6178" y="-663.9" font-family="Arial" font-size="14.00" fill="#666666">[varchar]</text>
<polygon fill="none" stroke="#000000" points="491.5,-622.5 491.5,-652.5 781.5,-652.5 781.5,-622.5 491.5,-622.5"/>
<text text-anchor="start" x="498.5" y="-633.9" font-family="Arial" font-size="14.00" fill="#000000">days_off </text>
<text text-anchor="start" x="555.3022" y="-633.9" font-family="Arial" font-size="14.00" fill="#666666">[varchar]</text>
<polygon fill="none" stroke="#000000" points="491.5,-592.5 491.5,-622.5 781.5,-622.5 781.5,-592.5 491.5,-592.5"/>
<text text-anchor="start" x="498.5" y="-603.9" font-family="Arial" font-size="14.00" fill="#000000">overtime </text>
<text text-anchor="start" x="556.0568" y="-603.9" font-family="Arial" font-size="14.00" fill="#666666">[varchar]</text>
<polygon fill="none" stroke="#000000" points="491.5,-562.5 491.5,-592.5 781.5,-592.5 781.5,-562.5 491.5,-562.5"/>
<text text-anchor="start" x="498.5" y="-573.9" font-family="Arial" font-size="14.00" fill="#000000">transportation </text>
<text text-anchor="start" x="587.9684" y="-573.9" font-family="Arial" font-size="14.00" fill="#666666">[varchar]</text>
<polygon fill="none" stroke="#000000" points="491.5,-532.5 491.5,-562.5 781.5,-562.5 781.5,-532.5 491.5,-532.5"/>
<text text-anchor="start" x="498.5" y="-543.9" font-family="Arial" font-size="14.00" fill="#000000">work_environment </text>
<text text-anchor="start" x="616.737" y="-543.9" font-family="Arial" font-size="14.00" fill="#666666">[varchar]</text>
<polygon fill="none" stroke="#000000" points="491.5,-502.5 491.5,-532.5 781.5,-532.5 781.5,-502.5 491.5,-502.5"/>
<text text-anchor="start" x="498.5" y="-513.9" font-family="Arial" font-size="14.00" fill="#000000">other_allowances </text>
<text text-anchor="start" x="611.305" y="-513.9" font-family="Arial" font-size="14.00" fill="#666666">[varchar]</text>
<polygon fill="none" stroke="#000000" points="491.5,-472.5 491.5,-502.5 781.5,-502.5 781.5,-472.5 491.5,-472.5"/>
<text text-anchor="start" x="498.5" y="-483.9" font-family="Arial" font-size="14.00" fill="#000000">insurance </text>
<text text-anchor="start" x="563.0708" y="-483.9" font-family="Arial" font-size="14.00" fill="#666666">[varchar]</text>
<polygon fill="none" stroke="#000000" points="491.5,-442.5 491.5,-472.5 781.5,-472.5 781.5,-442.5 491.5,-442.5"/>
<text text-anchor="start" x="498.5" y="-453.9" font-family="Arial" font-size="14.00" fill="#000000">other_benefits </text>
<text text-anchor="start" x="591.0904" y="-453.9" font-family="Arial" font-size="14.00" fill="#666666">[varchar]</text>
<polygon fill="none" stroke="#000000" points="491.5,-412.5 491.5,-442.5 781.5,-442.5 781.5,-412.5 491.5,-412.5"/>
<text text-anchor="start" x="498.5" y="-423.9" font-family="Arial" font-size="14.00" fill="#000000">status </text>
<text text-anchor="start" x="539.737" y="-423.9" font-family="Arial" font-size="14.00" fill="#666666">[integer]</text>
<polygon fill="none" stroke="#000000" stroke-width="3" points="490,-411.5 490,-1259.5 783,-1259.5 783,-411.5 490,-411.5"/>
</g>
<!-- public.users -->
<g id="node5" class="node">
<title>public.users</title>
<polygon fill="#efefef" stroke="transparent" points="476.5,-252.5 476.5,-287.5 796.5,-287.5 796.5,-252.5 476.5,-252.5"/>
<polygon fill="none" stroke="#000000" points="476.5,-252.5 476.5,-287.5 796.5,-287.5 796.5,-252.5 476.5,-252.5"/>
<text text-anchor="start" x="524.7091" y="-265.3" font-family="Arial Bold" font-size="18.00" fill="#000000">public.users</text>
<text text-anchor="start" x="620.7229" y="-265.3" font-family="Arial" font-size="14.00" fill="#000000">    </text>
<text text-anchor="start" x="654.9277" y="-265.3" font-family="Arial" font-size="14.00" fill="#666666">[BASE TABLE]</text>
<polygon fill="none" stroke="#000000" points="476.5,-222.5 476.5,-252.5 796.5,-252.5 796.5,-222.5 476.5,-222.5"/>
<text text-anchor="start" x="483.5" y="-233.9" font-family="Arial" font-size="14.00" fill="#000000">id    </text>
<text text-anchor="start" x="528.594" y="-233.9" font-family="Arial" font-size="14.00" fill="#666666">[bigint]</text>
<polygon fill="none" stroke="#000000" points="476.5,-192.5 476.5,-222.5 796.5,-222.5 796.5,-192.5 476.5,-192.5"/>
<text text-anchor="start" x="483.5" y="-203.9" font-family="Arial" font-size="14.00" fill="#000000">email    </text>
<text text-anchor="start" x="551.1438" y="-203.9" font-family="Arial" font-size="14.00" fill="#666666">[varchar]</text>
<polygon fill="none" stroke="#000000" points="476.5,-162.5 476.5,-192.5 796.5,-192.5 796.5,-162.5 476.5,-162.5"/>
<text text-anchor="start" x="483.5" y="-173.9" font-family="Arial" font-size="14.00" fill="#000000">created_at    </text>
<text text-anchor="start" x="583.8422" y="-173.9" font-family="Arial" font-size="14.00" fill="#666666">[timestamp(6) without time zone]</text>
<polygon fill="none" stroke="#000000" points="476.5,-132.5 476.5,-162.5 796.5,-162.5 796.5,-132.5 476.5,-132.5"/>
<text text-anchor="start" x="483.2546" y="-143.9" font-family="Arial" font-size="14.00" fill="#000000">updated_at    </text>
<text text-anchor="start" x="587.5014" y="-143.9" font-family="Arial" font-size="14.00" fill="#666666">[timestamp(6) without time zone]</text>
<polygon fill="none" stroke="#000000" points="476.5,-102.5 476.5,-132.5 796.5,-132.5 796.5,-102.5 476.5,-102.5"/>
<text text-anchor="start" x="483.5" y="-113.9" font-family="Arial" font-size="14.00" fill="#000000">role    </text>
<text text-anchor="start" x="541.0372" y="-113.9" font-family="Arial" font-size="14.00" fill="#666666">[integer]</text>
<polygon fill="none" stroke="#000000" points="476.5,-72.5 476.5,-102.5 796.5,-102.5 796.5,-72.5 476.5,-72.5"/>
<text text-anchor="start" x="483.5" y="-83.9" font-family="Arial" font-size="14.00" fill="#000000">username    </text>
<text text-anchor="start" x="579.939" y="-83.9" font-family="Arial" font-size="14.00" fill="#666666">[varchar]</text>
<polygon fill="none" stroke="#000000" points="476.5,-42.5 476.5,-72.5 796.5,-72.5 796.5,-42.5 476.5,-42.5"/>
<text text-anchor="start" x="483.5" y="-53.9" font-family="Arial" font-size="14.00" fill="#000000">avatar    </text>
<text text-anchor="start" x="556.6038" y="-53.9" font-family="Arial" font-size="14.00" fill="#666666">[varchar]</text>
</g>
<!-- public.articles&#45;&gt;public.users -->
<g id="edge4" class="edge">
<title>public.articles:user_id&#45;&gt;public.users:id</title>
<path fill="none" stroke="#000000" d="M791.7839,-1147.3018C1186.2251,-1132.0147 1197.543,-237.5 796.5,-237.5"/>
<polygon fill="#000000" stroke="#000000" points="791.4981,-1147.3072 781.4132,-1143.0008 786.4991,-1147.4036 781.5,-1147.5 781.5,-1147.5 781.5,-1147.5 786.4991,-1147.4036 781.5868,-1151.9992 791.4981,-1147.3072 791.4981,-1147.3072"/>
<text text-anchor="start" x="788.8345" y="-1157.5" font-family="Arial" font-size="10.00" fill="#000000">FOREIGN KEY (user_id) REFERENCES users(id)</text>
</g>
<!-- public.category_articles -->
<g id="node2" class="node">
<title>public.category_articles</title>
<polygon fill="#efefef" stroke="transparent" points="43.5,-1532.5 43.5,-1567.5 372.5,-1567.5 372.5,-1532.5 43.5,-1532.5"/>
<polygon fill="none" stroke="#000000" points="43.5,-1532.5 43.5,-1567.5 372.5,-1567.5 372.5,-1532.5 43.5,-1532.5"/>
<text text-anchor="start" x="50.2011" y="-1545.3" font-family="Arial Bold" font-size="18.00" fill="#000000">public.category_articles</text>
<text text-anchor="start" x="238.2309" y="-1545.3" font-family="Arial" font-size="14.00" fill="#000000">    </text>
<text text-anchor="start" x="272.4357" y="-1545.3" font-family="Arial" font-size="14.00" fill="#666666">[BASE TABLE]</text>
<polygon fill="none" stroke="#000000" points="43.5,-1502.5 43.5,-1532.5 372.5,-1532.5 372.5,-1502.5 43.5,-1502.5"/>
<text text-anchor="start" x="50.5" y="-1513.9" font-family="Arial" font-size="14.00" fill="#000000">id    </text>
<text text-anchor="start" x="95.594" y="-1513.9" font-family="Arial" font-size="14.00" fill="#666666">[bigint]</text>
<polygon fill="none" stroke="#000000" points="43.5,-1472.5 43.5,-1502.5 372.5,-1502.5 372.5,-1472.5 43.5,-1472.5"/>
<text text-anchor="start" x="50.5" y="-1483.9" font-family="Arial" font-size="14.00" fill="#000000">category_id    </text>
<text text-anchor="start" x="157.0582" y="-1483.9" font-family="Arial" font-size="14.00" fill="#666666">[bigint]</text>
<polygon fill="none" stroke="#000000" points="43.5,-1442.5 43.5,-1472.5 372.5,-1472.5 372.5,-1442.5 43.5,-1442.5"/>
<text text-anchor="start" x="50.5" y="-1453.9" font-family="Arial" font-size="14.00" fill="#000000">article_id    </text>
<text text-anchor="start" x="140.7062" y="-1453.9" font-family="Arial" font-size="14.00" fill="#666666">[bigint]</text>
<polygon fill="none" stroke="#000000" points="43.5,-1412.5 43.5,-1442.5 372.5,-1442.5 372.5,-1412.5 43.5,-1412.5"/>
<text text-anchor="start" x="50.5" y="-1423.9" font-family="Arial" font-size="14.00" fill="#000000">created_at    </text>
<text text-anchor="start" x="150.8422" y="-1423.9" font-family="Arial" font-size="14.00" fill="#666666">[timestamp(6) without time zone]</text>
<polygon fill="none" stroke="#000000" points="43.5,-1382.5 43.5,-1412.5 372.5,-1412.5 372.5,-1382.5 43.5,-1382.5"/>
<text text-anchor="start" x="50.5" y="-1393.9" font-family="Arial" font-size="14.00" fill="#000000">updated_at    </text>
<text text-anchor="start" x="154.7468" y="-1393.9" font-family="Arial" font-size="14.00" fill="#666666">[timestamp(6) without time zone]</text>
</g>
<!-- public.category_articles&#45;&gt;public.articles -->
<g id="edge1" class="edge">
<title>public.category_articles:article_id&#45;&gt;public.articles:id</title>
<path fill="none" stroke="#000000" d="M382.4999,-1456.7003C426.022,-1449.0656 401.6272,-1388.2832 424.5,-1340 452.751,-1280.3636 425.5105,-1207.5 491.5,-1207.5"/>
<polygon fill="#000000" stroke="#000000" points="382.4682,-1456.7027 372.1412,-1453.0143 377.4841,-1457.1014 372.5,-1457.5 372.5,-1457.5 372.5,-1457.5 377.4841,-1457.1014 372.8588,-1461.9857 382.4682,-1456.7027 382.4682,-1456.7027"/>
<text text-anchor="start" x="379.6175" y="-1467.5" font-family="Arial" font-size="10.00" fill="#000000">FOREIGN KEY (article_id) REFERENCES articles(id)</text>
</g>
<!-- public.bookmarks -->
<g id="node3" class="node">
<title>public.bookmarks</title>
<polygon fill="#efefef" stroke="transparent" points="476.5,-1532.5 476.5,-1567.5 796.5,-1567.5 796.5,-1532.5 476.5,-1532.5"/>
<polygon fill="none" stroke="#000000" points="476.5,-1532.5 476.5,-1567.5 796.5,-1567.5 796.5,-1532.5 476.5,-1532.5"/>
<text text-anchor="start" x="502.7068" y="-1545.3" font-family="Arial Bold" font-size="18.00" fill="#000000">public.bookmarks</text>
<text text-anchor="start" x="642.7252" y="-1545.3" font-family="Arial" font-size="14.00" fill="#000000">    </text>
<text text-anchor="start" x="676.93" y="-1545.3" font-family="Arial" font-size="14.00" fill="#666666">[BASE TABLE]</text>
<polygon fill="none" stroke="#000000" points="476.5,-1502.5 476.5,-1532.5 796.5,-1532.5 796.5,-1502.5 476.5,-1502.5"/>
<text text-anchor="start" x="483.5" y="-1513.9" font-family="Arial" font-size="14.00" fill="#000000">id    </text>
<text text-anchor="start" x="528.594" y="-1513.9" font-family="Arial" font-size="14.00" fill="#666666">[bigint]</text>
<polygon fill="none" stroke="#000000" points="476.5,-1472.5 476.5,-1502.5 796.5,-1502.5 796.5,-1472.5 476.5,-1472.5"/>
<text text-anchor="start" x="483.5" y="-1483.9" font-family="Arial" font-size="14.00" fill="#000000">user_id    </text>
<text text-anchor="start" x="563.6024" y="-1483.9" font-family="Arial" font-size="14.00" fill="#666666">[bigint]</text>
<polygon fill="none" stroke="#000000" points="476.5,-1442.5 476.5,-1472.5 796.5,-1472.5 796.5,-1442.5 476.5,-1442.5"/>
<text text-anchor="start" x="483.5" y="-1453.9" font-family="Arial" font-size="14.00" fill="#000000">article_id    </text>
<text text-anchor="start" x="573.7062" y="-1453.9" font-family="Arial" font-size="14.00" fill="#666666">[bigint]</text>
<polygon fill="none" stroke="#000000" points="476.5,-1412.5 476.5,-1442.5 796.5,-1442.5 796.5,-1412.5 476.5,-1412.5"/>
<text text-anchor="start" x="483.5" y="-1423.9" font-family="Arial" font-size="14.00" fill="#000000">created_at    </text>
<text text-anchor="start" x="583.8422" y="-1423.9" font-family="Arial" font-size="14.00" fill="#666666">[timestamp(6) without time zone]</text>
<polygon fill="none" stroke="#000000" points="476.5,-1382.5 476.5,-1412.5 796.5,-1412.5 796.5,-1382.5 476.5,-1382.5"/>
<text text-anchor="start" x="483.2546" y="-1393.9" font-family="Arial" font-size="14.00" fill="#000000">updated_at    </text>
<text text-anchor="start" x="587.5014" y="-1393.9" font-family="Arial" font-size="14.00" fill="#666666">[timestamp(6) without time zone]</text>
</g>
<!-- public.bookmarks&#45;&gt;public.articles -->
<g id="edge2" class="edge">
<title>public.bookmarks:article_id&#45;&gt;public.articles:id</title>
<path fill="none" stroke="#000000" d="M806.1147,-1454.6924C850.1217,-1427.2266 833.677,-1207.5 781.5,-1207.5"/>
<polygon fill="#000000" stroke="#000000" points="806.0991,-1454.6969 795.2386,-1453.1804 801.2996,-1456.0984 796.5,-1457.5 796.5,-1457.5 796.5,-1457.5 801.2996,-1456.0984 797.7614,-1461.8196 806.0991,-1454.6969 806.0991,-1454.6969"/>
<text text-anchor="start" x="803.6175" y="-1467.5" font-family="Arial" font-size="10.00" fill="#000000">FOREIGN KEY (article_id) REFERENCES articles(id)</text>
</g>
<!-- public.likes -->
<g id="node4" class="node">
<title>public.likes</title>
<polygon fill="#efefef" stroke="transparent" points="900.5,-1532.5 900.5,-1567.5 1220.5,-1567.5 1220.5,-1532.5 900.5,-1532.5"/>
<polygon fill="none" stroke="#000000" points="900.5,-1532.5 900.5,-1567.5 1220.5,-1567.5 1220.5,-1532.5 900.5,-1532.5"/>
<text text-anchor="start" x="952.7141" y="-1545.3" font-family="Arial Bold" font-size="18.00" fill="#000000">public.likes</text>
<text text-anchor="start" x="1040.7179" y="-1545.3" font-family="Arial" font-size="14.00" fill="#000000">    </text>
<text text-anchor="start" x="1074.9227" y="-1545.3" font-family="Arial" font-size="14.00" fill="#666666">[BASE TABLE]</text>
<polygon fill="none" stroke="#000000" points="900.5,-1502.5 900.5,-1532.5 1220.5,-1532.5 1220.5,-1502.5 900.5,-1502.5"/>
<text text-anchor="start" x="907.5" y="-1513.9" font-family="Arial" font-size="14.00" fill="#000000">id    </text>
<text text-anchor="start" x="952.594" y="-1513.9" font-family="Arial" font-size="14.00" fill="#666666">[bigint]</text>
<polygon fill="none" stroke="#000000" points="900.5,-1472.5 900.5,-1502.5 1220.5,-1502.5 1220.5,-1472.5 900.5,-1472.5"/>
<text text-anchor="start" x="907.5" y="-1483.9" font-family="Arial" font-size="14.00" fill="#000000">user_id    </text>
<text text-anchor="start" x="987.6024" y="-1483.9" font-family="Arial" font-size="14.00" fill="#666666">[bigint]</text>
<polygon fill="none" stroke="#000000" points="900.5,-1442.5 900.5,-1472.5 1220.5,-1472.5 1220.5,-1442.5 900.5,-1442.5"/>
<text text-anchor="start" x="907.5" y="-1453.9" font-family="Arial" font-size="14.00" fill="#000000">article_id    </text>
<text text-anchor="start" x="997.7062" y="-1453.9" font-family="Arial" font-size="14.00" fill="#666666">[bigint]</text>
<polygon fill="none" stroke="#000000" points="900.5,-1412.5 900.5,-1442.5 1220.5,-1442.5 1220.5,-1412.5 900.5,-1412.5"/>
<text text-anchor="start" x="907.5" y="-1423.9" font-family="Arial" font-size="14.00" fill="#000000">created_at    </text>
<text text-anchor="start" x="1007.8422" y="-1423.9" font-family="Arial" font-size="14.00" fill="#666666">[timestamp(6) without time zone]</text>
<polygon fill="none" stroke="#000000" points="900.5,-1382.5 900.5,-1412.5 1220.5,-1412.5 1220.5,-1382.5 900.5,-1382.5"/>
<text text-anchor="start" x="907.2546" y="-1393.9" font-family="Arial" font-size="14.00" fill="#000000">updated_at    </text>
<text text-anchor="start" x="1011.5014" y="-1393.9" font-family="Arial" font-size="14.00" fill="#666666">[timestamp(6) without time zone]</text>
</g>
<!-- public.likes&#45;&gt;public.articles -->
<g id="edge3" class="edge">
<title>public.likes:article_id&#45;&gt;public.articles:id</title>
<path fill="none" stroke="#000000" d="M890.5001,-1456.7003C846.978,-1449.0656 871.3728,-1388.2832 848.5,-1340 820.249,-1280.3636 847.4895,-1207.5 781.5,-1207.5"/>
<polygon fill="#000000" stroke="#000000" points="890.5318,-1456.7027 900.1412,-1461.9857 895.5159,-1457.1014 900.5,-1457.5 900.5,-1457.5 900.5,-1457.5 895.5159,-1457.1014 900.8588,-1453.0143 890.5318,-1456.7027 890.5318,-1456.7027"/>
<text text-anchor="start" x="907.6175" y="-1441.5" font-family="Arial" font-size="10.00" fill="#000000">FOREIGN KEY (article_id) REFERENCES articles(id)</text>
</g>
</g>
</svg>
