<?xml version="1.0" encoding="UTF-8" standalone="no"?>
<!DOCTYPE svg PUBLIC "-//W3C//DTD SVG 1.1//EN"
 "http://www.w3.org/Graphics/SVG/1.1/DTD/svg11.dtd">
<!-- Generated by graphviz version 2.40.1 (20161225.0304)
 -->
<!-- Title: public.active_storage_blobs Pages: 1 -->
<svg width="1060pt" height="742pt"
 viewBox="0.00 0.00 1060.00 742.00" xmlns="http://www.w3.org/2000/svg" xmlns:xlink="http://www.w3.org/1999/xlink">
<g id="graph0" class="graph" transform="scale(1 1) rotate(0) translate(4 738)">
<title>public.active_storage_blobs</title>
<polygon fill="#ffffff" stroke="transparent" points="-4,4 -4,-738 1056,-738 1056,4 -4,4"/>
<!-- public.active_storage_blobs -->
<g id="node1" class="node">
<title>public.active_storage_blobs</title>
<polygon fill="#efefef" stroke="transparent" points="337,-315.5 337,-350.5 700,-350.5 700,-315.5 337,-315.5"/>
<polygon fill="none" stroke="#000000" points="337,-315.5 337,-350.5 700,-350.5 700,-315.5 337,-315.5"/>
<text text-anchor="start" x="343.6848" y="-328.3" font-family="Arial Bold" font-size="18.00" fill="#000000">public.active_storage_blobs</text>
<text text-anchor="start" x="565.7472" y="-328.3" font-family="Arial" font-size="14.00" fill="#000000">    </text>
<text text-anchor="start" x="599.952" y="-328.3" font-family="Arial" font-size="14.00" fill="#666666">[BASE TABLE]</text>
<polygon fill="none" stroke="#000000" points="337,-285.5 337,-315.5 700,-315.5 700,-285.5 337,-285.5"/>
<text text-anchor="start" x="344" y="-296.9" font-family="Arial" font-size="14.00" fill="#000000">id </text>
<text text-anchor="start" x="358.7798" y="-296.9" font-family="Arial" font-size="14.00" fill="#666666">[bigint]</text>
<polygon fill="none" stroke="#000000" points="337,-255.5 337,-285.5 700,-285.5 700,-255.5 337,-255.5"/>
<text text-anchor="start" x="344" y="-266.9" font-family="Arial" font-size="14.00" fill="#000000">key </text>
<text text-anchor="start" x="369.6732" y="-266.9" font-family="Arial" font-size="14.00" fill="#666666">[varchar]</text>
<polygon fill="none" stroke="#000000" points="337,-225.5 337,-255.5 700,-255.5 700,-225.5 337,-225.5"/>
<text text-anchor="start" x="344" y="-236.9" font-family="Arial" font-size="14.00" fill="#000000">filename </text>
<text text-anchor="start" x="400.7854" y="-236.9" font-family="Arial" font-size="14.00" fill="#666666">[varchar]</text>
<polygon fill="none" stroke="#000000" points="337,-195.5 337,-225.5 700,-225.5 700,-195.5 337,-195.5"/>
<text text-anchor="start" x="344" y="-206.9" font-family="Arial" font-size="14.00" fill="#000000">content_type </text>
<text text-anchor="start" x="428.0406" y="-206.9" font-family="Arial" font-size="14.00" fill="#666666">[varchar]</text>
<polygon fill="none" stroke="#000000" points="337,-165.5 337,-195.5 700,-195.5 700,-165.5 337,-165.5"/>
<text text-anchor="start" x="344" y="-176.9" font-family="Arial" font-size="14.00" fill="#000000">metadata </text>
<text text-anchor="start" x="406.2454" y="-176.9" font-family="Arial" font-size="14.00" fill="#666666">[text]</text>
<polygon fill="none" stroke="#000000" points="337,-135.5 337,-165.5 700,-165.5 700,-135.5 337,-135.5"/>
<text text-anchor="start" x="344" y="-146.9" font-family="Arial" font-size="14.00" fill="#000000">service_name </text>
<text text-anchor="start" x="435.014" y="-146.9" font-family="Arial" font-size="14.00" fill="#666666">[varchar]</text>
<polygon fill="none" stroke="#000000" points="337,-105.5 337,-135.5 700,-135.5 700,-105.5 337,-105.5"/>
<text text-anchor="start" x="344" y="-116.9" font-family="Arial" font-size="14.00" fill="#000000">byte_size </text>
<text text-anchor="start" x="407.0182" y="-116.9" font-family="Arial" font-size="14.00" fill="#666666">[bigint]</text>
<polygon fill="none" stroke="#000000" points="337,-75.5 337,-105.5 700,-105.5 700,-75.5 337,-75.5"/>
<text text-anchor="start" x="344" y="-86.9" font-family="Arial" font-size="14.00" fill="#000000">checksum </text>
<text text-anchor="start" x="410.899" y="-86.9" font-family="Arial" font-size="14.00" fill="#666666">[varchar]</text>
<polygon fill="none" stroke="#000000" points="337,-45.5 337,-75.5 700,-75.5 700,-45.5 337,-45.5"/>
<text text-anchor="start" x="344" y="-56.9" font-family="Arial" font-size="14.00" fill="#000000">created_at </text>
<text text-anchor="start" x="414.028" y="-56.9" font-family="Arial" font-size="14.00" fill="#666666">[timestamp(6) without time zone]</text>
<polygon fill="none" stroke="#000000" stroke-width="3" points="335,-44.5 335,-352.5 701,-352.5 701,-44.5 335,-44.5"/>
</g>
<!-- public.active_storage_attachments -->
<g id="node2" class="node">
<title>public.active_storage_attachments</title>
<polygon fill="#efefef" stroke="transparent" points="43,-655.5 43,-690.5 461,-690.5 461,-655.5 43,-655.5"/>
<polygon fill="none" stroke="#000000" points="43,-655.5 43,-690.5 461,-690.5 461,-655.5 43,-655.5"/>
<text text-anchor="start" x="49.6763" y="-668.3" font-family="Arial Bold" font-size="18.00" fill="#000000">public.active_storage_attachments</text>
<text text-anchor="start" x="326.7557" y="-668.3" font-family="Arial" font-size="14.00" fill="#000000">    </text>
<text text-anchor="start" x="360.9605" y="-668.3" font-family="Arial" font-size="14.00" fill="#666666">[BASE TABLE]</text>
<polygon fill="none" stroke="#000000" points="43,-625.5 43,-655.5 461,-655.5 461,-625.5 43,-625.5"/>
<text text-anchor="start" x="50" y="-636.9" font-family="Arial" font-size="14.00" fill="#000000">id    </text>
<text text-anchor="start" x="95.094" y="-636.9" font-family="Arial" font-size="14.00" fill="#666666">[bigint]</text>
<polygon fill="none" stroke="#000000" points="43,-595.5 43,-625.5 461,-625.5 461,-595.5 43,-595.5"/>
<text text-anchor="start" x="50" y="-606.9" font-family="Arial" font-size="14.00" fill="#000000">name    </text>
<text text-anchor="start" x="119.2132" y="-606.9" font-family="Arial" font-size="14.00" fill="#666666">[varchar]</text>
<polygon fill="none" stroke="#000000" points="43,-565.5 43,-595.5 461,-595.5 461,-565.5 43,-565.5"/>
<text text-anchor="start" x="50" y="-576.9" font-family="Arial" font-size="14.00" fill="#000000">record_type    </text>
<text text-anchor="start" x="158.1122" y="-576.9" font-family="Arial" font-size="14.00" fill="#666666">[varchar]</text>
<polygon fill="none" stroke="#000000" points="43,-535.5 43,-565.5 461,-565.5 461,-535.5 43,-535.5"/>
<text text-anchor="start" x="50" y="-546.9" font-family="Arial" font-size="14.00" fill="#000000">record_id    </text>
<text text-anchor="start" x="142.5456" y="-546.9" font-family="Arial" font-size="14.00" fill="#666666">[bigint]</text>
<polygon fill="none" stroke="#000000" points="43,-505.5 43,-535.5 461,-535.5 461,-505.5 43,-505.5"/>
<text text-anchor="start" x="50" y="-516.9" font-family="Arial" font-size="14.00" fill="#000000">blob_id    </text>
<text text-anchor="start" x="129.331" y="-516.9" font-family="Arial" font-size="14.00" fill="#666666">[bigint]</text>
<polygon fill="none" stroke="#000000" points="43,-475.5 43,-505.5 461,-505.5 461,-475.5 43,-475.5"/>
<text text-anchor="start" x="50" y="-486.9" font-family="Arial" font-size="14.00" fill="#000000">created_at    </text>
<text text-anchor="start" x="150.3422" y="-486.9" font-family="Arial" font-size="14.00" fill="#666666">[timestamp(6) without time zone]</text>
</g>
<!-- public.active_storage_attachments&#45;&gt;public.active_storage_blobs -->
<g id="edge1" class="edge">
<title>public.active_storage_attachments:blob_id&#45;&gt;public.active_storage_blobs:id</title>
<path fill="none" stroke="#000000" d="M471.2136,-518.8402C496.6525,-509.3041 481.9809,-460.9384 461,-433 426.5395,-387.112 371.4605,-442.888 337,-397 311.2454,-362.7048 294.1111,-300.5 337,-300.5"/>
<polygon fill="#000000" stroke="#000000" points="470.8705,-518.8959 460.2781,-516.0583 465.9353,-519.6979 461,-520.5 461,-520.5 461,-520.5 465.9353,-519.6979 461.7219,-524.9417 470.8705,-518.8959 470.8705,-518.8959"/>
<text text-anchor="start" x="467.5965" y="-530.5" font-family="Arial" font-size="10.00" fill="#000000">FOREIGN KEY (blob_id) REFERENCES active_storage_blobs(id)</text>
</g>
<!-- public.active_storage_variant_records -->
<g id="node3" class="node">
<title>public.active_storage_variant_records</title>
<polygon fill="#efefef" stroke="transparent" points="565,-610.5 565,-645.5 1009,-645.5 1009,-610.5 565,-610.5"/>
<polygon fill="none" stroke="#000000" points="565,-610.5 565,-645.5 1009,-645.5 1009,-610.5 565,-610.5"/>
<text text-anchor="start" x="571.683" y="-623.3" font-family="Arial Bold" font-size="18.00" fill="#000000">public.active_storage_variant_records</text>
<text text-anchor="start" x="874.749" y="-623.3" font-family="Arial" font-size="14.00" fill="#000000">    </text>
<text text-anchor="start" x="908.9538" y="-623.3" font-family="Arial" font-size="14.00" fill="#666666">[BASE TABLE]</text>
<polygon fill="none" stroke="#000000" points="565,-580.5 565,-610.5 1009,-610.5 1009,-580.5 565,-580.5"/>
<text text-anchor="start" x="572" y="-591.9" font-family="Arial" font-size="14.00" fill="#000000">id    </text>
<text text-anchor="start" x="617.094" y="-591.9" font-family="Arial" font-size="14.00" fill="#666666">[bigint]</text>
<polygon fill="none" stroke="#000000" points="565,-550.5 565,-580.5 1009,-580.5 1009,-550.5 565,-550.5"/>
<text text-anchor="start" x="572" y="-561.9" font-family="Arial" font-size="14.00" fill="#000000">blob_id    </text>
<text text-anchor="start" x="651.331" y="-561.9" font-family="Arial" font-size="14.00" fill="#666666">[bigint]</text>
<polygon fill="none" stroke="#000000" points="565,-520.5 565,-550.5 1009,-550.5 1009,-520.5 565,-520.5"/>
<text text-anchor="start" x="572" y="-531.9" font-family="Arial" font-size="14.00" fill="#000000">variation_digest    </text>
<text text-anchor="start" x="704.2272" y="-531.9" font-family="Arial" font-size="14.00" fill="#666666">[varchar]</text>
</g>
<!-- public.active_storage_variant_records&#45;&gt;public.active_storage_blobs -->
<g id="edge2" class="edge">
<title>public.active_storage_variant_records:blob_id&#45;&gt;public.active_storage_blobs:id</title>
<path fill="none" stroke="#000000" d="M554.9029,-563.9165C530.1126,-554.805 547.7855,-508.4041 565,-478 599.4748,-417.1109 665.5252,-457.8891 700,-397 721.1313,-359.6781 742.8889,-300.5 700,-300.5"/>
<polygon fill="#000000" stroke="#000000" points="555.1207,-563.9506 564.3028,-569.9457 560.0604,-564.7253 565,-565.5 565,-565.5 565,-565.5 560.0604,-564.7253 565.6972,-561.0543 555.1207,-563.9506 555.1207,-563.9506"/>
<text text-anchor="start" x="571.5965" y="-575.5" font-family="Arial" font-size="10.00" fill="#000000">FOREIGN KEY (blob_id) REFERENCES active_storage_blobs(id)</text>
</g>
</g>
</svg>
