<?xml version="1.0" encoding="UTF-8" standalone="no"?>
<!DOCTYPE svg PUBLIC "-//W3C//DTD SVG 1.1//EN"
 "http://www.w3.org/Graphics/SVG/1.1/DTD/svg11.dtd">
<!-- Generated by graphviz version 2.40.1 (20161225.0304)
 -->
<!-- Title: public.person_articles Pages: 1 -->
<svg width="942pt" height="712pt"
 viewBox="0.00 0.00 942.00 712.00" xmlns="http://www.w3.org/2000/svg" xmlns:xlink="http://www.w3.org/1999/xlink">
<g id="graph0" class="graph" transform="scale(1 1) rotate(0) translate(4 708)">
<title>public.person_articles</title>
<polygon fill="#ffffff" stroke="transparent" points="-4,4 -4,-708 938,-708 938,4 -4,4"/>
<!-- public.person_articles -->
<g id="node1" class="node">
<title>public.person_articles</title>
<polygon fill="#efefef" stroke="transparent" points="257,-622.5 257,-657.5 572,-657.5 572,-622.5 257,-622.5"/>
<polygon fill="none" stroke="#000000" points="257,-622.5 257,-657.5 572,-657.5 572,-622.5 257,-622.5"/>
<text text-anchor="start" x="263.7022" y="-635.3" font-family="Arial Bold" font-size="18.00" fill="#000000">public.person_articles</text>
<text text-anchor="start" x="437.7298" y="-635.3" font-family="Arial" font-size="14.00" fill="#000000">    </text>
<text text-anchor="start" x="471.9346" y="-635.3" font-family="Arial" font-size="14.00" fill="#666666">[BASE TABLE]</text>
<polygon fill="none" stroke="#000000" points="257,-592.5 257,-622.5 572,-622.5 572,-592.5 257,-592.5"/>
<text text-anchor="start" x="264" y="-603.9" font-family="Arial" font-size="14.00" fill="#000000">id </text>
<text text-anchor="start" x="278.7798" y="-603.9" font-family="Arial" font-size="14.00" fill="#666666">[bigint]</text>
<polygon fill="none" stroke="#000000" points="257,-562.5 257,-592.5 572,-592.5 572,-562.5 257,-562.5"/>
<text text-anchor="start" x="264" y="-573.9" font-family="Arial" font-size="14.00" fill="#000000">person_id </text>
<text text-anchor="start" x="329.3534" y="-573.9" font-family="Arial" font-size="14.00" fill="#666666">[bigint]</text>
<polygon fill="none" stroke="#000000" points="257,-532.5 257,-562.5 572,-562.5 572,-532.5 257,-532.5"/>
<text text-anchor="start" x="264" y="-543.9" font-family="Arial" font-size="14.00" fill="#000000">article_id </text>
<text text-anchor="start" x="323.892" y="-543.9" font-family="Arial" font-size="14.00" fill="#666666">[bigint]</text>
<polygon fill="none" stroke="#000000" points="257,-502.5 257,-532.5 572,-532.5 572,-502.5 257,-502.5"/>
<text text-anchor="start" x="264" y="-513.9" font-family="Arial" font-size="14.00" fill="#000000">created_at </text>
<text text-anchor="start" x="334.028" y="-513.9" font-family="Arial" font-size="14.00" fill="#666666">[timestamp(6) without time zone]</text>
<polygon fill="none" stroke="#000000" points="257,-472.5 257,-502.5 572,-502.5 572,-472.5 257,-472.5"/>
<text text-anchor="start" x="264" y="-483.9" font-family="Arial" font-size="14.00" fill="#000000">updated_at </text>
<text text-anchor="start" x="337.9326" y="-483.9" font-family="Arial" font-size="14.00" fill="#666666">[timestamp(6) without time zone]</text>
<polygon fill="none" stroke="#000000" stroke-width="3" points="255,-471.5 255,-659.5 573,-659.5 573,-471.5 255,-471.5"/>
</g>
<!-- public.people -->
<g id="node2" class="node">
<title>public.people</title>
<polygon fill="#efefef" stroke="transparent" points="43,-267.5 43,-302.5 363,-302.5 363,-267.5 43,-267.5"/>
<polygon fill="none" stroke="#000000" points="43,-267.5 43,-302.5 363,-302.5 363,-267.5 43,-267.5"/>
<text text-anchor="start" x="86.1988" y="-280.3" font-family="Arial Bold" font-size="18.00" fill="#000000">public.people</text>
<text text-anchor="start" x="192.2332" y="-280.3" font-family="Arial" font-size="14.00" fill="#000000">    </text>
<text text-anchor="start" x="226.438" y="-280.3" font-family="Arial" font-size="14.00" fill="#666666">[BASE TABLE]</text>
<polygon fill="none" stroke="#000000" points="43,-237.5 43,-267.5 363,-267.5 363,-237.5 43,-237.5"/>
<text text-anchor="start" x="50" y="-248.9" font-family="Arial" font-size="14.00" fill="#000000">id    </text>
<text text-anchor="start" x="95.094" y="-248.9" font-family="Arial" font-size="14.00" fill="#666666">[bigint]</text>
<polygon fill="none" stroke="#000000" points="43,-207.5 43,-237.5 363,-237.5 363,-207.5 43,-207.5"/>
<text text-anchor="start" x="50" y="-218.9" font-family="Arial" font-size="14.00" fill="#000000">name    </text>
<text text-anchor="start" x="119.2132" y="-218.9" font-family="Arial" font-size="14.00" fill="#666666">[varchar]</text>
<polygon fill="none" stroke="#000000" points="43,-177.5 43,-207.5 363,-207.5 363,-177.5 43,-177.5"/>
<text text-anchor="start" x="50" y="-188.9" font-family="Arial" font-size="14.00" fill="#000000">user_id    </text>
<text text-anchor="start" x="130.1024" y="-188.9" font-family="Arial" font-size="14.00" fill="#666666">[integer]</text>
<polygon fill="none" stroke="#000000" points="43,-147.5 43,-177.5 363,-177.5 363,-147.5 43,-147.5"/>
<text text-anchor="start" x="50" y="-158.9" font-family="Arial" font-size="14.00" fill="#000000">created_at    </text>
<text text-anchor="start" x="150.3422" y="-158.9" font-family="Arial" font-size="14.00" fill="#666666">[timestamp(6) without time zone]</text>
<polygon fill="none" stroke="#000000" points="43,-117.5 43,-147.5 363,-147.5 363,-117.5 43,-117.5"/>
<text text-anchor="start" x="49.7546" y="-128.9" font-family="Arial" font-size="14.00" fill="#000000">updated_at    </text>
<text text-anchor="start" x="154.0014" y="-128.9" font-family="Arial" font-size="14.00" fill="#666666">[timestamp(6) without time zone]</text>
<polygon fill="none" stroke="#000000" points="43,-87.5 43,-117.5 363,-117.5 363,-87.5 43,-87.5"/>
<text text-anchor="start" x="50" y="-98.9" font-family="Arial" font-size="14.00" fill="#000000">creater_id    </text>
<text text-anchor="start" x="146.4362" y="-98.9" font-family="Arial" font-size="14.00" fill="#666666">[integer]</text>
</g>
<!-- public.person_articles&#45;&gt;public.people -->
<g id="edge1" class="edge">
<title>public.person_articles:person_id&#45;&gt;public.people:id</title>
<path fill="none" stroke="#000000" d="M246.9421,-576.7075C194.162,-567.6888 228.9769,-483.682 257,-427 283.2771,-373.8495 336.7229,-399.1505 363,-346 381.4169,-308.7484 404.5556,-252.5 363,-252.5"/>
<polygon fill="#000000" stroke="#000000" points="247.0309,-576.7144 256.6465,-581.9861 252.0154,-577.1072 257,-577.5 257,-577.5 257,-577.5 252.0154,-577.1072 257.3535,-573.0139 247.0309,-576.7144 247.0309,-576.7144"/>
<text text-anchor="start" x="9.992" y="-587.5" font-family="Arial" font-size="10.00" fill="#000000">FOREIGN KEY (person_id) REFERENCES people(id)</text>
</g>
<!-- public.articles -->
<g id="node3" class="node">
<title>public.articles</title>
<polygon fill="#efefef" stroke="transparent" points="467,-312.5 467,-347.5 787,-347.5 787,-312.5 467,-312.5"/>
<polygon fill="none" stroke="#000000" points="467,-312.5 467,-347.5 787,-347.5 787,-312.5 467,-312.5"/>
<text text-anchor="start" x="508.7138" y="-325.3" font-family="Arial Bold" font-size="18.00" fill="#000000">public.articles</text>
<text text-anchor="start" x="617.7182" y="-325.3" font-family="Arial" font-size="14.00" fill="#000000">    </text>
<text text-anchor="start" x="651.923" y="-325.3" font-family="Arial" font-size="14.00" fill="#666666">[BASE TABLE]</text>
<polygon fill="none" stroke="#000000" points="467,-282.5 467,-312.5 787,-312.5 787,-282.5 467,-282.5"/>
<text text-anchor="start" x="474" y="-293.9" font-family="Arial" font-size="14.00" fill="#000000">id    </text>
<text text-anchor="start" x="519.094" y="-293.9" font-family="Arial" font-size="14.00" fill="#666666">[bigint]</text>
<polygon fill="none" stroke="#000000" points="467,-252.5 467,-282.5 787,-282.5 787,-252.5 467,-252.5"/>
<text text-anchor="start" x="474" y="-263.9" font-family="Arial" font-size="14.00" fill="#000000">body    </text>
<text text-anchor="start" x="538.5526" y="-263.9" font-family="Arial" font-size="14.00" fill="#666666">[text]</text>
<polygon fill="none" stroke="#000000" points="467,-222.5 467,-252.5 787,-252.5 787,-222.5 467,-222.5"/>
<text text-anchor="start" x="474" y="-233.9" font-family="Arial" font-size="14.00" fill="#000000">user_id    </text>
<text text-anchor="start" x="554.1024" y="-233.9" font-family="Arial" font-size="14.00" fill="#666666">[bigint]</text>
<polygon fill="none" stroke="#000000" points="467,-192.5 467,-222.5 787,-222.5 787,-192.5 467,-192.5"/>
<text text-anchor="start" x="474" y="-203.9" font-family="Arial" font-size="14.00" fill="#000000">created_at    </text>
<text text-anchor="start" x="574.3422" y="-203.9" font-family="Arial" font-size="14.00" fill="#666666">[timestamp(6) without time zone]</text>
<polygon fill="none" stroke="#000000" points="467,-162.5 467,-192.5 787,-192.5 787,-162.5 467,-162.5"/>
<text text-anchor="start" x="473.7546" y="-173.9" font-family="Arial" font-size="14.00" fill="#000000">updated_at    </text>
<text text-anchor="start" x="578.0014" y="-173.9" font-family="Arial" font-size="14.00" fill="#666666">[timestamp(6) without time zone]</text>
<polygon fill="none" stroke="#000000" points="467,-132.5 467,-162.5 787,-162.5 787,-132.5 467,-132.5"/>
<text text-anchor="start" x="474" y="-143.9" font-family="Arial" font-size="14.00" fill="#000000">impressions_count    </text>
<text text-anchor="start" x="624.8906" y="-143.9" font-family="Arial" font-size="14.00" fill="#666666">[integer]</text>
<polygon fill="none" stroke="#000000" points="467,-102.5 467,-132.5 787,-132.5 787,-102.5 467,-102.5"/>
<text text-anchor="start" x="474" y="-113.9" font-family="Arial" font-size="14.00" fill="#000000">file    </text>
<text text-anchor="start" x="526.0912" y="-113.9" font-family="Arial" font-size="14.00" fill="#666666">[varchar]</text>
<polygon fill="none" stroke="#000000" points="467,-72.5 467,-102.5 787,-102.5 787,-72.5 467,-72.5"/>
<text text-anchor="start" x="474" y="-83.9" font-family="Arial" font-size="14.00" fill="#000000">start_time    </text>
<text text-anchor="start" x="569.6522" y="-83.9" font-family="Arial" font-size="14.00" fill="#666666">[timestamp(6) without time zone]</text>
<polygon fill="none" stroke="#000000" points="467,-42.5 467,-72.5 787,-72.5 787,-42.5 467,-42.5"/>
<text text-anchor="start" x="474" y="-53.9" font-family="Arial" font-size="14.00" fill="#000000">end_time    </text>
<text text-anchor="start" x="565.7756" y="-53.9" font-family="Arial" font-size="14.00" fill="#666666">[timestamp(6) without time zone]</text>
</g>
<!-- public.person_articles&#45;&gt;public.articles -->
<g id="edge2" class="edge">
<title>public.person_articles:article_id&#45;&gt;public.articles:id</title>
<path fill="none" stroke="#000000" d="M582.1933,-546.3975C622.3587,-536.8479 600.9398,-467.5157 572,-427 543.3256,-386.8558 495.6744,-431.1442 467,-391 442.8463,-357.1849 425.4444,-297.5 467,-297.5"/>
<polygon fill="#000000" stroke="#000000" points="581.942,-546.4246 571.5161,-543.0261 576.971,-546.9623 572,-547.5 572,-547.5 572,-547.5 576.971,-546.9623 572.4839,-551.9739 581.942,-546.4246 581.942,-546.4246"/>
<text text-anchor="start" x="578.8365" y="-557.5" font-family="Arial" font-size="10.00" fill="#000000">FOREIGN KEY (article_id) REFERENCES articles(id) ON DELETE CASCADE</text>
</g>
</g>
</svg>
