<?xml version="1.0" encoding="UTF-8" standalone="no"?>
<!DOCTYPE svg PUBLIC "-//W3C//DTD SVG 1.1//EN"
 "http://www.w3.org/Graphics/SVG/1.1/DTD/svg11.dtd">
<!-- Generated by graphviz version 2.40.1 (20161225.0304)
 -->
<!-- Title: public.articles Pages: 1 -->
<svg width="1708pt" height="1019pt"
 viewBox="0.00 0.00 1708.00 1019.00" xmlns="http://www.w3.org/2000/svg" xmlns:xlink="http://www.w3.org/1999/xlink">
<g id="graph0" class="graph" transform="scale(1 1) rotate(0) translate(4 1015)">
<title>public.articles</title>
<polygon fill="#ffffff" stroke="transparent" points="-4,4 -4,-1015 1704,-1015 1704,4 -4,4"/>
<!-- public.articles -->
<g id="node1" class="node">
<title>public.articles</title>
<polygon fill="#efefef" stroke="transparent" points="709,-622.5 709,-657.5 999,-657.5 999,-622.5 709,-622.5"/>
<polygon fill="none" stroke="#000000" points="709,-622.5 709,-657.5 999,-657.5 999,-622.5 709,-622.5"/>
<text text-anchor="start" x="735.7138" y="-635.3" font-family="Arial Bold" font-size="18.00" fill="#000000">public.articles</text>
<text text-anchor="start" x="844.7182" y="-635.3" font-family="Arial" font-size="14.00" fill="#000000">    </text>
<text text-anchor="start" x="878.923" y="-635.3" font-family="Arial" font-size="14.00" fill="#666666">[BASE TABLE]</text>
<polygon fill="none" stroke="#000000" points="709,-592.5 709,-622.5 999,-622.5 999,-592.5 709,-592.5"/>
<text text-anchor="start" x="716" y="-603.9" font-family="Arial" font-size="14.00" fill="#000000">id </text>
<text text-anchor="start" x="730.7798" y="-603.9" font-family="Arial" font-size="14.00" fill="#666666">[bigint]</text>
<polygon fill="none" stroke="#000000" points="709,-562.5 709,-592.5 999,-592.5 999,-562.5 709,-562.5"/>
<text text-anchor="start" x="716" y="-573.9" font-family="Arial" font-size="14.00" fill="#000000">body </text>
<text text-anchor="start" x="750.2384" y="-573.9" font-family="Arial" font-size="14.00" fill="#666666">[text]</text>
<polygon fill="none" stroke="#000000" points="709,-532.5 709,-562.5 999,-562.5 999,-532.5 709,-532.5"/>
<text text-anchor="start" x="716" y="-543.9" font-family="Arial" font-size="14.00" fill="#000000">user_id </text>
<text text-anchor="start" x="765.7882" y="-543.9" font-family="Arial" font-size="14.00" fill="#666666">[bigint]</text>
<polygon fill="none" stroke="#000000" points="709,-502.5 709,-532.5 999,-532.5 999,-502.5 709,-502.5"/>
<text text-anchor="start" x="716" y="-513.9" font-family="Arial" font-size="14.00" fill="#000000">created_at </text>
<text text-anchor="start" x="786.028" y="-513.9" font-family="Arial" font-size="14.00" fill="#666666">[timestamp(6) without time zone]</text>
<polygon fill="none" stroke="#000000" points="709,-472.5 709,-502.5 999,-502.5 999,-472.5 709,-472.5"/>
<text text-anchor="start" x="715.9117" y="-483.9" font-family="Arial" font-size="14.00" fill="#000000">updated_at </text>
<text text-anchor="start" x="789.8443" y="-483.9" font-family="Arial" font-size="14.00" fill="#666666">[timestamp(6) without time zone]</text>
<polygon fill="none" stroke="#000000" points="709,-442.5 709,-472.5 999,-472.5 999,-442.5 709,-442.5"/>
<text text-anchor="start" x="716" y="-453.9" font-family="Arial" font-size="14.00" fill="#000000">impressions_count </text>
<text text-anchor="start" x="836.5764" y="-453.9" font-family="Arial" font-size="14.00" fill="#666666">[integer]</text>
<polygon fill="none" stroke="#000000" points="709,-412.5 709,-442.5 999,-442.5 999,-412.5 709,-412.5"/>
<text text-anchor="start" x="716" y="-423.9" font-family="Arial" font-size="14.00" fill="#000000">file </text>
<text text-anchor="start" x="737.777" y="-423.9" font-family="Arial" font-size="14.00" fill="#666666">[varchar]</text>
<polygon fill="none" stroke="#000000" points="709,-382.5 709,-412.5 999,-412.5 999,-382.5 709,-382.5"/>
<text text-anchor="start" x="716" y="-393.9" font-family="Arial" font-size="14.00" fill="#000000">start_time </text>
<text text-anchor="start" x="781.338" y="-393.9" font-family="Arial" font-size="14.00" fill="#666666">[timestamp(6) without time zone]</text>
<polygon fill="none" stroke="#000000" points="709,-352.5 709,-382.5 999,-382.5 999,-352.5 709,-352.5"/>
<text text-anchor="start" x="716" y="-363.9" font-family="Arial" font-size="14.00" fill="#000000">end_time </text>
<text text-anchor="start" x="777.4614" y="-363.9" font-family="Arial" font-size="14.00" fill="#666666">[timestamp(6) without time zone]</text>
<polygon fill="none" stroke="#000000" stroke-width="3" points="707.5,-351.5 707.5,-659.5 1000.5,-659.5 1000.5,-351.5 707.5,-351.5"/>
</g>
<!-- public.users -->
<g id="node6" class="node">
<title>public.users</title>
<polygon fill="#efefef" stroke="transparent" points="694,-192.5 694,-227.5 1014,-227.5 1014,-192.5 694,-192.5"/>
<polygon fill="none" stroke="#000000" points="694,-192.5 694,-227.5 1014,-227.5 1014,-192.5 694,-192.5"/>
<text text-anchor="start" x="742.2091" y="-205.3" font-family="Arial Bold" font-size="18.00" fill="#000000">public.users</text>
<text text-anchor="start" x="838.2229" y="-205.3" font-family="Arial" font-size="14.00" fill="#000000">    </text>
<text text-anchor="start" x="872.4277" y="-205.3" font-family="Arial" font-size="14.00" fill="#666666">[BASE TABLE]</text>
<polygon fill="none" stroke="#000000" points="694,-162.5 694,-192.5 1014,-192.5 1014,-162.5 694,-162.5"/>
<text text-anchor="start" x="701" y="-173.9" font-family="Arial" font-size="14.00" fill="#000000">id    </text>
<text text-anchor="start" x="746.094" y="-173.9" font-family="Arial" font-size="14.00" fill="#666666">[bigint]</text>
<polygon fill="none" stroke="#000000" points="694,-132.5 694,-162.5 1014,-162.5 1014,-132.5 694,-132.5"/>
<text text-anchor="start" x="701" y="-143.9" font-family="Arial" font-size="14.00" fill="#000000">email    </text>
<text text-anchor="start" x="768.6438" y="-143.9" font-family="Arial" font-size="14.00" fill="#666666">[varchar]</text>
<polygon fill="none" stroke="#000000" points="694,-102.5 694,-132.5 1014,-132.5 1014,-102.5 694,-102.5"/>
<text text-anchor="start" x="701" y="-113.9" font-family="Arial" font-size="14.00" fill="#000000">created_at    </text>
<text text-anchor="start" x="801.3422" y="-113.9" font-family="Arial" font-size="14.00" fill="#666666">[timestamp(6) without time zone]</text>
<polygon fill="none" stroke="#000000" points="694,-72.5 694,-102.5 1014,-102.5 1014,-72.5 694,-72.5"/>
<text text-anchor="start" x="700.7546" y="-83.9" font-family="Arial" font-size="14.00" fill="#000000">updated_at    </text>
<text text-anchor="start" x="805.0014" y="-83.9" font-family="Arial" font-size="14.00" fill="#666666">[timestamp(6) without time zone]</text>
<polygon fill="none" stroke="#000000" points="694,-42.5 694,-72.5 1014,-72.5 1014,-42.5 694,-42.5"/>
<text text-anchor="start" x="701" y="-53.9" font-family="Arial" font-size="14.00" fill="#000000">role    </text>
<text text-anchor="start" x="758.5372" y="-53.9" font-family="Arial" font-size="14.00" fill="#666666">[integer]</text>
</g>
<!-- public.articles&#45;&gt;public.users -->
<g id="edge5" class="edge">
<title>public.articles:user_id&#45;&gt;public.users:id</title>
<path fill="none" stroke="#000000" d="M1009.4002,-546.995C1164.1412,-531.7723 1175.0436,-177.5 1014,-177.5"/>
<polygon fill="#000000" stroke="#000000" points="1008.9882,-547.0149 998.7817,-543.0053 1003.9941,-547.2575 999,-547.5 999,-547.5 999,-547.5 1003.9941,-547.2575 999.2183,-551.9947 1008.9882,-547.0149 1008.9882,-547.0149"/>
<text text-anchor="start" x="1006.3345" y="-557.5" font-family="Arial" font-size="10.00" fill="#000000">FOREIGN KEY (user_id) REFERENCES users(id)</text>
</g>
<!-- public.applicant_articles -->
<g id="node2" class="node">
<title>public.applicant_articles</title>
<polygon fill="#efefef" stroke="transparent" points="43,-932.5 43,-967.5 375,-967.5 375,-932.5 43,-932.5"/>
<polygon fill="none" stroke="#000000" points="43,-932.5 43,-967.5 375,-967.5 375,-932.5 43,-932.5"/>
<text text-anchor="start" x="49.6999" y="-945.3" font-family="Arial Bold" font-size="18.00" fill="#000000">public.applicant_articles</text>
<text text-anchor="start" x="240.7321" y="-945.3" font-family="Arial" font-size="14.00" fill="#000000">    </text>
<text text-anchor="start" x="274.9369" y="-945.3" font-family="Arial" font-size="14.00" fill="#666666">[BASE TABLE]</text>
<polygon fill="none" stroke="#000000" points="43,-902.5 43,-932.5 375,-932.5 375,-902.5 43,-902.5"/>
<text text-anchor="start" x="50" y="-913.9" font-family="Arial" font-size="14.00" fill="#000000">id    </text>
<text text-anchor="start" x="95.094" y="-913.9" font-family="Arial" font-size="14.00" fill="#666666">[bigint]</text>
<polygon fill="none" stroke="#000000" points="43,-872.5 43,-902.5 375,-902.5 375,-872.5 43,-872.5"/>
<text text-anchor="start" x="50" y="-883.9" font-family="Arial" font-size="14.00" fill="#000000">applicant_id    </text>
<text text-anchor="start" x="158.8934" y="-883.9" font-family="Arial" font-size="14.00" fill="#666666">[bigint]</text>
<polygon fill="none" stroke="#000000" points="43,-842.5 43,-872.5 375,-872.5 375,-842.5 43,-842.5"/>
<text text-anchor="start" x="50" y="-853.9" font-family="Arial" font-size="14.00" fill="#000000">article_id    </text>
<text text-anchor="start" x="140.2062" y="-853.9" font-family="Arial" font-size="14.00" fill="#666666">[bigint]</text>
<polygon fill="none" stroke="#000000" points="43,-812.5 43,-842.5 375,-842.5 375,-812.5 43,-812.5"/>
<text text-anchor="start" x="50" y="-823.9" font-family="Arial" font-size="14.00" fill="#000000">created_at    </text>
<text text-anchor="start" x="150.3422" y="-823.9" font-family="Arial" font-size="14.00" fill="#666666">[timestamp(6) without time zone]</text>
<polygon fill="none" stroke="#000000" points="43,-782.5 43,-812.5 375,-812.5 375,-782.5 43,-782.5"/>
<text text-anchor="start" x="50" y="-793.9" font-family="Arial" font-size="14.00" fill="#000000">updated_at    </text>
<text text-anchor="start" x="154.2468" y="-793.9" font-family="Arial" font-size="14.00" fill="#666666">[timestamp(6) without time zone]</text>
</g>
<!-- public.applicant_articles&#45;&gt;public.articles -->
<g id="edge1" class="edge">
<title>public.applicant_articles:article_id&#45;&gt;public.articles:id</title>
<path fill="none" stroke="#000000" d="M385.0805,-856.5187C426.5017,-847.4759 389.7288,-778.1232 427,-740 523.8065,-640.9805 570.5213,-607.5 709,-607.5"/>
<polygon fill="#000000" stroke="#000000" points="384.953,-856.531 374.564,-853.0212 379.9765,-857.0155 375,-857.5 375,-857.5 375,-857.5 379.9765,-857.0155 375.436,-861.9788 384.953,-856.531 384.953,-856.531"/>
<text text-anchor="start" x="200.8365" y="-841.5" font-family="Arial" font-size="10.00" fill="#000000">FOREIGN KEY (article_id) REFERENCES articles(id) ON DELETE CASCADE</text>
</g>
<!-- public.bookmarks -->
<g id="node3" class="node">
<title>public.bookmarks</title>
<polygon fill="#efefef" stroke="transparent" points="479,-932.5 479,-967.5 799,-967.5 799,-932.5 479,-932.5"/>
<polygon fill="none" stroke="#000000" points="479,-932.5 479,-967.5 799,-967.5 799,-932.5 479,-932.5"/>
<text text-anchor="start" x="505.2068" y="-945.3" font-family="Arial Bold" font-size="18.00" fill="#000000">public.bookmarks</text>
<text text-anchor="start" x="645.2252" y="-945.3" font-family="Arial" font-size="14.00" fill="#000000">    </text>
<text text-anchor="start" x="679.43" y="-945.3" font-family="Arial" font-size="14.00" fill="#666666">[BASE TABLE]</text>
<polygon fill="none" stroke="#000000" points="479,-902.5 479,-932.5 799,-932.5 799,-902.5 479,-902.5"/>
<text text-anchor="start" x="486" y="-913.9" font-family="Arial" font-size="14.00" fill="#000000">id    </text>
<text text-anchor="start" x="531.094" y="-913.9" font-family="Arial" font-size="14.00" fill="#666666">[bigint]</text>
<polygon fill="none" stroke="#000000" points="479,-872.5 479,-902.5 799,-902.5 799,-872.5 479,-872.5"/>
<text text-anchor="start" x="486" y="-883.9" font-family="Arial" font-size="14.00" fill="#000000">user_id    </text>
<text text-anchor="start" x="566.1024" y="-883.9" font-family="Arial" font-size="14.00" fill="#666666">[bigint]</text>
<polygon fill="none" stroke="#000000" points="479,-842.5 479,-872.5 799,-872.5 799,-842.5 479,-842.5"/>
<text text-anchor="start" x="486" y="-853.9" font-family="Arial" font-size="14.00" fill="#000000">article_id    </text>
<text text-anchor="start" x="576.2062" y="-853.9" font-family="Arial" font-size="14.00" fill="#666666">[bigint]</text>
<polygon fill="none" stroke="#000000" points="479,-812.5 479,-842.5 799,-842.5 799,-812.5 479,-812.5"/>
<text text-anchor="start" x="486" y="-823.9" font-family="Arial" font-size="14.00" fill="#000000">created_at    </text>
<text text-anchor="start" x="586.3422" y="-823.9" font-family="Arial" font-size="14.00" fill="#666666">[timestamp(6) without time zone]</text>
<polygon fill="none" stroke="#000000" points="479,-782.5 479,-812.5 799,-812.5 799,-782.5 479,-782.5"/>
<text text-anchor="start" x="485.7546" y="-793.9" font-family="Arial" font-size="14.00" fill="#000000">updated_at    </text>
<text text-anchor="start" x="590.0014" y="-793.9" font-family="Arial" font-size="14.00" fill="#666666">[timestamp(6) without time zone]</text>
</g>
<!-- public.bookmarks&#45;&gt;public.articles -->
<g id="edge2" class="edge">
<title>public.bookmarks:article_id&#45;&gt;public.articles:id</title>
<path fill="none" stroke="#000000" d="M809.4136,-856.3159C847.7815,-846.6484 826.1044,-780.034 799,-740 774.8474,-704.3258 733.1526,-739.6742 709,-704 684.9553,-668.4851 666.1111,-607.5 709,-607.5"/>
<polygon fill="#000000" stroke="#000000" points="808.936,-856.3702 798.4916,-853.0288 803.968,-856.9351 799,-857.5 799,-857.5 799,-857.5 803.968,-856.9351 799.5084,-861.9712 808.936,-856.3702 808.936,-856.3702"/>
<text text-anchor="start" x="806.1175" y="-867.5" font-family="Arial" font-size="10.00" fill="#000000">FOREIGN KEY (article_id) REFERENCES articles(id)</text>
</g>
<!-- public.category_articles -->
<g id="node4" class="node">
<title>public.category_articles</title>
<polygon fill="#efefef" stroke="transparent" points="904,-932.5 904,-967.5 1233,-967.5 1233,-932.5 904,-932.5"/>
<polygon fill="none" stroke="#000000" points="904,-932.5 904,-967.5 1233,-967.5 1233,-932.5 904,-932.5"/>
<text text-anchor="start" x="910.7011" y="-945.3" font-family="Arial Bold" font-size="18.00" fill="#000000">public.category_articles</text>
<text text-anchor="start" x="1098.7309" y="-945.3" font-family="Arial" font-size="14.00" fill="#000000">    </text>
<text text-anchor="start" x="1132.9357" y="-945.3" font-family="Arial" font-size="14.00" fill="#666666">[BASE TABLE]</text>
<polygon fill="none" stroke="#000000" points="904,-902.5 904,-932.5 1233,-932.5 1233,-902.5 904,-902.5"/>
<text text-anchor="start" x="911" y="-913.9" font-family="Arial" font-size="14.00" fill="#000000">id    </text>
<text text-anchor="start" x="956.094" y="-913.9" font-family="Arial" font-size="14.00" fill="#666666">[bigint]</text>
<polygon fill="none" stroke="#000000" points="904,-872.5 904,-902.5 1233,-902.5 1233,-872.5 904,-872.5"/>
<text text-anchor="start" x="911" y="-883.9" font-family="Arial" font-size="14.00" fill="#000000">category_id    </text>
<text text-anchor="start" x="1017.5582" y="-883.9" font-family="Arial" font-size="14.00" fill="#666666">[bigint]</text>
<polygon fill="none" stroke="#000000" points="904,-842.5 904,-872.5 1233,-872.5 1233,-842.5 904,-842.5"/>
<text text-anchor="start" x="911" y="-853.9" font-family="Arial" font-size="14.00" fill="#000000">article_id    </text>
<text text-anchor="start" x="1001.2062" y="-853.9" font-family="Arial" font-size="14.00" fill="#666666">[bigint]</text>
<polygon fill="none" stroke="#000000" points="904,-812.5 904,-842.5 1233,-842.5 1233,-812.5 904,-812.5"/>
<text text-anchor="start" x="911" y="-823.9" font-family="Arial" font-size="14.00" fill="#000000">created_at    </text>
<text text-anchor="start" x="1011.3422" y="-823.9" font-family="Arial" font-size="14.00" fill="#666666">[timestamp(6) without time zone]</text>
<polygon fill="none" stroke="#000000" points="904,-782.5 904,-812.5 1233,-812.5 1233,-782.5 904,-782.5"/>
<text text-anchor="start" x="911" y="-793.9" font-family="Arial" font-size="14.00" fill="#000000">updated_at    </text>
<text text-anchor="start" x="1015.2468" y="-793.9" font-family="Arial" font-size="14.00" fill="#666666">[timestamp(6) without time zone]</text>
</g>
<!-- public.category_articles&#45;&gt;public.articles -->
<g id="edge3" class="edge">
<title>public.category_articles:article_id&#45;&gt;public.articles:id</title>
<path fill="none" stroke="#000000" d="M893.5804,-856.3118C855.1644,-846.6114 876.5309,-779.7846 904,-740 929.6543,-702.8439 973.3457,-741.1561 999,-704 1023.3683,-668.7064 1041.8889,-607.5 999,-607.5"/>
<polygon fill="#000000" stroke="#000000" points="894.0644,-856.3669 903.4901,-861.971 899.0322,-856.9335 904,-857.5 904,-857.5 904,-857.5 899.0322,-856.9335 904.5099,-853.029 894.0644,-856.3669 894.0644,-856.3669"/>
<text text-anchor="start" x="848.3675" y="-841.5" font-family="Arial" font-size="10.00" fill="#000000">FOREIGN KEY (article_id) REFERENCES articles(id)</text>
</g>
<!-- public.likes -->
<g id="node5" class="node">
<title>public.likes</title>
<polygon fill="#efefef" stroke="transparent" points="1337,-932.5 1337,-967.5 1657,-967.5 1657,-932.5 1337,-932.5"/>
<polygon fill="none" stroke="#000000" points="1337,-932.5 1337,-967.5 1657,-967.5 1657,-932.5 1337,-932.5"/>
<text text-anchor="start" x="1389.2141" y="-945.3" font-family="Arial Bold" font-size="18.00" fill="#000000">public.likes</text>
<text text-anchor="start" x="1477.2179" y="-945.3" font-family="Arial" font-size="14.00" fill="#000000">    </text>
<text text-anchor="start" x="1511.4227" y="-945.3" font-family="Arial" font-size="14.00" fill="#666666">[BASE TABLE]</text>
<polygon fill="none" stroke="#000000" points="1337,-902.5 1337,-932.5 1657,-932.5 1657,-902.5 1337,-902.5"/>
<text text-anchor="start" x="1344" y="-913.9" font-family="Arial" font-size="14.00" fill="#000000">id    </text>
<text text-anchor="start" x="1389.094" y="-913.9" font-family="Arial" font-size="14.00" fill="#666666">[bigint]</text>
<polygon fill="none" stroke="#000000" points="1337,-872.5 1337,-902.5 1657,-902.5 1657,-872.5 1337,-872.5"/>
<text text-anchor="start" x="1344" y="-883.9" font-family="Arial" font-size="14.00" fill="#000000">user_id    </text>
<text text-anchor="start" x="1424.1024" y="-883.9" font-family="Arial" font-size="14.00" fill="#666666">[bigint]</text>
<polygon fill="none" stroke="#000000" points="1337,-842.5 1337,-872.5 1657,-872.5 1657,-842.5 1337,-842.5"/>
<text text-anchor="start" x="1344" y="-853.9" font-family="Arial" font-size="14.00" fill="#000000">article_id    </text>
<text text-anchor="start" x="1434.2062" y="-853.9" font-family="Arial" font-size="14.00" fill="#666666">[bigint]</text>
<polygon fill="none" stroke="#000000" points="1337,-812.5 1337,-842.5 1657,-842.5 1657,-812.5 1337,-812.5"/>
<text text-anchor="start" x="1344" y="-823.9" font-family="Arial" font-size="14.00" fill="#000000">created_at    </text>
<text text-anchor="start" x="1444.3422" y="-823.9" font-family="Arial" font-size="14.00" fill="#666666">[timestamp(6) without time zone]</text>
<polygon fill="none" stroke="#000000" points="1337,-782.5 1337,-812.5 1657,-812.5 1657,-782.5 1337,-782.5"/>
<text text-anchor="start" x="1343.7546" y="-793.9" font-family="Arial" font-size="14.00" fill="#000000">updated_at    </text>
<text text-anchor="start" x="1448.0014" y="-793.9" font-family="Arial" font-size="14.00" fill="#666666">[timestamp(6) without time zone]</text>
</g>
<!-- public.likes&#45;&gt;public.articles -->
<g id="edge4" class="edge">
<title>public.likes:article_id&#45;&gt;public.articles:id</title>
<path fill="none" stroke="#000000" d="M1326.9209,-856.5174C1285.5119,-847.4626 1322.374,-778.0225 1285,-740 1186.7974,-640.0932 1139.0897,-607.5 999,-607.5"/>
<polygon fill="#000000" stroke="#000000" points="1327.0472,-856.5296 1336.5633,-861.9788 1332.0236,-857.0148 1337,-857.5 1337,-857.5 1337,-857.5 1332.0236,-857.0148 1337.4367,-853.0212 1327.0472,-856.5296 1327.0472,-856.5296"/>
<text text-anchor="start" x="1093.1175" y="-867.5" font-family="Arial" font-size="10.00" fill="#000000">FOREIGN KEY (article_id) REFERENCES articles(id)</text>
</g>
</g>
</svg>
