<?xml version="1.0" encoding="UTF-8" standalone="no"?>
<!DOCTYPE svg PUBLIC "-//W3C//DTD SVG 1.1//EN"
 "http://www.w3.org/Graphics/SVG/1.1/DTD/svg11.dtd">
<!-- Generated by graphviz version 2.40.1 (20161225.0304)
 -->
<!-- Title: public.bookmarks Pages: 1 -->
<svg width="838pt" height="1252pt"
 viewBox="0.00 0.00 838.00 1252.00" xmlns="http://www.w3.org/2000/svg" xmlns:xlink="http://www.w3.org/1999/xlink">
<g id="graph0" class="graph" transform="scale(1 1) rotate(0) translate(4 1248)">
<title>public.bookmarks</title>
<polygon fill="#ffffff" stroke="transparent" points="-4,4 -4,-1248 834,-1248 834,4 -4,4"/>
<!-- public.bookmarks -->
<g id="node1" class="node">
<title>public.bookmarks</title>
<polygon fill="#efefef" stroke="transparent" points="270,-1162.5 270,-1197.5 560,-1197.5 560,-1162.5 270,-1162.5"/>
<polygon fill="none" stroke="#000000" points="270,-1162.5 270,-1197.5 560,-1197.5 560,-1162.5 270,-1162.5"/>
<text text-anchor="start" x="281.2068" y="-1175.3" font-family="Arial Bold" font-size="18.00" fill="#000000">public.bookmarks</text>
<text text-anchor="start" x="421.2252" y="-1175.3" font-family="Arial" font-size="14.00" fill="#000000">    </text>
<text text-anchor="start" x="455.43" y="-1175.3" font-family="Arial" font-size="14.00" fill="#666666">[BASE TABLE]</text>
<polygon fill="none" stroke="#000000" points="270,-1132.5 270,-1162.5 560,-1162.5 560,-1132.5 270,-1132.5"/>
<text text-anchor="start" x="277" y="-1143.9" font-family="Arial" font-size="14.00" fill="#000000">id </text>
<text text-anchor="start" x="291.7798" y="-1143.9" font-family="Arial" font-size="14.00" fill="#666666">[bigint]</text>
<polygon fill="none" stroke="#000000" points="270,-1102.5 270,-1132.5 560,-1132.5 560,-1102.5 270,-1102.5"/>
<text text-anchor="start" x="277" y="-1113.9" font-family="Arial" font-size="14.00" fill="#000000">user_id </text>
<text text-anchor="start" x="326.7882" y="-1113.9" font-family="Arial" font-size="14.00" fill="#666666">[bigint]</text>
<polygon fill="none" stroke="#000000" points="270,-1072.5 270,-1102.5 560,-1102.5 560,-1072.5 270,-1072.5"/>
<text text-anchor="start" x="277" y="-1083.9" font-family="Arial" font-size="14.00" fill="#000000">article_id </text>
<text text-anchor="start" x="336.892" y="-1083.9" font-family="Arial" font-size="14.00" fill="#666666">[bigint]</text>
<polygon fill="none" stroke="#000000" points="270,-1042.5 270,-1072.5 560,-1072.5 560,-1042.5 270,-1042.5"/>
<text text-anchor="start" x="277" y="-1053.9" font-family="Arial" font-size="14.00" fill="#000000">created_at </text>
<text text-anchor="start" x="347.028" y="-1053.9" font-family="Arial" font-size="14.00" fill="#666666">[timestamp(6) without time zone]</text>
<polygon fill="none" stroke="#000000" points="270,-1012.5 270,-1042.5 560,-1042.5 560,-1012.5 270,-1012.5"/>
<text text-anchor="start" x="276.9117" y="-1023.9" font-family="Arial" font-size="14.00" fill="#000000">updated_at </text>
<text text-anchor="start" x="350.8443" y="-1023.9" font-family="Arial" font-size="14.00" fill="#666666">[timestamp(6) without time zone]</text>
<polygon fill="none" stroke="#000000" stroke-width="3" points="268.5,-1011.5 268.5,-1199.5 561.5,-1199.5 561.5,-1011.5 268.5,-1011.5"/>
</g>
<!-- public.users -->
<g id="node2" class="node">
<title>public.users</title>
<polygon fill="#efefef" stroke="transparent" points="43,-597.5 43,-632.5 363,-632.5 363,-597.5 43,-597.5"/>
<polygon fill="none" stroke="#000000" points="43,-597.5 43,-632.5 363,-632.5 363,-597.5 43,-597.5"/>
<text text-anchor="start" x="91.2091" y="-610.3" font-family="Arial Bold" font-size="18.00" fill="#000000">public.users</text>
<text text-anchor="start" x="187.2229" y="-610.3" font-family="Arial" font-size="14.00" fill="#000000">    </text>
<text text-anchor="start" x="221.4277" y="-610.3" font-family="Arial" font-size="14.00" fill="#666666">[BASE TABLE]</text>
<polygon fill="none" stroke="#000000" points="43,-567.5 43,-597.5 363,-597.5 363,-567.5 43,-567.5"/>
<text text-anchor="start" x="50" y="-578.9" font-family="Arial" font-size="14.00" fill="#000000">id    </text>
<text text-anchor="start" x="95.094" y="-578.9" font-family="Arial" font-size="14.00" fill="#666666">[bigint]</text>
<polygon fill="none" stroke="#000000" points="43,-537.5 43,-567.5 363,-567.5 363,-537.5 43,-537.5"/>
<text text-anchor="start" x="50" y="-548.9" font-family="Arial" font-size="14.00" fill="#000000">email    </text>
<text text-anchor="start" x="117.6438" y="-548.9" font-family="Arial" font-size="14.00" fill="#666666">[varchar]</text>
<polygon fill="none" stroke="#000000" points="43,-507.5 43,-537.5 363,-537.5 363,-507.5 43,-507.5"/>
<text text-anchor="start" x="50" y="-518.9" font-family="Arial" font-size="14.00" fill="#000000">created_at    </text>
<text text-anchor="start" x="150.3422" y="-518.9" font-family="Arial" font-size="14.00" fill="#666666">[timestamp(6) without time zone]</text>
<polygon fill="none" stroke="#000000" points="43,-477.5 43,-507.5 363,-507.5 363,-477.5 43,-477.5"/>
<text text-anchor="start" x="49.7546" y="-488.9" font-family="Arial" font-size="14.00" fill="#000000">updated_at    </text>
<text text-anchor="start" x="154.0014" y="-488.9" font-family="Arial" font-size="14.00" fill="#666666">[timestamp(6) without time zone]</text>
<polygon fill="none" stroke="#000000" points="43,-447.5 43,-477.5 363,-477.5 363,-447.5 43,-447.5"/>
<text text-anchor="start" x="50" y="-458.9" font-family="Arial" font-size="14.00" fill="#000000">role    </text>
<text text-anchor="start" x="107.5372" y="-458.9" font-family="Arial" font-size="14.00" fill="#666666">[integer]</text>
<polygon fill="none" stroke="#000000" points="43,-417.5 43,-447.5 363,-447.5 363,-417.5 43,-417.5"/>
<text text-anchor="start" x="50" y="-428.9" font-family="Arial" font-size="14.00" fill="#000000">username    </text>
<text text-anchor="start" x="146.439" y="-428.9" font-family="Arial" font-size="14.00" fill="#666666">[varchar]</text>
<polygon fill="none" stroke="#000000" points="43,-387.5 43,-417.5 363,-417.5 363,-387.5 43,-387.5"/>
<text text-anchor="start" x="50" y="-398.9" font-family="Arial" font-size="14.00" fill="#000000">avatar    </text>
<text text-anchor="start" x="123.1038" y="-398.9" font-family="Arial" font-size="14.00" fill="#666666">[varchar]</text>
<polygon fill="none" stroke="#000000" points="43,-357.5 43,-387.5 363,-387.5 363,-357.5 43,-357.5"/>
<text text-anchor="start" x="50" y="-368.9" font-family="Arial" font-size="14.00" fill="#000000">rolable_type    </text>
<text text-anchor="start" x="160.4474" y="-368.9" font-family="Arial" font-size="14.00" fill="#666666">[varchar]</text>
<polygon fill="none" stroke="#000000" points="43,-327.5 43,-357.5 363,-357.5 363,-327.5 43,-327.5"/>
<text text-anchor="start" x="50" y="-338.9" font-family="Arial" font-size="14.00" fill="#000000">rolable_id    </text>
<text text-anchor="start" x="144.8808" y="-338.9" font-family="Arial" font-size="14.00" fill="#666666">[bigint]</text>
<polygon fill="none" stroke="#000000" points="43,-297.5 43,-327.5 363,-327.5 363,-297.5 43,-297.5"/>
<text text-anchor="start" x="50" y="-308.9" font-family="Arial" font-size="14.00" fill="#000000">uid    </text>
<text text-anchor="start" x="102.8766" y="-308.9" font-family="Arial" font-size="14.00" fill="#666666">[varchar]</text>
</g>
<!-- public.bookmarks&#45;&gt;public.users -->
<g id="edge1" class="edge">
<title>public.bookmarks:user_id&#45;&gt;public.users:id</title>
<path fill="none" stroke="#000000" d="M259.7916,-1116.7063C209.3726,-1107.9968 260.2795,-1029.3471 270,-967 290.9163,-832.8431 342.0837,-810.1569 363,-676 369.4016,-634.9405 404.5556,-582.5 363,-582.5"/>
<polygon fill="#000000" stroke="#000000" points="260.0301,-1116.7247 269.6511,-1121.9865 265.015,-1117.1124 270,-1117.5 270,-1117.5 270,-1117.5 265.015,-1117.1124 270.3489,-1113.0135 260.0301,-1116.7247 260.0301,-1116.7247"/>
<text text-anchor="start" x="40.3345" y="-1127.5" font-family="Arial" font-size="10.00" fill="#000000">FOREIGN KEY (user_id) REFERENCES users(id)</text>
</g>
<!-- public.articles -->
<g id="node3" class="node">
<title>public.articles</title>
<polygon fill="#efefef" stroke="transparent" points="467,-852.5 467,-887.5 787,-887.5 787,-852.5 467,-852.5"/>
<polygon fill="none" stroke="#000000" points="467,-852.5 467,-887.5 787,-887.5 787,-852.5 467,-852.5"/>
<text text-anchor="start" x="508.7138" y="-865.3" font-family="Arial Bold" font-size="18.00" fill="#000000">public.articles</text>
<text text-anchor="start" x="617.7182" y="-865.3" font-family="Arial" font-size="14.00" fill="#000000">    </text>
<text text-anchor="start" x="651.923" y="-865.3" font-family="Arial" font-size="14.00" fill="#666666">[BASE TABLE]</text>
<polygon fill="none" stroke="#000000" points="467,-822.5 467,-852.5 787,-852.5 787,-822.5 467,-822.5"/>
<text text-anchor="start" x="474" y="-833.9" font-family="Arial" font-size="14.00" fill="#000000">id    </text>
<text text-anchor="start" x="519.094" y="-833.9" font-family="Arial" font-size="14.00" fill="#666666">[bigint]</text>
<polygon fill="none" stroke="#000000" points="467,-792.5 467,-822.5 787,-822.5 787,-792.5 467,-792.5"/>
<text text-anchor="start" x="474" y="-803.9" font-family="Arial" font-size="14.00" fill="#000000">body    </text>
<text text-anchor="start" x="538.5526" y="-803.9" font-family="Arial" font-size="14.00" fill="#666666">[text]</text>
<polygon fill="none" stroke="#000000" points="467,-762.5 467,-792.5 787,-792.5 787,-762.5 467,-762.5"/>
<text text-anchor="start" x="474" y="-773.9" font-family="Arial" font-size="14.00" fill="#000000">user_id    </text>
<text text-anchor="start" x="554.1024" y="-773.9" font-family="Arial" font-size="14.00" fill="#666666">[bigint]</text>
<polygon fill="none" stroke="#000000" points="467,-732.5 467,-762.5 787,-762.5 787,-732.5 467,-732.5"/>
<text text-anchor="start" x="474" y="-743.9" font-family="Arial" font-size="14.00" fill="#000000">created_at    </text>
<text text-anchor="start" x="574.3422" y="-743.9" font-family="Arial" font-size="14.00" fill="#666666">[timestamp(6) without time zone]</text>
<polygon fill="none" stroke="#000000" points="467,-702.5 467,-732.5 787,-732.5 787,-702.5 467,-702.5"/>
<text text-anchor="start" x="473.7546" y="-713.9" font-family="Arial" font-size="14.00" fill="#000000">updated_at    </text>
<text text-anchor="start" x="578.0014" y="-713.9" font-family="Arial" font-size="14.00" fill="#666666">[timestamp(6) without time zone]</text>
<polygon fill="none" stroke="#000000" points="467,-672.5 467,-702.5 787,-702.5 787,-672.5 467,-672.5"/>
<text text-anchor="start" x="474" y="-683.9" font-family="Arial" font-size="14.00" fill="#000000">impressions_count    </text>
<text text-anchor="start" x="624.8906" y="-683.9" font-family="Arial" font-size="14.00" fill="#666666">[integer]</text>
<polygon fill="none" stroke="#000000" points="467,-642.5 467,-672.5 787,-672.5 787,-642.5 467,-642.5"/>
<text text-anchor="start" x="474" y="-653.9" font-family="Arial" font-size="14.00" fill="#000000">start_time    </text>
<text text-anchor="start" x="569.6522" y="-653.9" font-family="Arial" font-size="14.00" fill="#666666">[timestamp(6) without time zone]</text>
<polygon fill="none" stroke="#000000" points="467,-612.5 467,-642.5 787,-642.5 787,-612.5 467,-612.5"/>
<text text-anchor="start" x="474" y="-623.9" font-family="Arial" font-size="14.00" fill="#000000">end_time    </text>
<text text-anchor="start" x="565.7756" y="-623.9" font-family="Arial" font-size="14.00" fill="#666666">[timestamp(6) without time zone]</text>
<polygon fill="none" stroke="#000000" points="467,-582.5 467,-612.5 787,-612.5 787,-582.5 467,-582.5"/>
<text text-anchor="start" x="474" y="-593.9" font-family="Arial" font-size="14.00" fill="#000000">title    </text>
<text text-anchor="start" x="529.9818" y="-593.9" font-family="Arial" font-size="14.00" fill="#666666">[varchar]</text>
<polygon fill="none" stroke="#000000" points="467,-552.5 467,-582.5 787,-582.5 787,-552.5 467,-552.5"/>
<text text-anchor="start" x="474" y="-563.9" font-family="Arial" font-size="14.00" fill="#000000">application_deadline    </text>
<text text-anchor="start" x="635.8022" y="-563.9" font-family="Arial" font-size="14.00" fill="#666666">[date]</text>
<polygon fill="none" stroke="#000000" points="467,-522.5 467,-552.5 787,-552.5 787,-522.5 467,-522.5"/>
<text text-anchor="start" x="474" y="-533.9" font-family="Arial" font-size="14.00" fill="#000000">salary_details    </text>
<text text-anchor="start" x="593.7714" y="-533.9" font-family="Arial" font-size="14.00" fill="#666666">[text]</text>
<polygon fill="none" stroke="#000000" points="467,-492.5 467,-522.5 787,-522.5 787,-492.5 467,-492.5"/>
<text text-anchor="start" x="474" y="-503.9" font-family="Arial" font-size="14.00" fill="#000000">work_location    </text>
<text text-anchor="start" x="593.7714" y="-503.9" font-family="Arial" font-size="14.00" fill="#666666">[varchar]</text>
<polygon fill="none" stroke="#000000" points="467,-462.5 467,-492.5 787,-492.5 787,-462.5 467,-462.5"/>
<text text-anchor="start" x="474" y="-473.9" font-family="Arial" font-size="14.00" fill="#000000">language_requirement    </text>
<text text-anchor="start" x="648.2468" y="-473.9" font-family="Arial" font-size="14.00" fill="#666666">[varchar]</text>
<polygon fill="none" stroke="#000000" points="467,-432.5 467,-462.5 787,-462.5 787,-432.5 467,-432.5"/>
<text text-anchor="start" x="474" y="-443.9" font-family="Arial" font-size="14.00" fill="#000000">japanese_level    </text>
<text text-anchor="start" x="601.568" y="-443.9" font-family="Arial" font-size="14.00" fill="#666666">[varchar]</text>
<polygon fill="none" stroke="#000000" points="467,-402.5 467,-432.5 787,-432.5 787,-402.5 467,-402.5"/>
<text text-anchor="start" x="474" y="-413.9" font-family="Arial" font-size="14.00" fill="#000000">skills_required    </text>
<text text-anchor="start" x="597.648" y="-413.9" font-family="Arial" font-size="14.00" fill="#666666">[text]</text>
<polygon fill="none" stroke="#000000" points="467,-372.5 467,-402.5 787,-402.5 787,-372.5 467,-372.5"/>
<text text-anchor="start" x="474" y="-383.9" font-family="Arial" font-size="14.00" fill="#000000">employment_type    </text>
<text text-anchor="start" x="618.6746" y="-383.9" font-family="Arial" font-size="14.00" fill="#666666">[varchar]</text>
<polygon fill="none" stroke="#000000" points="467,-342.5 467,-372.5 787,-372.5 787,-342.5 467,-342.5"/>
<text text-anchor="start" x="474" y="-353.9" font-family="Arial" font-size="14.00" fill="#000000">description    </text>
<text text-anchor="start" x="575.8822" y="-353.9" font-family="Arial" font-size="14.00" fill="#666666">[text]</text>
<polygon fill="none" stroke="#000000" points="467,-312.5 467,-342.5 787,-342.5 787,-312.5 467,-312.5"/>
<text text-anchor="start" x="474" y="-323.9" font-family="Arial" font-size="14.00" fill="#000000">work_hours    </text>
<text text-anchor="start" x="580.5456" y="-323.9" font-family="Arial" font-size="14.00" fill="#666666">[varchar]</text>
<polygon fill="none" stroke="#000000" points="467,-282.5 467,-312.5 787,-312.5 787,-282.5 467,-282.5"/>
<text text-anchor="start" x="474" y="-293.9" font-family="Arial" font-size="14.00" fill="#000000">trial_period    </text>
<text text-anchor="start" x="577.432" y="-293.9" font-family="Arial" font-size="14.00" fill="#666666">[varchar]</text>
<polygon fill="none" stroke="#000000" points="467,-252.5 467,-282.5 787,-282.5 787,-252.5 467,-252.5"/>
<text text-anchor="start" x="474" y="-263.9" font-family="Arial" font-size="14.00" fill="#000000">days_off    </text>
<text text-anchor="start" x="561.1164" y="-263.9" font-family="Arial" font-size="14.00" fill="#666666">[varchar]</text>
<polygon fill="none" stroke="#000000" points="467,-222.5 467,-252.5 787,-252.5 787,-222.5 467,-222.5"/>
<text text-anchor="start" x="474" y="-233.9" font-family="Arial" font-size="14.00" fill="#000000">overtime    </text>
<text text-anchor="start" x="561.871" y="-233.9" font-family="Arial" font-size="14.00" fill="#666666">[varchar]</text>
<polygon fill="none" stroke="#000000" points="467,-192.5 467,-222.5 787,-222.5 787,-192.5 467,-192.5"/>
<text text-anchor="start" x="474" y="-203.9" font-family="Arial" font-size="14.00" fill="#000000">transportation    </text>
<text text-anchor="start" x="593.7826" y="-203.9" font-family="Arial" font-size="14.00" fill="#666666">[varchar]</text>
<polygon fill="none" stroke="#000000" points="467,-162.5 467,-192.5 787,-192.5 787,-162.5 467,-162.5"/>
<text text-anchor="start" x="474" y="-173.9" font-family="Arial" font-size="14.00" fill="#000000">work_environment    </text>
<text text-anchor="start" x="622.5512" y="-173.9" font-family="Arial" font-size="14.00" fill="#666666">[varchar]</text>
<polygon fill="none" stroke="#000000" points="467,-132.5 467,-162.5 787,-162.5 787,-132.5 467,-132.5"/>
<text text-anchor="start" x="474" y="-143.9" font-family="Arial" font-size="14.00" fill="#000000">other_allowances    </text>
<text text-anchor="start" x="617.1192" y="-143.9" font-family="Arial" font-size="14.00" fill="#666666">[varchar]</text>
<polygon fill="none" stroke="#000000" points="467,-102.5 467,-132.5 787,-132.5 787,-102.5 467,-102.5"/>
<text text-anchor="start" x="474" y="-113.9" font-family="Arial" font-size="14.00" fill="#000000">insurance    </text>
<text text-anchor="start" x="568.885" y="-113.9" font-family="Arial" font-size="14.00" fill="#666666">[varchar]</text>
<polygon fill="none" stroke="#000000" points="467,-72.5 467,-102.5 787,-102.5 787,-72.5 467,-72.5"/>
<text text-anchor="start" x="474" y="-83.9" font-family="Arial" font-size="14.00" fill="#000000">other_benefits    </text>
<text text-anchor="start" x="596.9046" y="-83.9" font-family="Arial" font-size="14.00" fill="#666666">[varchar]</text>
<polygon fill="none" stroke="#000000" points="467,-42.5 467,-72.5 787,-72.5 787,-42.5 467,-42.5"/>
<text text-anchor="start" x="474" y="-53.9" font-family="Arial" font-size="14.00" fill="#000000">status    </text>
<text text-anchor="start" x="545.5512" y="-53.9" font-family="Arial" font-size="14.00" fill="#666666">[integer]</text>
</g>
<!-- public.bookmarks&#45;&gt;public.articles -->
<g id="edge2" class="edge">
<title>public.bookmarks:article_id&#45;&gt;public.articles:id</title>
<path fill="none" stroke="#000000" d="M570.1815,-1086.4057C610.2468,-1076.9263 588.1436,-1008.0728 560,-967 534.9471,-930.4377 492.0529,-967.5623 467,-931 443.5109,-896.7199 425.4444,-837.5 467,-837.5"/>
<polygon fill="#000000" stroke="#000000" points="569.9427,-1086.4313 559.5191,-1083.0258 564.9714,-1086.9657 560,-1087.5 560,-1087.5 560,-1087.5 564.9714,-1086.9657 560.4809,-1091.9742 569.9427,-1086.4313 569.9427,-1086.4313"/>
<text text-anchor="start" x="567.1175" y="-1097.5" font-family="Arial" font-size="10.00" fill="#000000">FOREIGN KEY (article_id) REFERENCES articles(id)</text>
</g>
</g>
</svg>
