<?xml version="1.0" encoding="UTF-8" standalone="no"?>
<!DOCTYPE svg PUBLIC "-//W3C//DTD SVG 1.1//EN"
 "http://www.w3.org/Graphics/SVG/1.1/DTD/svg11.dtd">
<!-- Generated by graphviz version 2.40.1 (20161225.0304)
 -->
<!-- Title: public.articles Pages: 1 -->
<svg width="1696pt" height="1169pt"
 viewBox="0.00 0.00 1696.00 1169.00" xmlns="http://www.w3.org/2000/svg" xmlns:xlink="http://www.w3.org/1999/xlink">
<g id="graph0" class="graph" transform="scale(1 1) rotate(0) translate(4 1165)">
<title>public.articles</title>
<polygon fill="#ffffff" stroke="transparent" points="-4,4 -4,-1165 1692,-1165 1692,4 -4,4"/>
<!-- public.articles -->
<g id="node1" class="node">
<title>public.articles</title>
<polygon fill="#efefef" stroke="transparent" points="702,-772.5 702,-807.5 992,-807.5 992,-772.5 702,-772.5"/>
<polygon fill="none" stroke="#000000" points="702,-772.5 702,-807.5 992,-807.5 992,-772.5 702,-772.5"/>
<text text-anchor="start" x="728.7138" y="-785.3" font-family="Arial Bold" font-size="18.00" fill="#000000">public.articles</text>
<text text-anchor="start" x="837.7182" y="-785.3" font-family="Arial" font-size="14.00" fill="#000000">    </text>
<text text-anchor="start" x="871.923" y="-785.3" font-family="Arial" font-size="14.00" fill="#666666">[BASE TABLE]</text>
<polygon fill="none" stroke="#000000" points="702,-742.5 702,-772.5 992,-772.5 992,-742.5 702,-742.5"/>
<text text-anchor="start" x="709" y="-753.9" font-family="Arial" font-size="14.00" fill="#000000">id </text>
<text text-anchor="start" x="723.7798" y="-753.9" font-family="Arial" font-size="14.00" fill="#666666">[bigint]</text>
<polygon fill="none" stroke="#000000" points="702,-712.5 702,-742.5 992,-742.5 992,-712.5 702,-712.5"/>
<text text-anchor="start" x="709" y="-723.9" font-family="Arial" font-size="14.00" fill="#000000">body </text>
<text text-anchor="start" x="743.2384" y="-723.9" font-family="Arial" font-size="14.00" fill="#666666">[text]</text>
<polygon fill="none" stroke="#000000" points="702,-682.5 702,-712.5 992,-712.5 992,-682.5 702,-682.5"/>
<text text-anchor="start" x="709" y="-693.9" font-family="Arial" font-size="14.00" fill="#000000">user_id </text>
<text text-anchor="start" x="758.7882" y="-693.9" font-family="Arial" font-size="14.00" fill="#666666">[bigint]</text>
<polygon fill="none" stroke="#000000" points="702,-652.5 702,-682.5 992,-682.5 992,-652.5 702,-652.5"/>
<text text-anchor="start" x="709" y="-663.9" font-family="Arial" font-size="14.00" fill="#000000">created_at </text>
<text text-anchor="start" x="779.028" y="-663.9" font-family="Arial" font-size="14.00" fill="#666666">[timestamp(6) without time zone]</text>
<polygon fill="none" stroke="#000000" points="702,-622.5 702,-652.5 992,-652.5 992,-622.5 702,-622.5"/>
<text text-anchor="start" x="708.9117" y="-633.9" font-family="Arial" font-size="14.00" fill="#000000">updated_at </text>
<text text-anchor="start" x="782.8443" y="-633.9" font-family="Arial" font-size="14.00" fill="#666666">[timestamp(6) without time zone]</text>
<polygon fill="none" stroke="#000000" points="702,-592.5 702,-622.5 992,-622.5 992,-592.5 702,-592.5"/>
<text text-anchor="start" x="709" y="-603.9" font-family="Arial" font-size="14.00" fill="#000000">impressions_count </text>
<text text-anchor="start" x="829.5764" y="-603.9" font-family="Arial" font-size="14.00" fill="#666666">[integer]</text>
<polygon fill="none" stroke="#000000" points="702,-562.5 702,-592.5 992,-592.5 992,-562.5 702,-562.5"/>
<text text-anchor="start" x="709" y="-573.9" font-family="Arial" font-size="14.00" fill="#000000">file </text>
<text text-anchor="start" x="730.777" y="-573.9" font-family="Arial" font-size="14.00" fill="#666666">[varchar]</text>
<polygon fill="none" stroke="#000000" points="702,-532.5 702,-562.5 992,-562.5 992,-532.5 702,-532.5"/>
<text text-anchor="start" x="709" y="-543.9" font-family="Arial" font-size="14.00" fill="#000000">start_time </text>
<text text-anchor="start" x="774.338" y="-543.9" font-family="Arial" font-size="14.00" fill="#666666">[timestamp(6) without time zone]</text>
<polygon fill="none" stroke="#000000" points="702,-502.5 702,-532.5 992,-532.5 992,-502.5 702,-502.5"/>
<text text-anchor="start" x="709" y="-513.9" font-family="Arial" font-size="14.00" fill="#000000">end_time </text>
<text text-anchor="start" x="770.4614" y="-513.9" font-family="Arial" font-size="14.00" fill="#666666">[timestamp(6) without time zone]</text>
<polygon fill="none" stroke="#000000" stroke-width="3" points="700.5,-501.5 700.5,-809.5 993.5,-809.5 993.5,-501.5 700.5,-501.5"/>
</g>
<!-- public.users -->
<g id="node6" class="node">
<title>public.users</title>
<polygon fill="#efefef" stroke="transparent" points="646,-342.5 646,-377.5 1048,-377.5 1048,-342.5 646,-342.5"/>
<polygon fill="none" stroke="#000000" points="646,-342.5 646,-377.5 1048,-377.5 1048,-342.5 646,-342.5"/>
<text text-anchor="start" x="735.2091" y="-355.3" font-family="Arial Bold" font-size="18.00" fill="#000000">public.users</text>
<text text-anchor="start" x="831.2229" y="-355.3" font-family="Arial" font-size="14.00" fill="#000000">    </text>
<text text-anchor="start" x="865.4277" y="-355.3" font-family="Arial" font-size="14.00" fill="#666666">[BASE TABLE]</text>
<polygon fill="none" stroke="#000000" points="646,-312.5 646,-342.5 1048,-342.5 1048,-312.5 646,-312.5"/>
<text text-anchor="start" x="653" y="-323.9" font-family="Arial" font-size="14.00" fill="#000000">id    </text>
<text text-anchor="start" x="698.094" y="-323.9" font-family="Arial" font-size="14.00" fill="#666666">[bigint]</text>
<polygon fill="none" stroke="#000000" points="646,-282.5 646,-312.5 1048,-312.5 1048,-282.5 646,-282.5"/>
<text text-anchor="start" x="653" y="-293.9" font-family="Arial" font-size="14.00" fill="#000000">email    </text>
<text text-anchor="start" x="720.6438" y="-293.9" font-family="Arial" font-size="14.00" fill="#666666">[varchar]</text>
<polygon fill="none" stroke="#000000" points="646,-252.5 646,-282.5 1048,-282.5 1048,-252.5 646,-252.5"/>
<text text-anchor="start" x="653" y="-263.9" font-family="Arial" font-size="14.00" fill="#000000">encrypted_password    </text>
<text text-anchor="start" x="816.3492" y="-263.9" font-family="Arial" font-size="14.00" fill="#666666">[varchar]</text>
<polygon fill="none" stroke="#000000" points="646,-222.5 646,-252.5 1048,-252.5 1048,-222.5 646,-222.5"/>
<text text-anchor="start" x="653" y="-233.9" font-family="Arial" font-size="14.00" fill="#000000">reset_password_token    </text>
<text text-anchor="start" x="828.0224" y="-233.9" font-family="Arial" font-size="14.00" fill="#666666">[varchar]</text>
<polygon fill="none" stroke="#000000" points="646,-192.5 646,-222.5 1048,-222.5 1048,-192.5 646,-192.5"/>
<text text-anchor="start" x="652.5302" y="-203.9" font-family="Arial" font-size="14.00" fill="#000000">reset_password_sent_at    </text>
<text text-anchor="start" x="839.2258" y="-203.9" font-family="Arial" font-size="14.00" fill="#666666">[timestamp(6) without time zone]</text>
<polygon fill="none" stroke="#000000" points="646,-162.5 646,-192.5 1048,-192.5 1048,-162.5 646,-162.5"/>
<text text-anchor="start" x="653" y="-173.9" font-family="Arial" font-size="14.00" fill="#000000">remember_created_at    </text>
<text text-anchor="start" x="824.8976" y="-173.9" font-family="Arial" font-size="14.00" fill="#666666">[timestamp(6) without time zone]</text>
<polygon fill="none" stroke="#000000" points="646,-132.5 646,-162.5 1048,-162.5 1048,-132.5 646,-132.5"/>
<text text-anchor="start" x="653" y="-143.9" font-family="Arial" font-size="14.00" fill="#000000">created_at    </text>
<text text-anchor="start" x="753.3422" y="-143.9" font-family="Arial" font-size="14.00" fill="#666666">[timestamp(6) without time zone]</text>
<polygon fill="none" stroke="#000000" points="646,-102.5 646,-132.5 1048,-132.5 1048,-102.5 646,-102.5"/>
<text text-anchor="start" x="653" y="-113.9" font-family="Arial" font-size="14.00" fill="#000000">updated_at    </text>
<text text-anchor="start" x="757.2468" y="-113.9" font-family="Arial" font-size="14.00" fill="#666666">[timestamp(6) without time zone]</text>
<polygon fill="none" stroke="#000000" points="646,-72.5 646,-102.5 1048,-102.5 1048,-72.5 646,-72.5"/>
<text text-anchor="start" x="653" y="-83.9" font-family="Arial" font-size="14.00" fill="#000000">avatar    </text>
<text text-anchor="start" x="726.1038" y="-83.9" font-family="Arial" font-size="14.00" fill="#666666">[varchar]</text>
<polygon fill="none" stroke="#000000" points="646,-42.5 646,-72.5 1048,-72.5 1048,-42.5 646,-42.5"/>
<text text-anchor="start" x="653" y="-53.9" font-family="Arial" font-size="14.00" fill="#000000">username    </text>
<text text-anchor="start" x="749.439" y="-53.9" font-family="Arial" font-size="14.00" fill="#666666">[varchar]</text>
</g>
<!-- public.articles&#45;&gt;public.users -->
<g id="edge5" class="edge">
<title>public.articles:user_id&#45;&gt;public.users:id</title>
<path fill="none" stroke="#000000" d="M1002.0923,-697.0395C1160.5206,-682.4798 1210.9065,-327.5 1048,-327.5"/>
<polygon fill="#000000" stroke="#000000" points="1001.9896,-697.0441 991.7949,-693.0047 996.9948,-697.2721 992,-697.5 992,-697.5 992,-697.5 996.9948,-697.2721 992.2051,-701.9953 1001.9896,-697.0441 1001.9896,-697.0441"/>
<text text-anchor="start" x="999.3345" y="-707.5" font-family="Arial" font-size="10.00" fill="#000000">FOREIGN KEY (user_id) REFERENCES users(id)</text>
</g>
<!-- public.bookmarks -->
<g id="node2" class="node">
<title>public.bookmarks</title>
<polygon fill="#efefef" stroke="transparent" points="43,-1082.5 43,-1117.5 363,-1117.5 363,-1082.5 43,-1082.5"/>
<polygon fill="none" stroke="#000000" points="43,-1082.5 43,-1117.5 363,-1117.5 363,-1082.5 43,-1082.5"/>
<text text-anchor="start" x="69.2068" y="-1095.3" font-family="Arial Bold" font-size="18.00" fill="#000000">public.bookmarks</text>
<text text-anchor="start" x="209.2252" y="-1095.3" font-family="Arial" font-size="14.00" fill="#000000">    </text>
<text text-anchor="start" x="243.43" y="-1095.3" font-family="Arial" font-size="14.00" fill="#666666">[BASE TABLE]</text>
<polygon fill="none" stroke="#000000" points="43,-1052.5 43,-1082.5 363,-1082.5 363,-1052.5 43,-1052.5"/>
<text text-anchor="start" x="50" y="-1063.9" font-family="Arial" font-size="14.00" fill="#000000">id    </text>
<text text-anchor="start" x="95.094" y="-1063.9" font-family="Arial" font-size="14.00" fill="#666666">[bigint]</text>
<polygon fill="none" stroke="#000000" points="43,-1022.5 43,-1052.5 363,-1052.5 363,-1022.5 43,-1022.5"/>
<text text-anchor="start" x="50" y="-1033.9" font-family="Arial" font-size="14.00" fill="#000000">user_id    </text>
<text text-anchor="start" x="130.1024" y="-1033.9" font-family="Arial" font-size="14.00" fill="#666666">[bigint]</text>
<polygon fill="none" stroke="#000000" points="43,-992.5 43,-1022.5 363,-1022.5 363,-992.5 43,-992.5"/>
<text text-anchor="start" x="50" y="-1003.9" font-family="Arial" font-size="14.00" fill="#000000">article_id    </text>
<text text-anchor="start" x="140.2062" y="-1003.9" font-family="Arial" font-size="14.00" fill="#666666">[bigint]</text>
<polygon fill="none" stroke="#000000" points="43,-962.5 43,-992.5 363,-992.5 363,-962.5 43,-962.5"/>
<text text-anchor="start" x="50" y="-973.9" font-family="Arial" font-size="14.00" fill="#000000">created_at    </text>
<text text-anchor="start" x="150.3422" y="-973.9" font-family="Arial" font-size="14.00" fill="#666666">[timestamp(6) without time zone]</text>
<polygon fill="none" stroke="#000000" points="43,-932.5 43,-962.5 363,-962.5 363,-932.5 43,-932.5"/>
<text text-anchor="start" x="49.7546" y="-943.9" font-family="Arial" font-size="14.00" fill="#000000">updated_at    </text>
<text text-anchor="start" x="154.0014" y="-943.9" font-family="Arial" font-size="14.00" fill="#666666">[timestamp(6) without time zone]</text>
</g>
<!-- public.bookmarks&#45;&gt;public.articles -->
<g id="edge1" class="edge">
<title>public.bookmarks:article_id&#45;&gt;public.articles:id</title>
<path fill="none" stroke="#000000" d="M373.0788,-1006.5171C414.4847,-997.4592 377.6008,-927.9977 415,-890 513.552,-789.871 561.5069,-757.5 702,-757.5"/>
<polygon fill="#000000" stroke="#000000" points="372.9528,-1006.5293 362.5632,-1003.0212 367.9764,-1007.0146 363,-1007.5 363,-1007.5 363,-1007.5 367.9764,-1007.0146 363.4368,-1011.9788 372.9528,-1006.5293 372.9528,-1006.5293"/>
<text text-anchor="start" x="244.6175" y="-991.5" font-family="Arial" font-size="10.00" fill="#000000">FOREIGN KEY (article_id) REFERENCES articles(id)</text>
</g>
<!-- public.category_articles -->
<g id="node3" class="node">
<title>public.category_articles</title>
<polygon fill="#efefef" stroke="transparent" points="468,-1082.5 468,-1117.5 797,-1117.5 797,-1082.5 468,-1082.5"/>
<polygon fill="none" stroke="#000000" points="468,-1082.5 468,-1117.5 797,-1117.5 797,-1082.5 468,-1082.5"/>
<text text-anchor="start" x="474.7011" y="-1095.3" font-family="Arial Bold" font-size="18.00" fill="#000000">public.category_articles</text>
<text text-anchor="start" x="662.7309" y="-1095.3" font-family="Arial" font-size="14.00" fill="#000000">    </text>
<text text-anchor="start" x="696.9357" y="-1095.3" font-family="Arial" font-size="14.00" fill="#666666">[BASE TABLE]</text>
<polygon fill="none" stroke="#000000" points="468,-1052.5 468,-1082.5 797,-1082.5 797,-1052.5 468,-1052.5"/>
<text text-anchor="start" x="475" y="-1063.9" font-family="Arial" font-size="14.00" fill="#000000">id    </text>
<text text-anchor="start" x="520.094" y="-1063.9" font-family="Arial" font-size="14.00" fill="#666666">[bigint]</text>
<polygon fill="none" stroke="#000000" points="468,-1022.5 468,-1052.5 797,-1052.5 797,-1022.5 468,-1022.5"/>
<text text-anchor="start" x="475" y="-1033.9" font-family="Arial" font-size="14.00" fill="#000000">category_id    </text>
<text text-anchor="start" x="581.5582" y="-1033.9" font-family="Arial" font-size="14.00" fill="#666666">[bigint]</text>
<polygon fill="none" stroke="#000000" points="468,-992.5 468,-1022.5 797,-1022.5 797,-992.5 468,-992.5"/>
<text text-anchor="start" x="475" y="-1003.9" font-family="Arial" font-size="14.00" fill="#000000">article_id    </text>
<text text-anchor="start" x="565.2062" y="-1003.9" font-family="Arial" font-size="14.00" fill="#666666">[bigint]</text>
<polygon fill="none" stroke="#000000" points="468,-962.5 468,-992.5 797,-992.5 797,-962.5 468,-962.5"/>
<text text-anchor="start" x="475" y="-973.9" font-family="Arial" font-size="14.00" fill="#000000">created_at    </text>
<text text-anchor="start" x="575.3422" y="-973.9" font-family="Arial" font-size="14.00" fill="#666666">[timestamp(6) without time zone]</text>
<polygon fill="none" stroke="#000000" points="468,-932.5 468,-962.5 797,-962.5 797,-932.5 468,-932.5"/>
<text text-anchor="start" x="475" y="-943.9" font-family="Arial" font-size="14.00" fill="#000000">updated_at    </text>
<text text-anchor="start" x="579.2468" y="-943.9" font-family="Arial" font-size="14.00" fill="#666666">[timestamp(6) without time zone]</text>
</g>
<!-- public.category_articles&#45;&gt;public.articles -->
<g id="edge2" class="edge">
<title>public.category_articles:article_id&#45;&gt;public.articles:id</title>
<path fill="none" stroke="#000000" d="M807.4196,-1006.3118C845.8356,-996.6114 824.4691,-929.7846 797,-890 771.3457,-852.8439 727.6543,-891.1561 702,-854 677.6317,-818.7064 659.1111,-757.5 702,-757.5"/>
<polygon fill="#000000" stroke="#000000" points="806.9356,-1006.3669 796.4901,-1003.029 801.9678,-1006.9335 797,-1007.5 797,-1007.5 797,-1007.5 801.9678,-1006.9335 797.5099,-1011.971 806.9356,-1006.3669 806.9356,-1006.3669"/>
<text text-anchor="start" x="804.1175" y="-1017.5" font-family="Arial" font-size="10.00" fill="#000000">FOREIGN KEY (article_id) REFERENCES articles(id)</text>
</g>
<!-- public.likes -->
<g id="node4" class="node">
<title>public.likes</title>
<polygon fill="#efefef" stroke="transparent" points="901,-1082.5 901,-1117.5 1221,-1117.5 1221,-1082.5 901,-1082.5"/>
<polygon fill="none" stroke="#000000" points="901,-1082.5 901,-1117.5 1221,-1117.5 1221,-1082.5 901,-1082.5"/>
<text text-anchor="start" x="953.2141" y="-1095.3" font-family="Arial Bold" font-size="18.00" fill="#000000">public.likes</text>
<text text-anchor="start" x="1041.2179" y="-1095.3" font-family="Arial" font-size="14.00" fill="#000000">    </text>
<text text-anchor="start" x="1075.4227" y="-1095.3" font-family="Arial" font-size="14.00" fill="#666666">[BASE TABLE]</text>
<polygon fill="none" stroke="#000000" points="901,-1052.5 901,-1082.5 1221,-1082.5 1221,-1052.5 901,-1052.5"/>
<text text-anchor="start" x="908" y="-1063.9" font-family="Arial" font-size="14.00" fill="#000000">id    </text>
<text text-anchor="start" x="953.094" y="-1063.9" font-family="Arial" font-size="14.00" fill="#666666">[bigint]</text>
<polygon fill="none" stroke="#000000" points="901,-1022.5 901,-1052.5 1221,-1052.5 1221,-1022.5 901,-1022.5"/>
<text text-anchor="start" x="908" y="-1033.9" font-family="Arial" font-size="14.00" fill="#000000">user_id    </text>
<text text-anchor="start" x="988.1024" y="-1033.9" font-family="Arial" font-size="14.00" fill="#666666">[bigint]</text>
<polygon fill="none" stroke="#000000" points="901,-992.5 901,-1022.5 1221,-1022.5 1221,-992.5 901,-992.5"/>
<text text-anchor="start" x="908" y="-1003.9" font-family="Arial" font-size="14.00" fill="#000000">article_id    </text>
<text text-anchor="start" x="998.2062" y="-1003.9" font-family="Arial" font-size="14.00" fill="#666666">[bigint]</text>
<polygon fill="none" stroke="#000000" points="901,-962.5 901,-992.5 1221,-992.5 1221,-962.5 901,-962.5"/>
<text text-anchor="start" x="908" y="-973.9" font-family="Arial" font-size="14.00" fill="#000000">created_at    </text>
<text text-anchor="start" x="1008.3422" y="-973.9" font-family="Arial" font-size="14.00" fill="#666666">[timestamp(6) without time zone]</text>
<polygon fill="none" stroke="#000000" points="901,-932.5 901,-962.5 1221,-962.5 1221,-932.5 901,-932.5"/>
<text text-anchor="start" x="907.7546" y="-943.9" font-family="Arial" font-size="14.00" fill="#000000">updated_at    </text>
<text text-anchor="start" x="1012.0014" y="-943.9" font-family="Arial" font-size="14.00" fill="#666666">[timestamp(6) without time zone]</text>
</g>
<!-- public.likes&#45;&gt;public.articles -->
<g id="edge3" class="edge">
<title>public.likes:article_id&#45;&gt;public.articles:id</title>
<path fill="none" stroke="#000000" d="M890.5852,-1006.3151C852.2073,-996.6407 873.8197,-929.9825 901,-890 925.4524,-854.0301 967.5476,-889.9699 992,-854 1016.1121,-818.5308 1034.8889,-757.5 992,-757.5"/>
<polygon fill="#000000" stroke="#000000" points="891.0641,-1006.3695 900.4913,-1011.9712 896.032,-1006.9347 901,-1007.5 901,-1007.5 901,-1007.5 896.032,-1006.9347 901.5087,-1003.0288 891.0641,-1006.3695 891.0641,-1006.3695"/>
<text text-anchor="start" x="908.1175" y="-991.5" font-family="Arial" font-size="10.00" fill="#000000">FOREIGN KEY (article_id) REFERENCES articles(id)</text>
</g>
<!-- public.person_articles -->
<g id="node5" class="node">
<title>public.person_articles</title>
<polygon fill="#efefef" stroke="transparent" points="1325,-1082.5 1325,-1117.5 1645,-1117.5 1645,-1082.5 1325,-1082.5"/>
<polygon fill="none" stroke="#000000" points="1325,-1082.5 1325,-1117.5 1645,-1117.5 1645,-1082.5 1325,-1082.5"/>
<text text-anchor="start" x="1334.2022" y="-1095.3" font-family="Arial Bold" font-size="18.00" fill="#000000">public.person_articles</text>
<text text-anchor="start" x="1508.2298" y="-1095.3" font-family="Arial" font-size="14.00" fill="#000000">    </text>
<text text-anchor="start" x="1542.4346" y="-1095.3" font-family="Arial" font-size="14.00" fill="#666666">[BASE TABLE]</text>
<polygon fill="none" stroke="#000000" points="1325,-1052.5 1325,-1082.5 1645,-1082.5 1645,-1052.5 1325,-1052.5"/>
<text text-anchor="start" x="1332" y="-1063.9" font-family="Arial" font-size="14.00" fill="#000000">id    </text>
<text text-anchor="start" x="1377.094" y="-1063.9" font-family="Arial" font-size="14.00" fill="#666666">[bigint]</text>
<polygon fill="none" stroke="#000000" points="1325,-1022.5 1325,-1052.5 1645,-1052.5 1645,-1022.5 1325,-1022.5"/>
<text text-anchor="start" x="1332" y="-1033.9" font-family="Arial" font-size="14.00" fill="#000000">person_id    </text>
<text text-anchor="start" x="1427.6676" y="-1033.9" font-family="Arial" font-size="14.00" fill="#666666">[bigint]</text>
<polygon fill="none" stroke="#000000" points="1325,-992.5 1325,-1022.5 1645,-1022.5 1645,-992.5 1325,-992.5"/>
<text text-anchor="start" x="1332" y="-1003.9" font-family="Arial" font-size="14.00" fill="#000000">article_id    </text>
<text text-anchor="start" x="1422.2062" y="-1003.9" font-family="Arial" font-size="14.00" fill="#666666">[bigint]</text>
<polygon fill="none" stroke="#000000" points="1325,-962.5 1325,-992.5 1645,-992.5 1645,-962.5 1325,-962.5"/>
<text text-anchor="start" x="1332" y="-973.9" font-family="Arial" font-size="14.00" fill="#000000">created_at    </text>
<text text-anchor="start" x="1432.3422" y="-973.9" font-family="Arial" font-size="14.00" fill="#666666">[timestamp(6) without time zone]</text>
<polygon fill="none" stroke="#000000" points="1325,-932.5 1325,-962.5 1645,-962.5 1645,-932.5 1325,-932.5"/>
<text text-anchor="start" x="1331.7546" y="-943.9" font-family="Arial" font-size="14.00" fill="#000000">updated_at    </text>
<text text-anchor="start" x="1436.0014" y="-943.9" font-family="Arial" font-size="14.00" fill="#666666">[timestamp(6) without time zone]</text>
</g>
<!-- public.person_articles&#45;&gt;public.articles -->
<g id="edge4" class="edge">
<title>public.person_articles:article_id&#45;&gt;public.articles:id</title>
<path fill="none" stroke="#000000" d="M1314.9192,-1006.519C1273.4948,-997.4793 1310.2451,-928.1487 1273,-890 1176.5422,-791.202 1130.0766,-757.5 992,-757.5"/>
<polygon fill="#000000" stroke="#000000" points="1315.047,-1006.5314 1324.5641,-1011.9788 1320.0235,-1007.0157 1325,-1007.5 1325,-1007.5 1325,-1007.5 1320.0235,-1007.0157 1325.4359,-1003.0212 1315.047,-1006.5314 1315.047,-1006.5314"/>
<text text-anchor="start" x="1331.8365" y="-1017.5" font-family="Arial" font-size="10.00" fill="#000000">FOREIGN KEY (article_id) REFERENCES articles(id) ON DELETE CASCADE</text>
</g>
</g>
</svg>
