<?xml version="1.0" encoding="UTF-8" standalone="no"?>
<!DOCTYPE svg PUBLIC "-//W3C//DTD SVG 1.1//EN"
 "http://www.w3.org/Graphics/SVG/1.1/DTD/svg11.dtd">
<!-- Generated by graphviz version 2.40.1 (20161225.0304)
 -->
<!-- Title: public.employees Pages: 1 -->
<svg width="850pt" height="682pt"
 viewBox="0.00 0.00 850.00 682.00" xmlns="http://www.w3.org/2000/svg" xmlns:xlink="http://www.w3.org/1999/xlink">
<g id="graph0" class="graph" transform="scale(1 1) rotate(0) translate(4 678)">
<title>public.employees</title>
<polygon fill="#ffffff" stroke="transparent" points="-4,4 -4,-678 846,-678 846,4 -4,4"/>
<!-- public.employees -->
<g id="node1" class="node">
<title>public.employees</title>
<polygon fill="#efefef" stroke="transparent" points="282,-592.5 282,-627.5 572,-627.5 572,-592.5 282,-592.5"/>
<polygon fill="none" stroke="#000000" points="282,-592.5 282,-627.5 572,-627.5 572,-592.5 282,-592.5"/>
<text text-anchor="start" x="293.7027" y="-605.3" font-family="Arial Bold" font-size="18.00" fill="#000000">public.employees</text>
<text text-anchor="start" x="432.7293" y="-605.3" font-family="Arial" font-size="14.00" fill="#000000">    </text>
<text text-anchor="start" x="466.9341" y="-605.3" font-family="Arial" font-size="14.00" fill="#666666">[BASE TABLE]</text>
<polygon fill="none" stroke="#000000" points="282,-562.5 282,-592.5 572,-592.5 572,-562.5 282,-562.5"/>
<text text-anchor="start" x="289" y="-573.9" font-family="Arial" font-size="14.00" fill="#000000">id </text>
<text text-anchor="start" x="303.7798" y="-573.9" font-family="Arial" font-size="14.00" fill="#666666">[bigint]</text>
<polygon fill="none" stroke="#000000" points="282,-532.5 282,-562.5 572,-562.5 572,-532.5 282,-532.5"/>
<text text-anchor="start" x="289" y="-543.9" font-family="Arial" font-size="14.00" fill="#000000">company_id </text>
<text text-anchor="start" x="368.3534" y="-543.9" font-family="Arial" font-size="14.00" fill="#666666">[bigint]</text>
<polygon fill="none" stroke="#000000" points="282,-502.5 282,-532.5 572,-532.5 572,-502.5 282,-502.5"/>
<text text-anchor="start" x="289" y="-513.9" font-family="Arial" font-size="14.00" fill="#000000">user_id </text>
<text text-anchor="start" x="338.7882" y="-513.9" font-family="Arial" font-size="14.00" fill="#666666">[bigint]</text>
<polygon fill="none" stroke="#000000" points="282,-472.5 282,-502.5 572,-502.5 572,-472.5 282,-472.5"/>
<text text-anchor="start" x="289" y="-483.9" font-family="Arial" font-size="14.00" fill="#000000">created_at </text>
<text text-anchor="start" x="359.028" y="-483.9" font-family="Arial" font-size="14.00" fill="#666666">[timestamp(6) without time zone]</text>
<polygon fill="none" stroke="#000000" points="282,-442.5 282,-472.5 572,-472.5 572,-442.5 282,-442.5"/>
<text text-anchor="start" x="288.9117" y="-453.9" font-family="Arial" font-size="14.00" fill="#000000">updated_at </text>
<text text-anchor="start" x="362.8443" y="-453.9" font-family="Arial" font-size="14.00" fill="#666666">[timestamp(6) without time zone]</text>
<polygon fill="none" stroke="#000000" stroke-width="3" points="280.5,-441.5 280.5,-629.5 573.5,-629.5 573.5,-441.5 280.5,-441.5"/>
</g>
<!-- public.companies -->
<g id="node2" class="node">
<title>public.companies</title>
<polygon fill="#efefef" stroke="transparent" points="55,-282.5 55,-317.5 375,-317.5 375,-282.5 55,-282.5"/>
<polygon fill="none" stroke="#000000" points="55,-282.5 55,-317.5 375,-317.5 375,-282.5 55,-282.5"/>
<text text-anchor="start" x="81.7027" y="-295.3" font-family="Arial Bold" font-size="18.00" fill="#000000">public.companies</text>
<text text-anchor="start" x="220.7293" y="-295.3" font-family="Arial" font-size="14.00" fill="#000000">    </text>
<text text-anchor="start" x="254.9341" y="-295.3" font-family="Arial" font-size="14.00" fill="#666666">[BASE TABLE]</text>
<polygon fill="none" stroke="#000000" points="55,-252.5 55,-282.5 375,-282.5 375,-252.5 55,-252.5"/>
<text text-anchor="start" x="62" y="-263.9" font-family="Arial" font-size="14.00" fill="#000000">id    </text>
<text text-anchor="start" x="107.094" y="-263.9" font-family="Arial" font-size="14.00" fill="#666666">[bigint]</text>
<polygon fill="none" stroke="#000000" points="55,-222.5 55,-252.5 375,-252.5 375,-222.5 55,-222.5"/>
<text text-anchor="start" x="62" y="-233.9" font-family="Arial" font-size="14.00" fill="#000000">name    </text>
<text text-anchor="start" x="131.2132" y="-233.9" font-family="Arial" font-size="14.00" fill="#666666">[varchar]</text>
<polygon fill="none" stroke="#000000" points="55,-192.5 55,-222.5 375,-222.5 375,-192.5 55,-192.5"/>
<text text-anchor="start" x="62" y="-203.9" font-family="Arial" font-size="14.00" fill="#000000">area    </text>
<text text-anchor="start" x="124.2132" y="-203.9" font-family="Arial" font-size="14.00" fill="#666666">[integer]</text>
<polygon fill="none" stroke="#000000" points="55,-162.5 55,-192.5 375,-192.5 375,-162.5 55,-162.5"/>
<text text-anchor="start" x="62" y="-173.9" font-family="Arial" font-size="14.00" fill="#000000">location    </text>
<text text-anchor="start" x="144.439" y="-173.9" font-family="Arial" font-size="14.00" fill="#666666">[varchar]</text>
<polygon fill="none" stroke="#000000" points="55,-132.5 55,-162.5 375,-162.5 375,-132.5 55,-132.5"/>
<text text-anchor="start" x="62" y="-143.9" font-family="Arial" font-size="14.00" fill="#000000">website_url    </text>
<text text-anchor="start" x="166.9888" y="-143.9" font-family="Arial" font-size="14.00" fill="#666666">[varchar]</text>
<polygon fill="none" stroke="#000000" points="55,-102.5 55,-132.5 375,-132.5 375,-102.5 55,-102.5"/>
<text text-anchor="start" x="62" y="-113.9" font-family="Arial" font-size="14.00" fill="#000000">string    </text>
<text text-anchor="start" x="130.4278" y="-113.9" font-family="Arial" font-size="14.00" fill="#666666">[varchar]</text>
<polygon fill="none" stroke="#000000" points="55,-72.5 55,-102.5 375,-102.5 375,-72.5 55,-72.5"/>
<text text-anchor="start" x="62" y="-83.9" font-family="Arial" font-size="14.00" fill="#000000">created_at    </text>
<text text-anchor="start" x="162.3422" y="-83.9" font-family="Arial" font-size="14.00" fill="#666666">[timestamp(6) without time zone]</text>
<polygon fill="none" stroke="#000000" points="55,-42.5 55,-72.5 375,-72.5 375,-42.5 55,-42.5"/>
<text text-anchor="start" x="61.7546" y="-53.9" font-family="Arial" font-size="14.00" fill="#000000">updated_at    </text>
<text text-anchor="start" x="166.0014" y="-53.9" font-family="Arial" font-size="14.00" fill="#666666">[timestamp(6) without time zone]</text>
</g>
<!-- public.employees&#45;&gt;public.companies -->
<g id="edge1" class="edge">
<title>public.employees:company_id&#45;&gt;public.companies:id</title>
<path fill="none" stroke="#000000" d="M271.8728,-546.6669C218.3179,-537.1942 246.259,-449.1606 282,-397 307.0529,-360.4377 349.9471,-397.5623 375,-361 398.4891,-326.7199 416.5556,-267.5 375,-267.5"/>
<polygon fill="#000000" stroke="#000000" points="272.0337,-546.6801 281.631,-551.9849 277.0168,-547.09 282,-547.5 282,-547.5 282,-547.5 277.0168,-547.09 282.369,-543.0151 272.0337,-546.6801 272.0337,-546.6801"/>
<text text-anchor="start" x="6.8275" y="-557.5" font-family="Arial" font-size="10.00" fill="#000000">FOREIGN KEY (company_id) REFERENCES companies(id)</text>
</g>
<!-- public.users -->
<g id="node3" class="node">
<title>public.users</title>
<polygon fill="#efefef" stroke="transparent" points="479,-267.5 479,-302.5 799,-302.5 799,-267.5 479,-267.5"/>
<polygon fill="none" stroke="#000000" points="479,-267.5 479,-302.5 799,-302.5 799,-267.5 479,-267.5"/>
<text text-anchor="start" x="527.2091" y="-280.3" font-family="Arial Bold" font-size="18.00" fill="#000000">public.users</text>
<text text-anchor="start" x="623.2229" y="-280.3" font-family="Arial" font-size="14.00" fill="#000000">    </text>
<text text-anchor="start" x="657.4277" y="-280.3" font-family="Arial" font-size="14.00" fill="#666666">[BASE TABLE]</text>
<polygon fill="none" stroke="#000000" points="479,-237.5 479,-267.5 799,-267.5 799,-237.5 479,-237.5"/>
<text text-anchor="start" x="486" y="-248.9" font-family="Arial" font-size="14.00" fill="#000000">id    </text>
<text text-anchor="start" x="531.094" y="-248.9" font-family="Arial" font-size="14.00" fill="#666666">[bigint]</text>
<polygon fill="none" stroke="#000000" points="479,-207.5 479,-237.5 799,-237.5 799,-207.5 479,-207.5"/>
<text text-anchor="start" x="486" y="-218.9" font-family="Arial" font-size="14.00" fill="#000000">email    </text>
<text text-anchor="start" x="553.6438" y="-218.9" font-family="Arial" font-size="14.00" fill="#666666">[varchar]</text>
<polygon fill="none" stroke="#000000" points="479,-177.5 479,-207.5 799,-207.5 799,-177.5 479,-177.5"/>
<text text-anchor="start" x="486" y="-188.9" font-family="Arial" font-size="14.00" fill="#000000">created_at    </text>
<text text-anchor="start" x="586.3422" y="-188.9" font-family="Arial" font-size="14.00" fill="#666666">[timestamp(6) without time zone]</text>
<polygon fill="none" stroke="#000000" points="479,-147.5 479,-177.5 799,-177.5 799,-147.5 479,-147.5"/>
<text text-anchor="start" x="485.7546" y="-158.9" font-family="Arial" font-size="14.00" fill="#000000">updated_at    </text>
<text text-anchor="start" x="590.0014" y="-158.9" font-family="Arial" font-size="14.00" fill="#666666">[timestamp(6) without time zone]</text>
<polygon fill="none" stroke="#000000" points="479,-117.5 479,-147.5 799,-147.5 799,-117.5 479,-117.5"/>
<text text-anchor="start" x="486" y="-128.9" font-family="Arial" font-size="14.00" fill="#000000">role    </text>
<text text-anchor="start" x="543.5372" y="-128.9" font-family="Arial" font-size="14.00" fill="#666666">[integer]</text>
<polygon fill="none" stroke="#000000" points="479,-87.5 479,-117.5 799,-117.5 799,-87.5 479,-87.5"/>
<text text-anchor="start" x="486" y="-98.9" font-family="Arial" font-size="14.00" fill="#000000">username    </text>
<text text-anchor="start" x="582.439" y="-98.9" font-family="Arial" font-size="14.00" fill="#666666">[varchar]</text>
<polygon fill="none" stroke="#000000" points="479,-57.5 479,-87.5 799,-87.5 799,-57.5 479,-57.5"/>
<text text-anchor="start" x="486" y="-68.9" font-family="Arial" font-size="14.00" fill="#000000">avatar    </text>
<text text-anchor="start" x="559.1038" y="-68.9" font-family="Arial" font-size="14.00" fill="#666666">[varchar]</text>
</g>
<!-- public.employees&#45;&gt;public.users -->
<g id="edge2" class="edge">
<title>public.employees:user_id&#45;&gt;public.users:id</title>
<path fill="none" stroke="#000000" d="M582.1403,-516.432C621.8564,-507.1752 597.3676,-439.843 572,-397 547.9822,-356.4368 503.0178,-386.5632 479,-346 457.8277,-310.2425 437.4444,-252.5 479,-252.5"/>
<polygon fill="#000000" stroke="#000000" points="581.945,-516.4525 571.5286,-513.0248 576.9725,-516.9762 572,-517.5 572,-517.5 572,-517.5 576.9725,-516.9762 572.4714,-521.9752 581.945,-516.4525 581.945,-516.4525"/>
<text text-anchor="start" x="579.3345" y="-527.5" font-family="Arial" font-size="10.00" fill="#000000">FOREIGN KEY (user_id) REFERENCES users(id)</text>
</g>
</g>
</svg>
