<?xml version="1.0" encoding="UTF-8" standalone="no"?>
<!DOCTYPE svg PUBLIC "-//W3C//DTD SVG 1.1//EN"
 "http://www.w3.org/Graphics/SVG/1.1/DTD/svg11.dtd">
<!-- Generated by graphviz version 2.40.1 (20161225.0304)
 -->
<!-- Title: public.bookmarks Pages: 1 -->
<svg width="920pt" height="712pt"
 viewBox="0.00 0.00 920.00 712.00" xmlns="http://www.w3.org/2000/svg" xmlns:xlink="http://www.w3.org/1999/xlink">
<g id="graph0" class="graph" transform="scale(1 1) rotate(0) translate(4 708)">
<title>public.bookmarks</title>
<polygon fill="#ffffff" stroke="transparent" points="-4,4 -4,-708 916,-708 916,4 -4,4"/>
<!-- public.bookmarks -->
<g id="node1" class="node">
<title>public.bookmarks</title>
<polygon fill="#efefef" stroke="transparent" points="331,-622.5 331,-657.5 621,-657.5 621,-622.5 331,-622.5"/>
<polygon fill="none" stroke="#000000" points="331,-622.5 331,-657.5 621,-657.5 621,-622.5 331,-622.5"/>
<text text-anchor="start" x="342.2068" y="-635.3" font-family="Arial Bold" font-size="18.00" fill="#000000">public.bookmarks</text>
<text text-anchor="start" x="482.2252" y="-635.3" font-family="Arial" font-size="14.00" fill="#000000">    </text>
<text text-anchor="start" x="516.43" y="-635.3" font-family="Arial" font-size="14.00" fill="#666666">[BASE TABLE]</text>
<polygon fill="none" stroke="#000000" points="331,-592.5 331,-622.5 621,-622.5 621,-592.5 331,-592.5"/>
<text text-anchor="start" x="338" y="-603.9" font-family="Arial" font-size="14.00" fill="#000000">id </text>
<text text-anchor="start" x="352.7798" y="-603.9" font-family="Arial" font-size="14.00" fill="#666666">[bigint]</text>
<polygon fill="none" stroke="#000000" points="331,-562.5 331,-592.5 621,-592.5 621,-562.5 331,-562.5"/>
<text text-anchor="start" x="338" y="-573.9" font-family="Arial" font-size="14.00" fill="#000000">user_id </text>
<text text-anchor="start" x="387.7882" y="-573.9" font-family="Arial" font-size="14.00" fill="#666666">[bigint]</text>
<polygon fill="none" stroke="#000000" points="331,-532.5 331,-562.5 621,-562.5 621,-532.5 331,-532.5"/>
<text text-anchor="start" x="338" y="-543.9" font-family="Arial" font-size="14.00" fill="#000000">article_id </text>
<text text-anchor="start" x="397.892" y="-543.9" font-family="Arial" font-size="14.00" fill="#666666">[bigint]</text>
<polygon fill="none" stroke="#000000" points="331,-502.5 331,-532.5 621,-532.5 621,-502.5 331,-502.5"/>
<text text-anchor="start" x="338" y="-513.9" font-family="Arial" font-size="14.00" fill="#000000">created_at </text>
<text text-anchor="start" x="408.028" y="-513.9" font-family="Arial" font-size="14.00" fill="#666666">[timestamp(6) without time zone]</text>
<polygon fill="none" stroke="#000000" points="331,-472.5 331,-502.5 621,-502.5 621,-472.5 331,-472.5"/>
<text text-anchor="start" x="337.9117" y="-483.9" font-family="Arial" font-size="14.00" fill="#000000">updated_at </text>
<text text-anchor="start" x="411.8443" y="-483.9" font-family="Arial" font-size="14.00" fill="#666666">[timestamp(6) without time zone]</text>
<polygon fill="none" stroke="#000000" stroke-width="3" points="329.5,-471.5 329.5,-659.5 622.5,-659.5 622.5,-471.5 329.5,-471.5"/>
</g>
<!-- public.users -->
<g id="node2" class="node">
<title>public.users</title>
<polygon fill="#efefef" stroke="transparent" points="43,-312.5 43,-347.5 445,-347.5 445,-312.5 43,-312.5"/>
<polygon fill="none" stroke="#000000" points="43,-312.5 43,-347.5 445,-347.5 445,-312.5 43,-312.5"/>
<text text-anchor="start" x="132.2091" y="-325.3" font-family="Arial Bold" font-size="18.00" fill="#000000">public.users</text>
<text text-anchor="start" x="228.2229" y="-325.3" font-family="Arial" font-size="14.00" fill="#000000">    </text>
<text text-anchor="start" x="262.4277" y="-325.3" font-family="Arial" font-size="14.00" fill="#666666">[BASE TABLE]</text>
<polygon fill="none" stroke="#000000" points="43,-282.5 43,-312.5 445,-312.5 445,-282.5 43,-282.5"/>
<text text-anchor="start" x="50" y="-293.9" font-family="Arial" font-size="14.00" fill="#000000">id    </text>
<text text-anchor="start" x="95.094" y="-293.9" font-family="Arial" font-size="14.00" fill="#666666">[bigint]</text>
<polygon fill="none" stroke="#000000" points="43,-252.5 43,-282.5 445,-282.5 445,-252.5 43,-252.5"/>
<text text-anchor="start" x="50" y="-263.9" font-family="Arial" font-size="14.00" fill="#000000">email    </text>
<text text-anchor="start" x="117.6438" y="-263.9" font-family="Arial" font-size="14.00" fill="#666666">[varchar]</text>
<polygon fill="none" stroke="#000000" points="43,-222.5 43,-252.5 445,-252.5 445,-222.5 43,-222.5"/>
<text text-anchor="start" x="50" y="-233.9" font-family="Arial" font-size="14.00" fill="#000000">encrypted_password    </text>
<text text-anchor="start" x="213.3492" y="-233.9" font-family="Arial" font-size="14.00" fill="#666666">[varchar]</text>
<polygon fill="none" stroke="#000000" points="43,-192.5 43,-222.5 445,-222.5 445,-192.5 43,-192.5"/>
<text text-anchor="start" x="50" y="-203.9" font-family="Arial" font-size="14.00" fill="#000000">reset_password_token    </text>
<text text-anchor="start" x="225.0224" y="-203.9" font-family="Arial" font-size="14.00" fill="#666666">[varchar]</text>
<polygon fill="none" stroke="#000000" points="43,-162.5 43,-192.5 445,-192.5 445,-162.5 43,-162.5"/>
<text text-anchor="start" x="49.5302" y="-173.9" font-family="Arial" font-size="14.00" fill="#000000">reset_password_sent_at    </text>
<text text-anchor="start" x="236.2258" y="-173.9" font-family="Arial" font-size="14.00" fill="#666666">[timestamp(6) without time zone]</text>
<polygon fill="none" stroke="#000000" points="43,-132.5 43,-162.5 445,-162.5 445,-132.5 43,-132.5"/>
<text text-anchor="start" x="50" y="-143.9" font-family="Arial" font-size="14.00" fill="#000000">remember_created_at    </text>
<text text-anchor="start" x="221.8976" y="-143.9" font-family="Arial" font-size="14.00" fill="#666666">[timestamp(6) without time zone]</text>
<polygon fill="none" stroke="#000000" points="43,-102.5 43,-132.5 445,-132.5 445,-102.5 43,-102.5"/>
<text text-anchor="start" x="50" y="-113.9" font-family="Arial" font-size="14.00" fill="#000000">created_at    </text>
<text text-anchor="start" x="150.3422" y="-113.9" font-family="Arial" font-size="14.00" fill="#666666">[timestamp(6) without time zone]</text>
<polygon fill="none" stroke="#000000" points="43,-72.5 43,-102.5 445,-102.5 445,-72.5 43,-72.5"/>
<text text-anchor="start" x="50" y="-83.9" font-family="Arial" font-size="14.00" fill="#000000">updated_at    </text>
<text text-anchor="start" x="154.2468" y="-83.9" font-family="Arial" font-size="14.00" fill="#666666">[timestamp(6) without time zone]</text>
<polygon fill="none" stroke="#000000" points="43,-42.5 43,-72.5 445,-72.5 445,-42.5 43,-42.5"/>
<text text-anchor="start" x="50" y="-53.9" font-family="Arial" font-size="14.00" fill="#000000">avatar    </text>
<text text-anchor="start" x="123.1038" y="-53.9" font-family="Arial" font-size="14.00" fill="#666666">[varchar]</text>
</g>
<!-- public.bookmarks&#45;&gt;public.users -->
<g id="edge1" class="edge">
<title>public.bookmarks:user_id&#45;&gt;public.users:id</title>
<path fill="none" stroke="#000000" d="M320.8581,-576.6565C267.1389,-567.0674 293.6223,-478.0006 331,-427 362.4085,-384.1442 413.5915,-433.8558 445,-391 469.5647,-357.4823 486.5556,-297.5 445,-297.5"/>
<polygon fill="#000000" stroke="#000000" points="321.0344,-576.6711 330.627,-581.9845 326.0172,-577.0855 331,-577.5 331,-577.5 331,-577.5 326.0172,-577.0855 331.373,-573.0155 321.0344,-576.6711 321.0344,-576.6711"/>
<text text-anchor="start" x="101.3345" y="-587.5" font-family="Arial" font-size="10.00" fill="#000000">FOREIGN KEY (user_id) REFERENCES users(id)</text>
</g>
<!-- public.articles -->
<g id="node3" class="node">
<title>public.articles</title>
<polygon fill="#efefef" stroke="transparent" points="549,-312.5 549,-347.5 869,-347.5 869,-312.5 549,-312.5"/>
<polygon fill="none" stroke="#000000" points="549,-312.5 549,-347.5 869,-347.5 869,-312.5 549,-312.5"/>
<text text-anchor="start" x="590.7138" y="-325.3" font-family="Arial Bold" font-size="18.00" fill="#000000">public.articles</text>
<text text-anchor="start" x="699.7182" y="-325.3" font-family="Arial" font-size="14.00" fill="#000000">    </text>
<text text-anchor="start" x="733.923" y="-325.3" font-family="Arial" font-size="14.00" fill="#666666">[BASE TABLE]</text>
<polygon fill="none" stroke="#000000" points="549,-282.5 549,-312.5 869,-312.5 869,-282.5 549,-282.5"/>
<text text-anchor="start" x="556" y="-293.9" font-family="Arial" font-size="14.00" fill="#000000">id    </text>
<text text-anchor="start" x="601.094" y="-293.9" font-family="Arial" font-size="14.00" fill="#666666">[bigint]</text>
<polygon fill="none" stroke="#000000" points="549,-252.5 549,-282.5 869,-282.5 869,-252.5 549,-252.5"/>
<text text-anchor="start" x="556" y="-263.9" font-family="Arial" font-size="14.00" fill="#000000">body    </text>
<text text-anchor="start" x="620.5526" y="-263.9" font-family="Arial" font-size="14.00" fill="#666666">[text]</text>
<polygon fill="none" stroke="#000000" points="549,-222.5 549,-252.5 869,-252.5 869,-222.5 549,-222.5"/>
<text text-anchor="start" x="556" y="-233.9" font-family="Arial" font-size="14.00" fill="#000000">user_id    </text>
<text text-anchor="start" x="636.1024" y="-233.9" font-family="Arial" font-size="14.00" fill="#666666">[bigint]</text>
<polygon fill="none" stroke="#000000" points="549,-192.5 549,-222.5 869,-222.5 869,-192.5 549,-192.5"/>
<text text-anchor="start" x="556" y="-203.9" font-family="Arial" font-size="14.00" fill="#000000">created_at    </text>
<text text-anchor="start" x="656.3422" y="-203.9" font-family="Arial" font-size="14.00" fill="#666666">[timestamp(6) without time zone]</text>
<polygon fill="none" stroke="#000000" points="549,-162.5 549,-192.5 869,-192.5 869,-162.5 549,-162.5"/>
<text text-anchor="start" x="555.7546" y="-173.9" font-family="Arial" font-size="14.00" fill="#000000">updated_at    </text>
<text text-anchor="start" x="660.0014" y="-173.9" font-family="Arial" font-size="14.00" fill="#666666">[timestamp(6) without time zone]</text>
<polygon fill="none" stroke="#000000" points="549,-132.5 549,-162.5 869,-162.5 869,-132.5 549,-132.5"/>
<text text-anchor="start" x="556" y="-143.9" font-family="Arial" font-size="14.00" fill="#000000">impressions_count    </text>
<text text-anchor="start" x="706.8906" y="-143.9" font-family="Arial" font-size="14.00" fill="#666666">[integer]</text>
<polygon fill="none" stroke="#000000" points="549,-102.5 549,-132.5 869,-132.5 869,-102.5 549,-102.5"/>
<text text-anchor="start" x="556" y="-113.9" font-family="Arial" font-size="14.00" fill="#000000">file    </text>
<text text-anchor="start" x="608.0912" y="-113.9" font-family="Arial" font-size="14.00" fill="#666666">[varchar]</text>
<polygon fill="none" stroke="#000000" points="549,-72.5 549,-102.5 869,-102.5 869,-72.5 549,-72.5"/>
<text text-anchor="start" x="556" y="-83.9" font-family="Arial" font-size="14.00" fill="#000000">start_time    </text>
<text text-anchor="start" x="651.6522" y="-83.9" font-family="Arial" font-size="14.00" fill="#666666">[timestamp(6) without time zone]</text>
<polygon fill="none" stroke="#000000" points="549,-42.5 549,-72.5 869,-72.5 869,-42.5 549,-42.5"/>
<text text-anchor="start" x="556" y="-53.9" font-family="Arial" font-size="14.00" fill="#000000">end_time    </text>
<text text-anchor="start" x="647.7756" y="-53.9" font-family="Arial" font-size="14.00" fill="#666666">[timestamp(6) without time zone]</text>
</g>
<!-- public.bookmarks&#45;&gt;public.articles -->
<g id="edge2" class="edge">
<title>public.bookmarks:article_id&#45;&gt;public.articles:id</title>
<path fill="none" stroke="#000000" d="M631.1523,-546.4247C670.9701,-537.1064 647.1761,-469.3538 621,-427 602.1909,-396.5662 567.8091,-421.4338 549,-391 527.153,-355.6507 507.4444,-297.5 549,-297.5"/>
<polygon fill="#000000" stroke="#000000" points="630.9444,-546.4467 620.526,-543.025 625.9722,-546.9733 621,-547.5 621,-547.5 621,-547.5 625.9722,-546.9733 621.474,-551.975 630.9444,-546.4467 630.9444,-546.4467"/>
<text text-anchor="start" x="628.1175" y="-557.5" font-family="Arial" font-size="10.00" fill="#000000">FOREIGN KEY (article_id) REFERENCES articles(id)</text>
</g>
</g>
</svg>
