<?xml version="1.0" encoding="UTF-8" standalone="no"?>
<!DOCTYPE svg PUBLIC "-//W3C//DTD SVG 1.1//EN"
 "http://www.w3.org/Graphics/SVG/1.1/DTD/svg11.dtd">
<!-- Generated by graphviz version 2.40.1 (20161225.0304)
 -->
<!-- Title: public.users Pages: 1 -->
<svg width="1262pt" height="862pt"
 viewBox="0.00 0.00 1262.00 862.00" xmlns="http://www.w3.org/2000/svg" xmlns:xlink="http://www.w3.org/1999/xlink">
<g id="graph0" class="graph" transform="scale(1 1) rotate(0) translate(4 858)">
<title>public.users</title>
<polygon fill="#ffffff" stroke="transparent" points="-4,4 -4,-858 1258,-858 1258,4 -4,4"/>
<!-- public.users -->
<g id="node1" class="node">
<title>public.users</title>
<polygon fill="#efefef" stroke="transparent" points="441,-345.5 441,-380.5 813,-380.5 813,-345.5 441,-345.5"/>
<polygon fill="none" stroke="#000000" points="441,-345.5 441,-380.5 813,-380.5 813,-345.5 441,-345.5"/>
<text text-anchor="start" x="515.2091" y="-358.3" font-family="Arial Bold" font-size="18.00" fill="#000000">public.users</text>
<text text-anchor="start" x="611.2229" y="-358.3" font-family="Arial" font-size="14.00" fill="#000000">    </text>
<text text-anchor="start" x="645.4277" y="-358.3" font-family="Arial" font-size="14.00" fill="#666666">[BASE TABLE]</text>
<polygon fill="none" stroke="#000000" points="441,-315.5 441,-345.5 813,-345.5 813,-315.5 441,-315.5"/>
<text text-anchor="start" x="448" y="-326.9" font-family="Arial" font-size="14.00" fill="#000000">id </text>
<text text-anchor="start" x="462.7798" y="-326.9" font-family="Arial" font-size="14.00" fill="#666666">[bigint]</text>
<polygon fill="none" stroke="#000000" points="441,-285.5 441,-315.5 813,-315.5 813,-285.5 441,-285.5"/>
<text text-anchor="start" x="448" y="-296.9" font-family="Arial" font-size="14.00" fill="#000000">email </text>
<text text-anchor="start" x="485.3296" y="-296.9" font-family="Arial" font-size="14.00" fill="#666666">[varchar]</text>
<polygon fill="none" stroke="#000000" points="441,-255.5 441,-285.5 813,-285.5 813,-255.5 441,-255.5"/>
<text text-anchor="start" x="448" y="-266.9" font-family="Arial" font-size="14.00" fill="#000000">encrypted_password </text>
<text text-anchor="start" x="581.035" y="-266.9" font-family="Arial" font-size="14.00" fill="#666666">[varchar]</text>
<polygon fill="none" stroke="#000000" points="441,-225.5 441,-255.5 813,-255.5 813,-225.5 441,-225.5"/>
<text text-anchor="start" x="448" y="-236.9" font-family="Arial" font-size="14.00" fill="#000000">reset_password_token </text>
<text text-anchor="start" x="592.7082" y="-236.9" font-family="Arial" font-size="14.00" fill="#666666">[varchar]</text>
<polygon fill="none" stroke="#000000" points="441,-195.5 441,-225.5 813,-225.5 813,-195.5 441,-195.5"/>
<text text-anchor="start" x="447.6873" y="-206.9" font-family="Arial" font-size="14.00" fill="#000000">reset_password_sent_at </text>
<text text-anchor="start" x="604.0687" y="-206.9" font-family="Arial" font-size="14.00" fill="#666666">[timestamp(6) without time zone]</text>
<polygon fill="none" stroke="#000000" points="441,-165.5 441,-195.5 813,-195.5 813,-165.5 441,-165.5"/>
<text text-anchor="start" x="448" y="-176.9" font-family="Arial" font-size="14.00" fill="#000000">remember_created_at </text>
<text text-anchor="start" x="589.5834" y="-176.9" font-family="Arial" font-size="14.00" fill="#666666">[timestamp(6) without time zone]</text>
<polygon fill="none" stroke="#000000" points="441,-135.5 441,-165.5 813,-165.5 813,-135.5 441,-135.5"/>
<text text-anchor="start" x="448" y="-146.9" font-family="Arial" font-size="14.00" fill="#000000">created_at </text>
<text text-anchor="start" x="518.028" y="-146.9" font-family="Arial" font-size="14.00" fill="#666666">[timestamp(6) without time zone]</text>
<polygon fill="none" stroke="#000000" points="441,-105.5 441,-135.5 813,-135.5 813,-105.5 441,-105.5"/>
<text text-anchor="start" x="448" y="-116.9" font-family="Arial" font-size="14.00" fill="#000000">updated_at </text>
<text text-anchor="start" x="521.9326" y="-116.9" font-family="Arial" font-size="14.00" fill="#666666">[timestamp(6) without time zone]</text>
<polygon fill="none" stroke="#000000" points="441,-75.5 441,-105.5 813,-105.5 813,-75.5 441,-75.5"/>
<text text-anchor="start" x="448" y="-86.9" font-family="Arial" font-size="14.00" fill="#000000">avatar </text>
<text text-anchor="start" x="490.7896" y="-86.9" font-family="Arial" font-size="14.00" fill="#666666">[varchar]</text>
<polygon fill="none" stroke="#000000" points="441,-45.5 441,-75.5 813,-75.5 813,-45.5 441,-45.5"/>
<text text-anchor="start" x="448" y="-56.9" font-family="Arial" font-size="14.00" fill="#000000">username </text>
<text text-anchor="start" x="514.1248" y="-56.9" font-family="Arial" font-size="14.00" fill="#666666">[varchar]</text>
<polygon fill="none" stroke="#000000" stroke-width="3" points="439.5,-44.5 439.5,-382.5 814.5,-382.5 814.5,-44.5 439.5,-44.5"/>
</g>
<!-- public.articles -->
<g id="node2" class="node">
<title>public.articles</title>
<polygon fill="#efefef" stroke="transparent" points="43,-775.5 43,-810.5 363,-810.5 363,-775.5 43,-775.5"/>
<polygon fill="none" stroke="#000000" points="43,-775.5 43,-810.5 363,-810.5 363,-775.5 43,-775.5"/>
<text text-anchor="start" x="84.7138" y="-788.3" font-family="Arial Bold" font-size="18.00" fill="#000000">public.articles</text>
<text text-anchor="start" x="193.7182" y="-788.3" font-family="Arial" font-size="14.00" fill="#000000">    </text>
<text text-anchor="start" x="227.923" y="-788.3" font-family="Arial" font-size="14.00" fill="#666666">[BASE TABLE]</text>
<polygon fill="none" stroke="#000000" points="43,-745.5 43,-775.5 363,-775.5 363,-745.5 43,-745.5"/>
<text text-anchor="start" x="50" y="-756.9" font-family="Arial" font-size="14.00" fill="#000000">id    </text>
<text text-anchor="start" x="95.094" y="-756.9" font-family="Arial" font-size="14.00" fill="#666666">[bigint]</text>
<polygon fill="none" stroke="#000000" points="43,-715.5 43,-745.5 363,-745.5 363,-715.5 43,-715.5"/>
<text text-anchor="start" x="50" y="-726.9" font-family="Arial" font-size="14.00" fill="#000000">body    </text>
<text text-anchor="start" x="114.5526" y="-726.9" font-family="Arial" font-size="14.00" fill="#666666">[text]</text>
<polygon fill="none" stroke="#000000" points="43,-685.5 43,-715.5 363,-715.5 363,-685.5 43,-685.5"/>
<text text-anchor="start" x="50" y="-696.9" font-family="Arial" font-size="14.00" fill="#000000">user_id    </text>
<text text-anchor="start" x="130.1024" y="-696.9" font-family="Arial" font-size="14.00" fill="#666666">[bigint]</text>
<polygon fill="none" stroke="#000000" points="43,-655.5 43,-685.5 363,-685.5 363,-655.5 43,-655.5"/>
<text text-anchor="start" x="50" y="-666.9" font-family="Arial" font-size="14.00" fill="#000000">created_at    </text>
<text text-anchor="start" x="150.3422" y="-666.9" font-family="Arial" font-size="14.00" fill="#666666">[timestamp(6) without time zone]</text>
<polygon fill="none" stroke="#000000" points="43,-625.5 43,-655.5 363,-655.5 363,-625.5 43,-625.5"/>
<text text-anchor="start" x="49.7546" y="-636.9" font-family="Arial" font-size="14.00" fill="#000000">updated_at    </text>
<text text-anchor="start" x="154.0014" y="-636.9" font-family="Arial" font-size="14.00" fill="#666666">[timestamp(6) without time zone]</text>
<polygon fill="none" stroke="#000000" points="43,-595.5 43,-625.5 363,-625.5 363,-595.5 43,-595.5"/>
<text text-anchor="start" x="50" y="-606.9" font-family="Arial" font-size="14.00" fill="#000000">impressions_count    </text>
<text text-anchor="start" x="200.8906" y="-606.9" font-family="Arial" font-size="14.00" fill="#666666">[integer]</text>
<polygon fill="none" stroke="#000000" points="43,-565.5 43,-595.5 363,-595.5 363,-565.5 43,-565.5"/>
<text text-anchor="start" x="50" y="-576.9" font-family="Arial" font-size="14.00" fill="#000000">file    </text>
<text text-anchor="start" x="102.0912" y="-576.9" font-family="Arial" font-size="14.00" fill="#666666">[varchar]</text>
<polygon fill="none" stroke="#000000" points="43,-535.5 43,-565.5 363,-565.5 363,-535.5 43,-535.5"/>
<text text-anchor="start" x="50" y="-546.9" font-family="Arial" font-size="14.00" fill="#000000">start_time    </text>
<text text-anchor="start" x="145.6522" y="-546.9" font-family="Arial" font-size="14.00" fill="#666666">[timestamp(6) without time zone]</text>
<polygon fill="none" stroke="#000000" points="43,-505.5 43,-535.5 363,-535.5 363,-505.5 43,-505.5"/>
<text text-anchor="start" x="50" y="-516.9" font-family="Arial" font-size="14.00" fill="#000000">end_time    </text>
<text text-anchor="start" x="141.7756" y="-516.9" font-family="Arial" font-size="14.00" fill="#666666">[timestamp(6) without time zone]</text>
</g>
<!-- public.articles&#45;&gt;public.users -->
<g id="edge1" class="edge">
<title>public.articles:user_id&#45;&gt;public.users:id</title>
<path fill="none" stroke="#000000" d="M372.8953,-698.5093C439.6114,-669.3863 360.5812,-330.5 441,-330.5"/>
<polygon fill="#000000" stroke="#000000" points="372.8036,-698.5277 362.1124,-696.0884 367.9018,-699.5138 363,-700.5 363,-700.5 363,-700.5 367.9018,-699.5138 363.8876,-704.9116 372.8036,-698.5277 372.8036,-698.5277"/>
<text text-anchor="start" x="370.3345" y="-710.5" font-family="Arial" font-size="10.00" fill="#000000">FOREIGN KEY (user_id) REFERENCES users(id)</text>
</g>
<!-- public.bookmarks -->
<g id="node3" class="node">
<title>public.bookmarks</title>
<polygon fill="#efefef" stroke="transparent" points="467,-715.5 467,-750.5 787,-750.5 787,-715.5 467,-715.5"/>
<polygon fill="none" stroke="#000000" points="467,-715.5 467,-750.5 787,-750.5 787,-715.5 467,-715.5"/>
<text text-anchor="start" x="493.2068" y="-728.3" font-family="Arial Bold" font-size="18.00" fill="#000000">public.bookmarks</text>
<text text-anchor="start" x="633.2252" y="-728.3" font-family="Arial" font-size="14.00" fill="#000000">    </text>
<text text-anchor="start" x="667.43" y="-728.3" font-family="Arial" font-size="14.00" fill="#666666">[BASE TABLE]</text>
<polygon fill="none" stroke="#000000" points="467,-685.5 467,-715.5 787,-715.5 787,-685.5 467,-685.5"/>
<text text-anchor="start" x="474" y="-696.9" font-family="Arial" font-size="14.00" fill="#000000">id    </text>
<text text-anchor="start" x="519.094" y="-696.9" font-family="Arial" font-size="14.00" fill="#666666">[bigint]</text>
<polygon fill="none" stroke="#000000" points="467,-655.5 467,-685.5 787,-685.5 787,-655.5 467,-655.5"/>
<text text-anchor="start" x="474" y="-666.9" font-family="Arial" font-size="14.00" fill="#000000">user_id    </text>
<text text-anchor="start" x="554.1024" y="-666.9" font-family="Arial" font-size="14.00" fill="#666666">[bigint]</text>
<polygon fill="none" stroke="#000000" points="467,-625.5 467,-655.5 787,-655.5 787,-625.5 467,-625.5"/>
<text text-anchor="start" x="474" y="-636.9" font-family="Arial" font-size="14.00" fill="#000000">article_id    </text>
<text text-anchor="start" x="564.2062" y="-636.9" font-family="Arial" font-size="14.00" fill="#666666">[bigint]</text>
<polygon fill="none" stroke="#000000" points="467,-595.5 467,-625.5 787,-625.5 787,-595.5 467,-595.5"/>
<text text-anchor="start" x="474" y="-606.9" font-family="Arial" font-size="14.00" fill="#000000">created_at    </text>
<text text-anchor="start" x="574.3422" y="-606.9" font-family="Arial" font-size="14.00" fill="#666666">[timestamp(6) without time zone]</text>
<polygon fill="none" stroke="#000000" points="467,-565.5 467,-595.5 787,-595.5 787,-565.5 467,-565.5"/>
<text text-anchor="start" x="473.7546" y="-576.9" font-family="Arial" font-size="14.00" fill="#000000">updated_at    </text>
<text text-anchor="start" x="578.0014" y="-576.9" font-family="Arial" font-size="14.00" fill="#666666">[timestamp(6) without time zone]</text>
</g>
<!-- public.bookmarks&#45;&gt;public.users -->
<g id="edge2" class="edge">
<title>public.bookmarks:user_id&#45;&gt;public.users:id</title>
<path fill="none" stroke="#000000" d="M795.4281,-664.8823C828.4783,-620.6759 848.0021,-330.5 813,-330.5"/>
<polygon fill="#000000" stroke="#000000" points="795.321,-664.9537 784.5042,-666.7555 791.1605,-667.7268 787,-670.5 787,-670.5 787,-670.5 791.1605,-667.7268 789.4958,-674.2445 795.321,-664.9537 795.321,-664.9537"/>
<text text-anchor="start" x="675.8345" y="-654.5" font-family="Arial" font-size="10.00" fill="#000000">FOREIGN KEY (user_id) REFERENCES users(id)</text>
</g>
<!-- public.likes -->
<g id="node4" class="node">
<title>public.likes</title>
<polygon fill="#efefef" stroke="transparent" points="891,-715.5 891,-750.5 1211,-750.5 1211,-715.5 891,-715.5"/>
<polygon fill="none" stroke="#000000" points="891,-715.5 891,-750.5 1211,-750.5 1211,-715.5 891,-715.5"/>
<text text-anchor="start" x="943.2141" y="-728.3" font-family="Arial Bold" font-size="18.00" fill="#000000">public.likes</text>
<text text-anchor="start" x="1031.2179" y="-728.3" font-family="Arial" font-size="14.00" fill="#000000">    </text>
<text text-anchor="start" x="1065.4227" y="-728.3" font-family="Arial" font-size="14.00" fill="#666666">[BASE TABLE]</text>
<polygon fill="none" stroke="#000000" points="891,-685.5 891,-715.5 1211,-715.5 1211,-685.5 891,-685.5"/>
<text text-anchor="start" x="898" y="-696.9" font-family="Arial" font-size="14.00" fill="#000000">id    </text>
<text text-anchor="start" x="943.094" y="-696.9" font-family="Arial" font-size="14.00" fill="#666666">[bigint]</text>
<polygon fill="none" stroke="#000000" points="891,-655.5 891,-685.5 1211,-685.5 1211,-655.5 891,-655.5"/>
<text text-anchor="start" x="898" y="-666.9" font-family="Arial" font-size="14.00" fill="#000000">user_id    </text>
<text text-anchor="start" x="978.1024" y="-666.9" font-family="Arial" font-size="14.00" fill="#666666">[bigint]</text>
<polygon fill="none" stroke="#000000" points="891,-625.5 891,-655.5 1211,-655.5 1211,-625.5 891,-625.5"/>
<text text-anchor="start" x="898" y="-636.9" font-family="Arial" font-size="14.00" fill="#000000">article_id    </text>
<text text-anchor="start" x="988.2062" y="-636.9" font-family="Arial" font-size="14.00" fill="#666666">[bigint]</text>
<polygon fill="none" stroke="#000000" points="891,-595.5 891,-625.5 1211,-625.5 1211,-595.5 891,-595.5"/>
<text text-anchor="start" x="898" y="-606.9" font-family="Arial" font-size="14.00" fill="#000000">created_at    </text>
<text text-anchor="start" x="998.3422" y="-606.9" font-family="Arial" font-size="14.00" fill="#666666">[timestamp(6) without time zone]</text>
<polygon fill="none" stroke="#000000" points="891,-565.5 891,-595.5 1211,-595.5 1211,-565.5 891,-565.5"/>
<text text-anchor="start" x="897.7546" y="-576.9" font-family="Arial" font-size="14.00" fill="#000000">updated_at    </text>
<text text-anchor="start" x="1002.0014" y="-576.9" font-family="Arial" font-size="14.00" fill="#666666">[timestamp(6) without time zone]</text>
</g>
<!-- public.likes&#45;&gt;public.users -->
<g id="edge3" class="edge">
<title>public.likes:user_id&#45;&gt;public.users:id</title>
<path fill="none" stroke="#000000" d="M881.0859,-668.3288C820.3643,-639.3721 886.8846,-330.5 813,-330.5"/>
<polygon fill="#000000" stroke="#000000" points="881.2315,-668.3606 890.0373,-674.8958 886.1158,-669.4303 891,-670.5 891,-670.5 891,-670.5 886.1158,-669.4303 891.9627,-666.1042 881.2315,-668.3606 881.2315,-668.3606"/>
<text text-anchor="start" x="661.3345" y="-680.5" font-family="Arial" font-size="10.00" fill="#000000">FOREIGN KEY (user_id) REFERENCES users(id)</text>
</g>
</g>
</svg>
