<?xml version="1.0" encoding="UTF-8" standalone="no"?>
<!DOCTYPE svg PUBLIC "-//W3C//DTD SVG 1.1//EN"
 "http://www.w3.org/Graphics/SVG/1.1/DTD/svg11.dtd">
<!-- Generated by graphviz version 2.40.1 (20161225.0304)
 -->
<!-- Title: public.users Pages: 1 -->
<svg width="1262pt" height="712pt"
 viewBox="0.00 0.00 1262.00 712.00" xmlns="http://www.w3.org/2000/svg" xmlns:xlink="http://www.w3.org/1999/xlink">
<g id="graph0" class="graph" transform="scale(1 1) rotate(0) translate(4 708)">
<title>public.users</title>
<polygon fill="#ffffff" stroke="transparent" points="-4,4 -4,-708 1258,-708 1258,4 -4,4"/>
<!-- public.users -->
<g id="node1" class="node">
<title>public.users</title>
<polygon fill="#efefef" stroke="transparent" points="482,-195.5 482,-230.5 772,-230.5 772,-195.5 482,-195.5"/>
<polygon fill="none" stroke="#000000" points="482,-195.5 482,-230.5 772,-230.5 772,-195.5 482,-195.5"/>
<text text-anchor="start" x="515.2091" y="-208.3" font-family="Arial Bold" font-size="18.00" fill="#000000">public.users</text>
<text text-anchor="start" x="611.2229" y="-208.3" font-family="Arial" font-size="14.00" fill="#000000">    </text>
<text text-anchor="start" x="645.4277" y="-208.3" font-family="Arial" font-size="14.00" fill="#666666">[BASE TABLE]</text>
<polygon fill="none" stroke="#000000" points="482,-165.5 482,-195.5 772,-195.5 772,-165.5 482,-165.5"/>
<text text-anchor="start" x="489" y="-176.9" font-family="Arial" font-size="14.00" fill="#000000">id </text>
<text text-anchor="start" x="503.7798" y="-176.9" font-family="Arial" font-size="14.00" fill="#666666">[bigint]</text>
<polygon fill="none" stroke="#000000" points="482,-135.5 482,-165.5 772,-165.5 772,-135.5 482,-135.5"/>
<text text-anchor="start" x="489" y="-146.9" font-family="Arial" font-size="14.00" fill="#000000">email </text>
<text text-anchor="start" x="526.3296" y="-146.9" font-family="Arial" font-size="14.00" fill="#666666">[varchar]</text>
<polygon fill="none" stroke="#000000" points="482,-105.5 482,-135.5 772,-135.5 772,-105.5 482,-105.5"/>
<text text-anchor="start" x="489" y="-116.9" font-family="Arial" font-size="14.00" fill="#000000">created_at </text>
<text text-anchor="start" x="559.028" y="-116.9" font-family="Arial" font-size="14.00" fill="#666666">[timestamp(6) without time zone]</text>
<polygon fill="none" stroke="#000000" points="482,-75.5 482,-105.5 772,-105.5 772,-75.5 482,-75.5"/>
<text text-anchor="start" x="488.9117" y="-86.9" font-family="Arial" font-size="14.00" fill="#000000">updated_at </text>
<text text-anchor="start" x="562.8443" y="-86.9" font-family="Arial" font-size="14.00" fill="#666666">[timestamp(6) without time zone]</text>
<polygon fill="none" stroke="#000000" points="482,-45.5 482,-75.5 772,-75.5 772,-45.5 482,-45.5"/>
<text text-anchor="start" x="489" y="-56.9" font-family="Arial" font-size="14.00" fill="#000000">role </text>
<text text-anchor="start" x="516.223" y="-56.9" font-family="Arial" font-size="14.00" fill="#666666">[integer]</text>
<polygon fill="none" stroke="#000000" stroke-width="3" points="480.5,-44.5 480.5,-232.5 773.5,-232.5 773.5,-44.5 480.5,-44.5"/>
</g>
<!-- public.articles -->
<g id="node2" class="node">
<title>public.articles</title>
<polygon fill="#efefef" stroke="transparent" points="43,-625.5 43,-660.5 363,-660.5 363,-625.5 43,-625.5"/>
<polygon fill="none" stroke="#000000" points="43,-625.5 43,-660.5 363,-660.5 363,-625.5 43,-625.5"/>
<text text-anchor="start" x="84.7138" y="-638.3" font-family="Arial Bold" font-size="18.00" fill="#000000">public.articles</text>
<text text-anchor="start" x="193.7182" y="-638.3" font-family="Arial" font-size="14.00" fill="#000000">    </text>
<text text-anchor="start" x="227.923" y="-638.3" font-family="Arial" font-size="14.00" fill="#666666">[BASE TABLE]</text>
<polygon fill="none" stroke="#000000" points="43,-595.5 43,-625.5 363,-625.5 363,-595.5 43,-595.5"/>
<text text-anchor="start" x="50" y="-606.9" font-family="Arial" font-size="14.00" fill="#000000">id    </text>
<text text-anchor="start" x="95.094" y="-606.9" font-family="Arial" font-size="14.00" fill="#666666">[bigint]</text>
<polygon fill="none" stroke="#000000" points="43,-565.5 43,-595.5 363,-595.5 363,-565.5 43,-565.5"/>
<text text-anchor="start" x="50" y="-576.9" font-family="Arial" font-size="14.00" fill="#000000">body    </text>
<text text-anchor="start" x="114.5526" y="-576.9" font-family="Arial" font-size="14.00" fill="#666666">[text]</text>
<polygon fill="none" stroke="#000000" points="43,-535.5 43,-565.5 363,-565.5 363,-535.5 43,-535.5"/>
<text text-anchor="start" x="50" y="-546.9" font-family="Arial" font-size="14.00" fill="#000000">user_id    </text>
<text text-anchor="start" x="130.1024" y="-546.9" font-family="Arial" font-size="14.00" fill="#666666">[bigint]</text>
<polygon fill="none" stroke="#000000" points="43,-505.5 43,-535.5 363,-535.5 363,-505.5 43,-505.5"/>
<text text-anchor="start" x="50" y="-516.9" font-family="Arial" font-size="14.00" fill="#000000">created_at    </text>
<text text-anchor="start" x="150.3422" y="-516.9" font-family="Arial" font-size="14.00" fill="#666666">[timestamp(6) without time zone]</text>
<polygon fill="none" stroke="#000000" points="43,-475.5 43,-505.5 363,-505.5 363,-475.5 43,-475.5"/>
<text text-anchor="start" x="49.7546" y="-486.9" font-family="Arial" font-size="14.00" fill="#000000">updated_at    </text>
<text text-anchor="start" x="154.0014" y="-486.9" font-family="Arial" font-size="14.00" fill="#666666">[timestamp(6) without time zone]</text>
<polygon fill="none" stroke="#000000" points="43,-445.5 43,-475.5 363,-475.5 363,-445.5 43,-445.5"/>
<text text-anchor="start" x="50" y="-456.9" font-family="Arial" font-size="14.00" fill="#000000">impressions_count    </text>
<text text-anchor="start" x="200.8906" y="-456.9" font-family="Arial" font-size="14.00" fill="#666666">[integer]</text>
<polygon fill="none" stroke="#000000" points="43,-415.5 43,-445.5 363,-445.5 363,-415.5 43,-415.5"/>
<text text-anchor="start" x="50" y="-426.9" font-family="Arial" font-size="14.00" fill="#000000">file    </text>
<text text-anchor="start" x="102.0912" y="-426.9" font-family="Arial" font-size="14.00" fill="#666666">[varchar]</text>
<polygon fill="none" stroke="#000000" points="43,-385.5 43,-415.5 363,-415.5 363,-385.5 43,-385.5"/>
<text text-anchor="start" x="50" y="-396.9" font-family="Arial" font-size="14.00" fill="#000000">start_time    </text>
<text text-anchor="start" x="145.6522" y="-396.9" font-family="Arial" font-size="14.00" fill="#666666">[timestamp(6) without time zone]</text>
<polygon fill="none" stroke="#000000" points="43,-355.5 43,-385.5 363,-385.5 363,-355.5 43,-355.5"/>
<text text-anchor="start" x="50" y="-366.9" font-family="Arial" font-size="14.00" fill="#000000">end_time    </text>
<text text-anchor="start" x="141.7756" y="-366.9" font-family="Arial" font-size="14.00" fill="#666666">[timestamp(6) without time zone]</text>
</g>
<!-- public.articles&#45;&gt;public.users -->
<g id="edge1" class="edge">
<title>public.articles:user_id&#45;&gt;public.users:id</title>
<path fill="none" stroke="#000000" d="M372.8151,-548.1258C414.5218,-526.3158 398.0906,-360.5214 415,-313 437.1221,-250.829 416.0105,-180.5 482,-180.5"/>
<polygon fill="#000000" stroke="#000000" points="372.7197,-548.1488 361.942,-546.1261 367.8598,-549.3244 363,-550.5 363,-550.5 363,-550.5 367.8598,-549.3244 364.058,-554.8739 372.7197,-548.1488 372.7197,-548.1488"/>
<text text-anchor="start" x="370.3345" y="-560.5" font-family="Arial" font-size="10.00" fill="#000000">FOREIGN KEY (user_id) REFERENCES users(id)</text>
</g>
<!-- public.bookmarks -->
<g id="node3" class="node">
<title>public.bookmarks</title>
<polygon fill="#efefef" stroke="transparent" points="467,-565.5 467,-600.5 787,-600.5 787,-565.5 467,-565.5"/>
<polygon fill="none" stroke="#000000" points="467,-565.5 467,-600.5 787,-600.5 787,-565.5 467,-565.5"/>
<text text-anchor="start" x="493.2068" y="-578.3" font-family="Arial Bold" font-size="18.00" fill="#000000">public.bookmarks</text>
<text text-anchor="start" x="633.2252" y="-578.3" font-family="Arial" font-size="14.00" fill="#000000">    </text>
<text text-anchor="start" x="667.43" y="-578.3" font-family="Arial" font-size="14.00" fill="#666666">[BASE TABLE]</text>
<polygon fill="none" stroke="#000000" points="467,-535.5 467,-565.5 787,-565.5 787,-535.5 467,-535.5"/>
<text text-anchor="start" x="474" y="-546.9" font-family="Arial" font-size="14.00" fill="#000000">id    </text>
<text text-anchor="start" x="519.094" y="-546.9" font-family="Arial" font-size="14.00" fill="#666666">[bigint]</text>
<polygon fill="none" stroke="#000000" points="467,-505.5 467,-535.5 787,-535.5 787,-505.5 467,-505.5"/>
<text text-anchor="start" x="474" y="-516.9" font-family="Arial" font-size="14.00" fill="#000000">user_id    </text>
<text text-anchor="start" x="554.1024" y="-516.9" font-family="Arial" font-size="14.00" fill="#666666">[bigint]</text>
<polygon fill="none" stroke="#000000" points="467,-475.5 467,-505.5 787,-505.5 787,-475.5 467,-475.5"/>
<text text-anchor="start" x="474" y="-486.9" font-family="Arial" font-size="14.00" fill="#000000">article_id    </text>
<text text-anchor="start" x="564.2062" y="-486.9" font-family="Arial" font-size="14.00" fill="#666666">[bigint]</text>
<polygon fill="none" stroke="#000000" points="467,-445.5 467,-475.5 787,-475.5 787,-445.5 467,-445.5"/>
<text text-anchor="start" x="474" y="-456.9" font-family="Arial" font-size="14.00" fill="#000000">created_at    </text>
<text text-anchor="start" x="574.3422" y="-456.9" font-family="Arial" font-size="14.00" fill="#666666">[timestamp(6) without time zone]</text>
<polygon fill="none" stroke="#000000" points="467,-415.5 467,-445.5 787,-445.5 787,-415.5 467,-415.5"/>
<text text-anchor="start" x="473.7546" y="-426.9" font-family="Arial" font-size="14.00" fill="#000000">updated_at    </text>
<text text-anchor="start" x="578.0014" y="-426.9" font-family="Arial" font-size="14.00" fill="#666666">[timestamp(6) without time zone]</text>
</g>
<!-- public.bookmarks&#45;&gt;public.users -->
<g id="edge2" class="edge">
<title>public.bookmarks:user_id&#45;&gt;public.users:id</title>
<path fill="none" stroke="#000000" d="M797.041,-518.3288C861.0896,-489.3721 844.0839,-180.5 772,-180.5"/>
<polygon fill="#000000" stroke="#000000" points="796.7741,-518.3865 786.0489,-516.1016 791.8871,-519.4432 787,-520.5 787,-520.5 787,-520.5 791.8871,-519.4432 787.9511,-524.8984 796.7741,-518.3865 796.7741,-518.3865"/>
<text text-anchor="start" x="794.3345" y="-530.5" font-family="Arial" font-size="10.00" fill="#000000">FOREIGN KEY (user_id) REFERENCES users(id)</text>
</g>
<!-- public.likes -->
<g id="node4" class="node">
<title>public.likes</title>
<polygon fill="#efefef" stroke="transparent" points="891,-565.5 891,-600.5 1211,-600.5 1211,-565.5 891,-565.5"/>
<polygon fill="none" stroke="#000000" points="891,-565.5 891,-600.5 1211,-600.5 1211,-565.5 891,-565.5"/>
<text text-anchor="start" x="943.2141" y="-578.3" font-family="Arial Bold" font-size="18.00" fill="#000000">public.likes</text>
<text text-anchor="start" x="1031.2179" y="-578.3" font-family="Arial" font-size="14.00" fill="#000000">    </text>
<text text-anchor="start" x="1065.4227" y="-578.3" font-family="Arial" font-size="14.00" fill="#666666">[BASE TABLE]</text>
<polygon fill="none" stroke="#000000" points="891,-535.5 891,-565.5 1211,-565.5 1211,-535.5 891,-535.5"/>
<text text-anchor="start" x="898" y="-546.9" font-family="Arial" font-size="14.00" fill="#000000">id    </text>
<text text-anchor="start" x="943.094" y="-546.9" font-family="Arial" font-size="14.00" fill="#666666">[bigint]</text>
<polygon fill="none" stroke="#000000" points="891,-505.5 891,-535.5 1211,-535.5 1211,-505.5 891,-505.5"/>
<text text-anchor="start" x="898" y="-516.9" font-family="Arial" font-size="14.00" fill="#000000">user_id    </text>
<text text-anchor="start" x="978.1024" y="-516.9" font-family="Arial" font-size="14.00" fill="#666666">[bigint]</text>
<polygon fill="none" stroke="#000000" points="891,-475.5 891,-505.5 1211,-505.5 1211,-475.5 891,-475.5"/>
<text text-anchor="start" x="898" y="-486.9" font-family="Arial" font-size="14.00" fill="#000000">article_id    </text>
<text text-anchor="start" x="988.2062" y="-486.9" font-family="Arial" font-size="14.00" fill="#666666">[bigint]</text>
<polygon fill="none" stroke="#000000" points="891,-445.5 891,-475.5 1211,-475.5 1211,-445.5 891,-445.5"/>
<text text-anchor="start" x="898" y="-456.9" font-family="Arial" font-size="14.00" fill="#000000">created_at    </text>
<text text-anchor="start" x="998.3422" y="-456.9" font-family="Arial" font-size="14.00" fill="#666666">[timestamp(6) without time zone]</text>
<polygon fill="none" stroke="#000000" points="891,-415.5 891,-445.5 1211,-445.5 1211,-415.5 891,-415.5"/>
<text text-anchor="start" x="897.7546" y="-426.9" font-family="Arial" font-size="14.00" fill="#000000">updated_at    </text>
<text text-anchor="start" x="1002.0014" y="-426.9" font-family="Arial" font-size="14.00" fill="#666666">[timestamp(6) without time zone]</text>
</g>
<!-- public.likes&#45;&gt;public.users -->
<g id="edge3" class="edge">
<title>public.likes:user_id&#45;&gt;public.users:id</title>
<path fill="none" stroke="#000000" d="M880.6262,-519.9667C801.7188,-511.2935 870.9148,-398.6045 839,-313 815.9479,-251.1678 837.9895,-180.5 772,-180.5"/>
<polygon fill="#000000" stroke="#000000" points="881.0132,-519.9865 890.7689,-524.9941 886.0066,-520.2433 891,-520.5 891,-520.5 891,-520.5 886.0066,-520.2433 891.2311,-516.0059 881.0132,-519.9865 881.0132,-519.9865"/>
<text text-anchor="start" x="839.0845" y="-504.5" font-family="Arial" font-size="10.00" fill="#000000">FOREIGN KEY (user_id) REFERENCES users(id)</text>
</g>
</g>
</svg>
