<?xml version="1.0" encoding="UTF-8" standalone="no"?>
<!DOCTYPE svg PUBLIC "-//W3C//DTD SVG 1.1//EN"
 "http://www.w3.org/Graphics/SVG/1.1/DTD/svg11.dtd">
<!-- Generated by graphviz version 2.40.1 (20161225.0304)
 -->
<!-- Title: my_proj_development Pages: 1 -->
<svg width="4123pt" height="1313pt"
 viewBox="0.00 0.00 4122.50 1313.00" xmlns="http://www.w3.org/2000/svg" xmlns:xlink="http://www.w3.org/1999/xlink">
<g id="graph0" class="graph" transform="scale(1 1) rotate(0) translate(4 1309)">
<title>my_proj_development</title>
<polygon fill="#ffffff" stroke="transparent" points="-4,4 -4,-1309 4118.5,-1309 4118.5,4 -4,4"/>
<!-- public.active_storage_attachments -->
<g id="node1" class="node">
<title>public.active_storage_attachments</title>
<polygon fill="#efefef" stroke="transparent" points="43,-1091.5 43,-1126.5 461,-1126.5 461,-1091.5 43,-1091.5"/>
<polygon fill="none" stroke="#000000" points="43,-1091.5 43,-1126.5 461,-1126.5 461,-1091.5 43,-1091.5"/>
<text text-anchor="start" x="49.6763" y="-1104.3" font-family="Arial Bold" font-size="18.00" fill="#000000">public.active_storage_attachments</text>
<text text-anchor="start" x="326.7557" y="-1104.3" font-family="Arial" font-size="14.00" fill="#000000">    </text>
<text text-anchor="start" x="360.9605" y="-1104.3" font-family="Arial" font-size="14.00" fill="#666666">[BASE TABLE]</text>
<polygon fill="none" stroke="#000000" points="43,-1061.5 43,-1091.5 461,-1091.5 461,-1061.5 43,-1061.5"/>
<text text-anchor="start" x="50" y="-1072.9" font-family="Arial" font-size="14.00" fill="#000000">id    </text>
<text text-anchor="start" x="95.094" y="-1072.9" font-family="Arial" font-size="14.00" fill="#666666">[bigint]</text>
<polygon fill="none" stroke="#000000" points="43,-1031.5 43,-1061.5 461,-1061.5 461,-1031.5 43,-1031.5"/>
<text text-anchor="start" x="50" y="-1042.9" font-family="Arial" font-size="14.00" fill="#000000">name    </text>
<text text-anchor="start" x="119.2132" y="-1042.9" font-family="Arial" font-size="14.00" fill="#666666">[varchar]</text>
<polygon fill="none" stroke="#000000" points="43,-1001.5 43,-1031.5 461,-1031.5 461,-1001.5 43,-1001.5"/>
<text text-anchor="start" x="50" y="-1012.9" font-family="Arial" font-size="14.00" fill="#000000">record_type    </text>
<text text-anchor="start" x="158.1122" y="-1012.9" font-family="Arial" font-size="14.00" fill="#666666">[varchar]</text>
<polygon fill="none" stroke="#000000" points="43,-971.5 43,-1001.5 461,-1001.5 461,-971.5 43,-971.5"/>
<text text-anchor="start" x="50" y="-982.9" font-family="Arial" font-size="14.00" fill="#000000">record_id    </text>
<text text-anchor="start" x="142.5456" y="-982.9" font-family="Arial" font-size="14.00" fill="#666666">[bigint]</text>
<polygon fill="none" stroke="#000000" points="43,-941.5 43,-971.5 461,-971.5 461,-941.5 43,-941.5"/>
<text text-anchor="start" x="50" y="-952.9" font-family="Arial" font-size="14.00" fill="#000000">blob_id    </text>
<text text-anchor="start" x="129.331" y="-952.9" font-family="Arial" font-size="14.00" fill="#666666">[bigint]</text>
<polygon fill="none" stroke="#000000" points="43,-911.5 43,-941.5 461,-941.5 461,-911.5 43,-911.5"/>
<text text-anchor="start" x="50" y="-922.9" font-family="Arial" font-size="14.00" fill="#000000">created_at    </text>
<text text-anchor="start" x="150.3422" y="-922.9" font-family="Arial" font-size="14.00" fill="#666666">[timestamp(6) without time zone]</text>
</g>
<!-- public.active_storage_blobs -->
<g id="node2" class="node">
<title>public.active_storage_blobs</title>
<polygon fill="#efefef" stroke="transparent" points="338,-619.5 338,-654.5 701,-654.5 701,-619.5 338,-619.5"/>
<polygon fill="none" stroke="#000000" points="338,-619.5 338,-654.5 701,-654.5 701,-619.5 338,-619.5"/>
<text text-anchor="start" x="344.6848" y="-632.3" font-family="Arial Bold" font-size="18.00" fill="#000000">public.active_storage_blobs</text>
<text text-anchor="start" x="566.7472" y="-632.3" font-family="Arial" font-size="14.00" fill="#000000">    </text>
<text text-anchor="start" x="600.952" y="-632.3" font-family="Arial" font-size="14.00" fill="#666666">[BASE TABLE]</text>
<polygon fill="none" stroke="#000000" points="338,-589.5 338,-619.5 701,-619.5 701,-589.5 338,-589.5"/>
<text text-anchor="start" x="345" y="-600.9" font-family="Arial" font-size="14.00" fill="#000000">id    </text>
<text text-anchor="start" x="390.094" y="-600.9" font-family="Arial" font-size="14.00" fill="#666666">[bigint]</text>
<polygon fill="none" stroke="#000000" points="338,-559.5 338,-589.5 701,-589.5 701,-559.5 338,-559.5"/>
<text text-anchor="start" x="345" y="-570.9" font-family="Arial" font-size="14.00" fill="#000000">key    </text>
<text text-anchor="start" x="400.9874" y="-570.9" font-family="Arial" font-size="14.00" fill="#666666">[varchar]</text>
<polygon fill="none" stroke="#000000" points="338,-529.5 338,-559.5 701,-559.5 701,-529.5 338,-529.5"/>
<text text-anchor="start" x="345" y="-540.9" font-family="Arial" font-size="14.00" fill="#000000">filename    </text>
<text text-anchor="start" x="432.0996" y="-540.9" font-family="Arial" font-size="14.00" fill="#666666">[varchar]</text>
<polygon fill="none" stroke="#000000" points="338,-499.5 338,-529.5 701,-529.5 701,-499.5 338,-499.5"/>
<text text-anchor="start" x="345" y="-510.9" font-family="Arial" font-size="14.00" fill="#000000">content_type    </text>
<text text-anchor="start" x="459.3548" y="-510.9" font-family="Arial" font-size="14.00" fill="#666666">[varchar]</text>
<polygon fill="none" stroke="#000000" points="338,-469.5 338,-499.5 701,-499.5 701,-469.5 338,-469.5"/>
<text text-anchor="start" x="345" y="-480.9" font-family="Arial" font-size="14.00" fill="#000000">metadata    </text>
<text text-anchor="start" x="437.5596" y="-480.9" font-family="Arial" font-size="14.00" fill="#666666">[text]</text>
<polygon fill="none" stroke="#000000" points="338,-439.5 338,-469.5 701,-469.5 701,-439.5 338,-439.5"/>
<text text-anchor="start" x="345" y="-450.9" font-family="Arial" font-size="14.00" fill="#000000">service_name    </text>
<text text-anchor="start" x="466.3282" y="-450.9" font-family="Arial" font-size="14.00" fill="#666666">[varchar]</text>
<polygon fill="none" stroke="#000000" points="338,-409.5 338,-439.5 701,-439.5 701,-409.5 338,-409.5"/>
<text text-anchor="start" x="345" y="-420.9" font-family="Arial" font-size="14.00" fill="#000000">byte_size    </text>
<text text-anchor="start" x="438.3324" y="-420.9" font-family="Arial" font-size="14.00" fill="#666666">[bigint]</text>
<polygon fill="none" stroke="#000000" points="338,-379.5 338,-409.5 701,-409.5 701,-379.5 338,-379.5"/>
<text text-anchor="start" x="345" y="-390.9" font-family="Arial" font-size="14.00" fill="#000000">checksum    </text>
<text text-anchor="start" x="442.2132" y="-390.9" font-family="Arial" font-size="14.00" fill="#666666">[varchar]</text>
<polygon fill="none" stroke="#000000" points="338,-349.5 338,-379.5 701,-379.5 701,-349.5 338,-349.5"/>
<text text-anchor="start" x="345" y="-360.9" font-family="Arial" font-size="14.00" fill="#000000">created_at    </text>
<text text-anchor="start" x="445.3422" y="-360.9" font-family="Arial" font-size="14.00" fill="#666666">[timestamp(6) without time zone]</text>
</g>
<!-- public.active_storage_attachments&#45;&gt;public.active_storage_blobs -->
<g id="edge1" class="edge">
<title>public.active_storage_attachments:blob_id&#45;&gt;public.active_storage_blobs:id</title>
<path fill="none" stroke="#000000" d="M471.2422,-955.9752C606.6191,-940.8651 176.0017,-604.5 338,-604.5"/>
<polygon fill="#000000" stroke="#000000" points="470.9869,-955.9882 460.7697,-952.0059 465.9935,-956.2441 461,-956.5 461,-956.5 461,-956.5 465.9935,-956.2441 461.2303,-960.9941 470.9869,-955.9882 470.9869,-955.9882"/>
<text text-anchor="start" x="314.5965" y="-940.5" font-family="Arial" font-size="10.00" fill="#000000">FOREIGN KEY (blob_id) REFERENCES active_storage_blobs(id)</text>
</g>
<!-- public.active_storage_variant_records -->
<g id="node3" class="node">
<title>public.active_storage_variant_records</title>
<polygon fill="#efefef" stroke="transparent" points="565,-1046.5 565,-1081.5 1009,-1081.5 1009,-1046.5 565,-1046.5"/>
<polygon fill="none" stroke="#000000" points="565,-1046.5 565,-1081.5 1009,-1081.5 1009,-1046.5 565,-1046.5"/>
<text text-anchor="start" x="571.683" y="-1059.3" font-family="Arial Bold" font-size="18.00" fill="#000000">public.active_storage_variant_records</text>
<text text-anchor="start" x="874.749" y="-1059.3" font-family="Arial" font-size="14.00" fill="#000000">    </text>
<text text-anchor="start" x="908.9538" y="-1059.3" font-family="Arial" font-size="14.00" fill="#666666">[BASE TABLE]</text>
<polygon fill="none" stroke="#000000" points="565,-1016.5 565,-1046.5 1009,-1046.5 1009,-1016.5 565,-1016.5"/>
<text text-anchor="start" x="572" y="-1027.9" font-family="Arial" font-size="14.00" fill="#000000">id    </text>
<text text-anchor="start" x="617.094" y="-1027.9" font-family="Arial" font-size="14.00" fill="#666666">[bigint]</text>
<polygon fill="none" stroke="#000000" points="565,-986.5 565,-1016.5 1009,-1016.5 1009,-986.5 565,-986.5"/>
<text text-anchor="start" x="572" y="-997.9" font-family="Arial" font-size="14.00" fill="#000000">blob_id    </text>
<text text-anchor="start" x="651.331" y="-997.9" font-family="Arial" font-size="14.00" fill="#666666">[bigint]</text>
<polygon fill="none" stroke="#000000" points="565,-956.5 565,-986.5 1009,-986.5 1009,-956.5 565,-956.5"/>
<text text-anchor="start" x="572" y="-967.9" font-family="Arial" font-size="14.00" fill="#000000">variation_digest    </text>
<text text-anchor="start" x="704.2272" y="-967.9" font-family="Arial" font-size="14.00" fill="#666666">[varchar]</text>
</g>
<!-- public.active_storage_variant_records&#45;&gt;public.active_storage_blobs -->
<g id="edge2" class="edge">
<title>public.active_storage_variant_records:blob_id&#45;&gt;public.active_storage_blobs:id</title>
<path fill="none" stroke="#000000" d="M554.8573,-1001.0516C398.1078,-986.1436 883.8677,-604.5 701,-604.5"/>
<polygon fill="#000000" stroke="#000000" points="555.0098,-1001.0582 564.8012,-1005.9956 560.0049,-1001.2791 565,-1001.5 565,-1001.5 565,-1001.5 560.0049,-1001.2791 565.1988,-997.0044 555.0098,-1001.0582 555.0098,-1001.0582"/>
<text text-anchor="start" x="265.5965" y="-1011.5" font-family="Arial" font-size="10.00" fill="#000000">FOREIGN KEY (blob_id) REFERENCES active_storage_blobs(id)</text>
</g>
<!-- public.articles -->
<g id="node4" class="node">
<title>public.articles</title>
<polygon fill="#efefef" stroke="transparent" points="1540,-619.5 1540,-654.5 1860,-654.5 1860,-619.5 1540,-619.5"/>
<polygon fill="none" stroke="#000000" points="1540,-619.5 1540,-654.5 1860,-654.5 1860,-619.5 1540,-619.5"/>
<text text-anchor="start" x="1581.7138" y="-632.3" font-family="Arial Bold" font-size="18.00" fill="#000000">public.articles</text>
<text text-anchor="start" x="1690.7182" y="-632.3" font-family="Arial" font-size="14.00" fill="#000000">    </text>
<text text-anchor="start" x="1724.923" y="-632.3" font-family="Arial" font-size="14.00" fill="#666666">[BASE TABLE]</text>
<polygon fill="none" stroke="#000000" points="1540,-589.5 1540,-619.5 1860,-619.5 1860,-589.5 1540,-589.5"/>
<text text-anchor="start" x="1547" y="-600.9" font-family="Arial" font-size="14.00" fill="#000000">id    </text>
<text text-anchor="start" x="1592.094" y="-600.9" font-family="Arial" font-size="14.00" fill="#666666">[bigint]</text>
<polygon fill="none" stroke="#000000" points="1540,-559.5 1540,-589.5 1860,-589.5 1860,-559.5 1540,-559.5"/>
<text text-anchor="start" x="1547" y="-570.9" font-family="Arial" font-size="14.00" fill="#000000">body    </text>
<text text-anchor="start" x="1611.5526" y="-570.9" font-family="Arial" font-size="14.00" fill="#666666">[text]</text>
<polygon fill="none" stroke="#000000" points="1540,-529.5 1540,-559.5 1860,-559.5 1860,-529.5 1540,-529.5"/>
<text text-anchor="start" x="1547" y="-540.9" font-family="Arial" font-size="14.00" fill="#000000">user_id    </text>
<text text-anchor="start" x="1627.1024" y="-540.9" font-family="Arial" font-size="14.00" fill="#666666">[bigint]</text>
<polygon fill="none" stroke="#000000" points="1540,-499.5 1540,-529.5 1860,-529.5 1860,-499.5 1540,-499.5"/>
<text text-anchor="start" x="1547" y="-510.9" font-family="Arial" font-size="14.00" fill="#000000">created_at    </text>
<text text-anchor="start" x="1647.3422" y="-510.9" font-family="Arial" font-size="14.00" fill="#666666">[timestamp(6) without time zone]</text>
<polygon fill="none" stroke="#000000" points="1540,-469.5 1540,-499.5 1860,-499.5 1860,-469.5 1540,-469.5"/>
<text text-anchor="start" x="1546.7546" y="-480.9" font-family="Arial" font-size="14.00" fill="#000000">updated_at    </text>
<text text-anchor="start" x="1651.0014" y="-480.9" font-family="Arial" font-size="14.00" fill="#666666">[timestamp(6) without time zone]</text>
<polygon fill="none" stroke="#000000" points="1540,-439.5 1540,-469.5 1860,-469.5 1860,-439.5 1540,-439.5"/>
<text text-anchor="start" x="1547" y="-450.9" font-family="Arial" font-size="14.00" fill="#000000">impressions_count    </text>
<text text-anchor="start" x="1697.8906" y="-450.9" font-family="Arial" font-size="14.00" fill="#666666">[integer]</text>
<polygon fill="none" stroke="#000000" points="1540,-409.5 1540,-439.5 1860,-439.5 1860,-409.5 1540,-409.5"/>
<text text-anchor="start" x="1547" y="-420.9" font-family="Arial" font-size="14.00" fill="#000000">file    </text>
<text text-anchor="start" x="1599.0912" y="-420.9" font-family="Arial" font-size="14.00" fill="#666666">[varchar]</text>
<polygon fill="none" stroke="#000000" points="1540,-379.5 1540,-409.5 1860,-409.5 1860,-379.5 1540,-379.5"/>
<text text-anchor="start" x="1547" y="-390.9" font-family="Arial" font-size="14.00" fill="#000000">start_time    </text>
<text text-anchor="start" x="1642.6522" y="-390.9" font-family="Arial" font-size="14.00" fill="#666666">[timestamp(6) without time zone]</text>
<polygon fill="none" stroke="#000000" points="1540,-349.5 1540,-379.5 1860,-379.5 1860,-349.5 1540,-349.5"/>
<text text-anchor="start" x="1547" y="-360.9" font-family="Arial" font-size="14.00" fill="#000000">end_time    </text>
<text text-anchor="start" x="1638.7756" y="-360.9" font-family="Arial" font-size="14.00" fill="#666666">[timestamp(6) without time zone]</text>
</g>
<!-- public.users -->
<g id="node12" class="node">
<title>public.users</title>
<polygon fill="#efefef" stroke="transparent" points="1309,-192.5 1309,-227.5 1629,-227.5 1629,-192.5 1309,-192.5"/>
<polygon fill="none" stroke="#000000" points="1309,-192.5 1309,-227.5 1629,-227.5 1629,-192.5 1309,-192.5"/>
<text text-anchor="start" x="1357.2091" y="-205.3" font-family="Arial Bold" font-size="18.00" fill="#000000">public.users</text>
<text text-anchor="start" x="1453.2229" y="-205.3" font-family="Arial" font-size="14.00" fill="#000000">    </text>
<text text-anchor="start" x="1487.4277" y="-205.3" font-family="Arial" font-size="14.00" fill="#666666">[BASE TABLE]</text>
<polygon fill="none" stroke="#000000" points="1309,-162.5 1309,-192.5 1629,-192.5 1629,-162.5 1309,-162.5"/>
<text text-anchor="start" x="1316" y="-173.9" font-family="Arial" font-size="14.00" fill="#000000">id    </text>
<text text-anchor="start" x="1361.094" y="-173.9" font-family="Arial" font-size="14.00" fill="#666666">[bigint]</text>
<polygon fill="none" stroke="#000000" points="1309,-132.5 1309,-162.5 1629,-162.5 1629,-132.5 1309,-132.5"/>
<text text-anchor="start" x="1316" y="-143.9" font-family="Arial" font-size="14.00" fill="#000000">email    </text>
<text text-anchor="start" x="1383.6438" y="-143.9" font-family="Arial" font-size="14.00" fill="#666666">[varchar]</text>
<polygon fill="none" stroke="#000000" points="1309,-102.5 1309,-132.5 1629,-132.5 1629,-102.5 1309,-102.5"/>
<text text-anchor="start" x="1316" y="-113.9" font-family="Arial" font-size="14.00" fill="#000000">created_at    </text>
<text text-anchor="start" x="1416.3422" y="-113.9" font-family="Arial" font-size="14.00" fill="#666666">[timestamp(6) without time zone]</text>
<polygon fill="none" stroke="#000000" points="1309,-72.5 1309,-102.5 1629,-102.5 1629,-72.5 1309,-72.5"/>
<text text-anchor="start" x="1315.7546" y="-83.9" font-family="Arial" font-size="14.00" fill="#000000">updated_at    </text>
<text text-anchor="start" x="1420.0014" y="-83.9" font-family="Arial" font-size="14.00" fill="#666666">[timestamp(6) without time zone]</text>
<polygon fill="none" stroke="#000000" points="1309,-42.5 1309,-72.5 1629,-72.5 1629,-42.5 1309,-42.5"/>
<text text-anchor="start" x="1316" y="-53.9" font-family="Arial" font-size="14.00" fill="#000000">role    </text>
<text text-anchor="start" x="1373.5372" y="-53.9" font-family="Arial" font-size="14.00" fill="#666666">[integer]</text>
</g>
<!-- public.articles&#45;&gt;public.users -->
<g id="edge3" class="edge">
<title>public.articles:user_id&#45;&gt;public.users:id</title>
<path fill="none" stroke="#000000" d="M1530.2203,-541.8938C1490.4333,-518.7131 1512.5127,-347.7692 1540,-307 1563.8531,-271.621 1605.1469,-306.379 1629,-271 1652.2306,-236.5442 1670.5556,-177.5 1629,-177.5"/>
<polygon fill="#000000" stroke="#000000" points="1530.3372,-541.9249 1538.8412,-548.8482 1535.1686,-543.2124 1540,-544.5 1540,-544.5 1540,-544.5 1535.1686,-543.2124 1541.1588,-540.1518 1530.3372,-541.9249 1530.3372,-541.9249"/>
<text text-anchor="start" x="1310.3345" y="-554.5" font-family="Arial" font-size="10.00" fill="#000000">FOREIGN KEY (user_id) REFERENCES users(id)</text>
</g>
<!-- public.bookmarks -->
<g id="node5" class="node">
<title>public.bookmarks</title>
<polygon fill="#efefef" stroke="transparent" points="1113,-1076.5 1113,-1111.5 1433,-1111.5 1433,-1076.5 1113,-1076.5"/>
<polygon fill="none" stroke="#000000" points="1113,-1076.5 1113,-1111.5 1433,-1111.5 1433,-1076.5 1113,-1076.5"/>
<text text-anchor="start" x="1139.2068" y="-1089.3" font-family="Arial Bold" font-size="18.00" fill="#000000">public.bookmarks</text>
<text text-anchor="start" x="1279.2252" y="-1089.3" font-family="Arial" font-size="14.00" fill="#000000">    </text>
<text text-anchor="start" x="1313.43" y="-1089.3" font-family="Arial" font-size="14.00" fill="#666666">[BASE TABLE]</text>
<polygon fill="none" stroke="#000000" points="1113,-1046.5 1113,-1076.5 1433,-1076.5 1433,-1046.5 1113,-1046.5"/>
<text text-anchor="start" x="1120" y="-1057.9" font-family="Arial" font-size="14.00" fill="#000000">id    </text>
<text text-anchor="start" x="1165.094" y="-1057.9" font-family="Arial" font-size="14.00" fill="#666666">[bigint]</text>
<polygon fill="none" stroke="#000000" points="1113,-1016.5 1113,-1046.5 1433,-1046.5 1433,-1016.5 1113,-1016.5"/>
<text text-anchor="start" x="1120" y="-1027.9" font-family="Arial" font-size="14.00" fill="#000000">user_id    </text>
<text text-anchor="start" x="1200.1024" y="-1027.9" font-family="Arial" font-size="14.00" fill="#666666">[bigint]</text>
<polygon fill="none" stroke="#000000" points="1113,-986.5 1113,-1016.5 1433,-1016.5 1433,-986.5 1113,-986.5"/>
<text text-anchor="start" x="1120" y="-997.9" font-family="Arial" font-size="14.00" fill="#000000">article_id    </text>
<text text-anchor="start" x="1210.2062" y="-997.9" font-family="Arial" font-size="14.00" fill="#666666">[bigint]</text>
<polygon fill="none" stroke="#000000" points="1113,-956.5 1113,-986.5 1433,-986.5 1433,-956.5 1113,-956.5"/>
<text text-anchor="start" x="1120" y="-967.9" font-family="Arial" font-size="14.00" fill="#000000">created_at    </text>
<text text-anchor="start" x="1220.3422" y="-967.9" font-family="Arial" font-size="14.00" fill="#666666">[timestamp(6) without time zone]</text>
<polygon fill="none" stroke="#000000" points="1113,-926.5 1113,-956.5 1433,-956.5 1433,-926.5 1113,-926.5"/>
<text text-anchor="start" x="1119.7546" y="-937.9" font-family="Arial" font-size="14.00" fill="#000000">updated_at    </text>
<text text-anchor="start" x="1224.0014" y="-937.9" font-family="Arial" font-size="14.00" fill="#666666">[timestamp(6) without time zone]</text>
</g>
<!-- public.bookmarks&#45;&gt;public.articles -->
<g id="edge4" class="edge">
<title>public.bookmarks:article_id&#45;&gt;public.articles:id</title>
<path fill="none" stroke="#000000" d="M1443.0738,-999.2752C1490.5375,-976.6759 1468.361,-788.403 1485,-734 1503.2887,-674.2029 1477.4686,-604.5 1540,-604.5"/>
<polygon fill="#000000" stroke="#000000" points="1442.7647,-999.3433 1432.0295,-997.1059 1437.8823,-1000.4217 1433,-1001.5 1433,-1001.5 1433,-1001.5 1437.8823,-1000.4217 1433.9705,-1005.8941 1442.7647,-999.3433 1442.7647,-999.3433"/>
<text text-anchor="start" x="1314.6175" y="-985.5" font-family="Arial" font-size="10.00" fill="#000000">FOREIGN KEY (article_id) REFERENCES articles(id)</text>
</g>
<!-- public.bookmarks&#45;&gt;public.users -->
<g id="edge5" class="edge">
<title>public.bookmarks:user_id&#45;&gt;public.users:id</title>
<path fill="none" stroke="#000000" d="M1443.4465,-1030.5354C1605.209,-998.4664 1120.9776,-177.5 1309,-177.5"/>
<polygon fill="#000000" stroke="#000000" points="1442.9576,-1030.5805 1432.5862,-1027.0191 1437.9788,-1031.0402 1433,-1031.5 1433,-1031.5 1433,-1031.5 1437.9788,-1031.0402 1433.4138,-1035.9809 1442.9576,-1030.5805 1442.9576,-1030.5805"/>
<text text-anchor="start" x="1321.8345" y="-1015.5" font-family="Arial" font-size="10.00" fill="#000000">FOREIGN KEY (user_id) REFERENCES users(id)</text>
</g>
<!-- public.categories -->
<g id="node6" class="node">
<title>public.categories</title>
<polygon fill="#efefef" stroke="transparent" points="1967,-544.5 1967,-579.5 2287,-579.5 2287,-544.5 1967,-544.5"/>
<polygon fill="none" stroke="#000000" points="1967,-544.5 1967,-579.5 2287,-579.5 2287,-544.5 1967,-544.5"/>
<text text-anchor="start" x="1995.7016" y="-557.3" font-family="Arial Bold" font-size="18.00" fill="#000000">public.categories</text>
<text text-anchor="start" x="2130.7304" y="-557.3" font-family="Arial" font-size="14.00" fill="#000000">    </text>
<text text-anchor="start" x="2164.9352" y="-557.3" font-family="Arial" font-size="14.00" fill="#666666">[BASE TABLE]</text>
<polygon fill="none" stroke="#000000" points="1967,-514.5 1967,-544.5 2287,-544.5 2287,-514.5 1967,-514.5"/>
<text text-anchor="start" x="1974" y="-525.9" font-family="Arial" font-size="14.00" fill="#000000">id    </text>
<text text-anchor="start" x="2019.094" y="-525.9" font-family="Arial" font-size="14.00" fill="#666666">[bigint]</text>
<polygon fill="none" stroke="#000000" points="1967,-484.5 1967,-514.5 2287,-514.5 2287,-484.5 1967,-484.5"/>
<text text-anchor="start" x="1974" y="-495.9" font-family="Arial" font-size="14.00" fill="#000000">name    </text>
<text text-anchor="start" x="2043.2132" y="-495.9" font-family="Arial" font-size="14.00" fill="#666666">[varchar]</text>
<polygon fill="none" stroke="#000000" points="1967,-454.5 1967,-484.5 2287,-484.5 2287,-454.5 1967,-454.5"/>
<text text-anchor="start" x="1974" y="-465.9" font-family="Arial" font-size="14.00" fill="#000000">created_at    </text>
<text text-anchor="start" x="2074.3422" y="-465.9" font-family="Arial" font-size="14.00" fill="#666666">[timestamp(6) without time zone]</text>
<polygon fill="none" stroke="#000000" points="1967,-424.5 1967,-454.5 2287,-454.5 2287,-424.5 1967,-424.5"/>
<text text-anchor="start" x="1973.7546" y="-435.9" font-family="Arial" font-size="14.00" fill="#000000">updated_at    </text>
<text text-anchor="start" x="2078.0014" y="-435.9" font-family="Arial" font-size="14.00" fill="#666666">[timestamp(6) without time zone]</text>
</g>
<!-- public.category_articles -->
<g id="node7" class="node">
<title>public.category_articles</title>
<polygon fill="#efefef" stroke="transparent" points="1962,-1076.5 1962,-1111.5 2291,-1111.5 2291,-1076.5 1962,-1076.5"/>
<polygon fill="none" stroke="#000000" points="1962,-1076.5 1962,-1111.5 2291,-1111.5 2291,-1076.5 1962,-1076.5"/>
<text text-anchor="start" x="1968.7011" y="-1089.3" font-family="Arial Bold" font-size="18.00" fill="#000000">public.category_articles</text>
<text text-anchor="start" x="2156.7309" y="-1089.3" font-family="Arial" font-size="14.00" fill="#000000">    </text>
<text text-anchor="start" x="2190.9357" y="-1089.3" font-family="Arial" font-size="14.00" fill="#666666">[BASE TABLE]</text>
<polygon fill="none" stroke="#000000" points="1962,-1046.5 1962,-1076.5 2291,-1076.5 2291,-1046.5 1962,-1046.5"/>
<text text-anchor="start" x="1969" y="-1057.9" font-family="Arial" font-size="14.00" fill="#000000">id    </text>
<text text-anchor="start" x="2014.094" y="-1057.9" font-family="Arial" font-size="14.00" fill="#666666">[bigint]</text>
<polygon fill="none" stroke="#000000" points="1962,-1016.5 1962,-1046.5 2291,-1046.5 2291,-1016.5 1962,-1016.5"/>
<text text-anchor="start" x="1969" y="-1027.9" font-family="Arial" font-size="14.00" fill="#000000">category_id    </text>
<text text-anchor="start" x="2075.5582" y="-1027.9" font-family="Arial" font-size="14.00" fill="#666666">[bigint]</text>
<polygon fill="none" stroke="#000000" points="1962,-986.5 1962,-1016.5 2291,-1016.5 2291,-986.5 1962,-986.5"/>
<text text-anchor="start" x="1969" y="-997.9" font-family="Arial" font-size="14.00" fill="#000000">article_id    </text>
<text text-anchor="start" x="2059.2062" y="-997.9" font-family="Arial" font-size="14.00" fill="#666666">[bigint]</text>
<polygon fill="none" stroke="#000000" points="1962,-956.5 1962,-986.5 2291,-986.5 2291,-956.5 1962,-956.5"/>
<text text-anchor="start" x="1969" y="-967.9" font-family="Arial" font-size="14.00" fill="#000000">created_at    </text>
<text text-anchor="start" x="2069.3422" y="-967.9" font-family="Arial" font-size="14.00" fill="#666666">[timestamp(6) without time zone]</text>
<polygon fill="none" stroke="#000000" points="1962,-926.5 1962,-956.5 2291,-956.5 2291,-926.5 1962,-926.5"/>
<text text-anchor="start" x="1969" y="-937.9" font-family="Arial" font-size="14.00" fill="#000000">updated_at    </text>
<text text-anchor="start" x="2073.2468" y="-937.9" font-family="Arial" font-size="14.00" fill="#666666">[timestamp(6) without time zone]</text>
</g>
<!-- public.category_articles&#45;&gt;public.articles -->
<g id="edge6" class="edge">
<title>public.category_articles:article_id&#45;&gt;public.articles:id</title>
<path fill="none" stroke="#000000" d="M1952.1965,-999.4174C1904.1035,-977.4983 1924.6926,-788.8485 1909,-734 1892.0727,-674.836 1921.5379,-604.5 1860,-604.5"/>
<polygon fill="#000000" stroke="#000000" points="1952.2183,-999.4219 1961.0649,-1005.9018 1957.1091,-1000.461 1962,-1001.5 1962,-1001.5 1962,-1001.5 1957.1091,-1000.461 1962.9351,-997.0982 1952.2183,-999.4219 1952.2183,-999.4219"/>
<text text-anchor="start" x="1969.1175" y="-1011.5" font-family="Arial" font-size="10.00" fill="#000000">FOREIGN KEY (article_id) REFERENCES articles(id)</text>
</g>
<!-- public.category_articles&#45;&gt;public.categories -->
<g id="edge7" class="edge">
<title>public.category_articles:category_id&#45;&gt;public.categories:id</title>
<path fill="none" stroke="#000000" d="M2301.1701,-1030.6709C2352.3637,-1021.5835 2317.6953,-939.784 2291,-884 2211.1804,-717.2042 2046.8196,-789.7958 1967,-623 1949.0619,-585.5155 1925.4444,-529.5 1967,-529.5"/>
<polygon fill="#000000" stroke="#000000" points="2300.9669,-1030.6874 2290.6343,-1027.0149 2295.9835,-1031.0937 2291,-1031.5 2291,-1031.5 2291,-1031.5 2295.9835,-1031.0937 2291.3657,-1035.9851 2300.9669,-1030.6874 2300.9669,-1030.6874"/>
<text text-anchor="start" x="2021.0485" y="-1041.5" font-family="Arial" font-size="10.00" fill="#000000">FOREIGN KEY (category_id) REFERENCES categories(id)</text>
</g>
<!-- public.impressions -->
<g id="node8" class="node">
<title>public.impressions</title>
<polygon fill="#efefef" stroke="transparent" points="2831,-1226.5 2831,-1261.5 3151,-1261.5 3151,-1226.5 2831,-1226.5"/>
<polygon fill="none" stroke="#000000" points="2831,-1226.5 2831,-1261.5 3151,-1261.5 3151,-1226.5 2831,-1226.5"/>
<text text-anchor="start" x="2853.2126" y="-1239.3" font-family="Arial Bold" font-size="18.00" fill="#000000">public.impressions</text>
<text text-anchor="start" x="3001.2194" y="-1239.3" font-family="Arial" font-size="14.00" fill="#000000">    </text>
<text text-anchor="start" x="3035.4242" y="-1239.3" font-family="Arial" font-size="14.00" fill="#666666">[BASE TABLE]</text>
<polygon fill="none" stroke="#000000" points="2831,-1196.5 2831,-1226.5 3151,-1226.5 3151,-1196.5 2831,-1196.5"/>
<text text-anchor="start" x="2838" y="-1207.9" font-family="Arial" font-size="14.00" fill="#000000">id    </text>
<text text-anchor="start" x="2883.094" y="-1207.9" font-family="Arial" font-size="14.00" fill="#666666">[bigint]</text>
<polygon fill="none" stroke="#000000" points="2831,-1166.5 2831,-1196.5 3151,-1196.5 3151,-1166.5 2831,-1166.5"/>
<text text-anchor="start" x="2838" y="-1177.9" font-family="Arial" font-size="14.00" fill="#000000">impressionable_type    </text>
<text text-anchor="start" x="3000.5624" y="-1177.9" font-family="Arial" font-size="14.00" fill="#666666">[varchar]</text>
<polygon fill="none" stroke="#000000" points="2831,-1136.5 2831,-1166.5 3151,-1166.5 3151,-1136.5 2831,-1136.5"/>
<text text-anchor="start" x="2838" y="-1147.9" font-family="Arial" font-size="14.00" fill="#000000">impressionable_id    </text>
<text text-anchor="start" x="2984.9958" y="-1147.9" font-family="Arial" font-size="14.00" fill="#666666">[integer]</text>
<polygon fill="none" stroke="#000000" points="2831,-1106.5 2831,-1136.5 3151,-1136.5 3151,-1106.5 2831,-1106.5"/>
<text text-anchor="start" x="2838" y="-1117.9" font-family="Arial" font-size="14.00" fill="#000000">user_id    </text>
<text text-anchor="start" x="2918.1024" y="-1117.9" font-family="Arial" font-size="14.00" fill="#666666">[integer]</text>
<polygon fill="none" stroke="#000000" points="2831,-1076.5 2831,-1106.5 3151,-1106.5 3151,-1076.5 2831,-1076.5"/>
<text text-anchor="start" x="2838" y="-1087.9" font-family="Arial" font-size="14.00" fill="#000000">controller_name    </text>
<text text-anchor="start" x="2972.5512" y="-1087.9" font-family="Arial" font-size="14.00" fill="#666666">[varchar]</text>
<polygon fill="none" stroke="#000000" points="2831,-1046.5 2831,-1076.5 3151,-1076.5 3151,-1046.5 2831,-1046.5"/>
<text text-anchor="start" x="2838" y="-1057.9" font-family="Arial" font-size="14.00" fill="#000000">action_name    </text>
<text text-anchor="start" x="2952.3408" y="-1057.9" font-family="Arial" font-size="14.00" fill="#666666">[varchar]</text>
<polygon fill="none" stroke="#000000" points="2831,-1016.5 2831,-1046.5 3151,-1046.5 3151,-1016.5 2831,-1016.5"/>
<text text-anchor="start" x="2838" y="-1027.9" font-family="Arial" font-size="14.00" fill="#000000">view_name    </text>
<text text-anchor="start" x="2942.9916" y="-1027.9" font-family="Arial" font-size="14.00" fill="#666666">[varchar]</text>
<polygon fill="none" stroke="#000000" points="2831,-986.5 2831,-1016.5 3151,-1016.5 3151,-986.5 2831,-986.5"/>
<text text-anchor="start" x="2838" y="-997.9" font-family="Arial" font-size="14.00" fill="#000000">request_hash    </text>
<text text-anchor="start" x="2957.0168" y="-997.9" font-family="Arial" font-size="14.00" fill="#666666">[varchar]</text>
<polygon fill="none" stroke="#000000" points="2831,-956.5 2831,-986.5 3151,-986.5 3151,-956.5 2831,-956.5"/>
<text text-anchor="start" x="2838" y="-967.9" font-family="Arial" font-size="14.00" fill="#000000">ip_address    </text>
<text text-anchor="start" x="2940.6676" y="-967.9" font-family="Arial" font-size="14.00" fill="#666666">[varchar]</text>
<polygon fill="none" stroke="#000000" points="2831,-926.5 2831,-956.5 3151,-956.5 3151,-926.5 2831,-926.5"/>
<text text-anchor="start" x="2838" y="-937.9" font-family="Arial" font-size="14.00" fill="#000000">session_hash    </text>
<text text-anchor="start" x="2957.7896" y="-937.9" font-family="Arial" font-size="14.00" fill="#666666">[varchar]</text>
<polygon fill="none" stroke="#000000" points="2831,-896.5 2831,-926.5 3151,-926.5 3151,-896.5 2831,-896.5"/>
<text text-anchor="start" x="2838" y="-907.9" font-family="Arial" font-size="14.00" fill="#000000">message    </text>
<text text-anchor="start" x="2928.9958" y="-907.9" font-family="Arial" font-size="14.00" fill="#666666">[text]</text>
<polygon fill="none" stroke="#000000" points="2831,-866.5 2831,-896.5 3151,-896.5 3151,-866.5 2831,-866.5"/>
<text text-anchor="start" x="2838" y="-877.9" font-family="Arial" font-size="14.00" fill="#000000">referrer    </text>
<text text-anchor="start" x="2918.0856" y="-877.9" font-family="Arial" font-size="14.00" fill="#666666">[text]</text>
<polygon fill="none" stroke="#000000" points="2831,-836.5 2831,-866.5 3151,-866.5 3151,-836.5 2831,-836.5"/>
<text text-anchor="start" x="2838" y="-847.9" font-family="Arial" font-size="14.00" fill="#000000">params    </text>
<text text-anchor="start" x="2918.8738" y="-847.9" font-family="Arial" font-size="14.00" fill="#666666">[text]</text>
<polygon fill="none" stroke="#000000" points="2831,-806.5 2831,-836.5 3151,-836.5 3151,-806.5 2831,-806.5"/>
<text text-anchor="start" x="2838" y="-817.9" font-family="Arial" font-size="14.00" fill="#000000">created_at    </text>
<text text-anchor="start" x="2938.3422" y="-817.9" font-family="Arial" font-size="14.00" fill="#666666">[timestamp(6) without time zone]</text>
<polygon fill="none" stroke="#000000" points="2831,-776.5 2831,-806.5 3151,-806.5 3151,-776.5 2831,-776.5"/>
<text text-anchor="start" x="2837.7546" y="-787.9" font-family="Arial" font-size="14.00" fill="#000000">updated_at    </text>
<text text-anchor="start" x="2942.0014" y="-787.9" font-family="Arial" font-size="14.00" fill="#666666">[timestamp(6) without time zone]</text>
</g>
<!-- public.likes -->
<g id="node9" class="node">
<title>public.likes</title>
<polygon fill="#efefef" stroke="transparent" points="1537,-1076.5 1537,-1111.5 1857,-1111.5 1857,-1076.5 1537,-1076.5"/>
<polygon fill="none" stroke="#000000" points="1537,-1076.5 1537,-1111.5 1857,-1111.5 1857,-1076.5 1537,-1076.5"/>
<text text-anchor="start" x="1589.2141" y="-1089.3" font-family="Arial Bold" font-size="18.00" fill="#000000">public.likes</text>
<text text-anchor="start" x="1677.2179" y="-1089.3" font-family="Arial" font-size="14.00" fill="#000000">    </text>
<text text-anchor="start" x="1711.4227" y="-1089.3" font-family="Arial" font-size="14.00" fill="#666666">[BASE TABLE]</text>
<polygon fill="none" stroke="#000000" points="1537,-1046.5 1537,-1076.5 1857,-1076.5 1857,-1046.5 1537,-1046.5"/>
<text text-anchor="start" x="1544" y="-1057.9" font-family="Arial" font-size="14.00" fill="#000000">id    </text>
<text text-anchor="start" x="1589.094" y="-1057.9" font-family="Arial" font-size="14.00" fill="#666666">[bigint]</text>
<polygon fill="none" stroke="#000000" points="1537,-1016.5 1537,-1046.5 1857,-1046.5 1857,-1016.5 1537,-1016.5"/>
<text text-anchor="start" x="1544" y="-1027.9" font-family="Arial" font-size="14.00" fill="#000000">user_id    </text>
<text text-anchor="start" x="1624.1024" y="-1027.9" font-family="Arial" font-size="14.00" fill="#666666">[bigint]</text>
<polygon fill="none" stroke="#000000" points="1537,-986.5 1537,-1016.5 1857,-1016.5 1857,-986.5 1537,-986.5"/>
<text text-anchor="start" x="1544" y="-997.9" font-family="Arial" font-size="14.00" fill="#000000">article_id    </text>
<text text-anchor="start" x="1634.2062" y="-997.9" font-family="Arial" font-size="14.00" fill="#666666">[bigint]</text>
<polygon fill="none" stroke="#000000" points="1537,-956.5 1537,-986.5 1857,-986.5 1857,-956.5 1537,-956.5"/>
<text text-anchor="start" x="1544" y="-967.9" font-family="Arial" font-size="14.00" fill="#000000">created_at    </text>
<text text-anchor="start" x="1644.3422" y="-967.9" font-family="Arial" font-size="14.00" fill="#666666">[timestamp(6) without time zone]</text>
<polygon fill="none" stroke="#000000" points="1537,-926.5 1537,-956.5 1857,-956.5 1857,-926.5 1537,-926.5"/>
<text text-anchor="start" x="1543.7546" y="-937.9" font-family="Arial" font-size="14.00" fill="#000000">updated_at    </text>
<text text-anchor="start" x="1648.0014" y="-937.9" font-family="Arial" font-size="14.00" fill="#666666">[timestamp(6) without time zone]</text>
</g>
<!-- public.likes&#45;&gt;public.articles -->
<g id="edge8" class="edge">
<title>public.likes:article_id&#45;&gt;public.articles:id</title>
<path fill="none" stroke="#000000" d="M1867.3627,-1000.3477C1905.3245,-990.9333 1881.026,-925.9538 1857,-884 1775.8218,-742.2483 1621.1782,-839.7517 1540,-698 1519.3487,-661.9391 1498.4444,-604.5 1540,-604.5"/>
<polygon fill="#000000" stroke="#000000" points="1866.9387,-1000.3947 1856.5026,-997.0276 1861.9694,-1000.9474 1857,-1001.5 1857,-1001.5 1857,-1001.5 1861.9694,-1000.9474 1857.4974,-1005.9724 1866.9387,-1000.3947 1866.9387,-1000.3947"/>
<text text-anchor="start" x="1613.1175" y="-1011.5" font-family="Arial" font-size="10.00" fill="#000000">FOREIGN KEY (article_id) REFERENCES articles(id)</text>
</g>
<!-- public.likes&#45;&gt;public.users -->
<g id="edge9" class="edge">
<title>public.likes:user_id&#45;&gt;public.users:id</title>
<path fill="none" stroke="#000000" d="M1528.2643,-1026.2467C1476.3866,-961.9112 1471.7485,-327.9222 1488,-307 1527.6754,-255.9219 1589.3246,-322.0781 1629,-271 1654.4918,-238.1819 1670.5556,-177.5 1629,-177.5"/>
<polygon fill="#000000" stroke="#000000" points="1528.4302,-1026.3464 1534.6809,-1035.3564 1532.7151,-1028.9232 1537,-1031.5 1537,-1031.5 1537,-1031.5 1532.7151,-1028.9232 1539.3191,-1027.6436 1528.4302,-1026.3464 1528.4302,-1026.3464"/>
<text text-anchor="start" x="1307.3345" y="-1041.5" font-family="Arial" font-size="10.00" fill="#000000">FOREIGN KEY (user_id) REFERENCES users(id)</text>
</g>
<!-- public.applicants -->
<g id="node10" class="node">
<title>public.applicants</title>
<polygon fill="#efefef" stroke="transparent" points="2401,-574.5 2401,-609.5 2721,-609.5 2721,-574.5 2401,-574.5"/>
<polygon fill="none" stroke="#000000" points="2401,-574.5 2401,-609.5 2721,-609.5 2721,-574.5 2401,-574.5"/>
<text text-anchor="start" x="2430.7006" y="-587.3" font-family="Arial Bold" font-size="18.00" fill="#000000">public.applicants</text>
<text text-anchor="start" x="2563.7314" y="-587.3" font-family="Arial" font-size="14.00" fill="#000000">    </text>
<text text-anchor="start" x="2597.9362" y="-587.3" font-family="Arial" font-size="14.00" fill="#666666">[BASE TABLE]</text>
<polygon fill="none" stroke="#000000" points="2401,-544.5 2401,-574.5 2721,-574.5 2721,-544.5 2401,-544.5"/>
<text text-anchor="start" x="2408" y="-555.9" font-family="Arial" font-size="14.00" fill="#000000">id    </text>
<text text-anchor="start" x="2453.094" y="-555.9" font-family="Arial" font-size="14.00" fill="#666666">[bigint]</text>
<polygon fill="none" stroke="#000000" points="2401,-514.5 2401,-544.5 2721,-544.5 2721,-514.5 2401,-514.5"/>
<text text-anchor="start" x="2408" y="-525.9" font-family="Arial" font-size="14.00" fill="#000000">name    </text>
<text text-anchor="start" x="2477.2132" y="-525.9" font-family="Arial" font-size="14.00" fill="#666666">[varchar]</text>
<polygon fill="none" stroke="#000000" points="2401,-484.5 2401,-514.5 2721,-514.5 2721,-484.5 2401,-484.5"/>
<text text-anchor="start" x="2408" y="-495.9" font-family="Arial" font-size="14.00" fill="#000000">user_id    </text>
<text text-anchor="start" x="2488.1024" y="-495.9" font-family="Arial" font-size="14.00" fill="#666666">[integer]</text>
<polygon fill="none" stroke="#000000" points="2401,-454.5 2401,-484.5 2721,-484.5 2721,-454.5 2401,-454.5"/>
<text text-anchor="start" x="2408" y="-465.9" font-family="Arial" font-size="14.00" fill="#000000">created_at    </text>
<text text-anchor="start" x="2508.3422" y="-465.9" font-family="Arial" font-size="14.00" fill="#666666">[timestamp(6) without time zone]</text>
<polygon fill="none" stroke="#000000" points="2401,-424.5 2401,-454.5 2721,-454.5 2721,-424.5 2401,-424.5"/>
<text text-anchor="start" x="2407.7546" y="-435.9" font-family="Arial" font-size="14.00" fill="#000000">updated_at    </text>
<text text-anchor="start" x="2512.0014" y="-435.9" font-family="Arial" font-size="14.00" fill="#666666">[timestamp(6) without time zone]</text>
<polygon fill="none" stroke="#000000" points="2401,-394.5 2401,-424.5 2721,-424.5 2721,-394.5 2401,-394.5"/>
<text text-anchor="start" x="2408" y="-405.9" font-family="Arial" font-size="14.00" fill="#000000">creater_id    </text>
<text text-anchor="start" x="2504.4362" y="-405.9" font-family="Arial" font-size="14.00" fill="#666666">[integer]</text>
</g>
<!-- public.applicant_articles -->
<g id="node11" class="node">
<title>public.applicant_articles</title>
<polygon fill="#efefef" stroke="transparent" points="2395,-1076.5 2395,-1111.5 2727,-1111.5 2727,-1076.5 2395,-1076.5"/>
<polygon fill="none" stroke="#000000" points="2395,-1076.5 2395,-1111.5 2727,-1111.5 2727,-1076.5 2395,-1076.5"/>
<text text-anchor="start" x="2401.6999" y="-1089.3" font-family="Arial Bold" font-size="18.00" fill="#000000">public.applicant_articles</text>
<text text-anchor="start" x="2592.7321" y="-1089.3" font-family="Arial" font-size="14.00" fill="#000000">    </text>
<text text-anchor="start" x="2626.9369" y="-1089.3" font-family="Arial" font-size="14.00" fill="#666666">[BASE TABLE]</text>
<polygon fill="none" stroke="#000000" points="2395,-1046.5 2395,-1076.5 2727,-1076.5 2727,-1046.5 2395,-1046.5"/>
<text text-anchor="start" x="2402" y="-1057.9" font-family="Arial" font-size="14.00" fill="#000000">id    </text>
<text text-anchor="start" x="2447.094" y="-1057.9" font-family="Arial" font-size="14.00" fill="#666666">[bigint]</text>
<polygon fill="none" stroke="#000000" points="2395,-1016.5 2395,-1046.5 2727,-1046.5 2727,-1016.5 2395,-1016.5"/>
<text text-anchor="start" x="2402" y="-1027.9" font-family="Arial" font-size="14.00" fill="#000000">applicant_id    </text>
<text text-anchor="start" x="2510.8934" y="-1027.9" font-family="Arial" font-size="14.00" fill="#666666">[bigint]</text>
<polygon fill="none" stroke="#000000" points="2395,-986.5 2395,-1016.5 2727,-1016.5 2727,-986.5 2395,-986.5"/>
<text text-anchor="start" x="2402" y="-997.9" font-family="Arial" font-size="14.00" fill="#000000">article_id    </text>
<text text-anchor="start" x="2492.2062" y="-997.9" font-family="Arial" font-size="14.00" fill="#666666">[bigint]</text>
<polygon fill="none" stroke="#000000" points="2395,-956.5 2395,-986.5 2727,-986.5 2727,-956.5 2395,-956.5"/>
<text text-anchor="start" x="2402" y="-967.9" font-family="Arial" font-size="14.00" fill="#000000">created_at    </text>
<text text-anchor="start" x="2502.3422" y="-967.9" font-family="Arial" font-size="14.00" fill="#666666">[timestamp(6) without time zone]</text>
<polygon fill="none" stroke="#000000" points="2395,-926.5 2395,-956.5 2727,-956.5 2727,-926.5 2395,-926.5"/>
<text text-anchor="start" x="2402" y="-937.9" font-family="Arial" font-size="14.00" fill="#000000">updated_at    </text>
<text text-anchor="start" x="2506.2468" y="-937.9" font-family="Arial" font-size="14.00" fill="#666666">[timestamp(6) without time zone]</text>
</g>
<!-- public.applicant_articles&#45;&gt;public.articles -->
<g id="edge10" class="edge">
<title>public.applicant_articles:article_id&#45;&gt;public.articles:id</title>
<path fill="none" stroke="#000000" d="M2384.7565,-1000.995C2283.2995,-990.2982 2430.4128,-812.441 2343,-734 2271.9618,-670.2529 1995.7921,-748.8208 1915,-698 1874.1904,-672.3295 1908.212,-604.5 1860,-604.5"/>
<polygon fill="#000000" stroke="#000000" points="2385.0121,-1001.0075 2394.7784,-1005.9945 2390.0061,-1001.2538 2395,-1001.5 2395,-1001.5 2395,-1001.5 2390.0061,-1001.2538 2395.2216,-997.0055 2385.0121,-1001.0075 2385.0121,-1001.0075"/>
<text text-anchor="start" x="2130.3365" y="-985.5" font-family="Arial" font-size="10.00" fill="#000000">FOREIGN KEY (article_id) REFERENCES articles(id) ON DELETE CASCADE</text>
</g>
<!-- public.applicant_articles&#45;&gt;public.applicants -->
<g id="edge11" class="edge">
<title>public.applicant_articles:applicant_id&#45;&gt;public.applicants:id</title>
<path fill="none" stroke="#000000" d="M2735.8867,-1026.5186C2778.5518,-976.0741 2770.2731,-559.5 2721,-559.5"/>
<polygon fill="#000000" stroke="#000000" points="2735.723,-1026.6103 2724.7996,-1027.5746 2731.3615,-1029.0551 2727,-1031.5 2727,-1031.5 2727,-1031.5 2731.3615,-1029.0551 2729.2004,-1035.4254 2735.723,-1026.6103 2735.723,-1026.6103"/>
<text text-anchor="start" x="2594.7695" y="-1015.5" font-family="Arial" font-size="10.00" fill="#000000">FOREIGN KEY (applicant_id) REFERENCES applicants(id)</text>
</g>
<!-- public.schema_migrations -->
<g id="node13" class="node">
<title>public.schema_migrations</title>
<polygon fill="#efefef" stroke="transparent" points="3256,-1016.5 3256,-1051.5 3605,-1051.5 3605,-1016.5 3256,-1016.5"/>
<polygon fill="none" stroke="#000000" points="3256,-1016.5 3256,-1051.5 3605,-1051.5 3605,-1016.5 3256,-1016.5"/>
<text text-anchor="start" x="3262.703" y="-1029.3" font-family="Arial Bold" font-size="18.00" fill="#000000">public.schema_migrations</text>
<text text-anchor="start" x="3470.729" y="-1029.3" font-family="Arial" font-size="14.00" fill="#000000">    </text>
<text text-anchor="start" x="3504.9338" y="-1029.3" font-family="Arial" font-size="14.00" fill="#666666">[BASE TABLE]</text>
<polygon fill="none" stroke="#000000" points="3256,-986.5 3256,-1016.5 3605,-1016.5 3605,-986.5 3256,-986.5"/>
<text text-anchor="start" x="3263" y="-997.9" font-family="Arial" font-size="14.00" fill="#000000">version    </text>
<text text-anchor="start" x="3342.3198" y="-997.9" font-family="Arial" font-size="14.00" fill="#666666">[varchar]</text>
</g>
<!-- public.ar_internal_metadata -->
<g id="node14" class="node">
<title>public.ar_internal_metadata</title>
<polygon fill="#efefef" stroke="transparent" points="3709,-1061.5 3709,-1096.5 4072,-1096.5 4072,-1061.5 3709,-1061.5"/>
<polygon fill="none" stroke="#000000" points="3709,-1061.5 3709,-1096.5 4072,-1096.5 4072,-1061.5 3709,-1061.5"/>
<text text-anchor="start" x="3715.6884" y="-1074.3" font-family="Arial Bold" font-size="18.00" fill="#000000">public.ar_internal_metadata</text>
<text text-anchor="start" x="3937.7436" y="-1074.3" font-family="Arial" font-size="14.00" fill="#000000">    </text>
<text text-anchor="start" x="3971.9484" y="-1074.3" font-family="Arial" font-size="14.00" fill="#666666">[BASE TABLE]</text>
<polygon fill="none" stroke="#000000" points="3709,-1031.5 3709,-1061.5 4072,-1061.5 4072,-1031.5 3709,-1031.5"/>
<text text-anchor="start" x="3716" y="-1042.9" font-family="Arial" font-size="14.00" fill="#000000">key    </text>
<text text-anchor="start" x="3771.9874" y="-1042.9" font-family="Arial" font-size="14.00" fill="#666666">[varchar]</text>
<polygon fill="none" stroke="#000000" points="3709,-1001.5 3709,-1031.5 4072,-1031.5 4072,-1001.5 3709,-1001.5"/>
<text text-anchor="start" x="3716" y="-1012.9" font-family="Arial" font-size="14.00" fill="#000000">value    </text>
<text text-anchor="start" x="3783.6592" y="-1012.9" font-family="Arial" font-size="14.00" fill="#666666">[varchar]</text>
<polygon fill="none" stroke="#000000" points="3709,-971.5 3709,-1001.5 4072,-1001.5 4072,-971.5 3709,-971.5"/>
<text text-anchor="start" x="3716" y="-982.9" font-family="Arial" font-size="14.00" fill="#000000">created_at    </text>
<text text-anchor="start" x="3816.3422" y="-982.9" font-family="Arial" font-size="14.00" fill="#666666">[timestamp(6) without time zone]</text>
<polygon fill="none" stroke="#000000" points="3709,-941.5 3709,-971.5 4072,-971.5 4072,-941.5 3709,-941.5"/>
<text text-anchor="start" x="3716" y="-952.9" font-family="Arial" font-size="14.00" fill="#000000">updated_at    </text>
<text text-anchor="start" x="3820.2468" y="-952.9" font-family="Arial" font-size="14.00" fill="#666666">[timestamp(6) without time zone]</text>
</g>
</g>
</svg>
