<?xml version="1.0" encoding="UTF-8" standalone="no"?>
<!DOCTYPE svg PUBLIC "-//W3C//DTD SVG 1.1//EN"
 "http://www.w3.org/Graphics/SVG/1.1/DTD/svg11.dtd">
<!-- Generated by graphviz version 9.0.0 (20230911.1827)
 -->
<!-- Title: controllers_diagram Pages: 1 -->
<svg width="1559pt" height="1523pt"
 viewBox="0.00 0.00 1559.00 1522.50" xmlns="http://www.w3.org/2000/svg" xmlns:xlink="http://www.w3.org/1999/xlink">
<g id="graph0" class="graph" transform="scale(1 1) rotate(0) translate(4 1518.5)">
<title>controllers_diagram</title>
<polygon fill="none" stroke="none" points="-4,4 -4,-1518.5 1555,-1518.5 1555,4 -4,4"/>
<!-- _diagram_info -->
<g id="node1" class="node">
<title>_diagram_info</title>
<text text-anchor="start" x="1324" y="-1102.65" font-family="Times,serif" font-size="13.00">Controllers diagram</text>
<text text-anchor="start" x="1324" y="-1087.65" font-family="Times,serif" font-size="13.00">Date: Mar 10 2024 &#45; 05:58</text>
<text text-anchor="start" x="1324" y="-1072.65" font-family="Times,serif" font-size="13.00">Migration version: 20240309204206</text>
<text text-anchor="start" x="1324" y="-1057.65" font-family="Times,serif" font-size="13.00">Generated by RailRoady 1.6.0</text>
<text text-anchor="start" x="1324" y="-1042.65" font-family="Times,serif" font-size="13.00">http://railroady.prestonlee.com</text>
</g>
<!-- ApplicationController -->
<g id="node2" class="node">
<title>ApplicationController</title>
<path fill="none" stroke="black" d="M581.8,-624.76C581.8,-624.76 693.05,-624.76 693.05,-624.76 699.05,-624.76 705.05,-630.76 705.05,-636.76 705.05,-636.76 705.05,-759.76 705.05,-759.76 705.05,-765.76 699.05,-771.76 693.05,-771.76 693.05,-771.76 581.8,-771.76 581.8,-771.76 575.8,-771.76 569.8,-765.76 569.8,-759.76 569.8,-759.76 569.8,-636.76 569.8,-636.76 569.8,-630.76 575.8,-624.76 581.8,-624.76"/>
<text text-anchor="middle" x="637.43" y="-754.46" font-family="Times,serif" font-size="14.00">ApplicationController</text>
<polyline fill="none" stroke="black" points="569.8,-747.26 705.05,-747.26"/>
<text text-anchor="start" x="577.8" y="-729.96" font-family="Times,serif" font-size="14.00">check_logged_in</text>
<polyline fill="none" stroke="black" points="569.8,-722.76 705.05,-722.76"/>
<polyline fill="none" stroke="black" points="569.8,-698.76 705.05,-698.76"/>
<text text-anchor="start" x="577.8" y="-681.46" font-family="Times,serif" font-size="14.00">_layout</text>
<text text-anchor="start" x="577.8" y="-664.96" font-family="Times,serif" font-size="14.00">_layout_from_proc</text>
<text text-anchor="start" x="577.8" y="-648.46" font-family="Times,serif" font-size="14.00">current_user</text>
<text text-anchor="start" x="577.8" y="-631.96" font-family="Times,serif" font-size="14.00">user_signed_in?</text>
</g>
<!-- ArticlesController -->
<g id="node3" class="node">
<title>ArticlesController</title>
<path fill="none" stroke="black" d="M858.93,-638.22C858.93,-638.22 955.93,-638.22 955.93,-638.22 961.93,-638.22 967.93,-644.22 967.93,-650.22 967.93,-650.22 967.93,-888.72 967.93,-888.72 967.93,-894.72 961.93,-900.72 955.93,-900.72 955.93,-900.72 858.93,-900.72 858.93,-900.72 852.93,-900.72 846.93,-894.72 846.93,-888.72 846.93,-888.72 846.93,-650.22 846.93,-650.22 846.93,-644.22 852.93,-638.22 858.93,-638.22"/>
<text text-anchor="middle" x="907.43" y="-883.42" font-family="Times,serif" font-size="14.00">ArticlesController</text>
<polyline fill="none" stroke="black" points="846.93,-876.22 967.93,-876.22"/>
<text text-anchor="start" x="854.93" y="-858.92" font-family="Times,serif" font-size="14.00">create</text>
<text text-anchor="start" x="854.93" y="-842.42" font-family="Times,serif" font-size="14.00">destroy</text>
<text text-anchor="start" x="854.93" y="-825.92" font-family="Times,serif" font-size="14.00">edit</text>
<text text-anchor="start" x="854.93" y="-809.42" font-family="Times,serif" font-size="14.00">index</text>
<text text-anchor="start" x="854.93" y="-792.92" font-family="Times,serif" font-size="14.00">new</text>
<text text-anchor="start" x="854.93" y="-776.42" font-family="Times,serif" font-size="14.00">show</text>
<text text-anchor="start" x="854.93" y="-759.92" font-family="Times,serif" font-size="14.00">update</text>
<polyline fill="none" stroke="black" points="846.93,-752.72 967.93,-752.72"/>
<polyline fill="none" stroke="black" points="846.93,-728.72 967.93,-728.72"/>
<text text-anchor="start" x="854.93" y="-711.42" font-family="Times,serif" font-size="14.00">_layout</text>
<text text-anchor="start" x="854.93" y="-694.92" font-family="Times,serif" font-size="14.00">_layout_from_proc</text>
<text text-anchor="start" x="854.93" y="-678.42" font-family="Times,serif" font-size="14.00">article_params</text>
<text text-anchor="start" x="854.93" y="-661.92" font-family="Times,serif" font-size="14.00">correct_user</text>
<text text-anchor="start" x="854.93" y="-645.42" font-family="Times,serif" font-size="14.00">set_article</text>
</g>
<!-- ApplicationController&#45;&gt;ArticlesController -->
<g id="edge1" class="edge">
<title>ApplicationController&#45;&gt;ArticlesController</title>
<path fill="none" stroke="black" d="M705.21,-716.14C748.64,-727.59 804.52,-742.33 846.54,-753.41"/>
</g>
<!-- Auth0Controller -->
<g id="node4" class="node">
<title>Auth0Controller</title>
<path fill="none" stroke="black" d="M452.15,-372.62C452.15,-372.62 549.15,-372.62 549.15,-372.62 555.15,-372.62 561.15,-378.62 561.15,-384.62 561.15,-384.62 561.15,-524.12 561.15,-524.12 561.15,-530.12 555.15,-536.12 549.15,-536.12 549.15,-536.12 452.15,-536.12 452.15,-536.12 446.15,-536.12 440.15,-530.12 440.15,-524.12 440.15,-524.12 440.15,-384.62 440.15,-384.62 440.15,-378.62 446.15,-372.62 452.15,-372.62"/>
<text text-anchor="middle" x="500.65" y="-518.82" font-family="Times,serif" font-size="14.00">Auth0Controller</text>
<polyline fill="none" stroke="black" points="440.15,-511.62 561.15,-511.62"/>
<text text-anchor="start" x="448.15" y="-494.32" font-family="Times,serif" font-size="14.00">callback</text>
<text text-anchor="start" x="448.15" y="-477.82" font-family="Times,serif" font-size="14.00">failure</text>
<text text-anchor="start" x="448.15" y="-461.32" font-family="Times,serif" font-size="14.00">logout</text>
<polyline fill="none" stroke="black" points="440.15,-454.12 561.15,-454.12"/>
<polyline fill="none" stroke="black" points="440.15,-430.12 561.15,-430.12"/>
<text text-anchor="start" x="448.15" y="-412.82" font-family="Times,serif" font-size="14.00">_layout</text>
<text text-anchor="start" x="448.15" y="-396.32" font-family="Times,serif" font-size="14.00">_layout_from_proc</text>
<text text-anchor="start" x="448.15" y="-379.82" font-family="Times,serif" font-size="14.00">logout_url</text>
</g>
<!-- ApplicationController&#45;&gt;Auth0Controller -->
<g id="edge2" class="edge">
<title>ApplicationController&#45;&gt;Auth0Controller</title>
<path fill="none" stroke="black" d="M596.02,-624.43C580.45,-596.67 562.66,-564.94 546.7,-536.48"/>
</g>
<!-- BookmarksController -->
<g id="node5" class="node">
<title>BookmarksController</title>
<path fill="none" stroke="black" d="M340.34,-772.03C340.34,-772.03 450.84,-772.03 450.84,-772.03 456.84,-772.03 462.84,-778.03 462.84,-784.03 462.84,-784.03 462.84,-890.53 462.84,-890.53 462.84,-896.53 456.84,-902.53 450.84,-902.53 450.84,-902.53 340.34,-902.53 340.34,-902.53 334.34,-902.53 328.34,-896.53 328.34,-890.53 328.34,-890.53 328.34,-784.03 328.34,-784.03 328.34,-778.03 334.34,-772.03 340.34,-772.03"/>
<text text-anchor="middle" x="395.59" y="-885.23" font-family="Times,serif" font-size="14.00">BookmarksController</text>
<polyline fill="none" stroke="black" points="328.34,-878.03 462.84,-878.03"/>
<text text-anchor="start" x="336.34" y="-860.73" font-family="Times,serif" font-size="14.00">create</text>
<text text-anchor="start" x="336.34" y="-844.23" font-family="Times,serif" font-size="14.00">destroy</text>
<polyline fill="none" stroke="black" points="328.34,-837.03 462.84,-837.03"/>
<polyline fill="none" stroke="black" points="328.34,-813.03 462.84,-813.03"/>
<text text-anchor="start" x="336.34" y="-795.73" font-family="Times,serif" font-size="14.00">_layout</text>
<text text-anchor="start" x="336.34" y="-779.23" font-family="Times,serif" font-size="14.00">_layout_from_proc</text>
</g>
<!-- ApplicationController&#45;&gt;BookmarksController -->
<g id="edge3" class="edge">
<title>ApplicationController&#45;&gt;BookmarksController</title>
<path fill="none" stroke="black" d="M569.42,-737.36C536.17,-756.47 496.27,-779.41 463.09,-798.48"/>
</g>
<!-- CategoryController -->
<g id="node6" class="node">
<title>CategoryController</title>
<path fill="none" stroke="black" d="M729.92,-882.47C729.92,-882.47 826.92,-882.47 826.92,-882.47 832.92,-882.47 838.92,-888.47 838.92,-894.47 838.92,-894.47 838.92,-983.97 838.92,-983.97 838.92,-989.97 832.92,-995.97 826.92,-995.97 826.92,-995.97 729.92,-995.97 729.92,-995.97 723.92,-995.97 717.92,-989.97 717.92,-983.97 717.92,-983.97 717.92,-894.47 717.92,-894.47 717.92,-888.47 723.92,-882.47 729.92,-882.47"/>
<text text-anchor="middle" x="778.42" y="-978.67" font-family="Times,serif" font-size="14.00">CategoryController</text>
<polyline fill="none" stroke="black" points="717.92,-971.47 838.92,-971.47"/>
<polyline fill="none" stroke="black" points="717.92,-947.47 838.92,-947.47"/>
<polyline fill="none" stroke="black" points="717.92,-923.47 838.92,-923.47"/>
<text text-anchor="start" x="725.92" y="-906.17" font-family="Times,serif" font-size="14.00">_layout</text>
<text text-anchor="start" x="725.92" y="-889.67" font-family="Times,serif" font-size="14.00">_layout_from_proc</text>
</g>
<!-- ApplicationController&#45;&gt;CategoryController -->
<g id="edge4" class="edge">
<title>ApplicationController&#45;&gt;CategoryController</title>
<path fill="none" stroke="black" d="M680.69,-772.2C701.41,-807.61 725.84,-849.37 745.09,-882.27"/>
</g>
<!-- GraphqlController -->
<g id="node7" class="node">
<title>GraphqlController</title>
<path fill="none" stroke="black" d="M488.38,-894.31C488.38,-894.31 643.88,-894.31 643.88,-894.31 649.88,-894.31 655.88,-900.31 655.88,-906.31 655.88,-906.31 655.88,-1029.31 655.88,-1029.31 655.88,-1035.31 649.88,-1041.31 643.88,-1041.31 643.88,-1041.31 488.38,-1041.31 488.38,-1041.31 482.38,-1041.31 476.38,-1035.31 476.38,-1029.31 476.38,-1029.31 476.38,-906.31 476.38,-906.31 476.38,-900.31 482.38,-894.31 488.38,-894.31"/>
<text text-anchor="middle" x="566.13" y="-1024.01" font-family="Times,serif" font-size="14.00">GraphqlController</text>
<polyline fill="none" stroke="black" points="476.38,-1016.81 655.88,-1016.81"/>
<text text-anchor="start" x="484.38" y="-999.51" font-family="Times,serif" font-size="14.00">execute</text>
<polyline fill="none" stroke="black" points="476.38,-992.31 655.88,-992.31"/>
<polyline fill="none" stroke="black" points="476.38,-968.31 655.88,-968.31"/>
<text text-anchor="start" x="484.38" y="-951.01" font-family="Times,serif" font-size="14.00">_layout</text>
<text text-anchor="start" x="484.38" y="-934.51" font-family="Times,serif" font-size="14.00">_layout_from_proc</text>
<text text-anchor="start" x="484.38" y="-918.01" font-family="Times,serif" font-size="14.00">handle_error_in_development</text>
<text text-anchor="start" x="484.38" y="-901.51" font-family="Times,serif" font-size="14.00">prepare_variables</text>
</g>
<!-- ApplicationController&#45;&gt;GraphqlController -->
<g id="edge5" class="edge">
<title>ApplicationController&#45;&gt;GraphqlController</title>
<path fill="none" stroke="black" d="M617.95,-771.92C607.89,-809.95 595.65,-856.22 585.59,-894.24"/>
</g>
<!-- HomeController -->
<g id="node8" class="node">
<title>HomeController</title>
<path fill="none" stroke="black" d="M320,-566.86C320,-566.86 417,-566.86 417,-566.86 423,-566.86 429,-572.86 429,-578.86 429,-578.86 429,-668.86 429,-668.86 429,-674.86 423,-680.86 417,-680.86 417,-680.86 320,-680.86 320,-680.86 314,-680.86 308,-674.86 308,-668.86 308,-668.86 308,-578.86 308,-578.86 308,-572.86 314,-566.86 320,-566.86"/>
<text text-anchor="middle" x="368.5" y="-663.56" font-family="Times,serif" font-size="14.00">HomeController</text>
<polyline fill="none" stroke="black" points="308,-656.36 429,-656.36"/>
<text text-anchor="start" x="316" y="-639.06" font-family="Times,serif" font-size="14.00">index</text>
<polyline fill="none" stroke="black" points="308,-631.86 429,-631.86"/>
<polyline fill="none" stroke="black" points="308,-607.86 429,-607.86"/>
<text text-anchor="start" x="316" y="-590.56" font-family="Times,serif" font-size="14.00">_layout</text>
<text text-anchor="start" x="316" y="-574.06" font-family="Times,serif" font-size="14.00">_layout_from_proc</text>
</g>
<!-- ApplicationController&#45;&gt;HomeController -->
<g id="edge6" class="edge">
<title>ApplicationController&#45;&gt;HomeController</title>
<path fill="none" stroke="black" d="M569.57,-679.49C526.46,-667.57 471.15,-652.26 429.45,-640.72"/>
</g>
<!-- LikesController -->
<g id="node9" class="node">
<title>LikesController</title>
<path fill="none" stroke="black" d="M831.33,-493.01C831.33,-493.01 928.33,-493.01 928.33,-493.01 934.33,-493.01 940.33,-499.01 940.33,-505.01 940.33,-505.01 940.33,-611.51 940.33,-611.51 940.33,-617.51 934.33,-623.51 928.33,-623.51 928.33,-623.51 831.33,-623.51 831.33,-623.51 825.33,-623.51 819.33,-617.51 819.33,-611.51 819.33,-611.51 819.33,-505.01 819.33,-505.01 819.33,-499.01 825.33,-493.01 831.33,-493.01"/>
<text text-anchor="middle" x="879.83" y="-606.21" font-family="Times,serif" font-size="14.00">LikesController</text>
<polyline fill="none" stroke="black" points="819.33,-599.01 940.33,-599.01"/>
<text text-anchor="start" x="827.33" y="-581.71" font-family="Times,serif" font-size="14.00">create</text>
<text text-anchor="start" x="827.33" y="-565.21" font-family="Times,serif" font-size="14.00">destroy</text>
<polyline fill="none" stroke="black" points="819.33,-558.01 940.33,-558.01"/>
<polyline fill="none" stroke="black" points="819.33,-534.01 940.33,-534.01"/>
<text text-anchor="start" x="827.33" y="-516.71" font-family="Times,serif" font-size="14.00">_layout</text>
<text text-anchor="start" x="827.33" y="-500.21" font-family="Times,serif" font-size="14.00">_layout_from_proc</text>
</g>
<!-- ApplicationController&#45;&gt;LikesController -->
<g id="edge7" class="edge">
<title>ApplicationController&#45;&gt;LikesController</title>
<path fill="none" stroke="black" d="M705.27,-659.08C740.99,-638.45 784.43,-613.36 819.04,-593.37"/>
</g>
<!-- UsersController -->
<g id="node10" class="node">
<title>UsersController</title>
<path fill="none" stroke="black" d="M662.76,-364.5C662.76,-364.5 759.76,-364.5 759.76,-364.5 765.76,-364.5 771.76,-370.5 771.76,-376.5 771.76,-376.5 771.76,-483 771.76,-483 771.76,-489 765.76,-495 759.76,-495 759.76,-495 662.76,-495 662.76,-495 656.76,-495 650.76,-489 650.76,-483 650.76,-483 650.76,-376.5 650.76,-376.5 650.76,-370.5 656.76,-364.5 662.76,-364.5"/>
<text text-anchor="middle" x="711.26" y="-477.7" font-family="Times,serif" font-size="14.00">UsersController</text>
<polyline fill="none" stroke="black" points="650.76,-470.5 771.76,-470.5"/>
<text text-anchor="start" x="658.76" y="-453.2" font-family="Times,serif" font-size="14.00">show</text>
<polyline fill="none" stroke="black" points="650.76,-446 771.76,-446"/>
<polyline fill="none" stroke="black" points="650.76,-422 771.76,-422"/>
<text text-anchor="start" x="658.76" y="-404.7" font-family="Times,serif" font-size="14.00">_layout</text>
<text text-anchor="start" x="658.76" y="-388.2" font-family="Times,serif" font-size="14.00">_layout_from_proc</text>
<text text-anchor="start" x="658.76" y="-371.7" font-family="Times,serif" font-size="14.00">correct_user</text>
</g>
<!-- ApplicationController&#45;&gt;UsersController -->
<g id="edge8" class="edge">
<title>ApplicationController&#45;&gt;UsersController</title>
<path fill="none" stroke="black" d="M657.7,-624.54C668.84,-584.02 682.54,-534.19 693.3,-495.07"/>
</g>
<!-- ActiveStorage::BaseController -->
<g id="node11" class="node">
<title>ActiveStorage::BaseController</title>
<path fill="none" stroke="black" d="M1356,-1400.5C1356,-1400.5 1514.5,-1400.5 1514.5,-1400.5 1520.5,-1400.5 1526.5,-1406.5 1526.5,-1412.5 1526.5,-1412.5 1526.5,-1502 1526.5,-1502 1526.5,-1508 1520.5,-1514 1514.5,-1514 1514.5,-1514 1356,-1514 1356,-1514 1350,-1514 1344,-1508 1344,-1502 1344,-1502 1344,-1412.5 1344,-1412.5 1344,-1406.5 1350,-1400.5 1356,-1400.5"/>
<text text-anchor="middle" x="1435.25" y="-1496.7" font-family="Times,serif" font-size="14.00">ActiveStorage::BaseController</text>
<polyline fill="none" stroke="black" points="1344,-1489.5 1526.5,-1489.5"/>
<polyline fill="none" stroke="black" points="1344,-1465.5 1526.5,-1465.5"/>
<polyline fill="none" stroke="black" points="1344,-1441.5 1526.5,-1441.5"/>
<text text-anchor="start" x="1352" y="-1424.2" font-family="Times,serif" font-size="14.00">_layout</text>
<text text-anchor="start" x="1352" y="-1407.7" font-family="Times,serif" font-size="14.00">_layout_from_proc</text>
</g>
<!-- ActiveStorage::Blobs::ProxyController -->
<g id="node12" class="node">
<title>ActiveStorage::Blobs::ProxyController</title>
<path fill="none" stroke="black" d="M908,-28.5C908,-28.5 1111.5,-28.5 1111.5,-28.5 1117.5,-28.5 1123.5,-34.5 1123.5,-40.5 1123.5,-40.5 1123.5,-130.5 1123.5,-130.5 1123.5,-136.5 1117.5,-142.5 1111.5,-142.5 1111.5,-142.5 908,-142.5 908,-142.5 902,-142.5 896,-136.5 896,-130.5 896,-130.5 896,-40.5 896,-40.5 896,-34.5 902,-28.5 908,-28.5"/>
<text text-anchor="middle" x="1009.75" y="-125.2" font-family="Times,serif" font-size="14.00">ActiveStorage::Blobs::ProxyController</text>
<polyline fill="none" stroke="black" points="896,-118 1123.5,-118"/>
<text text-anchor="start" x="904" y="-100.7" font-family="Times,serif" font-size="14.00">show</text>
<polyline fill="none" stroke="black" points="896,-93.5 1123.5,-93.5"/>
<polyline fill="none" stroke="black" points="896,-69.5 1123.5,-69.5"/>
<text text-anchor="start" x="904" y="-52.2" font-family="Times,serif" font-size="14.00">_layout</text>
<text text-anchor="start" x="904" y="-35.7" font-family="Times,serif" font-size="14.00">_layout_from_proc</text>
</g>
<!-- ActiveStorage::Blobs::RedirectController -->
<g id="node13" class="node">
<title>ActiveStorage::Blobs::RedirectController</title>
<path fill="none" stroke="black" d="M348,-56.5C348,-56.5 565,-56.5 565,-56.5 571,-56.5 577,-62.5 577,-68.5 577,-68.5 577,-158.5 577,-158.5 577,-164.5 571,-170.5 565,-170.5 565,-170.5 348,-170.5 348,-170.5 342,-170.5 336,-164.5 336,-158.5 336,-158.5 336,-68.5 336,-68.5 336,-62.5 342,-56.5 348,-56.5"/>
<text text-anchor="middle" x="456.5" y="-153.2" font-family="Times,serif" font-size="14.00">ActiveStorage::Blobs::RedirectController</text>
<polyline fill="none" stroke="black" points="336,-146 577,-146"/>
<text text-anchor="start" x="344" y="-128.7" font-family="Times,serif" font-size="14.00">show</text>
<polyline fill="none" stroke="black" points="336,-121.5 577,-121.5"/>
<polyline fill="none" stroke="black" points="336,-97.5 577,-97.5"/>
<text text-anchor="start" x="344" y="-80.2" font-family="Times,serif" font-size="14.00">_layout</text>
<text text-anchor="start" x="344" y="-63.7" font-family="Times,serif" font-size="14.00">_layout_from_proc</text>
</g>
<!-- ActiveStorage::DirectUploadsController -->
<g id="node14" class="node">
<title>ActiveStorage::DirectUploadsController</title>
<path fill="none" stroke="black" d="M1328,-840.5C1328,-840.5 1539,-840.5 1539,-840.5 1545,-840.5 1551,-846.5 1551,-852.5 1551,-852.5 1551,-975.5 1551,-975.5 1551,-981.5 1545,-987.5 1539,-987.5 1539,-987.5 1328,-987.5 1328,-987.5 1322,-987.5 1316,-981.5 1316,-975.5 1316,-975.5 1316,-852.5 1316,-852.5 1316,-846.5 1322,-840.5 1328,-840.5"/>
<text text-anchor="middle" x="1433.5" y="-970.2" font-family="Times,serif" font-size="14.00">ActiveStorage::DirectUploadsController</text>
<polyline fill="none" stroke="black" points="1316,-963 1551,-963"/>
<text text-anchor="start" x="1324" y="-945.7" font-family="Times,serif" font-size="14.00">create</text>
<polyline fill="none" stroke="black" points="1316,-938.5 1551,-938.5"/>
<polyline fill="none" stroke="black" points="1316,-914.5 1551,-914.5"/>
<text text-anchor="start" x="1324" y="-897.2" font-family="Times,serif" font-size="14.00">_layout</text>
<text text-anchor="start" x="1324" y="-880.7" font-family="Times,serif" font-size="14.00">_layout_from_proc</text>
<text text-anchor="start" x="1324" y="-864.2" font-family="Times,serif" font-size="14.00">blob_args</text>
<text text-anchor="start" x="1324" y="-847.7" font-family="Times,serif" font-size="14.00">direct_upload_json</text>
</g>
<!-- ActiveStorage::DiskController -->
<g id="node15" class="node">
<title>ActiveStorage::DiskController</title>
<path fill="none" stroke="black" d="M936,-1204.5C936,-1204.5 1093.75,-1204.5 1093.75,-1204.5 1099.75,-1204.5 1105.75,-1210.5 1105.75,-1216.5 1105.75,-1216.5 1105.75,-1389 1105.75,-1389 1105.75,-1395 1099.75,-1401 1093.75,-1401 1093.75,-1401 936,-1401 936,-1401 930,-1401 924,-1395 924,-1389 924,-1389 924,-1216.5 924,-1216.5 924,-1210.5 930,-1204.5 936,-1204.5"/>
<text text-anchor="middle" x="1014.88" y="-1383.7" font-family="Times,serif" font-size="14.00">ActiveStorage::DiskController</text>
<polyline fill="none" stroke="black" points="924,-1376.5 1105.75,-1376.5"/>
<text text-anchor="start" x="932" y="-1359.2" font-family="Times,serif" font-size="14.00">show</text>
<text text-anchor="start" x="932" y="-1342.7" font-family="Times,serif" font-size="14.00">update</text>
<polyline fill="none" stroke="black" points="924,-1335.5 1105.75,-1335.5"/>
<polyline fill="none" stroke="black" points="924,-1311.5 1105.75,-1311.5"/>
<text text-anchor="start" x="932" y="-1294.2" font-family="Times,serif" font-size="14.00">_layout</text>
<text text-anchor="start" x="932" y="-1277.7" font-family="Times,serif" font-size="14.00">_layout_from_proc</text>
<text text-anchor="start" x="932" y="-1261.2" font-family="Times,serif" font-size="14.00">acceptable_content?</text>
<text text-anchor="start" x="932" y="-1244.7" font-family="Times,serif" font-size="14.00">decode_verified_key</text>
<text text-anchor="start" x="932" y="-1228.2" font-family="Times,serif" font-size="14.00">decode_verified_token</text>
<text text-anchor="start" x="932" y="-1211.7" font-family="Times,serif" font-size="14.00">named_disk_service</text>
</g>
<!-- ActiveStorage::Representations::BaseController -->
<g id="node16" class="node">
<title>ActiveStorage::Representations::BaseController</title>
<path fill="none" stroke="black" d="M40,-1316.5C40,-1316.5 292.25,-1316.5 292.25,-1316.5 298.25,-1316.5 304.25,-1322.5 304.25,-1328.5 304.25,-1328.5 304.25,-1451 304.25,-1451 304.25,-1457 298.25,-1463 292.25,-1463 292.25,-1463 40,-1463 40,-1463 34,-1463 28,-1457 28,-1451 28,-1451 28,-1328.5 28,-1328.5 28,-1322.5 34,-1316.5 40,-1316.5"/>
<text text-anchor="middle" x="166.12" y="-1445.7" font-family="Times,serif" font-size="14.00">ActiveStorage::Representations::BaseController</text>
<polyline fill="none" stroke="black" points="28,-1438.5 304.25,-1438.5"/>
<polyline fill="none" stroke="black" points="28,-1414.5 304.25,-1414.5"/>
<polyline fill="none" stroke="black" points="28,-1390.5 304.25,-1390.5"/>
<text text-anchor="start" x="36" y="-1373.2" font-family="Times,serif" font-size="14.00">_layout</text>
<text text-anchor="start" x="36" y="-1356.7" font-family="Times,serif" font-size="14.00">_layout_from_proc</text>
<text text-anchor="start" x="36" y="-1340.2" font-family="Times,serif" font-size="14.00">blob_scope</text>
<text text-anchor="start" x="36" y="-1323.7" font-family="Times,serif" font-size="14.00">set_representation</text>
</g>
<!-- ActiveStorage::Representations::ProxyController -->
<g id="node17" class="node">
<title>ActiveStorage::Representations::ProxyController</title>
<path fill="none" stroke="black" d="M12,-56.5C12,-56.5 270.25,-56.5 270.25,-56.5 276.25,-56.5 282.25,-62.5 282.25,-68.5 282.25,-68.5 282.25,-158.5 282.25,-158.5 282.25,-164.5 276.25,-170.5 270.25,-170.5 270.25,-170.5 12,-170.5 12,-170.5 6,-170.5 0,-164.5 0,-158.5 0,-158.5 0,-68.5 0,-68.5 0,-62.5 6,-56.5 12,-56.5"/>
<text text-anchor="middle" x="141.12" y="-153.2" font-family="Times,serif" font-size="14.00">ActiveStorage::Representations::ProxyController</text>
<polyline fill="none" stroke="black" points="0,-146 282.25,-146"/>
<text text-anchor="start" x="8" y="-128.7" font-family="Times,serif" font-size="14.00">show</text>
<polyline fill="none" stroke="black" points="0,-121.5 282.25,-121.5"/>
<polyline fill="none" stroke="black" points="0,-97.5 282.25,-97.5"/>
<text text-anchor="start" x="8" y="-80.2" font-family="Times,serif" font-size="14.00">_layout</text>
<text text-anchor="start" x="8" y="-63.7" font-family="Times,serif" font-size="14.00">_layout_from_proc</text>
</g>
<!-- ActiveStorage::Representations::RedirectController -->
<g id="node18" class="node">
<title>ActiveStorage::Representations::RedirectController</title>
<path fill="none" stroke="black" d="M124,-392.5C124,-392.5 395.75,-392.5 395.75,-392.5 401.75,-392.5 407.75,-398.5 407.75,-404.5 407.75,-404.5 407.75,-494.5 407.75,-494.5 407.75,-500.5 401.75,-506.5 395.75,-506.5 395.75,-506.5 124,-506.5 124,-506.5 118,-506.5 112,-500.5 112,-494.5 112,-494.5 112,-404.5 112,-404.5 112,-398.5 118,-392.5 124,-392.5"/>
<text text-anchor="middle" x="259.88" y="-489.2" font-family="Times,serif" font-size="14.00">ActiveStorage::Representations::RedirectController</text>
<polyline fill="none" stroke="black" points="112,-482 407.75,-482"/>
<text text-anchor="start" x="120" y="-464.7" font-family="Times,serif" font-size="14.00">show</text>
<polyline fill="none" stroke="black" points="112,-457.5 407.75,-457.5"/>
<polyline fill="none" stroke="black" points="112,-433.5 407.75,-433.5"/>
<text text-anchor="start" x="120" y="-416.2" font-family="Times,serif" font-size="14.00">_layout</text>
<text text-anchor="start" x="120" y="-399.7" font-family="Times,serif" font-size="14.00">_layout_from_proc</text>
</g>
<!-- ActionMailbox::BaseController -->
<g id="node19" class="node">
<title>ActionMailbox::BaseController</title>
<path fill="none" stroke="black" d="M96,-728.5C96,-728.5 260.5,-728.5 260.5,-728.5 266.5,-728.5 272.5,-734.5 272.5,-740.5 272.5,-740.5 272.5,-896 272.5,-896 272.5,-902 266.5,-908 260.5,-908 260.5,-908 96,-908 96,-908 90,-908 84,-902 84,-896 84,-896 84,-740.5 84,-740.5 84,-734.5 90,-728.5 96,-728.5"/>
<text text-anchor="middle" x="178.25" y="-890.7" font-family="Times,serif" font-size="14.00">ActionMailbox::BaseController</text>
<polyline fill="none" stroke="black" points="84,-883.5 272.5,-883.5"/>
<polyline fill="none" stroke="black" points="84,-859.5 272.5,-859.5"/>
<polyline fill="none" stroke="black" points="84,-835.5 272.5,-835.5"/>
<text text-anchor="start" x="92" y="-818.2" font-family="Times,serif" font-size="14.00">_layout</text>
<text text-anchor="start" x="92" y="-801.7" font-family="Times,serif" font-size="14.00">_layout_from_proc</text>
<text text-anchor="start" x="92" y="-785.2" font-family="Times,serif" font-size="14.00">authenticate_by_password</text>
<text text-anchor="start" x="92" y="-768.7" font-family="Times,serif" font-size="14.00">ensure_configured</text>
<text text-anchor="start" x="92" y="-752.2" font-family="Times,serif" font-size="14.00">ingress_name</text>
<text text-anchor="start" x="92" y="-735.7" font-family="Times,serif" font-size="14.00">password</text>
</g>
<!-- ActionMailbox::Ingresses::Mailgun::InboundEmailsController -->
<g id="node20" class="node">
<title>ActionMailbox::Ingresses::Mailgun::InboundEmailsController</title>
<path fill="none" stroke="black" d="M992,-364.5C992,-364.5 1325.25,-364.5 1325.25,-364.5 1331.25,-364.5 1337.25,-370.5 1337.25,-376.5 1337.25,-376.5 1337.25,-532.5 1337.25,-532.5 1337.25,-538.5 1331.25,-544.5 1325.25,-544.5 1325.25,-544.5 992,-544.5 992,-544.5 986,-544.5 980,-538.5 980,-532.5 980,-532.5 980,-376.5 980,-376.5 980,-370.5 986,-364.5 992,-364.5"/>
<text text-anchor="middle" x="1158.62" y="-527.2" font-family="Times,serif" font-size="14.00">ActionMailbox::Ingresses::Mailgun::InboundEmailsController</text>
<polyline fill="none" stroke="black" points="980,-520 1337.25,-520"/>
<text text-anchor="start" x="988" y="-502.7" font-family="Times,serif" font-size="14.00">create</text>
<polyline fill="none" stroke="black" points="980,-495.5 1337.25,-495.5"/>
<polyline fill="none" stroke="black" points="980,-471.5 1337.25,-471.5"/>
<text text-anchor="start" x="988" y="-454.2" font-family="Times,serif" font-size="14.00">_layout</text>
<text text-anchor="start" x="988" y="-437.7" font-family="Times,serif" font-size="14.00">_layout_from_proc</text>
<text text-anchor="start" x="988" y="-421.2" font-family="Times,serif" font-size="14.00">authenticate</text>
<text text-anchor="start" x="988" y="-404.7" font-family="Times,serif" font-size="14.00">authenticated?</text>
<text text-anchor="start" x="988" y="-388.2" font-family="Times,serif" font-size="14.00">key</text>
<text text-anchor="start" x="988" y="-371.7" font-family="Times,serif" font-size="14.00">mail</text>
</g>
<!-- ActionMailbox::Ingresses::Mandrill::InboundEmailsController -->
<g id="node21" class="node">
<title>ActionMailbox::Ingresses::Mandrill::InboundEmailsController</title>
<path fill="none" stroke="black" d="M908,-952.5C908,-952.5 1242.75,-952.5 1242.75,-952.5 1248.75,-952.5 1254.75,-958.5 1254.75,-964.5 1254.75,-964.5 1254.75,-1153.5 1254.75,-1153.5 1254.75,-1159.5 1248.75,-1165.5 1242.75,-1165.5 1242.75,-1165.5 908,-1165.5 908,-1165.5 902,-1165.5 896,-1159.5 896,-1153.5 896,-1153.5 896,-964.5 896,-964.5 896,-958.5 902,-952.5 908,-952.5"/>
<text text-anchor="middle" x="1075.38" y="-1148.2" font-family="Times,serif" font-size="14.00">ActionMailbox::Ingresses::Mandrill::InboundEmailsController</text>
<polyline fill="none" stroke="black" points="896,-1141 1254.75,-1141"/>
<text text-anchor="start" x="904" y="-1123.7" font-family="Times,serif" font-size="14.00">create</text>
<text text-anchor="start" x="904" y="-1107.2" font-family="Times,serif" font-size="14.00">health_check</text>
<polyline fill="none" stroke="black" points="896,-1100 1254.75,-1100"/>
<polyline fill="none" stroke="black" points="896,-1076 1254.75,-1076"/>
<text text-anchor="start" x="904" y="-1058.7" font-family="Times,serif" font-size="14.00">_layout</text>
<text text-anchor="start" x="904" y="-1042.2" font-family="Times,serif" font-size="14.00">_layout_from_proc</text>
<text text-anchor="start" x="904" y="-1025.7" font-family="Times,serif" font-size="14.00">authenticate</text>
<text text-anchor="start" x="904" y="-1009.2" font-family="Times,serif" font-size="14.00">authenticated?</text>
<text text-anchor="start" x="904" y="-992.7" font-family="Times,serif" font-size="14.00">events</text>
<text text-anchor="start" x="904" y="-976.2" font-family="Times,serif" font-size="14.00">key</text>
<text text-anchor="start" x="904" y="-959.7" font-family="Times,serif" font-size="14.00">raw_emails</text>
</g>
<!-- ActionMailbox::Ingresses::Postmark::InboundEmailsController -->
<g id="node22" class="node">
<title>ActionMailbox::Ingresses::Postmark::InboundEmailsController</title>
<path fill="none" stroke="black" d="M1048,-196.5C1048,-196.5 1386.5,-196.5 1386.5,-196.5 1392.5,-196.5 1398.5,-202.5 1398.5,-208.5 1398.5,-208.5 1398.5,-298.5 1398.5,-298.5 1398.5,-304.5 1392.5,-310.5 1386.5,-310.5 1386.5,-310.5 1048,-310.5 1048,-310.5 1042,-310.5 1036,-304.5 1036,-298.5 1036,-298.5 1036,-208.5 1036,-208.5 1036,-202.5 1042,-196.5 1048,-196.5"/>
<text text-anchor="middle" x="1217.25" y="-293.2" font-family="Times,serif" font-size="14.00">ActionMailbox::Ingresses::Postmark::InboundEmailsController</text>
<polyline fill="none" stroke="black" points="1036,-286 1398.5,-286"/>
<text text-anchor="start" x="1044" y="-268.7" font-family="Times,serif" font-size="14.00">create</text>
<polyline fill="none" stroke="black" points="1036,-261.5 1398.5,-261.5"/>
<polyline fill="none" stroke="black" points="1036,-237.5 1398.5,-237.5"/>
<text text-anchor="start" x="1044" y="-220.2" font-family="Times,serif" font-size="14.00">_layout</text>
<text text-anchor="start" x="1044" y="-203.7" font-family="Times,serif" font-size="14.00">_layout_from_proc</text>
</g>
<!-- ActionMailbox::Ingresses::Relay::InboundEmailsController -->
<g id="node23" class="node">
<title>ActionMailbox::Ingresses::Relay::InboundEmailsController</title>
<path fill="none" stroke="black" d="M656,-196.5C656,-196.5 974.25,-196.5 974.25,-196.5 980.25,-196.5 986.25,-202.5 986.25,-208.5 986.25,-208.5 986.25,-315 986.25,-315 986.25,-321 980.25,-327 974.25,-327 974.25,-327 656,-327 656,-327 650,-327 644,-321 644,-315 644,-315 644,-208.5 644,-208.5 644,-202.5 650,-196.5 656,-196.5"/>
<text text-anchor="middle" x="815.12" y="-309.7" font-family="Times,serif" font-size="14.00">ActionMailbox::Ingresses::Relay::InboundEmailsController</text>
<polyline fill="none" stroke="black" points="644,-302.5 986.25,-302.5"/>
<text text-anchor="start" x="652" y="-285.2" font-family="Times,serif" font-size="14.00">create</text>
<polyline fill="none" stroke="black" points="644,-278 986.25,-278"/>
<polyline fill="none" stroke="black" points="644,-254 986.25,-254"/>
<text text-anchor="start" x="652" y="-236.7" font-family="Times,serif" font-size="14.00">_layout</text>
<text text-anchor="start" x="652" y="-220.2" font-family="Times,serif" font-size="14.00">_layout_from_proc</text>
<text text-anchor="start" x="652" y="-203.7" font-family="Times,serif" font-size="14.00">require_valid_rfc822_message</text>
</g>
<!-- ActionMailbox::Ingresses::Sendgrid::InboundEmailsController -->
<g id="node24" class="node">
<title>ActionMailbox::Ingresses::Sendgrid::InboundEmailsController</title>
<path fill="none" stroke="black" d="M1160,-1204.5C1160,-1204.5 1495.5,-1204.5 1495.5,-1204.5 1501.5,-1204.5 1507.5,-1210.5 1507.5,-1216.5 1507.5,-1216.5 1507.5,-1339.5 1507.5,-1339.5 1507.5,-1345.5 1501.5,-1351.5 1495.5,-1351.5 1495.5,-1351.5 1160,-1351.5 1160,-1351.5 1154,-1351.5 1148,-1345.5 1148,-1339.5 1148,-1339.5 1148,-1216.5 1148,-1216.5 1148,-1210.5 1154,-1204.5 1160,-1204.5"/>
<text text-anchor="middle" x="1327.75" y="-1334.2" font-family="Times,serif" font-size="14.00">ActionMailbox::Ingresses::Sendgrid::InboundEmailsController</text>
<polyline fill="none" stroke="black" points="1148,-1327 1507.5,-1327"/>
<text text-anchor="start" x="1156" y="-1309.7" font-family="Times,serif" font-size="14.00">create</text>
<polyline fill="none" stroke="black" points="1148,-1302.5 1507.5,-1302.5"/>
<polyline fill="none" stroke="black" points="1148,-1278.5 1507.5,-1278.5"/>
<text text-anchor="start" x="1156" y="-1261.2" font-family="Times,serif" font-size="14.00">_layout</text>
<text text-anchor="start" x="1156" y="-1244.7" font-family="Times,serif" font-size="14.00">_layout_from_proc</text>
<text text-anchor="start" x="1156" y="-1228.2" font-family="Times,serif" font-size="14.00">envelope</text>
<text text-anchor="start" x="1156" y="-1211.7" font-family="Times,serif" font-size="14.00">mail</text>
</g>
<!-- Rails::Conductor::ActionMailbox::InboundEmails::SourcesController -->
<g id="node25" class="node">
<title>Rails::Conductor::ActionMailbox::InboundEmails::SourcesController</title>
<path fill="none" stroke="black" d="M180,-224.5C180,-224.5 551.5,-224.5 551.5,-224.5 557.5,-224.5 563.5,-230.5 563.5,-236.5 563.5,-236.5 563.5,-326.5 563.5,-326.5 563.5,-332.5 557.5,-338.5 551.5,-338.5 551.5,-338.5 180,-338.5 180,-338.5 174,-338.5 168,-332.5 168,-326.5 168,-326.5 168,-236.5 168,-236.5 168,-230.5 174,-224.5 180,-224.5"/>
<text text-anchor="middle" x="365.75" y="-321.2" font-family="Times,serif" font-size="14.00">Rails::Conductor::ActionMailbox::InboundEmails::SourcesController</text>
<polyline fill="none" stroke="black" points="168,-314 563.5,-314"/>
<text text-anchor="start" x="176" y="-296.7" font-family="Times,serif" font-size="14.00">create</text>
<text text-anchor="start" x="176" y="-280.2" font-family="Times,serif" font-size="14.00">new</text>
<polyline fill="none" stroke="black" points="168,-273 563.5,-273"/>
<polyline fill="none" stroke="black" points="168,-249 563.5,-249"/>
<text text-anchor="start" x="176" y="-231.7" font-family="Times,serif" font-size="14.00">_layout</text>
</g>
<!-- Rails::Conductor::ActionMailbox::InboundEmailsController -->
<g id="node26" class="node">
<title>Rails::Conductor::ActionMailbox::InboundEmailsController</title>
<path fill="none" stroke="black" d="M1020,-588.5C1020,-588.5 1341.25,-588.5 1341.25,-588.5 1347.25,-588.5 1353.25,-594.5 1353.25,-600.5 1353.25,-600.5 1353.25,-773 1353.25,-773 1353.25,-779 1347.25,-785 1341.25,-785 1341.25,-785 1020,-785 1020,-785 1014,-785 1008,-779 1008,-773 1008,-773 1008,-600.5 1008,-600.5 1008,-594.5 1014,-588.5 1020,-588.5"/>
<text text-anchor="middle" x="1180.62" y="-767.7" font-family="Times,serif" font-size="14.00">Rails::Conductor::ActionMailbox::InboundEmailsController</text>
<polyline fill="none" stroke="black" points="1008,-760.5 1353.25,-760.5"/>
<text text-anchor="start" x="1016" y="-743.2" font-family="Times,serif" font-size="14.00">create</text>
<text text-anchor="start" x="1016" y="-726.7" font-family="Times,serif" font-size="14.00">index</text>
<text text-anchor="start" x="1016" y="-710.2" font-family="Times,serif" font-size="14.00">new</text>
<text text-anchor="start" x="1016" y="-693.7" font-family="Times,serif" font-size="14.00">show</text>
<polyline fill="none" stroke="black" points="1008,-686.5 1353.25,-686.5"/>
<polyline fill="none" stroke="black" points="1008,-662.5 1353.25,-662.5"/>
<text text-anchor="start" x="1016" y="-645.2" font-family="Times,serif" font-size="14.00">_layout</text>
<text text-anchor="start" x="1016" y="-628.7" font-family="Times,serif" font-size="14.00">create_inbound_email</text>
<text text-anchor="start" x="1016" y="-612.2" font-family="Times,serif" font-size="14.00">mail_params</text>
<text text-anchor="start" x="1016" y="-595.7" font-family="Times,serif" font-size="14.00">new_mail</text>
</g>
<!-- Rails::Conductor::ActionMailbox::IncineratesController -->
<g id="node27" class="node">
<title>Rails::Conductor::ActionMailbox::IncineratesController</title>
<path fill="none" stroke="black" d="M124,-952.5C124,-952.5 421.25,-952.5 421.25,-952.5 427.25,-952.5 433.25,-958.5 433.25,-964.5 433.25,-964.5 433.25,-1038 433.25,-1038 433.25,-1044 427.25,-1050 421.25,-1050 421.25,-1050 124,-1050 124,-1050 118,-1050 112,-1044 112,-1038 112,-1038 112,-964.5 112,-964.5 112,-958.5 118,-952.5 124,-952.5"/>
<text text-anchor="middle" x="272.62" y="-1032.7" font-family="Times,serif" font-size="14.00">Rails::Conductor::ActionMailbox::IncineratesController</text>
<polyline fill="none" stroke="black" points="112,-1025.5 433.25,-1025.5"/>
<text text-anchor="start" x="120" y="-1008.2" font-family="Times,serif" font-size="14.00">create</text>
<polyline fill="none" stroke="black" points="112,-1001 433.25,-1001"/>
<polyline fill="none" stroke="black" points="112,-977 433.25,-977"/>
<text text-anchor="start" x="120" y="-959.7" font-family="Times,serif" font-size="14.00">_layout</text>
</g>
<!-- Rails::Conductor::ActionMailbox::ReroutesController -->
<g id="node28" class="node">
<title>Rails::Conductor::ActionMailbox::ReroutesController</title>
<path fill="none" stroke="black" d="M12,-1148.5C12,-1148.5 298,-1148.5 298,-1148.5 304,-1148.5 310,-1154.5 310,-1160.5 310,-1160.5 310,-1250.5 310,-1250.5 310,-1256.5 304,-1262.5 298,-1262.5 298,-1262.5 12,-1262.5 12,-1262.5 6,-1262.5 0,-1256.5 0,-1250.5 0,-1250.5 0,-1160.5 0,-1160.5 0,-1154.5 6,-1148.5 12,-1148.5"/>
<text text-anchor="middle" x="155" y="-1245.2" font-family="Times,serif" font-size="14.00">Rails::Conductor::ActionMailbox::ReroutesController</text>
<polyline fill="none" stroke="black" points="0,-1238 310,-1238"/>
<text text-anchor="start" x="8" y="-1220.7" font-family="Times,serif" font-size="14.00">create</text>
<polyline fill="none" stroke="black" points="0,-1213.5 310,-1213.5"/>
<polyline fill="none" stroke="black" points="0,-1189.5 310,-1189.5"/>
<text text-anchor="start" x="8" y="-1172.2" font-family="Times,serif" font-size="14.00">_layout</text>
<text text-anchor="start" x="8" y="-1155.7" font-family="Times,serif" font-size="14.00">reroute</text>
</g>
<!-- Rails::Conductor::BaseController -->
<g id="node29" class="node">
<title>Rails::Conductor::BaseController</title>
<path fill="none" stroke="black" d="M1188,-28.5C1188,-28.5 1361.5,-28.5 1361.5,-28.5 1367.5,-28.5 1373.5,-34.5 1373.5,-40.5 1373.5,-40.5 1373.5,-146.5 1373.5,-146.5 1373.5,-152.5 1367.5,-158.5 1361.5,-158.5 1361.5,-158.5 1188,-158.5 1188,-158.5 1182,-158.5 1176,-152.5 1176,-146.5 1176,-146.5 1176,-40.5 1176,-40.5 1176,-34.5 1182,-28.5 1188,-28.5"/>
<text text-anchor="middle" x="1274.75" y="-141.2" font-family="Times,serif" font-size="14.00">Rails::Conductor::BaseController</text>
<polyline fill="none" stroke="black" points="1176,-134 1373.5,-134"/>
<polyline fill="none" stroke="black" points="1176,-110 1373.5,-110"/>
<polyline fill="none" stroke="black" points="1176,-86 1373.5,-86"/>
<text text-anchor="start" x="1184" y="-68.7" font-family="Times,serif" font-size="14.00">_layout</text>
<text text-anchor="start" x="1184" y="-52.2" font-family="Times,serif" font-size="14.00">_layout_from_proc</text>
<text text-anchor="start" x="1184" y="-35.7" font-family="Times,serif" font-size="14.00">ensure_development_env</text>
</g>
<!-- Turbo::Native::NavigationController -->
<g id="node30" class="node">
<title>Turbo::Native::NavigationController</title>
<path fill="none" stroke="black" d="M656,-0.5C656,-0.5 847.5,-0.5 847.5,-0.5 853.5,-0.5 859.5,-6.5 859.5,-12.5 859.5,-12.5 859.5,-135.5 859.5,-135.5 859.5,-141.5 853.5,-147.5 847.5,-147.5 847.5,-147.5 656,-147.5 656,-147.5 650,-147.5 644,-141.5 644,-135.5 644,-135.5 644,-12.5 644,-12.5 644,-6.5 650,-0.5 656,-0.5"/>
<text text-anchor="middle" x="751.75" y="-130.2" font-family="Times,serif" font-size="14.00">Turbo::Native::NavigationController</text>
<polyline fill="none" stroke="black" points="644,-123 859.5,-123"/>
<text text-anchor="start" x="652" y="-105.7" font-family="Times,serif" font-size="14.00">recede</text>
<text text-anchor="start" x="652" y="-89.2" font-family="Times,serif" font-size="14.00">refresh</text>
<text text-anchor="start" x="652" y="-72.7" font-family="Times,serif" font-size="14.00">resume</text>
<polyline fill="none" stroke="black" points="644,-65.5 859.5,-65.5"/>
<polyline fill="none" stroke="black" points="644,-41.5 859.5,-41.5"/>
<text text-anchor="start" x="652" y="-24.2" font-family="Times,serif" font-size="14.00">_layout</text>
<text text-anchor="start" x="652" y="-7.7" font-family="Times,serif" font-size="14.00">_layout_from_proc</text>
</g>
<!-- RailsAdmin::ApplicationController -->
<g id="node31" class="node">
<title>RailsAdmin::ApplicationController</title>
<path fill="none" stroke="black" d="M376,-1092.5C376,-1092.5 560.75,-1092.5 560.75,-1092.5 566.75,-1092.5 572.75,-1098.5 572.75,-1104.5 572.75,-1104.5 572.75,-1392.5 572.75,-1392.5 572.75,-1398.5 566.75,-1404.5 560.75,-1404.5 560.75,-1404.5 376,-1404.5 376,-1404.5 370,-1404.5 364,-1398.5 364,-1392.5 364,-1392.5 364,-1104.5 364,-1104.5 364,-1098.5 370,-1092.5 376,-1092.5"/>
<text text-anchor="middle" x="468.38" y="-1387.2" font-family="Times,serif" font-size="14.00">RailsAdmin::ApplicationController</text>
<polyline fill="none" stroke="black" points="364,-1380 572.75,-1380"/>
<text text-anchor="start" x="372" y="-1362.7" font-family="Times,serif" font-size="14.00">to_model_name</text>
<text text-anchor="start" x="372" y="-1346.2" font-family="Times,serif" font-size="14.00">abstract_model</text>
<text text-anchor="start" x="372" y="-1329.7" font-family="Times,serif" font-size="14.00">authorization_adapter</text>
<text text-anchor="start" x="372" y="-1313.2" font-family="Times,serif" font-size="14.00">get_model</text>
<text text-anchor="start" x="372" y="-1296.7" font-family="Times,serif" font-size="14.00">get_object</text>
<text text-anchor="start" x="372" y="-1280.2" font-family="Times,serif" font-size="14.00">model_config</text>
<text text-anchor="start" x="372" y="-1263.7" font-family="Times,serif" font-size="14.00">object</text>
<text text-anchor="start" x="372" y="-1247.2" font-family="Times,serif" font-size="14.00">_current_user</text>
<polyline fill="none" stroke="black" points="364,-1240 572.75,-1240"/>
<polyline fill="none" stroke="black" points="364,-1216 572.75,-1216"/>
<text text-anchor="start" x="372" y="-1198.7" font-family="Times,serif" font-size="14.00">_audit!</text>
<text text-anchor="start" x="372" y="-1182.2" font-family="Times,serif" font-size="14.00">_authenticate!</text>
<text text-anchor="start" x="372" y="-1165.7" font-family="Times,serif" font-size="14.00">_authorize!</text>
<text text-anchor="start" x="372" y="-1149.2" font-family="Times,serif" font-size="14.00">_get_plugin_name</text>
<text text-anchor="start" x="372" y="-1132.7" font-family="Times,serif" font-size="14.00">_layout</text>
<text text-anchor="start" x="372" y="-1116.2" font-family="Times,serif" font-size="14.00">_layout_from_proc</text>
<text text-anchor="start" x="372" y="-1099.7" font-family="Times,serif" font-size="14.00">rails_admin_controller?</text>
</g>
<!-- RailsAdmin::MainController -->
<g id="node32" class="node">
<title>RailsAdmin::MainController</title>
<path fill="none" stroke="black" d="M628,-1092.5C628,-1092.5 821,-1092.5 821,-1092.5 827,-1092.5 833,-1098.5 833,-1104.5 833,-1104.5 833,-1409 833,-1409 833,-1415 827,-1421 821,-1421 821,-1421 628,-1421 628,-1421 622,-1421 616,-1415 616,-1409 616,-1409 616,-1104.5 616,-1104.5 616,-1098.5 622,-1092.5 628,-1092.5"/>
<text text-anchor="middle" x="724.5" y="-1403.7" font-family="Times,serif" font-size="14.00">RailsAdmin::MainController</text>
<polyline fill="none" stroke="black" points="616,-1396.5 833,-1396.5"/>
<text text-anchor="start" x="624" y="-1379.2" font-family="Times,serif" font-size="14.00">bulk_action</text>
<text text-anchor="start" x="624" y="-1362.7" font-family="Times,serif" font-size="14.00">list_entries</text>
<polyline fill="none" stroke="black" points="616,-1355.5 833,-1355.5"/>
<polyline fill="none" stroke="black" points="616,-1331.5 833,-1331.5"/>
<text text-anchor="start" x="624" y="-1314.2" font-family="Times,serif" font-size="14.00">visible_fields</text>
<text text-anchor="start" x="624" y="-1297.7" font-family="Times,serif" font-size="14.00">_layout_from_proc</text>
<text text-anchor="start" x="624" y="-1281.2" font-family="Times,serif" font-size="14.00">action_missing</text>
<text text-anchor="start" x="624" y="-1264.7" font-family="Times,serif" font-size="14.00">back_or_index</text>
<text text-anchor="start" x="624" y="-1248.2" font-family="Times,serif" font-size="14.00">check_for_cancel</text>
<text text-anchor="start" x="624" y="-1231.7" font-family="Times,serif" font-size="14.00">get_association_scope_from_params</text>
<text text-anchor="start" x="624" y="-1215.2" font-family="Times,serif" font-size="14.00">get_collection</text>
<text text-anchor="start" x="624" y="-1198.7" font-family="Times,serif" font-size="14.00">get_sort_hash</text>
<text text-anchor="start" x="624" y="-1182.2" font-family="Times,serif" font-size="14.00">handle_save_error</text>
<text text-anchor="start" x="624" y="-1165.7" font-family="Times,serif" font-size="14.00">method_missing</text>
<text text-anchor="start" x="624" y="-1149.2" font-family="Times,serif" font-size="14.00">redirect_to_on_success</text>
<text text-anchor="start" x="624" y="-1132.7" font-family="Times,serif" font-size="14.00">respond_to_missing?</text>
<text text-anchor="start" x="624" y="-1116.2" font-family="Times,serif" font-size="14.00">sanitize_params_for!</text>
<text text-anchor="start" x="624" y="-1099.7" font-family="Times,serif" font-size="14.00">_layout</text>
</g>
<!-- GraphiQL::Rails::EditorsController -->
<g id="node33" class="node">
<title>GraphiQL::Rails::EditorsController</title>
<path fill="none" stroke="black" d="M68,-560.5C68,-560.5 252.75,-560.5 252.75,-560.5 258.75,-560.5 264.75,-566.5 264.75,-572.5 264.75,-572.5 264.75,-679 264.75,-679 264.75,-685 258.75,-691 252.75,-691 252.75,-691 68,-691 68,-691 62,-691 56,-685 56,-679 56,-679 56,-572.5 56,-572.5 56,-566.5 62,-560.5 68,-560.5"/>
<text text-anchor="middle" x="160.38" y="-673.7" font-family="Times,serif" font-size="14.00">GraphiQL::Rails::EditorsController</text>
<polyline fill="none" stroke="black" points="56,-666.5 264.75,-666.5"/>
<text text-anchor="start" x="64" y="-649.2" font-family="Times,serif" font-size="14.00">graphql_endpoint_path</text>
<text text-anchor="start" x="64" y="-632.7" font-family="Times,serif" font-size="14.00">show</text>
<polyline fill="none" stroke="black" points="56,-625.5 264.75,-625.5"/>
<polyline fill="none" stroke="black" points="56,-601.5 264.75,-601.5"/>
<text text-anchor="start" x="64" y="-584.2" font-family="Times,serif" font-size="14.00">_layout</text>
<text text-anchor="start" x="64" y="-567.7" font-family="Times,serif" font-size="14.00">_layout_from_proc</text>
</g>
</g>
</svg>
