<?xml version="1.0" encoding="UTF-8" standalone="no"?>
<!DOCTYPE svg PUBLIC "-//W3C//DTD SVG 1.1//EN"
 "http://www.w3.org/Graphics/SVG/1.1/DTD/svg11.dtd">
<!-- Generated by graphviz version 9.0.0 (20230911.1827)
 -->
<!-- Title: controllers_diagram Pages: 1 -->
<svg width="605pt" height="615pt"
 viewBox="0.00 0.00 605.00 615.00" xmlns="http://www.w3.org/2000/svg" xmlns:xlink="http://www.w3.org/1999/xlink">
<g id="graph0" class="graph" transform="scale(1 1) rotate(0) translate(4 611)">
<title>controllers_diagram</title>
<polygon fill="none" stroke="none" points="-4,4 -4,-611 601,-611 601,4 -4,4"/>
<!-- _diagram_info -->
<g id="node1" class="node">
<title>_diagram_info</title>
<text text-anchor="start" x="348" y="-406.65" font-family="Times,serif" font-size="13.00">Controllers diagram</text>
<text text-anchor="start" x="348" y="-391.65" font-family="Times,serif" font-size="13.00">Date: Mar 10 2024 &#45; 10:24</text>
<text text-anchor="start" x="348" y="-376.65" font-family="Times,serif" font-size="13.00">Migration version: 20240310011935</text>
<text text-anchor="start" x="348" y="-361.65" font-family="Times,serif" font-size="13.00">Generated by RailRoady 1.6.0</text>
<text text-anchor="start" x="348" y="-346.65" font-family="Times,serif" font-size="13.00">http://railroady.prestonlee.com</text>
</g>
<!-- ApplicationController -->
<g id="node2" class="node">
<title>ApplicationController</title>
<path fill="none" stroke="black" d="M471,-459.5C471,-459.5 582.25,-459.5 582.25,-459.5 588.25,-459.5 594.25,-465.5 594.25,-471.5 594.25,-471.5 594.25,-594.5 594.25,-594.5 594.25,-600.5 588.25,-606.5 582.25,-606.5 582.25,-606.5 471,-606.5 471,-606.5 465,-606.5 459,-600.5 459,-594.5 459,-594.5 459,-471.5 459,-471.5 459,-465.5 465,-459.5 471,-459.5"/>
<text text-anchor="middle" x="526.62" y="-589.2" font-family="Times,serif" font-size="14.00">ApplicationController</text>
<polyline fill="none" stroke="black" points="459,-582 594.25,-582"/>
<text text-anchor="start" x="467" y="-564.7" font-family="Times,serif" font-size="14.00">check_logged_in</text>
<polyline fill="none" stroke="black" points="459,-557.5 594.25,-557.5"/>
<polyline fill="none" stroke="black" points="459,-533.5 594.25,-533.5"/>
<text text-anchor="start" x="467" y="-516.2" font-family="Times,serif" font-size="14.00">_layout</text>
<text text-anchor="start" x="467" y="-499.7" font-family="Times,serif" font-size="14.00">_layout_from_proc</text>
<text text-anchor="start" x="467" y="-483.2" font-family="Times,serif" font-size="14.00">current_user</text>
<text text-anchor="start" x="467" y="-466.7" font-family="Times,serif" font-size="14.00">user_signed_in?</text>
</g>
<!-- ArticlesController -->
<g id="node3" class="node">
<title>ArticlesController</title>
<path fill="none" stroke="black" d="M182,-102.5C182,-102.5 279,-102.5 279,-102.5 285,-102.5 291,-108.5 291,-114.5 291,-114.5 291,-353 291,-353 291,-359 285,-365 279,-365 279,-365 182,-365 182,-365 176,-365 170,-359 170,-353 170,-353 170,-114.5 170,-114.5 170,-108.5 176,-102.5 182,-102.5"/>
<text text-anchor="middle" x="230.5" y="-347.7" font-family="Times,serif" font-size="14.00">ArticlesController</text>
<polyline fill="none" stroke="black" points="170,-340.5 291,-340.5"/>
<text text-anchor="start" x="178" y="-323.2" font-family="Times,serif" font-size="14.00">create</text>
<text text-anchor="start" x="178" y="-306.7" font-family="Times,serif" font-size="14.00">destroy</text>
<text text-anchor="start" x="178" y="-290.2" font-family="Times,serif" font-size="14.00">edit</text>
<text text-anchor="start" x="178" y="-273.7" font-family="Times,serif" font-size="14.00">index</text>
<text text-anchor="start" x="178" y="-257.2" font-family="Times,serif" font-size="14.00">new</text>
<text text-anchor="start" x="178" y="-240.7" font-family="Times,serif" font-size="14.00">show</text>
<text text-anchor="start" x="178" y="-224.2" font-family="Times,serif" font-size="14.00">update</text>
<polyline fill="none" stroke="black" points="170,-217 291,-217"/>
<polyline fill="none" stroke="black" points="170,-193 291,-193"/>
<text text-anchor="start" x="178" y="-175.7" font-family="Times,serif" font-size="14.00">_layout</text>
<text text-anchor="start" x="178" y="-159.2" font-family="Times,serif" font-size="14.00">_layout_from_proc</text>
<text text-anchor="start" x="178" y="-142.7" font-family="Times,serif" font-size="14.00">article_params</text>
<text text-anchor="start" x="178" y="-126.2" font-family="Times,serif" font-size="14.00">correct_user</text>
<text text-anchor="start" x="178" y="-109.7" font-family="Times,serif" font-size="14.00">set_article</text>
</g>
<!-- Auth0Controller -->
<g id="node4" class="node">
<title>Auth0Controller</title>
<path fill="none" stroke="black" d="M199,-391.5C199,-391.5 296,-391.5 296,-391.5 302,-391.5 308,-397.5 308,-403.5 308,-403.5 308,-543 308,-543 308,-549 302,-555 296,-555 296,-555 199,-555 199,-555 193,-555 187,-549 187,-543 187,-543 187,-403.5 187,-403.5 187,-397.5 193,-391.5 199,-391.5"/>
<text text-anchor="middle" x="247.5" y="-537.7" font-family="Times,serif" font-size="14.00">Auth0Controller</text>
<polyline fill="none" stroke="black" points="187,-530.5 308,-530.5"/>
<text text-anchor="start" x="195" y="-513.2" font-family="Times,serif" font-size="14.00">callback</text>
<text text-anchor="start" x="195" y="-496.7" font-family="Times,serif" font-size="14.00">failure</text>
<text text-anchor="start" x="195" y="-480.2" font-family="Times,serif" font-size="14.00">logout</text>
<polyline fill="none" stroke="black" points="187,-473 308,-473"/>
<polyline fill="none" stroke="black" points="187,-449 308,-449"/>
<text text-anchor="start" x="195" y="-431.7" font-family="Times,serif" font-size="14.00">_layout</text>
<text text-anchor="start" x="195" y="-415.2" font-family="Times,serif" font-size="14.00">_layout_from_proc</text>
<text text-anchor="start" x="195" y="-398.7" font-family="Times,serif" font-size="14.00">logout_url</text>
</g>
<!-- BookmarksController -->
<g id="node5" class="node">
<title>BookmarksController</title>
<path fill="none" stroke="black" d="M12,-272.5C12,-272.5 122.5,-272.5 122.5,-272.5 128.5,-272.5 134.5,-278.5 134.5,-284.5 134.5,-284.5 134.5,-391 134.5,-391 134.5,-397 128.5,-403 122.5,-403 122.5,-403 12,-403 12,-403 6,-403 0,-397 0,-391 0,-391 0,-284.5 0,-284.5 0,-278.5 6,-272.5 12,-272.5"/>
<text text-anchor="middle" x="67.25" y="-385.7" font-family="Times,serif" font-size="14.00">BookmarksController</text>
<polyline fill="none" stroke="black" points="0,-378.5 134.5,-378.5"/>
<text text-anchor="start" x="8" y="-361.2" font-family="Times,serif" font-size="14.00">create</text>
<text text-anchor="start" x="8" y="-344.7" font-family="Times,serif" font-size="14.00">destroy</text>
<polyline fill="none" stroke="black" points="0,-337.5 134.5,-337.5"/>
<polyline fill="none" stroke="black" points="0,-313.5 134.5,-313.5"/>
<text text-anchor="start" x="8" y="-296.2" font-family="Times,serif" font-size="14.00">_layout</text>
<text text-anchor="start" x="8" y="-279.7" font-family="Times,serif" font-size="14.00">_layout_from_proc</text>
</g>
<!-- CategoryController -->
<g id="node6" class="node">
<title>CategoryController</title>
<path fill="none" stroke="black" d="M335,-0.5C335,-0.5 432,-0.5 432,-0.5 438,-0.5 444,-6.5 444,-12.5 444,-12.5 444,-102 444,-102 444,-108 438,-114 432,-114 432,-114 335,-114 335,-114 329,-114 323,-108 323,-102 323,-102 323,-12.5 323,-12.5 323,-6.5 329,-0.5 335,-0.5"/>
<text text-anchor="middle" x="383.5" y="-96.7" font-family="Times,serif" font-size="14.00">CategoryController</text>
<polyline fill="none" stroke="black" points="323,-89.5 444,-89.5"/>
<polyline fill="none" stroke="black" points="323,-65.5 444,-65.5"/>
<polyline fill="none" stroke="black" points="323,-41.5 444,-41.5"/>
<text text-anchor="start" x="331" y="-24.2" font-family="Times,serif" font-size="14.00">_layout</text>
<text text-anchor="start" x="331" y="-7.7" font-family="Times,serif" font-size="14.00">_layout_from_proc</text>
</g>
<!-- GraphqlController -->
<g id="node7" class="node">
<title>GraphqlController</title>
<path fill="none" stroke="black" d="M335,-153.5C335,-153.5 490.5,-153.5 490.5,-153.5 496.5,-153.5 502.5,-159.5 502.5,-165.5 502.5,-165.5 502.5,-288.5 502.5,-288.5 502.5,-294.5 496.5,-300.5 490.5,-300.5 490.5,-300.5 335,-300.5 335,-300.5 329,-300.5 323,-294.5 323,-288.5 323,-288.5 323,-165.5 323,-165.5 323,-159.5 329,-153.5 335,-153.5"/>
<text text-anchor="middle" x="412.75" y="-283.2" font-family="Times,serif" font-size="14.00">GraphqlController</text>
<polyline fill="none" stroke="black" points="323,-276 502.5,-276"/>
<text text-anchor="start" x="331" y="-258.7" font-family="Times,serif" font-size="14.00">execute</text>
<polyline fill="none" stroke="black" points="323,-251.5 502.5,-251.5"/>
<polyline fill="none" stroke="black" points="323,-227.5 502.5,-227.5"/>
<text text-anchor="start" x="331" y="-210.2" font-family="Times,serif" font-size="14.00">_layout</text>
<text text-anchor="start" x="331" y="-193.7" font-family="Times,serif" font-size="14.00">_layout_from_proc</text>
<text text-anchor="start" x="331" y="-177.2" font-family="Times,serif" font-size="14.00">handle_error_in_development</text>
<text text-anchor="start" x="331" y="-160.7" font-family="Times,serif" font-size="14.00">prepare_variables</text>
</g>
<!-- HomeController -->
<g id="node8" class="node">
<title>HomeController</title>
<path fill="none" stroke="black" d="M488,-0.5C488,-0.5 585,-0.5 585,-0.5 591,-0.5 597,-6.5 597,-12.5 597,-12.5 597,-102.5 597,-102.5 597,-108.5 591,-114.5 585,-114.5 585,-114.5 488,-114.5 488,-114.5 482,-114.5 476,-108.5 476,-102.5 476,-102.5 476,-12.5 476,-12.5 476,-6.5 482,-0.5 488,-0.5"/>
<text text-anchor="middle" x="536.5" y="-97.2" font-family="Times,serif" font-size="14.00">HomeController</text>
<polyline fill="none" stroke="black" points="476,-90 597,-90"/>
<text text-anchor="start" x="484" y="-72.7" font-family="Times,serif" font-size="14.00">index</text>
<polyline fill="none" stroke="black" points="476,-65.5 597,-65.5"/>
<polyline fill="none" stroke="black" points="476,-41.5 597,-41.5"/>
<text text-anchor="start" x="484" y="-24.2" font-family="Times,serif" font-size="14.00">_layout</text>
<text text-anchor="start" x="484" y="-7.7" font-family="Times,serif" font-size="14.00">_layout_from_proc</text>
</g>
<!-- LikesController -->
<g id="node9" class="node">
<title>LikesController</title>
<path fill="none" stroke="black" d="M29,-102.5C29,-102.5 126,-102.5 126,-102.5 132,-102.5 138,-108.5 138,-114.5 138,-114.5 138,-221 138,-221 138,-227 132,-233 126,-233 126,-233 29,-233 29,-233 23,-233 17,-227 17,-221 17,-221 17,-114.5 17,-114.5 17,-108.5 23,-102.5 29,-102.5"/>
<text text-anchor="middle" x="77.5" y="-215.7" font-family="Times,serif" font-size="14.00">LikesController</text>
<polyline fill="none" stroke="black" points="17,-208.5 138,-208.5"/>
<text text-anchor="start" x="25" y="-191.2" font-family="Times,serif" font-size="14.00">create</text>
<text text-anchor="start" x="25" y="-174.7" font-family="Times,serif" font-size="14.00">destroy</text>
<polyline fill="none" stroke="black" points="17,-167.5 138,-167.5"/>
<polyline fill="none" stroke="black" points="17,-143.5 138,-143.5"/>
<text text-anchor="start" x="25" y="-126.2" font-family="Times,serif" font-size="14.00">_layout</text>
<text text-anchor="start" x="25" y="-109.7" font-family="Times,serif" font-size="14.00">_layout_from_proc</text>
</g>
<!-- UsersController -->
<g id="node10" class="node">
<title>UsersController</title>
<path fill="none" stroke="black" d="M46,-442.5C46,-442.5 143,-442.5 143,-442.5 149,-442.5 155,-448.5 155,-454.5 155,-454.5 155,-561 155,-561 155,-567 149,-573 143,-573 143,-573 46,-573 46,-573 40,-573 34,-567 34,-561 34,-561 34,-454.5 34,-454.5 34,-448.5 40,-442.5 46,-442.5"/>
<text text-anchor="middle" x="94.5" y="-555.7" font-family="Times,serif" font-size="14.00">UsersController</text>
<polyline fill="none" stroke="black" points="34,-548.5 155,-548.5"/>
<text text-anchor="start" x="42" y="-531.2" font-family="Times,serif" font-size="14.00">show</text>
<polyline fill="none" stroke="black" points="34,-524 155,-524"/>
<polyline fill="none" stroke="black" points="34,-500 155,-500"/>
<text text-anchor="start" x="42" y="-482.7" font-family="Times,serif" font-size="14.00">_layout</text>
<text text-anchor="start" x="42" y="-466.2" font-family="Times,serif" font-size="14.00">_layout_from_proc</text>
<text text-anchor="start" x="42" y="-449.7" font-family="Times,serif" font-size="14.00">correct_user</text>
</g>
</g>
</svg>
