<?xml version="1.0" encoding="UTF-8" standalone="no"?>
<!DOCTYPE svg PUBLIC "-//W3C//DTD SVG 1.1//EN"
 "http://www.w3.org/Graphics/SVG/1.1/DTD/svg11.dtd">
<!-- Generated by graphviz version 9.0.0 (20230911.1827)
 -->
<!-- Title: controllers_diagram Pages: 1 -->
<svg width="636pt" height="682pt"
 viewBox="0.00 0.00 635.50 682.00" xmlns="http://www.w3.org/2000/svg" xmlns:xlink="http://www.w3.org/1999/xlink">
<g id="graph0" class="graph" transform="scale(1 1) rotate(0) translate(4 678)">
<title>controllers_diagram</title>
<polygon fill="none" stroke="none" points="-4,4 -4,-678 631.5,-678 631.5,4 -4,4"/>
<!-- _diagram_info -->
<g id="node1" class="node">
<title>_diagram_info</title>
<text text-anchor="start" x="331" y="-151.65" font-family="Times,serif" font-size="13.00">Controllers diagram</text>
<text text-anchor="start" x="331" y="-136.65" font-family="Times,serif" font-size="13.00">Date: Sep 20 2024 &#45; 23:47</text>
<text text-anchor="start" x="331" y="-121.65" font-family="Times,serif" font-size="13.00">Migration version: 20240919133444</text>
<text text-anchor="start" x="331" y="-106.65" font-family="Times,serif" font-size="13.00">Generated by RailRoady 1.6.0</text>
<text text-anchor="start" x="331" y="-91.65" font-family="Times,serif" font-size="13.00">http://railroady.prestonlee.com</text>
</g>
<!-- ApplicantsController -->
<g id="node2" class="node">
<title>ApplicantsController</title>
<path fill="none" stroke="black" d="M335,-204.5C335,-204.5 441,-204.5 441,-204.5 447,-204.5 453,-210.5 453,-216.5 453,-216.5 453,-438.5 453,-438.5 453,-444.5 447,-450.5 441,-450.5 441,-450.5 335,-450.5 335,-450.5 329,-450.5 323,-444.5 323,-438.5 323,-438.5 323,-216.5 323,-216.5 323,-210.5 329,-204.5 335,-204.5"/>
<text text-anchor="middle" x="388" y="-433.2" font-family="Times,serif" font-size="14.00">ApplicantsController</text>
<polyline fill="none" stroke="black" points="323,-426 453,-426"/>
<text text-anchor="start" x="331" y="-408.7" font-family="Times,serif" font-size="14.00">create</text>
<text text-anchor="start" x="331" y="-392.2" font-family="Times,serif" font-size="14.00">destroy</text>
<text text-anchor="start" x="331" y="-375.7" font-family="Times,serif" font-size="14.00">edit</text>
<text text-anchor="start" x="331" y="-359.2" font-family="Times,serif" font-size="14.00">index</text>
<text text-anchor="start" x="331" y="-342.7" font-family="Times,serif" font-size="14.00">new</text>
<text text-anchor="start" x="331" y="-326.2" font-family="Times,serif" font-size="14.00">show</text>
<text text-anchor="start" x="331" y="-309.7" font-family="Times,serif" font-size="14.00">update</text>
<polyline fill="none" stroke="black" points="323,-302.5 453,-302.5"/>
<polyline fill="none" stroke="black" points="323,-278.5 453,-278.5"/>
<text text-anchor="start" x="331" y="-261.2" font-family="Times,serif" font-size="14.00">_layout</text>
<text text-anchor="start" x="331" y="-244.7" font-family="Times,serif" font-size="14.00">_layout_from_proc</text>
<text text-anchor="start" x="331" y="-228.2" font-family="Times,serif" font-size="14.00">applicant_params</text>
<text text-anchor="start" x="331" y="-211.7" font-family="Times,serif" font-size="14.00">set_applicant</text>
</g>
<!-- ApplicationController -->
<g id="node3" class="node">
<title>ApplicationController</title>
<path fill="none" stroke="black" d="M165,-442.5C165,-442.5 276.25,-442.5 276.25,-442.5 282.25,-442.5 288.25,-448.5 288.25,-454.5 288.25,-454.5 288.25,-627 288.25,-627 288.25,-633 282.25,-639 276.25,-639 276.25,-639 165,-639 165,-639 159,-639 153,-633 153,-627 153,-627 153,-454.5 153,-454.5 153,-448.5 159,-442.5 165,-442.5"/>
<text text-anchor="middle" x="220.62" y="-621.7" font-family="Times,serif" font-size="14.00">ApplicationController</text>
<polyline fill="none" stroke="black" points="153,-614.5 288.25,-614.5"/>
<text text-anchor="start" x="161" y="-597.2" font-family="Times,serif" font-size="14.00">authorize_user</text>
<text text-anchor="start" x="161" y="-580.7" font-family="Times,serif" font-size="14.00">check_logged_in</text>
<text text-anchor="start" x="161" y="-564.2" font-family="Times,serif" font-size="14.00">current_user</text>
<text text-anchor="start" x="161" y="-547.7" font-family="Times,serif" font-size="14.00">switch_locale</text>
<polyline fill="none" stroke="black" points="153,-540.5 288.25,-540.5"/>
<polyline fill="none" stroke="black" points="153,-516.5 288.25,-516.5"/>
<text text-anchor="start" x="161" y="-499.2" font-family="Times,serif" font-size="14.00">_layout</text>
<text text-anchor="start" x="161" y="-482.7" font-family="Times,serif" font-size="14.00">_layout_from_proc</text>
<text text-anchor="start" x="161" y="-466.2" font-family="Times,serif" font-size="14.00">set_locale</text>
<text text-anchor="start" x="161" y="-449.7" font-family="Times,serif" font-size="14.00">user_signed_in?</text>
</g>
<!-- ArticlesController -->
<g id="node4" class="node">
<title>ArticlesController</title>
<path fill="none" stroke="black" d="M182,-153.5C182,-153.5 279,-153.5 279,-153.5 285,-153.5 291,-159.5 291,-165.5 291,-165.5 291,-404 291,-404 291,-410 285,-416 279,-416 279,-416 182,-416 182,-416 176,-416 170,-410 170,-404 170,-404 170,-165.5 170,-165.5 170,-159.5 176,-153.5 182,-153.5"/>
<text text-anchor="middle" x="230.5" y="-398.7" font-family="Times,serif" font-size="14.00">ArticlesController</text>
<polyline fill="none" stroke="black" points="170,-391.5 291,-391.5"/>
<text text-anchor="start" x="178" y="-374.2" font-family="Times,serif" font-size="14.00">create</text>
<text text-anchor="start" x="178" y="-357.7" font-family="Times,serif" font-size="14.00">destroy</text>
<text text-anchor="start" x="178" y="-341.2" font-family="Times,serif" font-size="14.00">edit</text>
<text text-anchor="start" x="178" y="-324.7" font-family="Times,serif" font-size="14.00">index</text>
<text text-anchor="start" x="178" y="-308.2" font-family="Times,serif" font-size="14.00">new</text>
<text text-anchor="start" x="178" y="-291.7" font-family="Times,serif" font-size="14.00">show</text>
<text text-anchor="start" x="178" y="-275.2" font-family="Times,serif" font-size="14.00">update</text>
<polyline fill="none" stroke="black" points="170,-268 291,-268"/>
<polyline fill="none" stroke="black" points="170,-244 291,-244"/>
<text text-anchor="start" x="178" y="-226.7" font-family="Times,serif" font-size="14.00">_layout</text>
<text text-anchor="start" x="178" y="-210.2" font-family="Times,serif" font-size="14.00">_layout_from_proc</text>
<text text-anchor="start" x="178" y="-193.7" font-family="Times,serif" font-size="14.00">article_params</text>
<text text-anchor="start" x="178" y="-177.2" font-family="Times,serif" font-size="14.00">correct_user</text>
<text text-anchor="start" x="178" y="-160.7" font-family="Times,serif" font-size="14.00">set_article</text>
</g>
<!-- Auth0Controller -->
<g id="node5" class="node">
<title>Auth0Controller</title>
<path fill="none" stroke="black" d="M29,-238.5C29,-238.5 126,-238.5 126,-238.5 132,-238.5 138,-244.5 138,-250.5 138,-250.5 138,-390 138,-390 138,-396 132,-402 126,-402 126,-402 29,-402 29,-402 23,-402 17,-396 17,-390 17,-390 17,-250.5 17,-250.5 17,-244.5 23,-238.5 29,-238.5"/>
<text text-anchor="middle" x="77.5" y="-384.7" font-family="Times,serif" font-size="14.00">Auth0Controller</text>
<polyline fill="none" stroke="black" points="17,-377.5 138,-377.5"/>
<text text-anchor="start" x="25" y="-360.2" font-family="Times,serif" font-size="14.00">callback</text>
<text text-anchor="start" x="25" y="-343.7" font-family="Times,serif" font-size="14.00">failure</text>
<text text-anchor="start" x="25" y="-327.2" font-family="Times,serif" font-size="14.00">logout</text>
<polyline fill="none" stroke="black" points="17,-320 138,-320"/>
<polyline fill="none" stroke="black" points="17,-296 138,-296"/>
<text text-anchor="start" x="25" y="-278.7" font-family="Times,serif" font-size="14.00">_layout</text>
<text text-anchor="start" x="25" y="-262.2" font-family="Times,serif" font-size="14.00">_layout_from_proc</text>
<text text-anchor="start" x="25" y="-245.7" font-family="Times,serif" font-size="14.00">logout_url</text>
</g>
<!-- BookmarksController -->
<g id="node6" class="node">
<title>BookmarksController</title>
<path fill="none" stroke="black" d="M505,-204.5C505,-204.5 615.5,-204.5 615.5,-204.5 621.5,-204.5 627.5,-210.5 627.5,-216.5 627.5,-216.5 627.5,-323 627.5,-323 627.5,-329 621.5,-335 615.5,-335 615.5,-335 505,-335 505,-335 499,-335 493,-329 493,-323 493,-323 493,-216.5 493,-216.5 493,-210.5 499,-204.5 505,-204.5"/>
<text text-anchor="middle" x="560.25" y="-317.7" font-family="Times,serif" font-size="14.00">BookmarksController</text>
<polyline fill="none" stroke="black" points="493,-310.5 627.5,-310.5"/>
<text text-anchor="start" x="501" y="-293.2" font-family="Times,serif" font-size="14.00">create</text>
<text text-anchor="start" x="501" y="-276.7" font-family="Times,serif" font-size="14.00">destroy</text>
<polyline fill="none" stroke="black" points="493,-269.5 627.5,-269.5"/>
<polyline fill="none" stroke="black" points="493,-245.5 627.5,-245.5"/>
<text text-anchor="start" x="501" y="-228.2" font-family="Times,serif" font-size="14.00">_layout</text>
<text text-anchor="start" x="501" y="-211.7" font-family="Times,serif" font-size="14.00">_layout_from_proc</text>
</g>
<!-- CategoryController -->
<g id="node7" class="node">
<title>CategoryController</title>
<path fill="none" stroke="black" d="M182,-0.5C182,-0.5 279,-0.5 279,-0.5 285,-0.5 291,-6.5 291,-12.5 291,-12.5 291,-102 291,-102 291,-108 285,-114 279,-114 279,-114 182,-114 182,-114 176,-114 170,-108 170,-102 170,-102 170,-12.5 170,-12.5 170,-6.5 176,-0.5 182,-0.5"/>
<text text-anchor="middle" x="230.5" y="-96.7" font-family="Times,serif" font-size="14.00">CategoryController</text>
<polyline fill="none" stroke="black" points="170,-89.5 291,-89.5"/>
<polyline fill="none" stroke="black" points="170,-65.5 291,-65.5"/>
<polyline fill="none" stroke="black" points="170,-41.5 291,-41.5"/>
<text text-anchor="start" x="178" y="-24.2" font-family="Times,serif" font-size="14.00">_layout</text>
<text text-anchor="start" x="178" y="-7.7" font-family="Times,serif" font-size="14.00">_layout_from_proc</text>
</g>
<!-- LikesController -->
<g id="node8" class="node">
<title>LikesController</title>
<path fill="none" stroke="black" d="M29,-68.5C29,-68.5 126,-68.5 126,-68.5 132,-68.5 138,-74.5 138,-80.5 138,-80.5 138,-187 138,-187 138,-193 132,-199 126,-199 126,-199 29,-199 29,-199 23,-199 17,-193 17,-187 17,-187 17,-80.5 17,-80.5 17,-74.5 23,-68.5 29,-68.5"/>
<text text-anchor="middle" x="77.5" y="-181.7" font-family="Times,serif" font-size="14.00">LikesController</text>
<polyline fill="none" stroke="black" points="17,-174.5 138,-174.5"/>
<text text-anchor="start" x="25" y="-157.2" font-family="Times,serif" font-size="14.00">create</text>
<text text-anchor="start" x="25" y="-140.7" font-family="Times,serif" font-size="14.00">destroy</text>
<polyline fill="none" stroke="black" points="17,-133.5 138,-133.5"/>
<polyline fill="none" stroke="black" points="17,-109.5 138,-109.5"/>
<text text-anchor="start" x="25" y="-92.2" font-family="Times,serif" font-size="14.00">_layout</text>
<text text-anchor="start" x="25" y="-75.7" font-family="Times,serif" font-size="14.00">_layout_from_proc</text>
</g>
<!-- OpenAiController -->
<g id="node9" class="node">
<title>OpenAiController</title>
<path fill="none" stroke="black" d="M12,-527.5C12,-527.5 109,-527.5 109,-527.5 115,-527.5 121,-533.5 121,-539.5 121,-539.5 121,-646 121,-646 121,-652 115,-658 109,-658 109,-658 12,-658 12,-658 6,-658 0,-652 0,-646 0,-646 0,-539.5 0,-539.5 0,-533.5 6,-527.5 12,-527.5"/>
<text text-anchor="middle" x="60.5" y="-640.7" font-family="Times,serif" font-size="14.00">OpenAiController</text>
<polyline fill="none" stroke="black" points="0,-633.5 121,-633.5"/>
<text text-anchor="start" x="8" y="-616.2" font-family="Times,serif" font-size="14.00">index</text>
<text text-anchor="start" x="8" y="-599.7" font-family="Times,serif" font-size="14.00">submit</text>
<polyline fill="none" stroke="black" points="0,-592.5 121,-592.5"/>
<polyline fill="none" stroke="black" points="0,-568.5 121,-568.5"/>
<text text-anchor="start" x="8" y="-551.2" font-family="Times,serif" font-size="14.00">_layout</text>
<text text-anchor="start" x="8" y="-534.7" font-family="Times,serif" font-size="14.00">_layout_from_proc</text>
</g>
<!-- UsersController -->
<g id="node10" class="node">
<title>UsersController</title>
<path fill="none" stroke="black" d="M454,-493.5C454,-493.5 551,-493.5 551,-493.5 557,-493.5 563,-499.5 563,-505.5 563,-505.5 563,-661.5 563,-661.5 563,-667.5 557,-673.5 551,-673.5 551,-673.5 454,-673.5 454,-673.5 448,-673.5 442,-667.5 442,-661.5 442,-661.5 442,-505.5 442,-505.5 442,-499.5 448,-493.5 454,-493.5"/>
<text text-anchor="middle" x="502.5" y="-656.2" font-family="Times,serif" font-size="14.00">UsersController</text>
<polyline fill="none" stroke="black" points="442,-649 563,-649"/>
<text text-anchor="start" x="450" y="-631.7" font-family="Times,serif" font-size="14.00">edit</text>
<text text-anchor="start" x="450" y="-615.2" font-family="Times,serif" font-size="14.00">show</text>
<text text-anchor="start" x="450" y="-598.7" font-family="Times,serif" font-size="14.00">update</text>
<polyline fill="none" stroke="black" points="442,-591.5 563,-591.5"/>
<polyline fill="none" stroke="black" points="442,-567.5 563,-567.5"/>
<text text-anchor="start" x="450" y="-550.2" font-family="Times,serif" font-size="14.00">_layout</text>
<text text-anchor="start" x="450" y="-533.7" font-family="Times,serif" font-size="14.00">_layout_from_proc</text>
<text text-anchor="start" x="450" y="-517.2" font-family="Times,serif" font-size="14.00">analyze_resume</text>
<text text-anchor="start" x="450" y="-500.7" font-family="Times,serif" font-size="14.00">user_params</text>
</g>
</g>
</svg>
