<?xml version="1.0" encoding="UTF-8" standalone="no"?>
<!DOCTYPE svg PUBLIC "-//W3C//DTD SVG 1.1//EN"
 "http://www.w3.org/Graphics/SVG/1.1/DTD/svg11.dtd">
<!-- Generated by graphviz version 9.0.0 (20230911.1827)
 -->
<!-- Title: controllers_diagram Pages: 1 -->
<svg width="721pt" height="700pt"
 viewBox="0.00 0.00 720.50 699.50" xmlns="http://www.w3.org/2000/svg" xmlns:xlink="http://www.w3.org/1999/xlink">
<g id="graph0" class="graph" transform="scale(1 1) rotate(0) translate(4 695.5)">
<title>controllers_diagram</title>
<polygon fill="none" stroke="none" points="-4,4 -4,-695.5 716.5,-695.5 716.5,4 -4,4"/>
<!-- _diagram_info -->
<g id="node1" class="node">
<title>_diagram_info</title>
<text text-anchor="start" x="416" y="-185.65" font-family="Times,serif" font-size="13.00">Controllers diagram</text>
<text text-anchor="start" x="416" y="-170.65" font-family="Times,serif" font-size="13.00">Date: Aug 31 2024 &#45; 16:24</text>
<text text-anchor="start" x="416" y="-155.65" font-family="Times,serif" font-size="13.00">Migration version: 20240831070834</text>
<text text-anchor="start" x="416" y="-140.65" font-family="Times,serif" font-size="13.00">Generated by RailRoady 1.6.0</text>
<text text-anchor="start" x="416" y="-125.65" font-family="Times,serif" font-size="13.00">http://railroady.prestonlee.com</text>
</g>
<!-- ApplicantsController -->
<g id="node2" class="node">
<title>ApplicantsController</title>
<path fill="none" stroke="black" d="M420,-238.5C420,-238.5 526,-238.5 526,-238.5 532,-238.5 538,-244.5 538,-250.5 538,-250.5 538,-489 538,-489 538,-495 532,-501 526,-501 526,-501 420,-501 420,-501 414,-501 408,-495 408,-489 408,-489 408,-250.5 408,-250.5 408,-244.5 414,-238.5 420,-238.5"/>
<text text-anchor="middle" x="473" y="-483.7" font-family="Times,serif" font-size="14.00">ApplicantsController</text>
<polyline fill="none" stroke="black" points="408,-476.5 538,-476.5"/>
<text text-anchor="start" x="416" y="-459.2" font-family="Times,serif" font-size="14.00">create</text>
<text text-anchor="start" x="416" y="-442.7" font-family="Times,serif" font-size="14.00">destroy</text>
<text text-anchor="start" x="416" y="-426.2" font-family="Times,serif" font-size="14.00">edit</text>
<text text-anchor="start" x="416" y="-409.7" font-family="Times,serif" font-size="14.00">index</text>
<text text-anchor="start" x="416" y="-393.2" font-family="Times,serif" font-size="14.00">new</text>
<text text-anchor="start" x="416" y="-376.7" font-family="Times,serif" font-size="14.00">show</text>
<text text-anchor="start" x="416" y="-360.2" font-family="Times,serif" font-size="14.00">update</text>
<polyline fill="none" stroke="black" points="408,-353 538,-353"/>
<polyline fill="none" stroke="black" points="408,-329 538,-329"/>
<text text-anchor="start" x="416" y="-311.7" font-family="Times,serif" font-size="14.00">_layout</text>
<text text-anchor="start" x="416" y="-295.2" font-family="Times,serif" font-size="14.00">_layout_from_proc</text>
<text text-anchor="start" x="416" y="-278.7" font-family="Times,serif" font-size="14.00">analyze_resume</text>
<text text-anchor="start" x="416" y="-262.2" font-family="Times,serif" font-size="14.00">applicant_params</text>
<text text-anchor="start" x="416" y="-245.7" font-family="Times,serif" font-size="14.00">set_applicant</text>
</g>
<!-- ApplicationController -->
<g id="node3" class="node">
<title>ApplicationController</title>
<path fill="none" stroke="black" d="M539,-527.5C539,-527.5 650.25,-527.5 650.25,-527.5 656.25,-527.5 662.25,-533.5 662.25,-539.5 662.25,-539.5 662.25,-679 662.25,-679 662.25,-685 656.25,-691 650.25,-691 650.25,-691 539,-691 539,-691 533,-691 527,-685 527,-679 527,-679 527,-539.5 527,-539.5 527,-533.5 533,-527.5 539,-527.5"/>
<text text-anchor="middle" x="594.62" y="-673.7" font-family="Times,serif" font-size="14.00">ApplicationController</text>
<polyline fill="none" stroke="black" points="527,-666.5 662.25,-666.5"/>
<text text-anchor="start" x="535" y="-649.2" font-family="Times,serif" font-size="14.00">authorize_user</text>
<text text-anchor="start" x="535" y="-632.7" font-family="Times,serif" font-size="14.00">check_logged_in</text>
<text text-anchor="start" x="535" y="-616.2" font-family="Times,serif" font-size="14.00">current_user</text>
<polyline fill="none" stroke="black" points="527,-609 662.25,-609"/>
<polyline fill="none" stroke="black" points="527,-585 662.25,-585"/>
<text text-anchor="start" x="535" y="-567.7" font-family="Times,serif" font-size="14.00">_layout</text>
<text text-anchor="start" x="535" y="-551.2" font-family="Times,serif" font-size="14.00">_layout_from_proc</text>
<text text-anchor="start" x="535" y="-534.7" font-family="Times,serif" font-size="14.00">user_signed_in?</text>
</g>
<!-- ArticlesController -->
<g id="node4" class="node">
<title>ArticlesController</title>
<path fill="none" stroke="black" d="M267,-187.5C267,-187.5 364,-187.5 364,-187.5 370,-187.5 376,-193.5 376,-199.5 376,-199.5 376,-438 376,-438 376,-444 370,-450 364,-450 364,-450 267,-450 267,-450 261,-450 255,-444 255,-438 255,-438 255,-199.5 255,-199.5 255,-193.5 261,-187.5 267,-187.5"/>
<text text-anchor="middle" x="315.5" y="-432.7" font-family="Times,serif" font-size="14.00">ArticlesController</text>
<polyline fill="none" stroke="black" points="255,-425.5 376,-425.5"/>
<text text-anchor="start" x="263" y="-408.2" font-family="Times,serif" font-size="14.00">create</text>
<text text-anchor="start" x="263" y="-391.7" font-family="Times,serif" font-size="14.00">destroy</text>
<text text-anchor="start" x="263" y="-375.2" font-family="Times,serif" font-size="14.00">edit</text>
<text text-anchor="start" x="263" y="-358.7" font-family="Times,serif" font-size="14.00">index</text>
<text text-anchor="start" x="263" y="-342.2" font-family="Times,serif" font-size="14.00">new</text>
<text text-anchor="start" x="263" y="-325.7" font-family="Times,serif" font-size="14.00">show</text>
<text text-anchor="start" x="263" y="-309.2" font-family="Times,serif" font-size="14.00">update</text>
<polyline fill="none" stroke="black" points="255,-302 376,-302"/>
<polyline fill="none" stroke="black" points="255,-278 376,-278"/>
<text text-anchor="start" x="263" y="-260.7" font-family="Times,serif" font-size="14.00">_layout</text>
<text text-anchor="start" x="263" y="-244.2" font-family="Times,serif" font-size="14.00">_layout_from_proc</text>
<text text-anchor="start" x="263" y="-227.7" font-family="Times,serif" font-size="14.00">article_params</text>
<text text-anchor="start" x="263" y="-211.2" font-family="Times,serif" font-size="14.00">correct_user</text>
<text text-anchor="start" x="263" y="-194.7" font-family="Times,serif" font-size="14.00">set_article</text>
</g>
<!-- Auth0Controller -->
<g id="node5" class="node">
<title>Auth0Controller</title>
<path fill="none" stroke="black" d="M267,-476.5C267,-476.5 364,-476.5 364,-476.5 370,-476.5 376,-482.5 376,-488.5 376,-488.5 376,-628 376,-628 376,-634 370,-640 364,-640 364,-640 267,-640 267,-640 261,-640 255,-634 255,-628 255,-628 255,-488.5 255,-488.5 255,-482.5 261,-476.5 267,-476.5"/>
<text text-anchor="middle" x="315.5" y="-622.7" font-family="Times,serif" font-size="14.00">Auth0Controller</text>
<polyline fill="none" stroke="black" points="255,-615.5 376,-615.5"/>
<text text-anchor="start" x="263" y="-598.2" font-family="Times,serif" font-size="14.00">callback</text>
<text text-anchor="start" x="263" y="-581.7" font-family="Times,serif" font-size="14.00">failure</text>
<text text-anchor="start" x="263" y="-565.2" font-family="Times,serif" font-size="14.00">logout</text>
<polyline fill="none" stroke="black" points="255,-558 376,-558"/>
<polyline fill="none" stroke="black" points="255,-534 376,-534"/>
<text text-anchor="start" x="263" y="-516.7" font-family="Times,serif" font-size="14.00">_layout</text>
<text text-anchor="start" x="263" y="-500.2" font-family="Times,serif" font-size="14.00">_layout_from_proc</text>
<text text-anchor="start" x="263" y="-483.7" font-family="Times,serif" font-size="14.00">logout_url</text>
</g>
<!-- BookmarksController -->
<g id="node6" class="node">
<title>BookmarksController</title>
<path fill="none" stroke="black" d="M590,-238.5C590,-238.5 700.5,-238.5 700.5,-238.5 706.5,-238.5 712.5,-244.5 712.5,-250.5 712.5,-250.5 712.5,-357 712.5,-357 712.5,-363 706.5,-369 700.5,-369 700.5,-369 590,-369 590,-369 584,-369 578,-363 578,-357 578,-357 578,-250.5 578,-250.5 578,-244.5 584,-238.5 590,-238.5"/>
<text text-anchor="middle" x="645.25" y="-351.7" font-family="Times,serif" font-size="14.00">BookmarksController</text>
<polyline fill="none" stroke="black" points="578,-344.5 712.5,-344.5"/>
<text text-anchor="start" x="586" y="-327.2" font-family="Times,serif" font-size="14.00">create</text>
<text text-anchor="start" x="586" y="-310.7" font-family="Times,serif" font-size="14.00">destroy</text>
<polyline fill="none" stroke="black" points="578,-303.5 712.5,-303.5"/>
<polyline fill="none" stroke="black" points="578,-279.5 712.5,-279.5"/>
<text text-anchor="start" x="586" y="-262.2" font-family="Times,serif" font-size="14.00">_layout</text>
<text text-anchor="start" x="586" y="-245.7" font-family="Times,serif" font-size="14.00">_layout_from_proc</text>
</g>
<!-- CategoryController -->
<g id="node7" class="node">
<title>CategoryController</title>
<path fill="none" stroke="black" d="M267,-34.5C267,-34.5 364,-34.5 364,-34.5 370,-34.5 376,-40.5 376,-46.5 376,-46.5 376,-136 376,-136 376,-142 370,-148 364,-148 364,-148 267,-148 267,-148 261,-148 255,-142 255,-136 255,-136 255,-46.5 255,-46.5 255,-40.5 261,-34.5 267,-34.5"/>
<text text-anchor="middle" x="315.5" y="-130.7" font-family="Times,serif" font-size="14.00">CategoryController</text>
<polyline fill="none" stroke="black" points="255,-123.5 376,-123.5"/>
<polyline fill="none" stroke="black" points="255,-99.5 376,-99.5"/>
<polyline fill="none" stroke="black" points="255,-75.5 376,-75.5"/>
<text text-anchor="start" x="263" y="-58.2" font-family="Times,serif" font-size="14.00">_layout</text>
<text text-anchor="start" x="263" y="-41.7" font-family="Times,serif" font-size="14.00">_layout_from_proc</text>
</g>
<!-- HomeController -->
<g id="node8" class="node">
<title>HomeController</title>
<path fill="none" stroke="black" d="M12,-0.5C12,-0.5 109,-0.5 109,-0.5 115,-0.5 121,-6.5 121,-12.5 121,-12.5 121,-102.5 121,-102.5 121,-108.5 115,-114.5 109,-114.5 109,-114.5 12,-114.5 12,-114.5 6,-114.5 0,-108.5 0,-102.5 0,-102.5 0,-12.5 0,-12.5 0,-6.5 6,-0.5 12,-0.5"/>
<text text-anchor="middle" x="60.5" y="-97.2" font-family="Times,serif" font-size="14.00">HomeController</text>
<polyline fill="none" stroke="black" points="0,-90 121,-90"/>
<text text-anchor="start" x="8" y="-72.7" font-family="Times,serif" font-size="14.00">index</text>
<polyline fill="none" stroke="black" points="0,-65.5 121,-65.5"/>
<polyline fill="none" stroke="black" points="0,-41.5 121,-41.5"/>
<text text-anchor="start" x="8" y="-24.2" font-family="Times,serif" font-size="14.00">_layout</text>
<text text-anchor="start" x="8" y="-7.7" font-family="Times,serif" font-size="14.00">_layout_from_proc</text>
</g>
<!-- LikesController -->
<g id="node9" class="node">
<title>LikesController</title>
<path fill="none" stroke="black" d="M114,-153.5C114,-153.5 211,-153.5 211,-153.5 217,-153.5 223,-159.5 223,-165.5 223,-165.5 223,-272 223,-272 223,-278 217,-284 211,-284 211,-284 114,-284 114,-284 108,-284 102,-278 102,-272 102,-272 102,-165.5 102,-165.5 102,-159.5 108,-153.5 114,-153.5"/>
<text text-anchor="middle" x="162.5" y="-266.7" font-family="Times,serif" font-size="14.00">LikesController</text>
<polyline fill="none" stroke="black" points="102,-259.5 223,-259.5"/>
<text text-anchor="start" x="110" y="-242.2" font-family="Times,serif" font-size="14.00">create</text>
<text text-anchor="start" x="110" y="-225.7" font-family="Times,serif" font-size="14.00">destroy</text>
<polyline fill="none" stroke="black" points="102,-218.5 223,-218.5"/>
<polyline fill="none" stroke="black" points="102,-194.5 223,-194.5"/>
<text text-anchor="start" x="110" y="-177.2" font-family="Times,serif" font-size="14.00">_layout</text>
<text text-anchor="start" x="110" y="-160.7" font-family="Times,serif" font-size="14.00">_layout_from_proc</text>
</g>
<!-- OpenAiController -->
<g id="node10" class="node">
<title>OpenAiController</title>
<path fill="none" stroke="black" d="M114,-544.5C114,-544.5 211,-544.5 211,-544.5 217,-544.5 223,-550.5 223,-556.5 223,-556.5 223,-663 223,-663 223,-669 217,-675 211,-675 211,-675 114,-675 114,-675 108,-675 102,-669 102,-663 102,-663 102,-556.5 102,-556.5 102,-550.5 108,-544.5 114,-544.5"/>
<text text-anchor="middle" x="162.5" y="-657.7" font-family="Times,serif" font-size="14.00">OpenAiController</text>
<polyline fill="none" stroke="black" points="102,-650.5 223,-650.5"/>
<text text-anchor="start" x="110" y="-633.2" font-family="Times,serif" font-size="14.00">index</text>
<text text-anchor="start" x="110" y="-616.7" font-family="Times,serif" font-size="14.00">submit</text>
<polyline fill="none" stroke="black" points="102,-609.5 223,-609.5"/>
<polyline fill="none" stroke="black" points="102,-585.5 223,-585.5"/>
<text text-anchor="start" x="110" y="-568.2" font-family="Times,serif" font-size="14.00">_layout</text>
<text text-anchor="start" x="110" y="-551.7" font-family="Times,serif" font-size="14.00">_layout_from_proc</text>
</g>
<!-- UsersController -->
<g id="node11" class="node">
<title>UsersController</title>
<path fill="none" stroke="black" d="M114,-323.5C114,-323.5 211,-323.5 211,-323.5 217,-323.5 223,-329.5 223,-335.5 223,-335.5 223,-475 223,-475 223,-481 217,-487 211,-487 211,-487 114,-487 114,-487 108,-487 102,-481 102,-475 102,-475 102,-335.5 102,-335.5 102,-329.5 108,-323.5 114,-323.5"/>
<text text-anchor="middle" x="162.5" y="-469.7" font-family="Times,serif" font-size="14.00">UsersController</text>
<polyline fill="none" stroke="black" points="102,-462.5 223,-462.5"/>
<text text-anchor="start" x="110" y="-445.2" font-family="Times,serif" font-size="14.00">edit</text>
<text text-anchor="start" x="110" y="-428.7" font-family="Times,serif" font-size="14.00">show</text>
<text text-anchor="start" x="110" y="-412.2" font-family="Times,serif" font-size="14.00">update</text>
<polyline fill="none" stroke="black" points="102,-405 223,-405"/>
<polyline fill="none" stroke="black" points="102,-381 223,-381"/>
<text text-anchor="start" x="110" y="-363.7" font-family="Times,serif" font-size="14.00">_layout</text>
<text text-anchor="start" x="110" y="-347.2" font-family="Times,serif" font-size="14.00">_layout_from_proc</text>
<text text-anchor="start" x="110" y="-330.7" font-family="Times,serif" font-size="14.00">user_params</text>
</g>
</g>
</svg>
