<?xml version="1.0" encoding="UTF-8" standalone="no"?>
<!DOCTYPE svg PUBLIC "-//W3C//DTD SVG 1.1//EN"
 "http://www.w3.org/Graphics/SVG/1.1/DTD/svg11.dtd">
<!-- Generated by graphviz version 9.0.0 (20230911.1827)
 -->
<!-- Title: controllers_diagram Pages: 1 -->
<svg width="758pt" height="769pt"
 viewBox="0.00 0.00 758.00 768.50" xmlns="http://www.w3.org/2000/svg" xmlns:xlink="http://www.w3.org/1999/xlink">
<g id="graph0" class="graph" transform="scale(1 1) rotate(0) translate(4 764.5)">
<title>controllers_diagram</title>
<polygon fill="none" stroke="none" points="-4,4 -4,-764.5 754,-764.5 754,4 -4,4"/>
<!-- _diagram_info -->
<g id="node1" class="node">
<title>_diagram_info</title>
<text text-anchor="start" x="382" y="-202.65" font-family="Times,serif" font-size="13.00">Controllers diagram</text>
<text text-anchor="start" x="382" y="-187.65" font-family="Times,serif" font-size="13.00">Date: Apr 19 2024 &#45; 09:05</text>
<text text-anchor="start" x="382" y="-172.65" font-family="Times,serif" font-size="13.00">Migration version: 20240418141757</text>
<text text-anchor="start" x="382" y="-157.65" font-family="Times,serif" font-size="13.00">Generated by RailRoady 1.6.0</text>
<text text-anchor="start" x="382" y="-142.65" font-family="Times,serif" font-size="13.00">http://railroady.prestonlee.com</text>
</g>
<!-- ApplicantsController -->
<g id="node2" class="node">
<title>ApplicantsController</title>
<path fill="none" stroke="black" d="M386,-255.5C386,-255.5 492,-255.5 492,-255.5 498,-255.5 504,-261.5 504,-267.5 504,-267.5 504,-489.5 504,-489.5 504,-495.5 498,-501.5 492,-501.5 492,-501.5 386,-501.5 386,-501.5 380,-501.5 374,-495.5 374,-489.5 374,-489.5 374,-267.5 374,-267.5 374,-261.5 380,-255.5 386,-255.5"/>
<text text-anchor="middle" x="439" y="-484.2" font-family="Times,serif" font-size="14.00">ApplicantsController</text>
<polyline fill="none" stroke="black" points="374,-477 504,-477"/>
<text text-anchor="start" x="382" y="-459.7" font-family="Times,serif" font-size="14.00">create</text>
<text text-anchor="start" x="382" y="-443.2" font-family="Times,serif" font-size="14.00">destroy</text>
<text text-anchor="start" x="382" y="-426.7" font-family="Times,serif" font-size="14.00">edit</text>
<text text-anchor="start" x="382" y="-410.2" font-family="Times,serif" font-size="14.00">index</text>
<text text-anchor="start" x="382" y="-393.7" font-family="Times,serif" font-size="14.00">new</text>
<text text-anchor="start" x="382" y="-377.2" font-family="Times,serif" font-size="14.00">show</text>
<text text-anchor="start" x="382" y="-360.7" font-family="Times,serif" font-size="14.00">update</text>
<polyline fill="none" stroke="black" points="374,-353.5 504,-353.5"/>
<polyline fill="none" stroke="black" points="374,-329.5 504,-329.5"/>
<text text-anchor="start" x="382" y="-312.2" font-family="Times,serif" font-size="14.00">_layout</text>
<text text-anchor="start" x="382" y="-295.7" font-family="Times,serif" font-size="14.00">_layout_from_proc</text>
<text text-anchor="start" x="382" y="-279.2" font-family="Times,serif" font-size="14.00">applicant_params</text>
<text text-anchor="start" x="382" y="-262.7" font-family="Times,serif" font-size="14.00">set_applicant</text>
</g>
<!-- ApplicationController -->
<g id="node3" class="node">
<title>ApplicationController</title>
<path fill="none" stroke="black" d="M63,-306.5C63,-306.5 174.25,-306.5 174.25,-306.5 180.25,-306.5 186.25,-312.5 186.25,-318.5 186.25,-318.5 186.25,-441.5 186.25,-441.5 186.25,-447.5 180.25,-453.5 174.25,-453.5 174.25,-453.5 63,-453.5 63,-453.5 57,-453.5 51,-447.5 51,-441.5 51,-441.5 51,-318.5 51,-318.5 51,-312.5 57,-306.5 63,-306.5"/>
<text text-anchor="middle" x="118.62" y="-436.2" font-family="Times,serif" font-size="14.00">ApplicationController</text>
<polyline fill="none" stroke="black" points="51,-429 186.25,-429"/>
<text text-anchor="start" x="59" y="-411.7" font-family="Times,serif" font-size="14.00">check_logged_in</text>
<polyline fill="none" stroke="black" points="51,-404.5 186.25,-404.5"/>
<polyline fill="none" stroke="black" points="51,-380.5 186.25,-380.5"/>
<text text-anchor="start" x="59" y="-363.2" font-family="Times,serif" font-size="14.00">_layout</text>
<text text-anchor="start" x="59" y="-346.7" font-family="Times,serif" font-size="14.00">_layout_from_proc</text>
<text text-anchor="start" x="59" y="-330.2" font-family="Times,serif" font-size="14.00">current_user</text>
<text text-anchor="start" x="59" y="-313.7" font-family="Times,serif" font-size="14.00">user_signed_in?</text>
</g>
<!-- ArticlesController -->
<g id="node4" class="node">
<title>ArticlesController</title>
<path fill="none" stroke="black" d="M233,-204.5C233,-204.5 330,-204.5 330,-204.5 336,-204.5 342,-210.5 342,-216.5 342,-216.5 342,-455 342,-455 342,-461 336,-467 330,-467 330,-467 233,-467 233,-467 227,-467 221,-461 221,-455 221,-455 221,-216.5 221,-216.5 221,-210.5 227,-204.5 233,-204.5"/>
<text text-anchor="middle" x="281.5" y="-449.7" font-family="Times,serif" font-size="14.00">ArticlesController</text>
<polyline fill="none" stroke="black" points="221,-442.5 342,-442.5"/>
<text text-anchor="start" x="229" y="-425.2" font-family="Times,serif" font-size="14.00">create</text>
<text text-anchor="start" x="229" y="-408.7" font-family="Times,serif" font-size="14.00">destroy</text>
<text text-anchor="start" x="229" y="-392.2" font-family="Times,serif" font-size="14.00">edit</text>
<text text-anchor="start" x="229" y="-375.7" font-family="Times,serif" font-size="14.00">index</text>
<text text-anchor="start" x="229" y="-359.2" font-family="Times,serif" font-size="14.00">new</text>
<text text-anchor="start" x="229" y="-342.7" font-family="Times,serif" font-size="14.00">show</text>
<text text-anchor="start" x="229" y="-326.2" font-family="Times,serif" font-size="14.00">update</text>
<polyline fill="none" stroke="black" points="221,-319 342,-319"/>
<polyline fill="none" stroke="black" points="221,-295 342,-295"/>
<text text-anchor="start" x="229" y="-277.7" font-family="Times,serif" font-size="14.00">_layout</text>
<text text-anchor="start" x="229" y="-261.2" font-family="Times,serif" font-size="14.00">_layout_from_proc</text>
<text text-anchor="start" x="229" y="-244.7" font-family="Times,serif" font-size="14.00">article_params</text>
<text text-anchor="start" x="229" y="-228.2" font-family="Times,serif" font-size="14.00">correct_user</text>
<text text-anchor="start" x="229" y="-211.7" font-family="Times,serif" font-size="14.00">set_article</text>
</g>
<!-- Auth0Controller -->
<g id="node5" class="node">
<title>Auth0Controller</title>
<path fill="none" stroke="black" d="M505,-544.5C505,-544.5 602,-544.5 602,-544.5 608,-544.5 614,-550.5 614,-556.5 614,-556.5 614,-696 614,-696 614,-702 608,-708 602,-708 602,-708 505,-708 505,-708 499,-708 493,-702 493,-696 493,-696 493,-556.5 493,-556.5 493,-550.5 499,-544.5 505,-544.5"/>
<text text-anchor="middle" x="553.5" y="-690.7" font-family="Times,serif" font-size="14.00">Auth0Controller</text>
<polyline fill="none" stroke="black" points="493,-683.5 614,-683.5"/>
<text text-anchor="start" x="501" y="-666.2" font-family="Times,serif" font-size="14.00">callback</text>
<text text-anchor="start" x="501" y="-649.7" font-family="Times,serif" font-size="14.00">failure</text>
<text text-anchor="start" x="501" y="-633.2" font-family="Times,serif" font-size="14.00">logout</text>
<polyline fill="none" stroke="black" points="493,-626 614,-626"/>
<polyline fill="none" stroke="black" points="493,-602 614,-602"/>
<text text-anchor="start" x="501" y="-584.7" font-family="Times,serif" font-size="14.00">_layout</text>
<text text-anchor="start" x="501" y="-568.2" font-family="Times,serif" font-size="14.00">_layout_from_proc</text>
<text text-anchor="start" x="501" y="-551.7" font-family="Times,serif" font-size="14.00">logout_url</text>
</g>
<!-- BookmarksController -->
<g id="node6" class="node">
<title>BookmarksController</title>
<path fill="none" stroke="black" d="M556,-255.5C556,-255.5 666.5,-255.5 666.5,-255.5 672.5,-255.5 678.5,-261.5 678.5,-267.5 678.5,-267.5 678.5,-374 678.5,-374 678.5,-380 672.5,-386 666.5,-386 666.5,-386 556,-386 556,-386 550,-386 544,-380 544,-374 544,-374 544,-267.5 544,-267.5 544,-261.5 550,-255.5 556,-255.5"/>
<text text-anchor="middle" x="611.25" y="-368.7" font-family="Times,serif" font-size="14.00">BookmarksController</text>
<polyline fill="none" stroke="black" points="544,-361.5 678.5,-361.5"/>
<text text-anchor="start" x="552" y="-344.2" font-family="Times,serif" font-size="14.00">create</text>
<text text-anchor="start" x="552" y="-327.7" font-family="Times,serif" font-size="14.00">destroy</text>
<polyline fill="none" stroke="black" points="544,-320.5 678.5,-320.5"/>
<polyline fill="none" stroke="black" points="544,-296.5 678.5,-296.5"/>
<text text-anchor="start" x="552" y="-279.2" font-family="Times,serif" font-size="14.00">_layout</text>
<text text-anchor="start" x="552" y="-262.7" font-family="Times,serif" font-size="14.00">_layout_from_proc</text>
</g>
<!-- CategoryController -->
<g id="node7" class="node">
<title>CategoryController</title>
<path fill="none" stroke="black" d="M233,-51.5C233,-51.5 330,-51.5 330,-51.5 336,-51.5 342,-57.5 342,-63.5 342,-63.5 342,-153 342,-153 342,-159 336,-165 330,-165 330,-165 233,-165 233,-165 227,-165 221,-159 221,-153 221,-153 221,-63.5 221,-63.5 221,-57.5 227,-51.5 233,-51.5"/>
<text text-anchor="middle" x="281.5" y="-147.7" font-family="Times,serif" font-size="14.00">CategoryController</text>
<polyline fill="none" stroke="black" points="221,-140.5 342,-140.5"/>
<polyline fill="none" stroke="black" points="221,-116.5 342,-116.5"/>
<polyline fill="none" stroke="black" points="221,-92.5 342,-92.5"/>
<text text-anchor="start" x="229" y="-75.2" font-family="Times,serif" font-size="14.00">_layout</text>
<text text-anchor="start" x="229" y="-58.7" font-family="Times,serif" font-size="14.00">_layout_from_proc</text>
</g>
<!-- GraphqlController -->
<g id="node8" class="node">
<title>GraphqlController</title>
<path fill="none" stroke="black" d="M165,-493.5C165,-493.5 320.5,-493.5 320.5,-493.5 326.5,-493.5 332.5,-499.5 332.5,-505.5 332.5,-505.5 332.5,-628.5 332.5,-628.5 332.5,-634.5 326.5,-640.5 320.5,-640.5 320.5,-640.5 165,-640.5 165,-640.5 159,-640.5 153,-634.5 153,-628.5 153,-628.5 153,-505.5 153,-505.5 153,-499.5 159,-493.5 165,-493.5"/>
<text text-anchor="middle" x="242.75" y="-623.2" font-family="Times,serif" font-size="14.00">GraphqlController</text>
<polyline fill="none" stroke="black" points="153,-616 332.5,-616"/>
<text text-anchor="start" x="161" y="-598.7" font-family="Times,serif" font-size="14.00">execute</text>
<polyline fill="none" stroke="black" points="153,-591.5 332.5,-591.5"/>
<polyline fill="none" stroke="black" points="153,-567.5 332.5,-567.5"/>
<text text-anchor="start" x="161" y="-550.2" font-family="Times,serif" font-size="14.00">_layout</text>
<text text-anchor="start" x="161" y="-533.7" font-family="Times,serif" font-size="14.00">_layout_from_proc</text>
<text text-anchor="start" x="161" y="-517.2" font-family="Times,serif" font-size="14.00">handle_error_in_development</text>
<text text-anchor="start" x="161" y="-500.7" font-family="Times,serif" font-size="14.00">prepare_variables</text>
</g>
<!-- HomeController -->
<g id="node9" class="node">
<title>HomeController</title>
<path fill="none" stroke="black" d="M641,-0.5C641,-0.5 738,-0.5 738,-0.5 744,-0.5 750,-6.5 750,-12.5 750,-12.5 750,-102.5 750,-102.5 750,-108.5 744,-114.5 738,-114.5 738,-114.5 641,-114.5 641,-114.5 635,-114.5 629,-108.5 629,-102.5 629,-102.5 629,-12.5 629,-12.5 629,-6.5 635,-0.5 641,-0.5"/>
<text text-anchor="middle" x="689.5" y="-97.2" font-family="Times,serif" font-size="14.00">HomeController</text>
<polyline fill="none" stroke="black" points="629,-90 750,-90"/>
<text text-anchor="start" x="637" y="-72.7" font-family="Times,serif" font-size="14.00">index</text>
<polyline fill="none" stroke="black" points="629,-65.5 750,-65.5"/>
<polyline fill="none" stroke="black" points="629,-41.5 750,-41.5"/>
<text text-anchor="start" x="637" y="-24.2" font-family="Times,serif" font-size="14.00">_layout</text>
<text text-anchor="start" x="637" y="-7.7" font-family="Times,serif" font-size="14.00">_layout_from_proc</text>
</g>
<!-- LikesController -->
<g id="node10" class="node">
<title>LikesController</title>
<path fill="none" stroke="black" d="M12,-629.5C12,-629.5 109,-629.5 109,-629.5 115,-629.5 121,-635.5 121,-641.5 121,-641.5 121,-748 121,-748 121,-754 115,-760 109,-760 109,-760 12,-760 12,-760 6,-760 0,-754 0,-748 0,-748 0,-641.5 0,-641.5 0,-635.5 6,-629.5 12,-629.5"/>
<text text-anchor="middle" x="60.5" y="-742.7" font-family="Times,serif" font-size="14.00">LikesController</text>
<polyline fill="none" stroke="black" points="0,-735.5 121,-735.5"/>
<text text-anchor="start" x="8" y="-718.2" font-family="Times,serif" font-size="14.00">create</text>
<text text-anchor="start" x="8" y="-701.7" font-family="Times,serif" font-size="14.00">destroy</text>
<polyline fill="none" stroke="black" points="0,-694.5 121,-694.5"/>
<polyline fill="none" stroke="black" points="0,-670.5 121,-670.5"/>
<text text-anchor="start" x="8" y="-653.2" font-family="Times,serif" font-size="14.00">_layout</text>
<text text-anchor="start" x="8" y="-636.7" font-family="Times,serif" font-size="14.00">_layout_from_proc</text>
</g>
<!-- UsersController -->
<g id="node11" class="node">
<title>UsersController</title>
<path fill="none" stroke="black" d="M80,-136.5C80,-136.5 177,-136.5 177,-136.5 183,-136.5 189,-142.5 189,-148.5 189,-148.5 189,-255 189,-255 189,-261 183,-267 177,-267 177,-267 80,-267 80,-267 74,-267 68,-261 68,-255 68,-255 68,-148.5 68,-148.5 68,-142.5 74,-136.5 80,-136.5"/>
<text text-anchor="middle" x="128.5" y="-249.7" font-family="Times,serif" font-size="14.00">UsersController</text>
<polyline fill="none" stroke="black" points="68,-242.5 189,-242.5"/>
<text text-anchor="start" x="76" y="-225.2" font-family="Times,serif" font-size="14.00">edit</text>
<text text-anchor="start" x="76" y="-208.7" font-family="Times,serif" font-size="14.00">show</text>
<polyline fill="none" stroke="black" points="68,-201.5 189,-201.5"/>
<polyline fill="none" stroke="black" points="68,-177.5 189,-177.5"/>
<text text-anchor="start" x="76" y="-160.2" font-family="Times,serif" font-size="14.00">_layout</text>
<text text-anchor="start" x="76" y="-143.7" font-family="Times,serif" font-size="14.00">_layout_from_proc</text>
</g>
</g>
</svg>
