<?xml version="1.0" encoding="UTF-8" standalone="no"?>
<!DOCTYPE svg PUBLIC "-//W3C//DTD SVG 1.1//EN"
 "http://www.w3.org/Graphics/SVG/1.1/DTD/svg11.dtd">
<!-- Generated by graphviz version 9.0.0 (20230911.1827)
 -->
<!-- Title: controllers_diagram Pages: 1 -->
<svg width="559pt" height="587pt"
 viewBox="0.00 0.00 558.50 587.00" xmlns="http://www.w3.org/2000/svg" xmlns:xlink="http://www.w3.org/1999/xlink">
<g id="graph0" class="graph" transform="scale(1 1) rotate(0) translate(4 583)">
<title>controllers_diagram</title>
<polygon fill="none" stroke="none" points="-4,4 -4,-583 554.5,-583 554.5,4 -4,4"/>
<!-- _diagram_info -->
<g id="node1" class="node">
<title>_diagram_info</title>
<text text-anchor="start" x="328" y="-210.65" font-family="Times,serif" font-size="13.00">Controllers diagram</text>
<text text-anchor="start" x="328" y="-195.65" font-family="Times,serif" font-size="13.00">Date: Oct 19 2023 &#45; 17:23</text>
<text text-anchor="start" x="328" y="-180.65" font-family="Times,serif" font-size="13.00">Migration version: 20231008063216</text>
<text text-anchor="start" x="328" y="-165.65" font-family="Times,serif" font-size="13.00">Generated by RailRoady 1.6.0</text>
<text text-anchor="start" x="328" y="-150.65" font-family="Times,serif" font-size="13.00">http://railroady.prestonlee.com</text>
</g>
<!-- ApplicationController -->
<g id="node2" class="node">
<title>ApplicationController</title>
<path fill="none" stroke="black" d="M172,-384.5C172,-384.5 283.25,-384.5 283.25,-384.5 289.25,-384.5 295.25,-390.5 295.25,-396.5 295.25,-396.5 295.25,-503 295.25,-503 295.25,-509 289.25,-515 283.25,-515 283.25,-515 172,-515 172,-515 166,-515 160,-509 160,-503 160,-503 160,-396.5 160,-396.5 160,-390.5 166,-384.5 172,-384.5"/>
<text text-anchor="middle" x="227.62" y="-497.7" font-family="Times,serif" font-size="14.00">ApplicationController</text>
<polyline fill="none" stroke="black" points="160,-490.5 295.25,-490.5"/>
<text text-anchor="start" x="168" y="-473.2" font-family="Times,serif" font-size="14.00">check_logged_in</text>
<polyline fill="none" stroke="black" points="160,-466 295.25,-466"/>
<polyline fill="none" stroke="black" points="160,-442 295.25,-442"/>
<text text-anchor="start" x="168" y="-424.7" font-family="Times,serif" font-size="14.00">_layout</text>
<text text-anchor="start" x="168" y="-408.2" font-family="Times,serif" font-size="14.00">_layout_from_proc</text>
<text text-anchor="start" x="168" y="-391.7" font-family="Times,serif" font-size="14.00">current_user</text>
</g>
<!-- ArticlesController -->
<g id="node3" class="node">
<title>ArticlesController</title>
<path fill="none" stroke="black" d="M172,-96.5C172,-96.5 269,-96.5 269,-96.5 275,-96.5 281,-102.5 281,-108.5 281,-108.5 281,-347 281,-347 281,-353 275,-359 269,-359 269,-359 172,-359 172,-359 166,-359 160,-353 160,-347 160,-347 160,-108.5 160,-108.5 160,-102.5 166,-96.5 172,-96.5"/>
<text text-anchor="middle" x="220.5" y="-341.7" font-family="Times,serif" font-size="14.00">ArticlesController</text>
<polyline fill="none" stroke="black" points="160,-334.5 281,-334.5"/>
<text text-anchor="start" x="168" y="-317.2" font-family="Times,serif" font-size="14.00">create</text>
<text text-anchor="start" x="168" y="-300.7" font-family="Times,serif" font-size="14.00">destroy</text>
<text text-anchor="start" x="168" y="-284.2" font-family="Times,serif" font-size="14.00">edit</text>
<text text-anchor="start" x="168" y="-267.7" font-family="Times,serif" font-size="14.00">index</text>
<text text-anchor="start" x="168" y="-251.2" font-family="Times,serif" font-size="14.00">new</text>
<text text-anchor="start" x="168" y="-234.7" font-family="Times,serif" font-size="14.00">show</text>
<text text-anchor="start" x="168" y="-218.2" font-family="Times,serif" font-size="14.00">update</text>
<polyline fill="none" stroke="black" points="160,-211 281,-211"/>
<polyline fill="none" stroke="black" points="160,-187 281,-187"/>
<text text-anchor="start" x="168" y="-169.7" font-family="Times,serif" font-size="14.00">_layout</text>
<text text-anchor="start" x="168" y="-153.2" font-family="Times,serif" font-size="14.00">_layout_from_proc</text>
<text text-anchor="start" x="168" y="-136.7" font-family="Times,serif" font-size="14.00">article_params</text>
<text text-anchor="start" x="168" y="-120.2" font-family="Times,serif" font-size="14.00">correct_user</text>
<text text-anchor="start" x="168" y="-103.7" font-family="Times,serif" font-size="14.00">set_article</text>
</g>
<!-- BookmarksController -->
<g id="node4" class="node">
<title>BookmarksController</title>
<path fill="none" stroke="black" d="M428,-432.5C428,-432.5 538.5,-432.5 538.5,-432.5 544.5,-432.5 550.5,-438.5 550.5,-444.5 550.5,-444.5 550.5,-551 550.5,-551 550.5,-557 544.5,-563 538.5,-563 538.5,-563 428,-563 428,-563 422,-563 416,-557 416,-551 416,-551 416,-444.5 416,-444.5 416,-438.5 422,-432.5 428,-432.5"/>
<text text-anchor="middle" x="483.25" y="-545.7" font-family="Times,serif" font-size="14.00">BookmarksController</text>
<polyline fill="none" stroke="black" points="416,-538.5 550.5,-538.5"/>
<text text-anchor="start" x="424" y="-521.2" font-family="Times,serif" font-size="14.00">create</text>
<text text-anchor="start" x="424" y="-504.7" font-family="Times,serif" font-size="14.00">destroy</text>
<polyline fill="none" stroke="black" points="416,-497.5 550.5,-497.5"/>
<polyline fill="none" stroke="black" points="416,-473.5 550.5,-473.5"/>
<text text-anchor="start" x="424" y="-456.2" font-family="Times,serif" font-size="14.00">_layout</text>
<text text-anchor="start" x="424" y="-439.7" font-family="Times,serif" font-size="14.00">_layout_from_proc</text>
</g>
<!-- CategoryController -->
<g id="node5" class="node">
<title>CategoryController</title>
<path fill="none" stroke="black" d="M332,-0.5C332,-0.5 429,-0.5 429,-0.5 435,-0.5 441,-6.5 441,-12.5 441,-12.5 441,-102 441,-102 441,-108 435,-114 429,-114 429,-114 332,-114 332,-114 326,-114 320,-108 320,-102 320,-102 320,-12.5 320,-12.5 320,-6.5 326,-0.5 332,-0.5"/>
<text text-anchor="middle" x="380.5" y="-96.7" font-family="Times,serif" font-size="14.00">CategoryController</text>
<polyline fill="none" stroke="black" points="320,-89.5 441,-89.5"/>
<polyline fill="none" stroke="black" points="320,-65.5 441,-65.5"/>
<polyline fill="none" stroke="black" points="320,-41.5 441,-41.5"/>
<text text-anchor="start" x="328" y="-24.2" font-family="Times,serif" font-size="14.00">_layout</text>
<text text-anchor="start" x="328" y="-7.7" font-family="Times,serif" font-size="14.00">_layout_from_proc</text>
</g>
<!-- HomeController -->
<g id="node6" class="node">
<title>HomeController</title>
<path fill="none" stroke="black" d="M12,-464.5C12,-464.5 109,-464.5 109,-464.5 115,-464.5 121,-470.5 121,-476.5 121,-476.5 121,-566.5 121,-566.5 121,-572.5 115,-578.5 109,-578.5 109,-578.5 12,-578.5 12,-578.5 6,-578.5 0,-572.5 0,-566.5 0,-566.5 0,-476.5 0,-476.5 0,-470.5 6,-464.5 12,-464.5"/>
<text text-anchor="middle" x="60.5" y="-561.2" font-family="Times,serif" font-size="14.00">HomeController</text>
<polyline fill="none" stroke="black" points="0,-554 121,-554"/>
<text text-anchor="start" x="8" y="-536.7" font-family="Times,serif" font-size="14.00">index</text>
<polyline fill="none" stroke="black" points="0,-529.5 121,-529.5"/>
<polyline fill="none" stroke="black" points="0,-505.5 121,-505.5"/>
<text text-anchor="start" x="8" y="-488.2" font-family="Times,serif" font-size="14.00">_layout</text>
<text text-anchor="start" x="8" y="-471.7" font-family="Times,serif" font-size="14.00">_layout_from_proc</text>
</g>
<!-- LikesController -->
<g id="node7" class="node">
<title>LikesController</title>
<path fill="none" stroke="black" d="M12,-80.5C12,-80.5 109,-80.5 109,-80.5 115,-80.5 121,-86.5 121,-92.5 121,-92.5 121,-199 121,-199 121,-205 115,-211 109,-211 109,-211 12,-211 12,-211 6,-211 0,-205 0,-199 0,-199 0,-92.5 0,-92.5 0,-86.5 6,-80.5 12,-80.5"/>
<text text-anchor="middle" x="60.5" y="-193.7" font-family="Times,serif" font-size="14.00">LikesController</text>
<polyline fill="none" stroke="black" points="0,-186.5 121,-186.5"/>
<text text-anchor="start" x="8" y="-169.2" font-family="Times,serif" font-size="14.00">create</text>
<text text-anchor="start" x="8" y="-152.7" font-family="Times,serif" font-size="14.00">destroy</text>
<polyline fill="none" stroke="black" points="0,-145.5 121,-145.5"/>
<polyline fill="none" stroke="black" points="0,-121.5 121,-121.5"/>
<text text-anchor="start" x="8" y="-104.2" font-family="Times,serif" font-size="14.00">_layout</text>
<text text-anchor="start" x="8" y="-87.7" font-family="Times,serif" font-size="14.00">_layout_from_proc</text>
</g>
<!-- SessionsController -->
<g id="node8" class="node">
<title>SessionsController</title>
<path fill="none" stroke="black" d="M332,-256.5C332,-256.5 429,-256.5 429,-256.5 435,-256.5 441,-262.5 441,-268.5 441,-268.5 441,-391.5 441,-391.5 441,-397.5 435,-403.5 429,-403.5 429,-403.5 332,-403.5 332,-403.5 326,-403.5 320,-397.5 320,-391.5 320,-391.5 320,-268.5 320,-268.5 320,-262.5 326,-256.5 332,-256.5"/>
<text text-anchor="middle" x="380.5" y="-386.2" font-family="Times,serif" font-size="14.00">SessionsController</text>
<polyline fill="none" stroke="black" points="320,-379 441,-379"/>
<text text-anchor="start" x="328" y="-361.7" font-family="Times,serif" font-size="14.00">create</text>
<text text-anchor="start" x="328" y="-345.2" font-family="Times,serif" font-size="14.00">destroy</text>
<polyline fill="none" stroke="black" points="320,-338 441,-338"/>
<polyline fill="none" stroke="black" points="320,-314 441,-314"/>
<text text-anchor="start" x="328" y="-296.7" font-family="Times,serif" font-size="14.00">_layout</text>
<text text-anchor="start" x="328" y="-280.2" font-family="Times,serif" font-size="14.00">_layout_from_proc</text>
<text text-anchor="start" x="328" y="-263.7" font-family="Times,serif" font-size="14.00">auth_hash</text>
</g>
<!-- UsersController -->
<g id="node9" class="node">
<title>UsersController</title>
<path fill="none" stroke="black" d="M12,-240.5C12,-240.5 109,-240.5 109,-240.5 115,-240.5 121,-246.5 121,-252.5 121,-252.5 121,-359 121,-359 121,-365 115,-371 109,-371 109,-371 12,-371 12,-371 6,-371 0,-365 0,-359 0,-359 0,-252.5 0,-252.5 0,-246.5 6,-240.5 12,-240.5"/>
<text text-anchor="middle" x="60.5" y="-353.7" font-family="Times,serif" font-size="14.00">UsersController</text>
<polyline fill="none" stroke="black" points="0,-346.5 121,-346.5"/>
<text text-anchor="start" x="8" y="-329.2" font-family="Times,serif" font-size="14.00">show</text>
<polyline fill="none" stroke="black" points="0,-322 121,-322"/>
<polyline fill="none" stroke="black" points="0,-298 121,-298"/>
<text text-anchor="start" x="8" y="-280.7" font-family="Times,serif" font-size="14.00">_layout</text>
<text text-anchor="start" x="8" y="-264.2" font-family="Times,serif" font-size="14.00">_layout_from_proc</text>
<text text-anchor="start" x="8" y="-247.7" font-family="Times,serif" font-size="14.00">correct_user</text>
</g>
</g>
</svg>
