<?xml version="1.0" encoding="UTF-8" standalone="no"?>
<!DOCTYPE svg PUBLIC "-//W3C//DTD SVG 1.1//EN"
 "http://www.w3.org/Graphics/SVG/1.1/DTD/svg11.dtd">
<!-- Generated by graphviz version 9.0.0 (20230911.1827)
 -->
<!-- Title: controllers_diagram Pages: 1 -->
<svg width="622pt" height="667pt"
 viewBox="0.00 0.00 622.00 667.00" xmlns="http://www.w3.org/2000/svg" xmlns:xlink="http://www.w3.org/1999/xlink">
<g id="graph0" class="graph" transform="scale(1 1) rotate(0) translate(4 663)">
<title>controllers_diagram</title>
<polygon fill="none" stroke="none" points="-4,4 -4,-663 618,-663 618,4 -4,4"/>
<!-- _diagram_info -->
<g id="node1" class="node">
<title>_diagram_info</title>
<text text-anchor="start" x="76" y="-491.65" font-family="Times,serif" font-size="13.00">Controllers diagram</text>
<text text-anchor="start" x="76" y="-476.65" font-family="Times,serif" font-size="13.00">Date: Apr 20 2024 &#45; 19:55</text>
<text text-anchor="start" x="76" y="-461.65" font-family="Times,serif" font-size="13.00">Migration version: 20240418141757</text>
<text text-anchor="start" x="76" y="-446.65" font-family="Times,serif" font-size="13.00">Generated by RailRoady 1.6.0</text>
<text text-anchor="start" x="76" y="-431.65" font-family="Times,serif" font-size="13.00">http://railroady.prestonlee.com</text>
</g>
<!-- ApplicantsController -->
<g id="node2" class="node">
<title>ApplicantsController</title>
<path fill="none" stroke="black" d="M335,-170.5C335,-170.5 441,-170.5 441,-170.5 447,-170.5 453,-176.5 453,-182.5 453,-182.5 453,-404.5 453,-404.5 453,-410.5 447,-416.5 441,-416.5 441,-416.5 335,-416.5 335,-416.5 329,-416.5 323,-410.5 323,-404.5 323,-404.5 323,-182.5 323,-182.5 323,-176.5 329,-170.5 335,-170.5"/>
<text text-anchor="middle" x="388" y="-399.2" font-family="Times,serif" font-size="14.00">ApplicantsController</text>
<polyline fill="none" stroke="black" points="323,-392 453,-392"/>
<text text-anchor="start" x="331" y="-374.7" font-family="Times,serif" font-size="14.00">create</text>
<text text-anchor="start" x="331" y="-358.2" font-family="Times,serif" font-size="14.00">destroy</text>
<text text-anchor="start" x="331" y="-341.7" font-family="Times,serif" font-size="14.00">edit</text>
<text text-anchor="start" x="331" y="-325.2" font-family="Times,serif" font-size="14.00">index</text>
<text text-anchor="start" x="331" y="-308.7" font-family="Times,serif" font-size="14.00">new</text>
<text text-anchor="start" x="331" y="-292.2" font-family="Times,serif" font-size="14.00">show</text>
<text text-anchor="start" x="331" y="-275.7" font-family="Times,serif" font-size="14.00">update</text>
<polyline fill="none" stroke="black" points="323,-268.5 453,-268.5"/>
<polyline fill="none" stroke="black" points="323,-244.5 453,-244.5"/>
<text text-anchor="start" x="331" y="-227.2" font-family="Times,serif" font-size="14.00">_layout</text>
<text text-anchor="start" x="331" y="-210.7" font-family="Times,serif" font-size="14.00">_layout_from_proc</text>
<text text-anchor="start" x="331" y="-194.2" font-family="Times,serif" font-size="14.00">applicant_params</text>
<text text-anchor="start" x="331" y="-177.7" font-family="Times,serif" font-size="14.00">set_applicant</text>
</g>
<!-- ApplicationController -->
<g id="node3" class="node">
<title>ApplicationController</title>
<path fill="none" stroke="black" d="M12,-238.5C12,-238.5 123.25,-238.5 123.25,-238.5 129.25,-238.5 135.25,-244.5 135.25,-250.5 135.25,-250.5 135.25,-373.5 135.25,-373.5 135.25,-379.5 129.25,-385.5 123.25,-385.5 123.25,-385.5 12,-385.5 12,-385.5 6,-385.5 0,-379.5 0,-373.5 0,-373.5 0,-250.5 0,-250.5 0,-244.5 6,-238.5 12,-238.5"/>
<text text-anchor="middle" x="67.62" y="-368.2" font-family="Times,serif" font-size="14.00">ApplicationController</text>
<polyline fill="none" stroke="black" points="0,-361 135.25,-361"/>
<text text-anchor="start" x="8" y="-343.7" font-family="Times,serif" font-size="14.00">check_logged_in</text>
<text text-anchor="start" x="8" y="-327.2" font-family="Times,serif" font-size="14.00">current_user</text>
<polyline fill="none" stroke="black" points="0,-320 135.25,-320"/>
<polyline fill="none" stroke="black" points="0,-296 135.25,-296"/>
<text text-anchor="start" x="8" y="-278.7" font-family="Times,serif" font-size="14.00">_layout</text>
<text text-anchor="start" x="8" y="-262.2" font-family="Times,serif" font-size="14.00">_layout_from_proc</text>
<text text-anchor="start" x="8" y="-245.7" font-family="Times,serif" font-size="14.00">user_signed_in?</text>
</g>
<!-- ArticlesController -->
<g id="node4" class="node">
<title>ArticlesController</title>
<path fill="none" stroke="black" d="M182,-119.5C182,-119.5 279,-119.5 279,-119.5 285,-119.5 291,-125.5 291,-131.5 291,-131.5 291,-370 291,-370 291,-376 285,-382 279,-382 279,-382 182,-382 182,-382 176,-382 170,-376 170,-370 170,-370 170,-131.5 170,-131.5 170,-125.5 176,-119.5 182,-119.5"/>
<text text-anchor="middle" x="230.5" y="-364.7" font-family="Times,serif" font-size="14.00">ArticlesController</text>
<polyline fill="none" stroke="black" points="170,-357.5 291,-357.5"/>
<text text-anchor="start" x="178" y="-340.2" font-family="Times,serif" font-size="14.00">create</text>
<text text-anchor="start" x="178" y="-323.7" font-family="Times,serif" font-size="14.00">destroy</text>
<text text-anchor="start" x="178" y="-307.2" font-family="Times,serif" font-size="14.00">edit</text>
<text text-anchor="start" x="178" y="-290.7" font-family="Times,serif" font-size="14.00">index</text>
<text text-anchor="start" x="178" y="-274.2" font-family="Times,serif" font-size="14.00">new</text>
<text text-anchor="start" x="178" y="-257.7" font-family="Times,serif" font-size="14.00">show</text>
<text text-anchor="start" x="178" y="-241.2" font-family="Times,serif" font-size="14.00">update</text>
<polyline fill="none" stroke="black" points="170,-234 291,-234"/>
<polyline fill="none" stroke="black" points="170,-210 291,-210"/>
<text text-anchor="start" x="178" y="-192.7" font-family="Times,serif" font-size="14.00">_layout</text>
<text text-anchor="start" x="178" y="-176.2" font-family="Times,serif" font-size="14.00">_layout_from_proc</text>
<text text-anchor="start" x="178" y="-159.7" font-family="Times,serif" font-size="14.00">article_params</text>
<text text-anchor="start" x="178" y="-143.2" font-family="Times,serif" font-size="14.00">correct_user</text>
<text text-anchor="start" x="178" y="-126.7" font-family="Times,serif" font-size="14.00">set_article</text>
</g>
<!-- Auth0Controller -->
<g id="node5" class="node">
<title>Auth0Controller</title>
<path fill="none" stroke="black" d="M454,-459.5C454,-459.5 551,-459.5 551,-459.5 557,-459.5 563,-465.5 563,-471.5 563,-471.5 563,-611 563,-611 563,-617 557,-623 551,-623 551,-623 454,-623 454,-623 448,-623 442,-617 442,-611 442,-611 442,-471.5 442,-471.5 442,-465.5 448,-459.5 454,-459.5"/>
<text text-anchor="middle" x="502.5" y="-605.7" font-family="Times,serif" font-size="14.00">Auth0Controller</text>
<polyline fill="none" stroke="black" points="442,-598.5 563,-598.5"/>
<text text-anchor="start" x="450" y="-581.2" font-family="Times,serif" font-size="14.00">callback</text>
<text text-anchor="start" x="450" y="-564.7" font-family="Times,serif" font-size="14.00">failure</text>
<text text-anchor="start" x="450" y="-548.2" font-family="Times,serif" font-size="14.00">logout</text>
<polyline fill="none" stroke="black" points="442,-541 563,-541"/>
<polyline fill="none" stroke="black" points="442,-517 563,-517"/>
<text text-anchor="start" x="450" y="-499.7" font-family="Times,serif" font-size="14.00">_layout</text>
<text text-anchor="start" x="450" y="-483.2" font-family="Times,serif" font-size="14.00">_layout_from_proc</text>
<text text-anchor="start" x="450" y="-466.7" font-family="Times,serif" font-size="14.00">logout_url</text>
</g>
<!-- BookmarksController -->
<g id="node6" class="node">
<title>BookmarksController</title>
<path fill="none" stroke="black" d="M335,-0.5C335,-0.5 445.5,-0.5 445.5,-0.5 451.5,-0.5 457.5,-6.5 457.5,-12.5 457.5,-12.5 457.5,-119 457.5,-119 457.5,-125 451.5,-131 445.5,-131 445.5,-131 335,-131 335,-131 329,-131 323,-125 323,-119 323,-119 323,-12.5 323,-12.5 323,-6.5 329,-0.5 335,-0.5"/>
<text text-anchor="middle" x="390.25" y="-113.7" font-family="Times,serif" font-size="14.00">BookmarksController</text>
<polyline fill="none" stroke="black" points="323,-106.5 457.5,-106.5"/>
<text text-anchor="start" x="331" y="-89.2" font-family="Times,serif" font-size="14.00">create</text>
<text text-anchor="start" x="331" y="-72.7" font-family="Times,serif" font-size="14.00">destroy</text>
<polyline fill="none" stroke="black" points="323,-65.5 457.5,-65.5"/>
<polyline fill="none" stroke="black" points="323,-41.5 457.5,-41.5"/>
<text text-anchor="start" x="331" y="-24.2" font-family="Times,serif" font-size="14.00">_layout</text>
<text text-anchor="start" x="331" y="-7.7" font-family="Times,serif" font-size="14.00">_layout_from_proc</text>
</g>
<!-- CategoryController -->
<g id="node7" class="node">
<title>CategoryController</title>
<path fill="none" stroke="black" d="M505,-170.5C505,-170.5 602,-170.5 602,-170.5 608,-170.5 614,-176.5 614,-182.5 614,-182.5 614,-272 614,-272 614,-278 608,-284 602,-284 602,-284 505,-284 505,-284 499,-284 493,-278 493,-272 493,-272 493,-182.5 493,-182.5 493,-176.5 499,-170.5 505,-170.5"/>
<text text-anchor="middle" x="553.5" y="-266.7" font-family="Times,serif" font-size="14.00">CategoryController</text>
<polyline fill="none" stroke="black" points="493,-259.5 614,-259.5"/>
<polyline fill="none" stroke="black" points="493,-235.5 614,-235.5"/>
<polyline fill="none" stroke="black" points="493,-211.5 614,-211.5"/>
<text text-anchor="start" x="501" y="-194.2" font-family="Times,serif" font-size="14.00">_layout</text>
<text text-anchor="start" x="501" y="-177.7" font-family="Times,serif" font-size="14.00">_layout_from_proc</text>
</g>
<!-- HomeController -->
<g id="node8" class="node">
<title>HomeController</title>
<path fill="none" stroke="black" d="M301,-544.5C301,-544.5 398,-544.5 398,-544.5 404,-544.5 410,-550.5 410,-556.5 410,-556.5 410,-646.5 410,-646.5 410,-652.5 404,-658.5 398,-658.5 398,-658.5 301,-658.5 301,-658.5 295,-658.5 289,-652.5 289,-646.5 289,-646.5 289,-556.5 289,-556.5 289,-550.5 295,-544.5 301,-544.5"/>
<text text-anchor="middle" x="349.5" y="-641.2" font-family="Times,serif" font-size="14.00">HomeController</text>
<polyline fill="none" stroke="black" points="289,-634 410,-634"/>
<text text-anchor="start" x="297" y="-616.7" font-family="Times,serif" font-size="14.00">index</text>
<polyline fill="none" stroke="black" points="289,-609.5 410,-609.5"/>
<polyline fill="none" stroke="black" points="289,-585.5 410,-585.5"/>
<text text-anchor="start" x="297" y="-568.2" font-family="Times,serif" font-size="14.00">_layout</text>
<text text-anchor="start" x="297" y="-551.7" font-family="Times,serif" font-size="14.00">_layout_from_proc</text>
</g>
<!-- LikesController -->
<g id="node9" class="node">
<title>LikesController</title>
<path fill="none" stroke="black" d="M505,-0.5C505,-0.5 602,-0.5 602,-0.5 608,-0.5 614,-6.5 614,-12.5 614,-12.5 614,-119 614,-119 614,-125 608,-131 602,-131 602,-131 505,-131 505,-131 499,-131 493,-125 493,-119 493,-119 493,-12.5 493,-12.5 493,-6.5 499,-0.5 505,-0.5"/>
<text text-anchor="middle" x="553.5" y="-113.7" font-family="Times,serif" font-size="14.00">LikesController</text>
<polyline fill="none" stroke="black" points="493,-106.5 614,-106.5"/>
<text text-anchor="start" x="501" y="-89.2" font-family="Times,serif" font-size="14.00">create</text>
<text text-anchor="start" x="501" y="-72.7" font-family="Times,serif" font-size="14.00">destroy</text>
<polyline fill="none" stroke="black" points="493,-65.5 614,-65.5"/>
<polyline fill="none" stroke="black" points="493,-41.5 614,-41.5"/>
<text text-anchor="start" x="501" y="-24.2" font-family="Times,serif" font-size="14.00">_layout</text>
<text text-anchor="start" x="501" y="-7.7" font-family="Times,serif" font-size="14.00">_layout_from_proc</text>
</g>
<!-- UsersController -->
<g id="node10" class="node">
<title>UsersController</title>
<path fill="none" stroke="black" d="M29,-68.5C29,-68.5 126,-68.5 126,-68.5 132,-68.5 138,-74.5 138,-80.5 138,-80.5 138,-187 138,-187 138,-193 132,-199 126,-199 126,-199 29,-199 29,-199 23,-199 17,-193 17,-187 17,-187 17,-80.5 17,-80.5 17,-74.5 23,-68.5 29,-68.5"/>
<text text-anchor="middle" x="77.5" y="-181.7" font-family="Times,serif" font-size="14.00">UsersController</text>
<polyline fill="none" stroke="black" points="17,-174.5 138,-174.5"/>
<text text-anchor="start" x="25" y="-157.2" font-family="Times,serif" font-size="14.00">edit</text>
<text text-anchor="start" x="25" y="-140.7" font-family="Times,serif" font-size="14.00">show</text>
<polyline fill="none" stroke="black" points="17,-133.5 138,-133.5"/>
<polyline fill="none" stroke="black" points="17,-109.5 138,-109.5"/>
<text text-anchor="start" x="25" y="-92.2" font-family="Times,serif" font-size="14.00">_layout</text>
<text text-anchor="start" x="25" y="-75.7" font-family="Times,serif" font-size="14.00">_layout_from_proc</text>
</g>
</g>
</svg>
