<?xml version="1.0" encoding="UTF-8" standalone="no"?>
<!DOCTYPE svg PUBLIC "-//W3C//DTD SVG 1.1//EN"
 "http://www.w3.org/Graphics/SVG/1.1/DTD/svg11.dtd">
<!-- Generated by graphviz version 9.0.0 (20230911.1827)
 -->
<!-- Title: models_diagram Pages: 1 -->
<svg width="948pt" height="503pt"
 viewBox="0.00 0.00 948.26 502.50" xmlns="http://www.w3.org/2000/svg" xmlns:xlink="http://www.w3.org/1999/xlink">
<g id="graph0" class="graph" transform="scale(1 1) rotate(0) translate(4 498.5)">
<title>models_diagram</title>
<polygon fill="none" stroke="none" points="-4,4 -4,-498.5 944.26,-498.5 944.26,4 -4,4"/>
<!-- _diagram_info -->
<g id="node1" class="node">
<title>_diagram_info</title>
<text text-anchor="start" x="258.38" y="-478.15" font-family="Times,serif" font-size="13.00">Models diagram</text>
<text text-anchor="start" x="258.38" y="-463.15" font-family="Times,serif" font-size="13.00">Date: Apr 19 2024 &#45; 09:05</text>
<text text-anchor="start" x="258.38" y="-448.15" font-family="Times,serif" font-size="13.00">Migration version: 20240418141757</text>
<text text-anchor="start" x="258.38" y="-433.15" font-family="Times,serif" font-size="13.00">Generated by RailRoady 1.6.0</text>
<text text-anchor="start" x="258.38" y="-418.15" font-family="Times,serif" font-size="13.00">http://railroady.prestonlee.com</text>
</g>
<!-- Ability -->
<g id="node2" class="node">
<title>Ability</title>
<polygon fill="none" stroke="black" points="536.12,-471 481.88,-471 481.88,-435 536.12,-435 536.12,-471"/>
<text text-anchor="middle" x="509" y="-447.95" font-family="Times,serif" font-size="14.00">Ability</text>
</g>
<!-- Applicant -->
<g id="node3" class="node">
<title>Applicant</title>
<ellipse fill="none" stroke="black" cx="601" cy="-453" rx="47.26" ry="18"/>
<text text-anchor="middle" x="601" y="-447.95" font-family="Times,serif" font-size="14.00">Applicant</text>
</g>
<!-- ApplicantArticle -->
<g id="node4" class="node">
<title>ApplicantArticle</title>
<ellipse fill="none" stroke="black" cx="601" cy="-356.5" rx="72.85" ry="18"/>
<text text-anchor="middle" x="601" y="-351.45" font-family="Times,serif" font-size="14.00">ApplicantArticle</text>
</g>
<!-- Applicant&#45;&gt;ApplicantArticle -->
<g id="edge1" class="edge">
<title>Applicant&#45;&gt;ApplicantArticle</title>
<path fill="none" stroke="#cf2cdf" d="M601,-424.26C601,-411.86 601,-397.28 601,-384.91"/>
<polygon fill="#cf2cdf" stroke="#cf2cdf" points="601,-424.33 596.5,-434.33 601,-429.67 601,-434 601,-434 601,-434 601,-429.67 605.5,-434.33 601,-424.33"/>
<polygon fill="#cf2cdf" stroke="#cf2cdf" points="601,-385.06 605.5,-375.06 601,-379.72 601,-375.39 601,-375.39 601,-375.39 601,-379.72 596.5,-375.06 601,-385.06"/>
</g>
<!-- Article -->
<g id="node6" class="node">
<title>Article</title>
<ellipse fill="none" stroke="black" cx="500" cy="-283.5" rx="36.51" ry="18"/>
<text text-anchor="middle" x="500" y="-278.45" font-family="Times,serif" font-size="14.00">Article</text>
</g>
<!-- Applicant&#45;&gt;Article -->
<g id="edge2" class="edge">
<title>Applicant&#45;&gt;Article</title>
<path fill="none" stroke="#38c34d" d="M570.74,-430.88C552.99,-416.9 531.62,-397.02 519,-374.5 508.23,-355.29 503.55,-330.65 501.52,-312.01"/>
<polygon fill="#38c34d" stroke="#38c34d" points="570.39,-430.61 575.61,-440.25 574.63,-433.85 578.07,-436.47 578.07,-436.47 578.07,-436.47 574.63,-433.85 581.07,-433.1 570.39,-430.61"/>
<polygon fill="#38c34d" stroke="#38c34d" points="501.53,-312.11 505.12,-301.75 501.06,-306.8 500.67,-302.48 500.67,-302.48 500.67,-302.48 501.06,-306.8 496.16,-302.55 501.53,-312.11"/>
</g>
<!-- User -->
<g id="node13" class="node">
<title>User</title>
<ellipse fill="none" stroke="black" cx="558" cy="-106.5" rx="28.32" ry="18"/>
<text text-anchor="middle" x="558" y="-101.45" font-family="Times,serif" font-size="14.00">User</text>
</g>
<!-- Applicant&#45;&gt;User -->
<g id="edge3" class="edge">
<title>Applicant&#45;&gt;User</title>
<path fill="none" stroke="#dd8a13" d="M629.61,-430.31C638.27,-424.03 647.89,-417.3 657,-411.5 698.62,-385 754,-406.84 754,-357.5 754,-357.5 754,-357.5 754,-194 754,-170.28 757.39,-158.63 740,-142.5 719.6,-123.58 643.72,-114.25 596.62,-110.19"/>
<polygon fill="#dd8a13" stroke="#dd8a13" points="629.66,-430.28 618.94,-432.58 625.37,-433.44 621.88,-436.01 621.88,-436.01 621.88,-436.01 625.37,-433.44 624.28,-439.83 629.66,-430.28"/>
<polygon fill="#dd8a13" stroke="#dd8a13" points="596.76,-110.2 587.16,-104.9 591.44,-109.76 587.13,-109.41 587.13,-109.41 587.13,-109.41 591.44,-109.76 586.43,-113.87 596.76,-110.2"/>
</g>
<!-- ActiveStorage::Attachment -->
<g id="node14" class="node">
<title>ActiveStorage::Attachment</title>
<ellipse fill="none" stroke="black" cx="306" cy="-18" rx="112.26" ry="18"/>
<text text-anchor="middle" x="306" y="-12.95" font-family="Times,serif" font-size="14.00">ActiveStorage::Attachment</text>
</g>
<!-- Applicant&#45;&gt;ActiveStorage::Attachment -->
<g id="edge4" class="edge">
<title>Applicant&#45;&gt;ActiveStorage::Attachment</title>
<path fill="none" stroke="#40e150" d="M575.62,-429.31C566.56,-422.44 555.88,-415.63 545,-411.5 488.1,-389.92 0,-418.35 0,-357.5 0,-357.5 0,-357.5 0,-105.5 0,-62.84 111.52,-40.16 199.91,-28.89"/>
<polygon fill="#40e150" stroke="#40e150" points="575.7,-429.38 580.7,-439.14 579.87,-432.71 583.25,-435.42 583.25,-435.42 583.25,-435.42 579.87,-432.71 586.32,-432.11 575.7,-429.38"/>
<polygon fill="#40e150" stroke="#40e150" points="199.76,-28.91 210.24,-32.14 205.06,-28.25 209.36,-27.72 209.36,-27.72 209.36,-27.72 205.06,-28.25 209.13,-23.21 199.76,-28.91"/>
<text text-anchor="middle" x="47.62" y="-234.2" font-family="Times,serif" font-size="14.00">files_attachments</text>
</g>
<!-- ActiveStorage::Blob -->
<g id="node15" class="node">
<title>ActiveStorage::Blob</title>
<ellipse fill="none" stroke="black" cx="700" cy="-18" rx="86.67" ry="18"/>
<text text-anchor="middle" x="700" y="-12.95" font-family="Times,serif" font-size="14.00">ActiveStorage::Blob</text>
</g>
<!-- Applicant&#45;&gt;ActiveStorage::Blob -->
<g id="edge5" class="edge">
<title>Applicant&#45;&gt;ActiveStorage::Blob</title>
<path fill="none" stroke="#ad83da" d="M627.13,-429.77C636.12,-423.06 646.56,-416.22 657,-411.5 715.87,-384.85 792,-422.12 792,-357.5 792,-357.5 792,-357.5 792,-105.5 792,-76.73 767.82,-54.72 744.26,-40.11"/>
<polygon fill="#ad83da" stroke="#ad83da" points="627.16,-429.75 616.5,-432.34 622.95,-433.03 619.53,-435.69 619.53,-435.69 619.53,-435.69 622.95,-433.03 622.03,-439.44 627.16,-429.75"/>
<polygon fill="#ad83da" stroke="#ad83da" points="744.23,-40.09 737.87,-31.16 739.62,-37.4 735.88,-35.21 735.88,-35.21 735.88,-35.21 739.62,-37.4 733.32,-38.92 744.23,-40.09"/>
<text text-anchor="middle" x="821.62" y="-234.2" font-family="Times,serif" font-size="14.00">files_blobs</text>
</g>
<!-- ApplicantArticle&#45;&gt;Article -->
<g id="edge6" class="edge">
<title>ApplicantArticle&#45;&gt;Article</title>
<path fill="none" stroke="#a86557" d="M569.04,-333.03C556.05,-323.9 541.16,-313.44 528.55,-304.57"/>
<polygon fill="#a86557" stroke="#a86557" points="569.12,-333.09 574.71,-342.52 573.48,-336.16 577.03,-338.65 577.03,-338.65 577.03,-338.65 573.48,-336.16 579.89,-335.16 569.12,-333.09"/>
<polygon fill="#a86557" stroke="#a86557" points="528.68,-304.66 523.09,-295.23 524.32,-301.59 520.77,-299.1 520.77,-299.1 520.77,-299.1 524.32,-301.59 517.91,-302.59 528.68,-304.66"/>
</g>
<!-- ApplicationRecord -->
<g id="node5" class="node">
<title>ApplicationRecord</title>
<ellipse fill="none" stroke="black" cx="747" cy="-453" rx="81.04" ry="18"/>
<text text-anchor="middle" x="747" y="-447.95" font-family="Times,serif" font-size="14.00">ApplicationRecord</text>
</g>
<!-- Bookmark -->
<g id="node7" class="node">
<title>Bookmark</title>
<ellipse fill="none" stroke="black" cx="500" cy="-195" rx="50.33" ry="18"/>
<text text-anchor="middle" x="500" y="-189.95" font-family="Times,serif" font-size="14.00">Bookmark</text>
</g>
<!-- Article&#45;&gt;Bookmark -->
<g id="edge8" class="edge">
<title>Article&#45;&gt;Bookmark</title>
<path fill="none" stroke="#5a2e9c" d="M500,-255.1C500,-245.06 500,-233.69 500,-223.63"/>
<polygon fill="#5a2e9c" stroke="#5a2e9c" points="500,-255.08 495.5,-265.08 500,-260.41 500,-264.74 500,-264.74 500,-264.74 500,-260.41 504.5,-265.08 500,-255.08"/>
<polygon fill="#5a2e9c" stroke="#5a2e9c" points="500,-223.68 504.5,-213.68 500,-218.35 500,-214.02 500,-214.02 500,-214.02 500,-218.35 495.5,-213.68 500,-223.68"/>
</g>
<!-- Category -->
<g id="node8" class="node">
<title>Category</title>
<ellipse fill="none" stroke="black" cx="233" cy="-195" rx="44.7" ry="18"/>
<text text-anchor="middle" x="233" y="-189.95" font-family="Times,serif" font-size="14.00">Category</text>
</g>
<!-- Article&#45;&gt;Category -->
<g id="edge11" class="edge">
<title>Article&#45;&gt;Category</title>
<path fill="none" stroke="#444218" d="M452.93,-281.83C409.29,-279.56 343.52,-271.89 292,-247.5 277.76,-240.76 264.32,-229.57 253.88,-219.34"/>
<polygon fill="#444218" stroke="#444218" points="452.93,-281.83 462.72,-286.76 458.26,-282.06 462.59,-282.25 462.59,-282.25 462.59,-282.25 458.26,-282.06 463.12,-277.77 452.93,-281.83"/>
<polygon fill="#444218" stroke="#444218" points="254.06,-219.52 250.29,-209.23 250.33,-215.71 247.3,-212.61 247.3,-212.61 247.3,-212.61 250.33,-215.71 243.85,-215.52 254.06,-219.52"/>
</g>
<!-- CategoryArticle -->
<g id="node9" class="node">
<title>CategoryArticle</title>
<ellipse fill="none" stroke="black" cx="184" cy="-106.5" rx="70.29" ry="18"/>
<text text-anchor="middle" x="184" y="-101.45" font-family="Times,serif" font-size="14.00">CategoryArticle</text>
</g>
<!-- Article&#45;&gt;CategoryArticle -->
<g id="edge10" class="edge">
<title>Article&#45;&gt;CategoryArticle</title>
<path fill="none" stroke="#864549" d="M453.49,-280.01C372.03,-274.51 209.31,-258.02 179,-213 163.55,-190.05 168.05,-157.5 174.35,-134.64"/>
<polygon fill="#864549" stroke="#864549" points="453.16,-279.99 462.85,-285.13 458.49,-280.34 462.81,-280.62 462.81,-280.62 462.81,-280.62 458.49,-280.34 463.43,-276.15 453.16,-279.99"/>
<polygon fill="#864549" stroke="#864549" points="174.31,-134.78 181.51,-126.52 175.85,-129.68 177.11,-125.53 177.11,-125.53 177.11,-125.53 175.85,-129.68 172.9,-123.91 174.31,-134.78"/>
</g>
<!-- Like -->
<g id="node12" class="node">
<title>Like</title>
<ellipse fill="none" stroke="black" cx="634" cy="-195" rx="27.81" ry="18"/>
<text text-anchor="middle" x="634" y="-189.95" font-family="Times,serif" font-size="14.00">Like</text>
</g>
<!-- Article&#45;&gt;Like -->
<g id="edge9" class="edge">
<title>Article&#45;&gt;Like</title>
<path fill="none" stroke="#a0f2f9" d="M541.76,-271.74C558.38,-266.19 577.06,-258.28 592,-247.5 602.17,-240.16 611.28,-229.77 618.39,-220.24"/>
<polygon fill="#a0f2f9" stroke="#a0f2f9" points="542.12,-271.62 531.23,-270.34 537.03,-273.23 532.9,-274.53 532.9,-274.53 532.9,-274.53 537.03,-273.23 533.93,-278.92 542.12,-271.62"/>
<polygon fill="#a0f2f9" stroke="#a0f2f9" points="618.36,-220.27 627.81,-214.71 621.45,-215.92 623.95,-212.38 623.95,-212.38 623.95,-212.38 621.45,-215.92 620.47,-209.51 618.36,-220.27"/>
</g>
<!-- Article&#45;&gt;User -->
<g id="edge7" class="edge">
<title>Article&#45;&gt;User</title>
<path fill="none" stroke="#b19c78" d="M525.57,-260.73C538.24,-248.23 552.25,-231.38 559,-213 568.29,-187.7 566.57,-156.63 563.43,-134.78"/>
<polygon fill="#b19c78" stroke="#b19c78" points="525.84,-260.47 515.48,-264.07 521.97,-264.14 518.82,-267.11 518.82,-267.11 518.82,-267.11 521.97,-264.14 521.66,-270.61 525.84,-260.47"/>
<polygon fill="#b19c78" stroke="#b19c78" points="563.43,-134.77 566.26,-124.17 562.57,-129.5 561.87,-125.23 561.87,-125.23 561.87,-125.23 562.57,-129.5 557.37,-125.63 563.43,-134.77"/>
</g>
<!-- Article&#45;&gt;ActiveStorage::Attachment -->
<g id="edge13" class="edge">
<title>Article&#45;&gt;ActiveStorage::Attachment</title>
<path fill="none" stroke="#f49919" d="M454.01,-277.49C413.2,-270.42 355.47,-253.49 325,-213 288.18,-164.08 293.91,-87.42 300.44,-46.65"/>
<polygon fill="#f49919" stroke="#f49919" points="454.05,-277.49 463.21,-283.51 459.31,-278.33 463.59,-279.01 463.59,-279.01 463.59,-279.01 459.31,-278.33 464.63,-274.62 454.05,-277.49"/>
<polygon fill="#f49919" stroke="#f49919" points="300.46,-46.58 306.6,-37.5 301.37,-41.32 302.11,-37.05 302.11,-37.05 302.11,-37.05 301.37,-41.32 297.74,-35.95 300.46,-46.58"/>
<text text-anchor="middle" x="344.38" y="-145.7" font-family="Times,serif" font-size="14.00">file_attachment</text>
</g>
<!-- Article&#45;&gt;ActiveStorage::Blob -->
<g id="edge14" class="edge">
<title>Article&#45;&gt;ActiveStorage::Blob</title>
<path fill="none" stroke="#2de24e" d="M545.99,-277.89C586.59,-271.1 643.47,-254.35 671,-213 704.99,-161.96 705.51,-86.74 702.83,-46.6"/>
<polygon fill="#2de24e" stroke="#2de24e" points="546,-277.89 535.44,-274.95 540.73,-278.69 536.45,-279.34 536.45,-279.34 536.45,-279.34 540.73,-278.69 536.8,-283.84 546,-277.89"/>
<polygon fill="#2de24e" stroke="#2de24e" points="702.83,-46.57 706.53,-36.25 702.41,-41.25 702.07,-36.93 702.07,-36.93 702.07,-36.93 702.41,-41.25 697.55,-36.95 702.83,-46.57"/>
<text text-anchor="middle" x="721.38" y="-145.7" font-family="Times,serif" font-size="14.00">file_blob</text>
</g>
<!-- Impression -->
<g id="node16" class="node">
<title>Impression</title>
<ellipse fill="none" stroke="black" cx="80" cy="-195" rx="52.38" ry="18"/>
<text text-anchor="middle" x="80" y="-189.95" font-family="Times,serif" font-size="14.00">Impression</text>
</g>
<!-- Article&#45;&gt;Impression -->
<g id="edge12" class="edge">
<title>Article&#45;&gt;Impression</title>
<path fill="none" stroke="#511e8f" d="M452.94,-281.09C369.8,-278.05 200.59,-269.34 146,-247.5 130.21,-241.18 115.07,-229.88 103.28,-219.47"/>
<polygon fill="#511e8f" stroke="#511e8f" points="453.03,-281.09 462.86,-285.94 458.36,-281.28 462.69,-281.43 462.69,-281.43 462.69,-281.43 458.36,-281.28 463.18,-276.94 453.03,-281.09"/>
<polygon fill="#511e8f" stroke="#511e8f" points="103.29,-219.48 98.98,-209.4 99.37,-215.87 96.18,-212.94 96.18,-212.94 96.18,-212.94 99.37,-215.87 92.88,-216.02 103.29,-219.48"/>
</g>
<!-- Bookmark&#45;&gt;User -->
<g id="edge15" class="edge">
<title>Bookmark&#45;&gt;User</title>
<path fill="none" stroke="#f799c7" d="M516.94,-168.74C524.66,-157.22 533.77,-143.63 541.45,-132.18"/>
<polygon fill="#f799c7" stroke="#f799c7" points="516.94,-168.74 507.63,-174.54 513.97,-173.17 511.56,-176.77 511.56,-176.77 511.56,-176.77 513.97,-173.17 515.11,-179.55 516.94,-168.74"/>
<polygon fill="#f799c7" stroke="#f799c7" points="541.49,-132.13 550.79,-126.33 544.46,-127.69 546.87,-124.1 546.87,-124.1 546.87,-124.1 544.46,-127.69 543.32,-121.31 541.49,-132.13"/>
</g>
<!-- Category&#45;&gt;CategoryArticle -->
<g id="edge16" class="edge">
<title>Category&#45;&gt;CategoryArticle</title>
<path fill="none" stroke="#73cf5c" d="M218.59,-168.57C212.34,-157.54 205.03,-144.63 198.75,-133.53"/>
<polygon fill="#73cf5c" stroke="#73cf5c" points="218.46,-168.33 219.47,-179.25 221.09,-172.97 223.22,-176.74 223.22,-176.74 223.22,-176.74 221.09,-172.97 227.3,-174.81 218.46,-168.33"/>
<polygon fill="#73cf5c" stroke="#73cf5c" points="198.85,-133.71 197.83,-122.79 196.22,-129.07 194.08,-125.3 194.08,-125.3 194.08,-125.3 196.22,-129.07 190,-127.23 198.85,-133.71"/>
</g>
<!-- Company -->
<g id="node10" class="node">
<title>Company</title>
<ellipse fill="none" stroke="black" cx="893" cy="-453" rx="47.26" ry="18"/>
<text text-anchor="middle" x="893" y="-447.95" font-family="Times,serif" font-size="14.00">Company</text>
</g>
<!-- Employee -->
<g id="node11" class="node">
<title>Employee</title>
<ellipse fill="none" stroke="black" cx="383" cy="-195" rx="48.79" ry="18"/>
<text text-anchor="middle" x="383" y="-189.95" font-family="Times,serif" font-size="14.00">Employee</text>
</g>
<!-- Employee&#45;&gt;User -->
<g id="edge17" class="edge">
<title>Employee&#45;&gt;User</title>
<path fill="none" stroke="#b89f60" d="M420.53,-175.45C452.31,-159.74 497.32,-137.49 527.07,-122.79"/>
<polygon fill="#b89f60" stroke="#b89f60" points="420.77,-175.33 409.81,-175.73 415.99,-177.69 412.11,-179.61 412.11,-179.61 412.11,-179.61 415.99,-177.69 413.8,-183.8 420.77,-175.33"/>
<polygon fill="#b89f60" stroke="#b89f60" points="526.89,-122.88 537.85,-122.48 531.67,-120.52 535.55,-118.6 535.55,-118.6 535.55,-118.6 531.67,-120.52 533.86,-114.41 526.89,-122.88"/>
</g>
<!-- Like&#45;&gt;User -->
<g id="edge18" class="edge">
<title>Like&#45;&gt;User</title>
<path fill="none" stroke="#98c087" d="M615.41,-170.33C608.26,-161.46 599.91,-151.38 592,-142.5 588.2,-138.23 584.04,-133.78 579.97,-129.54"/>
<polygon fill="#98c087" stroke="#98c087" points="615.39,-170.31 618.12,-180.93 618.72,-174.48 621.43,-177.86 621.43,-177.86 621.43,-177.86 618.72,-174.48 625.15,-175.32 615.39,-170.31"/>
<polygon fill="#98c087" stroke="#98c087" points="580.06,-129.63 576.31,-119.32 576.34,-125.8 573.32,-122.7 573.32,-122.7 573.32,-122.7 576.34,-125.8 569.86,-125.59 580.06,-129.63"/>
</g>
<!-- User&#45;&gt;ActiveStorage::Attachment -->
<g id="edge20" class="edge">
<title>User&#45;&gt;ActiveStorage::Attachment</title>
<path fill="none" stroke="#dde78a" d="M523.26,-94.19C502.6,-87.41 475.89,-78.57 452.25,-70.5 421.73,-60.08 387.76,-48.13 360.23,-38.37"/>
<polygon fill="#dde78a" stroke="#dde78a" points="523.35,-94.21 531.45,-101.6 528.42,-95.87 532.53,-97.22 532.53,-97.22 532.53,-97.22 528.42,-95.87 534.25,-93.05 523.35,-94.21"/>
<polygon fill="#dde78a" stroke="#dde78a" points="360.14,-38.34 352.23,-30.75 355.12,-36.56 351.04,-35.11 351.04,-35.11 351.04,-35.11 355.12,-36.56 349.22,-39.24 360.14,-38.34"/>
<text text-anchor="middle" x="502.88" y="-57.2" font-family="Times,serif" font-size="14.00">avatar_attachment</text>
</g>
<!-- User&#45;&gt;ActiveStorage::Blob -->
<g id="edge21" class="edge">
<title>User&#45;&gt;ActiveStorage::Blob</title>
<path fill="none" stroke="#e5944f" d="M578.14,-82.81C587.74,-73 599.82,-61.96 612.25,-54 622.08,-47.71 633.22,-42.21 644.19,-37.55"/>
<polygon fill="#e5944f" stroke="#e5944f" points="578.12,-82.83 567.98,-87.01 574.46,-86.71 571.48,-89.86 571.48,-89.86 571.48,-89.86 574.46,-86.71 574.52,-93.19 578.12,-82.83"/>
<polygon fill="#e5944f" stroke="#e5944f" points="644.17,-37.56 655.13,-37.97 649.12,-35.55 653.13,-33.92 653.13,-33.92 653.13,-33.92 649.12,-35.55 651.75,-29.63 644.17,-37.56"/>
<text text-anchor="middle" x="643.88" y="-57.2" font-family="Times,serif" font-size="14.00">avatar_blob</text>
</g>
<!-- Rolable -->
<g id="node17" class="node">
<title>Rolable</title>
<ellipse fill="none" stroke="black" cx="556" cy="-18" rx="39.58" ry="18"/>
<text text-anchor="middle" x="556" y="-12.95" font-family="Times,serif" font-size="14.00">Rolable</text>
</g>
<!-- User&#45;&gt;Rolable -->
<g id="edge19" class="edge">
<title>User&#45;&gt;Rolable</title>
<path fill="none" stroke="#a9a736" d="M557.37,-78.1C557.13,-68.06 556.87,-56.69 556.64,-46.63"/>
<polygon fill="#a9a736" stroke="#a9a736" points="557.37,-78.08 553.1,-88.18 557.49,-83.41 557.59,-87.74 557.59,-87.74 557.59,-87.74 557.49,-83.41 562.1,-87.97 557.37,-78.08"/>
<polygon fill="#a9a736" stroke="#a9a736" points="556.64,-46.68 560.91,-36.58 556.52,-41.35 556.42,-37.02 556.42,-37.02 556.42,-37.02 556.52,-41.35 551.91,-36.79 556.64,-46.68"/>
</g>
</g>
</svg>
