<?xml version="1.0" encoding="UTF-8" standalone="no"?>
<!DOCTYPE svg PUBLIC "-//W3C//DTD SVG 1.1//EN"
 "http://www.w3.org/Graphics/SVG/1.1/DTD/svg11.dtd">
<!-- Generated by graphviz version 9.0.0 (20230911.1827)
 -->
<!-- Title: models_diagram Pages: 1 -->
<svg width="1625pt" height="1351pt"
 viewBox="0.00 0.00 1625.25 1350.50" xmlns="http://www.w3.org/2000/svg" xmlns:xlink="http://www.w3.org/1999/xlink">
<g id="graph0" class="graph" transform="scale(1 1) rotate(0) translate(4 1346.5)">
<title>models_diagram</title>
<polygon fill="none" stroke="none" points="-4,4 -4,-1346.5 1621.25,-1346.5 1621.25,4 -4,4"/>
<!-- _diagram_info -->
<g id="node1" class="node">
<title>_diagram_info</title>
<text text-anchor="start" x="315.38" y="-1260.15" font-family="Times,serif" font-size="13.00">Models diagram</text>
<text text-anchor="start" x="315.38" y="-1245.15" font-family="Times,serif" font-size="13.00">Date: Apr 19 2024 &#45; 09:09</text>
<text text-anchor="start" x="315.38" y="-1230.15" font-family="Times,serif" font-size="13.00">Migration version: 20240418141757</text>
<text text-anchor="start" x="315.38" y="-1215.15" font-family="Times,serif" font-size="13.00">Generated by RailRoady 1.6.0</text>
<text text-anchor="start" x="315.38" y="-1200.15" font-family="Times,serif" font-size="13.00">http://railroady.prestonlee.com</text>
</g>
<!-- Ability -->
<g id="node2" class="node">
<title>Ability</title>
<polygon fill="none" stroke="black" points="538.88,-1210.5 538.88,-1259.5 593.12,-1259.5 593.12,-1210.5 538.88,-1210.5"/>
<text text-anchor="middle" x="566" y="-1242.2" font-family="Times,serif" font-size="14.00">Ability</text>
<polyline fill="none" stroke="black" points="538.88,-1235 593.12,-1235"/>
<text text-anchor="middle" x="566" y="-1217.7" font-family="Times,serif" font-size="14.00"> </text>
</g>
<!-- Applicant -->
<g id="node3" class="node">
<title>Applicant</title>
<path fill="none" stroke="black" d="M623.5,-1128C623.5,-1128 858.5,-1128 858.5,-1128 864.5,-1128 870.5,-1134 870.5,-1140 870.5,-1140 870.5,-1330 870.5,-1330 870.5,-1336 864.5,-1342 858.5,-1342 858.5,-1342 623.5,-1342 623.5,-1342 617.5,-1342 611.5,-1336 611.5,-1330 611.5,-1330 611.5,-1140 611.5,-1140 611.5,-1134 617.5,-1128 623.5,-1128"/>
<text text-anchor="middle" x="741" y="-1324.7" font-family="Times,serif" font-size="14.00">Applicant</text>
<polyline fill="none" stroke="black" points="611.5,-1317.5 870.5,-1317.5"/>
<text text-anchor="start" x="619.5" y="-1300.2" font-family="Times,serif" font-size="14.00">desired_salary :text</text>
<text text-anchor="start" x="619.5" y="-1283.7" font-family="Times,serif" font-size="14.00">name :character varying</text>
<text text-anchor="start" x="619.5" y="-1267.2" font-family="Times,serif" font-size="14.00">user_id :integer</text>
<text text-anchor="start" x="619.5" y="-1250.7" font-family="Times,serif" font-size="14.00">created_at :timestamp(6) without time zone</text>
<text text-anchor="start" x="619.5" y="-1234.2" font-family="Times,serif" font-size="14.00">updated_at :timestamp(6) without time zone</text>
<text text-anchor="start" x="619.5" y="-1217.7" font-family="Times,serif" font-size="14.00">birthday :date</text>
<text text-anchor="start" x="619.5" y="-1201.2" font-family="Times,serif" font-size="14.00">age :integer</text>
<text text-anchor="start" x="619.5" y="-1184.7" font-family="Times,serif" font-size="14.00">nationality :integer</text>
<text text-anchor="start" x="619.5" y="-1168.2" font-family="Times,serif" font-size="14.00">phone_number :integer</text>
<text text-anchor="start" x="619.5" y="-1151.7" font-family="Times,serif" font-size="14.00">self_introduction :text</text>
<text text-anchor="start" x="619.5" y="-1135.2" font-family="Times,serif" font-size="14.00">id :bigint</text>
</g>
<!-- ApplicantArticle -->
<g id="node4" class="node">
<title>ApplicantArticle</title>
<path fill="none" stroke="black" d="M623.5,-975C623.5,-975 858.5,-975 858.5,-975 864.5,-975 870.5,-981 870.5,-987 870.5,-987 870.5,-1078 870.5,-1078 870.5,-1084 864.5,-1090 858.5,-1090 858.5,-1090 623.5,-1090 623.5,-1090 617.5,-1090 611.5,-1084 611.5,-1078 611.5,-1078 611.5,-987 611.5,-987 611.5,-981 617.5,-975 623.5,-975"/>
<text text-anchor="middle" x="741" y="-1072.7" font-family="Times,serif" font-size="14.00">ApplicantArticle</text>
<polyline fill="none" stroke="black" points="611.5,-1065.5 870.5,-1065.5"/>
<text text-anchor="start" x="619.5" y="-1048.2" font-family="Times,serif" font-size="14.00">id :bigint</text>
<text text-anchor="start" x="619.5" y="-1031.7" font-family="Times,serif" font-size="14.00">applicant_id :bigint</text>
<text text-anchor="start" x="619.5" y="-1015.2" font-family="Times,serif" font-size="14.00">article_id :bigint</text>
<text text-anchor="start" x="619.5" y="-998.7" font-family="Times,serif" font-size="14.00">created_at :timestamp(6) without time zone</text>
<text text-anchor="start" x="619.5" y="-982.2" font-family="Times,serif" font-size="14.00">updated_at :timestamp(6) without time zone</text>
</g>
<!-- Applicant&#45;&gt;ApplicantArticle -->
<g id="edge1" class="edge">
<title>Applicant&#45;&gt;ApplicantArticle</title>
<path fill="none" stroke="#b6f73a" d="M741,-1117.4C741,-1111.71 741,-1106.1 741,-1100.63"/>
<polygon fill="#b6f73a" stroke="#b6f73a" points="741,-1117.25 736.5,-1127.25 741,-1122.59 741,-1126.92 741,-1126.92 741,-1126.92 741,-1122.59 745.5,-1127.25 741,-1117.25"/>
<polygon fill="#b6f73a" stroke="#b6f73a" points="741,-1100.65 745.5,-1090.65 741,-1095.32 741,-1090.99 741,-1090.99 741,-1090.99 741,-1095.32 736.5,-1090.65 741,-1100.65"/>
</g>
<!-- Article -->
<g id="node6" class="node">
<title>Article</title>
<path fill="none" stroke="black" d="M781.5,-459C781.5,-459 1016.5,-459 1016.5,-459 1022.5,-459 1028.5,-465 1028.5,-471 1028.5,-471 1028.5,-925 1028.5,-925 1028.5,-931 1022.5,-937 1016.5,-937 1016.5,-937 781.5,-937 781.5,-937 775.5,-937 769.5,-931 769.5,-925 769.5,-925 769.5,-471 769.5,-471 769.5,-465 775.5,-459 781.5,-459"/>
<text text-anchor="middle" x="899" y="-919.7" font-family="Times,serif" font-size="14.00">Article</text>
<polyline fill="none" stroke="black" points="769.5,-912.5 1028.5,-912.5"/>
<text text-anchor="start" x="777.5" y="-895.2" font-family="Times,serif" font-size="14.00">status :integer</text>
<text text-anchor="start" x="777.5" y="-878.7" font-family="Times,serif" font-size="14.00">body :text</text>
<text text-anchor="start" x="777.5" y="-862.2" font-family="Times,serif" font-size="14.00">user_id :bigint</text>
<text text-anchor="start" x="777.5" y="-845.7" font-family="Times,serif" font-size="14.00">created_at :timestamp(6) without time zone</text>
<text text-anchor="start" x="777.5" y="-829.2" font-family="Times,serif" font-size="14.00">updated_at :timestamp(6) without time zone</text>
<text text-anchor="start" x="777.5" y="-812.7" font-family="Times,serif" font-size="14.00">impressions_count :integer</text>
<text text-anchor="start" x="777.5" y="-796.2" font-family="Times,serif" font-size="14.00">start_time :timestamp(6) without time zone</text>
<text text-anchor="start" x="777.5" y="-779.7" font-family="Times,serif" font-size="14.00">end_time :timestamp(6) without time zone</text>
<text text-anchor="start" x="777.5" y="-763.2" font-family="Times,serif" font-size="14.00">title :character varying</text>
<text text-anchor="start" x="777.5" y="-746.7" font-family="Times,serif" font-size="14.00">application_deadline :date</text>
<text text-anchor="start" x="777.5" y="-730.2" font-family="Times,serif" font-size="14.00">salary_details :text</text>
<text text-anchor="start" x="777.5" y="-713.7" font-family="Times,serif" font-size="14.00">work_location :character varying</text>
<text text-anchor="start" x="777.5" y="-697.2" font-family="Times,serif" font-size="14.00">language_requirement :character varying</text>
<text text-anchor="start" x="777.5" y="-680.7" font-family="Times,serif" font-size="14.00">japanese_level :character varying</text>
<text text-anchor="start" x="777.5" y="-664.2" font-family="Times,serif" font-size="14.00">skills_required :text</text>
<text text-anchor="start" x="777.5" y="-647.7" font-family="Times,serif" font-size="14.00">employment_type :character varying</text>
<text text-anchor="start" x="777.5" y="-631.2" font-family="Times,serif" font-size="14.00">description :text</text>
<text text-anchor="start" x="777.5" y="-614.7" font-family="Times,serif" font-size="14.00">work_hours :character varying</text>
<text text-anchor="start" x="777.5" y="-598.2" font-family="Times,serif" font-size="14.00">trial_period :character varying</text>
<text text-anchor="start" x="777.5" y="-581.7" font-family="Times,serif" font-size="14.00">days_off :character varying</text>
<text text-anchor="start" x="777.5" y="-565.2" font-family="Times,serif" font-size="14.00">overtime :character varying</text>
<text text-anchor="start" x="777.5" y="-548.7" font-family="Times,serif" font-size="14.00">transportation :character varying</text>
<text text-anchor="start" x="777.5" y="-532.2" font-family="Times,serif" font-size="14.00">work_environment :character varying</text>
<text text-anchor="start" x="777.5" y="-515.7" font-family="Times,serif" font-size="14.00">other_allowances :character varying</text>
<text text-anchor="start" x="777.5" y="-499.2" font-family="Times,serif" font-size="14.00">insurance :character varying</text>
<text text-anchor="start" x="777.5" y="-482.7" font-family="Times,serif" font-size="14.00">other_benefits :character varying</text>
<text text-anchor="start" x="777.5" y="-466.2" font-family="Times,serif" font-size="14.00">id :bigint</text>
</g>
<!-- Applicant&#45;&gt;Article -->
<g id="edge2" class="edge">
<title>Applicant&#45;&gt;Article</title>
<path fill="none" stroke="#956978" d="M863.33,-1119.44C869.36,-1110.13 874.69,-1100.46 879,-1090.5 898.15,-1046.26 908.23,-996.52 912.8,-947.72"/>
<polygon fill="#956978" stroke="#956978" points="863.41,-1119.33 854.07,-1125.08 860.41,-1123.75 857.98,-1127.33 857.98,-1127.33 857.98,-1127.33 860.41,-1123.75 861.52,-1130.13 863.41,-1119.33"/>
<polygon fill="#956978" stroke="#956978" points="912.81,-947.62 918.15,-938.05 913.26,-942.31 913.63,-937.99 913.63,-937.99 913.63,-937.99 913.26,-942.31 909.18,-937.28 912.81,-947.62"/>
</g>
<!-- User -->
<g id="node13" class="node">
<title>User</title>
<path fill="none" stroke="black" d="M438.5,-89C438.5,-89 673.5,-89 673.5,-89 679.5,-89 685.5,-95 685.5,-101 685.5,-101 685.5,-225 685.5,-225 685.5,-231 679.5,-237 673.5,-237 673.5,-237 438.5,-237 438.5,-237 432.5,-237 426.5,-231 426.5,-225 426.5,-225 426.5,-101 426.5,-101 426.5,-95 432.5,-89 438.5,-89"/>
<text text-anchor="middle" x="556" y="-219.7" font-family="Times,serif" font-size="14.00">User</text>
<polyline fill="none" stroke="black" points="426.5,-212.5 685.5,-212.5"/>
<text text-anchor="start" x="434.5" y="-195.2" font-family="Times,serif" font-size="14.00">id :bigint</text>
<text text-anchor="start" x="434.5" y="-178.7" font-family="Times,serif" font-size="14.00">email :character varying</text>
<text text-anchor="start" x="434.5" y="-162.2" font-family="Times,serif" font-size="14.00">created_at :timestamp(6) without time zone</text>
<text text-anchor="start" x="434.5" y="-145.7" font-family="Times,serif" font-size="14.00">updated_at :timestamp(6) without time zone</text>
<text text-anchor="start" x="434.5" y="-129.2" font-family="Times,serif" font-size="14.00">role :integer</text>
<text text-anchor="start" x="434.5" y="-112.7" font-family="Times,serif" font-size="14.00">username :character varying</text>
<text text-anchor="start" x="434.5" y="-96.2" font-family="Times,serif" font-size="14.00">avatar :character varying</text>
</g>
<!-- Applicant&#45;&gt;User -->
<g id="edge3" class="edge">
<title>Applicant&#45;&gt;User</title>
<path fill="none" stroke="#ad90da" d="M601.44,-1127.99C479.36,-1085.29 110,-1141.77 110,-1033.5 110,-1033.5 110,-1033.5 110,-347 110,-320.3 109.79,-308.55 129,-290 205.63,-215.99 323.52,-185.15 416.04,-172.45"/>
<polygon fill="#ad90da" stroke="#ad90da" points="601.53,-1128.02 609.16,-1135.89 606.48,-1129.99 610.51,-1131.58 610.51,-1131.58 610.51,-1131.58 606.48,-1129.99 612.48,-1127.52 601.53,-1128.02"/>
<polygon fill="#ad90da" stroke="#ad90da" points="416.08,-172.44 426.58,-175.6 421.37,-171.75 425.67,-171.18 425.67,-171.18 425.67,-171.18 421.37,-171.75 425.41,-166.68 416.08,-172.44"/>
</g>
<!-- ActiveStorage::Attachment -->
<g id="node14" class="node">
<title>ActiveStorage::Attachment</title>
<ellipse fill="none" stroke="black" cx="389" cy="-18" rx="112.26" ry="18"/>
<text text-anchor="middle" x="389" y="-12.95" font-family="Times,serif" font-size="14.00">ActiveStorage::Attachment</text>
</g>
<!-- Applicant&#45;&gt;ActiveStorage::Attachment -->
<g id="edge4" class="edge">
<title>Applicant&#45;&gt;ActiveStorage::Attachment</title>
<path fill="none" stroke="#57467b" d="M601.67,-1128.05C454.36,-1083.19 0,-1165.86 0,-1033.5 0,-1033.5 0,-1033.5 0,-162 0,-98.27 186.28,-54.26 301.03,-33.2"/>
<polygon fill="#57467b" stroke="#57467b" points="601.55,-1128.01 609.56,-1135.5 606.6,-1129.73 610.7,-1131.13 610.7,-1131.13 610.7,-1131.13 606.6,-1129.73 612.47,-1126.98 601.55,-1128.01"/>
<polygon fill="#57467b" stroke="#57467b" points="301.05,-33.2 311.69,-35.85 306.29,-32.25 310.56,-31.48 310.56,-31.48 310.56,-31.48 306.29,-32.25 310.08,-26.99 301.05,-33.2"/>
<text text-anchor="middle" x="47.62" y="-427.2" font-family="Times,serif" font-size="14.00">files_attachments</text>
</g>
<!-- ActiveStorage::Blob -->
<g id="node15" class="node">
<title>ActiveStorage::Blob</title>
<ellipse fill="none" stroke="black" cx="1494" cy="-18" rx="86.67" ry="18"/>
<text text-anchor="middle" x="1494" y="-12.95" font-family="Times,serif" font-size="14.00">ActiveStorage::Blob</text>
</g>
<!-- Applicant&#45;&gt;ActiveStorage::Blob -->
<g id="edge5" class="edge">
<title>Applicant&#45;&gt;ActiveStorage::Blob</title>
<path fill="none" stroke="#a10b78" d="M880.46,-1127.98C1042.18,-1073.53 1558,-1182.49 1558,-1033.5 1558,-1033.5 1558,-1033.5 1558,-162 1558,-117.58 1531.95,-71.63 1513.09,-44.19"/>
<polygon fill="#a10b78" stroke="#a10b78" points="880.45,-1127.98 869.5,-1127.29 875.45,-1129.86 871.4,-1131.38 871.4,-1131.38 871.4,-1131.38 875.45,-1129.86 872.67,-1135.71 880.45,-1127.98"/>
<polygon fill="#a10b78" stroke="#a10b78" points="1513.23,-44.39 1511.13,-33.63 1510.15,-40.03 1507.65,-36.5 1507.65,-36.5 1507.65,-36.5 1510.15,-40.03 1503.78,-38.83 1513.23,-44.39"/>
<text text-anchor="middle" x="1587.62" y="-427.2" font-family="Times,serif" font-size="14.00">files_blobs</text>
</g>
<!-- ApplicantArticle&#45;&gt;Article -->
<g id="edge6" class="edge">
<title>ApplicantArticle&#45;&gt;Article</title>
<path fill="none" stroke="#ceef37" d="M772.42,-965.38C775.31,-959.3 778.33,-952.94 781.46,-946.36"/>
<polygon fill="#ceef37" stroke="#ceef37" points="772.42,-965.38 764.06,-972.49 770.13,-970.2 768.27,-974.11 768.27,-974.11 768.27,-974.11 770.13,-970.2 772.19,-976.35 772.42,-965.38"/>
<polygon fill="#ceef37" stroke="#ceef37" points="781.35,-946.58 789.71,-939.48 783.64,-941.76 785.5,-937.85 785.5,-937.85 785.5,-937.85 783.64,-941.76 781.58,-935.62 781.35,-946.58"/>
</g>
<!-- ApplicationRecord -->
<g id="node5" class="node">
<title>ApplicationRecord</title>
<ellipse fill="none" stroke="black" cx="970" cy="-1235" rx="81.04" ry="18"/>
<text text-anchor="middle" x="970" y="-1229.95" font-family="Times,serif" font-size="14.00">ApplicationRecord</text>
</g>
<!-- Bookmark -->
<g id="node7" class="node">
<title>Bookmark</title>
<path fill="none" stroke="black" d="M781.5,-290.5C781.5,-290.5 1016.5,-290.5 1016.5,-290.5 1022.5,-290.5 1028.5,-296.5 1028.5,-302.5 1028.5,-302.5 1028.5,-393.5 1028.5,-393.5 1028.5,-399.5 1022.5,-405.5 1016.5,-405.5 1016.5,-405.5 781.5,-405.5 781.5,-405.5 775.5,-405.5 769.5,-399.5 769.5,-393.5 769.5,-393.5 769.5,-302.5 769.5,-302.5 769.5,-296.5 775.5,-290.5 781.5,-290.5"/>
<text text-anchor="middle" x="899" y="-388.2" font-family="Times,serif" font-size="14.00">Bookmark</text>
<polyline fill="none" stroke="black" points="769.5,-381 1028.5,-381"/>
<text text-anchor="start" x="777.5" y="-363.7" font-family="Times,serif" font-size="14.00">id :bigint</text>
<text text-anchor="start" x="777.5" y="-347.2" font-family="Times,serif" font-size="14.00">user_id :bigint</text>
<text text-anchor="start" x="777.5" y="-330.7" font-family="Times,serif" font-size="14.00">article_id :bigint</text>
<text text-anchor="start" x="777.5" y="-314.2" font-family="Times,serif" font-size="14.00">created_at :timestamp(6) without time zone</text>
<text text-anchor="start" x="777.5" y="-297.7" font-family="Times,serif" font-size="14.00">updated_at :timestamp(6) without time zone</text>
</g>
<!-- Article&#45;&gt;Bookmark -->
<g id="edge8" class="edge">
<title>Article&#45;&gt;Bookmark</title>
<path fill="none" stroke="#dac42e" d="M899,-448.42C899,-437.04 899,-426.19 899,-416.11"/>
<polygon fill="#dac42e" stroke="#dac42e" points="899,-448.3 894.5,-458.3 899,-453.63 899,-457.96 899,-457.96 899,-457.96 899,-453.63 903.5,-458.3 899,-448.3"/>
<polygon fill="#dac42e" stroke="#dac42e" points="899,-416.24 903.5,-406.24 899,-410.91 899,-406.57 899,-406.57 899,-406.57 899,-410.91 894.5,-406.24 899,-416.24"/>
</g>
<!-- Category -->
<g id="node8" class="node">
<title>Category</title>
<path fill="none" stroke="black" d="M1058.5,-298.75C1058.5,-298.75 1293.5,-298.75 1293.5,-298.75 1299.5,-298.75 1305.5,-304.75 1305.5,-310.75 1305.5,-310.75 1305.5,-385.25 1305.5,-385.25 1305.5,-391.25 1299.5,-397.25 1293.5,-397.25 1293.5,-397.25 1058.5,-397.25 1058.5,-397.25 1052.5,-397.25 1046.5,-391.25 1046.5,-385.25 1046.5,-385.25 1046.5,-310.75 1046.5,-310.75 1046.5,-304.75 1052.5,-298.75 1058.5,-298.75"/>
<text text-anchor="middle" x="1176" y="-379.95" font-family="Times,serif" font-size="14.00">Category</text>
<polyline fill="none" stroke="black" points="1046.5,-372.75 1305.5,-372.75"/>
<text text-anchor="start" x="1054.5" y="-355.45" font-family="Times,serif" font-size="14.00">id :bigint</text>
<text text-anchor="start" x="1054.5" y="-338.95" font-family="Times,serif" font-size="14.00">name :character varying</text>
<text text-anchor="start" x="1054.5" y="-322.45" font-family="Times,serif" font-size="14.00">created_at :timestamp(6) without time zone</text>
<text text-anchor="start" x="1054.5" y="-305.95" font-family="Times,serif" font-size="14.00">updated_at :timestamp(6) without time zone</text>
</g>
<!-- Article&#45;&gt;Category -->
<g id="edge11" class="edge">
<title>Article&#45;&gt;Category</title>
<path fill="none" stroke="#938447" d="M1035.47,-525.55C1069.95,-482.24 1104.59,-438.71 1130.85,-405.72"/>
<polygon fill="#938447" stroke="#938447" points="1035.42,-525.61 1025.67,-530.63 1032.1,-529.79 1029.4,-533.18 1029.4,-533.18 1029.4,-533.18 1032.1,-529.79 1032.71,-536.24 1035.42,-525.61"/>
<polygon fill="#938447" stroke="#938447" points="1130.91,-405.65 1140.66,-400.63 1134.23,-401.47 1136.93,-398.09 1136.93,-398.09 1136.93,-398.09 1134.23,-401.47 1133.62,-395.02 1130.91,-405.65"/>
</g>
<!-- CategoryArticle -->
<g id="node9" class="node">
<title>CategoryArticle</title>
<path fill="none" stroke="black" d="M1138.5,-105.5C1138.5,-105.5 1373.5,-105.5 1373.5,-105.5 1379.5,-105.5 1385.5,-111.5 1385.5,-117.5 1385.5,-117.5 1385.5,-208.5 1385.5,-208.5 1385.5,-214.5 1379.5,-220.5 1373.5,-220.5 1373.5,-220.5 1138.5,-220.5 1138.5,-220.5 1132.5,-220.5 1126.5,-214.5 1126.5,-208.5 1126.5,-208.5 1126.5,-117.5 1126.5,-117.5 1126.5,-111.5 1132.5,-105.5 1138.5,-105.5"/>
<text text-anchor="middle" x="1256" y="-203.2" font-family="Times,serif" font-size="14.00">CategoryArticle</text>
<polyline fill="none" stroke="black" points="1126.5,-196 1385.5,-196"/>
<text text-anchor="start" x="1134.5" y="-178.7" font-family="Times,serif" font-size="14.00">id :bigint</text>
<text text-anchor="start" x="1134.5" y="-162.2" font-family="Times,serif" font-size="14.00">category_id :bigint</text>
<text text-anchor="start" x="1134.5" y="-145.7" font-family="Times,serif" font-size="14.00">article_id :bigint</text>
<text text-anchor="start" x="1134.5" y="-129.2" font-family="Times,serif" font-size="14.00">created_at :timestamp(6) without time zone</text>
<text text-anchor="start" x="1134.5" y="-112.7" font-family="Times,serif" font-size="14.00">updated_at :timestamp(6) without time zone</text>
</g>
<!-- Article&#45;&gt;CategoryArticle -->
<g id="edge10" class="edge">
<title>Article&#45;&gt;CategoryArticle</title>
<path fill="none" stroke="#eed6b8" d="M1038.87,-664.64C1167.7,-626.61 1351.43,-549.58 1437,-406 1463.4,-361.71 1460.87,-335.7 1437,-290 1424.05,-265.22 1403.76,-244.32 1381.37,-227.11"/>
<polygon fill="#eed6b8" stroke="#eed6b8" points="1038.84,-664.65 1027.98,-663.12 1033.72,-666.14 1029.56,-667.35 1029.56,-667.35 1029.56,-667.35 1033.72,-666.14 1030.49,-671.77 1038.84,-664.65"/>
<polygon fill="#eed6b8" stroke="#eed6b8" points="1381.34,-227.08 1375.99,-217.51 1377.06,-223.91 1373.58,-221.33 1373.58,-221.33 1373.58,-221.33 1377.06,-223.91 1370.63,-224.75 1381.34,-227.08"/>
</g>
<!-- Like -->
<g id="node12" class="node">
<title>Like</title>
<path fill="none" stroke="black" d="M504.5,-290.5C504.5,-290.5 739.5,-290.5 739.5,-290.5 745.5,-290.5 751.5,-296.5 751.5,-302.5 751.5,-302.5 751.5,-393.5 751.5,-393.5 751.5,-399.5 745.5,-405.5 739.5,-405.5 739.5,-405.5 504.5,-405.5 504.5,-405.5 498.5,-405.5 492.5,-399.5 492.5,-393.5 492.5,-393.5 492.5,-302.5 492.5,-302.5 492.5,-296.5 498.5,-290.5 504.5,-290.5"/>
<text text-anchor="middle" x="622" y="-388.2" font-family="Times,serif" font-size="14.00">Like</text>
<polyline fill="none" stroke="black" points="492.5,-381 751.5,-381"/>
<text text-anchor="start" x="500.5" y="-363.7" font-family="Times,serif" font-size="14.00">id :bigint</text>
<text text-anchor="start" x="500.5" y="-347.2" font-family="Times,serif" font-size="14.00">user_id :bigint</text>
<text text-anchor="start" x="500.5" y="-330.7" font-family="Times,serif" font-size="14.00">article_id :bigint</text>
<text text-anchor="start" x="500.5" y="-314.2" font-family="Times,serif" font-size="14.00">created_at :timestamp(6) without time zone</text>
<text text-anchor="start" x="500.5" y="-297.7" font-family="Times,serif" font-size="14.00">updated_at :timestamp(6) without time zone</text>
</g>
<!-- Article&#45;&gt;Like -->
<g id="edge9" class="edge">
<title>Article&#45;&gt;Like</title>
<path fill="none" stroke="#809376" d="M762.59,-525.62C730.82,-485.71 698.9,-445.62 673.53,-413.74"/>
<polygon fill="#809376" stroke="#809376" points="762.58,-525.61 765.29,-536.24 765.9,-529.79 768.6,-533.18 768.6,-533.18 768.6,-533.18 765.9,-529.79 772.33,-530.63 762.58,-525.61"/>
<polygon fill="#809376" stroke="#809376" points="673.66,-413.9 670.95,-403.28 670.34,-409.73 667.64,-406.34 667.64,-406.34 667.64,-406.34 670.34,-409.73 663.91,-408.88 673.66,-413.9"/>
</g>
<!-- Article&#45;&gt;User -->
<g id="edge7" class="edge">
<title>Article&#45;&gt;User</title>
<path fill="none" stroke="#f69b1e" d="M759.72,-641.47C662.77,-594.57 540.88,-517.13 483,-406 456.86,-355.82 475.57,-294.79 500.58,-246.58"/>
<polygon fill="#f69b1e" stroke="#f69b1e" points="759.7,-641.46 766.78,-649.83 764.51,-643.76 768.42,-645.63 768.42,-645.63 768.42,-645.63 764.51,-643.76 770.66,-641.71 759.7,-641.46"/>
<polygon fill="#f69b1e" stroke="#f69b1e" points="500.61,-246.53 509.3,-239.84 503.13,-241.83 505.17,-238.01 505.17,-238.01 505.17,-238.01 503.13,-241.83 501.36,-235.59 500.61,-246.53"/>
</g>
<!-- Article&#45;&gt;ActiveStorage::Attachment -->
<g id="edge13" class="edge">
<title>Article&#45;&gt;ActiveStorage::Attachment</title>
<path fill="none" stroke="#a83d00" d="M760.22,-628.12C676.39,-582.27 570.71,-516.58 491,-440.5 449.65,-401.04 406.71,-293.19 401.25,-272 380.67,-192.17 383.66,-93.58 386.74,-46.52"/>
<polygon fill="#a83d00" stroke="#a83d00" points="760.22,-628.12 766.85,-636.85 764.9,-630.67 768.71,-632.73 768.71,-632.73 768.71,-632.73 764.9,-630.67 771.15,-628.94 760.22,-628.12"/>
<polygon fill="#a83d00" stroke="#a83d00" points="386.74,-46.54 391.93,-36.88 387.12,-41.22 387.42,-36.9 387.42,-36.9 387.42,-36.9 387.12,-41.22 382.96,-36.25 386.74,-46.54"/>
<text text-anchor="middle" x="444.38" y="-258.7" font-family="Times,serif" font-size="14.00">file_attachment</text>
</g>
<!-- Article&#45;&gt;ActiveStorage::Blob -->
<g id="edge14" class="edge">
<title>Article&#45;&gt;ActiveStorage::Blob</title>
<path fill="none" stroke="#9b59be" d="M1038.44,-650.31C1152.41,-607.61 1313.63,-536.49 1433,-440.5 1448.17,-428.3 1452.85,-424.11 1460,-406 1509.96,-279.38 1502.28,-111.87 1496.79,-46.65"/>
<polygon fill="#9b59be" stroke="#9b59be" points="1038.62,-650.24 1027.68,-649.5 1033.63,-652.1 1029.57,-653.61 1029.57,-653.61 1029.57,-653.61 1033.63,-652.1 1030.82,-657.94 1038.62,-650.24"/>
<polygon fill="#9b59be" stroke="#9b59be" points="1496.79,-46.68 1500.38,-36.31 1496.32,-41.36 1495.93,-37.05 1495.93,-37.05 1495.93,-37.05 1496.32,-41.36 1491.42,-37.12 1496.79,-46.68"/>
<text text-anchor="middle" x="1518.38" y="-258.7" font-family="Times,serif" font-size="14.00">file_blob</text>
</g>
<!-- Impression -->
<g id="node16" class="node">
<title>Impression</title>
<ellipse fill="none" stroke="black" cx="1376" cy="-348" rx="52.38" ry="18"/>
<text text-anchor="middle" x="1376" y="-342.95" font-family="Times,serif" font-size="14.00">Impression</text>
</g>
<!-- Article&#45;&gt;Impression -->
<g id="edge12" class="edge">
<title>Article&#45;&gt;Impression</title>
<path fill="none" stroke="#274acf" d="M1037.61,-607.21C1120.25,-551.94 1226.04,-478.08 1315,-406 1327.9,-395.55 1341.47,-383.03 1352.53,-372.4"/>
<polygon fill="#274acf" stroke="#274acf" points="1037.52,-607.27 1026.71,-609.08 1033.09,-610.23 1029.48,-612.63 1029.48,-612.63 1029.48,-612.63 1033.09,-610.23 1031.7,-616.56 1037.52,-607.27"/>
<polygon fill="#274acf" stroke="#274acf" points="1352.33,-372.59 1362.64,-368.84 1356.16,-368.87 1359.26,-365.85 1359.26,-365.85 1359.26,-365.85 1356.16,-368.87 1356.37,-362.39 1352.33,-372.59"/>
</g>
<!-- Bookmark&#45;&gt;User -->
<g id="edge15" class="edge">
<title>Bookmark&#45;&gt;User</title>
<path fill="none" stroke="#c933ed" d="M783.17,-285.2C754.81,-270.07 724.18,-253.73 694.86,-238.09"/>
<polygon fill="#c933ed" stroke="#c933ed" points="783.23,-285.24 789.94,-293.91 787.94,-287.75 791.76,-289.79 791.76,-289.79 791.76,-289.79 787.94,-287.75 794.18,-285.97 783.23,-285.24"/>
<polygon fill="#c933ed" stroke="#c933ed" points="694.93,-238.12 688.23,-229.45 690.22,-235.61 686.4,-233.57 686.4,-233.57 686.4,-233.57 690.22,-235.61 683.99,-237.39 694.93,-238.12"/>
</g>
<!-- Category&#45;&gt;CategoryArticle -->
<g id="edge16" class="edge">
<title>Category&#45;&gt;CategoryArticle</title>
<path fill="none" stroke="#a90ccd" d="M1201.36,-289C1209.49,-270.39 1218.56,-249.64 1226.94,-230.47"/>
<polygon fill="#a90ccd" stroke="#a90ccd" points="1201.37,-288.97 1193.24,-296.33 1199.23,-293.86 1197.5,-297.83 1197.5,-297.83 1197.5,-297.83 1199.23,-293.86 1201.49,-299.94 1201.37,-288.97"/>
<polygon fill="#a90ccd" stroke="#a90ccd" points="1226.98,-230.38 1235.11,-223.02 1229.12,-225.49 1230.85,-221.52 1230.85,-221.52 1230.85,-221.52 1229.12,-225.49 1226.86,-219.42 1226.98,-230.38"/>
</g>
<!-- Company -->
<g id="node10" class="node">
<title>Company</title>
<path fill="none" stroke="black" d="M150.5,-615.75C150.5,-615.75 385.5,-615.75 385.5,-615.75 391.5,-615.75 397.5,-621.75 397.5,-627.75 397.5,-627.75 397.5,-768.25 397.5,-768.25 397.5,-774.25 391.5,-780.25 385.5,-780.25 385.5,-780.25 150.5,-780.25 150.5,-780.25 144.5,-780.25 138.5,-774.25 138.5,-768.25 138.5,-768.25 138.5,-627.75 138.5,-627.75 138.5,-621.75 144.5,-615.75 150.5,-615.75"/>
<text text-anchor="middle" x="268" y="-762.95" font-family="Times,serif" font-size="14.00">Company</text>
<polyline fill="none" stroke="black" points="138.5,-755.75 397.5,-755.75"/>
<text text-anchor="start" x="146.5" y="-738.45" font-family="Times,serif" font-size="14.00">updated_at :timestamp(6) without time zone</text>
<text text-anchor="start" x="146.5" y="-721.95" font-family="Times,serif" font-size="14.00">name :character varying</text>
<text text-anchor="start" x="146.5" y="-705.45" font-family="Times,serif" font-size="14.00">area :integer</text>
<text text-anchor="start" x="146.5" y="-688.95" font-family="Times,serif" font-size="14.00">location :character varying</text>
<text text-anchor="start" x="146.5" y="-672.45" font-family="Times,serif" font-size="14.00">website_url :character varying</text>
<text text-anchor="start" x="146.5" y="-655.95" font-family="Times,serif" font-size="14.00">string :character varying</text>
<text text-anchor="start" x="146.5" y="-639.45" font-family="Times,serif" font-size="14.00">created_at :timestamp(6) without time zone</text>
<text text-anchor="start" x="146.5" y="-622.95" font-family="Times,serif" font-size="14.00">id :bigint</text>
</g>
<!-- Employee -->
<g id="node11" class="node">
<title>Employee</title>
<path fill="none" stroke="black" d="M150.5,-290.5C150.5,-290.5 385.5,-290.5 385.5,-290.5 391.5,-290.5 397.5,-296.5 397.5,-302.5 397.5,-302.5 397.5,-393.5 397.5,-393.5 397.5,-399.5 391.5,-405.5 385.5,-405.5 385.5,-405.5 150.5,-405.5 150.5,-405.5 144.5,-405.5 138.5,-399.5 138.5,-393.5 138.5,-393.5 138.5,-302.5 138.5,-302.5 138.5,-296.5 144.5,-290.5 150.5,-290.5"/>
<text text-anchor="middle" x="268" y="-388.2" font-family="Times,serif" font-size="14.00">Employee</text>
<polyline fill="none" stroke="black" points="138.5,-381 397.5,-381"/>
<text text-anchor="start" x="146.5" y="-363.7" font-family="Times,serif" font-size="14.00">id :bigint</text>
<text text-anchor="start" x="146.5" y="-347.2" font-family="Times,serif" font-size="14.00">company_id :bigint</text>
<text text-anchor="start" x="146.5" y="-330.7" font-family="Times,serif" font-size="14.00">user_id :bigint</text>
<text text-anchor="start" x="146.5" y="-314.2" font-family="Times,serif" font-size="14.00">created_at :timestamp(6) without time zone</text>
<text text-anchor="start" x="146.5" y="-297.7" font-family="Times,serif" font-size="14.00">updated_at :timestamp(6) without time zone</text>
</g>
<!-- Company&#45;&gt;Employee -->
<g id="edge17" class="edge">
<title>Company&#45;&gt;Employee</title>
<path fill="none" stroke="#5aeee0" d="M268,-605.03C268,-545.76 268,-470.02 268,-416.34"/>
<polygon fill="#5aeee0" stroke="#5aeee0" points="268,-605.07 263.5,-615.07 268,-610.41 268,-614.74 268,-614.74 268,-614.74 268,-610.41 272.5,-615.08 268,-605.07"/>
<polygon fill="#5aeee0" stroke="#5aeee0" points="268,-416.24 272.5,-406.24 268,-410.91 268,-406.57 268,-406.57 268,-406.57 268,-410.91 263.5,-406.24 268,-416.24"/>
</g>
<!-- Employee&#45;&gt;User -->
<g id="edge18" class="edge">
<title>Employee&#45;&gt;User</title>
<path fill="none" stroke="#293e5a" d="M335.85,-283.54C347.82,-273.62 360.48,-263.89 373,-255.5 386.94,-246.16 401.96,-237.16 417.2,-228.68"/>
<polygon fill="#293e5a" stroke="#293e5a" points="335.99,-283.42 325.45,-286.42 331.91,-286.85 328.6,-289.64 328.6,-289.64 328.6,-289.64 331.91,-286.85 331.24,-293.3 335.99,-283.42"/>
<polygon fill="#293e5a" stroke="#293e5a" points="417.12,-228.72 428.06,-227.85 421.8,-226.15 425.6,-224.07 425.6,-224.07 425.6,-224.07 421.8,-226.15 423.73,-219.96 417.12,-228.72"/>
</g>
<!-- Like&#45;&gt;User -->
<g id="edge19" class="edge">
<title>Like&#45;&gt;User</title>
<path fill="none" stroke="#39611b" d="M598.03,-280.54C594.12,-269.7 590.02,-258.34 585.99,-247.15"/>
<polygon fill="#39611b" stroke="#39611b" points="597.97,-280.38 597.13,-291.31 599.78,-285.4 601.25,-289.47 601.25,-289.47 601.25,-289.47 599.78,-285.4 605.6,-288.26 597.97,-280.38"/>
<polygon fill="#39611b" stroke="#39611b" points="585.97,-247.1 586.81,-236.17 584.16,-242.08 582.69,-238.01 582.69,-238.01 582.69,-238.01 584.16,-242.08 578.35,-239.22 585.97,-247.1"/>
</g>
<!-- User&#45;&gt;ActiveStorage::Attachment -->
<g id="edge21" class="edge">
<title>User&#45;&gt;ActiveStorage::Attachment</title>
<path fill="none" stroke="#b8586c" d="M462.71,-82.11C445.84,-67.67 429.51,-53.68 416.52,-42.57"/>
<polygon fill="#b8586c" stroke="#b8586c" points="462.69,-82.1 467.36,-92.02 466.75,-85.57 470.03,-88.39 470.03,-88.39 470.03,-88.39 466.75,-85.57 473.22,-85.19 462.69,-82.1"/>
<polygon fill="#b8586c" stroke="#b8586c" points="416.75,-42.76 412.08,-32.84 412.69,-39.29 409.4,-36.47 409.4,-36.47 409.4,-36.47 412.69,-39.29 406.22,-39.67 416.75,-42.76"/>
<text text-anchor="middle" x="497.88" y="-57.2" font-family="Times,serif" font-size="14.00">avatar_attachment</text>
</g>
<!-- User&#45;&gt;ActiveStorage::Blob -->
<g id="edge22" class="edge">
<title>User&#45;&gt;ActiveStorage::Blob</title>
<path fill="none" stroke="#ab01b2" d="M696.14,-140.64C896.12,-110.15 1256.68,-55.18 1415.39,-30.98"/>
<polygon fill="#ab01b2" stroke="#ab01b2" points="696.15,-140.63 685.58,-137.69 690.88,-141.44 686.59,-142.09 686.59,-142.09 686.59,-142.09 690.88,-141.44 686.94,-146.59 696.15,-140.63"/>
<polygon fill="#ab01b2" stroke="#ab01b2" points="1415.33,-30.99 1425.9,-33.93 1420.61,-30.19 1424.89,-29.54 1424.89,-29.54 1424.89,-29.54 1420.61,-30.19 1424.54,-25.04 1415.33,-30.99"/>
<text text-anchor="middle" x="1273.88" y="-57.2" font-family="Times,serif" font-size="14.00">avatar_blob</text>
</g>
<!-- Rolable -->
<g id="node17" class="node">
<title>Rolable</title>
<ellipse fill="none" stroke="black" cx="559" cy="-18" rx="39.58" ry="18"/>
<text text-anchor="middle" x="559" y="-12.95" font-family="Times,serif" font-size="14.00">Rolable</text>
</g>
<!-- User&#45;&gt;Rolable -->
<g id="edge20" class="edge">
<title>User&#45;&gt;Rolable</title>
<path fill="none" stroke="#eb38d5" d="M557.75,-78.74C557.99,-67.18 558.22,-56.04 558.42,-46.58"/>
<polygon fill="#eb38d5" stroke="#eb38d5" points="557.75,-78.49 553.04,-88.4 557.64,-83.83 557.55,-88.16 557.55,-88.16 557.55,-88.16 557.64,-83.83 562.04,-88.58 557.75,-78.49"/>
<polygon fill="#eb38d5" stroke="#eb38d5" points="558.42,-46.65 563.13,-36.74 558.53,-41.31 558.62,-36.98 558.62,-36.98 558.62,-36.98 558.53,-41.31 554.13,-36.56 558.42,-46.65"/>
</g>
</g>
</svg>
