<?xml version="1.0" encoding="UTF-8" standalone="no"?>
<!DOCTYPE svg PUBLIC "-//W3C//DTD SVG 1.1//EN"
 "http://www.w3.org/Graphics/SVG/1.1/DTD/svg11.dtd">
<!-- Generated by graphviz version 9.0.0 (20230911.1827)
 -->
<!-- Title: models_diagram Pages: 1 -->
<svg width="1778pt" height="1417pt"
 viewBox="0.00 0.00 1777.50 1416.50" xmlns="http://www.w3.org/2000/svg" xmlns:xlink="http://www.w3.org/1999/xlink">
<g id="graph0" class="graph" transform="scale(1 1) rotate(0) translate(4 1412.5)">
<title>models_diagram</title>
<polygon fill="none" stroke="none" points="-4,4 -4,-1412.5 1773.5,-1412.5 1773.5,4 -4,4"/>
<!-- _diagram_info -->
<g id="node1" class="node">
<title>_diagram_info</title>
<text text-anchor="start" x="373.38" y="-1326.15" font-family="Times,serif" font-size="13.00">Models diagram</text>
<text text-anchor="start" x="373.38" y="-1311.15" font-family="Times,serif" font-size="13.00">Date: Aug 31 2024 &#45; 16:24</text>
<text text-anchor="start" x="373.38" y="-1296.15" font-family="Times,serif" font-size="13.00">Migration version: 20240831070834</text>
<text text-anchor="start" x="373.38" y="-1281.15" font-family="Times,serif" font-size="13.00">Generated by RailRoady 1.6.0</text>
<text text-anchor="start" x="373.38" y="-1266.15" font-family="Times,serif" font-size="13.00">http://railroady.prestonlee.com</text>
</g>
<!-- Ability -->
<g id="node2" class="node">
<title>Ability</title>
<polygon fill="none" stroke="black" points="596.88,-1276.5 596.88,-1325.5 651.12,-1325.5 651.12,-1276.5 596.88,-1276.5"/>
<text text-anchor="middle" x="624" y="-1308.2" font-family="Times,serif" font-size="14.00">Ability</text>
<polyline fill="none" stroke="black" points="596.88,-1301 651.12,-1301"/>
<text text-anchor="middle" x="624" y="-1283.7" font-family="Times,serif" font-size="14.00"> </text>
</g>
<!-- Applicant -->
<g id="node3" class="node">
<title>Applicant</title>
<path fill="none" stroke="black" d="M681.5,-1194C681.5,-1194 916.5,-1194 916.5,-1194 922.5,-1194 928.5,-1200 928.5,-1206 928.5,-1206 928.5,-1396 928.5,-1396 928.5,-1402 922.5,-1408 916.5,-1408 916.5,-1408 681.5,-1408 681.5,-1408 675.5,-1408 669.5,-1402 669.5,-1396 669.5,-1396 669.5,-1206 669.5,-1206 669.5,-1200 675.5,-1194 681.5,-1194"/>
<text text-anchor="middle" x="799" y="-1390.7" font-family="Times,serif" font-size="14.00">Applicant</text>
<polyline fill="none" stroke="black" points="669.5,-1383.5 928.5,-1383.5"/>
<text text-anchor="start" x="677.5" y="-1366.2" font-family="Times,serif" font-size="14.00">desired_salary :text</text>
<text text-anchor="start" x="677.5" y="-1349.7" font-family="Times,serif" font-size="14.00">name :character varying</text>
<text text-anchor="start" x="677.5" y="-1333.2" font-family="Times,serif" font-size="14.00">user_id :integer</text>
<text text-anchor="start" x="677.5" y="-1316.7" font-family="Times,serif" font-size="14.00">created_at :timestamp(6) without time zone</text>
<text text-anchor="start" x="677.5" y="-1300.2" font-family="Times,serif" font-size="14.00">updated_at :timestamp(6) without time zone</text>
<text text-anchor="start" x="677.5" y="-1283.7" font-family="Times,serif" font-size="14.00">birthday :date</text>
<text text-anchor="start" x="677.5" y="-1267.2" font-family="Times,serif" font-size="14.00">age :integer</text>
<text text-anchor="start" x="677.5" y="-1250.7" font-family="Times,serif" font-size="14.00">nationality :integer</text>
<text text-anchor="start" x="677.5" y="-1234.2" font-family="Times,serif" font-size="14.00">phone_number :integer</text>
<text text-anchor="start" x="677.5" y="-1217.7" font-family="Times,serif" font-size="14.00">self_introduction :text</text>
<text text-anchor="start" x="677.5" y="-1201.2" font-family="Times,serif" font-size="14.00">id :bigint</text>
</g>
<!-- ApplicantArticle -->
<g id="node4" class="node">
<title>ApplicantArticle</title>
<path fill="none" stroke="black" d="M681.5,-1041C681.5,-1041 916.5,-1041 916.5,-1041 922.5,-1041 928.5,-1047 928.5,-1053 928.5,-1053 928.5,-1144 928.5,-1144 928.5,-1150 922.5,-1156 916.5,-1156 916.5,-1156 681.5,-1156 681.5,-1156 675.5,-1156 669.5,-1150 669.5,-1144 669.5,-1144 669.5,-1053 669.5,-1053 669.5,-1047 675.5,-1041 681.5,-1041"/>
<text text-anchor="middle" x="799" y="-1138.7" font-family="Times,serif" font-size="14.00">ApplicantArticle</text>
<polyline fill="none" stroke="black" points="669.5,-1131.5 928.5,-1131.5"/>
<text text-anchor="start" x="677.5" y="-1114.2" font-family="Times,serif" font-size="14.00">id :bigint</text>
<text text-anchor="start" x="677.5" y="-1097.7" font-family="Times,serif" font-size="14.00">applicant_id :bigint</text>
<text text-anchor="start" x="677.5" y="-1081.2" font-family="Times,serif" font-size="14.00">article_id :bigint</text>
<text text-anchor="start" x="677.5" y="-1064.7" font-family="Times,serif" font-size="14.00">created_at :timestamp(6) without time zone</text>
<text text-anchor="start" x="677.5" y="-1048.2" font-family="Times,serif" font-size="14.00">updated_at :timestamp(6) without time zone</text>
</g>
<!-- Applicant&#45;&gt;ApplicantArticle -->
<g id="edge1" class="edge">
<title>Applicant&#45;&gt;ApplicantArticle</title>
<path fill="none" stroke="#b28ef7" d="M799,-1183.4C799,-1177.71 799,-1172.1 799,-1166.63"/>
<polygon fill="#b28ef7" stroke="#b28ef7" points="799,-1183.25 794.5,-1193.25 799,-1188.59 799,-1192.92 799,-1192.92 799,-1192.92 799,-1188.59 803.5,-1193.25 799,-1183.25"/>
<polygon fill="#b28ef7" stroke="#b28ef7" points="799,-1166.65 803.5,-1156.65 799,-1161.32 799,-1156.99 799,-1156.99 799,-1156.99 799,-1161.32 794.5,-1156.65 799,-1166.65"/>
</g>
<!-- Article -->
<g id="node6" class="node">
<title>Article</title>
<path fill="none" stroke="black" d="M839.5,-525C839.5,-525 1074.5,-525 1074.5,-525 1080.5,-525 1086.5,-531 1086.5,-537 1086.5,-537 1086.5,-991 1086.5,-991 1086.5,-997 1080.5,-1003 1074.5,-1003 1074.5,-1003 839.5,-1003 839.5,-1003 833.5,-1003 827.5,-997 827.5,-991 827.5,-991 827.5,-537 827.5,-537 827.5,-531 833.5,-525 839.5,-525"/>
<text text-anchor="middle" x="957" y="-985.7" font-family="Times,serif" font-size="14.00">Article</text>
<polyline fill="none" stroke="black" points="827.5,-978.5 1086.5,-978.5"/>
<text text-anchor="start" x="835.5" y="-961.2" font-family="Times,serif" font-size="14.00">status :integer</text>
<text text-anchor="start" x="835.5" y="-944.7" font-family="Times,serif" font-size="14.00">body :text</text>
<text text-anchor="start" x="835.5" y="-928.2" font-family="Times,serif" font-size="14.00">user_id :bigint</text>
<text text-anchor="start" x="835.5" y="-911.7" font-family="Times,serif" font-size="14.00">created_at :timestamp(6) without time zone</text>
<text text-anchor="start" x="835.5" y="-895.2" font-family="Times,serif" font-size="14.00">updated_at :timestamp(6) without time zone</text>
<text text-anchor="start" x="835.5" y="-878.7" font-family="Times,serif" font-size="14.00">impressions_count :integer</text>
<text text-anchor="start" x="835.5" y="-862.2" font-family="Times,serif" font-size="14.00">start_time :timestamp(6) without time zone</text>
<text text-anchor="start" x="835.5" y="-845.7" font-family="Times,serif" font-size="14.00">end_time :timestamp(6) without time zone</text>
<text text-anchor="start" x="835.5" y="-829.2" font-family="Times,serif" font-size="14.00">title :character varying</text>
<text text-anchor="start" x="835.5" y="-812.7" font-family="Times,serif" font-size="14.00">application_deadline :date</text>
<text text-anchor="start" x="835.5" y="-796.2" font-family="Times,serif" font-size="14.00">salary_details :text</text>
<text text-anchor="start" x="835.5" y="-779.7" font-family="Times,serif" font-size="14.00">work_location :character varying</text>
<text text-anchor="start" x="835.5" y="-763.2" font-family="Times,serif" font-size="14.00">language_requirement :character varying</text>
<text text-anchor="start" x="835.5" y="-746.7" font-family="Times,serif" font-size="14.00">japanese_level :character varying</text>
<text text-anchor="start" x="835.5" y="-730.2" font-family="Times,serif" font-size="14.00">skills_required :text</text>
<text text-anchor="start" x="835.5" y="-713.7" font-family="Times,serif" font-size="14.00">employment_type :character varying</text>
<text text-anchor="start" x="835.5" y="-697.2" font-family="Times,serif" font-size="14.00">description :text</text>
<text text-anchor="start" x="835.5" y="-680.7" font-family="Times,serif" font-size="14.00">work_hours :character varying</text>
<text text-anchor="start" x="835.5" y="-664.2" font-family="Times,serif" font-size="14.00">trial_period :character varying</text>
<text text-anchor="start" x="835.5" y="-647.7" font-family="Times,serif" font-size="14.00">days_off :character varying</text>
<text text-anchor="start" x="835.5" y="-631.2" font-family="Times,serif" font-size="14.00">overtime :character varying</text>
<text text-anchor="start" x="835.5" y="-614.7" font-family="Times,serif" font-size="14.00">transportation :character varying</text>
<text text-anchor="start" x="835.5" y="-598.2" font-family="Times,serif" font-size="14.00">work_environment :character varying</text>
<text text-anchor="start" x="835.5" y="-581.7" font-family="Times,serif" font-size="14.00">other_allowances :character varying</text>
<text text-anchor="start" x="835.5" y="-565.2" font-family="Times,serif" font-size="14.00">insurance :character varying</text>
<text text-anchor="start" x="835.5" y="-548.7" font-family="Times,serif" font-size="14.00">other_benefits :character varying</text>
<text text-anchor="start" x="835.5" y="-532.2" font-family="Times,serif" font-size="14.00">id :bigint</text>
</g>
<!-- Applicant&#45;&gt;Article -->
<g id="edge2" class="edge">
<title>Applicant&#45;&gt;Article</title>
<path fill="none" stroke="#2ac5c2" d="M921.33,-1185.44C927.36,-1176.13 932.69,-1166.46 937,-1156.5 956.15,-1112.26 966.23,-1062.52 970.8,-1013.72"/>
<polygon fill="#2ac5c2" stroke="#2ac5c2" points="921.41,-1185.33 912.07,-1191.08 918.41,-1189.75 915.98,-1193.33 915.98,-1193.33 915.98,-1193.33 918.41,-1189.75 919.52,-1196.13 921.41,-1185.33"/>
<polygon fill="#2ac5c2" stroke="#2ac5c2" points="970.81,-1013.62 976.15,-1004.05 971.26,-1008.31 971.63,-1003.99 971.63,-1003.99 971.63,-1003.99 971.26,-1008.31 967.18,-1003.28 970.81,-1013.62"/>
</g>
<!-- User -->
<g id="node13" class="node">
<title>User</title>
<path fill="none" stroke="black" d="M404.5,-89C404.5,-89 639.5,-89 639.5,-89 645.5,-89 651.5,-95 651.5,-101 651.5,-101 651.5,-258 651.5,-258 651.5,-264 645.5,-270 639.5,-270 639.5,-270 404.5,-270 404.5,-270 398.5,-270 392.5,-264 392.5,-258 392.5,-258 392.5,-101 392.5,-101 392.5,-95 398.5,-89 404.5,-89"/>
<text text-anchor="middle" x="522" y="-252.7" font-family="Times,serif" font-size="14.00">User</text>
<polyline fill="none" stroke="black" points="392.5,-245.5 651.5,-245.5"/>
<text text-anchor="start" x="400.5" y="-228.2" font-family="Times,serif" font-size="14.00">rolable_id :bigint</text>
<text text-anchor="start" x="400.5" y="-211.7" font-family="Times,serif" font-size="14.00">email :character varying</text>
<text text-anchor="start" x="400.5" y="-195.2" font-family="Times,serif" font-size="14.00">created_at :timestamp(6) without time zone</text>
<text text-anchor="start" x="400.5" y="-178.7" font-family="Times,serif" font-size="14.00">updated_at :timestamp(6) without time zone</text>
<text text-anchor="start" x="400.5" y="-162.2" font-family="Times,serif" font-size="14.00">role :integer</text>
<text text-anchor="start" x="400.5" y="-145.7" font-family="Times,serif" font-size="14.00">username :character varying</text>
<text text-anchor="start" x="400.5" y="-129.2" font-family="Times,serif" font-size="14.00">avatar :character varying</text>
<text text-anchor="start" x="400.5" y="-112.7" font-family="Times,serif" font-size="14.00">rolable_type :character varying</text>
<text text-anchor="start" x="400.5" y="-96.2" font-family="Times,serif" font-size="14.00">id :bigint</text>
</g>
<!-- Applicant&#45;&gt;User -->
<g id="edge3" class="edge">
<title>Applicant&#45;&gt;User</title>
<path fill="none" stroke="#da57aa" d="M660.58,-1193.87C660.38,-1193.75 660.19,-1193.62 660,-1193.5 585.44,-1145.48 484,-1188.18 484,-1099.5 484,-1099.5 484,-1099.5 484,-396.5 484,-358.22 489.86,-316.68 496.98,-280.36"/>
<polygon fill="#da57aa" stroke="#da57aa" points="660.61,-1193.89 666.5,-1203.14 665.07,-1196.82 668.69,-1199.2 668.69,-1199.2 668.69,-1199.2 665.07,-1196.82 671.44,-1195.62 660.61,-1193.89"/>
<polygon fill="#da57aa" stroke="#da57aa" points="496.97,-280.39 503.36,-271.48 498.03,-275.16 498.89,-270.92 498.89,-270.92 498.89,-270.92 498.03,-275.16 494.54,-269.7 496.97,-280.39"/>
</g>
<!-- ActiveStorage::Attachment -->
<g id="node14" class="node">
<title>ActiveStorage::Attachment</title>
<ellipse fill="none" stroke="black" cx="149" cy="-18" rx="112.26" ry="18"/>
<text text-anchor="middle" x="149" y="-12.95" font-family="Times,serif" font-size="14.00">ActiveStorage::Attachment</text>
</g>
<!-- Applicant&#45;&gt;ActiveStorage::Attachment -->
<g id="edge4" class="edge">
<title>Applicant&#45;&gt;ActiveStorage::Attachment</title>
<path fill="none" stroke="#921dd4" d="M659.55,-1194.02C529.44,-1148.93 130,-1216.08 130,-1099.5 130,-1099.5 130,-1099.5 130,-178.5 130,-131.85 138.11,-78.06 143.74,-46.39"/>
<polygon fill="#921dd4" stroke="#921dd4" points="659.53,-1194.01 667.21,-1201.84 664.5,-1195.95 668.53,-1197.53 668.53,-1197.53 668.53,-1197.53 664.5,-1195.95 670.49,-1193.46 659.53,-1194.01"/>
<polygon fill="#921dd4" stroke="#921dd4" points="143.75,-46.32 149.97,-37.29 144.71,-41.07 145.48,-36.81 145.48,-36.81 145.48,-36.81 144.71,-41.07 141.12,-35.67 143.75,-46.32"/>
<text text-anchor="middle" x="177.62" y="-493.2" font-family="Times,serif" font-size="14.00">files_attachments</text>
</g>
<!-- Applicant&#45;&gt;ActiveStorage::Attachment -->
<g id="edge6" class="edge">
<title>Applicant&#45;&gt;ActiveStorage::Attachment</title>
<path fill="none" stroke="#87fabe" d="M659.78,-1194.07C500.26,-1145.37 0,-1244.61 0,-1099.5 0,-1099.5 0,-1099.5 0,-178.5 0,-115.4 63.05,-66.9 107.12,-40.71"/>
<polygon fill="#87fabe" stroke="#87fabe" points="659.56,-1193.99 667.58,-1201.47 664.61,-1195.71 668.71,-1197.11 668.71,-1197.11 668.71,-1197.11 664.61,-1195.71 670.48,-1192.96 659.56,-1193.99"/>
<polygon fill="#87fabe" stroke="#87fabe" points="106.98,-40.78 117.89,-39.68 111.6,-38.12 115.35,-35.95 115.35,-35.95 115.35,-35.95 111.6,-38.12 113.39,-31.88 106.98,-40.78"/>
<text text-anchor="middle" x="53.25" y="-493.2" font-family="Times,serif" font-size="14.00">resume_attachment</text>
</g>
<!-- ActiveStorage::Blob -->
<g id="node15" class="node">
<title>ActiveStorage::Blob</title>
<ellipse fill="none" stroke="black" cx="1585" cy="-18" rx="86.67" ry="18"/>
<text text-anchor="middle" x="1585" y="-12.95" font-family="Times,serif" font-size="14.00">ActiveStorage::Blob</text>
</g>
<!-- Applicant&#45;&gt;ActiveStorage::Blob -->
<g id="edge5" class="edge">
<title>Applicant&#45;&gt;ActiveStorage::Blob</title>
<path fill="none" stroke="#eb49e9" d="M938.47,-1193.97C1100.42,-1139.48 1617,-1248.7 1617,-1099.5 1617,-1099.5 1617,-1099.5 1617,-178.5 1617,-131.05 1603.22,-77.18 1593.74,-45.76"/>
<polygon fill="#eb49e9" stroke="#eb49e9" points="938.45,-1193.98 927.5,-1193.28 933.45,-1195.86 929.4,-1197.38 929.4,-1197.38 929.4,-1197.38 933.45,-1195.86 930.67,-1201.71 938.45,-1193.98"/>
<polygon fill="#eb49e9" stroke="#eb49e9" points="1593.78,-45.88 1595.12,-34.99 1592.2,-40.78 1590.92,-36.64 1590.92,-36.64 1590.92,-36.64 1592.2,-40.78 1586.52,-37.66 1593.78,-45.88"/>
<text text-anchor="middle" x="1646.62" y="-493.2" font-family="Times,serif" font-size="14.00">files_blobs</text>
</g>
<!-- Applicant&#45;&gt;ActiveStorage::Blob -->
<g id="edge7" class="edge">
<title>Applicant&#45;&gt;ActiveStorage::Blob</title>
<path fill="none" stroke="#b6cca8" d="M938.49,-1193.96C1119.92,-1139.31 1699,-1266.73 1699,-1099.5 1699,-1099.5 1699,-1099.5 1699,-178.5 1699,-121.15 1649.62,-70.2 1615.85,-42.07"/>
<polygon fill="#b6cca8" stroke="#b6cca8" points="938.43,-1193.98 927.52,-1192.89 933.38,-1195.67 929.27,-1197.05 929.27,-1197.05 929.27,-1197.05 933.38,-1195.67 930.38,-1201.42 938.43,-1193.98"/>
<polygon fill="#b6cca8" stroke="#b6cca8" points="1616.09,-42.26 1611.16,-32.47 1611.95,-38.9 1608.59,-36.17 1608.59,-36.17 1608.59,-36.17 1611.95,-38.9 1605.49,-39.45 1616.09,-42.26"/>
<text text-anchor="middle" x="1734.25" y="-493.2" font-family="Times,serif" font-size="14.00">resume_blob</text>
</g>
<!-- ApplicantArticle&#45;&gt;Article -->
<g id="edge8" class="edge">
<title>ApplicantArticle&#45;&gt;Article</title>
<path fill="none" stroke="#5ce86f" d="M830.42,-1031.38C833.31,-1025.3 836.33,-1018.94 839.46,-1012.36"/>
<polygon fill="#5ce86f" stroke="#5ce86f" points="830.42,-1031.38 822.06,-1038.49 828.13,-1036.2 826.27,-1040.11 826.27,-1040.11 826.27,-1040.11 828.13,-1036.2 830.19,-1042.35 830.42,-1031.38"/>
<polygon fill="#5ce86f" stroke="#5ce86f" points="839.35,-1012.58 847.71,-1005.48 841.64,-1007.76 843.5,-1003.85 843.5,-1003.85 843.5,-1003.85 841.64,-1007.76 839.58,-1001.62 839.35,-1012.58"/>
</g>
<!-- ApplicationRecord -->
<g id="node5" class="node">
<title>ApplicationRecord</title>
<ellipse fill="none" stroke="black" cx="1028" cy="-1301" rx="81.04" ry="18"/>
<text text-anchor="middle" x="1028" y="-1295.95" font-family="Times,serif" font-size="14.00">ApplicationRecord</text>
</g>
<!-- Bookmark -->
<g id="node7" class="node">
<title>Bookmark</title>
<path fill="none" stroke="black" d="M839.5,-340C839.5,-340 1074.5,-340 1074.5,-340 1080.5,-340 1086.5,-346 1086.5,-352 1086.5,-352 1086.5,-443 1086.5,-443 1086.5,-449 1080.5,-455 1074.5,-455 1074.5,-455 839.5,-455 839.5,-455 833.5,-455 827.5,-449 827.5,-443 827.5,-443 827.5,-352 827.5,-352 827.5,-346 833.5,-340 839.5,-340"/>
<text text-anchor="middle" x="957" y="-437.7" font-family="Times,serif" font-size="14.00">Bookmark</text>
<polyline fill="none" stroke="black" points="827.5,-430.5 1086.5,-430.5"/>
<text text-anchor="start" x="835.5" y="-413.2" font-family="Times,serif" font-size="14.00">id :bigint</text>
<text text-anchor="start" x="835.5" y="-396.7" font-family="Times,serif" font-size="14.00">user_id :bigint</text>
<text text-anchor="start" x="835.5" y="-380.2" font-family="Times,serif" font-size="14.00">article_id :bigint</text>
<text text-anchor="start" x="835.5" y="-363.7" font-family="Times,serif" font-size="14.00">created_at :timestamp(6) without time zone</text>
<text text-anchor="start" x="835.5" y="-347.2" font-family="Times,serif" font-size="14.00">updated_at :timestamp(6) without time zone</text>
</g>
<!-- Article&#45;&gt;Bookmark -->
<g id="edge10" class="edge">
<title>Article&#45;&gt;Bookmark</title>
<path fill="none" stroke="#a95f72" d="M957,-514.35C957,-496.98 957,-480.54 957,-465.8"/>
<polygon fill="#a95f72" stroke="#a95f72" points="957,-514.37 952.5,-524.37 957,-519.71 957,-524.04 957,-524.04 957,-524.04 957,-519.71 961.5,-524.37 957,-514.37"/>
<polygon fill="#a95f72" stroke="#a95f72" points="957,-465.71 961.5,-455.71 957,-460.38 957,-456.05 957,-456.05 957,-456.05 957,-460.38 952.5,-455.71 957,-465.71"/>
</g>
<!-- Category -->
<g id="node8" class="node">
<title>Category</title>
<path fill="none" stroke="black" d="M1239.5,-348.25C1239.5,-348.25 1474.5,-348.25 1474.5,-348.25 1480.5,-348.25 1486.5,-354.25 1486.5,-360.25 1486.5,-360.25 1486.5,-434.75 1486.5,-434.75 1486.5,-440.75 1480.5,-446.75 1474.5,-446.75 1474.5,-446.75 1239.5,-446.75 1239.5,-446.75 1233.5,-446.75 1227.5,-440.75 1227.5,-434.75 1227.5,-434.75 1227.5,-360.25 1227.5,-360.25 1227.5,-354.25 1233.5,-348.25 1239.5,-348.25"/>
<text text-anchor="middle" x="1357" y="-429.45" font-family="Times,serif" font-size="14.00">Category</text>
<polyline fill="none" stroke="black" points="1227.5,-422.25 1486.5,-422.25"/>
<text text-anchor="start" x="1235.5" y="-404.95" font-family="Times,serif" font-size="14.00">id :bigint</text>
<text text-anchor="start" x="1235.5" y="-388.45" font-family="Times,serif" font-size="14.00">name :character varying</text>
<text text-anchor="start" x="1235.5" y="-371.95" font-family="Times,serif" font-size="14.00">created_at :timestamp(6) without time zone</text>
<text text-anchor="start" x="1235.5" y="-355.45" font-family="Times,serif" font-size="14.00">updated_at :timestamp(6) without time zone</text>
</g>
<!-- Article&#45;&gt;Category -->
<g id="edge13" class="edge">
<title>Article&#45;&gt;Category</title>
<path fill="none" stroke="#2cc39d" d="M1094.24,-637.94C1162.87,-575.4 1242.48,-502.86 1295.92,-454.16"/>
<polygon fill="#2cc39d" stroke="#2cc39d" points="1094.51,-637.7 1084.08,-641.11 1090.56,-641.29 1087.36,-644.21 1087.36,-644.21 1087.36,-644.21 1090.56,-641.29 1090.15,-647.76 1094.51,-637.7"/>
<polygon fill="#2cc39d" stroke="#2cc39d" points="1295.97,-454.11 1306.4,-450.7 1299.92,-450.52 1303.12,-447.6 1303.12,-447.6 1303.12,-447.6 1299.92,-450.52 1300.33,-444.05 1295.97,-454.11"/>
</g>
<!-- CategoryArticle -->
<g id="node9" class="node">
<title>CategoryArticle</title>
<path fill="none" stroke="black" d="M1258.5,-122C1258.5,-122 1493.5,-122 1493.5,-122 1499.5,-122 1505.5,-128 1505.5,-134 1505.5,-134 1505.5,-225 1505.5,-225 1505.5,-231 1499.5,-237 1493.5,-237 1493.5,-237 1258.5,-237 1258.5,-237 1252.5,-237 1246.5,-231 1246.5,-225 1246.5,-225 1246.5,-134 1246.5,-134 1246.5,-128 1252.5,-122 1258.5,-122"/>
<text text-anchor="middle" x="1376" y="-219.7" font-family="Times,serif" font-size="14.00">CategoryArticle</text>
<polyline fill="none" stroke="black" points="1246.5,-212.5 1505.5,-212.5"/>
<text text-anchor="start" x="1254.5" y="-195.2" font-family="Times,serif" font-size="14.00">id :bigint</text>
<text text-anchor="start" x="1254.5" y="-178.7" font-family="Times,serif" font-size="14.00">category_id :bigint</text>
<text text-anchor="start" x="1254.5" y="-162.2" font-family="Times,serif" font-size="14.00">article_id :bigint</text>
<text text-anchor="start" x="1254.5" y="-145.7" font-family="Times,serif" font-size="14.00">created_at :timestamp(6) without time zone</text>
<text text-anchor="start" x="1254.5" y="-129.2" font-family="Times,serif" font-size="14.00">updated_at :timestamp(6) without time zone</text>
</g>
<!-- Article&#45;&gt;CategoryArticle -->
<g id="edge12" class="edge">
<title>Article&#45;&gt;CategoryArticle</title>
<path fill="none" stroke="#cdb313" d="M1096.82,-730.81C1225.9,-692.86 1410.18,-615.86 1496,-472 1529.93,-415.13 1518.7,-385.21 1496,-323 1485.54,-294.34 1466.49,-267.45 1446.61,-244.92"/>
<polygon fill="#cdb313" stroke="#cdb313" points="1096.77,-730.82 1085.92,-729.28 1091.65,-732.31 1087.49,-733.51 1087.49,-733.51 1087.49,-733.51 1091.65,-732.31 1088.42,-737.93 1096.77,-730.82"/>
<polygon fill="#cdb313" stroke="#cdb313" points="1446.78,-245.11 1443.41,-234.68 1443.2,-241.16 1440.29,-237.95 1440.29,-237.95 1440.29,-237.95 1443.2,-241.16 1436.73,-240.72 1446.78,-245.11"/>
</g>
<!-- Like -->
<g id="node12" class="node">
<title>Like</title>
<path fill="none" stroke="black" d="M562.5,-340C562.5,-340 797.5,-340 797.5,-340 803.5,-340 809.5,-346 809.5,-352 809.5,-352 809.5,-443 809.5,-443 809.5,-449 803.5,-455 797.5,-455 797.5,-455 562.5,-455 562.5,-455 556.5,-455 550.5,-449 550.5,-443 550.5,-443 550.5,-352 550.5,-352 550.5,-346 556.5,-340 562.5,-340"/>
<text text-anchor="middle" x="680" y="-437.7" font-family="Times,serif" font-size="14.00">Like</text>
<polyline fill="none" stroke="black" points="550.5,-430.5 809.5,-430.5"/>
<text text-anchor="start" x="558.5" y="-413.2" font-family="Times,serif" font-size="14.00">id :bigint</text>
<text text-anchor="start" x="558.5" y="-396.7" font-family="Times,serif" font-size="14.00">user_id :bigint</text>
<text text-anchor="start" x="558.5" y="-380.2" font-family="Times,serif" font-size="14.00">article_id :bigint</text>
<text text-anchor="start" x="558.5" y="-363.7" font-family="Times,serif" font-size="14.00">created_at :timestamp(6) without time zone</text>
<text text-anchor="start" x="558.5" y="-347.2" font-family="Times,serif" font-size="14.00">updated_at :timestamp(6) without time zone</text>
</g>
<!-- Article&#45;&gt;Like -->
<g id="edge11" class="edge">
<title>Article&#45;&gt;Like</title>
<path fill="none" stroke="#9a2b43" d="M820.88,-583.88C788.1,-540.75 755.15,-497.39 729.37,-463.46"/>
<polygon fill="#9a2b43" stroke="#9a2b43" points="820.76,-583.73 823.23,-594.41 823.99,-587.98 826.61,-591.42 826.61,-591.42 826.61,-591.42 823.99,-587.98 830.4,-588.97 820.76,-583.73"/>
<polygon fill="#9a2b43" stroke="#9a2b43" points="729.56,-463.72 727.09,-453.03 726.33,-459.47 723.71,-456.02 723.71,-456.02 723.71,-456.02 726.33,-459.47 719.93,-458.48 729.56,-463.72"/>
</g>
<!-- Article&#45;&gt;User -->
<g id="edge9" class="edge">
<title>Article&#45;&gt;User</title>
<path fill="none" stroke="#c22cf9" d="M817.88,-705.35C722.3,-657.79 602.05,-580.44 541,-472 508.54,-414.35 504.23,-339.76 507.81,-280.46"/>
<polygon fill="#c22cf9" stroke="#c22cf9" points="817.78,-705.3 824.77,-713.75 822.57,-707.65 826.45,-709.56 826.45,-709.56 826.45,-709.56 822.57,-707.65 828.74,-705.67 817.78,-705.3"/>
<polygon fill="#c22cf9" stroke="#c22cf9" points="507.8,-280.64 512.97,-270.97 508.16,-275.32 508.46,-271 508.46,-271 508.46,-271 508.16,-275.32 503.99,-270.36 507.8,-280.64"/>
</g>
<!-- Article&#45;&gt;ActiveStorage::Attachment -->
<g id="edge15" class="edge">
<title>Article&#45;&gt;ActiveStorage::Attachment</title>
<path fill="none" stroke="#742fd7" d="M818.11,-683.58C721.54,-631.45 588.32,-565.55 464,-524.5 434.25,-514.68 207.97,-495.27 187,-472 158.5,-440.38 151.05,-140.36 149.41,-46.75"/>
<polygon fill="#742fd7" stroke="#742fd7" points="817.96,-683.5 824.61,-692.22 822.65,-686.04 826.46,-688.1 826.46,-688.1 826.46,-688.1 822.65,-686.04 828.9,-684.31 817.96,-683.5"/>
<polygon fill="#742fd7" stroke="#742fd7" points="149.41,-46.73 153.74,-36.65 149.32,-41.39 149.25,-37.06 149.25,-37.06 149.25,-37.06 149.32,-41.39 144.74,-36.8 149.41,-46.73"/>
<text text-anchor="middle" x="202.38" y="-291.7" font-family="Times,serif" font-size="14.00">file_attachment</text>
</g>
<!-- Article&#45;&gt;ActiveStorage::Blob -->
<g id="edge16" class="edge">
<title>Article&#45;&gt;ActiveStorage::Blob</title>
<path fill="none" stroke="#7c5238" d="M1096.26,-715.8C1210.18,-672.81 1371.56,-601.53 1492,-506.5 1507.5,-494.27 1512.09,-490.09 1520,-472 1537.15,-432.78 1571.48,-138.61 1581.92,-46.49"/>
<polygon fill="#7c5238" stroke="#7c5238" points="1096.44,-715.73 1085.5,-715.03 1091.45,-717.61 1087.39,-719.13 1087.39,-719.13 1087.39,-719.13 1091.45,-717.61 1088.66,-723.46 1096.44,-715.73"/>
<polygon fill="#7c5238" stroke="#7c5238" points="1581.91,-46.56 1587.51,-37.13 1582.51,-41.26 1583,-36.96 1583,-36.96 1583,-36.96 1582.51,-41.26 1578.56,-36.12 1581.91,-46.56"/>
<text text-anchor="middle" x="1575.38" y="-291.7" font-family="Times,serif" font-size="14.00">file_blob</text>
</g>
<!-- Impression -->
<g id="node16" class="node">
<title>Impression</title>
<ellipse fill="none" stroke="black" cx="1157" cy="-397.5" rx="52.38" ry="18"/>
<text text-anchor="middle" x="1157" y="-392.45" font-family="Times,serif" font-size="14.00">Impression</text>
</g>
<!-- Article&#45;&gt;Impression -->
<g id="edge14" class="edge">
<title>Article&#45;&gt;Impression</title>
<path fill="none" stroke="#494c09" d="M1091.84,-517.25C1112.37,-479.84 1130.66,-446.51 1142.59,-424.76"/>
<polygon fill="#494c09" stroke="#494c09" points="1091.88,-517.18 1083.12,-523.78 1089.31,-521.86 1087.23,-525.65 1087.23,-525.65 1087.23,-525.65 1089.31,-521.86 1091.02,-528.11 1091.88,-517.18"/>
<polygon fill="#494c09" stroke="#494c09" points="1142.65,-424.66 1151.4,-418.06 1145.21,-419.98 1147.29,-416.19 1147.29,-416.19 1147.29,-416.19 1145.21,-419.98 1143.51,-413.73 1142.65,-424.66"/>
</g>
<!-- Bookmark&#45;&gt;User -->
<g id="edge17" class="edge">
<title>Bookmark&#45;&gt;User</title>
<path fill="none" stroke="#e9227d" d="M841.06,-334.77C833.27,-330.76 825.53,-326.8 818,-323 767.07,-297.29 710.76,-269.92 661.03,-246.1"/>
<polygon fill="#e9227d" stroke="#e9227d" points="841.03,-334.76 847.84,-343.35 845.77,-337.21 849.62,-339.2 849.62,-339.2 849.62,-339.2 845.77,-337.21 851.98,-335.36 841.03,-334.76"/>
<polygon fill="#e9227d" stroke="#e9227d" points="661.15,-246.16 654.07,-237.78 656.34,-243.86 652.43,-241.99 652.43,-241.99 652.43,-241.99 656.34,-243.86 650.19,-245.9 661.15,-246.16"/>
</g>
<!-- Category&#45;&gt;CategoryArticle -->
<g id="edge18" class="edge">
<title>Category&#45;&gt;CategoryArticle</title>
<path fill="none" stroke="#d4570f" d="M1362.19,-337.48C1364.63,-309.75 1367.55,-276.55 1370.08,-247.84"/>
<polygon fill="#d4570f" stroke="#d4570f" points="1362.19,-337.46 1356.83,-347.03 1361.73,-342.78 1361.35,-347.09 1361.35,-347.09 1361.35,-347.09 1361.73,-342.78 1365.8,-347.82 1362.19,-337.46"/>
<polygon fill="#d4570f" stroke="#d4570f" points="1370.08,-247.77 1375.44,-238.21 1370.55,-242.46 1370.93,-238.15 1370.93,-238.15 1370.93,-238.15 1370.55,-242.46 1366.48,-237.42 1370.08,-247.77"/>
</g>
<!-- Company -->
<g id="node10" class="node">
<title>Company</title>
<path fill="none" stroke="black" d="M208.5,-681.75C208.5,-681.75 443.5,-681.75 443.5,-681.75 449.5,-681.75 455.5,-687.75 455.5,-693.75 455.5,-693.75 455.5,-834.25 455.5,-834.25 455.5,-840.25 449.5,-846.25 443.5,-846.25 443.5,-846.25 208.5,-846.25 208.5,-846.25 202.5,-846.25 196.5,-840.25 196.5,-834.25 196.5,-834.25 196.5,-693.75 196.5,-693.75 196.5,-687.75 202.5,-681.75 208.5,-681.75"/>
<text text-anchor="middle" x="326" y="-828.95" font-family="Times,serif" font-size="14.00">Company</text>
<polyline fill="none" stroke="black" points="196.5,-821.75 455.5,-821.75"/>
<text text-anchor="start" x="204.5" y="-804.45" font-family="Times,serif" font-size="14.00">updated_at :timestamp(6) without time zone</text>
<text text-anchor="start" x="204.5" y="-787.95" font-family="Times,serif" font-size="14.00">name :character varying</text>
<text text-anchor="start" x="204.5" y="-771.45" font-family="Times,serif" font-size="14.00">area :integer</text>
<text text-anchor="start" x="204.5" y="-754.95" font-family="Times,serif" font-size="14.00">location :character varying</text>
<text text-anchor="start" x="204.5" y="-738.45" font-family="Times,serif" font-size="14.00">website_url :character varying</text>
<text text-anchor="start" x="204.5" y="-721.95" font-family="Times,serif" font-size="14.00">string :character varying</text>
<text text-anchor="start" x="204.5" y="-705.45" font-family="Times,serif" font-size="14.00">created_at :timestamp(6) without time zone</text>
<text text-anchor="start" x="204.5" y="-688.95" font-family="Times,serif" font-size="14.00">id :bigint</text>
</g>
<!-- Employee -->
<g id="node11" class="node">
<title>Employee</title>
<path fill="none" stroke="black" d="M208.5,-323.5C208.5,-323.5 443.5,-323.5 443.5,-323.5 449.5,-323.5 455.5,-329.5 455.5,-335.5 455.5,-335.5 455.5,-459.5 455.5,-459.5 455.5,-465.5 449.5,-471.5 443.5,-471.5 443.5,-471.5 208.5,-471.5 208.5,-471.5 202.5,-471.5 196.5,-465.5 196.5,-459.5 196.5,-459.5 196.5,-335.5 196.5,-335.5 196.5,-329.5 202.5,-323.5 208.5,-323.5"/>
<text text-anchor="middle" x="326" y="-454.2" font-family="Times,serif" font-size="14.00">Employee</text>
<polyline fill="none" stroke="black" points="196.5,-447 455.5,-447"/>
<text text-anchor="start" x="204.5" y="-429.7" font-family="Times,serif" font-size="14.00">id :bigint</text>
<text text-anchor="start" x="204.5" y="-413.2" font-family="Times,serif" font-size="14.00">name :character varying</text>
<text text-anchor="start" x="204.5" y="-396.7" font-family="Times,serif" font-size="14.00">department :character varying</text>
<text text-anchor="start" x="204.5" y="-380.2" font-family="Times,serif" font-size="14.00">position :character varying</text>
<text text-anchor="start" x="204.5" y="-363.7" font-family="Times,serif" font-size="14.00">user_id :integer</text>
<text text-anchor="start" x="204.5" y="-347.2" font-family="Times,serif" font-size="14.00">created_at :timestamp(6) without time zone</text>
<text text-anchor="start" x="204.5" y="-330.7" font-family="Times,serif" font-size="14.00">updated_at :timestamp(6) without time zone</text>
</g>
<!-- Company&#45;&gt;Employee -->
<g id="edge19" class="edge">
<title>Company&#45;&gt;Employee</title>
<path fill="none" stroke="#c902f0" d="M326,-671.52C326,-613.41 326,-538.76 326,-482.2"/>
<polygon fill="#c902f0" stroke="#c902f0" points="326,-671.32 321.5,-681.32 326,-676.65 326,-680.98 326,-680.98 326,-680.98 326,-676.65 330.5,-681.32 326,-671.32"/>
<polygon fill="#c902f0" stroke="#c902f0" points="326,-482.2 330.5,-472.2 326,-476.86 326,-472.53 326,-472.53 326,-472.53 326,-476.86 321.5,-472.2 326,-482.2"/>
</g>
<!-- Employee&#45;&gt;User -->
<g id="edge20" class="edge">
<title>Employee&#45;&gt;User</title>
<path fill="none" stroke="#f28ceb" d="M399.57,-315.42C410.77,-303.08 422.42,-290.24 433.89,-277.6"/>
<polygon fill="#f28ceb" stroke="#f28ceb" points="399.57,-315.42 389.52,-319.8 395.99,-319.37 393.08,-322.58 393.08,-322.58 393.08,-322.58 395.99,-319.37 396.19,-325.85 399.57,-315.42"/>
<polygon fill="#f28ceb" stroke="#f28ceb" points="433.67,-277.84 443.73,-273.46 437.26,-273.89 440.17,-270.68 440.17,-270.68 440.17,-270.68 437.26,-273.89 437.06,-267.41 433.67,-277.84"/>
</g>
<!-- Like&#45;&gt;User -->
<g id="edge21" class="edge">
<title>Like&#45;&gt;User</title>
<path fill="none" stroke="#d84df4" d="M632.36,-331.37C620.17,-314.7 606.79,-296.41 593.68,-278.5"/>
<polygon fill="#d84df4" stroke="#d84df4" points="632.39,-331.41 634.66,-342.14 635.54,-335.71 638.09,-339.21 638.09,-339.21 638.09,-339.21 635.54,-335.71 641.92,-336.82 632.39,-331.41"/>
<polygon fill="#d84df4" stroke="#d84df4" points="593.79,-278.64 591.51,-267.91 590.64,-274.33 588.08,-270.84 588.08,-270.84 588.08,-270.84 590.64,-274.33 584.25,-273.22 593.79,-278.64"/>
</g>
<!-- User&#45;&gt;ActiveStorage::Attachment -->
<g id="edge23" class="edge">
<title>User&#45;&gt;ActiveStorage::Attachment</title>
<path fill="none" stroke="#d23eae" d="M382.68,-118.92C317.18,-90.91 243.36,-59.35 196.54,-39.33"/>
<polygon fill="#d23eae" stroke="#d23eae" points="382.56,-118.88 389.99,-126.94 387.47,-120.97 391.45,-122.68 391.45,-122.68 391.45,-122.68 387.47,-120.97 393.53,-118.67 382.56,-118.88"/>
<polygon fill="#d23eae" stroke="#d23eae" points="196.48,-39.3 189.05,-31.23 191.57,-37.2 187.59,-35.5 187.59,-35.5 187.59,-35.5 191.57,-37.2 185.51,-39.51 196.48,-39.3"/>
<text text-anchor="middle" x="309.88" y="-57.2" font-family="Times,serif" font-size="14.00">avatar_attachment</text>
</g>
<!-- User&#45;&gt;ActiveStorage::Blob -->
<g id="edge24" class="edge">
<title>User&#45;&gt;ActiveStorage::Blob</title>
<path fill="none" stroke="#953b6b" d="M661.95,-157.5C888.27,-123.54 1327.26,-57.67 1506.2,-30.82"/>
<polygon fill="#953b6b" stroke="#953b6b" points="662.03,-157.49 651.48,-154.52 656.76,-158.28 652.47,-158.92 652.47,-158.92 652.47,-158.92 656.76,-158.28 652.81,-163.42 662.03,-157.49"/>
<polygon fill="#953b6b" stroke="#953b6b" points="1506.1,-30.84 1516.66,-33.8 1511.38,-30.05 1515.66,-29.4 1515.66,-29.4 1515.66,-29.4 1511.38,-30.05 1515.32,-24.9 1506.1,-30.84"/>
<text text-anchor="middle" x="1359.88" y="-57.2" font-family="Times,serif" font-size="14.00">avatar_blob</text>
</g>
<!-- Rolable -->
<g id="node17" class="node">
<title>Rolable</title>
<ellipse fill="none" stroke="black" cx="522" cy="-18" rx="39.58" ry="18"/>
<text text-anchor="middle" x="522" y="-12.95" font-family="Times,serif" font-size="14.00">Rolable</text>
</g>
<!-- User&#45;&gt;Rolable -->
<g id="edge22" class="edge">
<title>User&#45;&gt;Rolable</title>
<path fill="none" stroke="#2b6339" d="M522,-78.66C522,-66.92 522,-55.81 522,-46.42"/>
<polygon fill="#2b6339" stroke="#2b6339" points="522,-78.62 517.5,-88.62 522,-83.96 522,-88.29 522,-88.29 522,-88.29 522,-83.96 526.5,-88.62 522,-78.62"/>
<polygon fill="#2b6339" stroke="#2b6339" points="522,-46.6 526.5,-36.6 522,-41.27 522,-36.93 522,-36.93 522,-36.93 522,-41.27 517.5,-36.6 522,-46.6"/>
</g>
</g>
</svg>
