<?xml version="1.0" encoding="UTF-8" standalone="no"?>
<!DOCTYPE svg PUBLIC "-//W3C//DTD SVG 1.1//EN"
 "http://www.w3.org/Graphics/SVG/1.1/DTD/svg11.dtd">
<!-- Generated by graphviz version 9.0.0 (20230911.1827)
 -->
<!-- Title: models_diagram Pages: 1 -->
<svg width="1455pt" height="1197pt"
 viewBox="0.00 0.00 1455.17 1197.00" xmlns="http://www.w3.org/2000/svg" xmlns:xlink="http://www.w3.org/1999/xlink">
<g id="graph0" class="graph" transform="scale(1 1) rotate(0) translate(4 1193)">
<title>models_diagram</title>
<polygon fill="none" stroke="none" points="-4,4 -4,-1193 1451.17,-1193 1451.17,4 -4,4"/>
<!-- _diagram_info -->
<g id="node1" class="node">
<title>_diagram_info</title>
<text text-anchor="start" x="265.62" y="-1131.4" font-family="Times,serif" font-size="13.00">Models diagram</text>
<text text-anchor="start" x="265.62" y="-1116.4" font-family="Times,serif" font-size="13.00">Date: Mar 10 2024 &#45; 10:24</text>
<text text-anchor="start" x="265.62" y="-1101.4" font-family="Times,serif" font-size="13.00">Migration version: 20240310011935</text>
<text text-anchor="start" x="265.62" y="-1086.4" font-family="Times,serif" font-size="13.00">Generated by RailRoady 1.6.0</text>
<text text-anchor="start" x="265.62" y="-1071.4" font-family="Times,serif" font-size="13.00">http://railroady.prestonlee.com</text>
</g>
<!-- Ability -->
<g id="node2" class="node">
<title>Ability</title>
<polygon fill="none" stroke="black" points="487.38,-1081.75 487.38,-1130.75 541.62,-1130.75 541.62,-1081.75 487.38,-1081.75"/>
<text text-anchor="middle" x="514.5" y="-1113.45" font-family="Times,serif" font-size="14.00">Ability</text>
<polyline fill="none" stroke="black" points="487.38,-1106.25 541.62,-1106.25"/>
<text text-anchor="middle" x="514.5" y="-1088.95" font-family="Times,serif" font-size="14.00"> </text>
</g>
<!-- Applicant -->
<g id="node3" class="node">
<title>Applicant</title>
<path fill="none" stroke="black" d="M572,-1040.5C572,-1040.5 807,-1040.5 807,-1040.5 813,-1040.5 819,-1046.5 819,-1052.5 819,-1052.5 819,-1160 819,-1160 819,-1166 813,-1172 807,-1172 807,-1172 572,-1172 572,-1172 566,-1172 560,-1166 560,-1160 560,-1160 560,-1052.5 560,-1052.5 560,-1046.5 566,-1040.5 572,-1040.5"/>
<text text-anchor="middle" x="689.5" y="-1154.7" font-family="Times,serif" font-size="14.00">Applicant</text>
<polyline fill="none" stroke="black" points="560,-1147.5 819,-1147.5"/>
<text text-anchor="start" x="568" y="-1130.2" font-family="Times,serif" font-size="14.00">id :bigint</text>
<text text-anchor="start" x="568" y="-1113.7" font-family="Times,serif" font-size="14.00">name :character varying</text>
<text text-anchor="start" x="568" y="-1097.2" font-family="Times,serif" font-size="14.00">user_id :integer</text>
<text text-anchor="start" x="568" y="-1080.7" font-family="Times,serif" font-size="14.00">created_at :timestamp(6) without time zone</text>
<text text-anchor="start" x="568" y="-1064.2" font-family="Times,serif" font-size="14.00">updated_at :timestamp(6) without time zone</text>
<text text-anchor="start" x="568" y="-1047.7" font-family="Times,serif" font-size="14.00">creater_id :integer</text>
</g>
<!-- ApplicantArticle -->
<g id="node4" class="node">
<title>ApplicantArticle</title>
<path fill="none" stroke="black" d="M460,-871C460,-871 695,-871 695,-871 701,-871 707,-877 707,-883 707,-883 707,-974 707,-974 707,-980 701,-986 695,-986 695,-986 460,-986 460,-986 454,-986 448,-980 448,-974 448,-974 448,-883 448,-883 448,-877 454,-871 460,-871"/>
<text text-anchor="middle" x="577.5" y="-968.7" font-family="Times,serif" font-size="14.00">ApplicantArticle</text>
<polyline fill="none" stroke="black" points="448,-961.5 707,-961.5"/>
<text text-anchor="start" x="456" y="-944.2" font-family="Times,serif" font-size="14.00">id :bigint</text>
<text text-anchor="start" x="456" y="-927.7" font-family="Times,serif" font-size="14.00">applicant_id :bigint</text>
<text text-anchor="start" x="456" y="-911.2" font-family="Times,serif" font-size="14.00">article_id :bigint</text>
<text text-anchor="start" x="456" y="-894.7" font-family="Times,serif" font-size="14.00">created_at :timestamp(6) without time zone</text>
<text text-anchor="start" x="456" y="-878.2" font-family="Times,serif" font-size="14.00">updated_at :timestamp(6) without time zone</text>
</g>
<!-- Applicant&#45;&gt;ApplicantArticle -->
<g id="edge1" class="edge">
<title>Applicant&#45;&gt;ApplicantArticle</title>
<path fill="none" stroke="#78b165" d="M642.5,-1031.5C634.76,-1019.36 626.79,-1006.85 619.19,-994.93"/>
<polygon fill="#78b165" stroke="#78b165" points="642.56,-1031.59 644.14,-1042.44 645.43,-1036.09 647.75,-1039.74 647.75,-1039.74 647.75,-1039.74 645.43,-1036.09 651.73,-1037.61 642.56,-1031.59"/>
<polygon fill="#78b165" stroke="#78b165" points="619.29,-995.08 617.71,-984.23 616.42,-990.58 614.1,-986.93 614.1,-986.93 614.1,-986.93 616.42,-990.58 610.12,-989.06 619.29,-995.08"/>
</g>
<!-- Article -->
<g id="node6" class="node">
<title>Article</title>
<path fill="none" stroke="black" d="M539,-322C539,-322 774,-322 774,-322 780,-322 786,-328 786,-334 786,-334 786,-821 786,-821 786,-827 780,-833 774,-833 774,-833 539,-833 539,-833 533,-833 527,-827 527,-821 527,-821 527,-334 527,-334 527,-328 533,-322 539,-322"/>
<text text-anchor="middle" x="656.5" y="-815.7" font-family="Times,serif" font-size="14.00">Article</text>
<polyline fill="none" stroke="black" points="527,-808.5 786,-808.5"/>
<text text-anchor="start" x="535" y="-791.2" font-family="Times,serif" font-size="14.00">status :integer</text>
<text text-anchor="start" x="535" y="-774.7" font-family="Times,serif" font-size="14.00">body :text</text>
<text text-anchor="start" x="535" y="-758.2" font-family="Times,serif" font-size="14.00">user_id :bigint</text>
<text text-anchor="start" x="535" y="-741.7" font-family="Times,serif" font-size="14.00">created_at :timestamp(6) without time zone</text>
<text text-anchor="start" x="535" y="-725.2" font-family="Times,serif" font-size="14.00">updated_at :timestamp(6) without time zone</text>
<text text-anchor="start" x="535" y="-708.7" font-family="Times,serif" font-size="14.00">impressions_count :integer</text>
<text text-anchor="start" x="535" y="-692.2" font-family="Times,serif" font-size="14.00">file :character varying</text>
<text text-anchor="start" x="535" y="-675.7" font-family="Times,serif" font-size="14.00">start_time :timestamp(6) without time zone</text>
<text text-anchor="start" x="535" y="-659.2" font-family="Times,serif" font-size="14.00">end_time :timestamp(6) without time zone</text>
<text text-anchor="start" x="535" y="-642.7" font-family="Times,serif" font-size="14.00">company_id :bigint</text>
<text text-anchor="start" x="535" y="-626.2" font-family="Times,serif" font-size="14.00">title :character varying</text>
<text text-anchor="start" x="535" y="-609.7" font-family="Times,serif" font-size="14.00">application_deadline :date</text>
<text text-anchor="start" x="535" y="-593.2" font-family="Times,serif" font-size="14.00">salary_details :text</text>
<text text-anchor="start" x="535" y="-576.7" font-family="Times,serif" font-size="14.00">work_location :character varying</text>
<text text-anchor="start" x="535" y="-560.2" font-family="Times,serif" font-size="14.00">language_requirement :character varying</text>
<text text-anchor="start" x="535" y="-543.7" font-family="Times,serif" font-size="14.00">japanese_level :character varying</text>
<text text-anchor="start" x="535" y="-527.2" font-family="Times,serif" font-size="14.00">skills_required :text</text>
<text text-anchor="start" x="535" y="-510.7" font-family="Times,serif" font-size="14.00">employment_type :character varying</text>
<text text-anchor="start" x="535" y="-494.2" font-family="Times,serif" font-size="14.00">description :text</text>
<text text-anchor="start" x="535" y="-477.7" font-family="Times,serif" font-size="14.00">work_hours :character varying</text>
<text text-anchor="start" x="535" y="-461.2" font-family="Times,serif" font-size="14.00">trial_period :character varying</text>
<text text-anchor="start" x="535" y="-444.7" font-family="Times,serif" font-size="14.00">days_off :character varying</text>
<text text-anchor="start" x="535" y="-428.2" font-family="Times,serif" font-size="14.00">overtime :character varying</text>
<text text-anchor="start" x="535" y="-411.7" font-family="Times,serif" font-size="14.00">transportation :character varying</text>
<text text-anchor="start" x="535" y="-395.2" font-family="Times,serif" font-size="14.00">work_environment :character varying</text>
<text text-anchor="start" x="535" y="-378.7" font-family="Times,serif" font-size="14.00">other_allowances :character varying</text>
<text text-anchor="start" x="535" y="-362.2" font-family="Times,serif" font-size="14.00">insurance :character varying</text>
<text text-anchor="start" x="535" y="-345.7" font-family="Times,serif" font-size="14.00">other_benefits :character varying</text>
<text text-anchor="start" x="535" y="-329.2" font-family="Times,serif" font-size="14.00">id :bigint</text>
</g>
<!-- Applicant&#45;&gt;Article -->
<g id="edge2" class="edge">
<title>Applicant&#45;&gt;Article</title>
<path fill="none" stroke="#686741" d="M708.49,-1030.17C711.41,-1015.77 713.96,-1000.74 715.5,-986.5 720.51,-940.17 719.16,-891 714.35,-843.45"/>
<polygon fill="#686741" stroke="#686741" points="708.55,-1029.91 702.09,-1038.77 707.45,-1035.13 706.56,-1039.37 706.56,-1039.37 706.56,-1039.37 707.45,-1035.13 710.9,-1040.62 708.55,-1029.91"/>
<polygon fill="#686741" stroke="#686741" points="714.37,-843.61 717.78,-833.19 713.8,-838.3 713.34,-834 713.34,-834 713.34,-834 713.8,-838.3 708.83,-834.14 714.37,-843.61"/>
</g>
<!-- ApplicantArticle&#45;&gt;Article -->
<g id="edge3" class="edge">
<title>ApplicantArticle&#45;&gt;Article</title>
<path fill="none" stroke="#982e8a" d="M592.65,-860.55C593.89,-855.1 595.18,-849.41 596.5,-843.54"/>
<polygon fill="#982e8a" stroke="#982e8a" points="592.65,-860.57 586.05,-869.33 591.47,-865.77 590.52,-870 590.52,-870 590.52,-870 591.47,-865.77 594.83,-871.32 592.65,-860.57"/>
<polygon fill="#982e8a" stroke="#982e8a" points="596.5,-843.57 603.1,-834.81 597.68,-838.36 598.63,-834.14 598.63,-834.14 598.63,-834.14 597.68,-838.36 594.32,-832.82 596.5,-843.57"/>
</g>
<!-- ApplicationRecord -->
<g id="node5" class="node">
<title>ApplicationRecord</title>
<ellipse fill="none" stroke="black" cx="918.5" cy="-1106.25" rx="81.04" ry="18"/>
<text text-anchor="middle" x="918.5" y="-1101.2" font-family="Times,serif" font-size="14.00">ApplicationRecord</text>
</g>
<!-- Bookmark -->
<g id="node7" class="node">
<title>Bookmark</title>
<path fill="none" stroke="black" d="M366,-153.5C366,-153.5 601,-153.5 601,-153.5 607,-153.5 613,-159.5 613,-165.5 613,-165.5 613,-256.5 613,-256.5 613,-262.5 607,-268.5 601,-268.5 601,-268.5 366,-268.5 366,-268.5 360,-268.5 354,-262.5 354,-256.5 354,-256.5 354,-165.5 354,-165.5 354,-159.5 360,-153.5 366,-153.5"/>
<text text-anchor="middle" x="483.5" y="-251.2" font-family="Times,serif" font-size="14.00">Bookmark</text>
<polyline fill="none" stroke="black" points="354,-244 613,-244"/>
<text text-anchor="start" x="362" y="-226.7" font-family="Times,serif" font-size="14.00">id :bigint</text>
<text text-anchor="start" x="362" y="-210.2" font-family="Times,serif" font-size="14.00">user_id :bigint</text>
<text text-anchor="start" x="362" y="-193.7" font-family="Times,serif" font-size="14.00">article_id :bigint</text>
<text text-anchor="start" x="362" y="-177.2" font-family="Times,serif" font-size="14.00">created_at :timestamp(6) without time zone</text>
<text text-anchor="start" x="362" y="-160.7" font-family="Times,serif" font-size="14.00">updated_at :timestamp(6) without time zone</text>
</g>
<!-- Article&#45;&gt;Bookmark -->
<g id="edge5" class="edge">
<title>Article&#45;&gt;Bookmark</title>
<path fill="none" stroke="#648bea" d="M531.18,-312.45C525.38,-300.24 519.88,-288.65 514.81,-277.98"/>
<polygon fill="#648bea" stroke="#648bea" points="531.21,-312.52 531.43,-323.48 533.5,-317.34 535.35,-321.25 535.35,-321.25 535.35,-321.25 533.5,-317.34 539.56,-319.62 531.21,-312.52"/>
<polygon fill="#648bea" stroke="#648bea" points="514.91,-278.17 514.68,-267.21 512.62,-273.35 510.76,-269.44 510.76,-269.44 510.76,-269.44 512.62,-273.35 506.55,-271.07 514.91,-278.17"/>
</g>
<!-- Category -->
<g id="node8" class="node">
<title>Category</title>
<path fill="none" stroke="black" d="M12,-161.75C12,-161.75 247,-161.75 247,-161.75 253,-161.75 259,-167.75 259,-173.75 259,-173.75 259,-248.25 259,-248.25 259,-254.25 253,-260.25 247,-260.25 247,-260.25 12,-260.25 12,-260.25 6,-260.25 0,-254.25 0,-248.25 0,-248.25 0,-173.75 0,-173.75 0,-167.75 6,-161.75 12,-161.75"/>
<text text-anchor="middle" x="129.5" y="-242.95" font-family="Times,serif" font-size="14.00">Category</text>
<polyline fill="none" stroke="black" points="0,-235.75 259,-235.75"/>
<text text-anchor="start" x="8" y="-218.45" font-family="Times,serif" font-size="14.00">id :bigint</text>
<text text-anchor="start" x="8" y="-201.95" font-family="Times,serif" font-size="14.00">name :character varying</text>
<text text-anchor="start" x="8" y="-185.45" font-family="Times,serif" font-size="14.00">created_at :timestamp(6) without time zone</text>
<text text-anchor="start" x="8" y="-168.95" font-family="Times,serif" font-size="14.00">updated_at :timestamp(6) without time zone</text>
</g>
<!-- Article&#45;&gt;Category -->
<g id="edge8" class="edge">
<title>Article&#45;&gt;Category</title>
<path fill="none" stroke="#53c2c2" d="M518.02,-480.72C419.16,-412.35 289.74,-322.83 208.08,-266.35"/>
<polygon fill="#53c2c2" stroke="#53c2c2" points="518.07,-480.75 523.73,-490.14 522.46,-483.79 526.02,-486.25 526.02,-486.25 526.02,-486.25 522.46,-483.79 528.85,-482.74 518.07,-480.75"/>
<polygon fill="#53c2c2" stroke="#53c2c2" points="208.34,-266.53 202.68,-257.14 203.96,-263.5 200.39,-261.03 200.39,-261.03 200.39,-261.03 203.96,-263.5 197.56,-264.54 208.34,-266.53"/>
</g>
<!-- CategoryArticle -->
<g id="node9" class="node">
<title>CategoryArticle</title>
<path fill="none" stroke="black" d="M70,-0.5C70,-0.5 305,-0.5 305,-0.5 311,-0.5 317,-6.5 317,-12.5 317,-12.5 317,-103.5 317,-103.5 317,-109.5 311,-115.5 305,-115.5 305,-115.5 70,-115.5 70,-115.5 64,-115.5 58,-109.5 58,-103.5 58,-103.5 58,-12.5 58,-12.5 58,-6.5 64,-0.5 70,-0.5"/>
<text text-anchor="middle" x="187.5" y="-98.2" font-family="Times,serif" font-size="14.00">CategoryArticle</text>
<polyline fill="none" stroke="black" points="58,-91 317,-91"/>
<text text-anchor="start" x="66" y="-73.7" font-family="Times,serif" font-size="14.00">id :bigint</text>
<text text-anchor="start" x="66" y="-57.2" font-family="Times,serif" font-size="14.00">category_id :bigint</text>
<text text-anchor="start" x="66" y="-40.7" font-family="Times,serif" font-size="14.00">article_id :bigint</text>
<text text-anchor="start" x="66" y="-24.2" font-family="Times,serif" font-size="14.00">created_at :timestamp(6) without time zone</text>
<text text-anchor="start" x="66" y="-7.7" font-family="Times,serif" font-size="14.00">updated_at :timestamp(6) without time zone</text>
</g>
<!-- Article&#45;&gt;CategoryArticle -->
<g id="edge7" class="edge">
<title>Article&#45;&gt;CategoryArticle</title>
<path fill="none" stroke="#ed341f" d="M519.19,-477.44C452.07,-422.72 375.06,-349.58 324.5,-269 293.97,-220.34 299.02,-201.02 267.5,-153 261.07,-143.2 253.73,-133.3 246.18,-123.79"/>
<polygon fill="#ed341f" stroke="#ed341f" points="518.87,-477.18 523.81,-486.97 523.02,-480.54 526.38,-483.26 526.38,-483.26 526.38,-483.26 523.02,-480.54 529.47,-479.98 518.87,-477.18"/>
<polygon fill="#ed341f" stroke="#ed341f" points="246.29,-123.93 243.5,-113.33 242.94,-119.79 240.21,-116.42 240.21,-116.42 240.21,-116.42 242.94,-119.79 236.5,-118.99 246.29,-123.93"/>
</g>
<!-- Like -->
<g id="node11" class="node">
<title>Like</title>
<path fill="none" stroke="black" d="M643,-153.5C643,-153.5 878,-153.5 878,-153.5 884,-153.5 890,-159.5 890,-165.5 890,-165.5 890,-256.5 890,-256.5 890,-262.5 884,-268.5 878,-268.5 878,-268.5 643,-268.5 643,-268.5 637,-268.5 631,-262.5 631,-256.5 631,-256.5 631,-165.5 631,-165.5 631,-159.5 637,-153.5 643,-153.5"/>
<text text-anchor="middle" x="760.5" y="-251.2" font-family="Times,serif" font-size="14.00">Like</text>
<polyline fill="none" stroke="black" points="631,-244 890,-244"/>
<text text-anchor="start" x="639" y="-226.7" font-family="Times,serif" font-size="14.00">id :bigint</text>
<text text-anchor="start" x="639" y="-210.2" font-family="Times,serif" font-size="14.00">user_id :bigint</text>
<text text-anchor="start" x="639" y="-193.7" font-family="Times,serif" font-size="14.00">article_id :bigint</text>
<text text-anchor="start" x="639" y="-177.2" font-family="Times,serif" font-size="14.00">created_at :timestamp(6) without time zone</text>
<text text-anchor="start" x="639" y="-160.7" font-family="Times,serif" font-size="14.00">updated_at :timestamp(6) without time zone</text>
</g>
<!-- Article&#45;&gt;Like -->
<g id="edge6" class="edge">
<title>Article&#45;&gt;Like</title>
<path fill="none" stroke="#a4579f" d="M731.97,-312.01C735.31,-300.29 738.49,-289.15 741.43,-278.85"/>
<polygon fill="#a4579f" stroke="#a4579f" points="731.99,-311.92 724.92,-320.3 730.53,-317.05 729.34,-321.21 729.34,-321.21 729.34,-321.21 730.53,-317.05 733.57,-322.77 731.99,-311.92"/>
<polygon fill="#a4579f" stroke="#a4579f" points="741.45,-278.77 748.52,-270.39 742.91,-273.64 744.1,-269.48 744.1,-269.48 744.1,-269.48 742.91,-273.64 739.86,-267.92 741.45,-278.77"/>
</g>
<!-- User -->
<g id="node12" class="node">
<title>User</title>
<path fill="none" stroke="black" d="M366,-0.5C366,-0.5 601,-0.5 601,-0.5 607,-0.5 613,-6.5 613,-12.5 613,-12.5 613,-103.5 613,-103.5 613,-109.5 607,-115.5 601,-115.5 601,-115.5 366,-115.5 366,-115.5 360,-115.5 354,-109.5 354,-103.5 354,-103.5 354,-12.5 354,-12.5 354,-6.5 360,-0.5 366,-0.5"/>
<text text-anchor="middle" x="483.5" y="-98.2" font-family="Times,serif" font-size="14.00">User</text>
<polyline fill="none" stroke="black" points="354,-91 613,-91"/>
<text text-anchor="start" x="362" y="-73.7" font-family="Times,serif" font-size="14.00">id :bigint</text>
<text text-anchor="start" x="362" y="-57.2" font-family="Times,serif" font-size="14.00">email :character varying</text>
<text text-anchor="start" x="362" y="-40.7" font-family="Times,serif" font-size="14.00">created_at :timestamp(6) without time zone</text>
<text text-anchor="start" x="362" y="-24.2" font-family="Times,serif" font-size="14.00">updated_at :timestamp(6) without time zone</text>
<text text-anchor="start" x="362" y="-7.7" font-family="Times,serif" font-size="14.00">role :integer</text>
</g>
<!-- Article&#45;&gt;User -->
<g id="edge4" class="edge">
<title>Article&#45;&gt;User</title>
<path fill="none" stroke="#e1911c" d="M518.65,-482.03C452.62,-428.2 380.26,-354.45 344.5,-269 324.6,-221.44 320.32,-198.54 344.5,-153 350.37,-141.93 358.2,-131.93 367.15,-122.95"/>
<polygon fill="#e1911c" stroke="#e1911c" points="518.63,-482.01 523.59,-491.79 522.78,-485.36 526.15,-488.08 526.15,-488.08 526.15,-488.08 522.78,-485.36 529.24,-484.79 518.63,-482.01"/>
<polygon fill="#e1911c" stroke="#e1911c" points="367.04,-123.06 377.4,-119.47 370.92,-119.4 374.07,-116.43 374.07,-116.43 374.07,-116.43 370.92,-119.4 371.22,-112.93 367.04,-123.06"/>
</g>
<!-- Impression -->
<g id="node13" class="node">
<title>Impression</title>
<ellipse fill="none" stroke="black" cx="960.5" cy="-211" rx="52.38" ry="18"/>
<text text-anchor="middle" x="960.5" y="-205.95" font-family="Times,serif" font-size="14.00">Impression</text>
</g>
<!-- Article&#45;&gt;Impression -->
<g id="edge9" class="edge">
<title>Article&#45;&gt;Impression</title>
<path fill="none" stroke="#e1ba4d" d="M792.98,-412.86C849.86,-344.66 909.67,-272.95 940.1,-236.46"/>
<polygon fill="#e1ba4d" stroke="#e1ba4d" points="792.92,-412.93 783.06,-417.72 789.51,-417.02 786.73,-420.35 786.73,-420.35 786.73,-420.35 789.51,-417.02 789.98,-423.49 792.92,-412.93"/>
<polygon fill="#e1ba4d" stroke="#e1ba4d" points="939.86,-236.74 949.73,-231.94 943.28,-232.65 946.06,-229.32 946.06,-229.32 946.06,-229.32 943.28,-232.65 942.81,-226.18 939.86,-236.74"/>
</g>
<!-- ActiveStorage::Attachment -->
<g id="node14" class="node">
<title>ActiveStorage::Attachment</title>
<ellipse fill="none" stroke="black" cx="1143.5" cy="-211" rx="112.26" ry="18"/>
<text text-anchor="middle" x="1143.5" y="-205.95" font-family="Times,serif" font-size="14.00">ActiveStorage::Attachment</text>
</g>
<!-- Article&#45;&gt;ActiveStorage::Attachment -->
<g id="edge10" class="edge">
<title>Article&#45;&gt;ActiveStorage::Attachment</title>
<path fill="none" stroke="#e4f829" d="M794.58,-473.15C904.45,-390.92 1049.81,-282.12 1112.52,-235.19"/>
<polygon fill="#e4f829" stroke="#e4f829" points="794.64,-473.11 783.94,-475.5 790.37,-476.3 786.9,-478.9 786.9,-478.9 786.9,-478.9 790.37,-476.3 789.33,-482.7 794.64,-473.11"/>
<polygon fill="#e4f829" stroke="#e4f829" points="1112.54,-235.17 1123.24,-232.79 1116.81,-231.98 1120.27,-229.38 1120.27,-229.38 1120.27,-229.38 1116.81,-231.98 1117.85,-225.58 1112.54,-235.17"/>
<text text-anchor="middle" x="1079.88" y="-290.2" font-family="Times,serif" font-size="14.00">file_attachment</text>
</g>
<!-- ActiveStorage::Blob -->
<g id="node15" class="node">
<title>ActiveStorage::Blob</title>
<ellipse fill="none" stroke="black" cx="1360.5" cy="-211" rx="86.67" ry="18"/>
<text text-anchor="middle" x="1360.5" y="-205.95" font-family="Times,serif" font-size="14.00">ActiveStorage::Blob</text>
</g>
<!-- Article&#45;&gt;ActiveStorage::Blob -->
<g id="edge11" class="edge">
<title>Article&#45;&gt;ActiveStorage::Blob</title>
<path fill="none" stroke="#327e31" d="M795.41,-509.57C919.55,-448.97 1105.8,-356.11 1264.5,-269 1284.94,-257.78 1307.37,-244.51 1325.41,-233.61"/>
<polygon fill="#327e31" stroke="#327e31" points="795.5,-509.53 784.54,-509.87 790.71,-511.86 786.81,-513.76 786.81,-513.76 786.81,-513.76 790.71,-511.86 788.49,-517.95 795.5,-509.53"/>
<polygon fill="#327e31" stroke="#327e31" points="1325.05,-233.83 1335.93,-232.48 1329.61,-231.06 1333.31,-228.81 1333.31,-228.81 1333.31,-228.81 1329.61,-231.06 1331.26,-224.79 1325.05,-233.83"/>
<text text-anchor="middle" x="1239.88" y="-290.2" font-family="Times,serif" font-size="14.00">file_blob</text>
</g>
<!-- Bookmark&#45;&gt;User -->
<g id="edge12" class="edge">
<title>Bookmark&#45;&gt;User</title>
<path fill="none" stroke="#b4f958" d="M483.5,-143.19C483.5,-137.52 483.5,-131.77 483.5,-126.1"/>
<polygon fill="#b4f958" stroke="#b4f958" points="483.5,-143.01 479,-153.01 483.5,-148.34 483.5,-152.67 483.5,-152.67 483.5,-152.67 483.5,-148.34 488,-153.01 483.5,-143.01"/>
<polygon fill="#b4f958" stroke="#b4f958" points="483.5,-126.31 488,-116.31 483.5,-120.97 483.5,-116.64 483.5,-116.64 483.5,-116.64 483.5,-120.97 479,-116.31 483.5,-126.31"/>
</g>
<!-- Category&#45;&gt;CategoryArticle -->
<g id="edge13" class="edge">
<title>Category&#45;&gt;CategoryArticle</title>
<path fill="none" stroke="#87a1b2" d="M151.9,-151.69C155.17,-143.17 158.57,-134.33 161.9,-125.65"/>
<polygon fill="#87a1b2" stroke="#87a1b2" points="151.88,-151.74 144.09,-159.47 149.96,-156.72 148.41,-160.77 148.41,-160.77 148.41,-160.77 149.96,-156.72 152.49,-162.69 151.88,-151.74"/>
<polygon fill="#87a1b2" stroke="#87a1b2" points="161.92,-125.59 169.71,-117.86 163.84,-120.61 165.39,-116.56 165.39,-116.56 165.39,-116.56 163.84,-120.61 161.31,-114.64 161.92,-125.59"/>
</g>
<!-- Company -->
<g id="node10" class="node">
<title>Company</title>
<path fill="none" stroke="black" d="M1030,-1024C1030,-1024 1265,-1024 1265,-1024 1271,-1024 1277,-1030 1277,-1036 1277,-1036 1277,-1176.5 1277,-1176.5 1277,-1182.5 1271,-1188.5 1265,-1188.5 1265,-1188.5 1030,-1188.5 1030,-1188.5 1024,-1188.5 1018,-1182.5 1018,-1176.5 1018,-1176.5 1018,-1036 1018,-1036 1018,-1030 1024,-1024 1030,-1024"/>
<text text-anchor="middle" x="1147.5" y="-1171.2" font-family="Times,serif" font-size="14.00">Company</text>
<polyline fill="none" stroke="black" points="1018,-1164 1277,-1164"/>
<text text-anchor="start" x="1026" y="-1146.7" font-family="Times,serif" font-size="14.00">updated_at :timestamp(6) without time zone</text>
<text text-anchor="start" x="1026" y="-1130.2" font-family="Times,serif" font-size="14.00">name :character varying</text>
<text text-anchor="start" x="1026" y="-1113.7" font-family="Times,serif" font-size="14.00">area :integer</text>
<text text-anchor="start" x="1026" y="-1097.2" font-family="Times,serif" font-size="14.00">location :character varying</text>
<text text-anchor="start" x="1026" y="-1080.7" font-family="Times,serif" font-size="14.00">website_url :character varying</text>
<text text-anchor="start" x="1026" y="-1064.2" font-family="Times,serif" font-size="14.00">string :character varying</text>
<text text-anchor="start" x="1026" y="-1047.7" font-family="Times,serif" font-size="14.00">created_at :timestamp(6) without time zone</text>
<text text-anchor="start" x="1026" y="-1031.2" font-family="Times,serif" font-size="14.00">id :bigint</text>
</g>
<!-- Like&#45;&gt;User -->
<g id="edge14" class="edge">
<title>Like&#45;&gt;User</title>
<path fill="none" stroke="#b79c58" d="M647.19,-148.23C630.59,-139.18 613.5,-129.86 596.9,-120.82"/>
<polygon fill="#b79c58" stroke="#b79c58" points="647.1,-148.18 653.73,-156.92 651.78,-150.74 655.59,-152.81 655.59,-152.81 655.59,-152.81 651.78,-150.74 658.03,-149.02 647.1,-148.18"/>
<polygon fill="#b79c58" stroke="#b79c58" points="596.81,-120.77 590.18,-112.03 592.12,-118.21 588.32,-116.14 588.32,-116.14 588.32,-116.14 592.12,-118.21 585.87,-119.93 596.81,-120.77"/>
</g>
</g>
</svg>
