<?xml version="1.0" encoding="UTF-8" standalone="no"?>
<!DOCTYPE svg PUBLIC "-//W3C//DTD SVG 1.1//EN"
 "http://www.w3.org/Graphics/SVG/1.1/DTD/svg11.dtd">
<!-- Generated by graphviz version 9.0.0 (20230911.1827)
 -->
<!-- Title: models_diagram Pages: 1 -->
<svg width="1086pt" height="399pt"
 viewBox="0.00 0.00 1086.29 398.50" xmlns="http://www.w3.org/2000/svg" xmlns:xlink="http://www.w3.org/1999/xlink">
<g id="graph0" class="graph" transform="scale(1 1) rotate(0) translate(4 394.5)">
<title>models_diagram</title>
<polygon fill="none" stroke="none" points="-4,4 -4,-394.5 1082.29,-394.5 1082.29,4 -4,4"/>
<!-- _diagram_info -->
<g id="node1" class="node">
<title>_diagram_info</title>
<text text-anchor="start" x="8" y="-374.15" font-family="Times,serif" font-size="13.00">Models diagram</text>
<text text-anchor="start" x="8" y="-359.15" font-family="Times,serif" font-size="13.00">Date: Mar 10 2024 &#45; 06:03</text>
<text text-anchor="start" x="8" y="-344.15" font-family="Times,serif" font-size="13.00">Migration version: 20240309204206</text>
<text text-anchor="start" x="8" y="-329.15" font-family="Times,serif" font-size="13.00">Generated by RailRoady 1.6.0</text>
<text text-anchor="start" x="8" y="-314.15" font-family="Times,serif" font-size="13.00">http://railroady.prestonlee.com</text>
</g>
<!-- Ability -->
<g id="node2" class="node">
<title>Ability</title>
<polygon fill="none" stroke="black" points="285.75,-367 231.5,-367 231.5,-331 285.75,-331 285.75,-367"/>
<text text-anchor="middle" x="258.62" y="-343.95" font-family="Times,serif" font-size="14.00">Ability</text>
</g>
<!-- ApplicationRecord -->
<g id="node3" class="node">
<title>ApplicationRecord</title>
<ellipse fill="none" stroke="black" cx="384.62" cy="-349" rx="81.04" ry="18"/>
<text text-anchor="middle" x="384.62" y="-343.95" font-family="Times,serif" font-size="14.00">ApplicationRecord</text>
</g>
<!-- Article -->
<g id="node4" class="node">
<title>Article</title>
<ellipse fill="none" stroke="black" cx="443.62" cy="-179.5" rx="36.51" ry="18"/>
<text text-anchor="middle" x="443.62" y="-174.45" font-family="Times,serif" font-size="14.00">Article</text>
</g>
<!-- Bookmark -->
<g id="node5" class="node">
<title>Bookmark</title>
<ellipse fill="none" stroke="black" cx="231.62" cy="-91" rx="50.33" ry="18"/>
<text text-anchor="middle" x="231.62" y="-85.95" font-family="Times,serif" font-size="14.00">Bookmark</text>
</g>
<!-- Article&#45;&gt;Bookmark -->
<g id="edge4" class="edge">
<title>Article&#45;&gt;Bookmark</title>
<path fill="none" stroke="#138449" d="M405.03,-164.67C387.97,-158.42 367.71,-150.81 349.62,-143.5 323.33,-132.88 294.12,-120.13 271.33,-109.98"/>
<polygon fill="#138449" stroke="#138449" points="404.96,-164.65 412.81,-172.3 409.97,-166.47 414.04,-167.96 414.04,-167.96 414.04,-167.96 409.97,-166.47 415.89,-163.84 404.96,-164.65"/>
<polygon fill="#138449" stroke="#138449" points="271.43,-110.02 264.13,-101.83 266.56,-107.84 262.6,-106.08 262.6,-106.08 262.6,-106.08 266.56,-107.84 260.46,-110.05 271.43,-110.02"/>
</g>
<!-- Like -->
<g id="node8" class="node">
<title>Like</title>
<ellipse fill="none" stroke="black" cx="327.62" cy="-91" rx="27.81" ry="18"/>
<text text-anchor="middle" x="327.62" y="-85.95" font-family="Times,serif" font-size="14.00">Like</text>
</g>
<!-- Article&#45;&gt;Like -->
<g id="edge5" class="edge">
<title>Article&#45;&gt;Like</title>
<path fill="none" stroke="#ea91df" d="M405.13,-164.2C393.1,-158.74 380.22,-151.8 369.62,-143.5 359.89,-135.88 350.94,-125.61 343.83,-116.25"/>
<polygon fill="#ea91df" stroke="#ea91df" points="405.04,-164.17 412.44,-172.26 409.94,-166.28 413.92,-168 413.92,-168 413.92,-168 409.94,-166.28 416.01,-164 405.04,-164.17"/>
<polygon fill="#ea91df" stroke="#ea91df" points="343.92,-116.37 341.68,-105.63 340.78,-112.05 338.24,-108.55 338.24,-108.55 338.24,-108.55 340.78,-112.05 334.4,-110.92 343.92,-116.37"/>
</g>
<!-- Person -->
<g id="node9" class="node">
<title>Person</title>
<ellipse fill="none" stroke="black" cx="485.62" cy="-91" rx="36" ry="18"/>
<text text-anchor="middle" x="485.62" y="-85.95" font-family="Times,serif" font-size="14.00">Person</text>
</g>
<!-- Article&#45;&gt;Person -->
<g id="edge3" class="edge">
<title>Article&#45;&gt;Person</title>
<path fill="none" stroke="#a80563" d="M456.2,-152.6C461.51,-141.66 467.68,-128.95 473,-118"/>
<polygon fill="#a80563" stroke="#a80563" points="456.24,-152.53 447.82,-159.56 453.91,-157.32 452.02,-161.22 452.02,-161.22 452.02,-161.22 453.91,-157.32 455.92,-163.49 456.24,-152.53"/>
<polygon fill="#a80563" stroke="#a80563" points="472.89,-118.22 481.31,-111.19 475.22,-113.42 477.12,-109.52 477.12,-109.52 477.12,-109.52 475.22,-113.42 473.21,-107.26 472.89,-118.22"/>
</g>
<!-- PersonArticle -->
<g id="node10" class="node">
<title>PersonArticle</title>
<ellipse fill="none" stroke="black" cx="450.62" cy="-18" rx="61.59" ry="18"/>
<text text-anchor="middle" x="450.62" y="-12.95" font-family="Times,serif" font-size="14.00">PersonArticle</text>
</g>
<!-- Article&#45;&gt;PersonArticle -->
<g id="edge2" class="edge">
<title>Article&#45;&gt;PersonArticle</title>
<path fill="none" stroke="#42a5db" d="M441.04,-151.02C439.48,-129.69 438.2,-99.41 440.62,-73 441.42,-64.32 442.92,-54.96 444.53,-46.5"/>
<polygon fill="#42a5db" stroke="#42a5db" points="441.04,-150.98 437.36,-161.31 441.47,-156.3 441.82,-160.62 441.82,-160.62 441.82,-160.62 441.47,-156.3 446.33,-160.59 441.04,-150.98"/>
<polygon fill="#42a5db" stroke="#42a5db" points="444.52,-46.53 450.91,-37.62 445.58,-41.3 446.43,-37.05 446.43,-37.05 446.43,-37.05 445.58,-41.3 442.09,-35.84 444.52,-46.53"/>
</g>
<!-- User -->
<g id="node11" class="node">
<title>User</title>
<ellipse fill="none" stroke="black" cx="327.62" cy="-18" rx="28.32" ry="18"/>
<text text-anchor="middle" x="327.62" y="-12.95" font-family="Times,serif" font-size="14.00">User</text>
</g>
<!-- Article&#45;&gt;User -->
<g id="edge1" class="edge">
<title>Article&#45;&gt;User</title>
<path fill="none" stroke="#bc779e" d="M425.63,-153.76C403.63,-123.51 366.67,-72.69 344.97,-42.85"/>
<polygon fill="#bc779e" stroke="#bc779e" points="425.57,-153.67 427.81,-164.41 428.71,-157.99 431.25,-161.49 431.25,-161.49 431.25,-161.49 428.71,-157.99 435.09,-159.11 425.57,-153.67"/>
<polygon fill="#bc779e" stroke="#bc779e" points="345.1,-43.03 342.86,-32.29 341.96,-38.71 339.42,-35.21 339.42,-35.21 339.42,-35.21 341.96,-38.71 335.58,-37.59 345.1,-43.03"/>
</g>
<!-- Impression -->
<g id="node14" class="node">
<title>Impression</title>
<ellipse fill="none" stroke="black" cx="591.62" cy="-91" rx="52.38" ry="18"/>
<text text-anchor="middle" x="591.62" y="-85.95" font-family="Times,serif" font-size="14.00">Impression</text>
</g>
<!-- Article&#45;&gt;Impression -->
<g id="edge6" class="edge">
<title>Article&#45;&gt;Impression</title>
<path fill="none" stroke="#66bd27" d="M475.11,-160.1C499.17,-146.03 532.31,-126.67 557.09,-112.18"/>
<polygon fill="#66bd27" stroke="#66bd27" points="475.35,-159.96 464.44,-161.12 470.74,-162.65 467,-164.84 467,-164.84 467,-164.84 470.74,-162.65 468.99,-168.89 475.35,-159.96"/>
<polygon fill="#66bd27" stroke="#66bd27" points="556.89,-112.3 567.79,-111.14 561.49,-109.61 565.23,-107.43 565.23,-107.43 565.23,-107.43 561.49,-109.61 563.25,-103.37 556.89,-112.3"/>
</g>
<!-- ActiveStorage::Attachment -->
<g id="node15" class="node">
<title>ActiveStorage::Attachment</title>
<ellipse fill="none" stroke="black" cx="774.62" cy="-91" rx="112.26" ry="18"/>
<text text-anchor="middle" x="774.62" y="-85.95" font-family="Times,serif" font-size="14.00">ActiveStorage::Attachment</text>
</g>
<!-- Article&#45;&gt;ActiveStorage::Attachment -->
<g id="edge7" class="edge">
<title>Article&#45;&gt;ActiveStorage::Attachment</title>
<path fill="none" stroke="#3304e2" d="M485.41,-167.58C541.36,-152.96 641.25,-126.85 707.73,-109.48"/>
<polygon fill="#3304e2" stroke="#3304e2" points="485.36,-167.59 474.55,-165.77 480.2,-168.94 476.01,-170.04 476.01,-170.04 476.01,-170.04 480.2,-168.94 476.82,-174.48 485.36,-167.59"/>
<polygon fill="#3304e2" stroke="#3304e2" points="707.7,-109.49 718.51,-111.32 712.86,-108.14 717.05,-107.05 717.05,-107.05 717.05,-107.05 712.86,-108.14 716.24,-102.61 707.7,-109.49"/>
<text text-anchor="middle" x="681" y="-130.2" font-family="Times,serif" font-size="14.00">file_attachment</text>
</g>
<!-- ActiveStorage::Blob -->
<g id="node16" class="node">
<title>ActiveStorage::Blob</title>
<ellipse fill="none" stroke="black" cx="991.62" cy="-91" rx="86.67" ry="18"/>
<text text-anchor="middle" x="991.62" y="-85.95" font-family="Times,serif" font-size="14.00">ActiveStorage::Blob</text>
</g>
<!-- Article&#45;&gt;ActiveStorage::Blob -->
<g id="edge8" class="edge">
<title>Article&#45;&gt;ActiveStorage::Blob</title>
<path fill="none" stroke="#7bcf8b" d="M489.5,-173.85C545.76,-167.91 643.97,-156.8 727.62,-143.5 794.35,-132.89 869.97,-117.83 923.13,-106.73"/>
<polygon fill="#7bcf8b" stroke="#7bcf8b" points="489.44,-173.85 479.02,-170.42 484.13,-174.41 479.82,-174.86 479.82,-174.86 479.82,-174.86 484.13,-174.41 479.96,-179.37 489.44,-173.85"/>
<polygon fill="#7bcf8b" stroke="#7bcf8b" points="923,-106.76 933.71,-109.11 928.22,-105.66 932.46,-104.77 932.46,-104.77 932.46,-104.77 928.22,-105.66 931.86,-100.3 923,-106.76"/>
<text text-anchor="middle" x="839" y="-130.2" font-family="Times,serif" font-size="14.00">file_blob</text>
</g>
<!-- Bookmark&#45;&gt;User -->
<g id="edge9" class="edge">
<title>Bookmark&#45;&gt;User</title>
<path fill="none" stroke="#be22f5" d="M260.89,-68.35C273.8,-58.81 288.85,-47.68 301.38,-38.41"/>
<polygon fill="#be22f5" stroke="#be22f5" points="261.24,-68.1 250.52,-70.43 256.95,-71.27 253.47,-73.85 253.47,-73.85 253.47,-73.85 256.95,-71.27 255.88,-77.66 261.24,-68.1"/>
<polygon fill="#be22f5" stroke="#be22f5" points="301.29,-38.47 312.01,-36.15 305.58,-35.3 309.07,-32.73 309.07,-32.73 309.07,-32.73 305.58,-35.3 306.66,-28.91 301.29,-38.47"/>
</g>
<!-- Category -->
<g id="node6" class="node">
<title>Category</title>
<ellipse fill="none" stroke="black" cx="528.62" cy="-349" rx="44.7" ry="18"/>
<text text-anchor="middle" x="528.62" y="-343.95" font-family="Times,serif" font-size="14.00">Category</text>
</g>
<!-- CategoryArticle -->
<g id="node7" class="node">
<title>CategoryArticle</title>
<ellipse fill="none" stroke="black" cx="443.62" cy="-252.5" rx="70.29" ry="18"/>
<text text-anchor="middle" x="443.62" y="-247.45" font-family="Times,serif" font-size="14.00">CategoryArticle</text>
</g>
<!-- Category&#45;&gt;CategoryArticle -->
<g id="edge10" class="edge">
<title>Category&#45;&gt;CategoryArticle</title>
<path fill="none" stroke="#e13d89" d="M506.85,-323.8C494.17,-309.69 478.22,-291.96 465.52,-277.84"/>
<polygon fill="#e13d89" stroke="#e13d89" points="506.91,-323.86 510.25,-334.3 510.48,-327.82 513.37,-331.04 513.37,-331.04 513.37,-331.04 510.48,-327.82 516.94,-328.28 506.91,-323.86"/>
<polygon fill="#e13d89" stroke="#e13d89" points="465.74,-278.09 462.4,-267.65 462.18,-274.13 459.28,-270.91 459.28,-270.91 459.28,-270.91 462.18,-274.13 455.71,-273.67 465.74,-278.09"/>
</g>
<!-- Aricle -->
<g id="node17" class="node">
<title>Aricle</title>
<ellipse fill="none" stroke="black" cx="565.62" cy="-252.5" rx="33.95" ry="18"/>
<text text-anchor="middle" x="565.62" y="-247.45" font-family="Times,serif" font-size="14.00">Aricle</text>
</g>
<!-- Category&#45;&gt;Aricle -->
<g id="edge11" class="edge">
<title>Category&#45;&gt;Aricle</title>
<path fill="none" stroke="#6a948f" d="M538.97,-321.57C544.07,-308.56 550.19,-292.92 555.28,-279.91"/>
<polygon fill="#6a948f" stroke="#6a948f" points="539.01,-321.48 531.17,-329.15 537.06,-326.45 535.48,-330.48 535.48,-330.48 535.48,-330.48 537.06,-326.45 539.55,-332.43 539.01,-321.48"/>
<polygon fill="#6a948f" stroke="#6a948f" points="555.17,-280.19 563.01,-272.52 557.12,-275.22 558.7,-271.19 558.7,-271.19 558.7,-271.19 557.12,-275.22 554.63,-269.24 555.17,-280.19"/>
</g>
<!-- CategoryArticle&#45;&gt;Article -->
<g id="edge12" class="edge">
<title>CategoryArticle&#45;&gt;Article</title>
<path fill="none" stroke="#93252a" d="M443.62,-223.96C443.62,-218.67 443.62,-213.14 443.62,-207.85"/>
<polygon fill="#93252a" stroke="#93252a" points="443.63,-223.98 439.13,-233.98 443.63,-229.31 443.63,-233.64 443.63,-233.64 443.63,-233.64 443.63,-229.31 448.13,-233.98 443.63,-223.98"/>
<polygon fill="#93252a" stroke="#93252a" points="443.63,-207.86 448.13,-197.86 443.63,-202.53 443.63,-198.2 443.63,-198.2 443.63,-198.2 443.63,-202.53 439.13,-197.86 443.63,-207.86"/>
</g>
<!-- Like&#45;&gt;User -->
<g id="edge13" class="edge">
<title>Like&#45;&gt;User</title>
<path fill="none" stroke="#e39623" d="M327.62,-62.46C327.62,-57.17 327.62,-51.64 327.62,-46.35"/>
<polygon fill="#e39623" stroke="#e39623" points="327.63,-62.48 323.13,-72.48 327.63,-67.81 327.63,-72.14 327.63,-72.14 327.63,-72.14 327.63,-67.81 332.13,-72.48 327.63,-62.48"/>
<polygon fill="#e39623" stroke="#e39623" points="327.63,-46.36 332.13,-36.36 327.63,-41.03 327.63,-36.7 327.63,-36.7 327.63,-36.7 327.63,-41.03 323.13,-36.36 327.63,-46.36"/>
</g>
<!-- Person&#45;&gt;PersonArticle -->
<g id="edge14" class="edge">
<title>Person&#45;&gt;PersonArticle</title>
<path fill="none" stroke="#f9e3a4" d="M472.8,-63.98C469.8,-57.9 466.61,-51.43 463.61,-45.34"/>
<polygon fill="#f9e3a4" stroke="#f9e3a4" points="472.76,-63.9 473.15,-74.86 475.12,-68.69 477.03,-72.57 477.03,-72.57 477.03,-72.57 475.12,-68.69 481.22,-70.88 472.76,-63.9"/>
<polygon fill="#f9e3a4" stroke="#f9e3a4" points="463.67,-45.47 463.29,-34.51 461.31,-40.68 459.4,-36.8 459.4,-36.8 459.4,-36.8 461.31,-40.68 455.21,-38.49 463.67,-45.47"/>
</g>
<!-- VirtualArticle -->
<g id="node12" class="node">
<title>VirtualArticle</title>
<polygon fill="none" stroke="black" points="683.5,-367 591.75,-367 591.75,-331 683.5,-331 683.5,-367"/>
<text text-anchor="middle" x="637.62" y="-343.95" font-family="Times,serif" font-size="14.00">VirtualArticle</text>
</g>
<!-- VirtualPerson -->
<g id="node13" class="node">
<title>VirtualPerson</title>
<polygon fill="none" stroke="black" points="792.12,-367 701.12,-367 701.12,-331 792.12,-331 792.12,-367"/>
<text text-anchor="middle" x="746.62" y="-343.95" font-family="Times,serif" font-size="14.00">VirtualPerson</text>
</g>
</g>
</svg>
