<?xml version="1.0" encoding="UTF-8" standalone="no"?>
<!DOCTYPE svg PUBLIC "-//W3C//DTD SVG 1.1//EN"
 "http://www.w3.org/Graphics/SVG/1.1/DTD/svg11.dtd">
<!-- Generated by graphviz version 9.0.0 (20230911.1827)
 -->
<!-- Title: models_diagram Pages: 1 -->
<svg width="1455pt" height="867pt"
 viewBox="0.00 0.00 1455.17 867.00" xmlns="http://www.w3.org/2000/svg" xmlns:xlink="http://www.w3.org/1999/xlink">
<g id="graph0" class="graph" transform="scale(1 1) rotate(0) translate(4 863)">
<title>models_diagram</title>
<polygon fill="none" stroke="none" points="-4,4 -4,-863 1451.17,-863 1451.17,4 -4,4"/>
<!-- _diagram_info -->
<g id="node1" class="node">
<title>_diagram_info</title>
<text text-anchor="start" x="263.88" y="-801.4" font-family="Times,serif" font-size="13.00">Models diagram</text>
<text text-anchor="start" x="263.88" y="-786.4" font-family="Times,serif" font-size="13.00">Date: Mar 10 2024 &#45; 10:02</text>
<text text-anchor="start" x="263.88" y="-771.4" font-family="Times,serif" font-size="13.00">Migration version: 20240310004356</text>
<text text-anchor="start" x="263.88" y="-756.4" font-family="Times,serif" font-size="13.00">Generated by RailRoady 1.6.0</text>
<text text-anchor="start" x="263.88" y="-741.4" font-family="Times,serif" font-size="13.00">http://railroady.prestonlee.com</text>
</g>
<!-- Ability -->
<g id="node2" class="node">
<title>Ability</title>
<polygon fill="none" stroke="black" points="487.38,-751.75 487.38,-800.75 541.62,-800.75 541.62,-751.75 487.38,-751.75"/>
<text text-anchor="middle" x="514.5" y="-783.45" font-family="Times,serif" font-size="14.00">Ability</text>
<polyline fill="none" stroke="black" points="487.38,-776.25 541.62,-776.25"/>
<text text-anchor="middle" x="514.5" y="-758.95" font-family="Times,serif" font-size="14.00"> </text>
</g>
<!-- Applicant -->
<g id="node3" class="node">
<title>Applicant</title>
<path fill="none" stroke="black" d="M572,-710.5C572,-710.5 807,-710.5 807,-710.5 813,-710.5 819,-716.5 819,-722.5 819,-722.5 819,-830 819,-830 819,-836 813,-842 807,-842 807,-842 572,-842 572,-842 566,-842 560,-836 560,-830 560,-830 560,-722.5 560,-722.5 560,-716.5 566,-710.5 572,-710.5"/>
<text text-anchor="middle" x="689.5" y="-824.7" font-family="Times,serif" font-size="14.00">Applicant</text>
<polyline fill="none" stroke="black" points="560,-817.5 819,-817.5"/>
<text text-anchor="start" x="568" y="-800.2" font-family="Times,serif" font-size="14.00">id :bigint</text>
<text text-anchor="start" x="568" y="-783.7" font-family="Times,serif" font-size="14.00">name :character varying</text>
<text text-anchor="start" x="568" y="-767.2" font-family="Times,serif" font-size="14.00">user_id :integer</text>
<text text-anchor="start" x="568" y="-750.7" font-family="Times,serif" font-size="14.00">created_at :timestamp(6) without time zone</text>
<text text-anchor="start" x="568" y="-734.2" font-family="Times,serif" font-size="14.00">updated_at :timestamp(6) without time zone</text>
<text text-anchor="start" x="568" y="-717.7" font-family="Times,serif" font-size="14.00">creater_id :integer</text>
</g>
<!-- ApplicantArticle -->
<g id="node4" class="node">
<title>ApplicantArticle</title>
<path fill="none" stroke="black" d="M460,-541C460,-541 695,-541 695,-541 701,-541 707,-547 707,-553 707,-553 707,-644 707,-644 707,-650 701,-656 695,-656 695,-656 460,-656 460,-656 454,-656 448,-650 448,-644 448,-644 448,-553 448,-553 448,-547 454,-541 460,-541"/>
<text text-anchor="middle" x="577.5" y="-638.7" font-family="Times,serif" font-size="14.00">ApplicantArticle</text>
<polyline fill="none" stroke="black" points="448,-631.5 707,-631.5"/>
<text text-anchor="start" x="456" y="-614.2" font-family="Times,serif" font-size="14.00">id :bigint</text>
<text text-anchor="start" x="456" y="-597.7" font-family="Times,serif" font-size="14.00">applicant_id :bigint</text>
<text text-anchor="start" x="456" y="-581.2" font-family="Times,serif" font-size="14.00">article_id :bigint</text>
<text text-anchor="start" x="456" y="-564.7" font-family="Times,serif" font-size="14.00">created_at :timestamp(6) without time zone</text>
<text text-anchor="start" x="456" y="-548.2" font-family="Times,serif" font-size="14.00">updated_at :timestamp(6) without time zone</text>
</g>
<!-- Applicant&#45;&gt;ApplicantArticle -->
<g id="edge1" class="edge">
<title>Applicant&#45;&gt;ApplicantArticle</title>
<path fill="none" stroke="#9e2f4f" d="M642.5,-701.5C634.76,-689.36 626.79,-676.85 619.19,-664.93"/>
<polygon fill="#9e2f4f" stroke="#9e2f4f" points="642.56,-701.59 644.14,-712.44 645.43,-706.09 647.75,-709.74 647.75,-709.74 647.75,-709.74 645.43,-706.09 651.73,-707.61 642.56,-701.59"/>
<polygon fill="#9e2f4f" stroke="#9e2f4f" points="619.29,-665.08 617.71,-654.23 616.42,-660.58 614.1,-656.93 614.1,-656.93 614.1,-656.93 616.42,-660.58 610.12,-659.06 619.29,-665.08"/>
</g>
<!-- Article -->
<g id="node6" class="node">
<title>Article</title>
<path fill="none" stroke="black" d="M539,-322C539,-322 774,-322 774,-322 780,-322 786,-328 786,-334 786,-334 786,-491 786,-491 786,-497 780,-503 774,-503 774,-503 539,-503 539,-503 533,-503 527,-497 527,-491 527,-491 527,-334 527,-334 527,-328 533,-322 539,-322"/>
<text text-anchor="middle" x="656.5" y="-485.7" font-family="Times,serif" font-size="14.00">Article</text>
<polyline fill="none" stroke="black" points="527,-478.5 786,-478.5"/>
<text text-anchor="start" x="535" y="-461.2" font-family="Times,serif" font-size="14.00">end_time :timestamp(6) without time zone</text>
<text text-anchor="start" x="535" y="-444.7" font-family="Times,serif" font-size="14.00">body :text</text>
<text text-anchor="start" x="535" y="-428.2" font-family="Times,serif" font-size="14.00">user_id :bigint</text>
<text text-anchor="start" x="535" y="-411.7" font-family="Times,serif" font-size="14.00">created_at :timestamp(6) without time zone</text>
<text text-anchor="start" x="535" y="-395.2" font-family="Times,serif" font-size="14.00">updated_at :timestamp(6) without time zone</text>
<text text-anchor="start" x="535" y="-378.7" font-family="Times,serif" font-size="14.00">impressions_count :integer</text>
<text text-anchor="start" x="535" y="-362.2" font-family="Times,serif" font-size="14.00">file :character varying</text>
<text text-anchor="start" x="535" y="-345.7" font-family="Times,serif" font-size="14.00">start_time :timestamp(6) without time zone</text>
<text text-anchor="start" x="535" y="-329.2" font-family="Times,serif" font-size="14.00">id :bigint</text>
</g>
<!-- Applicant&#45;&gt;Article -->
<g id="edge2" class="edge">
<title>Applicant&#45;&gt;Article</title>
<path fill="none" stroke="#cd3aa4" d="M710.2,-700.15C719.94,-653.74 727.14,-593.19 715.5,-540.5 713.5,-531.43 710.78,-522.25 707.6,-513.18"/>
<polygon fill="#cd3aa4" stroke="#cd3aa4" points="710.23,-700.03 703.7,-708.84 709.09,-705.24 708.16,-709.47 708.16,-709.47 708.16,-709.47 709.09,-705.24 712.49,-710.76 710.23,-700.03"/>
<polygon fill="#cd3aa4" stroke="#cd3aa4" points="707.57,-513.09 708.33,-502.15 705.72,-508.08 704.22,-504.02 704.22,-504.02 704.22,-504.02 705.72,-508.08 699.88,-505.26 707.57,-513.09"/>
</g>
<!-- ApplicantArticle&#45;&gt;Article -->
<g id="edge3" class="edge">
<title>ApplicantArticle&#45;&gt;Article</title>
<path fill="none" stroke="#e69dd6" d="M606.07,-530.95C608.61,-525.05 611.2,-519 613.82,-512.91"/>
<polygon fill="#e69dd6" stroke="#e69dd6" points="606.03,-531.05 597.95,-538.46 603.93,-535.95 602.22,-539.93 602.22,-539.93 602.22,-539.93 603.93,-535.95 606.22,-542.01 606.03,-531.05"/>
<polygon fill="#e69dd6" stroke="#e69dd6" points="613.86,-512.81 621.94,-505.4 615.96,-507.91 617.67,-503.93 617.67,-503.93 617.67,-503.93 615.96,-507.91 613.67,-501.85 613.86,-512.81"/>
</g>
<!-- ApplicationRecord -->
<g id="node5" class="node">
<title>ApplicationRecord</title>
<ellipse fill="none" stroke="black" cx="918.5" cy="-776.25" rx="81.04" ry="18"/>
<text text-anchor="middle" x="918.5" y="-771.2" font-family="Times,serif" font-size="14.00">ApplicationRecord</text>
</g>
<!-- Bookmark -->
<g id="node7" class="node">
<title>Bookmark</title>
<path fill="none" stroke="black" d="M366,-153.5C366,-153.5 601,-153.5 601,-153.5 607,-153.5 613,-159.5 613,-165.5 613,-165.5 613,-256.5 613,-256.5 613,-262.5 607,-268.5 601,-268.5 601,-268.5 366,-268.5 366,-268.5 360,-268.5 354,-262.5 354,-256.5 354,-256.5 354,-165.5 354,-165.5 354,-159.5 360,-153.5 366,-153.5"/>
<text text-anchor="middle" x="483.5" y="-251.2" font-family="Times,serif" font-size="14.00">Bookmark</text>
<polyline fill="none" stroke="black" points="354,-244 613,-244"/>
<text text-anchor="start" x="362" y="-226.7" font-family="Times,serif" font-size="14.00">id :bigint</text>
<text text-anchor="start" x="362" y="-210.2" font-family="Times,serif" font-size="14.00">user_id :bigint</text>
<text text-anchor="start" x="362" y="-193.7" font-family="Times,serif" font-size="14.00">article_id :bigint</text>
<text text-anchor="start" x="362" y="-177.2" font-family="Times,serif" font-size="14.00">created_at :timestamp(6) without time zone</text>
<text text-anchor="start" x="362" y="-160.7" font-family="Times,serif" font-size="14.00">updated_at :timestamp(6) without time zone</text>
</g>
<!-- Article&#45;&gt;Bookmark -->
<g id="edge5" class="edge">
<title>Article&#45;&gt;Bookmark</title>
<path fill="none" stroke="#73e431" d="M572,-314.06C560.96,-301.32 549.87,-288.53 539.45,-276.52"/>
<polygon fill="#73e431" stroke="#73e431" points="571.83,-313.86 574.98,-324.37 575.33,-317.89 578.17,-321.17 578.17,-321.17 578.17,-321.17 575.33,-317.89 581.78,-318.47 571.83,-313.86"/>
<polygon fill="#73e431" stroke="#73e431" points="539.49,-276.56 536.33,-266.06 535.99,-272.53 533.15,-269.26 533.15,-269.26 533.15,-269.26 535.99,-272.53 529.53,-271.95 539.49,-276.56"/>
</g>
<!-- Category -->
<g id="node8" class="node">
<title>Category</title>
<path fill="none" stroke="black" d="M12,-161.75C12,-161.75 247,-161.75 247,-161.75 253,-161.75 259,-167.75 259,-173.75 259,-173.75 259,-248.25 259,-248.25 259,-254.25 253,-260.25 247,-260.25 247,-260.25 12,-260.25 12,-260.25 6,-260.25 0,-254.25 0,-248.25 0,-248.25 0,-173.75 0,-173.75 0,-167.75 6,-161.75 12,-161.75"/>
<text text-anchor="middle" x="129.5" y="-242.95" font-family="Times,serif" font-size="14.00">Category</text>
<polyline fill="none" stroke="black" points="0,-235.75 259,-235.75"/>
<text text-anchor="start" x="8" y="-218.45" font-family="Times,serif" font-size="14.00">id :bigint</text>
<text text-anchor="start" x="8" y="-201.95" font-family="Times,serif" font-size="14.00">name :character varying</text>
<text text-anchor="start" x="8" y="-185.45" font-family="Times,serif" font-size="14.00">created_at :timestamp(6) without time zone</text>
<text text-anchor="start" x="8" y="-168.95" font-family="Times,serif" font-size="14.00">updated_at :timestamp(6) without time zone</text>
</g>
<!-- Article&#45;&gt;Category -->
<g id="edge8" class="edge">
<title>Article&#45;&gt;Category</title>
<path fill="none" stroke="#2fd9e1" d="M516.99,-382.52C442.84,-364.56 351.21,-338.25 273.5,-303.5 250.57,-293.25 227.02,-279.74 205.79,-266.27"/>
<polygon fill="#2fd9e1" stroke="#2fd9e1" points="516.82,-382.48 525.5,-389.18 522.01,-383.72 526.22,-384.73 526.22,-384.73 526.22,-384.73 522.01,-383.72 527.6,-380.43 516.82,-382.48"/>
<polygon fill="#2fd9e1" stroke="#2fd9e1" points="205.84,-266.3 199.87,-257.11 201.36,-263.42 197.72,-261.07 197.72,-261.07 197.72,-261.07 201.36,-263.42 195,-264.68 205.84,-266.3"/>
</g>
<!-- CategoryArticle -->
<g id="node9" class="node">
<title>CategoryArticle</title>
<path fill="none" stroke="black" d="M70,-0.5C70,-0.5 305,-0.5 305,-0.5 311,-0.5 317,-6.5 317,-12.5 317,-12.5 317,-103.5 317,-103.5 317,-109.5 311,-115.5 305,-115.5 305,-115.5 70,-115.5 70,-115.5 64,-115.5 58,-109.5 58,-103.5 58,-103.5 58,-12.5 58,-12.5 58,-6.5 64,-0.5 70,-0.5"/>
<text text-anchor="middle" x="187.5" y="-98.2" font-family="Times,serif" font-size="14.00">CategoryArticle</text>
<polyline fill="none" stroke="black" points="58,-91 317,-91"/>
<text text-anchor="start" x="66" y="-73.7" font-family="Times,serif" font-size="14.00">id :bigint</text>
<text text-anchor="start" x="66" y="-57.2" font-family="Times,serif" font-size="14.00">category_id :bigint</text>
<text text-anchor="start" x="66" y="-40.7" font-family="Times,serif" font-size="14.00">article_id :bigint</text>
<text text-anchor="start" x="66" y="-24.2" font-family="Times,serif" font-size="14.00">created_at :timestamp(6) without time zone</text>
<text text-anchor="start" x="66" y="-7.7" font-family="Times,serif" font-size="14.00">updated_at :timestamp(6) without time zone</text>
</g>
<!-- Article&#45;&gt;CategoryArticle -->
<g id="edge7" class="edge">
<title>Article&#45;&gt;CategoryArticle</title>
<path fill="none" stroke="#2b1ce2" d="M517.08,-375.18C464.42,-357.97 405.45,-334.32 356.5,-303.5 290.74,-262.1 309.46,-218.41 267.5,-153 261.17,-143.14 253.9,-133.2 246.37,-123.66"/>
<polygon fill="#2b1ce2" stroke="#2b1ce2" points="517,-375.15 525.14,-382.49 522.08,-376.78 526.2,-378.11 526.2,-378.11 526.2,-378.11 522.08,-376.78 527.9,-373.93 517,-375.15"/>
<polygon fill="#2b1ce2" stroke="#2b1ce2" points="246.48,-123.81 243.71,-113.2 243.14,-119.66 240.42,-116.28 240.42,-116.28 240.42,-116.28 243.14,-119.66 236.71,-118.85 246.48,-123.81"/>
</g>
<!-- Like -->
<g id="node11" class="node">
<title>Like</title>
<path fill="none" stroke="black" d="M643,-153.5C643,-153.5 878,-153.5 878,-153.5 884,-153.5 890,-159.5 890,-165.5 890,-165.5 890,-256.5 890,-256.5 890,-262.5 884,-268.5 878,-268.5 878,-268.5 643,-268.5 643,-268.5 637,-268.5 631,-262.5 631,-256.5 631,-256.5 631,-165.5 631,-165.5 631,-159.5 637,-153.5 643,-153.5"/>
<text text-anchor="middle" x="760.5" y="-251.2" font-family="Times,serif" font-size="14.00">Like</text>
<polyline fill="none" stroke="black" points="631,-244 890,-244"/>
<text text-anchor="start" x="639" y="-226.7" font-family="Times,serif" font-size="14.00">id :bigint</text>
<text text-anchor="start" x="639" y="-210.2" font-family="Times,serif" font-size="14.00">user_id :bigint</text>
<text text-anchor="start" x="639" y="-193.7" font-family="Times,serif" font-size="14.00">article_id :bigint</text>
<text text-anchor="start" x="639" y="-177.2" font-family="Times,serif" font-size="14.00">created_at :timestamp(6) without time zone</text>
<text text-anchor="start" x="639" y="-160.7" font-family="Times,serif" font-size="14.00">updated_at :timestamp(6) without time zone</text>
</g>
<!-- Article&#45;&gt;Like -->
<g id="edge6" class="edge">
<title>Article&#45;&gt;Like</title>
<path fill="none" stroke="#4f7aba" d="M707.96,-312.79C714.11,-300.99 720.28,-289.16 726.1,-277.98"/>
<polygon fill="#4f7aba" stroke="#4f7aba" points="708.11,-312.51 699.49,-319.29 705.64,-317.24 703.64,-321.08 703.64,-321.08 703.64,-321.08 705.64,-317.24 707.47,-323.46 708.11,-312.51"/>
<polygon fill="#4f7aba" stroke="#4f7aba" points="726.14,-277.92 734.75,-271.13 728.6,-273.19 730.6,-269.35 730.6,-269.35 730.6,-269.35 728.6,-273.19 726.77,-266.97 726.14,-277.92"/>
</g>
<!-- User -->
<g id="node12" class="node">
<title>User</title>
<path fill="none" stroke="black" d="M366,-0.5C366,-0.5 601,-0.5 601,-0.5 607,-0.5 613,-6.5 613,-12.5 613,-12.5 613,-103.5 613,-103.5 613,-109.5 607,-115.5 601,-115.5 601,-115.5 366,-115.5 366,-115.5 360,-115.5 354,-109.5 354,-103.5 354,-103.5 354,-12.5 354,-12.5 354,-6.5 360,-0.5 366,-0.5"/>
<text text-anchor="middle" x="483.5" y="-98.2" font-family="Times,serif" font-size="14.00">User</text>
<polyline fill="none" stroke="black" points="354,-91 613,-91"/>
<text text-anchor="start" x="362" y="-73.7" font-family="Times,serif" font-size="14.00">id :bigint</text>
<text text-anchor="start" x="362" y="-57.2" font-family="Times,serif" font-size="14.00">email :character varying</text>
<text text-anchor="start" x="362" y="-40.7" font-family="Times,serif" font-size="14.00">created_at :timestamp(6) without time zone</text>
<text text-anchor="start" x="362" y="-24.2" font-family="Times,serif" font-size="14.00">updated_at :timestamp(6) without time zone</text>
<text text-anchor="start" x="362" y="-7.7" font-family="Times,serif" font-size="14.00">role :integer</text>
</g>
<!-- Article&#45;&gt;User -->
<g id="edge4" class="edge">
<title>Article&#45;&gt;User</title>
<path fill="none" stroke="#e0ed68" d="M516.82,-383.91C452.8,-363.54 382.78,-328.56 344.5,-269 316.63,-225.63 320.32,-198.54 344.5,-153 350.37,-141.93 358.2,-131.93 367.15,-122.95"/>
<polygon fill="#e0ed68" stroke="#e0ed68" points="516.75,-383.89 524.98,-391.14 521.85,-385.46 525.99,-386.74 525.99,-386.74 525.99,-386.74 521.85,-385.46 527.64,-382.54 516.75,-383.89"/>
<polygon fill="#e0ed68" stroke="#e0ed68" points="367.04,-123.06 377.4,-119.47 370.92,-119.4 374.07,-116.43 374.07,-116.43 374.07,-116.43 370.92,-119.4 371.22,-112.93 367.04,-123.06"/>
</g>
<!-- Impression -->
<g id="node13" class="node">
<title>Impression</title>
<ellipse fill="none" stroke="black" cx="960.5" cy="-211" rx="52.38" ry="18"/>
<text text-anchor="middle" x="960.5" y="-205.95" font-family="Times,serif" font-size="14.00">Impression</text>
</g>
<!-- Article&#45;&gt;Impression -->
<g id="edge9" class="edge">
<title>Article&#45;&gt;Impression</title>
<path fill="none" stroke="#b02926" d="M795.19,-337.28C830.22,-316.64 867.07,-293.2 899.5,-269 912.9,-259 926.62,-246.44 937.64,-235.65"/>
<polygon fill="#b02926" stroke="#b02926" points="795.25,-337.25 784.34,-338.42 790.64,-339.94 786.9,-342.13 786.9,-342.13 786.9,-342.13 790.64,-339.94 788.89,-346.19 795.25,-337.25"/>
<polygon fill="#b02926" stroke="#b02926" points="937.47,-235.81 947.74,-231.95 941.25,-232.05 944.32,-228.99 944.32,-228.99 944.32,-228.99 941.25,-232.05 941.39,-225.57 937.47,-235.81"/>
</g>
<!-- ActiveStorage::Attachment -->
<g id="node14" class="node">
<title>ActiveStorage::Attachment</title>
<ellipse fill="none" stroke="black" cx="1143.5" cy="-211" rx="112.26" ry="18"/>
<text text-anchor="middle" x="1143.5" y="-205.95" font-family="Times,serif" font-size="14.00">ActiveStorage::Attachment</text>
</g>
<!-- Article&#45;&gt;ActiveStorage::Attachment -->
<g id="edge10" class="edge">
<title>Article&#45;&gt;ActiveStorage::Attachment</title>
<path fill="none" stroke="#8c4023" d="M795.69,-359.59C864.13,-333.45 947.59,-300.65 1021.5,-269 1047.94,-257.67 1077.15,-244.07 1100.36,-232.99"/>
<polygon fill="#8c4023" stroke="#8c4023" points="795.79,-359.56 784.84,-358.91 790.8,-361.46 786.76,-363 786.76,-363 786.76,-363 790.8,-361.46 788.05,-367.32 795.79,-359.56"/>
<polygon fill="#8c4023" stroke="#8c4023" points="1100.27,-233.03 1111.23,-232.77 1105.08,-230.73 1108.98,-228.86 1108.98,-228.86 1108.98,-228.86 1105.08,-230.73 1107.34,-224.65 1100.27,-233.03"/>
<text text-anchor="middle" x="1013.88" y="-290.2" font-family="Times,serif" font-size="14.00">file_attachment</text>
</g>
<!-- ActiveStorage::Blob -->
<g id="node15" class="node">
<title>ActiveStorage::Blob</title>
<ellipse fill="none" stroke="black" cx="1360.5" cy="-211" rx="86.67" ry="18"/>
<text text-anchor="middle" x="1360.5" y="-205.95" font-family="Times,serif" font-size="14.00">ActiveStorage::Blob</text>
</g>
<!-- Article&#45;&gt;ActiveStorage::Blob -->
<g id="edge11" class="edge">
<title>Article&#45;&gt;ActiveStorage::Blob</title>
<path fill="none" stroke="#066393" d="M796.4,-391.21C922.07,-370.08 1110.05,-331.23 1264.5,-269 1287.06,-259.91 1310.56,-246.04 1328.67,-234.26"/>
<polygon fill="#066393" stroke="#066393" points="796.52,-391.19 785.92,-388.39 791.26,-392.06 786.99,-392.78 786.99,-392.78 786.99,-392.78 791.26,-392.06 787.4,-397.27 796.52,-391.19"/>
<polygon fill="#066393" stroke="#066393" points="1328.48,-234.38 1339.31,-232.61 1332.93,-231.43 1336.54,-229.04 1336.54,-229.04 1336.54,-229.04 1332.93,-231.43 1334.33,-225.1 1328.48,-234.38"/>
<text text-anchor="middle" x="1224.88" y="-290.2" font-family="Times,serif" font-size="14.00">file_blob</text>
</g>
<!-- Bookmark&#45;&gt;User -->
<g id="edge12" class="edge">
<title>Bookmark&#45;&gt;User</title>
<path fill="none" stroke="#f0c147" d="M483.5,-143.19C483.5,-137.52 483.5,-131.77 483.5,-126.1"/>
<polygon fill="#f0c147" stroke="#f0c147" points="483.5,-143.01 479,-153.01 483.5,-148.34 483.5,-152.67 483.5,-152.67 483.5,-152.67 483.5,-148.34 488,-153.01 483.5,-143.01"/>
<polygon fill="#f0c147" stroke="#f0c147" points="483.5,-126.31 488,-116.31 483.5,-120.97 483.5,-116.64 483.5,-116.64 483.5,-116.64 483.5,-120.97 479,-116.31 483.5,-126.31"/>
</g>
<!-- Category&#45;&gt;CategoryArticle -->
<g id="edge13" class="edge">
<title>Category&#45;&gt;CategoryArticle</title>
<path fill="none" stroke="#70f85e" d="M151.9,-151.69C155.17,-143.17 158.57,-134.33 161.9,-125.65"/>
<polygon fill="#70f85e" stroke="#70f85e" points="151.88,-151.74 144.09,-159.47 149.96,-156.72 148.41,-160.77 148.41,-160.77 148.41,-160.77 149.96,-156.72 152.49,-162.69 151.88,-151.74"/>
<polygon fill="#70f85e" stroke="#70f85e" points="161.92,-125.59 169.71,-117.86 163.84,-120.61 165.39,-116.56 165.39,-116.56 165.39,-116.56 163.84,-120.61 161.31,-114.64 161.92,-125.59"/>
</g>
<!-- Company -->
<g id="node10" class="node">
<title>Company</title>
<path fill="none" stroke="black" d="M1030,-694C1030,-694 1265,-694 1265,-694 1271,-694 1277,-700 1277,-706 1277,-706 1277,-846.5 1277,-846.5 1277,-852.5 1271,-858.5 1265,-858.5 1265,-858.5 1030,-858.5 1030,-858.5 1024,-858.5 1018,-852.5 1018,-846.5 1018,-846.5 1018,-706 1018,-706 1018,-700 1024,-694 1030,-694"/>
<text text-anchor="middle" x="1147.5" y="-841.2" font-family="Times,serif" font-size="14.00">Company</text>
<polyline fill="none" stroke="black" points="1018,-834 1277,-834"/>
<text text-anchor="start" x="1026" y="-816.7" font-family="Times,serif" font-size="14.00">updated_at :timestamp(6) without time zone</text>
<text text-anchor="start" x="1026" y="-800.2" font-family="Times,serif" font-size="14.00">name :character varying</text>
<text text-anchor="start" x="1026" y="-783.7" font-family="Times,serif" font-size="14.00">area :integer</text>
<text text-anchor="start" x="1026" y="-767.2" font-family="Times,serif" font-size="14.00">location :character varying</text>
<text text-anchor="start" x="1026" y="-750.7" font-family="Times,serif" font-size="14.00">website_url :character varying</text>
<text text-anchor="start" x="1026" y="-734.2" font-family="Times,serif" font-size="14.00">string :character varying</text>
<text text-anchor="start" x="1026" y="-717.7" font-family="Times,serif" font-size="14.00">created_at :timestamp(6) without time zone</text>
<text text-anchor="start" x="1026" y="-701.2" font-family="Times,serif" font-size="14.00">id :bigint</text>
</g>
<!-- Like&#45;&gt;User -->
<g id="edge14" class="edge">
<title>Like&#45;&gt;User</title>
<path fill="none" stroke="#177741" d="M647.19,-148.23C630.59,-139.18 613.5,-129.86 596.9,-120.82"/>
<polygon fill="#177741" stroke="#177741" points="647.1,-148.18 653.73,-156.92 651.78,-150.74 655.59,-152.81 655.59,-152.81 655.59,-152.81 651.78,-150.74 658.03,-149.02 647.1,-148.18"/>
<polygon fill="#177741" stroke="#177741" points="596.81,-120.77 590.18,-112.03 592.12,-118.21 588.32,-116.14 588.32,-116.14 588.32,-116.14 592.12,-118.21 585.87,-119.93 596.81,-120.77"/>
</g>
</g>
</svg>
