<?xml version="1.0" encoding="UTF-8" standalone="no"?>
<!DOCTYPE svg PUBLIC "-//W3C//DTD SVG 1.1//EN"
 "http://www.w3.org/Graphics/SVG/1.1/DTD/svg11.dtd">
<!-- Generated by graphviz version 9.0.0 (20230911.1827)
 -->
<!-- Title: models_diagram Pages: 1 -->
<svg width="1665pt" height="1351pt"
 viewBox="0.00 0.00 1664.50 1350.50" xmlns="http://www.w3.org/2000/svg" xmlns:xlink="http://www.w3.org/1999/xlink">
<g id="graph0" class="graph" transform="scale(1 1) rotate(0) translate(4 1346.5)">
<title>models_diagram</title>
<polygon fill="none" stroke="none" points="-4,4 -4,-1346.5 1660.5,-1346.5 1660.5,4 -4,4"/>
<!-- _diagram_info -->
<g id="node1" class="node">
<title>_diagram_info</title>
<text text-anchor="start" x="643.38" y="-1260.15" font-family="Times,serif" font-size="13.00">Models diagram</text>
<text text-anchor="start" x="643.38" y="-1245.15" font-family="Times,serif" font-size="13.00">Date: Apr 19 2024 &#45; 09:05</text>
<text text-anchor="start" x="643.38" y="-1230.15" font-family="Times,serif" font-size="13.00">Migration version: 20240418141757</text>
<text text-anchor="start" x="643.38" y="-1215.15" font-family="Times,serif" font-size="13.00">Generated by RailRoady 1.6.0</text>
<text text-anchor="start" x="643.38" y="-1200.15" font-family="Times,serif" font-size="13.00">http://railroady.prestonlee.com</text>
</g>
<!-- Ability -->
<g id="node2" class="node">
<title>Ability</title>
<polygon fill="none" stroke="black" points="866.88,-1210.5 866.88,-1259.5 921.12,-1259.5 921.12,-1210.5 866.88,-1210.5"/>
<text text-anchor="middle" x="894" y="-1242.2" font-family="Times,serif" font-size="14.00">Ability</text>
<polyline fill="none" stroke="black" points="866.88,-1235 921.12,-1235"/>
<text text-anchor="middle" x="894" y="-1217.7" font-family="Times,serif" font-size="14.00"> </text>
</g>
<!-- Applicant -->
<g id="node3" class="node">
<title>Applicant</title>
<path fill="none" stroke="black" d="M951.5,-1128C951.5,-1128 1186.5,-1128 1186.5,-1128 1192.5,-1128 1198.5,-1134 1198.5,-1140 1198.5,-1140 1198.5,-1330 1198.5,-1330 1198.5,-1336 1192.5,-1342 1186.5,-1342 1186.5,-1342 951.5,-1342 951.5,-1342 945.5,-1342 939.5,-1336 939.5,-1330 939.5,-1330 939.5,-1140 939.5,-1140 939.5,-1134 945.5,-1128 951.5,-1128"/>
<text text-anchor="middle" x="1069" y="-1324.7" font-family="Times,serif" font-size="14.00">Applicant</text>
<polyline fill="none" stroke="black" points="939.5,-1317.5 1198.5,-1317.5"/>
<text text-anchor="start" x="947.5" y="-1300.2" font-family="Times,serif" font-size="14.00">desired_salary :text</text>
<text text-anchor="start" x="947.5" y="-1283.7" font-family="Times,serif" font-size="14.00">name :character varying</text>
<text text-anchor="start" x="947.5" y="-1267.2" font-family="Times,serif" font-size="14.00">user_id :integer</text>
<text text-anchor="start" x="947.5" y="-1250.7" font-family="Times,serif" font-size="14.00">created_at :timestamp(6) without time zone</text>
<text text-anchor="start" x="947.5" y="-1234.2" font-family="Times,serif" font-size="14.00">updated_at :timestamp(6) without time zone</text>
<text text-anchor="start" x="947.5" y="-1217.7" font-family="Times,serif" font-size="14.00">birthday :date</text>
<text text-anchor="start" x="947.5" y="-1201.2" font-family="Times,serif" font-size="14.00">age :integer</text>
<text text-anchor="start" x="947.5" y="-1184.7" font-family="Times,serif" font-size="14.00">nationality :integer</text>
<text text-anchor="start" x="947.5" y="-1168.2" font-family="Times,serif" font-size="14.00">phone_number :integer</text>
<text text-anchor="start" x="947.5" y="-1151.7" font-family="Times,serif" font-size="14.00">self_introduction :text</text>
<text text-anchor="start" x="947.5" y="-1135.2" font-family="Times,serif" font-size="14.00">id :bigint</text>
</g>
<!-- ApplicantArticle -->
<g id="node4" class="node">
<title>ApplicantArticle</title>
<path fill="none" stroke="black" d="M951.5,-975C951.5,-975 1186.5,-975 1186.5,-975 1192.5,-975 1198.5,-981 1198.5,-987 1198.5,-987 1198.5,-1078 1198.5,-1078 1198.5,-1084 1192.5,-1090 1186.5,-1090 1186.5,-1090 951.5,-1090 951.5,-1090 945.5,-1090 939.5,-1084 939.5,-1078 939.5,-1078 939.5,-987 939.5,-987 939.5,-981 945.5,-975 951.5,-975"/>
<text text-anchor="middle" x="1069" y="-1072.7" font-family="Times,serif" font-size="14.00">ApplicantArticle</text>
<polyline fill="none" stroke="black" points="939.5,-1065.5 1198.5,-1065.5"/>
<text text-anchor="start" x="947.5" y="-1048.2" font-family="Times,serif" font-size="14.00">id :bigint</text>
<text text-anchor="start" x="947.5" y="-1031.7" font-family="Times,serif" font-size="14.00">applicant_id :bigint</text>
<text text-anchor="start" x="947.5" y="-1015.2" font-family="Times,serif" font-size="14.00">article_id :bigint</text>
<text text-anchor="start" x="947.5" y="-998.7" font-family="Times,serif" font-size="14.00">created_at :timestamp(6) without time zone</text>
<text text-anchor="start" x="947.5" y="-982.2" font-family="Times,serif" font-size="14.00">updated_at :timestamp(6) without time zone</text>
</g>
<!-- Applicant&#45;&gt;ApplicantArticle -->
<g id="edge1" class="edge">
<title>Applicant&#45;&gt;ApplicantArticle</title>
<path fill="none" stroke="#71995c" d="M1069,-1117.4C1069,-1111.71 1069,-1106.1 1069,-1100.63"/>
<polygon fill="#71995c" stroke="#71995c" points="1069,-1117.25 1064.5,-1127.25 1069,-1122.59 1069,-1126.92 1069,-1126.92 1069,-1126.92 1069,-1122.59 1073.5,-1127.25 1069,-1117.25"/>
<polygon fill="#71995c" stroke="#71995c" points="1069,-1100.65 1073.5,-1090.65 1069,-1095.32 1069,-1090.99 1069,-1090.99 1069,-1090.99 1069,-1095.32 1064.5,-1090.65 1069,-1100.65"/>
</g>
<!-- Article -->
<g id="node6" class="node">
<title>Article</title>
<path fill="none" stroke="black" d="M793.5,-459C793.5,-459 1028.5,-459 1028.5,-459 1034.5,-459 1040.5,-465 1040.5,-471 1040.5,-471 1040.5,-925 1040.5,-925 1040.5,-931 1034.5,-937 1028.5,-937 1028.5,-937 793.5,-937 793.5,-937 787.5,-937 781.5,-931 781.5,-925 781.5,-925 781.5,-471 781.5,-471 781.5,-465 787.5,-459 793.5,-459"/>
<text text-anchor="middle" x="911" y="-919.7" font-family="Times,serif" font-size="14.00">Article</text>
<polyline fill="none" stroke="black" points="781.5,-912.5 1040.5,-912.5"/>
<text text-anchor="start" x="789.5" y="-895.2" font-family="Times,serif" font-size="14.00">status :integer</text>
<text text-anchor="start" x="789.5" y="-878.7" font-family="Times,serif" font-size="14.00">body :text</text>
<text text-anchor="start" x="789.5" y="-862.2" font-family="Times,serif" font-size="14.00">user_id :bigint</text>
<text text-anchor="start" x="789.5" y="-845.7" font-family="Times,serif" font-size="14.00">created_at :timestamp(6) without time zone</text>
<text text-anchor="start" x="789.5" y="-829.2" font-family="Times,serif" font-size="14.00">updated_at :timestamp(6) without time zone</text>
<text text-anchor="start" x="789.5" y="-812.7" font-family="Times,serif" font-size="14.00">impressions_count :integer</text>
<text text-anchor="start" x="789.5" y="-796.2" font-family="Times,serif" font-size="14.00">start_time :timestamp(6) without time zone</text>
<text text-anchor="start" x="789.5" y="-779.7" font-family="Times,serif" font-size="14.00">end_time :timestamp(6) without time zone</text>
<text text-anchor="start" x="789.5" y="-763.2" font-family="Times,serif" font-size="14.00">title :character varying</text>
<text text-anchor="start" x="789.5" y="-746.7" font-family="Times,serif" font-size="14.00">application_deadline :date</text>
<text text-anchor="start" x="789.5" y="-730.2" font-family="Times,serif" font-size="14.00">salary_details :text</text>
<text text-anchor="start" x="789.5" y="-713.7" font-family="Times,serif" font-size="14.00">work_location :character varying</text>
<text text-anchor="start" x="789.5" y="-697.2" font-family="Times,serif" font-size="14.00">language_requirement :character varying</text>
<text text-anchor="start" x="789.5" y="-680.7" font-family="Times,serif" font-size="14.00">japanese_level :character varying</text>
<text text-anchor="start" x="789.5" y="-664.2" font-family="Times,serif" font-size="14.00">skills_required :text</text>
<text text-anchor="start" x="789.5" y="-647.7" font-family="Times,serif" font-size="14.00">employment_type :character varying</text>
<text text-anchor="start" x="789.5" y="-631.2" font-family="Times,serif" font-size="14.00">description :text</text>
<text text-anchor="start" x="789.5" y="-614.7" font-family="Times,serif" font-size="14.00">work_hours :character varying</text>
<text text-anchor="start" x="789.5" y="-598.2" font-family="Times,serif" font-size="14.00">trial_period :character varying</text>
<text text-anchor="start" x="789.5" y="-581.7" font-family="Times,serif" font-size="14.00">days_off :character varying</text>
<text text-anchor="start" x="789.5" y="-565.2" font-family="Times,serif" font-size="14.00">overtime :character varying</text>
<text text-anchor="start" x="789.5" y="-548.7" font-family="Times,serif" font-size="14.00">transportation :character varying</text>
<text text-anchor="start" x="789.5" y="-532.2" font-family="Times,serif" font-size="14.00">work_environment :character varying</text>
<text text-anchor="start" x="789.5" y="-515.7" font-family="Times,serif" font-size="14.00">other_allowances :character varying</text>
<text text-anchor="start" x="789.5" y="-499.2" font-family="Times,serif" font-size="14.00">insurance :character varying</text>
<text text-anchor="start" x="789.5" y="-482.7" font-family="Times,serif" font-size="14.00">other_benefits :character varying</text>
<text text-anchor="start" x="789.5" y="-466.2" font-family="Times,serif" font-size="14.00">id :bigint</text>
</g>
<!-- Applicant&#45;&gt;Article -->
<g id="edge2" class="edge">
<title>Applicant&#45;&gt;Article</title>
<path fill="none" stroke="#5f7148" d="M946.67,-1119.44C940.64,-1110.13 935.31,-1100.46 931,-1090.5 911.85,-1046.26 901.77,-996.52 897.2,-947.72"/>
<polygon fill="#5f7148" stroke="#5f7148" points="946.59,-1119.33 948.48,-1130.13 949.59,-1123.75 952.02,-1127.33 952.02,-1127.33 952.02,-1127.33 949.59,-1123.75 955.93,-1125.08 946.59,-1119.33"/>
<polygon fill="#5f7148" stroke="#5f7148" points="897.19,-947.62 900.82,-937.28 896.74,-942.31 896.37,-937.99 896.37,-937.99 896.37,-937.99 896.74,-942.31 891.85,-938.05 897.19,-947.62"/>
</g>
<!-- User -->
<g id="node13" class="node">
<title>User</title>
<path fill="none" stroke="black" d="M951.5,-89C951.5,-89 1186.5,-89 1186.5,-89 1192.5,-89 1198.5,-95 1198.5,-101 1198.5,-101 1198.5,-225 1198.5,-225 1198.5,-231 1192.5,-237 1186.5,-237 1186.5,-237 951.5,-237 951.5,-237 945.5,-237 939.5,-231 939.5,-225 939.5,-225 939.5,-101 939.5,-101 939.5,-95 945.5,-89 951.5,-89"/>
<text text-anchor="middle" x="1069" y="-219.7" font-family="Times,serif" font-size="14.00">User</text>
<polyline fill="none" stroke="black" points="939.5,-212.5 1198.5,-212.5"/>
<text text-anchor="start" x="947.5" y="-195.2" font-family="Times,serif" font-size="14.00">id :bigint</text>
<text text-anchor="start" x="947.5" y="-178.7" font-family="Times,serif" font-size="14.00">email :character varying</text>
<text text-anchor="start" x="947.5" y="-162.2" font-family="Times,serif" font-size="14.00">created_at :timestamp(6) without time zone</text>
<text text-anchor="start" x="947.5" y="-145.7" font-family="Times,serif" font-size="14.00">updated_at :timestamp(6) without time zone</text>
<text text-anchor="start" x="947.5" y="-129.2" font-family="Times,serif" font-size="14.00">role :integer</text>
<text text-anchor="start" x="947.5" y="-112.7" font-family="Times,serif" font-size="14.00">username :character varying</text>
<text text-anchor="start" x="947.5" y="-96.2" font-family="Times,serif" font-size="14.00">avatar :character varying</text>
</g>
<!-- Applicant&#45;&gt;User -->
<g id="edge3" class="edge">
<title>Applicant&#45;&gt;User</title>
<path fill="none" stroke="#1d902b" d="M1207.72,-1127.66C1207.81,-1127.61 1207.91,-1127.55 1208,-1127.5 1302.99,-1072.81 1436,-1143.11 1436,-1033.5 1436,-1033.5 1436,-1033.5 1436,-347 1436,-305.86 1449.57,-286.03 1422,-255.5 1393.02,-223.41 1294.47,-199.52 1208.84,-184.21"/>
<polygon fill="#1d902b" stroke="#1d902b" points="1207.78,-1127.63 1196.88,-1128.86 1203.19,-1130.35 1199.47,-1132.56 1199.47,-1132.56 1199.47,-1132.56 1203.19,-1130.35 1201.48,-1136.6 1207.78,-1127.63"/>
<polygon fill="#1d902b" stroke="#1d902b" points="1208.91,-184.22 1199.85,-178.05 1203.66,-183.29 1199.39,-182.54 1199.39,-182.54 1199.39,-182.54 1203.66,-183.29 1198.29,-186.92 1208.91,-184.22"/>
</g>
<!-- ActiveStorage::Attachment -->
<g id="node14" class="node">
<title>ActiveStorage::Attachment</title>
<ellipse fill="none" stroke="black" cx="476" cy="-18" rx="112.26" ry="18"/>
<text text-anchor="middle" x="476" y="-12.95" font-family="Times,serif" font-size="14.00">ActiveStorage::Attachment</text>
</g>
<!-- Applicant&#45;&gt;ActiveStorage::Attachment -->
<g id="edge4" class="edge">
<title>Applicant&#45;&gt;ActiveStorage::Attachment</title>
<path fill="none" stroke="#c44eaa" d="M929.43,-1128.3C790.07,-1091.67 0,-1134.62 0,-1033.5 0,-1033.5 0,-1033.5 0,-162 0,-85.08 230.87,-45.94 371.04,-29.27"/>
<polygon fill="#c44eaa" stroke="#c44eaa" points="929.45,-1128.31 937.6,-1135.64 934.53,-1129.93 938.65,-1131.25 938.65,-1131.25 938.65,-1131.25 934.53,-1129.93 940.34,-1127.07 929.45,-1128.31"/>
<polygon fill="#c44eaa" stroke="#c44eaa" points="371.12,-29.26 381.58,-32.57 376.42,-28.64 380.72,-28.14 380.72,-28.14 380.72,-28.14 376.42,-28.64 380.53,-23.63 371.12,-29.26"/>
<text text-anchor="middle" x="47.62" y="-427.2" font-family="Times,serif" font-size="14.00">files_attachments</text>
</g>
<!-- ActiveStorage::Blob -->
<g id="node15" class="node">
<title>ActiveStorage::Blob</title>
<ellipse fill="none" stroke="black" cx="1372" cy="-18" rx="86.67" ry="18"/>
<text text-anchor="middle" x="1372" y="-12.95" font-family="Times,serif" font-size="14.00">ActiveStorage::Blob</text>
</g>
<!-- Applicant&#45;&gt;ActiveStorage::Blob -->
<g id="edge5" class="edge">
<title>Applicant&#45;&gt;ActiveStorage::Blob</title>
<path fill="none" stroke="#11ac2b" d="M1208.33,-1127.86C1330.69,-1081.81 1474,-1155.7 1474,-1033.5 1474,-1033.5 1474,-1033.5 1474,-162 1474,-112.31 1432.68,-67.94 1402.64,-42.25"/>
<polygon fill="#11ac2b" stroke="#11ac2b" points="1208.4,-1127.84 1197.44,-1127.42 1203.45,-1129.84 1199.44,-1131.46 1199.44,-1131.46 1199.44,-1131.46 1203.45,-1129.84 1200.81,-1135.76 1208.4,-1127.84"/>
<polygon fill="#11ac2b" stroke="#11ac2b" points="1402.84,-42.42 1398.02,-32.57 1398.74,-39.02 1395.41,-36.25 1395.41,-36.25 1395.41,-36.25 1398.74,-39.02 1392.27,-39.5 1402.84,-42.42"/>
<text text-anchor="middle" x="1503.62" y="-427.2" font-family="Times,serif" font-size="14.00">files_blobs</text>
</g>
<!-- ApplicantArticle&#45;&gt;Article -->
<g id="edge6" class="edge">
<title>ApplicantArticle&#45;&gt;Article</title>
<path fill="none" stroke="#f99ac5" d="M1037.58,-965.38C1034.69,-959.3 1031.67,-952.94 1028.54,-946.36"/>
<polygon fill="#f99ac5" stroke="#f99ac5" points="1037.58,-965.38 1037.81,-976.35 1039.87,-970.2 1041.73,-974.11 1041.73,-974.11 1041.73,-974.11 1039.87,-970.2 1045.94,-972.49 1037.58,-965.38"/>
<polygon fill="#f99ac5" stroke="#f99ac5" points="1028.65,-946.58 1028.42,-935.62 1026.36,-941.76 1024.5,-937.85 1024.5,-937.85 1024.5,-937.85 1026.36,-941.76 1020.29,-939.48 1028.65,-946.58"/>
</g>
<!-- ApplicationRecord -->
<g id="node5" class="node">
<title>ApplicationRecord</title>
<ellipse fill="none" stroke="black" cx="1298" cy="-1235" rx="81.04" ry="18"/>
<text text-anchor="middle" x="1298" y="-1229.95" font-family="Times,serif" font-size="14.00">ApplicationRecord</text>
</g>
<!-- Bookmark -->
<g id="node7" class="node">
<title>Bookmark</title>
<path fill="none" stroke="black" d="M793.5,-290.5C793.5,-290.5 1028.5,-290.5 1028.5,-290.5 1034.5,-290.5 1040.5,-296.5 1040.5,-302.5 1040.5,-302.5 1040.5,-393.5 1040.5,-393.5 1040.5,-399.5 1034.5,-405.5 1028.5,-405.5 1028.5,-405.5 793.5,-405.5 793.5,-405.5 787.5,-405.5 781.5,-399.5 781.5,-393.5 781.5,-393.5 781.5,-302.5 781.5,-302.5 781.5,-296.5 787.5,-290.5 793.5,-290.5"/>
<text text-anchor="middle" x="911" y="-388.2" font-family="Times,serif" font-size="14.00">Bookmark</text>
<polyline fill="none" stroke="black" points="781.5,-381 1040.5,-381"/>
<text text-anchor="start" x="789.5" y="-363.7" font-family="Times,serif" font-size="14.00">id :bigint</text>
<text text-anchor="start" x="789.5" y="-347.2" font-family="Times,serif" font-size="14.00">user_id :bigint</text>
<text text-anchor="start" x="789.5" y="-330.7" font-family="Times,serif" font-size="14.00">article_id :bigint</text>
<text text-anchor="start" x="789.5" y="-314.2" font-family="Times,serif" font-size="14.00">created_at :timestamp(6) without time zone</text>
<text text-anchor="start" x="789.5" y="-297.7" font-family="Times,serif" font-size="14.00">updated_at :timestamp(6) without time zone</text>
</g>
<!-- Article&#45;&gt;Bookmark -->
<g id="edge8" class="edge">
<title>Article&#45;&gt;Bookmark</title>
<path fill="none" stroke="#7ddbdb" d="M911,-448.42C911,-437.04 911,-426.19 911,-416.11"/>
<polygon fill="#7ddbdb" stroke="#7ddbdb" points="911,-448.3 906.5,-458.3 911,-453.63 911,-457.96 911,-457.96 911,-457.96 911,-453.63 915.5,-458.3 911,-448.3"/>
<polygon fill="#7ddbdb" stroke="#7ddbdb" points="911,-416.24 915.5,-406.24 911,-410.91 911,-406.57 911,-406.57 911,-406.57 911,-410.91 906.5,-406.24 911,-416.24"/>
</g>
<!-- Category -->
<g id="node8" class="node">
<title>Category</title>
<path fill="none" stroke="black" d="M200.5,-298.75C200.5,-298.75 435.5,-298.75 435.5,-298.75 441.5,-298.75 447.5,-304.75 447.5,-310.75 447.5,-310.75 447.5,-385.25 447.5,-385.25 447.5,-391.25 441.5,-397.25 435.5,-397.25 435.5,-397.25 200.5,-397.25 200.5,-397.25 194.5,-397.25 188.5,-391.25 188.5,-385.25 188.5,-385.25 188.5,-310.75 188.5,-310.75 188.5,-304.75 194.5,-298.75 200.5,-298.75"/>
<text text-anchor="middle" x="318" y="-379.95" font-family="Times,serif" font-size="14.00">Category</text>
<polyline fill="none" stroke="black" points="188.5,-372.75 447.5,-372.75"/>
<text text-anchor="start" x="196.5" y="-355.45" font-family="Times,serif" font-size="14.00">id :bigint</text>
<text text-anchor="start" x="196.5" y="-338.95" font-family="Times,serif" font-size="14.00">name :character varying</text>
<text text-anchor="start" x="196.5" y="-322.45" font-family="Times,serif" font-size="14.00">created_at :timestamp(6) without time zone</text>
<text text-anchor="start" x="196.5" y="-305.95" font-family="Times,serif" font-size="14.00">updated_at :timestamp(6) without time zone</text>
</g>
<!-- Article&#45;&gt;Category -->
<g id="edge11" class="edge">
<title>Article&#45;&gt;Category</title>
<path fill="none" stroke="#77427e" d="M772.27,-619.97C683.04,-569.88 564.95,-502.57 462,-440.5 442.33,-428.64 421.37,-415.58 401.7,-403.12"/>
<polygon fill="#77427e" stroke="#77427e" points="772.35,-620.01 778.87,-628.83 777,-622.62 780.78,-624.74 780.78,-624.74 780.78,-624.74 777,-622.62 783.27,-620.98 772.35,-620.01"/>
<polygon fill="#77427e" stroke="#77427e" points="401.79,-403.17 395.76,-394.02 397.29,-400.32 393.63,-397.99 393.63,-397.99 393.63,-397.99 397.29,-400.32 390.94,-401.61 401.79,-403.17"/>
</g>
<!-- CategoryArticle -->
<g id="node9" class="node">
<title>CategoryArticle</title>
<path fill="none" stroke="black" d="M121.5,-105.5C121.5,-105.5 356.5,-105.5 356.5,-105.5 362.5,-105.5 368.5,-111.5 368.5,-117.5 368.5,-117.5 368.5,-208.5 368.5,-208.5 368.5,-214.5 362.5,-220.5 356.5,-220.5 356.5,-220.5 121.5,-220.5 121.5,-220.5 115.5,-220.5 109.5,-214.5 109.5,-208.5 109.5,-208.5 109.5,-117.5 109.5,-117.5 109.5,-111.5 115.5,-105.5 121.5,-105.5"/>
<text text-anchor="middle" x="239" y="-203.2" font-family="Times,serif" font-size="14.00">CategoryArticle</text>
<polyline fill="none" stroke="black" points="109.5,-196 368.5,-196"/>
<text text-anchor="start" x="117.5" y="-178.7" font-family="Times,serif" font-size="14.00">id :bigint</text>
<text text-anchor="start" x="117.5" y="-162.2" font-family="Times,serif" font-size="14.00">category_id :bigint</text>
<text text-anchor="start" x="117.5" y="-145.7" font-family="Times,serif" font-size="14.00">article_id :bigint</text>
<text text-anchor="start" x="117.5" y="-129.2" font-family="Times,serif" font-size="14.00">created_at :timestamp(6) without time zone</text>
<text text-anchor="start" x="117.5" y="-112.7" font-family="Times,serif" font-size="14.00">updated_at :timestamp(6) without time zone</text>
</g>
<!-- Article&#45;&gt;CategoryArticle -->
<g id="edge10" class="edge">
<title>Article&#45;&gt;CategoryArticle</title>
<path fill="none" stroke="#391f42" d="M771.01,-686.69C598.39,-665.61 311.61,-601.42 179,-406 143.35,-353.46 168.25,-281.67 196.02,-229.95"/>
<polygon fill="#391f42" stroke="#391f42" points="770.92,-686.68 780.32,-692.33 776.22,-687.31 780.52,-687.82 780.52,-687.82 780.52,-687.82 776.22,-687.31 781.38,-683.39 770.92,-686.68"/>
<polygon fill="#391f42" stroke="#391f42" points="196.05,-229.9 204.82,-223.32 198.63,-225.23 200.72,-221.44 200.72,-221.44 200.72,-221.44 198.63,-225.23 196.94,-218.97 196.05,-229.9"/>
</g>
<!-- Like -->
<g id="node12" class="node">
<title>Like</title>
<path fill="none" stroke="black" d="M1109.5,-290.5C1109.5,-290.5 1344.5,-290.5 1344.5,-290.5 1350.5,-290.5 1356.5,-296.5 1356.5,-302.5 1356.5,-302.5 1356.5,-393.5 1356.5,-393.5 1356.5,-399.5 1350.5,-405.5 1344.5,-405.5 1344.5,-405.5 1109.5,-405.5 1109.5,-405.5 1103.5,-405.5 1097.5,-399.5 1097.5,-393.5 1097.5,-393.5 1097.5,-302.5 1097.5,-302.5 1097.5,-296.5 1103.5,-290.5 1109.5,-290.5"/>
<text text-anchor="middle" x="1227" y="-388.2" font-family="Times,serif" font-size="14.00">Like</text>
<polyline fill="none" stroke="black" points="1097.5,-381 1356.5,-381"/>
<text text-anchor="start" x="1105.5" y="-363.7" font-family="Times,serif" font-size="14.00">id :bigint</text>
<text text-anchor="start" x="1105.5" y="-347.2" font-family="Times,serif" font-size="14.00">user_id :bigint</text>
<text text-anchor="start" x="1105.5" y="-330.7" font-family="Times,serif" font-size="14.00">article_id :bigint</text>
<text text-anchor="start" x="1105.5" y="-314.2" font-family="Times,serif" font-size="14.00">created_at :timestamp(6) without time zone</text>
<text text-anchor="start" x="1105.5" y="-297.7" font-family="Times,serif" font-size="14.00">updated_at :timestamp(6) without time zone</text>
</g>
<!-- Article&#45;&gt;Like -->
<g id="edge9" class="edge">
<title>Article&#45;&gt;Like</title>
<path fill="none" stroke="#4ef867" d="M1047.85,-546.29C1090.32,-499.52 1134.86,-450.47 1168.9,-412.98"/>
<polygon fill="#4ef867" stroke="#4ef867" points="1047.84,-546.3 1037.79,-550.68 1044.26,-550.25 1041.35,-553.45 1041.35,-553.45 1041.35,-553.45 1044.26,-550.25 1044.45,-556.73 1047.84,-546.3"/>
<polygon fill="#4ef867" stroke="#4ef867" points="1168.62,-413.29 1178.68,-408.91 1172.21,-409.34 1175.12,-406.13 1175.12,-406.13 1175.12,-406.13 1172.21,-409.34 1172.01,-402.86 1168.62,-413.29"/>
</g>
<!-- Article&#45;&gt;User -->
<g id="edge7" class="edge">
<title>Article&#45;&gt;User</title>
<path fill="none" stroke="#470f41" d="M1036.6,-449.19C1041.64,-434.76 1046.16,-420.31 1050,-406 1063.8,-354.52 1068.61,-294.84 1069.93,-247.63"/>
<polygon fill="#470f41" stroke="#470f41" points="1036.69,-448.93 1029.09,-456.83 1034.9,-453.95 1033.45,-458.03 1033.45,-458.03 1033.45,-458.03 1034.9,-453.95 1037.57,-459.86 1036.69,-448.93"/>
<polygon fill="#470f41" stroke="#470f41" points="1069.93,-247.78 1074.66,-237.89 1070.05,-242.45 1070.15,-238.12 1070.15,-238.12 1070.15,-238.12 1070.05,-242.45 1065.66,-237.68 1069.93,-247.78"/>
</g>
<!-- Article&#45;&gt;ActiveStorage::Attachment -->
<g id="edge13" class="edge">
<title>Article&#45;&gt;ActiveStorage::Attachment</title>
<path fill="none" stroke="#766c3b" d="M771.85,-639.88C675.94,-592.49 555.28,-515.12 495,-406 428.91,-286.36 455.76,-112.84 469.65,-46.34"/>
<polygon fill="#766c3b" stroke="#766c3b" points="771.77,-639.84 778.78,-648.27 776.56,-642.18 780.45,-644.08 780.45,-644.08 780.45,-644.08 776.56,-642.18 782.73,-640.19 771.77,-639.84"/>
<polygon fill="#766c3b" stroke="#766c3b" points="469.65,-46.36 476.16,-37.53 470.78,-41.14 471.69,-36.91 471.69,-36.91 471.69,-36.91 470.78,-41.14 467.37,-35.63 469.65,-46.36"/>
<text text-anchor="middle" x="498.38" y="-258.7" font-family="Times,serif" font-size="14.00">file_attachment</text>
</g>
<!-- Article&#45;&gt;ActiveStorage::Blob -->
<g id="edge14" class="edge">
<title>Article&#45;&gt;ActiveStorage::Blob</title>
<path fill="none" stroke="#e4690b" d="M1050.52,-649.63C1157.77,-605.05 1298.62,-526.84 1366,-406 1432.63,-286.51 1397.07,-112.28 1379.72,-45.98"/>
<polygon fill="#e4690b" stroke="#e4690b" points="1050.46,-649.65 1039.5,-649.29 1045.53,-651.68 1041.52,-653.32 1041.52,-653.32 1041.52,-653.32 1045.53,-651.68 1042.92,-657.61 1050.46,-649.65"/>
<polygon fill="#e4690b" stroke="#e4690b" points="1379.8,-46.27 1381.54,-35.44 1378.41,-41.12 1377.29,-36.93 1377.29,-36.93 1377.29,-36.93 1378.41,-41.12 1372.85,-37.78 1379.8,-46.27"/>
<text text-anchor="middle" x="1428.38" y="-258.7" font-family="Times,serif" font-size="14.00">file_blob</text>
</g>
<!-- Impression -->
<g id="node16" class="node">
<title>Impression</title>
<ellipse fill="none" stroke="black" cx="80" cy="-348" rx="52.38" ry="18"/>
<text text-anchor="middle" x="80" y="-342.95" font-family="Times,serif" font-size="14.00">Impression</text>
</g>
<!-- Article&#45;&gt;Impression -->
<g id="edge12" class="edge">
<title>Article&#45;&gt;Impression</title>
<path fill="none" stroke="#80cdb4" d="M771.22,-676.75C608.05,-647.47 336.31,-580.64 146,-440.5 122.72,-423.36 104.34,-395.56 92.95,-375.09"/>
<polygon fill="#80cdb4" stroke="#80cdb4" points="771.15,-676.74 780.21,-682.91 776.41,-677.67 780.67,-678.43 780.67,-678.43 780.67,-678.43 776.41,-677.67 781.78,-674.05 771.15,-676.74"/>
<polygon fill="#80cdb4" stroke="#80cdb4" points="92.96,-375.1 92.2,-364.16 90.44,-370.4 88.39,-366.58 88.39,-366.58 88.39,-366.58 90.44,-370.4 84.27,-368.42 92.96,-375.1"/>
</g>
<!-- Bookmark&#45;&gt;User -->
<g id="edge15" class="edge">
<title>Bookmark&#45;&gt;User</title>
<path fill="none" stroke="#418fd9" d="M966.64,-282.56C977.08,-270.46 988.13,-257.67 998.94,-245.14"/>
<polygon fill="#418fd9" stroke="#418fd9" points="966.88,-282.28 956.94,-286.91 963.39,-286.32 960.56,-289.59 960.56,-289.59 960.56,-289.59 963.39,-286.32 963.75,-292.79 966.88,-282.28"/>
<polygon fill="#418fd9" stroke="#418fd9" points="998.89,-245.2 1008.83,-240.57 1002.38,-241.17 1005.21,-237.89 1005.21,-237.89 1005.21,-237.89 1002.38,-241.17 1002.02,-234.69 998.89,-245.2"/>
</g>
<!-- Category&#45;&gt;CategoryArticle -->
<g id="edge16" class="edge">
<title>Category&#45;&gt;CategoryArticle</title>
<path fill="none" stroke="#828e0d" d="M292.96,-289C284.93,-270.39 275.97,-249.64 267.7,-230.47"/>
<polygon fill="#828e0d" stroke="#828e0d" points="292.94,-288.95 292.77,-299.92 295.06,-293.85 296.77,-297.83 296.77,-297.83 296.77,-297.83 295.06,-293.85 301.04,-296.35 292.94,-288.95"/>
<polygon fill="#828e0d" stroke="#828e0d" points="267.66,-230.4 267.83,-219.44 265.55,-225.5 263.83,-221.53 263.83,-221.53 263.83,-221.53 265.55,-225.5 259.57,-223 267.66,-230.4"/>
</g>
<!-- Company -->
<g id="node10" class="node">
<title>Company</title>
<path fill="none" stroke="black" d="M1409.5,-1152.75C1409.5,-1152.75 1644.5,-1152.75 1644.5,-1152.75 1650.5,-1152.75 1656.5,-1158.75 1656.5,-1164.75 1656.5,-1164.75 1656.5,-1305.25 1656.5,-1305.25 1656.5,-1311.25 1650.5,-1317.25 1644.5,-1317.25 1644.5,-1317.25 1409.5,-1317.25 1409.5,-1317.25 1403.5,-1317.25 1397.5,-1311.25 1397.5,-1305.25 1397.5,-1305.25 1397.5,-1164.75 1397.5,-1164.75 1397.5,-1158.75 1403.5,-1152.75 1409.5,-1152.75"/>
<text text-anchor="middle" x="1527" y="-1299.95" font-family="Times,serif" font-size="14.00">Company</text>
<polyline fill="none" stroke="black" points="1397.5,-1292.75 1656.5,-1292.75"/>
<text text-anchor="start" x="1405.5" y="-1275.45" font-family="Times,serif" font-size="14.00">updated_at :timestamp(6) without time zone</text>
<text text-anchor="start" x="1405.5" y="-1258.95" font-family="Times,serif" font-size="14.00">name :character varying</text>
<text text-anchor="start" x="1405.5" y="-1242.45" font-family="Times,serif" font-size="14.00">area :integer</text>
<text text-anchor="start" x="1405.5" y="-1225.95" font-family="Times,serif" font-size="14.00">location :character varying</text>
<text text-anchor="start" x="1405.5" y="-1209.45" font-family="Times,serif" font-size="14.00">website_url :character varying</text>
<text text-anchor="start" x="1405.5" y="-1192.95" font-family="Times,serif" font-size="14.00">string :character varying</text>
<text text-anchor="start" x="1405.5" y="-1176.45" font-family="Times,serif" font-size="14.00">created_at :timestamp(6) without time zone</text>
<text text-anchor="start" x="1405.5" y="-1159.95" font-family="Times,serif" font-size="14.00">id :bigint</text>
</g>
<!-- Employee -->
<g id="node11" class="node">
<title>Employee</title>
<path fill="none" stroke="black" d="M516.5,-290.5C516.5,-290.5 751.5,-290.5 751.5,-290.5 757.5,-290.5 763.5,-296.5 763.5,-302.5 763.5,-302.5 763.5,-393.5 763.5,-393.5 763.5,-399.5 757.5,-405.5 751.5,-405.5 751.5,-405.5 516.5,-405.5 516.5,-405.5 510.5,-405.5 504.5,-399.5 504.5,-393.5 504.5,-393.5 504.5,-302.5 504.5,-302.5 504.5,-296.5 510.5,-290.5 516.5,-290.5"/>
<text text-anchor="middle" x="634" y="-388.2" font-family="Times,serif" font-size="14.00">Employee</text>
<polyline fill="none" stroke="black" points="504.5,-381 763.5,-381"/>
<text text-anchor="start" x="512.5" y="-363.7" font-family="Times,serif" font-size="14.00">id :bigint</text>
<text text-anchor="start" x="512.5" y="-347.2" font-family="Times,serif" font-size="14.00">company_id :bigint</text>
<text text-anchor="start" x="512.5" y="-330.7" font-family="Times,serif" font-size="14.00">user_id :bigint</text>
<text text-anchor="start" x="512.5" y="-314.2" font-family="Times,serif" font-size="14.00">created_at :timestamp(6) without time zone</text>
<text text-anchor="start" x="512.5" y="-297.7" font-family="Times,serif" font-size="14.00">updated_at :timestamp(6) without time zone</text>
</g>
<!-- Employee&#45;&gt;User -->
<g id="edge17" class="edge">
<title>Employee&#45;&gt;User</title>
<path fill="none" stroke="#f1334c" d="M773.43,-288.34C823.44,-267.3 879.8,-243.6 929.79,-222.57"/>
<polygon fill="#f1334c" stroke="#f1334c" points="773.45,-288.33 762.49,-288.06 768.53,-290.4 764.54,-292.08 764.54,-292.08 764.54,-292.08 768.53,-290.4 765.98,-296.36 773.45,-288.33"/>
<polygon fill="#f1334c" stroke="#f1334c" points="929.84,-222.54 940.81,-222.81 934.76,-220.47 938.75,-218.79 938.75,-218.79 938.75,-218.79 934.76,-220.47 937.32,-214.52 929.84,-222.54"/>
</g>
<!-- Like&#45;&gt;User -->
<g id="edge18" class="edge">
<title>Like&#45;&gt;User</title>
<path fill="none" stroke="#b38ff5" d="M1171.36,-282.56C1160.92,-270.46 1149.87,-257.67 1139.06,-245.14"/>
<polygon fill="#b38ff5" stroke="#b38ff5" points="1171.12,-282.28 1174.25,-292.79 1174.61,-286.32 1177.44,-289.59 1177.44,-289.59 1177.44,-289.59 1174.61,-286.32 1181.06,-286.91 1171.12,-282.28"/>
<polygon fill="#b38ff5" stroke="#b38ff5" points="1139.11,-245.2 1135.98,-234.69 1135.62,-241.17 1132.79,-237.89 1132.79,-237.89 1132.79,-237.89 1135.62,-241.17 1129.17,-240.57 1139.11,-245.2"/>
</g>
<!-- User&#45;&gt;ActiveStorage::Attachment -->
<g id="edge20" class="edge">
<title>User&#45;&gt;ActiveStorage::Attachment</title>
<path fill="none" stroke="#586da7" d="M929.22,-128.29C808.89,-99.28 640.24,-58.61 546.28,-35.95"/>
<polygon fill="#586da7" stroke="#586da7" points="929.18,-128.28 937.85,-135 934.37,-129.53 938.58,-130.55 938.58,-130.55 938.58,-130.55 934.37,-129.53 939.96,-126.25 929.18,-128.28"/>
<polygon fill="#586da7" stroke="#586da7" points="546.36,-35.97 537.7,-29.25 541.18,-34.72 536.97,-33.7 536.97,-33.7 536.97,-33.7 541.18,-34.72 535.59,-38 546.36,-35.97"/>
<text text-anchor="middle" x="734.88" y="-57.2" font-family="Times,serif" font-size="14.00">avatar_attachment</text>
</g>
<!-- User&#45;&gt;ActiveStorage::Blob -->
<g id="edge21" class="edge">
<title>User&#45;&gt;ActiveStorage::Blob</title>
<path fill="none" stroke="#bdd989" d="M1208.06,-94.68C1236.52,-81.09 1266.3,-66.99 1294.25,-54 1304.84,-49.08 1316.29,-43.87 1327.06,-39.01"/>
<polygon fill="#bdd989" stroke="#bdd989" points="1208.2,-94.61 1197.24,-94.87 1203.39,-96.92 1199.48,-98.78 1199.48,-98.78 1199.48,-98.78 1203.39,-96.92 1201.12,-102.99 1208.2,-94.61"/>
<polygon fill="#bdd989" stroke="#bdd989" points="1326.88,-39.09 1337.85,-39.09 1331.75,-36.9 1335.7,-35.12 1335.7,-35.12 1335.7,-35.12 1331.75,-36.9 1334.16,-30.88 1326.88,-39.09"/>
<text text-anchor="middle" x="1325.88" y="-57.2" font-family="Times,serif" font-size="14.00">avatar_blob</text>
</g>
<!-- Rolable -->
<g id="node17" class="node">
<title>Rolable</title>
<ellipse fill="none" stroke="black" cx="1069" cy="-18" rx="39.58" ry="18"/>
<text text-anchor="middle" x="1069" y="-12.95" font-family="Times,serif" font-size="14.00">Rolable</text>
</g>
<!-- User&#45;&gt;Rolable -->
<g id="edge19" class="edge">
<title>User&#45;&gt;Rolable</title>
<path fill="none" stroke="#6ec9ec" d="M1069,-78.74C1069,-67.18 1069,-56.04 1069,-46.58"/>
<polygon fill="#6ec9ec" stroke="#6ec9ec" points="1069,-78.49 1064.5,-88.49 1069,-83.82 1069,-88.16 1069,-88.16 1069,-88.16 1069,-83.82 1073.5,-88.49 1069,-78.49"/>
<polygon fill="#6ec9ec" stroke="#6ec9ec" points="1069,-46.65 1073.5,-36.65 1069,-41.32 1069,-36.98 1069,-36.98 1069,-36.98 1069,-41.32 1064.5,-36.65 1069,-46.65"/>
</g>
</g>
</svg>
