<?xml version="1.0" encoding="UTF-8" standalone="no"?>
<!DOCTYPE svg PUBLIC "-//W3C//DTD SVG 1.1//EN"
 "http://www.w3.org/Graphics/SVG/1.1/DTD/svg11.dtd">
<!-- Generated by graphviz version 9.0.0 (20230911.1827)
 -->
<!-- Title: models_diagram Pages: 1 -->
<svg width="1103pt" height="503pt"
 viewBox="0.00 0.00 1102.50 502.50" xmlns="http://www.w3.org/2000/svg" xmlns:xlink="http://www.w3.org/1999/xlink">
<g id="graph0" class="graph" transform="scale(1 1) rotate(0) translate(4 498.5)">
<title>models_diagram</title>
<polygon fill="none" stroke="none" points="-4,4 -4,-498.5 1098.5,-498.5 1098.5,4 -4,4"/>
<!-- _diagram_info -->
<g id="node1" class="node">
<title>_diagram_info</title>
<text text-anchor="start" x="99.38" y="-478.15" font-family="Times,serif" font-size="13.00">Models diagram</text>
<text text-anchor="start" x="99.38" y="-463.15" font-family="Times,serif" font-size="13.00">Date: Aug 31 2024 &#45; 16:24</text>
<text text-anchor="start" x="99.38" y="-448.15" font-family="Times,serif" font-size="13.00">Migration version: 20240831070834</text>
<text text-anchor="start" x="99.38" y="-433.15" font-family="Times,serif" font-size="13.00">Generated by RailRoady 1.6.0</text>
<text text-anchor="start" x="99.38" y="-418.15" font-family="Times,serif" font-size="13.00">http://railroady.prestonlee.com</text>
</g>
<!-- Ability -->
<g id="node2" class="node">
<title>Ability</title>
<polygon fill="none" stroke="black" points="377.12,-471 322.88,-471 322.88,-435 377.12,-435 377.12,-471"/>
<text text-anchor="middle" x="350" y="-447.95" font-family="Times,serif" font-size="14.00">Ability</text>
</g>
<!-- Applicant -->
<g id="node3" class="node">
<title>Applicant</title>
<ellipse fill="none" stroke="black" cx="442" cy="-453" rx="47.26" ry="18"/>
<text text-anchor="middle" x="442" y="-447.95" font-family="Times,serif" font-size="14.00">Applicant</text>
</g>
<!-- ApplicantArticle -->
<g id="node4" class="node">
<title>ApplicantArticle</title>
<ellipse fill="none" stroke="black" cx="442" cy="-356.5" rx="72.85" ry="18"/>
<text text-anchor="middle" x="442" y="-351.45" font-family="Times,serif" font-size="14.00">ApplicantArticle</text>
</g>
<!-- Applicant&#45;&gt;ApplicantArticle -->
<g id="edge1" class="edge">
<title>Applicant&#45;&gt;ApplicantArticle</title>
<path fill="none" stroke="#02b559" d="M442,-424.26C442,-411.86 442,-397.28 442,-384.91"/>
<polygon fill="#02b559" stroke="#02b559" points="442,-424.33 437.5,-434.33 442,-429.67 442,-434 442,-434 442,-434 442,-429.67 446.5,-434.33 442,-424.33"/>
<polygon fill="#02b559" stroke="#02b559" points="442,-385.06 446.5,-375.06 442,-379.72 442,-375.39 442,-375.39 442,-375.39 442,-379.72 437.5,-375.06 442,-385.06"/>
</g>
<!-- Article -->
<g id="node6" class="node">
<title>Article</title>
<ellipse fill="none" stroke="black" cx="540" cy="-283.5" rx="36.51" ry="18"/>
<text text-anchor="middle" x="540" y="-278.45" font-family="Times,serif" font-size="14.00">Article</text>
</g>
<!-- Applicant&#45;&gt;Article -->
<g id="edge2" class="edge">
<title>Applicant&#45;&gt;Article</title>
<path fill="none" stroke="#101a44" d="M472.51,-431.02C490.37,-417.09 511.74,-397.22 524,-374.5 534.39,-355.24 538.23,-330.6 539.56,-311.98"/>
<polygon fill="#101a44" stroke="#101a44" points="472.85,-430.77 462.16,-433.2 468.59,-433.98 465.14,-436.59 465.14,-436.59 465.14,-436.59 468.59,-433.98 467.58,-440.38 472.85,-430.77"/>
<polygon fill="#101a44" stroke="#101a44" points="539.55,-312.12 544.56,-302.36 539.83,-306.79 540.05,-302.46 540.05,-302.46 540.05,-302.46 539.83,-306.79 535.57,-301.9 539.55,-312.12"/>
</g>
<!-- User -->
<g id="node13" class="node">
<title>User</title>
<ellipse fill="none" stroke="black" cx="379" cy="-106.5" rx="28.32" ry="18"/>
<text text-anchor="middle" x="379" y="-101.45" font-family="Times,serif" font-size="14.00">User</text>
</g>
<!-- Applicant&#45;&gt;User -->
<g id="edge3" class="edge">
<title>Applicant&#45;&gt;User</title>
<path fill="none" stroke="#535abc" d="M414.5,-429.84C384.59,-405.22 341,-367.6 341,-357.5 341,-357.5 341,-357.5 341,-194 341,-171.58 351.83,-148.44 361.93,-131.74"/>
<polygon fill="#535abc" stroke="#535abc" points="414.53,-429.86 419.42,-439.67 418.66,-433.23 422.01,-435.98 422.01,-435.98 422.01,-435.98 418.66,-433.23 425.12,-432.71 414.53,-429.86"/>
<polygon fill="#535abc" stroke="#535abc" points="361.84,-131.89 371.01,-125.88 364.7,-127.39 367.03,-123.74 367.03,-123.74 367.03,-123.74 364.7,-127.39 363.42,-121.04 361.84,-131.89"/>
</g>
<!-- ActiveStorage::Attachment -->
<g id="node14" class="node">
<title>ActiveStorage::Attachment</title>
<ellipse fill="none" stroke="black" cx="158" cy="-18" rx="112.26" ry="18"/>
<text text-anchor="middle" x="158" y="-12.95" font-family="Times,serif" font-size="14.00">ActiveStorage::Attachment</text>
</g>
<!-- Applicant&#45;&gt;ActiveStorage::Attachment -->
<g id="edge4" class="edge">
<title>Applicant&#45;&gt;ActiveStorage::Attachment</title>
<path fill="none" stroke="#a8ae81" d="M415.91,-429.67C406.93,-422.95 396.47,-416.14 386,-411.5 332.84,-387.95 130,-415.64 130,-357.5 130,-357.5 130,-357.5 130,-105.5 130,-84.65 137.45,-62.29 144.67,-45.53"/>
<polygon fill="#a8ae81" stroke="#a8ae81" points="415.89,-429.65 421,-439.35 420.1,-432.94 423.51,-435.6 423.51,-435.6 423.51,-435.6 420.1,-432.94 426.54,-432.26 415.89,-429.65"/>
<polygon fill="#a8ae81" stroke="#a8ae81" points="144.56,-45.77 152.79,-38.52 146.76,-40.91 148.56,-36.97 148.56,-36.97 148.56,-36.97 146.76,-40.91 144.6,-34.8 144.56,-45.77"/>
<text text-anchor="middle" x="177.62" y="-234.2" font-family="Times,serif" font-size="14.00">files_attachments</text>
</g>
<!-- Applicant&#45;&gt;ActiveStorage::Attachment -->
<g id="edge6" class="edge">
<title>Applicant&#45;&gt;ActiveStorage::Attachment</title>
<path fill="none" stroke="#eddf11" d="M416.64,-429.26C407.58,-422.39 396.9,-415.58 386,-411.5 304.9,-381.1 0,-444.11 0,-357.5 0,-357.5 0,-357.5 0,-105.5 0,-68.04 34.6,-46.69 71.41,-34.59"/>
<polygon fill="#eddf11" stroke="#eddf11" points="416.72,-429.33 421.71,-439.1 420.88,-432.67 424.26,-435.37 424.26,-435.37 424.26,-435.37 420.88,-432.67 427.34,-432.07 416.72,-429.33"/>
<polygon fill="#eddf11" stroke="#eddf11" points="71.43,-34.58 82.31,-35.96 76.53,-33.02 80.67,-31.75 80.67,-31.75 80.67,-31.75 76.53,-33.02 79.68,-27.35 71.43,-34.58"/>
<text text-anchor="middle" x="53.25" y="-234.2" font-family="Times,serif" font-size="14.00">resume_attachment</text>
</g>
<!-- ActiveStorage::Blob -->
<g id="node15" class="node">
<title>ActiveStorage::Blob</title>
<ellipse fill="none" stroke="black" cx="910" cy="-18" rx="86.67" ry="18"/>
<text text-anchor="middle" x="910" y="-12.95" font-family="Times,serif" font-size="14.00">ActiveStorage::Blob</text>
</g>
<!-- Applicant&#45;&gt;ActiveStorage::Blob -->
<g id="edge5" class="edge">
<title>Applicant&#45;&gt;ActiveStorage::Blob</title>
<path fill="none" stroke="#7cb6ac" d="M467.43,-429.45C476.5,-422.59 487.16,-415.75 498,-411.5 590.54,-375.23 942,-456.89 942,-357.5 942,-357.5 942,-357.5 942,-105.5 942,-84.35 933.48,-62 925.24,-45.32"/>
<polygon fill="#7cb6ac" stroke="#7cb6ac" points="467.36,-429.51 456.73,-432.23 463.19,-432.84 459.8,-435.54 459.8,-435.54 459.8,-435.54 463.19,-432.84 462.34,-439.26 467.36,-429.51"/>
<polygon fill="#7cb6ac" stroke="#7cb6ac" points="925.26,-45.36 924.62,-34.42 922.79,-40.63 920.79,-36.79 920.79,-36.79 920.79,-36.79 922.79,-40.63 916.64,-38.58 925.26,-45.36"/>
<text text-anchor="middle" x="971.62" y="-234.2" font-family="Times,serif" font-size="14.00">files_blobs</text>
</g>
<!-- Applicant&#45;&gt;ActiveStorage::Blob -->
<g id="edge7" class="edge">
<title>Applicant&#45;&gt;ActiveStorage::Blob</title>
<path fill="none" stroke="#940c00" d="M466.54,-429.49C475.74,-422.41 486.72,-415.41 498,-411.5 588.99,-379.94 836.72,-413.15 931,-393.5 974.39,-384.46 1024,-401.82 1024,-357.5 1024,-357.5 1024,-357.5 1024,-105.5 1024,-73.22 994.63,-51.42 965.71,-37.78"/>
<polygon fill="#940c00" stroke="#940c00" points="466.64,-429.41 456.05,-432.24 462.51,-432.78 459.15,-435.52 459.15,-435.52 459.15,-435.52 462.51,-432.78 461.74,-439.22 466.64,-429.41"/>
<polygon fill="#940c00" stroke="#940c00" points="965.81,-37.83 958.5,-29.66 960.94,-35.67 956.98,-33.91 956.98,-33.91 956.98,-33.91 960.94,-35.67 954.85,-37.89 965.81,-37.83"/>
<text text-anchor="middle" x="1059.25" y="-234.2" font-family="Times,serif" font-size="14.00">resume_blob</text>
</g>
<!-- ApplicantArticle&#45;&gt;Article -->
<g id="edge8" class="edge">
<title>ApplicantArticle&#45;&gt;Article</title>
<path fill="none" stroke="#47e3c4" d="M472.95,-333.07C485.34,-324.1 499.53,-313.82 511.64,-305.04"/>
<polygon fill="#47e3c4" stroke="#47e3c4" points="473.1,-332.97 462.36,-335.19 468.78,-336.1 465.27,-338.64 465.27,-338.64 465.27,-338.64 468.78,-336.1 467.64,-342.48 473.1,-332.97"/>
<polygon fill="#47e3c4" stroke="#47e3c4" points="511.68,-305.02 522.42,-302.79 516,-301.89 519.51,-299.35 519.51,-299.35 519.51,-299.35 516,-301.89 517.14,-295.51 511.68,-305.02"/>
</g>
<!-- ApplicationRecord -->
<g id="node5" class="node">
<title>ApplicationRecord</title>
<ellipse fill="none" stroke="black" cx="588" cy="-453" rx="81.04" ry="18"/>
<text text-anchor="middle" x="588" y="-447.95" font-family="Times,serif" font-size="14.00">ApplicationRecord</text>
</g>
<!-- Bookmark -->
<g id="node7" class="node">
<title>Bookmark</title>
<ellipse fill="none" stroke="black" cx="531" cy="-195" rx="50.33" ry="18"/>
<text text-anchor="middle" x="531" y="-189.95" font-family="Times,serif" font-size="14.00">Bookmark</text>
</g>
<!-- Article&#45;&gt;Bookmark -->
<g id="edge10" class="edge">
<title>Article&#45;&gt;Bookmark</title>
<path fill="none" stroke="#a79e9a" d="M537.15,-255.1C536.1,-245.06 534.92,-233.69 533.88,-223.63"/>
<polygon fill="#a79e9a" stroke="#a79e9a" points="537.15,-255.13 533.71,-265.54 537.7,-260.44 538.15,-264.75 538.15,-264.75 538.15,-264.75 537.7,-260.44 542.66,-264.61 537.15,-255.13"/>
<polygon fill="#a79e9a" stroke="#a79e9a" points="533.87,-223.63 537.32,-213.22 533.32,-218.32 532.87,-214.02 532.87,-214.02 532.87,-214.02 533.32,-218.32 528.36,-214.15 533.87,-223.63"/>
</g>
<!-- Category -->
<g id="node8" class="node">
<title>Category</title>
<ellipse fill="none" stroke="black" cx="767" cy="-195" rx="44.7" ry="18"/>
<text text-anchor="middle" x="767" y="-189.95" font-family="Times,serif" font-size="14.00">Category</text>
</g>
<!-- Article&#45;&gt;Category -->
<g id="edge13" class="edge">
<title>Article&#45;&gt;Category</title>
<path fill="none" stroke="#494536" d="M577.8,-268.1C618.66,-252.52 683.59,-227.78 725.75,-211.72"/>
<polygon fill="#494536" stroke="#494536" points="577.95,-268.04 567,-267.4 572.96,-269.94 568.92,-271.48 568.92,-271.48 568.92,-271.48 572.96,-269.94 570.21,-275.81 577.95,-268.04"/>
<polygon fill="#494536" stroke="#494536" points="725.77,-211.71 736.72,-212.35 730.76,-209.81 734.81,-208.27 734.81,-208.27 734.81,-208.27 730.76,-209.81 733.52,-203.94 725.77,-211.71"/>
</g>
<!-- CategoryArticle -->
<g id="node9" class="node">
<title>CategoryArticle</title>
<ellipse fill="none" stroke="black" cx="774" cy="-106.5" rx="70.29" ry="18"/>
<text text-anchor="middle" x="774" y="-101.45" font-family="Times,serif" font-size="14.00">CategoryArticle</text>
</g>
<!-- Article&#45;&gt;CategoryArticle -->
<g id="edge12" class="edge">
<title>Article&#45;&gt;CategoryArticle</title>
<path fill="none" stroke="#51143e" d="M586.07,-277.89C658.15,-269.63 792.32,-249.63 821,-213 840.35,-188.28 818.46,-154.35 798.53,-131.71"/>
<polygon fill="#51143e" stroke="#51143e" points="586.18,-277.88 575.74,-274.52 580.88,-278.47 576.57,-278.95 576.57,-278.95 576.57,-278.95 580.88,-278.47 576.74,-283.46 586.18,-277.88"/>
<polygon fill="#51143e" stroke="#51143e" points="798.63,-131.81 795.17,-121.4 795.02,-127.88 792.09,-124.7 792.09,-124.7 792.09,-124.7 795.02,-127.88 788.55,-127.49 798.63,-131.81"/>
</g>
<!-- Like -->
<g id="node12" class="node">
<title>Like</title>
<ellipse fill="none" stroke="black" cx="435" cy="-195" rx="27.81" ry="18"/>
<text text-anchor="middle" x="435" y="-189.95" font-family="Times,serif" font-size="14.00">Like</text>
</g>
<!-- Article&#45;&gt;Like -->
<g id="edge11" class="edge">
<title>Article&#45;&gt;Like</title>
<path fill="none" stroke="#510128" d="M513.82,-260.93C497.25,-247.28 475.97,-229.75 459.7,-216.35"/>
<polygon fill="#510128" stroke="#510128" points="513.73,-260.86 518.59,-270.69 517.85,-264.25 521.19,-267.01 521.19,-267.01 521.19,-267.01 517.85,-264.25 524.31,-263.75 513.73,-260.86"/>
<polygon fill="#510128" stroke="#510128" points="459.67,-216.33 454.82,-206.49 455.55,-212.93 452.21,-210.18 452.21,-210.18 452.21,-210.18 455.55,-212.93 449.09,-213.44 459.67,-216.33"/>
</g>
<!-- Article&#45;&gt;User -->
<g id="edge9" class="edge">
<title>Article&#45;&gt;User</title>
<path fill="none" stroke="#0eb496" d="M497.19,-272.72C464.89,-263.06 422.14,-244.96 398,-213 381.05,-190.56 377.49,-157.87 377.42,-134.83"/>
<polygon fill="#0eb496" stroke="#0eb496" points="496.91,-272.64 505.3,-279.7 502.04,-274.1 506.21,-275.28 506.21,-275.28 506.21,-275.28 502.04,-274.1 507.76,-271.04 496.91,-272.64"/>
<polygon fill="#0eb496" stroke="#0eb496" points="377.41,-135.03 382.1,-125.11 377.51,-129.7 377.59,-125.37 377.59,-125.37 377.59,-125.37 377.51,-129.7 373.1,-124.95 377.41,-135.03"/>
</g>
<!-- Article&#45;&gt;ActiveStorage::Attachment -->
<g id="edge15" class="edge">
<title>Article&#45;&gt;ActiveStorage::Attachment</title>
<path fill="none" stroke="#102fc0" d="M493.76,-278.88C411.99,-271.54 246.66,-252.17 206,-213 160.35,-169.03 155.41,-89.03 156.32,-46.81"/>
<polygon fill="#102fc0" stroke="#102fc0" points="493.72,-278.88 503.29,-284.23 499.03,-279.34 503.34,-279.72 503.34,-279.72 503.34,-279.72 499.03,-279.34 504.07,-275.27 493.72,-278.88"/>
<polygon fill="#102fc0" stroke="#102fc0" points="156.32,-46.77 161.17,-36.94 156.51,-41.44 156.66,-37.11 156.66,-37.11 156.66,-37.11 156.51,-41.44 152.17,-36.62 156.32,-46.77"/>
<text text-anchor="middle" x="214.38" y="-145.7" font-family="Times,serif" font-size="14.00">file_attachment</text>
</g>
<!-- Article&#45;&gt;ActiveStorage::Blob -->
<g id="edge16" class="edge">
<title>Article&#45;&gt;ActiveStorage::Blob</title>
<path fill="none" stroke="#0d60db" d="M586.95,-282.41C638.29,-280.84 722.16,-273.93 789,-247.5 813.77,-237.71 821.75,-234.1 838,-213 877.56,-161.64 897.12,-86.29 905.23,-46.29"/>
<polygon fill="#0d60db" stroke="#0d60db" points="587.15,-282.4 577.04,-278.15 581.82,-282.53 577.49,-282.64 577.49,-282.64 577.49,-282.64 581.82,-282.53 577.27,-287.15 587.15,-282.4"/>
<polygon fill="#0d60db" stroke="#0d60db" points="905.21,-46.38 911.53,-37.41 906.22,-41.14 907.04,-36.89 907.04,-36.89 907.04,-36.89 906.22,-41.14 902.69,-35.7 905.21,-46.38"/>
<text text-anchor="middle" x="900.38" y="-145.7" font-family="Times,serif" font-size="14.00">file_blob</text>
</g>
<!-- Impression -->
<g id="node16" class="node">
<title>Impression</title>
<ellipse fill="none" stroke="black" cx="652" cy="-195" rx="52.38" ry="18"/>
<text text-anchor="middle" x="652" y="-189.95" font-family="Times,serif" font-size="14.00">Impression</text>
</g>
<!-- Article&#45;&gt;Impression -->
<g id="edge14" class="edge">
<title>Article&#45;&gt;Impression</title>
<path fill="none" stroke="#6ccbaf" d="M567.03,-261.62C584.04,-248.49 605.97,-231.55 623.3,-218.17"/>
<polygon fill="#6ccbaf" stroke="#6ccbaf" points="567.18,-261.51 556.51,-264.06 562.96,-264.77 559.53,-267.42 559.53,-267.42 559.53,-267.42 562.96,-264.77 562.01,-271.18 567.18,-261.51"/>
<polygon fill="#6ccbaf" stroke="#6ccbaf" points="623.21,-218.24 633.87,-215.69 627.43,-214.98 630.86,-212.33 630.86,-212.33 630.86,-212.33 627.43,-214.98 628.37,-208.56 623.21,-218.24"/>
</g>
<!-- Bookmark&#45;&gt;User -->
<g id="edge17" class="edge">
<title>Bookmark&#45;&gt;User</title>
<path fill="none" stroke="#7809da" d="M496.37,-174.29C469.88,-159.22 433.75,-138.66 408.6,-124.34"/>
<polygon fill="#7809da" stroke="#7809da" points="496.23,-174.21 502.7,-183.07 500.87,-176.85 504.63,-179 504.63,-179 504.63,-179 500.87,-176.85 507.15,-175.25 496.23,-174.21"/>
<polygon fill="#7809da" stroke="#7809da" points="408.52,-124.3 402.06,-115.44 403.88,-121.66 400.12,-119.52 400.12,-119.52 400.12,-119.52 403.88,-121.66 397.6,-123.26 408.52,-124.3"/>
</g>
<!-- Category&#45;&gt;CategoryArticle -->
<g id="edge18" class="edge">
<title>Category&#45;&gt;CategoryArticle</title>
<path fill="none" stroke="#309478" d="M769.22,-166.6C770.03,-156.56 770.95,-145.19 771.76,-135.13"/>
<polygon fill="#309478" stroke="#309478" points="769.22,-166.61 763.92,-176.21 768.79,-171.93 768.44,-176.24 768.44,-176.24 768.44,-176.24 768.79,-171.93 772.9,-176.94 769.22,-166.61"/>
<polygon fill="#309478" stroke="#309478" points="771.76,-135.15 777.05,-125.55 772.19,-129.83 772.54,-125.52 772.54,-125.52 772.54,-125.52 772.19,-129.83 768.08,-124.82 771.76,-135.15"/>
</g>
<!-- Company -->
<g id="node10" class="node">
<title>Company</title>
<ellipse fill="none" stroke="black" cx="265" cy="-283.5" rx="47.26" ry="18"/>
<text text-anchor="middle" x="265" y="-278.45" font-family="Times,serif" font-size="14.00">Company</text>
</g>
<!-- Employee -->
<g id="node11" class="node">
<title>Employee</title>
<ellipse fill="none" stroke="black" cx="264" cy="-195" rx="48.79" ry="18"/>
<text text-anchor="middle" x="264" y="-189.95" font-family="Times,serif" font-size="14.00">Employee</text>
</g>
<!-- Company&#45;&gt;Employee -->
<g id="edge19" class="edge">
<title>Company&#45;&gt;Employee</title>
<path fill="none" stroke="#0f3fab" d="M264.68,-255.1C264.57,-245.06 264.44,-233.69 264.32,-223.63"/>
<polygon fill="#0f3fab" stroke="#0f3fab" points="264.68,-255.08 260.3,-265.13 264.74,-260.41 264.79,-264.74 264.79,-264.74 264.79,-264.74 264.74,-260.41 269.3,-265.02 264.68,-255.08"/>
<polygon fill="#0f3fab" stroke="#0f3fab" points="264.32,-223.68 268.7,-213.63 264.26,-218.35 264.21,-214.02 264.21,-214.02 264.21,-214.02 264.26,-218.35 259.7,-213.74 264.32,-223.68"/>
</g>
<!-- Employee&#45;&gt;User -->
<g id="edge20" class="edge">
<title>Employee&#45;&gt;User</title>
<path fill="none" stroke="#88d2c8" d="M290.35,-171.55C301.47,-162.31 314.68,-151.65 327,-142.5 334.62,-136.84 343.08,-130.98 350.92,-125.71"/>
<polygon fill="#88d2c8" stroke="#88d2c8" points="290.58,-171.35 280.03,-174.32 286.49,-174.77 283.17,-177.55 283.17,-177.55 283.17,-177.55 286.49,-174.77 285.8,-181.22 290.58,-171.35"/>
<polygon fill="#88d2c8" stroke="#88d2c8" points="350.83,-125.76 361.65,-123.98 355.28,-122.81 358.88,-120.42 358.88,-120.42 358.88,-120.42 355.28,-122.81 356.67,-116.48 350.83,-125.76"/>
</g>
<!-- Like&#45;&gt;User -->
<g id="edge21" class="edge">
<title>Like&#45;&gt;User</title>
<path fill="none" stroke="#4ecb0a" d="M419.15,-169.51C411.55,-157.77 402.47,-143.75 394.87,-132.01"/>
<polygon fill="#4ecb0a" stroke="#4ecb0a" points="419.11,-169.46 420.77,-180.3 422.01,-173.94 424.37,-177.57 424.37,-177.57 424.37,-177.57 422.01,-173.94 428.32,-175.41 419.11,-169.46"/>
<polygon fill="#4ecb0a" stroke="#4ecb0a" points="395.01,-132.23 393.36,-121.39 392.11,-127.75 389.76,-124.12 389.76,-124.12 389.76,-124.12 392.11,-127.75 385.8,-126.28 395.01,-132.23"/>
</g>
<!-- User&#45;&gt;ActiveStorage::Attachment -->
<g id="edge23" class="edge">
<title>User&#45;&gt;ActiveStorage::Attachment</title>
<path fill="none" stroke="#d0c7d6" d="M344.29,-94.64C324.01,-88.08 298,-79.31 275.25,-70.5 250.96,-61.09 224.35,-49.51 202.62,-39.71"/>
<polygon fill="#d0c7d6" stroke="#d0c7d6" points="344.2,-94.61 352.35,-101.95 349.28,-96.24 353.41,-97.56 353.41,-97.56 353.41,-97.56 349.28,-96.24 355.1,-93.38 344.2,-94.61"/>
<polygon fill="#d0c7d6" stroke="#d0c7d6" points="202.73,-39.76 195.48,-31.53 197.87,-37.56 193.93,-35.77 193.93,-35.77 193.93,-35.77 197.87,-37.56 191.77,-39.73 202.73,-39.76"/>
<text text-anchor="middle" x="325.88" y="-57.2" font-family="Times,serif" font-size="14.00">avatar_attachment</text>
</g>
<!-- User&#45;&gt;ActiveStorage::Blob -->
<g id="edge24" class="edge">
<title>User&#45;&gt;ActiveStorage::Blob</title>
<path fill="none" stroke="#d47f71" d="M416.61,-99.37C503.1,-85.28 717.58,-50.35 833.21,-31.51"/>
<polygon fill="#d47f71" stroke="#d47f71" points="416.63,-99.37 406.04,-96.54 411.37,-100.23 407.09,-100.92 407.09,-100.92 407.09,-100.92 411.37,-100.23 407.48,-105.42 416.63,-99.37"/>
<polygon fill="#d47f71" stroke="#d47f71" points="833.2,-31.51 843.79,-34.34 838.47,-30.65 842.74,-29.96 842.74,-29.96 842.74,-29.96 838.47,-30.65 842.35,-25.46 833.2,-31.51"/>
<text text-anchor="middle" x="723.88" y="-57.2" font-family="Times,serif" font-size="14.00">avatar_blob</text>
</g>
<!-- Rolable -->
<g id="node17" class="node">
<title>Rolable</title>
<ellipse fill="none" stroke="black" cx="379" cy="-18" rx="39.58" ry="18"/>
<text text-anchor="middle" x="379" y="-12.95" font-family="Times,serif" font-size="14.00">Rolable</text>
</g>
<!-- User&#45;&gt;Rolable -->
<g id="edge22" class="edge">
<title>User&#45;&gt;Rolable</title>
<path fill="none" stroke="#cd765b" d="M379,-78.1C379,-68.06 379,-56.69 379,-46.63"/>
<polygon fill="#cd765b" stroke="#cd765b" points="379,-78.08 374.5,-88.08 379,-83.41 379,-87.74 379,-87.74 379,-87.74 379,-83.41 383.5,-88.08 379,-78.08"/>
<polygon fill="#cd765b" stroke="#cd765b" points="379,-46.68 383.5,-36.68 379,-41.35 379,-37.02 379,-37.02 379,-37.02 379,-41.35 374.5,-36.68 379,-46.68"/>
</g>
</g>
</svg>
