<?xml version="1.0" encoding="UTF-8" standalone="no"?>
<!DOCTYPE svg PUBLIC "-//W3C//DTD SVG 1.1//EN"
 "http://www.w3.org/Graphics/SVG/1.1/DTD/svg11.dtd">
<!-- Generated by graphviz version 9.0.0 (20230911.1827)
 -->
<!-- Title: models_diagram Pages: 1 -->
<svg width="931pt" height="503pt"
 viewBox="0.00 0.00 931.25 502.50" xmlns="http://www.w3.org/2000/svg" xmlns:xlink="http://www.w3.org/1999/xlink">
<g id="graph0" class="graph" transform="scale(1 1) rotate(0) translate(4 498.5)">
<title>models_diagram</title>
<polygon fill="none" stroke="none" points="-4,4 -4,-498.5 927.25,-498.5 927.25,4 -4,4"/>
<!-- _diagram_info -->
<g id="node1" class="node">
<title>_diagram_info</title>
<text text-anchor="start" x="10.38" y="-478.15" font-family="Times,serif" font-size="13.00">Models diagram</text>
<text text-anchor="start" x="10.38" y="-463.15" font-family="Times,serif" font-size="13.00">Date: Sep 20 2024 &#45; 23:47</text>
<text text-anchor="start" x="10.38" y="-448.15" font-family="Times,serif" font-size="13.00">Migration version: 20240919133444</text>
<text text-anchor="start" x="10.38" y="-433.15" font-family="Times,serif" font-size="13.00">Generated by RailRoady 1.6.0</text>
<text text-anchor="start" x="10.38" y="-418.15" font-family="Times,serif" font-size="13.00">http://railroady.prestonlee.com</text>
</g>
<!-- Ability -->
<g id="node2" class="node">
<title>Ability</title>
<polygon fill="none" stroke="black" points="288.12,-471 233.88,-471 233.88,-435 288.12,-435 288.12,-471"/>
<text text-anchor="middle" x="261" y="-447.95" font-family="Times,serif" font-size="14.00">Ability</text>
</g>
<!-- Applicant -->
<g id="node3" class="node">
<title>Applicant</title>
<ellipse fill="none" stroke="black" cx="353" cy="-453" rx="47.26" ry="18"/>
<text text-anchor="middle" x="353" y="-447.95" font-family="Times,serif" font-size="14.00">Applicant</text>
</g>
<!-- ApplicantArticle -->
<g id="node4" class="node">
<title>ApplicantArticle</title>
<ellipse fill="none" stroke="black" cx="353" cy="-356.5" rx="72.85" ry="18"/>
<text text-anchor="middle" x="353" y="-351.45" font-family="Times,serif" font-size="14.00">ApplicantArticle</text>
</g>
<!-- Applicant&#45;&gt;ApplicantArticle -->
<g id="edge1" class="edge">
<title>Applicant&#45;&gt;ApplicantArticle</title>
<path fill="none" stroke="#74b03a" d="M353,-424.26C353,-411.86 353,-397.28 353,-384.91"/>
<polygon fill="#74b03a" stroke="#74b03a" points="353,-424.33 348.5,-434.33 353,-429.67 353,-434 353,-434 353,-434 353,-429.67 357.5,-434.33 353,-424.33"/>
<polygon fill="#74b03a" stroke="#74b03a" points="353,-385.06 357.5,-375.06 353,-379.72 353,-375.39 353,-375.39 353,-375.39 353,-379.72 348.5,-375.06 353,-385.06"/>
</g>
<!-- Article -->
<g id="node6" class="node">
<title>Article</title>
<ellipse fill="none" stroke="black" cx="454" cy="-283.5" rx="36.51" ry="18"/>
<text text-anchor="middle" x="454" y="-278.45" font-family="Times,serif" font-size="14.00">Article</text>
</g>
<!-- Applicant&#45;&gt;Article -->
<g id="edge2" class="edge">
<title>Applicant&#45;&gt;Article</title>
<path fill="none" stroke="#e325d9" d="M383.26,-430.88C401.01,-416.9 422.38,-397.02 435,-374.5 445.77,-355.29 450.45,-330.65 452.48,-312.01"/>
<polygon fill="#e325d9" stroke="#e325d9" points="383.61,-430.61 372.93,-433.1 379.37,-433.85 375.93,-436.47 375.93,-436.47 375.93,-436.47 379.37,-433.85 378.39,-440.25 383.61,-430.61"/>
<polygon fill="#e325d9" stroke="#e325d9" points="452.47,-312.11 457.84,-302.55 452.94,-306.8 453.33,-302.48 453.33,-302.48 453.33,-302.48 452.94,-306.8 448.88,-301.75 452.47,-312.11"/>
</g>
<!-- User -->
<g id="node13" class="node">
<title>User</title>
<ellipse fill="none" stroke="black" cx="342" cy="-106.5" rx="28.32" ry="18"/>
<text text-anchor="middle" x="342" y="-101.45" font-family="Times,serif" font-size="14.00">User</text>
</g>
<!-- Applicant&#45;&gt;User -->
<g id="edge3" class="edge">
<title>Applicant&#45;&gt;User</title>
<path fill="none" stroke="#02add7" d="M326.28,-429.8C317.37,-423.21 307.13,-416.44 297,-411.5 219.24,-373.59 110,-444.01 110,-357.5 110,-357.5 110,-357.5 110,-194 110,-152.99 238.86,-125.06 304.51,-113.5"/>
<polygon fill="#02add7" stroke="#02add7" points="326.16,-429.71 331.35,-439.37 330.39,-432.96 333.82,-435.59 333.82,-435.59 333.82,-435.59 330.39,-432.96 336.83,-432.23 326.16,-429.71"/>
<polygon fill="#02add7" stroke="#02add7" points="304.29,-113.53 314.91,-116.27 309.55,-112.63 313.82,-111.89 313.82,-111.89 313.82,-111.89 309.55,-112.63 313.38,-107.4 304.29,-113.53"/>
</g>
<!-- ActiveStorage::Attachment -->
<g id="node14" class="node">
<title>ActiveStorage::Attachment</title>
<ellipse fill="none" stroke="black" cx="217" cy="-18" rx="112.26" ry="18"/>
<text text-anchor="middle" x="217" y="-12.95" font-family="Times,serif" font-size="14.00">ActiveStorage::Attachment</text>
</g>
<!-- Applicant&#45;&gt;ActiveStorage::Attachment -->
<g id="edge4" class="edge">
<title>Applicant&#45;&gt;ActiveStorage::Attachment</title>
<path fill="none" stroke="#c7e4db" d="M327.62,-429.32C318.55,-422.45 307.88,-415.63 297,-411.5 234.29,-387.67 0,-424.58 0,-357.5 0,-357.5 0,-357.5 0,-105.5 0,-74.65 76.61,-49.93 138.8,-34.93"/>
<polygon fill="#c7e4db" stroke="#c7e4db" points="327.7,-429.39 332.69,-439.15 331.86,-432.72 335.24,-435.42 335.24,-435.42 335.24,-435.42 331.86,-432.72 338.32,-432.12 327.7,-429.39"/>
<polygon fill="#c7e4db" stroke="#c7e4db" points="138.58,-34.99 149.35,-37.07 143.77,-33.76 147.99,-32.77 147.99,-32.77 147.99,-32.77 143.77,-33.76 147.28,-28.31 138.58,-34.99"/>
<text text-anchor="middle" x="47.62" y="-234.2" font-family="Times,serif" font-size="14.00">files_attachments</text>
</g>
<!-- ActiveStorage::Blob -->
<g id="node15" class="node">
<title>ActiveStorage::Blob</title>
<ellipse fill="none" stroke="black" cx="800" cy="-18" rx="86.67" ry="18"/>
<text text-anchor="middle" x="800" y="-12.95" font-family="Times,serif" font-size="14.00">ActiveStorage::Blob</text>
</g>
<!-- Applicant&#45;&gt;ActiveStorage::Blob -->
<g id="edge5" class="edge">
<title>Applicant&#45;&gt;ActiveStorage::Blob</title>
<path fill="none" stroke="#92c6b4" d="M378.43,-429.43C387.49,-422.57 398.16,-415.73 409,-411.5 503.85,-374.48 864,-459.32 864,-357.5 864,-357.5 864,-357.5 864,-105.5 864,-80.55 846.58,-58.09 829.92,-42.32"/>
<polygon fill="#92c6b4" stroke="#92c6b4" points="378.35,-429.5 367.73,-432.21 374.18,-432.82 370.79,-435.52 370.79,-435.52 370.79,-435.52 374.18,-432.82 373.34,-439.25 378.35,-429.5"/>
<polygon fill="#92c6b4" stroke="#92c6b4" points="830.08,-42.45 825.64,-32.43 826.11,-38.89 822.88,-36 822.88,-36 822.88,-36 826.11,-38.89 819.63,-39.12 830.08,-42.45"/>
<text text-anchor="middle" x="893.62" y="-234.2" font-family="Times,serif" font-size="14.00">files_blobs</text>
</g>
<!-- ApplicantArticle&#45;&gt;Article -->
<g id="edge6" class="edge">
<title>ApplicantArticle&#45;&gt;Article</title>
<path fill="none" stroke="#10b55c" d="M384.96,-333.03C397.95,-323.9 412.84,-313.44 425.45,-304.57"/>
<polygon fill="#10b55c" stroke="#10b55c" points="384.88,-333.09 374.11,-335.16 380.52,-336.16 376.97,-338.65 376.97,-338.65 376.97,-338.65 380.52,-336.16 379.29,-342.52 384.88,-333.09"/>
<polygon fill="#10b55c" stroke="#10b55c" points="425.32,-304.66 436.09,-302.59 429.68,-301.59 433.23,-299.1 433.23,-299.1 433.23,-299.1 429.68,-301.59 430.91,-295.23 425.32,-304.66"/>
</g>
<!-- ApplicationRecord -->
<g id="node5" class="node">
<title>ApplicationRecord</title>
<ellipse fill="none" stroke="black" cx="499" cy="-453" rx="81.04" ry="18"/>
<text text-anchor="middle" x="499" y="-447.95" font-family="Times,serif" font-size="14.00">ApplicationRecord</text>
</g>
<!-- Bookmark -->
<g id="node7" class="node">
<title>Bookmark</title>
<ellipse fill="none" stroke="black" cx="454" cy="-195" rx="50.33" ry="18"/>
<text text-anchor="middle" x="454" y="-189.95" font-family="Times,serif" font-size="14.00">Bookmark</text>
</g>
<!-- Article&#45;&gt;Bookmark -->
<g id="edge8" class="edge">
<title>Article&#45;&gt;Bookmark</title>
<path fill="none" stroke="#afbf6b" d="M454,-255.1C454,-245.06 454,-233.69 454,-223.63"/>
<polygon fill="#afbf6b" stroke="#afbf6b" points="454,-255.08 449.5,-265.08 454,-260.41 454,-264.74 454,-264.74 454,-264.74 454,-260.41 458.5,-265.08 454,-255.08"/>
<polygon fill="#afbf6b" stroke="#afbf6b" points="454,-223.68 458.5,-213.68 454,-218.35 454,-214.02 454,-214.02 454,-214.02 454,-218.35 449.5,-213.68 454,-223.68"/>
</g>
<!-- Category -->
<g id="node8" class="node">
<title>Category</title>
<ellipse fill="none" stroke="black" cx="567" cy="-195" rx="44.7" ry="18"/>
<text text-anchor="middle" x="567" y="-189.95" font-family="Times,serif" font-size="14.00">Category</text>
</g>
<!-- Article&#45;&gt;Category -->
<g id="edge11" class="edge">
<title>Article&#45;&gt;Category</title>
<path fill="none" stroke="#3ba669" d="M481.38,-261.54C498.78,-248.22 521.24,-231.03 538.8,-217.59"/>
<polygon fill="#3ba669" stroke="#3ba669" points="481.38,-261.54 470.7,-264.05 477.14,-264.79 473.7,-267.42 473.7,-267.42 473.7,-267.42 477.14,-264.79 476.17,-271.2 481.38,-261.54"/>
<polygon fill="#3ba669" stroke="#3ba669" points="538.77,-217.61 549.44,-215.11 543,-214.37 546.44,-211.74 546.44,-211.74 546.44,-211.74 543,-214.37 543.97,-207.96 538.77,-217.61"/>
</g>
<!-- CategoryArticle -->
<g id="node9" class="node">
<title>CategoryArticle</title>
<ellipse fill="none" stroke="black" cx="668" cy="-106.5" rx="70.29" ry="18"/>
<text text-anchor="middle" x="668" y="-101.45" font-family="Times,serif" font-size="14.00">CategoryArticle</text>
</g>
<!-- Article&#45;&gt;CategoryArticle -->
<g id="edge10" class="edge">
<title>Article&#45;&gt;CategoryArticle</title>
<path fill="none" stroke="#73ee8d" d="M499.78,-278.27C573.48,-270.4 713.22,-250.79 743,-213 765.03,-185.05 731.1,-151.3 702.02,-129.63"/>
<polygon fill="#73ee8d" stroke="#73ee8d" points="500.11,-278.23 489.7,-274.79 494.81,-278.78 490.5,-279.23 490.5,-279.23 490.5,-279.23 494.81,-278.78 490.63,-283.74 500.11,-278.23"/>
<polygon fill="#73ee8d" stroke="#73ee8d" points="702,-129.62 696.5,-120.13 697.66,-126.5 694.15,-123.98 694.15,-123.98 694.15,-123.98 697.66,-126.5 691.25,-127.43 702,-129.62"/>
</g>
<!-- Like -->
<g id="node12" class="node">
<title>Like</title>
<ellipse fill="none" stroke="black" cx="358" cy="-195" rx="27.81" ry="18"/>
<text text-anchor="middle" x="358" y="-189.95" font-family="Times,serif" font-size="14.00">Like</text>
</g>
<!-- Article&#45;&gt;Like -->
<g id="edge9" class="edge">
<title>Article&#45;&gt;Like</title>
<path fill="none" stroke="#7bc0a9" d="M429.63,-260.54C414.77,-247.15 395.88,-230.13 381.23,-216.93"/>
<polygon fill="#7bc0a9" stroke="#7bc0a9" points="429.6,-260.51 434.02,-270.55 433.56,-264.09 436.78,-266.99 436.78,-266.99 436.78,-266.99 433.56,-264.09 440.04,-263.87 429.6,-260.51"/>
<polygon fill="#7bc0a9" stroke="#7bc0a9" points="381.26,-216.95 376.84,-206.92 377.29,-213.38 374.07,-210.48 374.07,-210.48 374.07,-210.48 377.29,-213.38 370.81,-213.6 381.26,-216.95"/>
</g>
<!-- Article&#45;&gt;User -->
<g id="edge7" class="edge">
<title>Article&#45;&gt;User</title>
<path fill="none" stroke="#fa736c" d="M411.02,-272.64C380.05,-263.05 340.43,-245.07 321,-213 306.17,-188.51 316.63,-155.52 327.41,-132.99"/>
<polygon fill="#fa736c" stroke="#fa736c" points="410.81,-272.58 419.15,-279.7 415.93,-274.07 420.09,-275.28 420.09,-275.28 420.09,-275.28 415.93,-274.07 421.67,-271.06 410.81,-272.58"/>
<polygon fill="#fa736c" stroke="#fa736c" points="327.44,-132.94 336,-126.08 329.87,-128.19 331.84,-124.33 331.84,-124.33 331.84,-124.33 329.87,-128.19 327.98,-121.98 327.44,-132.94"/>
</g>
<!-- Article&#45;&gt;ActiveStorage::Attachment -->
<g id="edge13" class="edge">
<title>Article&#45;&gt;ActiveStorage::Attachment</title>
<path fill="none" stroke="#9abebc" d="M409.53,-274.39C385.87,-268.93 356.82,-260.32 333,-247.5 319.66,-240.32 236.19,-172.47 229.25,-159 210.91,-123.42 211.05,-75.96 213.51,-46.44"/>
<polygon fill="#9abebc" stroke="#9abebc" points="409.56,-274.4 418.36,-280.94 414.77,-275.54 419,-276.47 419,-276.47 419,-276.47 414.77,-275.54 420.29,-272.15 409.56,-274.4"/>
<polygon fill="#9abebc" stroke="#9abebc" points="213.52,-46.36 218.98,-36.85 214.04,-41.05 214.47,-36.74 214.47,-36.74 214.47,-36.74 214.04,-41.05 210.02,-35.97 213.52,-46.36"/>
<text text-anchor="middle" x="272.38" y="-145.7" font-family="Times,serif" font-size="14.00">file_attachment</text>
</g>
<!-- Article&#45;&gt;ActiveStorage::Blob -->
<g id="edge14" class="edge">
<title>Article&#45;&gt;ActiveStorage::Blob</title>
<path fill="none" stroke="#7dc507" d="M501.11,-282.7C553.96,-281.44 641.4,-274.85 711,-247.5 735.79,-237.76 745.4,-235.27 760,-213 793.87,-161.35 799.9,-86.68 800.49,-46.71"/>
<polygon fill="#7dc507" stroke="#7dc507" points="501.02,-282.7 490.94,-278.39 495.69,-282.8 491.36,-282.88 491.36,-282.88 491.36,-282.88 495.69,-282.8 491.11,-287.38 501.02,-282.7"/>
<polygon fill="#7dc507" stroke="#7dc507" points="800.49,-46.74 805.03,-36.76 800.51,-41.41 800.52,-37.08 800.52,-37.08 800.52,-37.08 800.51,-41.41 796.03,-36.73 800.49,-46.74"/>
<text text-anchor="middle" x="812.38" y="-145.7" font-family="Times,serif" font-size="14.00">file_blob</text>
</g>
<!-- Impression -->
<g id="node16" class="node">
<title>Impression</title>
<ellipse fill="none" stroke="black" cx="682" cy="-195" rx="52.38" ry="18"/>
<text text-anchor="middle" x="682" y="-189.95" font-family="Times,serif" font-size="14.00">Impression</text>
</g>
<!-- Article&#45;&gt;Impression -->
<g id="edge12" class="edge">
<title>Article&#45;&gt;Impression</title>
<path fill="none" stroke="#c2f3fb" d="M492.04,-268.07C532.23,-252.82 595.53,-228.81 637.88,-212.74"/>
<polygon fill="#c2f3fb" stroke="#c2f3fb" points="492.08,-268.05 481.13,-267.39 487.09,-269.95 483.04,-271.48 483.04,-271.48 483.04,-271.48 487.09,-269.95 484.32,-275.81 492.08,-268.05"/>
<polygon fill="#c2f3fb" stroke="#c2f3fb" points="637.97,-212.7 648.92,-213.36 642.96,-210.81 647.01,-209.27 647.01,-209.27 647.01,-209.27 642.96,-210.81 645.73,-204.95 637.97,-212.7"/>
</g>
<!-- Bookmark&#45;&gt;User -->
<g id="edge15" class="edge">
<title>Bookmark&#45;&gt;User</title>
<path fill="none" stroke="#99f1e1" d="M425.28,-171.82C407.42,-158.02 384.64,-140.43 367.43,-127.14"/>
<polygon fill="#99f1e1" stroke="#99f1e1" points="425.28,-171.82 430.44,-181.49 429.5,-175.08 432.93,-177.73 432.93,-177.73 432.93,-177.73 429.5,-175.08 435.94,-174.37 425.28,-171.82"/>
<polygon fill="#99f1e1" stroke="#99f1e1" points="367.65,-127.31 362.48,-117.63 363.43,-124.05 360,-121.4 360,-121.4 360,-121.4 363.43,-124.05 356.98,-124.76 367.65,-127.31"/>
</g>
<!-- Category&#45;&gt;CategoryArticle -->
<g id="edge16" class="edge">
<title>Category&#45;&gt;CategoryArticle</title>
<path fill="none" stroke="#dd5c61" d="M593.09,-171.66C607.71,-159.14 625.92,-143.54 640.73,-130.86"/>
<polygon fill="#dd5c61" stroke="#dd5c61" points="593.37,-171.41 582.85,-174.5 589.32,-174.88 586.03,-177.7 586.03,-177.7 586.03,-177.7 589.32,-174.88 588.71,-181.33 593.37,-171.41"/>
<polygon fill="#dd5c61" stroke="#dd5c61" points="640.71,-130.87 651.23,-127.78 644.76,-127.4 648.05,-124.58 648.05,-124.58 648.05,-124.58 644.76,-127.4 645.38,-120.95 640.71,-130.87"/>
</g>
<!-- Company -->
<g id="node10" class="node">
<title>Company</title>
<ellipse fill="none" stroke="black" cx="187" cy="-283.5" rx="47.26" ry="18"/>
<text text-anchor="middle" x="187" y="-278.45" font-family="Times,serif" font-size="14.00">Company</text>
</g>
<!-- Employee -->
<g id="node11" class="node">
<title>Employee</title>
<ellipse fill="none" stroke="black" cx="187" cy="-195" rx="48.79" ry="18"/>
<text text-anchor="middle" x="187" y="-189.95" font-family="Times,serif" font-size="14.00">Employee</text>
</g>
<!-- Company&#45;&gt;Employee -->
<g id="edge17" class="edge">
<title>Company&#45;&gt;Employee</title>
<path fill="none" stroke="#86a291" d="M187,-255.1C187,-245.06 187,-233.69 187,-223.63"/>
<polygon fill="#86a291" stroke="#86a291" points="187,-255.08 182.5,-265.08 187,-260.41 187,-264.74 187,-264.74 187,-264.74 187,-260.41 191.5,-265.08 187,-255.08"/>
<polygon fill="#86a291" stroke="#86a291" points="187,-223.68 191.5,-213.68 187,-218.35 187,-214.02 187,-214.02 187,-214.02 187,-218.35 182.5,-213.68 187,-223.68"/>
</g>
<!-- Employee&#45;&gt;User -->
<g id="edge18" class="edge">
<title>Employee&#45;&gt;User</title>
<path fill="none" stroke="#4b4421" d="M191.76,-166.83C194.55,-157.99 198.99,-148.84 206,-142.5 232.54,-118.53 273.33,-110.53 303.31,-108.08"/>
<polygon fill="#4b4421" stroke="#4b4421" points="191.75,-166.87 184.89,-175.43 190.42,-172.04 189.34,-176.23 189.34,-176.23 189.34,-176.23 190.42,-172.04 193.61,-177.68 191.75,-166.87"/>
<polygon fill="#4b4421" stroke="#4b4421" points="303.11,-108.09 313.38,-111.94 308.44,-107.75 312.76,-107.47 312.76,-107.47 312.76,-107.47 308.44,-107.75 312.8,-102.96 303.11,-108.09"/>
</g>
<!-- Like&#45;&gt;User -->
<g id="edge19" class="edge">
<title>Like&#45;&gt;User</title>
<path fill="none" stroke="#a94793" d="M353.01,-167C351.12,-156.79 348.97,-145.17 347.07,-134.92"/>
<polygon fill="#a94793" stroke="#a94793" points="352.96,-166.75 350.35,-177.4 353.93,-171.99 354.72,-176.25 354.72,-176.25 354.72,-176.25 353.93,-171.99 359.2,-175.76 352.96,-166.75"/>
<polygon fill="#a94793" stroke="#a94793" points="347.09,-135.01 349.7,-124.36 346.12,-129.77 345.33,-125.51 345.33,-125.51 345.33,-125.51 346.12,-129.77 340.85,-126 347.09,-135.01"/>
</g>
<!-- User&#45;&gt;ActiveStorage::Attachment -->
<g id="edge21" class="edge">
<title>User&#45;&gt;ActiveStorage::Attachment</title>
<path fill="none" stroke="#f302dd" d="M308.52,-92.89C295.09,-87.07 279.85,-79.45 267.25,-70.5 256.7,-63 246.45,-53.13 238,-44.04"/>
<polygon fill="#f302dd" stroke="#f302dd" points="308.38,-92.83 315.88,-100.83 313.3,-94.88 317.3,-96.55 317.3,-96.55 317.3,-96.55 313.3,-94.88 319.34,-92.53 308.38,-92.83"/>
<polygon fill="#f302dd" stroke="#f302dd" points="237.97,-44.02 234.63,-33.57 234.41,-40.05 231.51,-36.83 231.51,-36.83 231.51,-36.83 234.41,-40.05 227.94,-39.59 237.97,-44.02"/>
<text text-anchor="middle" x="317.88" y="-57.2" font-family="Times,serif" font-size="14.00">avatar_attachment</text>
</g>
<!-- User&#45;&gt;ActiveStorage::Blob -->
<g id="edge22" class="edge">
<title>User&#45;&gt;ActiveStorage::Blob</title>
<path fill="none" stroke="#5eb947" d="M378.82,-98.55C454.33,-84.28 627.97,-51.49 727.11,-32.77"/>
<polygon fill="#5eb947" stroke="#5eb947" points="379.1,-98.49 368.43,-95.93 373.85,-99.48 369.6,-100.29 369.6,-100.29 369.6,-100.29 373.85,-99.48 370.1,-104.77 379.1,-98.49"/>
<polygon fill="#5eb947" stroke="#5eb947" points="727.19,-32.75 737.85,-35.32 732.43,-31.76 736.69,-30.96 736.69,-30.96 736.69,-30.96 732.43,-31.76 736.18,-26.47 727.19,-32.75"/>
<text text-anchor="middle" x="643.88" y="-57.2" font-family="Times,serif" font-size="14.00">avatar_blob</text>
</g>
<!-- Rolable -->
<g id="node17" class="node">
<title>Rolable</title>
<ellipse fill="none" stroke="black" cx="387" cy="-18" rx="39.58" ry="18"/>
<text text-anchor="middle" x="387" y="-12.95" font-family="Times,serif" font-size="14.00">Rolable</text>
</g>
<!-- User&#45;&gt;Rolable -->
<g id="edge20" class="edge">
<title>User&#45;&gt;Rolable</title>
<path fill="none" stroke="#b64bf0" d="M362.98,-82.71C365.94,-78.81 368.74,-74.67 371,-70.5 375.03,-63.06 378.21,-54.45 380.64,-46.43"/>
<polygon fill="#b64bf0" stroke="#b64bf0" points="362.94,-82.77 353.12,-87.66 359.56,-86.9 356.82,-90.25 356.82,-90.25 356.82,-90.25 359.56,-86.9 360.09,-93.36 362.94,-82.77"/>
<polygon fill="#b64bf0" stroke="#b64bf0" points="380.66,-46.33 387.65,-37.88 382.08,-41.19 383.22,-37.01 383.22,-37.01 383.22,-37.01 382.08,-41.19 378.97,-35.5 380.66,-46.33"/>
</g>
</g>
</svg>
