<?xml version="1.0" encoding="UTF-8" standalone="no"?>
<!DOCTYPE svg PUBLIC "-//W3C//DTD SVG 1.1//EN"
 "http://www.w3.org/Graphics/SVG/1.1/DTD/svg11.dtd">
<!-- Generated by graphviz version 9.0.0 (20230911.1827)
 -->
<!-- Title: models_diagram Pages: 1 -->
<svg width="1139pt" height="834pt"
 viewBox="0.00 0.00 1139.17 834.00" xmlns="http://www.w3.org/2000/svg" xmlns:xlink="http://www.w3.org/1999/xlink">
<g id="graph0" class="graph" transform="scale(1 1) rotate(0) translate(4 830)">
<title>models_diagram</title>
<polygon fill="none" stroke="none" points="-4,4 -4,-830 1135.17,-830 1135.17,4 -4,4"/>
<!-- _diagram_info -->
<g id="node1" class="node">
<title>_diagram_info</title>
<text text-anchor="start" x="16.88" y="-784.9" font-family="Times,serif" font-size="13.00">Models diagram</text>
<text text-anchor="start" x="16.88" y="-769.9" font-family="Times,serif" font-size="13.00">Date: Mar 10 2024 &#45; 06:20</text>
<text text-anchor="start" x="16.88" y="-754.9" font-family="Times,serif" font-size="13.00">Migration version: 20240309204206</text>
<text text-anchor="start" x="16.88" y="-739.9" font-family="Times,serif" font-size="13.00">Generated by RailRoady 1.6.0</text>
<text text-anchor="start" x="16.88" y="-724.9" font-family="Times,serif" font-size="13.00">http://railroady.prestonlee.com</text>
</g>
<!-- Ability -->
<g id="node2" class="node">
<title>Ability</title>
<polygon fill="none" stroke="black" points="240.38,-735.25 240.38,-784.25 294.62,-784.25 294.62,-735.25 240.38,-735.25"/>
<text text-anchor="middle" x="267.5" y="-766.95" font-family="Times,serif" font-size="14.00">Ability</text>
<polyline fill="none" stroke="black" points="240.38,-759.75 294.62,-759.75"/>
<text text-anchor="middle" x="267.5" y="-742.45" font-family="Times,serif" font-size="14.00"> </text>
</g>
<!-- Applicant -->
<g id="node3" class="node">
<title>Applicant</title>
<path fill="none" stroke="black" d="M325,-694C325,-694 560,-694 560,-694 566,-694 572,-700 572,-706 572,-706 572,-813.5 572,-813.5 572,-819.5 566,-825.5 560,-825.5 560,-825.5 325,-825.5 325,-825.5 319,-825.5 313,-819.5 313,-813.5 313,-813.5 313,-706 313,-706 313,-700 319,-694 325,-694"/>
<text text-anchor="middle" x="442.5" y="-808.2" font-family="Times,serif" font-size="14.00">Applicant</text>
<polyline fill="none" stroke="black" points="313,-801 572,-801"/>
<text text-anchor="start" x="321" y="-783.7" font-family="Times,serif" font-size="14.00">id :bigint</text>
<text text-anchor="start" x="321" y="-767.2" font-family="Times,serif" font-size="14.00">name :character varying</text>
<text text-anchor="start" x="321" y="-750.7" font-family="Times,serif" font-size="14.00">user_id :integer</text>
<text text-anchor="start" x="321" y="-734.2" font-family="Times,serif" font-size="14.00">created_at :timestamp(6) without time zone</text>
<text text-anchor="start" x="321" y="-717.7" font-family="Times,serif" font-size="14.00">updated_at :timestamp(6) without time zone</text>
<text text-anchor="start" x="321" y="-701.2" font-family="Times,serif" font-size="14.00">creater_id :integer</text>
</g>
<!-- ApplicantArticle -->
<g id="node4" class="node">
<title>ApplicantArticle</title>
<path fill="none" stroke="black" d="M310,-541C310,-541 545,-541 545,-541 551,-541 557,-547 557,-553 557,-553 557,-644 557,-644 557,-650 551,-656 545,-656 545,-656 310,-656 310,-656 304,-656 298,-650 298,-644 298,-644 298,-553 298,-553 298,-547 304,-541 310,-541"/>
<text text-anchor="middle" x="427.5" y="-638.7" font-family="Times,serif" font-size="14.00">ApplicantArticle</text>
<polyline fill="none" stroke="black" points="298,-631.5 557,-631.5"/>
<text text-anchor="start" x="306" y="-614.2" font-family="Times,serif" font-size="14.00">id :bigint</text>
<text text-anchor="start" x="306" y="-597.7" font-family="Times,serif" font-size="14.00">applicant_id :bigint</text>
<text text-anchor="start" x="306" y="-581.2" font-family="Times,serif" font-size="14.00">article_id :bigint</text>
<text text-anchor="start" x="306" y="-564.7" font-family="Times,serif" font-size="14.00">created_at :timestamp(6) without time zone</text>
<text text-anchor="start" x="306" y="-548.2" font-family="Times,serif" font-size="14.00">updated_at :timestamp(6) without time zone</text>
</g>
<!-- Applicant&#45;&gt;ApplicantArticle -->
<g id="edge1" class="edge">
<title>Applicant&#45;&gt;ApplicantArticle</title>
<path fill="none" stroke="#e747cc" d="M435.4,-683.36C434.88,-677.85 434.36,-672.31 433.84,-666.85"/>
<polygon fill="#e747cc" stroke="#e747cc" points="435.39,-683.23 431.84,-693.61 435.89,-688.54 436.29,-692.85 436.29,-692.85 436.29,-692.85 435.89,-688.54 440.8,-692.76 435.39,-683.23"/>
<polygon fill="#e747cc" stroke="#e747cc" points="433.84,-666.76 437.38,-656.38 433.34,-661.45 432.93,-657.14 432.93,-657.14 432.93,-657.14 433.34,-661.45 428.42,-657.23 433.84,-666.76"/>
</g>
<!-- Article -->
<g id="node6" class="node">
<title>Article</title>
<path fill="none" stroke="black" d="M487,-322C487,-322 722,-322 722,-322 728,-322 734,-328 734,-334 734,-334 734,-491 734,-491 734,-497 728,-503 722,-503 722,-503 487,-503 487,-503 481,-503 475,-497 475,-491 475,-491 475,-334 475,-334 475,-328 481,-322 487,-322"/>
<text text-anchor="middle" x="604.5" y="-485.7" font-family="Times,serif" font-size="14.00">Article</text>
<polyline fill="none" stroke="black" points="475,-478.5 734,-478.5"/>
<text text-anchor="start" x="483" y="-461.2" font-family="Times,serif" font-size="14.00">end_time :timestamp(6) without time zone</text>
<text text-anchor="start" x="483" y="-444.7" font-family="Times,serif" font-size="14.00">body :text</text>
<text text-anchor="start" x="483" y="-428.2" font-family="Times,serif" font-size="14.00">user_id :bigint</text>
<text text-anchor="start" x="483" y="-411.7" font-family="Times,serif" font-size="14.00">created_at :timestamp(6) without time zone</text>
<text text-anchor="start" x="483" y="-395.2" font-family="Times,serif" font-size="14.00">updated_at :timestamp(6) without time zone</text>
<text text-anchor="start" x="483" y="-378.7" font-family="Times,serif" font-size="14.00">impressions_count :integer</text>
<text text-anchor="start" x="483" y="-362.2" font-family="Times,serif" font-size="14.00">file :character varying</text>
<text text-anchor="start" x="483" y="-345.7" font-family="Times,serif" font-size="14.00">start_time :timestamp(6) without time zone</text>
<text text-anchor="start" x="483" y="-329.2" font-family="Times,serif" font-size="14.00">id :bigint</text>
</g>
<!-- Applicant&#45;&gt;Article -->
<g id="edge2" class="edge">
<title>Applicant&#45;&gt;Article</title>
<path fill="none" stroke="#c39efc" d="M543.29,-686.48C551.78,-677.19 559.42,-667.16 565.5,-656.5 590,-613.54 600.31,-559.75 604.27,-513.71"/>
<polygon fill="#c39efc" stroke="#c39efc" points="543.46,-686.3 533.29,-690.42 539.77,-690.16 536.78,-693.29 536.78,-693.29 536.78,-693.29 539.77,-690.16 539.8,-696.64 543.46,-686.3"/>
<polygon fill="#c39efc" stroke="#c39efc" points="604.27,-513.71 609.52,-504.08 604.67,-508.39 605.01,-504.07 605.01,-504.07 605.01,-504.07 604.67,-508.39 600.54,-503.39 604.27,-513.71"/>
</g>
<!-- ApplicantArticle&#45;&gt;Article -->
<g id="edge3" class="edge">
<title>ApplicantArticle&#45;&gt;Article</title>
<path fill="none" stroke="#449d49" d="M489.32,-533.23C496.45,-525.82 503.84,-518.14 511.27,-510.42"/>
<polygon fill="#449d49" stroke="#449d49" points="489.46,-533.09 479.28,-537.18 485.76,-536.94 482.76,-540.06 482.76,-540.06 482.76,-540.06 485.76,-536.94 485.77,-543.42 489.46,-533.09"/>
<polygon fill="#449d49" stroke="#449d49" points="510.93,-510.77 521.11,-506.68 514.63,-506.92 517.63,-503.8 517.63,-503.8 517.63,-503.8 514.63,-506.92 514.62,-500.44 510.93,-510.77"/>
</g>
<!-- ApplicationRecord -->
<g id="node5" class="node">
<title>ApplicationRecord</title>
<ellipse fill="none" stroke="black" cx="967.5" cy="-759.75" rx="81.04" ry="18"/>
<text text-anchor="middle" x="967.5" y="-754.7" font-family="Times,serif" font-size="14.00">ApplicationRecord</text>
</g>
<!-- Bookmark -->
<g id="node7" class="node">
<title>Bookmark</title>
<path fill="none" stroke="black" d="M12,-153.5C12,-153.5 247,-153.5 247,-153.5 253,-153.5 259,-159.5 259,-165.5 259,-165.5 259,-256.5 259,-256.5 259,-262.5 253,-268.5 247,-268.5 247,-268.5 12,-268.5 12,-268.5 6,-268.5 0,-262.5 0,-256.5 0,-256.5 0,-165.5 0,-165.5 0,-159.5 6,-153.5 12,-153.5"/>
<text text-anchor="middle" x="129.5" y="-251.2" font-family="Times,serif" font-size="14.00">Bookmark</text>
<polyline fill="none" stroke="black" points="0,-244 259,-244"/>
<text text-anchor="start" x="8" y="-226.7" font-family="Times,serif" font-size="14.00">id :bigint</text>
<text text-anchor="start" x="8" y="-210.2" font-family="Times,serif" font-size="14.00">user_id :bigint</text>
<text text-anchor="start" x="8" y="-193.7" font-family="Times,serif" font-size="14.00">article_id :bigint</text>
<text text-anchor="start" x="8" y="-177.2" font-family="Times,serif" font-size="14.00">created_at :timestamp(6) without time zone</text>
<text text-anchor="start" x="8" y="-160.7" font-family="Times,serif" font-size="14.00">updated_at :timestamp(6) without time zone</text>
</g>
<!-- Article&#45;&gt;Bookmark -->
<g id="edge5" class="edge">
<title>Article&#45;&gt;Bookmark</title>
<path fill="none" stroke="#830997" d="M465.19,-352.99C403.25,-326.97 330.5,-296.42 268.58,-270.42"/>
<polygon fill="#830997" stroke="#830997" points="465.18,-352.98 472.65,-361.01 470.09,-355.05 474.09,-356.73 474.09,-356.73 474.09,-356.73 470.09,-355.05 476.14,-352.71 465.18,-352.98"/>
<polygon fill="#830997" stroke="#830997" points="268.67,-270.45 261.19,-262.43 263.75,-268.38 259.76,-266.71 259.76,-266.71 259.76,-266.71 263.75,-268.38 257.7,-270.73 268.67,-270.45"/>
</g>
<!-- Like -->
<g id="node10" class="node">
<title>Like</title>
<path fill="none" stroke="black" d="M289,-153.5C289,-153.5 524,-153.5 524,-153.5 530,-153.5 536,-159.5 536,-165.5 536,-165.5 536,-256.5 536,-256.5 536,-262.5 530,-268.5 524,-268.5 524,-268.5 289,-268.5 289,-268.5 283,-268.5 277,-262.5 277,-256.5 277,-256.5 277,-165.5 277,-165.5 277,-159.5 283,-153.5 289,-153.5"/>
<text text-anchor="middle" x="406.5" y="-251.2" font-family="Times,serif" font-size="14.00">Like</text>
<polyline fill="none" stroke="black" points="277,-244 536,-244"/>
<text text-anchor="start" x="285" y="-226.7" font-family="Times,serif" font-size="14.00">id :bigint</text>
<text text-anchor="start" x="285" y="-210.2" font-family="Times,serif" font-size="14.00">user_id :bigint</text>
<text text-anchor="start" x="285" y="-193.7" font-family="Times,serif" font-size="14.00">article_id :bigint</text>
<text text-anchor="start" x="285" y="-177.2" font-family="Times,serif" font-size="14.00">created_at :timestamp(6) without time zone</text>
<text text-anchor="start" x="285" y="-160.7" font-family="Times,serif" font-size="14.00">updated_at :timestamp(6) without time zone</text>
</g>
<!-- Article&#45;&gt;Like -->
<g id="edge6" class="edge">
<title>Article&#45;&gt;Like</title>
<path fill="none" stroke="#480d0a" d="M508.21,-314.48C495.21,-301.39 482.15,-288.22 469.92,-275.9"/>
<polygon fill="#480d0a" stroke="#480d0a" points="508.07,-314.34 511.92,-324.6 511.82,-318.12 514.88,-321.2 514.88,-321.2 514.88,-321.2 511.82,-318.12 518.31,-318.26 508.07,-314.34"/>
<polygon fill="#480d0a" stroke="#480d0a" points="470.11,-276.09 466.26,-265.82 466.35,-272.3 463.3,-269.23 463.3,-269.23 463.3,-269.23 466.35,-272.3 459.87,-272.16 470.11,-276.09"/>
</g>
<!-- User -->
<g id="node11" class="node">
<title>User</title>
<path fill="none" stroke="black" d="M289,-0.5C289,-0.5 524,-0.5 524,-0.5 530,-0.5 536,-6.5 536,-12.5 536,-12.5 536,-103.5 536,-103.5 536,-109.5 530,-115.5 524,-115.5 524,-115.5 289,-115.5 289,-115.5 283,-115.5 277,-109.5 277,-103.5 277,-103.5 277,-12.5 277,-12.5 277,-6.5 283,-0.5 289,-0.5"/>
<text text-anchor="middle" x="406.5" y="-98.2" font-family="Times,serif" font-size="14.00">User</text>
<polyline fill="none" stroke="black" points="277,-91 536,-91"/>
<text text-anchor="start" x="285" y="-73.7" font-family="Times,serif" font-size="14.00">id :bigint</text>
<text text-anchor="start" x="285" y="-57.2" font-family="Times,serif" font-size="14.00">email :character varying</text>
<text text-anchor="start" x="285" y="-40.7" font-family="Times,serif" font-size="14.00">created_at :timestamp(6) without time zone</text>
<text text-anchor="start" x="285" y="-24.2" font-family="Times,serif" font-size="14.00">updated_at :timestamp(6) without time zone</text>
<text text-anchor="start" x="285" y="-7.7" font-family="Times,serif" font-size="14.00">role :integer</text>
</g>
<!-- Article&#45;&gt;User -->
<g id="edge4" class="edge">
<title>Article&#45;&gt;User</title>
<path fill="none" stroke="#a188b0" d="M589.02,-311.62C578.07,-250.37 562.22,-178.88 544.5,-153 536.86,-141.84 527.41,-131.62 517.08,-122.38"/>
<polygon fill="#a188b0" stroke="#a188b0" points="589.01,-311.57 586.31,-322.2 589.93,-316.82 590.68,-321.09 590.68,-321.09 590.68,-321.09 589.93,-316.82 595.17,-320.63 589.01,-311.57"/>
<polygon fill="#a188b0" stroke="#a188b0" points="517.26,-122.53 512.59,-112.61 513.21,-119.07 509.92,-116.25 509.92,-116.25 509.92,-116.25 513.21,-119.07 506.74,-119.45 517.26,-122.53"/>
</g>
<!-- Impression -->
<g id="node12" class="node">
<title>Impression</title>
<ellipse fill="none" stroke="black" cx="644.5" cy="-211" rx="52.38" ry="18"/>
<text text-anchor="middle" x="644.5" y="-205.95" font-family="Times,serif" font-size="14.00">Impression</text>
</g>
<!-- Article&#45;&gt;Impression -->
<g id="edge7" class="edge">
<title>Article&#45;&gt;Impression</title>
<path fill="none" stroke="#3c73c2" d="M624.49,-311.81C629.85,-285.09 635.21,-258.36 639.03,-239.29"/>
<polygon fill="#3c73c2" stroke="#3c73c2" points="624.54,-311.54 618.16,-320.46 623.49,-316.77 622.64,-321.02 622.64,-321.02 622.64,-321.02 623.49,-316.77 626.99,-322.23 624.54,-311.54"/>
<polygon fill="#3c73c2" stroke="#3c73c2" points="639,-239.41 645.38,-230.49 640.05,-234.18 640.9,-229.93 640.9,-229.93 640.9,-229.93 640.05,-234.18 636.56,-228.72 639,-239.41"/>
</g>
<!-- ActiveStorage::Attachment -->
<g id="node13" class="node">
<title>ActiveStorage::Attachment</title>
<ellipse fill="none" stroke="black" cx="827.5" cy="-211" rx="112.26" ry="18"/>
<text text-anchor="middle" x="827.5" y="-205.95" font-family="Times,serif" font-size="14.00">ActiveStorage::Attachment</text>
</g>
<!-- Article&#45;&gt;ActiveStorage::Attachment -->
<g id="edge8" class="edge">
<title>Article&#45;&gt;ActiveStorage::Attachment</title>
<path fill="none" stroke="#1e3b4b" d="M712.3,-315.06C745.24,-285.59 778.62,-255.73 800.91,-235.79"/>
<polygon fill="#1e3b4b" stroke="#1e3b4b" points="712.61,-314.78 702.16,-318.09 708.64,-318.34 705.41,-321.23 705.41,-321.23 705.41,-321.23 708.64,-318.34 708.16,-324.8 712.61,-314.78"/>
<polygon fill="#1e3b4b" stroke="#1e3b4b" points="800.9,-235.8 811.35,-232.49 804.87,-232.24 808.1,-229.36 808.1,-229.36 808.1,-229.36 804.87,-232.24 805.35,-225.78 800.9,-235.8"/>
<text text-anchor="middle" x="784.88" y="-290.2" font-family="Times,serif" font-size="14.00">file_attachment</text>
</g>
<!-- ActiveStorage::Blob -->
<g id="node14" class="node">
<title>ActiveStorage::Blob</title>
<ellipse fill="none" stroke="black" cx="1044.5" cy="-211" rx="86.67" ry="18"/>
<text text-anchor="middle" x="1044.5" y="-205.95" font-family="Times,serif" font-size="14.00">ActiveStorage::Blob</text>
</g>
<!-- Article&#45;&gt;ActiveStorage::Blob -->
<g id="edge9" class="edge">
<title>Article&#45;&gt;ActiveStorage::Blob</title>
<path fill="none" stroke="#ee92fc" d="M743.95,-359C807.31,-333.81 882.66,-301.97 948.5,-269 969.65,-258.41 992.45,-244.96 1010.52,-233.79"/>
<polygon fill="#ee92fc" stroke="#ee92fc" points="743.89,-359.02 732.94,-358.52 738.93,-360.99 734.91,-362.58 734.91,-362.58 734.91,-362.58 738.93,-360.99 736.25,-366.89 743.89,-359.02"/>
<polygon fill="#ee92fc" stroke="#ee92fc" points="1010.22,-233.98 1021.08,-232.51 1014.74,-231.16 1018.42,-228.87 1018.42,-228.87 1018.42,-228.87 1014.74,-231.16 1016.32,-224.87 1010.22,-233.98"/>
<text text-anchor="middle" x="926.88" y="-290.2" font-family="Times,serif" font-size="14.00">file_blob</text>
</g>
<!-- Bookmark&#45;&gt;User -->
<g id="edge10" class="edge">
<title>Bookmark&#45;&gt;User</title>
<path fill="none" stroke="#b05977" d="M242.81,-148.23C259.41,-139.18 276.5,-129.86 293.1,-120.82"/>
<polygon fill="#b05977" stroke="#b05977" points="242.9,-148.18 231.97,-149.02 238.22,-150.74 234.41,-152.81 234.41,-152.81 234.41,-152.81 238.22,-150.74 236.27,-156.92 242.9,-148.18"/>
<polygon fill="#b05977" stroke="#b05977" points="293.19,-120.77 304.13,-119.93 297.88,-118.21 301.68,-116.14 301.68,-116.14 301.68,-116.14 297.88,-118.21 299.82,-112.03 293.19,-120.77"/>
</g>
<!-- Category -->
<g id="node8" class="node">
<title>Category</title>
<path fill="none" stroke="black" d="M621,-710.5C621,-710.5 856,-710.5 856,-710.5 862,-710.5 868,-716.5 868,-722.5 868,-722.5 868,-797 868,-797 868,-803 862,-809 856,-809 856,-809 621,-809 621,-809 615,-809 609,-803 609,-797 609,-797 609,-722.5 609,-722.5 609,-716.5 615,-710.5 621,-710.5"/>
<text text-anchor="middle" x="738.5" y="-791.7" font-family="Times,serif" font-size="14.00">Category</text>
<polyline fill="none" stroke="black" points="609,-784.5 868,-784.5"/>
<text text-anchor="start" x="617" y="-767.2" font-family="Times,serif" font-size="14.00">id :bigint</text>
<text text-anchor="start" x="617" y="-750.7" font-family="Times,serif" font-size="14.00">name :character varying</text>
<text text-anchor="start" x="617" y="-734.2" font-family="Times,serif" font-size="14.00">created_at :timestamp(6) without time zone</text>
<text text-anchor="start" x="617" y="-717.7" font-family="Times,serif" font-size="14.00">updated_at :timestamp(6) without time zone</text>
</g>
<!-- Category&#45;&gt;Article -->
<g id="edge12" class="edge">
<title>Category&#45;&gt;Article</title>
<path fill="none" stroke="#b4e58a" d="M674.67,-702.58C662.24,-688.69 650.57,-673.02 642.5,-656.5 620.98,-612.45 611.12,-559.03 606.79,-513.51"/>
<polygon fill="#b4e58a" stroke="#b4e58a" points="674.62,-702.52 678.11,-712.91 678.24,-706.43 681.18,-709.61 681.18,-709.61 681.18,-709.61 678.24,-706.43 684.71,-706.8 674.62,-702.52"/>
<polygon fill="#b4e58a" stroke="#b4e58a" points="606.8,-513.62 610.41,-503.27 606.33,-508.31 605.95,-503.99 605.95,-503.99 605.95,-503.99 606.33,-508.31 601.44,-504.05 606.8,-513.62"/>
</g>
<!-- CategoryArticle -->
<g id="node9" class="node">
<title>CategoryArticle</title>
<path fill="none" stroke="black" d="M664,-541C664,-541 899,-541 899,-541 905,-541 911,-547 911,-553 911,-553 911,-644 911,-644 911,-650 905,-656 899,-656 899,-656 664,-656 664,-656 658,-656 652,-650 652,-644 652,-644 652,-553 652,-553 652,-547 658,-541 664,-541"/>
<text text-anchor="middle" x="781.5" y="-638.7" font-family="Times,serif" font-size="14.00">CategoryArticle</text>
<polyline fill="none" stroke="black" points="652,-631.5 911,-631.5"/>
<text text-anchor="start" x="660" y="-614.2" font-family="Times,serif" font-size="14.00">id :bigint</text>
<text text-anchor="start" x="660" y="-597.7" font-family="Times,serif" font-size="14.00">category_id :bigint</text>
<text text-anchor="start" x="660" y="-581.2" font-family="Times,serif" font-size="14.00">article_id :bigint</text>
<text text-anchor="start" x="660" y="-564.7" font-family="Times,serif" font-size="14.00">created_at :timestamp(6) without time zone</text>
<text text-anchor="start" x="660" y="-548.2" font-family="Times,serif" font-size="14.00">updated_at :timestamp(6) without time zone</text>
</g>
<!-- Category&#45;&gt;CategoryArticle -->
<g id="edge11" class="edge">
<title>Category&#45;&gt;CategoryArticle</title>
<path fill="none" stroke="#235356" d="M754.28,-700.32C757.28,-689.19 760.45,-677.46 763.52,-666.1"/>
<polygon fill="#235356" stroke="#235356" points="754.33,-700.13 747.38,-708.61 752.94,-705.28 751.81,-709.46 751.81,-709.46 751.81,-709.46 752.94,-705.28 756.07,-710.95 754.33,-700.13"/>
<polygon fill="#235356" stroke="#235356" points="763.49,-666.2 770.44,-657.72 764.88,-661.05 766.01,-656.87 766.01,-656.87 766.01,-656.87 764.88,-661.05 761.75,-655.38 763.49,-666.2"/>
</g>
<!-- CategoryArticle&#45;&gt;Article -->
<g id="edge13" class="edge">
<title>CategoryArticle&#45;&gt;Article</title>
<path fill="none" stroke="#84ec0e" d="M719.68,-533.23C712.55,-525.82 705.16,-518.14 697.73,-510.42"/>
<polygon fill="#84ec0e" stroke="#84ec0e" points="719.54,-533.09 723.23,-543.42 723.24,-536.94 726.24,-540.06 726.24,-540.06 726.24,-540.06 723.24,-536.94 729.72,-537.18 719.54,-533.09"/>
<polygon fill="#84ec0e" stroke="#84ec0e" points="698.07,-510.77 694.38,-500.44 694.37,-506.92 691.37,-503.8 691.37,-503.8 691.37,-503.8 694.37,-506.92 687.89,-506.68 698.07,-510.77"/>
</g>
<!-- Like&#45;&gt;User -->
<g id="edge14" class="edge">
<title>Like&#45;&gt;User</title>
<path fill="none" stroke="#e9c71c" d="M406.5,-143.19C406.5,-137.52 406.5,-131.77 406.5,-126.1"/>
<polygon fill="#e9c71c" stroke="#e9c71c" points="406.5,-143.01 402,-153.01 406.5,-148.34 406.5,-152.67 406.5,-152.67 406.5,-152.67 406.5,-148.34 411,-153.01 406.5,-143.01"/>
<polygon fill="#e9c71c" stroke="#e9c71c" points="406.5,-126.31 411,-116.31 406.5,-120.97 406.5,-116.64 406.5,-116.64 406.5,-116.64 406.5,-120.97 402,-116.31 406.5,-126.31"/>
</g>
</g>
</svg>
