<?xml version="1.0" encoding="UTF-8" standalone="no"?>
<!DOCTYPE svg PUBLIC "-//W3C//DTD SVG 1.1//EN"
 "http://www.w3.org/Graphics/SVG/1.1/DTD/svg11.dtd">
<!-- Generated by graphviz version 9.0.0 (20230911.1827)
 -->
<!-- Title: models_diagram Pages: 1 -->
<svg width="1014pt" height="399pt"
 viewBox="0.00 0.00 1014.29 398.50" xmlns="http://www.w3.org/2000/svg" xmlns:xlink="http://www.w3.org/1999/xlink">
<g id="graph0" class="graph" transform="scale(1 1) rotate(0) translate(4 394.5)">
<title>models_diagram</title>
<polygon fill="none" stroke="none" points="-4,4 -4,-394.5 1010.29,-394.5 1010.29,4 -4,4"/>
<!-- _diagram_info -->
<g id="node1" class="node">
<title>_diagram_info</title>
<text text-anchor="start" x="8" y="-374.15" font-family="Times,serif" font-size="13.00">Models diagram</text>
<text text-anchor="start" x="8" y="-359.15" font-family="Times,serif" font-size="13.00">Date: Oct 19 2023 &#45; 17:23</text>
<text text-anchor="start" x="8" y="-344.15" font-family="Times,serif" font-size="13.00">Migration version: 20231008063216</text>
<text text-anchor="start" x="8" y="-329.15" font-family="Times,serif" font-size="13.00">Generated by RailRoady 1.6.0</text>
<text text-anchor="start" x="8" y="-314.15" font-family="Times,serif" font-size="13.00">http://railroady.prestonlee.com</text>
</g>
<!-- ApplicationRecord -->
<g id="node2" class="node">
<title>ApplicationRecord</title>
<ellipse fill="none" stroke="black" cx="312.62" cy="-349" rx="81.04" ry="18"/>
<text text-anchor="middle" x="312.62" y="-343.95" font-family="Times,serif" font-size="14.00">ApplicationRecord</text>
</g>
<!-- Article -->
<g id="node3" class="node">
<title>Article</title>
<ellipse fill="none" stroke="black" cx="371.62" cy="-179.5" rx="36.51" ry="18"/>
<text text-anchor="middle" x="371.62" y="-174.45" font-family="Times,serif" font-size="14.00">Article</text>
</g>
<!-- Bookmark -->
<g id="node4" class="node">
<title>Bookmark</title>
<ellipse fill="none" stroke="black" cx="159.62" cy="-91" rx="50.33" ry="18"/>
<text text-anchor="middle" x="159.62" y="-85.95" font-family="Times,serif" font-size="14.00">Bookmark</text>
</g>
<!-- Article&#45;&gt;Bookmark -->
<g id="edge4" class="edge">
<title>Article&#45;&gt;Bookmark</title>
<path fill="none" stroke="#cb521c" d="M333.03,-164.67C315.97,-158.42 295.71,-150.81 277.62,-143.5 251.33,-132.88 222.12,-120.13 199.33,-109.98"/>
<polygon fill="#cb521c" stroke="#cb521c" points="332.96,-164.65 340.81,-172.3 337.97,-166.47 342.04,-167.96 342.04,-167.96 342.04,-167.96 337.97,-166.47 343.89,-163.84 332.96,-164.65"/>
<polygon fill="#cb521c" stroke="#cb521c" points="199.43,-110.02 192.13,-101.83 194.56,-107.84 190.6,-106.08 190.6,-106.08 190.6,-106.08 194.56,-107.84 188.46,-110.05 199.43,-110.02"/>
</g>
<!-- Like -->
<g id="node7" class="node">
<title>Like</title>
<ellipse fill="none" stroke="black" cx="255.62" cy="-91" rx="27.81" ry="18"/>
<text text-anchor="middle" x="255.62" y="-85.95" font-family="Times,serif" font-size="14.00">Like</text>
</g>
<!-- Article&#45;&gt;Like -->
<g id="edge5" class="edge">
<title>Article&#45;&gt;Like</title>
<path fill="none" stroke="#bb53a5" d="M333.13,-164.2C321.1,-158.74 308.22,-151.8 297.62,-143.5 287.89,-135.88 278.94,-125.61 271.83,-116.25"/>
<polygon fill="#bb53a5" stroke="#bb53a5" points="333.04,-164.17 340.44,-172.26 337.94,-166.28 341.92,-168 341.92,-168 341.92,-168 337.94,-166.28 344.01,-164 333.04,-164.17"/>
<polygon fill="#bb53a5" stroke="#bb53a5" points="271.92,-116.37 269.68,-105.63 268.78,-112.05 266.24,-108.55 266.24,-108.55 266.24,-108.55 268.78,-112.05 262.4,-110.92 271.92,-116.37"/>
</g>
<!-- Person -->
<g id="node8" class="node">
<title>Person</title>
<ellipse fill="none" stroke="black" cx="413.62" cy="-91" rx="36" ry="18"/>
<text text-anchor="middle" x="413.62" y="-85.95" font-family="Times,serif" font-size="14.00">Person</text>
</g>
<!-- Article&#45;&gt;Person -->
<g id="edge3" class="edge">
<title>Article&#45;&gt;Person</title>
<path fill="none" stroke="#d15e5f" d="M384.2,-152.6C389.51,-141.66 395.68,-128.95 401,-118"/>
<polygon fill="#d15e5f" stroke="#d15e5f" points="384.24,-152.53 375.82,-159.56 381.91,-157.32 380.02,-161.22 380.02,-161.22 380.02,-161.22 381.91,-157.32 383.92,-163.49 384.24,-152.53"/>
<polygon fill="#d15e5f" stroke="#d15e5f" points="400.89,-118.22 409.31,-111.19 403.22,-113.42 405.12,-109.52 405.12,-109.52 405.12,-109.52 403.22,-113.42 401.21,-107.26 400.89,-118.22"/>
</g>
<!-- PersonArticle -->
<g id="node9" class="node">
<title>PersonArticle</title>
<ellipse fill="none" stroke="black" cx="378.62" cy="-18" rx="61.59" ry="18"/>
<text text-anchor="middle" x="378.62" y="-12.95" font-family="Times,serif" font-size="14.00">PersonArticle</text>
</g>
<!-- Article&#45;&gt;PersonArticle -->
<g id="edge2" class="edge">
<title>Article&#45;&gt;PersonArticle</title>
<path fill="none" stroke="#2defea" d="M369.04,-151.02C367.48,-129.69 366.2,-99.41 368.62,-73 369.42,-64.32 370.92,-54.96 372.53,-46.5"/>
<polygon fill="#2defea" stroke="#2defea" points="369.04,-150.98 365.36,-161.31 369.47,-156.3 369.82,-160.62 369.82,-160.62 369.82,-160.62 369.47,-156.3 374.33,-160.59 369.04,-150.98"/>
<polygon fill="#2defea" stroke="#2defea" points="372.52,-46.53 378.91,-37.62 373.58,-41.3 374.43,-37.05 374.43,-37.05 374.43,-37.05 373.58,-41.3 370.09,-35.84 372.52,-46.53"/>
</g>
<!-- User -->
<g id="node10" class="node">
<title>User</title>
<ellipse fill="none" stroke="black" cx="255.62" cy="-18" rx="28.32" ry="18"/>
<text text-anchor="middle" x="255.62" y="-12.95" font-family="Times,serif" font-size="14.00">User</text>
</g>
<!-- Article&#45;&gt;User -->
<g id="edge1" class="edge">
<title>Article&#45;&gt;User</title>
<path fill="none" stroke="#e3aa50" d="M353.63,-153.76C331.63,-123.51 294.67,-72.69 272.97,-42.85"/>
<polygon fill="#e3aa50" stroke="#e3aa50" points="353.57,-153.67 355.81,-164.41 356.71,-157.99 359.25,-161.49 359.25,-161.49 359.25,-161.49 356.71,-157.99 363.09,-159.11 353.57,-153.67"/>
<polygon fill="#e3aa50" stroke="#e3aa50" points="273.1,-43.03 270.86,-32.29 269.96,-38.71 267.42,-35.21 267.42,-35.21 267.42,-35.21 269.96,-38.71 263.58,-37.59 273.1,-43.03"/>
</g>
<!-- Impression -->
<g id="node13" class="node">
<title>Impression</title>
<ellipse fill="none" stroke="black" cx="519.62" cy="-91" rx="52.38" ry="18"/>
<text text-anchor="middle" x="519.62" y="-85.95" font-family="Times,serif" font-size="14.00">Impression</text>
</g>
<!-- Article&#45;&gt;Impression -->
<g id="edge6" class="edge">
<title>Article&#45;&gt;Impression</title>
<path fill="none" stroke="#d2784f" d="M403.11,-160.1C427.17,-146.03 460.31,-126.67 485.09,-112.18"/>
<polygon fill="#d2784f" stroke="#d2784f" points="403.35,-159.96 392.44,-161.12 398.74,-162.65 395,-164.84 395,-164.84 395,-164.84 398.74,-162.65 396.99,-168.89 403.35,-159.96"/>
<polygon fill="#d2784f" stroke="#d2784f" points="484.89,-112.3 495.79,-111.14 489.49,-109.61 493.23,-107.43 493.23,-107.43 493.23,-107.43 489.49,-109.61 491.25,-103.37 484.89,-112.3"/>
</g>
<!-- ActiveStorage::Attachment -->
<g id="node14" class="node">
<title>ActiveStorage::Attachment</title>
<ellipse fill="none" stroke="black" cx="702.62" cy="-91" rx="112.26" ry="18"/>
<text text-anchor="middle" x="702.62" y="-85.95" font-family="Times,serif" font-size="14.00">ActiveStorage::Attachment</text>
</g>
<!-- Article&#45;&gt;ActiveStorage::Attachment -->
<g id="edge7" class="edge">
<title>Article&#45;&gt;ActiveStorage::Attachment</title>
<path fill="none" stroke="#d07e32" d="M413.41,-167.58C469.36,-152.96 569.25,-126.85 635.73,-109.48"/>
<polygon fill="#d07e32" stroke="#d07e32" points="413.36,-167.59 402.55,-165.77 408.2,-168.94 404.01,-170.04 404.01,-170.04 404.01,-170.04 408.2,-168.94 404.82,-174.48 413.36,-167.59"/>
<polygon fill="#d07e32" stroke="#d07e32" points="635.7,-109.49 646.51,-111.32 640.86,-108.14 645.05,-107.05 645.05,-107.05 645.05,-107.05 640.86,-108.14 644.24,-102.61 635.7,-109.49"/>
<text text-anchor="middle" x="609" y="-130.2" font-family="Times,serif" font-size="14.00">file_attachment</text>
</g>
<!-- ActiveStorage::Blob -->
<g id="node15" class="node">
<title>ActiveStorage::Blob</title>
<ellipse fill="none" stroke="black" cx="919.62" cy="-91" rx="86.67" ry="18"/>
<text text-anchor="middle" x="919.62" y="-85.95" font-family="Times,serif" font-size="14.00">ActiveStorage::Blob</text>
</g>
<!-- Article&#45;&gt;ActiveStorage::Blob -->
<g id="edge8" class="edge">
<title>Article&#45;&gt;ActiveStorage::Blob</title>
<path fill="none" stroke="#4e7dc3" d="M417.5,-173.85C473.76,-167.91 571.97,-156.8 655.62,-143.5 722.35,-132.89 797.97,-117.83 851.13,-106.73"/>
<polygon fill="#4e7dc3" stroke="#4e7dc3" points="417.44,-173.85 407.02,-170.42 412.13,-174.41 407.82,-174.86 407.82,-174.86 407.82,-174.86 412.13,-174.41 407.96,-179.37 417.44,-173.85"/>
<polygon fill="#4e7dc3" stroke="#4e7dc3" points="851,-106.76 861.71,-109.11 856.22,-105.66 860.46,-104.77 860.46,-104.77 860.46,-104.77 856.22,-105.66 859.86,-100.3 851,-106.76"/>
<text text-anchor="middle" x="767" y="-130.2" font-family="Times,serif" font-size="14.00">file_blob</text>
</g>
<!-- Bookmark&#45;&gt;User -->
<g id="edge9" class="edge">
<title>Bookmark&#45;&gt;User</title>
<path fill="none" stroke="#8bd431" d="M188.89,-68.35C201.8,-58.81 216.85,-47.68 229.38,-38.41"/>
<polygon fill="#8bd431" stroke="#8bd431" points="189.24,-68.1 178.52,-70.43 184.95,-71.27 181.47,-73.85 181.47,-73.85 181.47,-73.85 184.95,-71.27 183.88,-77.66 189.24,-68.1"/>
<polygon fill="#8bd431" stroke="#8bd431" points="229.29,-38.47 240.01,-36.15 233.58,-35.3 237.07,-32.73 237.07,-32.73 237.07,-32.73 233.58,-35.3 234.66,-28.91 229.29,-38.47"/>
</g>
<!-- Category -->
<g id="node5" class="node">
<title>Category</title>
<ellipse fill="none" stroke="black" cx="456.62" cy="-349" rx="44.7" ry="18"/>
<text text-anchor="middle" x="456.62" y="-343.95" font-family="Times,serif" font-size="14.00">Category</text>
</g>
<!-- CategoryArticle -->
<g id="node6" class="node">
<title>CategoryArticle</title>
<ellipse fill="none" stroke="black" cx="371.62" cy="-252.5" rx="70.29" ry="18"/>
<text text-anchor="middle" x="371.62" y="-247.45" font-family="Times,serif" font-size="14.00">CategoryArticle</text>
</g>
<!-- Category&#45;&gt;CategoryArticle -->
<g id="edge10" class="edge">
<title>Category&#45;&gt;CategoryArticle</title>
<path fill="none" stroke="#8f904c" d="M434.85,-323.8C422.17,-309.69 406.22,-291.96 393.52,-277.84"/>
<polygon fill="#8f904c" stroke="#8f904c" points="434.91,-323.86 438.25,-334.3 438.48,-327.82 441.37,-331.04 441.37,-331.04 441.37,-331.04 438.48,-327.82 444.94,-328.28 434.91,-323.86"/>
<polygon fill="#8f904c" stroke="#8f904c" points="393.74,-278.09 390.4,-267.65 390.18,-274.13 387.28,-270.91 387.28,-270.91 387.28,-270.91 390.18,-274.13 383.71,-273.67 393.74,-278.09"/>
</g>
<!-- Aricle -->
<g id="node16" class="node">
<title>Aricle</title>
<ellipse fill="none" stroke="black" cx="493.62" cy="-252.5" rx="33.95" ry="18"/>
<text text-anchor="middle" x="493.62" y="-247.45" font-family="Times,serif" font-size="14.00">Aricle</text>
</g>
<!-- Category&#45;&gt;Aricle -->
<g id="edge11" class="edge">
<title>Category&#45;&gt;Aricle</title>
<path fill="none" stroke="#a24f57" d="M466.97,-321.57C472.07,-308.56 478.19,-292.92 483.28,-279.91"/>
<polygon fill="#a24f57" stroke="#a24f57" points="467.01,-321.48 459.17,-329.15 465.06,-326.45 463.48,-330.48 463.48,-330.48 463.48,-330.48 465.06,-326.45 467.55,-332.43 467.01,-321.48"/>
<polygon fill="#a24f57" stroke="#a24f57" points="483.17,-280.19 491.01,-272.52 485.12,-275.22 486.7,-271.19 486.7,-271.19 486.7,-271.19 485.12,-275.22 482.63,-269.24 483.17,-280.19"/>
</g>
<!-- CategoryArticle&#45;&gt;Article -->
<g id="edge12" class="edge">
<title>CategoryArticle&#45;&gt;Article</title>
<path fill="none" stroke="#1a50db" d="M371.62,-223.96C371.62,-218.67 371.62,-213.14 371.62,-207.85"/>
<polygon fill="#1a50db" stroke="#1a50db" points="371.63,-223.98 367.13,-233.98 371.63,-229.31 371.63,-233.64 371.63,-233.64 371.63,-233.64 371.63,-229.31 376.13,-233.98 371.63,-223.98"/>
<polygon fill="#1a50db" stroke="#1a50db" points="371.63,-207.86 376.13,-197.86 371.63,-202.53 371.63,-198.2 371.63,-198.2 371.63,-198.2 371.63,-202.53 367.13,-197.86 371.63,-207.86"/>
</g>
<!-- Like&#45;&gt;User -->
<g id="edge13" class="edge">
<title>Like&#45;&gt;User</title>
<path fill="none" stroke="#c0a606" d="M255.62,-62.46C255.62,-57.17 255.62,-51.64 255.62,-46.35"/>
<polygon fill="#c0a606" stroke="#c0a606" points="255.63,-62.48 251.13,-72.48 255.63,-67.81 255.63,-72.14 255.63,-72.14 255.63,-72.14 255.63,-67.81 260.13,-72.48 255.63,-62.48"/>
<polygon fill="#c0a606" stroke="#c0a606" points="255.63,-46.36 260.13,-36.36 255.63,-41.03 255.63,-36.7 255.63,-36.7 255.63,-36.7 255.63,-41.03 251.13,-36.36 255.63,-46.36"/>
</g>
<!-- Person&#45;&gt;PersonArticle -->
<g id="edge14" class="edge">
<title>Person&#45;&gt;PersonArticle</title>
<path fill="none" stroke="#7b8deb" d="M400.8,-63.98C397.8,-57.9 394.61,-51.43 391.61,-45.34"/>
<polygon fill="#7b8deb" stroke="#7b8deb" points="400.76,-63.9 401.15,-74.86 403.12,-68.69 405.03,-72.57 405.03,-72.57 405.03,-72.57 403.12,-68.69 409.22,-70.88 400.76,-63.9"/>
<polygon fill="#7b8deb" stroke="#7b8deb" points="391.67,-45.47 391.29,-34.51 389.31,-40.68 387.4,-36.8 387.4,-36.8 387.4,-36.8 389.31,-40.68 383.21,-38.49 391.67,-45.47"/>
</g>
<!-- VirtualArticle -->
<g id="node11" class="node">
<title>VirtualArticle</title>
<polygon fill="none" stroke="black" points="611.5,-367 519.75,-367 519.75,-331 611.5,-331 611.5,-367"/>
<text text-anchor="middle" x="565.62" y="-343.95" font-family="Times,serif" font-size="14.00">VirtualArticle</text>
</g>
<!-- VirtualPerson -->
<g id="node12" class="node">
<title>VirtualPerson</title>
<polygon fill="none" stroke="black" points="720.12,-367 629.12,-367 629.12,-331 720.12,-331 720.12,-367"/>
<text text-anchor="middle" x="674.62" y="-343.95" font-family="Times,serif" font-size="14.00">VirtualPerson</text>
</g>
</g>
</svg>
