<?xml version="1.0" encoding="UTF-8" standalone="no"?>
<!DOCTYPE svg PUBLIC "-//W3C//DTD SVG 1.1//EN"
 "http://www.w3.org/Graphics/SVG/1.1/DTD/svg11.dtd">
<!-- Generated by graphviz version 9.0.0 (20230911.1827)
 -->
<!-- Title: models_diagram Pages: 1 -->
<svg width="934pt" height="399pt"
 viewBox="0.00 0.00 934.29 398.50" xmlns="http://www.w3.org/2000/svg" xmlns:xlink="http://www.w3.org/1999/xlink">
<g id="graph0" class="graph" transform="scale(1 1) rotate(0) translate(4 394.5)">
<title>models_diagram</title>
<polygon fill="none" stroke="none" points="-4,4 -4,-394.5 930.29,-394.5 930.29,4 -4,4"/>
<!-- _diagram_info -->
<g id="node1" class="node">
<title>_diagram_info</title>
<text text-anchor="start" x="8" y="-374.15" font-family="Times,serif" font-size="13.00">Models diagram</text>
<text text-anchor="start" x="8" y="-359.15" font-family="Times,serif" font-size="13.00">Date: Mar 10 2024 &#45; 06:21</text>
<text text-anchor="start" x="8" y="-344.15" font-family="Times,serif" font-size="13.00">Migration version: 20240309204206</text>
<text text-anchor="start" x="8" y="-329.15" font-family="Times,serif" font-size="13.00">Generated by RailRoady 1.6.0</text>
<text text-anchor="start" x="8" y="-314.15" font-family="Times,serif" font-size="13.00">http://railroady.prestonlee.com</text>
</g>
<!-- Ability -->
<g id="node2" class="node">
<title>Ability</title>
<polygon fill="none" stroke="black" points="285.75,-367 231.5,-367 231.5,-331 285.75,-331 285.75,-367"/>
<text text-anchor="middle" x="258.62" y="-343.95" font-family="Times,serif" font-size="14.00">Ability</text>
</g>
<!-- Applicant -->
<g id="node3" class="node">
<title>Applicant</title>
<ellipse fill="none" stroke="black" cx="350.62" cy="-349" rx="47.26" ry="18"/>
<text text-anchor="middle" x="350.62" y="-343.95" font-family="Times,serif" font-size="14.00">Applicant</text>
</g>
<!-- ApplicantArticle -->
<g id="node4" class="node">
<title>ApplicantArticle</title>
<ellipse fill="none" stroke="black" cx="279.62" cy="-252.5" rx="72.85" ry="18"/>
<text text-anchor="middle" x="279.62" y="-247.45" font-family="Times,serif" font-size="14.00">ApplicantArticle</text>
</g>
<!-- Applicant&#45;&gt;ApplicantArticle -->
<g id="edge1" class="edge">
<title>Applicant&#45;&gt;ApplicantArticle</title>
<path fill="none" stroke="#fa187c" d="M332.1,-323.34C321.74,-309.55 308.85,-292.4 298.44,-278.55"/>
<polygon fill="#fa187c" stroke="#fa187c" points="332.05,-323.28 334.46,-333.98 335.25,-327.54 337.86,-331 337.86,-331 337.86,-331 335.25,-327.54 341.65,-328.57 332.05,-323.28"/>
<polygon fill="#fa187c" stroke="#fa187c" points="298.54,-278.67 296.13,-267.97 295.33,-274.41 292.73,-270.94 292.73,-270.94 292.73,-270.94 295.33,-274.41 288.93,-273.38 298.54,-278.67"/>
</g>
<!-- Article -->
<g id="node6" class="node">
<title>Article</title>
<ellipse fill="none" stroke="black" cx="399.62" cy="-179.5" rx="36.51" ry="18"/>
<text text-anchor="middle" x="399.62" y="-174.45" font-family="Times,serif" font-size="14.00">Article</text>
</g>
<!-- Applicant&#45;&gt;Article -->
<g id="edge2" class="edge">
<title>Applicant&#45;&gt;Article</title>
<path fill="none" stroke="#333c9e" d="M358.6,-320.72C367.78,-289.37 382.73,-238.26 391.82,-207.17"/>
<polygon fill="#333c9e" stroke="#333c9e" points="358.59,-320.79 351.46,-329.12 357.09,-325.91 355.87,-330.06 355.87,-330.06 355.87,-330.06 357.09,-325.91 360.1,-331.65 358.59,-320.79"/>
<polygon fill="#333c9e" stroke="#333c9e" points="391.76,-207.37 398.89,-199.04 393.26,-202.25 394.48,-198.09 394.48,-198.09 394.48,-198.09 393.26,-202.25 390.25,-196.51 391.76,-207.37"/>
</g>
<!-- ApplicantArticle&#45;&gt;Article -->
<g id="edge3" class="edge">
<title>ApplicantArticle&#45;&gt;Article</title>
<path fill="none" stroke="#7a0b5e" d="M315.66,-230.18C332.45,-220.25 352.23,-208.54 368.38,-198.99"/>
<polygon fill="#7a0b5e" stroke="#7a0b5e" points="315.75,-230.13 304.85,-231.35 311.16,-232.84 307.43,-235.05 307.43,-235.05 307.43,-235.05 311.16,-232.84 309.43,-239.09 315.75,-230.13"/>
<polygon fill="#7a0b5e" stroke="#7a0b5e" points="368.04,-199.19 378.94,-197.97 372.63,-196.47 376.36,-194.27 376.36,-194.27 376.36,-194.27 372.63,-196.47 374.35,-190.22 368.04,-199.19"/>
</g>
<!-- ApplicationRecord -->
<g id="node5" class="node">
<title>ApplicationRecord</title>
<ellipse fill="none" stroke="black" cx="617.62" cy="-349" rx="81.04" ry="18"/>
<text text-anchor="middle" x="617.62" y="-343.95" font-family="Times,serif" font-size="14.00">ApplicationRecord</text>
</g>
<!-- Bookmark -->
<g id="node7" class="node">
<title>Bookmark</title>
<ellipse fill="none" stroke="black" cx="207.62" cy="-91" rx="50.33" ry="18"/>
<text text-anchor="middle" x="207.62" y="-85.95" font-family="Times,serif" font-size="14.00">Bookmark</text>
</g>
<!-- Article&#45;&gt;Bookmark -->
<g id="edge5" class="edge">
<title>Article&#45;&gt;Bookmark</title>
<path fill="none" stroke="#ae3ae8" d="M364.11,-162.5C331,-147.59 281.7,-125.37 247.31,-109.88"/>
<polygon fill="#ae3ae8" stroke="#ae3ae8" points="363.91,-162.41 371.18,-170.62 368.77,-164.6 372.72,-166.38 372.72,-166.38 372.72,-166.38 368.77,-164.6 374.87,-162.41 363.91,-162.41"/>
<polygon fill="#ae3ae8" stroke="#ae3ae8" points="247.45,-109.94 240.18,-101.73 242.59,-107.75 238.64,-105.97 238.64,-105.97 238.64,-105.97 242.59,-107.75 236.48,-109.94 247.45,-109.94"/>
</g>
<!-- Like -->
<g id="node10" class="node">
<title>Like</title>
<ellipse fill="none" stroke="black" cx="303.62" cy="-91" rx="27.81" ry="18"/>
<text text-anchor="middle" x="303.62" y="-85.95" font-family="Times,serif" font-size="14.00">Like</text>
</g>
<!-- Article&#45;&gt;Like -->
<g id="edge6" class="edge">
<title>Article&#45;&gt;Like</title>
<path fill="none" stroke="#59ead0" d="M367.32,-159.9C359.87,-154.99 352.2,-149.4 345.62,-143.5 336.64,-135.45 327.99,-125.38 320.9,-116.29"/>
<polygon fill="#59ead0" stroke="#59ead0" points="367.17,-159.81 373.2,-168.96 371.67,-162.66 375.33,-164.98 375.33,-164.98 375.33,-164.98 371.67,-162.66 378.02,-161.36 367.17,-159.81"/>
<polygon fill="#59ead0" stroke="#59ead0" points="320.84,-116.21 318.41,-105.52 317.63,-111.95 315.02,-108.5 315.02,-108.5 315.02,-108.5 317.63,-111.95 311.22,-110.94 320.84,-116.21"/>
</g>
<!-- User -->
<g id="node11" class="node">
<title>User</title>
<ellipse fill="none" stroke="black" cx="303.62" cy="-18" rx="28.32" ry="18"/>
<text text-anchor="middle" x="303.62" y="-12.95" font-family="Times,serif" font-size="14.00">User</text>
</g>
<!-- Article&#45;&gt;User -->
<g id="edge4" class="edge">
<title>Article&#45;&gt;User</title>
<path fill="none" stroke="#0b585f" d="M386,-152.61C374.43,-131.02 357.13,-99.6 340.62,-73 334.45,-63.05 327.25,-52.36 320.85,-43.13"/>
<polygon fill="#0b585f" stroke="#0b585f" points="386.03,-152.66 386.75,-163.6 388.53,-157.37 390.57,-161.19 390.57,-161.19 390.57,-161.19 388.53,-157.37 394.7,-159.37 386.03,-152.66"/>
<polygon fill="#0b585f" stroke="#0b585f" points="320.95,-43.28 318.9,-32.51 317.89,-38.91 315.41,-35.36 315.41,-35.36 315.41,-35.36 317.89,-38.91 311.53,-37.67 320.95,-43.28"/>
</g>
<!-- Impression -->
<g id="node12" class="node">
<title>Impression</title>
<ellipse fill="none" stroke="black" cx="439.62" cy="-91" rx="52.38" ry="18"/>
<text text-anchor="middle" x="439.62" y="-85.95" font-family="Times,serif" font-size="14.00">Impression</text>
</g>
<!-- Article&#45;&gt;Impression -->
<g id="edge7" class="edge">
<title>Article&#45;&gt;Impression</title>
<path fill="none" stroke="#cdcbf3" d="M411.57,-152.66C416.54,-141.91 422.31,-129.44 427.32,-118.61"/>
<polygon fill="#cdcbf3" stroke="#cdcbf3" points="411.68,-152.44 403.39,-159.63 409.44,-157.28 407.62,-161.21 407.62,-161.21 407.62,-161.21 409.44,-157.28 411.56,-163.41 411.68,-152.44"/>
<polygon fill="#cdcbf3" stroke="#cdcbf3" points="427.32,-118.6 435.61,-111.41 429.56,-113.76 431.38,-109.83 431.38,-109.83 431.38,-109.83 429.56,-113.76 427.44,-107.63 427.32,-118.6"/>
</g>
<!-- ActiveStorage::Attachment -->
<g id="node13" class="node">
<title>ActiveStorage::Attachment</title>
<ellipse fill="none" stroke="black" cx="622.62" cy="-91" rx="112.26" ry="18"/>
<text text-anchor="middle" x="622.62" y="-85.95" font-family="Times,serif" font-size="14.00">ActiveStorage::Attachment</text>
</g>
<!-- Article&#45;&gt;ActiveStorage::Attachment -->
<g id="edge8" class="edge">
<title>Article&#45;&gt;ActiveStorage::Attachment</title>
<path fill="none" stroke="#c17c83" d="M437.03,-163.99C473.93,-149.68 530.61,-127.69 571.63,-111.78"/>
<polygon fill="#c17c83" stroke="#c17c83" points="437.05,-163.98 426.1,-163.4 432.08,-165.91 428.04,-167.48 428.04,-167.48 428.04,-167.48 432.08,-165.91 429.36,-171.79 437.05,-163.98"/>
<polygon fill="#c17c83" stroke="#c17c83" points="571.54,-111.82 582.49,-112.39 576.51,-109.89 580.55,-108.32 580.55,-108.32 580.55,-108.32 576.51,-109.89 579.24,-104 571.54,-111.82"/>
<text text-anchor="middle" x="573" y="-130.2" font-family="Times,serif" font-size="14.00">file_attachment</text>
</g>
<!-- ActiveStorage::Blob -->
<g id="node14" class="node">
<title>ActiveStorage::Blob</title>
<ellipse fill="none" stroke="black" cx="839.62" cy="-91" rx="86.67" ry="18"/>
<text text-anchor="middle" x="839.62" y="-85.95" font-family="Times,serif" font-size="14.00">ActiveStorage::Blob</text>
</g>
<!-- Article&#45;&gt;ActiveStorage::Blob -->
<g id="edge9" class="edge">
<title>Article&#45;&gt;ActiveStorage::Blob</title>
<path fill="none" stroke="#daf98c" d="M444.65,-172.31C489.23,-165.95 559.37,-155.33 619.62,-143.5 672.83,-133.05 732.73,-118.87 776.57,-108.04"/>
<polygon fill="#daf98c" stroke="#daf98c" points="444.67,-172.31 434.14,-169.25 439.39,-173.05 435.1,-173.66 435.1,-173.66 435.1,-173.66 439.39,-173.05 435.4,-178.16 444.67,-172.31"/>
<polygon fill="#daf98c" stroke="#daf98c" points="776.48,-108.06 787.27,-110.02 781.66,-106.77 785.86,-105.73 785.86,-105.73 785.86,-105.73 781.66,-106.77 785.1,-101.28 776.48,-108.06"/>
<text text-anchor="middle" x="716" y="-130.2" font-family="Times,serif" font-size="14.00">file_blob</text>
</g>
<!-- Bookmark&#45;&gt;User -->
<g id="edge10" class="edge">
<title>Bookmark&#45;&gt;User</title>
<path fill="none" stroke="#fb7785" d="M236.89,-68.35C249.8,-58.81 264.85,-47.68 277.38,-38.41"/>
<polygon fill="#fb7785" stroke="#fb7785" points="237.24,-68.1 226.52,-70.43 232.95,-71.27 229.47,-73.85 229.47,-73.85 229.47,-73.85 232.95,-71.27 231.88,-77.66 237.24,-68.1"/>
<polygon fill="#fb7785" stroke="#fb7785" points="277.29,-38.47 288.01,-36.15 281.58,-35.3 285.07,-32.73 285.07,-32.73 285.07,-32.73 281.58,-35.3 282.66,-28.91 277.29,-38.47"/>
</g>
<!-- Category -->
<g id="node8" class="node">
<title>Category</title>
<ellipse fill="none" stroke="black" cx="473.62" cy="-349" rx="44.7" ry="18"/>
<text text-anchor="middle" x="473.62" y="-343.95" font-family="Times,serif" font-size="14.00">Category</text>
</g>
<!-- Category&#45;&gt;Article -->
<g id="edge12" class="edge">
<title>Category&#45;&gt;Article</title>
<path fill="none" stroke="#40c7a0" d="M461.12,-321.68C454.08,-306.73 445.22,-287.63 437.62,-270.5 428.22,-249.27 418,-225.01 410.54,-207.03"/>
<polygon fill="#40c7a0" stroke="#40c7a0" points="461.03,-321.5 461.23,-332.46 463.31,-326.32 465.16,-330.24 465.16,-330.24 465.16,-330.24 463.31,-326.32 469.37,-328.62 461.03,-321.5"/>
<polygon fill="#40c7a0" stroke="#40c7a0" points="410.54,-207.05 410.88,-196.08 408.5,-202.12 406.85,-198.11 406.85,-198.11 406.85,-198.11 408.5,-202.12 402.56,-199.53 410.54,-207.05"/>
</g>
<!-- CategoryArticle -->
<g id="node9" class="node">
<title>CategoryArticle</title>
<ellipse fill="none" stroke="black" cx="516.62" cy="-252.5" rx="70.29" ry="18"/>
<text text-anchor="middle" x="516.62" y="-247.45" font-family="Times,serif" font-size="14.00">CategoryArticle</text>
</g>
<!-- Category&#45;&gt;CategoryArticle -->
<g id="edge11" class="edge">
<title>Category&#45;&gt;CategoryArticle</title>
<path fill="none" stroke="#15d5eb" d="M485.44,-322.03C491.39,-308.96 498.58,-293.15 504.56,-280.01"/>
<polygon fill="#15d5eb" stroke="#15d5eb" points="485.59,-321.7 477.36,-328.94 483.38,-326.55 481.59,-330.5 481.59,-330.5 481.59,-330.5 483.38,-326.55 485.55,-332.66 485.59,-321.7"/>
<polygon fill="#15d5eb" stroke="#15d5eb" points="504.58,-279.97 512.82,-272.74 506.79,-275.12 508.58,-271.18 508.58,-271.18 508.58,-271.18 506.79,-275.12 504.62,-269.01 504.58,-279.97"/>
</g>
<!-- CategoryArticle&#45;&gt;Article -->
<g id="edge13" class="edge">
<title>CategoryArticle&#45;&gt;Article</title>
<path fill="none" stroke="#697c6d" d="M481.29,-230.06C465.23,-220.31 446.38,-208.88 430.85,-199.45"/>
<polygon fill="#697c6d" stroke="#697c6d" points="481.24,-230.03 487.46,-239.06 485.8,-232.8 489.5,-235.04 489.5,-235.04 489.5,-235.04 485.8,-232.8 492.12,-231.37 481.24,-230.03"/>
<polygon fill="#697c6d" stroke="#697c6d" points="430.97,-199.52 424.75,-190.48 426.41,-196.75 422.7,-194.51 422.7,-194.51 422.7,-194.51 426.41,-196.75 420.08,-198.18 430.97,-199.52"/>
</g>
<!-- Like&#45;&gt;User -->
<g id="edge14" class="edge">
<title>Like&#45;&gt;User</title>
<path fill="none" stroke="#ae55ef" d="M303.62,-62.46C303.62,-57.17 303.62,-51.64 303.62,-46.35"/>
<polygon fill="#ae55ef" stroke="#ae55ef" points="303.63,-62.48 299.13,-72.48 303.63,-67.81 303.63,-72.14 303.63,-72.14 303.63,-72.14 303.63,-67.81 308.13,-72.48 303.63,-62.48"/>
<polygon fill="#ae55ef" stroke="#ae55ef" points="303.63,-46.36 308.13,-36.36 303.63,-41.03 303.63,-36.7 303.63,-36.7 303.63,-36.7 303.63,-41.03 299.13,-36.36 303.63,-46.36"/>
</g>
</g>
</svg>
