<?xml version="1.0" encoding="UTF-8" standalone="no"?>
<!DOCTYPE svg PUBLIC "-//W3C//DTD SVG 1.1//EN"
 "http://www.w3.org/Graphics/SVG/1.1/DTD/svg11.dtd">
<!-- Generated by graphviz version 9.0.0 (20230911.1827)
 -->
<!-- Title: models_diagram Pages: 1 -->
<svg width="960pt" height="399pt"
 viewBox="0.00 0.00 960.29 398.50" xmlns="http://www.w3.org/2000/svg" xmlns:xlink="http://www.w3.org/1999/xlink">
<g id="graph0" class="graph" transform="scale(1 1) rotate(0) translate(4 394.5)">
<title>models_diagram</title>
<polygon fill="none" stroke="none" points="-4,4 -4,-394.5 956.29,-394.5 956.29,4 -4,4"/>
<!-- _diagram_info -->
<g id="node1" class="node">
<title>_diagram_info</title>
<text text-anchor="start" x="8" y="-374.15" font-family="Times,serif" font-size="13.00">Models diagram</text>
<text text-anchor="start" x="8" y="-359.15" font-family="Times,serif" font-size="13.00">Date: Mar 16 2024 &#45; 12:56</text>
<text text-anchor="start" x="8" y="-344.15" font-family="Times,serif" font-size="13.00">Migration version: 20240315232605</text>
<text text-anchor="start" x="8" y="-329.15" font-family="Times,serif" font-size="13.00">Generated by RailRoady 1.6.0</text>
<text text-anchor="start" x="8" y="-314.15" font-family="Times,serif" font-size="13.00">http://railroady.prestonlee.com</text>
</g>
<!-- Ability -->
<g id="node2" class="node">
<title>Ability</title>
<polygon fill="none" stroke="black" points="285.75,-367 231.5,-367 231.5,-331 285.75,-331 285.75,-367"/>
<text text-anchor="middle" x="258.62" y="-343.95" font-family="Times,serif" font-size="14.00">Ability</text>
</g>
<!-- Applicant -->
<g id="node3" class="node">
<title>Applicant</title>
<ellipse fill="none" stroke="black" cx="350.62" cy="-349" rx="47.26" ry="18"/>
<text text-anchor="middle" x="350.62" y="-343.95" font-family="Times,serif" font-size="14.00">Applicant</text>
</g>
<!-- ApplicantArticle -->
<g id="node4" class="node">
<title>ApplicantArticle</title>
<ellipse fill="none" stroke="black" cx="281.62" cy="-252.5" rx="72.85" ry="18"/>
<text text-anchor="middle" x="281.62" y="-247.45" font-family="Times,serif" font-size="14.00">ApplicantArticle</text>
</g>
<!-- Applicant&#45;&gt;ApplicantArticle -->
<g id="edge1" class="edge">
<title>Applicant&#45;&gt;ApplicantArticle</title>
<path fill="none" stroke="#6c27d4" d="M332.62,-323.34C322.55,-309.55 310.03,-292.4 299.91,-278.55"/>
<polygon fill="#6c27d4" stroke="#6c27d4" points="332.51,-323.19 334.77,-333.92 335.66,-327.5 338.21,-331 338.21,-331 338.21,-331 335.66,-327.5 342.04,-328.62 332.51,-323.19"/>
<polygon fill="#6c27d4" stroke="#6c27d4" points="300.07,-278.75 297.8,-268.02 296.92,-274.45 294.37,-270.95 294.37,-270.95 294.37,-270.95 296.92,-274.45 290.53,-273.33 300.07,-278.75"/>
</g>
<!-- Article -->
<g id="node6" class="node">
<title>Article</title>
<ellipse fill="none" stroke="black" cx="331.62" cy="-179.5" rx="36.51" ry="18"/>
<text text-anchor="middle" x="331.62" y="-174.45" font-family="Times,serif" font-size="14.00">Article</text>
</g>
<!-- Applicant&#45;&gt;Article -->
<g id="edge2" class="edge">
<title>Applicant&#45;&gt;Article</title>
<path fill="none" stroke="#fb5f78" d="M359.4,-320.91C365.6,-297.63 371.53,-263.36 363.62,-234.5 360.8,-224.2 355.45,-213.88 349.93,-205.06"/>
<polygon fill="#fb5f78" stroke="#fb5f78" points="359.42,-320.83 352.34,-329.21 357.95,-325.96 356.76,-330.13 356.76,-330.13 356.76,-330.13 357.95,-325.96 361,-331.69 359.42,-320.83"/>
<polygon fill="#fb5f78" stroke="#fb5f78" points="349.93,-205.07 348.13,-194.25 346.97,-200.63 344.57,-197.03 344.57,-197.03 344.57,-197.03 346.97,-200.63 340.64,-199.25 349.93,-205.07"/>
</g>
<!-- ApplicantArticle&#45;&gt;Article -->
<g id="edge3" class="edge">
<title>ApplicantArticle&#45;&gt;Article</title>
<path fill="none" stroke="#6195c0" d="M299.67,-225.87C304.43,-219.12 309.55,-211.84 314.27,-205.14"/>
<polygon fill="#6195c0" stroke="#6195c0" points="299.68,-225.86 290.24,-231.45 296.61,-230.22 294.11,-233.77 294.11,-233.77 294.11,-233.77 296.61,-230.22 297.6,-236.63 299.68,-225.86"/>
<polygon fill="#6195c0" stroke="#6195c0" points="314.03,-205.49 323.46,-199.9 317.1,-201.13 319.59,-197.59 319.59,-197.59 319.59,-197.59 317.1,-201.13 316.11,-194.72 314.03,-205.49"/>
</g>
<!-- ApplicationRecord -->
<g id="node5" class="node">
<title>ApplicationRecord</title>
<ellipse fill="none" stroke="black" cx="496.62" cy="-349" rx="81.04" ry="18"/>
<text text-anchor="middle" x="496.62" y="-343.95" font-family="Times,serif" font-size="14.00">ApplicationRecord</text>
</g>
<!-- Bookmark -->
<g id="node7" class="node">
<title>Bookmark</title>
<ellipse fill="none" stroke="black" cx="271.62" cy="-91" rx="50.33" ry="18"/>
<text text-anchor="middle" x="271.62" y="-85.95" font-family="Times,serif" font-size="14.00">Bookmark</text>
</g>
<!-- Article&#45;&gt;Bookmark -->
<g id="edge5" class="edge">
<title>Article&#45;&gt;Bookmark</title>
<path fill="none" stroke="#32f2aa" d="M314.47,-153.77C306.51,-142.29 297.05,-128.66 289.05,-117.13"/>
<polygon fill="#32f2aa" stroke="#32f2aa" points="314.45,-153.74 316.45,-164.52 317.49,-158.12 319.96,-161.68 319.96,-161.68 319.96,-161.68 317.49,-158.12 323.85,-159.39 314.45,-153.74"/>
<polygon fill="#32f2aa" stroke="#32f2aa" points="289.16,-117.28 287.16,-106.5 286.12,-112.9 283.65,-109.34 283.65,-109.34 283.65,-109.34 286.12,-112.9 279.76,-111.63 289.16,-117.28"/>
</g>
<!-- Category -->
<g id="node8" class="node">
<title>Category</title>
<ellipse fill="none" stroke="black" cx="82.62" cy="-91" rx="44.7" ry="18"/>
<text text-anchor="middle" x="82.62" y="-85.95" font-family="Times,serif" font-size="14.00">Category</text>
</g>
<!-- Article&#45;&gt;Category -->
<g id="edge8" class="edge">
<title>Article&#45;&gt;Category</title>
<path fill="none" stroke="#8bf8b3" d="M284.98,-176.78C245.15,-173.75 187.23,-165.53 141.62,-143.5 127.44,-136.65 114.01,-125.45 103.55,-115.24"/>
<polygon fill="#8bf8b3" stroke="#8bf8b3" points="284.89,-176.78 294.56,-181.95 290.21,-177.14 294.53,-177.43 294.53,-177.43 294.53,-177.43 290.21,-177.14 295.17,-172.97 284.89,-176.78"/>
<polygon fill="#8bf8b3" stroke="#8bf8b3" points="103.74,-115.43 99.94,-105.14 100,-111.63 96.97,-108.54 96.97,-108.54 96.97,-108.54 100,-111.63 93.52,-111.45 103.74,-115.43"/>
</g>
<!-- CategoryArticle -->
<g id="node9" class="node">
<title>CategoryArticle</title>
<ellipse fill="none" stroke="black" cx="142.62" cy="-18" rx="70.29" ry="18"/>
<text text-anchor="middle" x="142.62" y="-12.95" font-family="Times,serif" font-size="14.00">CategoryArticle</text>
</g>
<!-- Article&#45;&gt;CategoryArticle -->
<g id="edge7" class="edge">
<title>Article&#45;&gt;CategoryArticle</title>
<path fill="none" stroke="#a37deb" d="M286.81,-171.14C266.01,-166.02 241.91,-157.51 223.62,-143.5 189.93,-117.69 166.08,-73.6 153.34,-45.41"/>
<polygon fill="#a37deb" stroke="#a37deb" points="286.63,-171.1 295.39,-177.7 291.83,-172.28 296.06,-173.24 296.06,-173.24 296.06,-173.24 291.83,-172.28 297.38,-168.92 286.63,-171.1"/>
<polygon fill="#a37deb" stroke="#a37deb" points="153.44,-45.63 153.56,-34.66 151.3,-40.74 149.57,-36.77 149.57,-36.77 149.57,-36.77 151.3,-40.74 145.31,-38.26 153.44,-45.63"/>
</g>
<!-- Like -->
<g id="node11" class="node">
<title>Like</title>
<ellipse fill="none" stroke="black" cx="367.62" cy="-91" rx="27.81" ry="18"/>
<text text-anchor="middle" x="367.62" y="-85.95" font-family="Times,serif" font-size="14.00">Like</text>
</g>
<!-- Article&#45;&gt;Like -->
<g id="edge6" class="edge">
<title>Article&#45;&gt;Like</title>
<path fill="none" stroke="#bf50ac" d="M342.75,-151.77C347.18,-141.14 352.26,-128.93 356.67,-118.33"/>
<polygon fill="#bf50ac" stroke="#bf50ac" points="342.71,-151.87 334.71,-159.37 340.66,-156.79 338.99,-160.79 338.99,-160.79 338.99,-160.79 340.66,-156.79 343.02,-162.83 342.71,-151.87"/>
<polygon fill="#bf50ac" stroke="#bf50ac" points="356.68,-118.3 364.68,-110.8 358.73,-113.38 360.39,-109.38 360.39,-109.38 360.39,-109.38 358.73,-113.38 356.37,-107.34 356.68,-118.3"/>
</g>
<!-- User -->
<g id="node12" class="node">
<title>User</title>
<ellipse fill="none" stroke="black" cx="271.62" cy="-18" rx="28.32" ry="18"/>
<text text-anchor="middle" x="271.62" y="-12.95" font-family="Times,serif" font-size="14.00">User</text>
</g>
<!-- Article&#45;&gt;User -->
<g id="edge4" class="edge">
<title>Article&#45;&gt;User</title>
<path fill="none" stroke="#159795" d="M290.38,-166.38C263.03,-155.95 229.23,-137.92 212.62,-109 204.66,-95.12 206.18,-87.64 212.62,-73 218.97,-58.58 231.29,-46.34 243.03,-37.17"/>
<polygon fill="#159795" stroke="#159795" points="290.39,-166.38 298.28,-174 295.41,-168.19 299.49,-169.65 299.49,-169.65 299.49,-169.65 295.41,-168.19 301.32,-165.53 290.39,-166.38"/>
<polygon fill="#159795" stroke="#159795" points="243.04,-37.16 253.77,-34.88 247.35,-34.01 250.84,-31.45 250.84,-31.45 250.84,-31.45 247.35,-34.01 248.45,-27.62 243.04,-37.16"/>
</g>
<!-- Impression -->
<g id="node13" class="node">
<title>Impression</title>
<ellipse fill="none" stroke="black" cx="465.62" cy="-91" rx="52.38" ry="18"/>
<text text-anchor="middle" x="465.62" y="-85.95" font-family="Times,serif" font-size="14.00">Impression</text>
</g>
<!-- Article&#45;&gt;Impression -->
<g id="edge9" class="edge">
<title>Article&#45;&gt;Impression</title>
<path fill="none" stroke="#b6c00e" d="M361.62,-159.14C382.92,-145.39 411.49,-126.94 433.3,-112.87"/>
<polygon fill="#b6c00e" stroke="#b6c00e" points="361.84,-159 350.99,-160.64 357.36,-161.89 353.72,-164.24 353.72,-164.24 353.72,-164.24 357.36,-161.89 355.88,-168.2 361.84,-159"/>
<polygon fill="#b6c00e" stroke="#b6c00e" points="433.21,-112.93 444.05,-111.28 437.69,-110.03 441.33,-107.68 441.33,-107.68 441.33,-107.68 437.69,-110.03 439.17,-103.72 433.21,-112.93"/>
</g>
<!-- ActiveStorage::Attachment -->
<g id="node14" class="node">
<title>ActiveStorage::Attachment</title>
<ellipse fill="none" stroke="black" cx="648.62" cy="-91" rx="112.26" ry="18"/>
<text text-anchor="middle" x="648.62" y="-85.95" font-family="Times,serif" font-size="14.00">ActiveStorage::Attachment</text>
</g>
<!-- Article&#45;&gt;ActiveStorage::Attachment -->
<g id="edge10" class="edge">
<title>Article&#45;&gt;ActiveStorage::Attachment</title>
<path fill="none" stroke="#ccf9c2" d="M373.18,-167.16C426.75,-152.54 520.51,-126.96 583.57,-109.75"/>
<polygon fill="#ccf9c2" stroke="#ccf9c2" points="373.15,-167.17 362.32,-165.46 368,-168.57 363.82,-169.71 363.82,-169.71 363.82,-169.71 368,-168.57 364.69,-174.14 373.15,-167.17"/>
<polygon fill="#ccf9c2" stroke="#ccf9c2" points="583.44,-109.79 594.28,-111.49 588.59,-108.38 592.77,-107.24 592.77,-107.24 592.77,-107.24 588.59,-108.38 591.91,-102.81 583.44,-109.79"/>
<text text-anchor="middle" x="560" y="-130.2" font-family="Times,serif" font-size="14.00">file_attachment</text>
</g>
<!-- ActiveStorage::Blob -->
<g id="node15" class="node">
<title>ActiveStorage::Blob</title>
<ellipse fill="none" stroke="black" cx="865.62" cy="-91" rx="86.67" ry="18"/>
<text text-anchor="middle" x="865.62" y="-85.95" font-family="Times,serif" font-size="14.00">ActiveStorage::Blob</text>
</g>
<!-- Article&#45;&gt;ActiveStorage::Blob -->
<g id="edge11" class="edge">
<title>Article&#45;&gt;ActiveStorage::Blob</title>
<path fill="none" stroke="#334ec5" d="M377.41,-173.66C432.1,-167.65 526.3,-156.58 606.62,-143.5 671.64,-132.91 745.25,-117.99 797.34,-106.93"/>
<polygon fill="#334ec5" stroke="#334ec5" points="377.61,-173.64 367.18,-170.25 372.31,-174.22 368,-174.69 368,-174.69 368,-174.69 372.31,-174.22 368.16,-179.2 377.61,-173.64"/>
<polygon fill="#334ec5" stroke="#334ec5" points="797.35,-106.93 808.07,-109.24 802.57,-105.81 806.81,-104.91 806.81,-104.91 806.81,-104.91 802.57,-105.81 806.19,-100.44 797.35,-106.93"/>
<text text-anchor="middle" x="716" y="-130.2" font-family="Times,serif" font-size="14.00">file_blob</text>
</g>
<!-- Bookmark&#45;&gt;User -->
<g id="edge12" class="edge">
<title>Bookmark&#45;&gt;User</title>
<path fill="none" stroke="#337688" d="M271.62,-62.46C271.62,-57.17 271.62,-51.64 271.62,-46.35"/>
<polygon fill="#337688" stroke="#337688" points="271.63,-62.48 267.13,-72.48 271.63,-67.81 271.63,-72.14 271.63,-72.14 271.63,-72.14 271.63,-67.81 276.13,-72.48 271.63,-62.48"/>
<polygon fill="#337688" stroke="#337688" points="271.63,-46.36 276.13,-36.36 271.63,-41.03 271.63,-36.7 271.63,-36.7 271.63,-36.7 271.63,-41.03 267.13,-36.36 271.63,-46.36"/>
</g>
<!-- Category&#45;&gt;CategoryArticle -->
<g id="edge13" class="edge">
<title>Category&#45;&gt;CategoryArticle</title>
<path fill="none" stroke="#40aba5" d="M103.19,-65.66C109.15,-58.61 115.66,-50.9 121.65,-43.82"/>
<polygon fill="#40aba5" stroke="#40aba5" points="103.21,-65.64 93.32,-70.37 99.77,-69.71 96.97,-73.02 96.97,-73.02 96.97,-73.02 99.77,-69.71 100.19,-76.18 103.21,-65.64"/>
<polygon fill="#40aba5" stroke="#40aba5" points="121.7,-43.76 131.59,-39.03 125.14,-39.69 127.94,-36.38 127.94,-36.38 127.94,-36.38 125.14,-39.69 124.71,-33.22 121.7,-43.76"/>
</g>
<!-- Company -->
<g id="node10" class="node">
<title>Company</title>
<ellipse fill="none" stroke="black" cx="642.62" cy="-349" rx="47.26" ry="18"/>
<text text-anchor="middle" x="642.62" y="-343.95" font-family="Times,serif" font-size="14.00">Company</text>
</g>
<!-- Like&#45;&gt;User -->
<g id="edge14" class="edge">
<title>Like&#45;&gt;User</title>
<path fill="none" stroke="#97fc9e" d="M341.82,-70.92C328.1,-60.77 311.28,-48.33 297.55,-38.17"/>
<polygon fill="#97fc9e" stroke="#97fc9e" points="341.71,-70.83 347.07,-80.4 346,-74 349.48,-76.58 349.48,-76.58 349.48,-76.58 346,-74 352.42,-73.16 341.71,-70.83"/>
<polygon fill="#97fc9e" stroke="#97fc9e" points="297.76,-38.33 292.39,-28.76 293.47,-35.15 289.98,-32.58 289.98,-32.58 289.98,-32.58 293.47,-35.15 287.04,-36 297.76,-38.33"/>
</g>
</g>
</svg>
