<?xml version="1.0" encoding="UTF-8" standalone="no"?>
<!DOCTYPE svg PUBLIC "-//W3C//DTD SVG 1.1//EN"
 "http://www.w3.org/Graphics/SVG/1.1/DTD/svg11.dtd">
<!-- Generated by graphviz version 9.0.0 (20230911.1827)
 -->
<!-- Title: models_diagram Pages: 1 -->
<svg width="876pt" height="503pt"
 viewBox="0.00 0.00 876.25 502.50" xmlns="http://www.w3.org/2000/svg" xmlns:xlink="http://www.w3.org/1999/xlink">
<g id="graph0" class="graph" transform="scale(1 1) rotate(0) translate(4 498.5)">
<title>models_diagram</title>
<polygon fill="none" stroke="none" points="-4,4 -4,-498.5 872.25,-498.5 872.25,4 -4,4"/>
<!-- _diagram_info -->
<g id="node1" class="node">
<title>_diagram_info</title>
<text text-anchor="start" x="17.38" y="-478.15" font-family="Times,serif" font-size="13.00">Models diagram</text>
<text text-anchor="start" x="17.38" y="-463.15" font-family="Times,serif" font-size="13.00">Date: Aug 23 2024 &#45; 23:37</text>
<text text-anchor="start" x="17.38" y="-448.15" font-family="Times,serif" font-size="13.00">Migration version: 20240823122531</text>
<text text-anchor="start" x="17.38" y="-433.15" font-family="Times,serif" font-size="13.00">Generated by RailRoady 1.6.0</text>
<text text-anchor="start" x="17.38" y="-418.15" font-family="Times,serif" font-size="13.00">http://railroady.prestonlee.com</text>
</g>
<!-- Ability -->
<g id="node2" class="node">
<title>Ability</title>
<polygon fill="none" stroke="black" points="295.12,-471 240.88,-471 240.88,-435 295.12,-435 295.12,-471"/>
<text text-anchor="middle" x="268" y="-447.95" font-family="Times,serif" font-size="14.00">Ability</text>
</g>
<!-- Applicant -->
<g id="node3" class="node">
<title>Applicant</title>
<ellipse fill="none" stroke="black" cx="360" cy="-453" rx="47.26" ry="18"/>
<text text-anchor="middle" x="360" y="-447.95" font-family="Times,serif" font-size="14.00">Applicant</text>
</g>
<!-- ApplicantArticle -->
<g id="node4" class="node">
<title>ApplicantArticle</title>
<ellipse fill="none" stroke="black" cx="461" cy="-356.5" rx="72.85" ry="18"/>
<text text-anchor="middle" x="461" y="-351.45" font-family="Times,serif" font-size="14.00">ApplicantArticle</text>
</g>
<!-- Applicant&#45;&gt;ApplicantArticle -->
<g id="edge1" class="edge">
<title>Applicant&#45;&gt;ApplicantArticle</title>
<path fill="none" stroke="#69c01d" d="M384.47,-429.1C400.02,-414.56 420.1,-395.77 435.79,-381.09"/>
<polygon fill="#69c01d" stroke="#69c01d" points="384.68,-428.91 374.3,-432.45 380.78,-432.55 377.62,-435.51 377.62,-435.51 377.62,-435.51 380.78,-432.55 380.45,-439.03 384.68,-428.91"/>
<polygon fill="#69c01d" stroke="#69c01d" points="435.55,-381.31 445.93,-377.76 439.45,-377.66 442.61,-374.7 442.61,-374.7 442.61,-374.7 439.45,-377.66 439.78,-371.19 435.55,-381.31"/>
</g>
<!-- Article -->
<g id="node6" class="node">
<title>Article</title>
<ellipse fill="none" stroke="black" cx="461" cy="-283.5" rx="36.51" ry="18"/>
<text text-anchor="middle" x="461" y="-278.45" font-family="Times,serif" font-size="14.00">Article</text>
</g>
<!-- Applicant&#45;&gt;Article -->
<g id="edge2" class="edge">
<title>Applicant&#45;&gt;Article</title>
<path fill="none" stroke="#fa0f50" d="M358.65,-424.34C358.77,-399.88 362.27,-364.2 379,-338.5 389.91,-321.75 408.03,-309.01 424.47,-300.13"/>
<polygon fill="#fa0f50" stroke="#fa0f50" points="358.65,-424.38 354.29,-434.44 358.73,-429.71 358.79,-434.04 358.79,-434.04 358.79,-434.04 358.73,-429.71 363.29,-434.31 358.65,-424.38"/>
<polygon fill="#fa0f50" stroke="#fa0f50" points="424.17,-300.28 435.12,-299.75 428.92,-297.86 432.78,-295.89 432.78,-295.89 432.78,-295.89 428.92,-297.86 431.03,-291.73 424.17,-300.28"/>
</g>
<!-- User -->
<g id="node13" class="node">
<title>User</title>
<ellipse fill="none" stroke="black" cx="383" cy="-106.5" rx="28.32" ry="18"/>
<text text-anchor="middle" x="383" y="-101.45" font-family="Times,serif" font-size="14.00">User</text>
</g>
<!-- Applicant&#45;&gt;User -->
<g id="edge3" class="edge">
<title>Applicant&#45;&gt;User</title>
<path fill="none" stroke="#20bc81" d="M331.89,-429.99C323.19,-423.65 313.42,-416.97 304,-411.5 253.77,-382.34 185,-415.58 185,-357.5 185,-357.5 185,-357.5 185,-194 185,-169.6 185.42,-158.31 204,-142.5 224.75,-124.84 298.49,-115.11 344.6,-110.62"/>
<polygon fill="#20bc81" stroke="#20bc81" points="331.89,-430 337.22,-439.58 336.17,-433.18 339.64,-435.77 339.64,-435.77 339.64,-435.77 336.17,-433.18 342.6,-432.36 331.89,-430"/>
<polygon fill="#20bc81" stroke="#20bc81" points="344.55,-110.63 354.92,-114.18 349.86,-110.13 354.17,-109.73 354.17,-109.73 354.17,-109.73 349.86,-110.13 354.09,-105.22 344.55,-110.63"/>
</g>
<!-- ActiveStorage::Attachment -->
<g id="node14" class="node">
<title>ActiveStorage::Attachment</title>
<ellipse fill="none" stroke="black" cx="204" cy="-18" rx="112.26" ry="18"/>
<text text-anchor="middle" x="204" y="-12.95" font-family="Times,serif" font-size="14.00">ActiveStorage::Attachment</text>
</g>
<!-- Applicant&#45;&gt;ActiveStorage::Attachment -->
<g id="edge4" class="edge">
<title>Applicant&#45;&gt;ActiveStorage::Attachment</title>
<path fill="none" stroke="#d10153" d="M334.43,-429.79C325.35,-422.96 314.72,-416.04 304,-411.5 240.83,-384.72 0,-426.11 0,-357.5 0,-357.5 0,-357.5 0,-105.5 0,-59.8 43.93,-37.89 91.02,-27.52"/>
<polygon fill="#d10153" stroke="#d10153" points="334.49,-429.84 339.55,-439.57 338.68,-433.15 342.08,-435.83 342.08,-435.83 342.08,-435.83 338.68,-433.15 345.13,-432.51 334.49,-429.84"/>
<polygon fill="#d10153" stroke="#d10153" points="90.97,-27.53 101.67,-29.96 96.2,-26.48 100.45,-25.62 100.45,-25.62 100.45,-25.62 96.2,-26.48 99.88,-21.14 90.97,-27.53"/>
<text text-anchor="middle" x="47.62" y="-234.2" font-family="Times,serif" font-size="14.00">files_attachments</text>
</g>
<!-- ActiveStorage::Blob -->
<g id="node15" class="node">
<title>ActiveStorage::Blob</title>
<ellipse fill="none" stroke="black" cx="603" cy="-18" rx="86.67" ry="18"/>
<text text-anchor="middle" x="603" y="-12.95" font-family="Times,serif" font-size="14.00">ActiveStorage::Blob</text>
</g>
<!-- Applicant&#45;&gt;ActiveStorage::Blob -->
<g id="edge5" class="edge">
<title>Applicant&#45;&gt;ActiveStorage::Blob</title>
<path fill="none" stroke="#17d26a" d="M385.47,-429.55C394.54,-422.7 405.2,-415.83 416,-411.5 497.82,-378.69 809,-445.65 809,-357.5 809,-357.5 809,-357.5 809,-105.5 809,-53.19 751.83,-31.99 697.73,-23.64"/>
<polygon fill="#17d26a" stroke="#17d26a" points="385.4,-429.61 374.77,-432.31 381.22,-432.93 377.83,-435.62 377.83,-435.62 377.83,-435.62 381.22,-432.93 380.37,-439.35 385.4,-429.61"/>
<polygon fill="#17d26a" stroke="#17d26a" points="697.91,-23.66 688.64,-17.81 692.63,-22.92 688.34,-22.32 688.34,-22.32 688.34,-22.32 692.63,-22.92 687.38,-26.72 697.91,-23.66"/>
<text text-anchor="middle" x="838.62" y="-234.2" font-family="Times,serif" font-size="14.00">files_blobs</text>
</g>
<!-- ApplicantArticle&#45;&gt;Article -->
<g id="edge6" class="edge">
<title>ApplicantArticle&#45;&gt;Article</title>
<path fill="none" stroke="#0e0202" d="M461,-327.96C461,-322.67 461,-317.14 461,-311.85"/>
<polygon fill="#0e0202" stroke="#0e0202" points="461,-327.98 456.5,-337.98 461,-333.31 461,-337.64 461,-337.64 461,-337.64 461,-333.31 465.5,-337.98 461,-327.98"/>
<polygon fill="#0e0202" stroke="#0e0202" points="461,-311.86 465.5,-301.86 461,-306.53 461,-302.2 461,-302.2 461,-302.2 461,-306.53 456.5,-301.86 461,-311.86"/>
</g>
<!-- ApplicationRecord -->
<g id="node5" class="node">
<title>ApplicationRecord</title>
<ellipse fill="none" stroke="black" cx="506" cy="-453" rx="81.04" ry="18"/>
<text text-anchor="middle" x="506" y="-447.95" font-family="Times,serif" font-size="14.00">ApplicationRecord</text>
</g>
<!-- Bookmark -->
<g id="node7" class="node">
<title>Bookmark</title>
<ellipse fill="none" stroke="black" cx="461" cy="-195" rx="50.33" ry="18"/>
<text text-anchor="middle" x="461" y="-189.95" font-family="Times,serif" font-size="14.00">Bookmark</text>
</g>
<!-- Article&#45;&gt;Bookmark -->
<g id="edge8" class="edge">
<title>Article&#45;&gt;Bookmark</title>
<path fill="none" stroke="#b5544b" d="M461,-255.1C461,-245.06 461,-233.69 461,-223.63"/>
<polygon fill="#b5544b" stroke="#b5544b" points="461,-255.08 456.5,-265.08 461,-260.41 461,-264.74 461,-264.74 461,-264.74 461,-260.41 465.5,-265.08 461,-255.08"/>
<polygon fill="#b5544b" stroke="#b5544b" points="461,-223.68 465.5,-213.68 461,-218.35 461,-214.02 461,-214.02 461,-214.02 461,-218.35 456.5,-213.68 461,-223.68"/>
</g>
<!-- Category -->
<g id="node8" class="node">
<title>Category</title>
<ellipse fill="none" stroke="black" cx="736" cy="-195" rx="44.7" ry="18"/>
<text text-anchor="middle" x="736" y="-189.95" font-family="Times,serif" font-size="14.00">Category</text>
</g>
<!-- Article&#45;&gt;Category -->
<g id="edge11" class="edge">
<title>Article&#45;&gt;Category</title>
<path fill="none" stroke="#3d5733" d="M508.37,-282.24C553.67,-280.31 622.88,-272.92 677,-247.5 691.26,-240.8 704.7,-229.62 715.14,-219.38"/>
<polygon fill="#3d5733" stroke="#3d5733" points="508.29,-282.24 498.14,-278.09 502.96,-282.43 498.63,-282.58 498.63,-282.58 498.63,-282.58 502.96,-282.43 498.45,-287.09 508.29,-282.24"/>
<polygon fill="#3d5733" stroke="#3d5733" points="714.96,-219.56 725.16,-215.55 718.69,-215.74 721.71,-212.65 721.71,-212.65 721.71,-212.65 718.69,-215.74 718.72,-209.26 714.96,-219.56"/>
</g>
<!-- CategoryArticle -->
<g id="node9" class="node">
<title>CategoryArticle</title>
<ellipse fill="none" stroke="black" cx="711" cy="-106.5" rx="70.29" ry="18"/>
<text text-anchor="middle" x="711" y="-101.45" font-family="Times,serif" font-size="14.00">CategoryArticle</text>
</g>
<!-- Article&#45;&gt;CategoryArticle -->
<g id="edge10" class="edge">
<title>Article&#45;&gt;CategoryArticle</title>
<path fill="none" stroke="#981eb3" d="M507.82,-282.45C543.47,-280.24 592.18,-272.31 627,-247.5 647.66,-232.78 680.5,-170.19 698.38,-133.88"/>
<polygon fill="#981eb3" stroke="#981eb3" points="507.99,-282.44 497.78,-278.44 502.66,-282.7 498.34,-282.92 498.34,-282.92 498.34,-282.92 502.66,-282.7 498.23,-287.43 507.99,-282.44"/>
<polygon fill="#981eb3" stroke="#981eb3" points="698.27,-134.12 706.7,-127.1 700.61,-129.32 702.51,-125.43 702.51,-125.43 702.51,-125.43 700.61,-129.32 698.61,-123.15 698.27,-134.12"/>
</g>
<!-- Like -->
<g id="node12" class="node">
<title>Like</title>
<ellipse fill="none" stroke="black" cx="557" cy="-195" rx="27.81" ry="18"/>
<text text-anchor="middle" x="557" y="-189.95" font-family="Times,serif" font-size="14.00">Like</text>
</g>
<!-- Article&#45;&gt;Like -->
<g id="edge9" class="edge">
<title>Article&#45;&gt;Like</title>
<path fill="none" stroke="#a8c2b7" d="M485.37,-260.54C500.23,-247.15 519.12,-230.13 533.77,-216.93"/>
<polygon fill="#a8c2b7" stroke="#a8c2b7" points="485.4,-260.51 474.96,-263.87 481.44,-264.09 478.22,-266.99 478.22,-266.99 478.22,-266.99 481.44,-264.09 480.98,-270.55 485.4,-260.51"/>
<polygon fill="#a8c2b7" stroke="#a8c2b7" points="533.74,-216.95 544.19,-213.6 537.71,-213.38 540.93,-210.48 540.93,-210.48 540.93,-210.48 537.71,-213.38 538.16,-206.92 533.74,-216.95"/>
</g>
<!-- Article&#45;&gt;User -->
<g id="edge7" class="edge">
<title>Article&#45;&gt;User</title>
<path fill="none" stroke="#71e420" d="M436.62,-260.09C424.34,-247.44 410.34,-230.66 402,-213 390.31,-188.24 385.78,-157.09 384.04,-135.07"/>
<polygon fill="#71e420" stroke="#71e420" points="436.64,-260.11 440.56,-270.36 440.43,-263.88 443.5,-266.93 443.5,-266.93 443.5,-266.93 440.43,-263.88 446.91,-263.98 436.64,-260.11"/>
<polygon fill="#71e420" stroke="#71e420" points="384.04,-135.09 387.89,-124.82 383.7,-129.76 383.42,-125.44 383.42,-125.44 383.42,-125.44 383.7,-129.76 378.91,-125.4 384.04,-135.09"/>
</g>
<!-- Article&#45;&gt;ActiveStorage::Attachment -->
<g id="edge13" class="edge">
<title>Article&#45;&gt;ActiveStorage::Attachment</title>
<path fill="none" stroke="#c3c280" d="M414.43,-280.67C364.6,-276.13 286.71,-261.18 242,-213 199.46,-167.16 198.23,-88.29 201.05,-46.63"/>
<polygon fill="#c3c280" stroke="#c3c280" points="414.31,-280.66 423.92,-285.95 419.63,-281.09 423.95,-281.43 423.95,-281.43 423.95,-281.43 419.63,-281.09 424.64,-276.97 414.31,-280.66"/>
<polygon fill="#c3c280" stroke="#c3c280" points="201.04,-46.71 206.34,-37.1 201.47,-41.39 201.82,-37.07 201.82,-37.07 201.82,-37.07 201.47,-41.39 197.36,-36.38 201.04,-46.71"/>
<text text-anchor="middle" x="254.38" y="-145.7" font-family="Times,serif" font-size="14.00">file_attachment</text>
</g>
<!-- Article&#45;&gt;ActiveStorage::Blob -->
<g id="edge14" class="edge">
<title>Article&#45;&gt;ActiveStorage::Blob</title>
<path fill="none" stroke="#9d881e" d="M502.35,-270.8C532.03,-260.33 570.75,-242.06 594,-213 605.35,-198.82 638.16,-71.09 632,-54 630.79,-50.63 629.09,-47.36 627.12,-44.25"/>
<polygon fill="#9d881e" stroke="#9d881e" points="502.46,-270.76 491.55,-269.69 497.4,-272.46 493.3,-273.84 493.3,-273.84 493.3,-273.84 497.4,-272.46 494.42,-278.22 502.46,-270.76"/>
<polygon fill="#9d881e" stroke="#9d881e" points="627.17,-44.31 624.85,-33.59 624,-40.02 621.43,-36.53 621.43,-36.53 621.43,-36.53 624,-40.02 617.61,-38.94 627.17,-44.31"/>
<text text-anchor="middle" x="641.38" y="-145.7" font-family="Times,serif" font-size="14.00">file_blob</text>
</g>
<!-- Impression -->
<g id="node16" class="node">
<title>Impression</title>
<ellipse fill="none" stroke="black" cx="303" cy="-195" rx="52.38" ry="18"/>
<text text-anchor="middle" x="303" y="-189.95" font-family="Times,serif" font-size="14.00">Impression</text>
</g>
<!-- Article&#45;&gt;Impression -->
<g id="edge12" class="edge">
<title>Article&#45;&gt;Impression</title>
<path fill="none" stroke="#33fcd1" d="M420.27,-269.96C403.85,-264.16 385.03,-256.53 369,-247.5 354.7,-239.44 340.17,-228.47 328.4,-218.73"/>
<polygon fill="#33fcd1" stroke="#33fcd1" points="420.37,-269.99 428.37,-277.48 425.41,-271.72 429.51,-273.12 429.51,-273.12 429.51,-273.12 425.41,-271.72 431.28,-268.97 420.37,-269.99"/>
<polygon fill="#33fcd1" stroke="#33fcd1" points="328.61,-218.91 323.89,-209.01 324.54,-215.46 321.24,-212.66 321.24,-212.66 321.24,-212.66 324.54,-215.46 318.07,-215.87 328.61,-218.91"/>
</g>
<!-- Bookmark&#45;&gt;User -->
<g id="edge15" class="edge">
<title>Bookmark&#45;&gt;User</title>
<path fill="none" stroke="#2e5da4" d="M439.53,-170.19C428.27,-157.7 414.54,-142.47 403.43,-130.16"/>
<polygon fill="#2e5da4" stroke="#2e5da4" points="439.41,-170.06 442.76,-180.5 442.98,-174.02 445.88,-177.23 445.88,-177.23 445.88,-177.23 442.98,-174.02 449.45,-174.47 439.41,-170.06"/>
<polygon fill="#2e5da4" stroke="#2e5da4" points="403.48,-130.21 400.13,-119.77 399.91,-126.25 397.01,-123.04 397.01,-123.04 397.01,-123.04 399.91,-126.25 393.44,-125.8 403.48,-130.21"/>
</g>
<!-- Category&#45;&gt;CategoryArticle -->
<g id="edge16" class="edge">
<title>Category&#45;&gt;CategoryArticle</title>
<path fill="none" stroke="#222274" d="M728.2,-167C725.21,-156.68 721.82,-144.92 718.83,-134.59"/>
<polygon fill="#222274" stroke="#222274" points="728.19,-166.98 726.64,-177.84 729.67,-172.11 730.88,-176.27 730.88,-176.27 730.88,-176.27 729.67,-172.11 735.29,-175.34 728.19,-166.98"/>
<polygon fill="#222274" stroke="#222274" points="718.88,-134.78 720.43,-123.92 717.4,-129.65 716.2,-125.49 716.2,-125.49 716.2,-125.49 717.4,-129.65 711.78,-126.42 718.88,-134.78"/>
</g>
<!-- Company -->
<g id="node10" class="node">
<title>Company</title>
<ellipse fill="none" stroke="black" cx="110" cy="-283.5" rx="47.26" ry="18"/>
<text text-anchor="middle" x="110" y="-278.45" font-family="Times,serif" font-size="14.00">Company</text>
</g>
<!-- Employee -->
<g id="node11" class="node">
<title>Employee</title>
<ellipse fill="none" stroke="black" cx="108" cy="-195" rx="48.79" ry="18"/>
<text text-anchor="middle" x="108" y="-189.95" font-family="Times,serif" font-size="14.00">Employee</text>
</g>
<!-- Company&#45;&gt;Employee -->
<g id="edge17" class="edge">
<title>Company&#45;&gt;Employee</title>
<path fill="none" stroke="#fe1086" d="M109.37,-255.1C109.13,-245.06 108.87,-233.69 108.64,-223.63"/>
<polygon fill="#fe1086" stroke="#fe1086" points="109.37,-255.08 105.1,-265.18 109.49,-260.41 109.59,-264.74 109.59,-264.74 109.59,-264.74 109.49,-260.41 114.1,-264.97 109.37,-255.08"/>
<polygon fill="#fe1086" stroke="#fe1086" points="108.64,-223.68 112.91,-213.58 108.52,-218.35 108.42,-214.02 108.42,-214.02 108.42,-214.02 108.52,-218.35 103.91,-213.79 108.64,-223.68"/>
</g>
<!-- Employee&#45;&gt;User -->
<g id="edge18" class="edge">
<title>Employee&#45;&gt;User</title>
<path fill="none" stroke="#87b13e" d="M130.79,-170.45C141.96,-160.28 156.19,-149.19 171,-142.5 227.68,-116.88 300.47,-109.79 344.33,-107.96"/>
<polygon fill="#87b13e" stroke="#87b13e" points="130.73,-170.51 120.37,-174.12 126.86,-174.18 123.71,-177.16 123.71,-177.16 123.71,-177.16 126.86,-174.18 126.57,-180.65 130.73,-170.51"/>
<polygon fill="#87b13e" stroke="#87b13e" points="344.24,-107.96 354.39,-112.11 349.57,-107.77 353.9,-107.62 353.9,-107.62 353.9,-107.62 349.57,-107.77 354.08,-103.12 344.24,-107.96"/>
</g>
<!-- Like&#45;&gt;User -->
<g id="edge19" class="edge">
<title>Like&#45;&gt;User</title>
<path fill="none" stroke="#078ff5" d="M526.09,-178.63C494.54,-162.95 445.84,-138.74 414.2,-123.01"/>
<polygon fill="#078ff5" stroke="#078ff5" points="526.06,-178.62 533.01,-187.1 530.84,-180.99 534.72,-182.92 534.72,-182.92 534.72,-182.92 530.84,-180.99 537.02,-179.04 526.06,-178.62"/>
<polygon fill="#078ff5" stroke="#078ff5" points="414.21,-123.02 407.26,-114.54 409.44,-120.64 405.56,-118.71 405.56,-118.71 405.56,-118.71 409.44,-120.64 403.25,-122.59 414.21,-123.02"/>
</g>
<!-- User&#45;&gt;ActiveStorage::Attachment -->
<g id="edge20" class="edge">
<title>User&#45;&gt;ActiveStorage::Attachment</title>
<path fill="none" stroke="#71154b" d="M363.59,-82.92C353.82,-72.8 341.25,-61.48 328,-54 314.42,-46.33 299.03,-40.25 283.84,-35.45"/>
<polygon fill="#71154b" stroke="#71154b" points="363.45,-82.77 366.95,-93.16 367.07,-86.68 370.02,-89.85 370.02,-89.85 370.02,-89.85 367.07,-86.68 373.55,-87.04 363.45,-82.77"/>
<polygon fill="#71154b" stroke="#71154b" points="283.8,-35.44 275.51,-28.26 278.69,-33.91 274.54,-32.67 274.54,-32.67 274.54,-32.67 278.69,-33.91 272.93,-36.88 283.8,-35.44"/>
<text text-anchor="middle" x="399.88" y="-57.2" font-family="Times,serif" font-size="14.00">avatar_attachment</text>
</g>
<!-- User&#45;&gt;ActiveStorage::Attachment -->
<g id="edge22" class="edge">
<title>User&#45;&gt;ActiveStorage::Attachment</title>
<path fill="none" stroke="#4e9760" d="M344.57,-102.02C301.52,-97.34 235.42,-87.58 217.5,-70.5 210.86,-64.17 207.34,-55.02 205.52,-46.18"/>
<polygon fill="#4e9760" stroke="#4e9760" points="344.42,-102 353.91,-107.52 349.73,-102.56 354.04,-103 354.04,-103 354.04,-103 349.73,-102.56 354.84,-98.56 344.42,-102"/>
<polygon fill="#4e9760" stroke="#4e9760" points="205.55,-46.36 208.58,-35.82 204.79,-41.08 204.17,-36.79 204.17,-36.79 204.17,-36.79 204.79,-41.08 199.67,-37.1 205.55,-46.36"/>
<text text-anchor="middle" x="271.25" y="-57.2" font-family="Times,serif" font-size="14.00">resume_attachment</text>
</g>
<!-- User&#45;&gt;ActiveStorage::Blob -->
<g id="edge21" class="edge">
<title>User&#45;&gt;ActiveStorage::Blob</title>
<path fill="none" stroke="#d241f5" d="M414.19,-90.61C425.93,-84.71 439.27,-77.63 451,-70.5 461.83,-63.92 462.79,-59.41 474.25,-54 492.17,-45.53 512.5,-38.82 531.63,-33.62"/>
<polygon fill="#d241f5" stroke="#d241f5" points="414.44,-90.49 403.48,-90.9 409.66,-92.86 405.77,-94.78 405.77,-94.78 405.77,-94.78 409.66,-92.86 407.47,-98.96 414.44,-90.49"/>
<polygon fill="#d241f5" stroke="#d241f5" points="531.5,-33.66 542.31,-35.49 536.66,-32.31 540.85,-31.22 540.85,-31.22 540.85,-31.22 536.66,-32.31 540.04,-26.78 531.5,-33.66"/>
<text text-anchor="middle" x="505.88" y="-57.2" font-family="Times,serif" font-size="14.00">avatar_blob</text>
</g>
<!-- User&#45;&gt;ActiveStorage::Blob -->
<g id="edge23" class="edge">
<title>User&#45;&gt;ActiveStorage::Blob</title>
<path fill="none" stroke="#0e279f" d="M421.07,-101.71C453.44,-97.38 500.5,-88.43 538,-70.5 542.26,-68.46 559.21,-55 574.73,-42.35"/>
<polygon fill="#0e279f" stroke="#0e279f" points="421.36,-101.67 410.88,-98.45 416.07,-102.34 411.77,-102.87 411.77,-102.87 411.77,-102.87 416.07,-102.34 412,-107.38 421.36,-101.67"/>
<polygon fill="#0e279f" stroke="#0e279f" points="574.65,-42.42 585.24,-39.57 578.78,-39.04 582.13,-36.3 582.13,-36.3 582.13,-36.3 578.78,-39.04 579.54,-32.6 574.65,-42.42"/>
<text text-anchor="middle" x="594.25" y="-57.2" font-family="Times,serif" font-size="14.00">resume_blob</text>
</g>
</g>
</svg>
