<?xml version="1.0" encoding="UTF-8" standalone="no"?>
<!DOCTYPE svg PUBLIC "-//W3C//DTD SVG 1.1//EN"
 "http://www.w3.org/Graphics/SVG/1.1/DTD/svg11.dtd">
<!-- Generated by graphviz version 9.0.0 (20230911.1827)
 -->
<!-- Title: models_diagram Pages: 1 -->
<svg width="1455pt" height="1280pt"
 viewBox="0.00 0.00 1455.17 1279.50" xmlns="http://www.w3.org/2000/svg" xmlns:xlink="http://www.w3.org/1999/xlink">
<g id="graph0" class="graph" transform="scale(1 1) rotate(0) translate(4 1275.5)">
<title>models_diagram</title>
<polygon fill="none" stroke="none" points="-4,4 -4,-1275.5 1451.17,-1275.5 1451.17,4 -4,4"/>
<!-- _diagram_info -->
<g id="node1" class="node">
<title>_diagram_info</title>
<text text-anchor="start" x="263.88" y="-1180.9" font-family="Times,serif" font-size="13.00">Models diagram</text>
<text text-anchor="start" x="263.88" y="-1165.9" font-family="Times,serif" font-size="13.00">Date: Mar 17 2024 &#45; 10:14</text>
<text text-anchor="start" x="263.88" y="-1150.9" font-family="Times,serif" font-size="13.00">Migration version: 20240315232605</text>
<text text-anchor="start" x="263.88" y="-1135.9" font-family="Times,serif" font-size="13.00">Generated by RailRoady 1.6.0</text>
<text text-anchor="start" x="263.88" y="-1120.9" font-family="Times,serif" font-size="13.00">http://railroady.prestonlee.com</text>
</g>
<!-- Ability -->
<g id="node2" class="node">
<title>Ability</title>
<polygon fill="none" stroke="black" points="487.38,-1131.25 487.38,-1180.25 541.62,-1180.25 541.62,-1131.25 487.38,-1131.25"/>
<text text-anchor="middle" x="514.5" y="-1162.95" font-family="Times,serif" font-size="14.00">Ability</text>
<polyline fill="none" stroke="black" points="487.38,-1155.75 541.62,-1155.75"/>
<text text-anchor="middle" x="514.5" y="-1138.45" font-family="Times,serif" font-size="14.00"> </text>
</g>
<!-- Applicant -->
<g id="node3" class="node">
<title>Applicant</title>
<path fill="none" stroke="black" d="M572,-1040.5C572,-1040.5 807,-1040.5 807,-1040.5 813,-1040.5 819,-1046.5 819,-1052.5 819,-1052.5 819,-1259 819,-1259 819,-1265 813,-1271 807,-1271 807,-1271 572,-1271 572,-1271 566,-1271 560,-1265 560,-1259 560,-1259 560,-1052.5 560,-1052.5 560,-1046.5 566,-1040.5 572,-1040.5"/>
<text text-anchor="middle" x="689.5" y="-1253.7" font-family="Times,serif" font-size="14.00">Applicant</text>
<polyline fill="none" stroke="black" points="560,-1246.5 819,-1246.5"/>
<text text-anchor="start" x="568" y="-1229.2" font-family="Times,serif" font-size="14.00">desired_salary :text</text>
<text text-anchor="start" x="568" y="-1212.7" font-family="Times,serif" font-size="14.00">name :character varying</text>
<text text-anchor="start" x="568" y="-1196.2" font-family="Times,serif" font-size="14.00">user_id :integer</text>
<text text-anchor="start" x="568" y="-1179.7" font-family="Times,serif" font-size="14.00">created_at :timestamp(6) without time zone</text>
<text text-anchor="start" x="568" y="-1163.2" font-family="Times,serif" font-size="14.00">updated_at :timestamp(6) without time zone</text>
<text text-anchor="start" x="568" y="-1146.7" font-family="Times,serif" font-size="14.00">creater_id :integer</text>
<text text-anchor="start" x="568" y="-1130.2" font-family="Times,serif" font-size="14.00">birthday :date</text>
<text text-anchor="start" x="568" y="-1113.7" font-family="Times,serif" font-size="14.00">age :integer</text>
<text text-anchor="start" x="568" y="-1097.2" font-family="Times,serif" font-size="14.00">nationality :integer</text>
<text text-anchor="start" x="568" y="-1080.7" font-family="Times,serif" font-size="14.00">phone_number :integer</text>
<text text-anchor="start" x="568" y="-1064.2" font-family="Times,serif" font-size="14.00">self_introduction :text</text>
<text text-anchor="start" x="568" y="-1047.7" font-family="Times,serif" font-size="14.00">id :bigint</text>
</g>
<!-- ApplicantArticle -->
<g id="node4" class="node">
<title>ApplicantArticle</title>
<path fill="none" stroke="black" d="M460,-887.5C460,-887.5 695,-887.5 695,-887.5 701,-887.5 707,-893.5 707,-899.5 707,-899.5 707,-990.5 707,-990.5 707,-996.5 701,-1002.5 695,-1002.5 695,-1002.5 460,-1002.5 460,-1002.5 454,-1002.5 448,-996.5 448,-990.5 448,-990.5 448,-899.5 448,-899.5 448,-893.5 454,-887.5 460,-887.5"/>
<text text-anchor="middle" x="577.5" y="-985.2" font-family="Times,serif" font-size="14.00">ApplicantArticle</text>
<polyline fill="none" stroke="black" points="448,-978 707,-978"/>
<text text-anchor="start" x="456" y="-960.7" font-family="Times,serif" font-size="14.00">id :bigint</text>
<text text-anchor="start" x="456" y="-944.2" font-family="Times,serif" font-size="14.00">applicant_id :bigint</text>
<text text-anchor="start" x="456" y="-927.7" font-family="Times,serif" font-size="14.00">article_id :bigint</text>
<text text-anchor="start" x="456" y="-911.2" font-family="Times,serif" font-size="14.00">created_at :timestamp(6) without time zone</text>
<text text-anchor="start" x="456" y="-894.7" font-family="Times,serif" font-size="14.00">updated_at :timestamp(6) without time zone</text>
</g>
<!-- Applicant&#45;&gt;ApplicantArticle -->
<g id="edge1" class="edge">
<title>Applicant&#45;&gt;ApplicantArticle</title>
<path fill="none" stroke="#3cbd59" d="M623.25,-1031.26C619.72,-1024.69 616.25,-1018.22 612.9,-1011.97"/>
<polygon fill="#3cbd59" stroke="#3cbd59" points="623.21,-1031.19 623.97,-1042.13 625.73,-1035.89 627.78,-1039.71 627.78,-1039.71 627.78,-1039.71 625.73,-1035.89 631.9,-1037.88 623.21,-1031.19"/>
<polygon fill="#3cbd59" stroke="#3cbd59" points="612.96,-1012.08 612.19,-1001.14 610.43,-1007.38 608.39,-1003.57 608.39,-1003.57 608.39,-1003.57 610.43,-1007.38 604.26,-1005.4 612.96,-1012.08"/>
</g>
<!-- Article -->
<g id="node6" class="node">
<title>Article</title>
<path fill="none" stroke="black" d="M539,-338.5C539,-338.5 774,-338.5 774,-338.5 780,-338.5 786,-344.5 786,-350.5 786,-350.5 786,-837.5 786,-837.5 786,-843.5 780,-849.5 774,-849.5 774,-849.5 539,-849.5 539,-849.5 533,-849.5 527,-843.5 527,-837.5 527,-837.5 527,-350.5 527,-350.5 527,-344.5 533,-338.5 539,-338.5"/>
<text text-anchor="middle" x="656.5" y="-832.2" font-family="Times,serif" font-size="14.00">Article</text>
<polyline fill="none" stroke="black" points="527,-825 786,-825"/>
<text text-anchor="start" x="535" y="-807.7" font-family="Times,serif" font-size="14.00">status :integer</text>
<text text-anchor="start" x="535" y="-791.2" font-family="Times,serif" font-size="14.00">body :text</text>
<text text-anchor="start" x="535" y="-774.7" font-family="Times,serif" font-size="14.00">user_id :bigint</text>
<text text-anchor="start" x="535" y="-758.2" font-family="Times,serif" font-size="14.00">created_at :timestamp(6) without time zone</text>
<text text-anchor="start" x="535" y="-741.7" font-family="Times,serif" font-size="14.00">updated_at :timestamp(6) without time zone</text>
<text text-anchor="start" x="535" y="-725.2" font-family="Times,serif" font-size="14.00">impressions_count :integer</text>
<text text-anchor="start" x="535" y="-708.7" font-family="Times,serif" font-size="14.00">file :character varying</text>
<text text-anchor="start" x="535" y="-692.2" font-family="Times,serif" font-size="14.00">start_time :timestamp(6) without time zone</text>
<text text-anchor="start" x="535" y="-675.7" font-family="Times,serif" font-size="14.00">end_time :timestamp(6) without time zone</text>
<text text-anchor="start" x="535" y="-659.2" font-family="Times,serif" font-size="14.00">company_id :bigint</text>
<text text-anchor="start" x="535" y="-642.7" font-family="Times,serif" font-size="14.00">title :character varying</text>
<text text-anchor="start" x="535" y="-626.2" font-family="Times,serif" font-size="14.00">application_deadline :date</text>
<text text-anchor="start" x="535" y="-609.7" font-family="Times,serif" font-size="14.00">salary_details :text</text>
<text text-anchor="start" x="535" y="-593.2" font-family="Times,serif" font-size="14.00">work_location :character varying</text>
<text text-anchor="start" x="535" y="-576.7" font-family="Times,serif" font-size="14.00">language_requirement :character varying</text>
<text text-anchor="start" x="535" y="-560.2" font-family="Times,serif" font-size="14.00">japanese_level :character varying</text>
<text text-anchor="start" x="535" y="-543.7" font-family="Times,serif" font-size="14.00">skills_required :text</text>
<text text-anchor="start" x="535" y="-527.2" font-family="Times,serif" font-size="14.00">employment_type :character varying</text>
<text text-anchor="start" x="535" y="-510.7" font-family="Times,serif" font-size="14.00">description :text</text>
<text text-anchor="start" x="535" y="-494.2" font-family="Times,serif" font-size="14.00">work_hours :character varying</text>
<text text-anchor="start" x="535" y="-477.7" font-family="Times,serif" font-size="14.00">trial_period :character varying</text>
<text text-anchor="start" x="535" y="-461.2" font-family="Times,serif" font-size="14.00">days_off :character varying</text>
<text text-anchor="start" x="535" y="-444.7" font-family="Times,serif" font-size="14.00">overtime :character varying</text>
<text text-anchor="start" x="535" y="-428.2" font-family="Times,serif" font-size="14.00">transportation :character varying</text>
<text text-anchor="start" x="535" y="-411.7" font-family="Times,serif" font-size="14.00">work_environment :character varying</text>
<text text-anchor="start" x="535" y="-395.2" font-family="Times,serif" font-size="14.00">other_allowances :character varying</text>
<text text-anchor="start" x="535" y="-378.7" font-family="Times,serif" font-size="14.00">insurance :character varying</text>
<text text-anchor="start" x="535" y="-362.2" font-family="Times,serif" font-size="14.00">other_benefits :character varying</text>
<text text-anchor="start" x="535" y="-345.7" font-family="Times,serif" font-size="14.00">id :bigint</text>
</g>
<!-- Applicant&#45;&gt;Article -->
<g id="edge2" class="edge">
<title>Applicant&#45;&gt;Article</title>
<path fill="none" stroke="#56edb1" d="M712.61,-1029.97C713.76,-1020.87 714.75,-1011.8 715.5,-1003 719.87,-951.63 720.63,-938.3 715.5,-887 714.61,-878.12 713.58,-869.11 712.41,-860.03"/>
<polygon fill="#56edb1" stroke="#56edb1" points="712.6,-1030.01 706.82,-1039.33 711.9,-1035.3 711.33,-1039.59 711.33,-1039.59 711.33,-1039.59 711.9,-1035.3 715.74,-1040.52 712.6,-1030.01"/>
<polygon fill="#56edb1" stroke="#56edb1" points="712.41,-859.99 715.56,-849.49 711.71,-854.7 711.14,-850.41 711.14,-850.41 711.14,-850.41 711.71,-854.7 706.64,-850.67 712.41,-859.99"/>
</g>
<!-- ApplicantArticle&#45;&gt;Article -->
<g id="edge3" class="edge">
<title>ApplicantArticle&#45;&gt;Article</title>
<path fill="none" stroke="#651c85" d="M592.65,-877.05C593.89,-871.6 595.18,-865.91 596.5,-860.04"/>
<polygon fill="#651c85" stroke="#651c85" points="592.65,-877.07 586.05,-885.83 591.47,-882.27 590.52,-886.5 590.52,-886.5 590.52,-886.5 591.47,-882.27 594.83,-887.82 592.65,-877.07"/>
<polygon fill="#651c85" stroke="#651c85" points="596.5,-860.07 603.1,-851.31 597.68,-854.86 598.63,-850.64 598.63,-850.64 598.63,-850.64 597.68,-854.86 594.32,-849.32 596.5,-860.07"/>
</g>
<!-- ApplicationRecord -->
<g id="node5" class="node">
<title>ApplicationRecord</title>
<ellipse fill="none" stroke="black" cx="918.5" cy="-1155.75" rx="81.04" ry="18"/>
<text text-anchor="middle" x="918.5" y="-1150.7" font-family="Times,serif" font-size="14.00">ApplicationRecord</text>
</g>
<!-- Bookmark -->
<g id="node7" class="node">
<title>Bookmark</title>
<path fill="none" stroke="black" d="M366,-170C366,-170 601,-170 601,-170 607,-170 613,-176 613,-182 613,-182 613,-273 613,-273 613,-279 607,-285 601,-285 601,-285 366,-285 366,-285 360,-285 354,-279 354,-273 354,-273 354,-182 354,-182 354,-176 360,-170 366,-170"/>
<text text-anchor="middle" x="483.5" y="-267.7" font-family="Times,serif" font-size="14.00">Bookmark</text>
<polyline fill="none" stroke="black" points="354,-260.5 613,-260.5"/>
<text text-anchor="start" x="362" y="-243.2" font-family="Times,serif" font-size="14.00">id :bigint</text>
<text text-anchor="start" x="362" y="-226.7" font-family="Times,serif" font-size="14.00">user_id :bigint</text>
<text text-anchor="start" x="362" y="-210.2" font-family="Times,serif" font-size="14.00">article_id :bigint</text>
<text text-anchor="start" x="362" y="-193.7" font-family="Times,serif" font-size="14.00">created_at :timestamp(6) without time zone</text>
<text text-anchor="start" x="362" y="-177.2" font-family="Times,serif" font-size="14.00">updated_at :timestamp(6) without time zone</text>
</g>
<!-- Article&#45;&gt;Bookmark -->
<g id="edge5" class="edge">
<title>Article&#45;&gt;Bookmark</title>
<path fill="none" stroke="#b14192" d="M531.18,-328.95C525.38,-316.74 519.88,-305.15 514.81,-294.48"/>
<polygon fill="#b14192" stroke="#b14192" points="531.21,-329.02 531.43,-339.98 533.5,-333.84 535.35,-337.75 535.35,-337.75 535.35,-337.75 533.5,-333.84 539.56,-336.12 531.21,-329.02"/>
<polygon fill="#b14192" stroke="#b14192" points="514.91,-294.67 514.68,-283.71 512.62,-289.85 510.76,-285.94 510.76,-285.94 510.76,-285.94 512.62,-289.85 506.55,-287.57 514.91,-294.67"/>
</g>
<!-- Category -->
<g id="node8" class="node">
<title>Category</title>
<path fill="none" stroke="black" d="M12,-178.25C12,-178.25 247,-178.25 247,-178.25 253,-178.25 259,-184.25 259,-190.25 259,-190.25 259,-264.75 259,-264.75 259,-270.75 253,-276.75 247,-276.75 247,-276.75 12,-276.75 12,-276.75 6,-276.75 0,-270.75 0,-264.75 0,-264.75 0,-190.25 0,-190.25 0,-184.25 6,-178.25 12,-178.25"/>
<text text-anchor="middle" x="129.5" y="-259.45" font-family="Times,serif" font-size="14.00">Category</text>
<polyline fill="none" stroke="black" points="0,-252.25 259,-252.25"/>
<text text-anchor="start" x="8" y="-234.95" font-family="Times,serif" font-size="14.00">id :bigint</text>
<text text-anchor="start" x="8" y="-218.45" font-family="Times,serif" font-size="14.00">name :character varying</text>
<text text-anchor="start" x="8" y="-201.95" font-family="Times,serif" font-size="14.00">created_at :timestamp(6) without time zone</text>
<text text-anchor="start" x="8" y="-185.45" font-family="Times,serif" font-size="14.00">updated_at :timestamp(6) without time zone</text>
</g>
<!-- Article&#45;&gt;Category -->
<g id="edge8" class="edge">
<title>Article&#45;&gt;Category</title>
<path fill="none" stroke="#090cba" d="M518.02,-497.22C419.16,-428.85 289.74,-339.33 208.08,-282.85"/>
<polygon fill="#090cba" stroke="#090cba" points="518.07,-497.25 523.73,-506.64 522.46,-500.29 526.02,-502.75 526.02,-502.75 526.02,-502.75 522.46,-500.29 528.85,-499.24 518.07,-497.25"/>
<polygon fill="#090cba" stroke="#090cba" points="208.34,-283.03 202.68,-273.64 203.96,-280 200.39,-277.53 200.39,-277.53 200.39,-277.53 203.96,-280 197.56,-281.04 208.34,-283.03"/>
</g>
<!-- CategoryArticle -->
<g id="node9" class="node">
<title>CategoryArticle</title>
<path fill="none" stroke="black" d="M70,-8.75C70,-8.75 305,-8.75 305,-8.75 311,-8.75 317,-14.75 317,-20.75 317,-20.75 317,-111.75 317,-111.75 317,-117.75 311,-123.75 305,-123.75 305,-123.75 70,-123.75 70,-123.75 64,-123.75 58,-117.75 58,-111.75 58,-111.75 58,-20.75 58,-20.75 58,-14.75 64,-8.75 70,-8.75"/>
<text text-anchor="middle" x="187.5" y="-106.45" font-family="Times,serif" font-size="14.00">CategoryArticle</text>
<polyline fill="none" stroke="black" points="58,-99.25 317,-99.25"/>
<text text-anchor="start" x="66" y="-81.95" font-family="Times,serif" font-size="14.00">id :bigint</text>
<text text-anchor="start" x="66" y="-65.45" font-family="Times,serif" font-size="14.00">category_id :bigint</text>
<text text-anchor="start" x="66" y="-48.95" font-family="Times,serif" font-size="14.00">article_id :bigint</text>
<text text-anchor="start" x="66" y="-32.45" font-family="Times,serif" font-size="14.00">created_at :timestamp(6) without time zone</text>
<text text-anchor="start" x="66" y="-15.95" font-family="Times,serif" font-size="14.00">updated_at :timestamp(6) without time zone</text>
</g>
<!-- Article&#45;&gt;CategoryArticle -->
<g id="edge7" class="edge">
<title>Article&#45;&gt;CategoryArticle</title>
<path fill="none" stroke="#5ef134" d="M518.98,-494.65C451.6,-440 374.42,-366.7 324.5,-285.5 294.41,-236.57 298.03,-218.16 267.5,-169.5 259.71,-157.09 250.72,-144.39 241.64,-132.35"/>
<polygon fill="#5ef134" stroke="#5ef134" points="518.67,-494.4 523.64,-504.18 522.83,-497.75 526.2,-500.46 526.2,-500.46 526.2,-500.46 522.83,-497.75 529.28,-497.17 518.67,-494.4"/>
<polygon fill="#5ef134" stroke="#5ef134" points="241.64,-132.34 239.13,-121.66 238.39,-128.1 235.76,-124.66 235.76,-124.66 235.76,-124.66 238.39,-128.1 231.99,-127.13 241.64,-132.34"/>
</g>
<!-- Like -->
<g id="node11" class="node">
<title>Like</title>
<path fill="none" stroke="black" d="M643,-170C643,-170 878,-170 878,-170 884,-170 890,-176 890,-182 890,-182 890,-273 890,-273 890,-279 884,-285 878,-285 878,-285 643,-285 643,-285 637,-285 631,-279 631,-273 631,-273 631,-182 631,-182 631,-176 637,-170 643,-170"/>
<text text-anchor="middle" x="760.5" y="-267.7" font-family="Times,serif" font-size="14.00">Like</text>
<polyline fill="none" stroke="black" points="631,-260.5 890,-260.5"/>
<text text-anchor="start" x="639" y="-243.2" font-family="Times,serif" font-size="14.00">id :bigint</text>
<text text-anchor="start" x="639" y="-226.7" font-family="Times,serif" font-size="14.00">user_id :bigint</text>
<text text-anchor="start" x="639" y="-210.2" font-family="Times,serif" font-size="14.00">article_id :bigint</text>
<text text-anchor="start" x="639" y="-193.7" font-family="Times,serif" font-size="14.00">created_at :timestamp(6) without time zone</text>
<text text-anchor="start" x="639" y="-177.2" font-family="Times,serif" font-size="14.00">updated_at :timestamp(6) without time zone</text>
</g>
<!-- Article&#45;&gt;Like -->
<g id="edge6" class="edge">
<title>Article&#45;&gt;Like</title>
<path fill="none" stroke="#07e1a4" d="M731.97,-328.51C735.31,-316.79 738.49,-305.65 741.43,-295.35"/>
<polygon fill="#07e1a4" stroke="#07e1a4" points="731.99,-328.42 724.92,-336.8 730.53,-333.55 729.34,-337.71 729.34,-337.71 729.34,-337.71 730.53,-333.55 733.57,-339.27 731.99,-328.42"/>
<polygon fill="#07e1a4" stroke="#07e1a4" points="741.45,-295.27 748.52,-286.89 742.91,-290.14 744.1,-285.98 744.1,-285.98 744.1,-285.98 742.91,-290.14 739.86,-284.42 741.45,-295.27"/>
</g>
<!-- User -->
<g id="node12" class="node">
<title>User</title>
<path fill="none" stroke="black" d="M366,-0.5C366,-0.5 601,-0.5 601,-0.5 607,-0.5 613,-6.5 613,-12.5 613,-12.5 613,-120 613,-120 613,-126 607,-132 601,-132 601,-132 366,-132 366,-132 360,-132 354,-126 354,-120 354,-120 354,-12.5 354,-12.5 354,-6.5 360,-0.5 366,-0.5"/>
<text text-anchor="middle" x="483.5" y="-114.7" font-family="Times,serif" font-size="14.00">User</text>
<polyline fill="none" stroke="black" points="354,-107.5 613,-107.5"/>
<text text-anchor="start" x="362" y="-90.2" font-family="Times,serif" font-size="14.00">id :bigint</text>
<text text-anchor="start" x="362" y="-73.7" font-family="Times,serif" font-size="14.00">email :character varying</text>
<text text-anchor="start" x="362" y="-57.2" font-family="Times,serif" font-size="14.00">created_at :timestamp(6) without time zone</text>
<text text-anchor="start" x="362" y="-40.7" font-family="Times,serif" font-size="14.00">updated_at :timestamp(6) without time zone</text>
<text text-anchor="start" x="362" y="-24.2" font-family="Times,serif" font-size="14.00">role :integer</text>
<text text-anchor="start" x="362" y="-7.7" font-family="Times,serif" font-size="14.00">username :character varying</text>
</g>
<!-- Article&#45;&gt;User -->
<g id="edge4" class="edge">
<title>Article&#45;&gt;User</title>
<path fill="none" stroke="#97e691" d="M518.65,-498.53C452.62,-444.7 380.26,-370.95 344.5,-285.5 324.6,-237.94 321.23,-215.51 344.5,-169.5 349.94,-158.74 357.1,-148.84 365.32,-139.8"/>
<polygon fill="#97e691" stroke="#97e691" points="518.63,-498.51 523.59,-508.29 522.78,-501.86 526.15,-504.58 526.15,-504.58 526.15,-504.58 522.78,-501.86 529.24,-501.29 518.63,-498.51"/>
<polygon fill="#97e691" stroke="#97e691" points="365.27,-139.84 375.45,-135.76 368.97,-136 371.98,-132.88 371.98,-132.88 371.98,-132.88 368.97,-136 368.97,-129.51 365.27,-139.84"/>
</g>
<!-- Impression -->
<g id="node13" class="node">
<title>Impression</title>
<ellipse fill="none" stroke="black" cx="960.5" cy="-227.5" rx="52.38" ry="18"/>
<text text-anchor="middle" x="960.5" y="-222.45" font-family="Times,serif" font-size="14.00">Impression</text>
</g>
<!-- Article&#45;&gt;Impression -->
<g id="edge9" class="edge">
<title>Article&#45;&gt;Impression</title>
<path fill="none" stroke="#c136dc" d="M792.98,-429.36C849.86,-361.16 909.67,-289.45 940.1,-252.96"/>
<polygon fill="#c136dc" stroke="#c136dc" points="792.92,-429.43 783.06,-434.22 789.51,-433.52 786.73,-436.85 786.73,-436.85 786.73,-436.85 789.51,-433.52 789.98,-439.99 792.92,-429.43"/>
<polygon fill="#c136dc" stroke="#c136dc" points="939.86,-253.24 949.73,-248.44 943.28,-249.15 946.06,-245.82 946.06,-245.82 946.06,-245.82 943.28,-249.15 942.81,-242.68 939.86,-253.24"/>
</g>
<!-- ActiveStorage::Attachment -->
<g id="node14" class="node">
<title>ActiveStorage::Attachment</title>
<ellipse fill="none" stroke="black" cx="1143.5" cy="-227.5" rx="112.26" ry="18"/>
<text text-anchor="middle" x="1143.5" y="-222.45" font-family="Times,serif" font-size="14.00">ActiveStorage::Attachment</text>
</g>
<!-- Article&#45;&gt;ActiveStorage::Attachment -->
<g id="edge10" class="edge">
<title>Article&#45;&gt;ActiveStorage::Attachment</title>
<path fill="none" stroke="#105af7" d="M794.58,-489.65C904.45,-407.42 1049.81,-298.62 1112.52,-251.69"/>
<polygon fill="#105af7" stroke="#105af7" points="794.64,-489.61 783.94,-492 790.37,-492.8 786.9,-495.4 786.9,-495.4 786.9,-495.4 790.37,-492.8 789.33,-499.2 794.64,-489.61"/>
<polygon fill="#105af7" stroke="#105af7" points="1112.54,-251.67 1123.24,-249.29 1116.81,-248.48 1120.27,-245.88 1120.27,-245.88 1120.27,-245.88 1116.81,-248.48 1117.85,-242.08 1112.54,-251.67"/>
<text text-anchor="middle" x="1079.88" y="-306.7" font-family="Times,serif" font-size="14.00">file_attachment</text>
</g>
<!-- ActiveStorage::Blob -->
<g id="node15" class="node">
<title>ActiveStorage::Blob</title>
<ellipse fill="none" stroke="black" cx="1360.5" cy="-227.5" rx="86.67" ry="18"/>
<text text-anchor="middle" x="1360.5" y="-222.45" font-family="Times,serif" font-size="14.00">ActiveStorage::Blob</text>
</g>
<!-- Article&#45;&gt;ActiveStorage::Blob -->
<g id="edge11" class="edge">
<title>Article&#45;&gt;ActiveStorage::Blob</title>
<path fill="none" stroke="#e19d9a" d="M795.41,-526.07C919.55,-465.47 1105.8,-372.61 1264.5,-285.5 1284.94,-274.28 1307.37,-261.01 1325.41,-250.11"/>
<polygon fill="#e19d9a" stroke="#e19d9a" points="795.5,-526.03 784.54,-526.37 790.71,-528.36 786.81,-530.26 786.81,-530.26 786.81,-530.26 790.71,-528.36 788.49,-534.45 795.5,-526.03"/>
<polygon fill="#e19d9a" stroke="#e19d9a" points="1325.05,-250.33 1335.93,-248.98 1329.61,-247.56 1333.31,-245.31 1333.31,-245.31 1333.31,-245.31 1329.61,-247.56 1331.26,-241.29 1325.05,-250.33"/>
<text text-anchor="middle" x="1239.88" y="-306.7" font-family="Times,serif" font-size="14.00">file_blob</text>
</g>
<!-- Bookmark&#45;&gt;User -->
<g id="edge12" class="edge">
<title>Bookmark&#45;&gt;User</title>
<path fill="none" stroke="#33b568" d="M483.5,-159.49C483.5,-153.88 483.5,-148.17 483.5,-142.5"/>
<polygon fill="#33b568" stroke="#33b568" points="483.5,-159.57 479,-169.57 483.5,-164.91 483.5,-169.24 483.5,-169.24 483.5,-169.24 483.5,-164.91 488,-169.57 483.5,-159.57"/>
<polygon fill="#33b568" stroke="#33b568" points="483.5,-142.69 488,-132.69 483.5,-137.35 483.5,-133.02 483.5,-133.02 483.5,-133.02 483.5,-137.35 479,-132.69 483.5,-142.69"/>
</g>
<!-- Category&#45;&gt;CategoryArticle -->
<g id="edge13" class="edge">
<title>Category&#45;&gt;CategoryArticle</title>
<path fill="none" stroke="#d5eeb8" d="M150.78,-168.07C154.87,-156.83 159.19,-144.98 163.37,-133.5"/>
<polygon fill="#d5eeb8" stroke="#d5eeb8" points="150.75,-168.14 143.1,-176 148.93,-173.16 147.45,-177.23 147.45,-177.23 147.45,-177.23 148.93,-173.16 151.56,-179.08 150.75,-168.14"/>
<polygon fill="#d5eeb8" stroke="#d5eeb8" points="163.3,-133.69 170.95,-125.83 165.13,-128.68 166.61,-124.61 166.61,-124.61 166.61,-124.61 165.13,-128.68 162.5,-122.75 163.3,-133.69"/>
</g>
<!-- Company -->
<g id="node10" class="node">
<title>Company</title>
<path fill="none" stroke="black" d="M1030,-1073.5C1030,-1073.5 1265,-1073.5 1265,-1073.5 1271,-1073.5 1277,-1079.5 1277,-1085.5 1277,-1085.5 1277,-1226 1277,-1226 1277,-1232 1271,-1238 1265,-1238 1265,-1238 1030,-1238 1030,-1238 1024,-1238 1018,-1232 1018,-1226 1018,-1226 1018,-1085.5 1018,-1085.5 1018,-1079.5 1024,-1073.5 1030,-1073.5"/>
<text text-anchor="middle" x="1147.5" y="-1220.7" font-family="Times,serif" font-size="14.00">Company</text>
<polyline fill="none" stroke="black" points="1018,-1213.5 1277,-1213.5"/>
<text text-anchor="start" x="1026" y="-1196.2" font-family="Times,serif" font-size="14.00">updated_at :timestamp(6) without time zone</text>
<text text-anchor="start" x="1026" y="-1179.7" font-family="Times,serif" font-size="14.00">name :character varying</text>
<text text-anchor="start" x="1026" y="-1163.2" font-family="Times,serif" font-size="14.00">area :integer</text>
<text text-anchor="start" x="1026" y="-1146.7" font-family="Times,serif" font-size="14.00">location :character varying</text>
<text text-anchor="start" x="1026" y="-1130.2" font-family="Times,serif" font-size="14.00">website_url :character varying</text>
<text text-anchor="start" x="1026" y="-1113.7" font-family="Times,serif" font-size="14.00">string :character varying</text>
<text text-anchor="start" x="1026" y="-1097.2" font-family="Times,serif" font-size="14.00">created_at :timestamp(6) without time zone</text>
<text text-anchor="start" x="1026" y="-1080.7" font-family="Times,serif" font-size="14.00">id :bigint</text>
</g>
<!-- Like&#45;&gt;User -->
<g id="edge14" class="edge">
<title>Like&#45;&gt;User</title>
<path fill="none" stroke="#37c5cc" d="M652.75,-164.55C637.3,-155.67 621.31,-146.48 605.61,-137.45"/>
<polygon fill="#37c5cc" stroke="#37c5cc" points="652.71,-164.53 659.14,-173.42 657.34,-167.19 661.09,-169.35 661.09,-169.35 661.09,-169.35 657.34,-167.19 663.62,-165.61 652.71,-164.53"/>
<polygon fill="#37c5cc" stroke="#37c5cc" points="605.88,-137.61 599.46,-128.72 601.26,-134.95 597.5,-132.79 597.5,-132.79 597.5,-132.79 601.26,-134.95 594.97,-136.53 605.88,-137.61"/>
</g>
</g>
</svg>
