<?xml version="1.0" encoding="UTF-8" standalone="no"?>
<!DOCTYPE svg PUBLIC "-//W3C//DTD SVG 1.1//EN"
 "http://www.w3.org/Graphics/SVG/1.1/DTD/svg11.dtd">
<!-- Generated by graphviz version 9.0.0 (20230911.1827)
 -->
<!-- Title: models_diagram Pages: 1 -->
<svg width="959pt" height="399pt"
 viewBox="0.00 0.00 958.54 398.50" xmlns="http://www.w3.org/2000/svg" xmlns:xlink="http://www.w3.org/1999/xlink">
<g id="graph0" class="graph" transform="scale(1 1) rotate(0) translate(4 394.5)">
<title>models_diagram</title>
<polygon fill="none" stroke="none" points="-4,4 -4,-394.5 954.54,-394.5 954.54,4 -4,4"/>
<!-- _diagram_info -->
<g id="node1" class="node">
<title>_diagram_info</title>
<text text-anchor="start" x="8" y="-374.15" font-family="Times,serif" font-size="13.00">Models diagram</text>
<text text-anchor="start" x="8" y="-359.15" font-family="Times,serif" font-size="13.00">Date: Mar 10 2024 &#45; 10:24</text>
<text text-anchor="start" x="8" y="-344.15" font-family="Times,serif" font-size="13.00">Migration version: 20240310011935</text>
<text text-anchor="start" x="8" y="-329.15" font-family="Times,serif" font-size="13.00">Generated by RailRoady 1.6.0</text>
<text text-anchor="start" x="8" y="-314.15" font-family="Times,serif" font-size="13.00">http://railroady.prestonlee.com</text>
</g>
<!-- Ability -->
<g id="node2" class="node">
<title>Ability</title>
<polygon fill="none" stroke="black" points="284,-367 229.75,-367 229.75,-331 284,-331 284,-367"/>
<text text-anchor="middle" x="256.88" y="-343.95" font-family="Times,serif" font-size="14.00">Ability</text>
</g>
<!-- Applicant -->
<g id="node3" class="node">
<title>Applicant</title>
<ellipse fill="none" stroke="black" cx="348.88" cy="-349" rx="47.26" ry="18"/>
<text text-anchor="middle" x="348.88" y="-343.95" font-family="Times,serif" font-size="14.00">Applicant</text>
</g>
<!-- ApplicantArticle -->
<g id="node4" class="node">
<title>ApplicantArticle</title>
<ellipse fill="none" stroke="black" cx="279.88" cy="-252.5" rx="72.85" ry="18"/>
<text text-anchor="middle" x="279.88" y="-247.45" font-family="Times,serif" font-size="14.00">ApplicantArticle</text>
</g>
<!-- Applicant&#45;&gt;ApplicantArticle -->
<g id="edge1" class="edge">
<title>Applicant&#45;&gt;ApplicantArticle</title>
<path fill="none" stroke="#048963" d="M330.87,-323.34C320.8,-309.55 308.28,-292.4 298.16,-278.55"/>
<polygon fill="#048963" stroke="#048963" points="330.76,-323.19 333.02,-333.92 333.91,-327.5 336.46,-331 336.46,-331 336.46,-331 333.91,-327.5 340.29,-328.62 330.76,-323.19"/>
<polygon fill="#048963" stroke="#048963" points="298.32,-278.75 296.05,-268.02 295.17,-274.45 292.62,-270.95 292.62,-270.95 292.62,-270.95 295.17,-274.45 288.78,-273.33 298.32,-278.75"/>
</g>
<!-- Article -->
<g id="node6" class="node">
<title>Article</title>
<ellipse fill="none" stroke="black" cx="329.88" cy="-179.5" rx="36.51" ry="18"/>
<text text-anchor="middle" x="329.88" y="-174.45" font-family="Times,serif" font-size="14.00">Article</text>
</g>
<!-- Applicant&#45;&gt;Article -->
<g id="edge2" class="edge">
<title>Applicant&#45;&gt;Article</title>
<path fill="none" stroke="#34a809" d="M357.65,-320.91C363.85,-297.63 369.78,-263.36 361.88,-234.5 359.05,-224.2 353.7,-213.88 348.18,-205.06"/>
<polygon fill="#34a809" stroke="#34a809" points="357.67,-320.83 350.59,-329.21 356.2,-325.96 355.01,-330.13 355.01,-330.13 355.01,-330.13 356.2,-325.96 359.25,-331.69 357.67,-320.83"/>
<polygon fill="#34a809" stroke="#34a809" points="348.18,-205.07 346.38,-194.25 345.22,-200.63 342.82,-197.03 342.82,-197.03 342.82,-197.03 345.22,-200.63 338.89,-199.25 348.18,-205.07"/>
</g>
<!-- ApplicantArticle&#45;&gt;Article -->
<g id="edge3" class="edge">
<title>ApplicantArticle&#45;&gt;Article</title>
<path fill="none" stroke="#fe311f" d="M297.92,-225.87C302.68,-219.12 307.8,-211.84 312.52,-205.14"/>
<polygon fill="#fe311f" stroke="#fe311f" points="297.93,-225.86 288.49,-231.45 294.86,-230.22 292.36,-233.77 292.36,-233.77 292.36,-233.77 294.86,-230.22 295.85,-236.63 297.93,-225.86"/>
<polygon fill="#fe311f" stroke="#fe311f" points="312.28,-205.49 321.71,-199.9 315.35,-201.13 317.84,-197.59 317.84,-197.59 317.84,-197.59 315.35,-201.13 314.36,-194.72 312.28,-205.49"/>
</g>
<!-- ApplicationRecord -->
<g id="node5" class="node">
<title>ApplicationRecord</title>
<ellipse fill="none" stroke="black" cx="494.88" cy="-349" rx="81.04" ry="18"/>
<text text-anchor="middle" x="494.88" y="-343.95" font-family="Times,serif" font-size="14.00">ApplicationRecord</text>
</g>
<!-- Bookmark -->
<g id="node7" class="node">
<title>Bookmark</title>
<ellipse fill="none" stroke="black" cx="269.88" cy="-91" rx="50.33" ry="18"/>
<text text-anchor="middle" x="269.88" y="-85.95" font-family="Times,serif" font-size="14.00">Bookmark</text>
</g>
<!-- Article&#45;&gt;Bookmark -->
<g id="edge5" class="edge">
<title>Article&#45;&gt;Bookmark</title>
<path fill="none" stroke="#cc8df3" d="M312.72,-153.77C304.76,-142.29 295.3,-128.66 287.3,-117.13"/>
<polygon fill="#cc8df3" stroke="#cc8df3" points="312.7,-153.74 314.7,-164.52 315.74,-158.12 318.21,-161.68 318.21,-161.68 318.21,-161.68 315.74,-158.12 322.1,-159.39 312.7,-153.74"/>
<polygon fill="#cc8df3" stroke="#cc8df3" points="287.41,-117.28 285.41,-106.5 284.37,-112.9 281.9,-109.34 281.9,-109.34 281.9,-109.34 284.37,-112.9 278.01,-111.63 287.41,-117.28"/>
</g>
<!-- Category -->
<g id="node8" class="node">
<title>Category</title>
<ellipse fill="none" stroke="black" cx="80.88" cy="-91" rx="44.7" ry="18"/>
<text text-anchor="middle" x="80.88" y="-85.95" font-family="Times,serif" font-size="14.00">Category</text>
</g>
<!-- Article&#45;&gt;Category -->
<g id="edge8" class="edge">
<title>Article&#45;&gt;Category</title>
<path fill="none" stroke="#0f502d" d="M283.23,-176.78C243.4,-173.75 185.48,-165.53 139.88,-143.5 125.69,-136.65 112.26,-125.45 101.8,-115.24"/>
<polygon fill="#0f502d" stroke="#0f502d" points="283.14,-176.78 292.81,-181.95 288.46,-177.14 292.78,-177.43 292.78,-177.43 292.78,-177.43 288.46,-177.14 293.42,-172.97 283.14,-176.78"/>
<polygon fill="#0f502d" stroke="#0f502d" points="101.99,-115.43 98.19,-105.14 98.25,-111.63 95.22,-108.54 95.22,-108.54 95.22,-108.54 98.25,-111.63 91.77,-111.45 101.99,-115.43"/>
</g>
<!-- CategoryArticle -->
<g id="node9" class="node">
<title>CategoryArticle</title>
<ellipse fill="none" stroke="black" cx="140.88" cy="-18" rx="70.29" ry="18"/>
<text text-anchor="middle" x="140.88" y="-12.95" font-family="Times,serif" font-size="14.00">CategoryArticle</text>
</g>
<!-- Article&#45;&gt;CategoryArticle -->
<g id="edge7" class="edge">
<title>Article&#45;&gt;CategoryArticle</title>
<path fill="none" stroke="#2d1f2c" d="M285.06,-171.14C264.26,-166.02 240.16,-157.51 221.88,-143.5 188.18,-117.69 164.33,-73.6 151.59,-45.41"/>
<polygon fill="#2d1f2c" stroke="#2d1f2c" points="284.88,-171.1 293.64,-177.7 290.08,-172.28 294.31,-173.24 294.31,-173.24 294.31,-173.24 290.08,-172.28 295.63,-168.92 284.88,-171.1"/>
<polygon fill="#2d1f2c" stroke="#2d1f2c" points="151.69,-45.63 151.81,-34.66 149.55,-40.74 147.82,-36.77 147.82,-36.77 147.82,-36.77 149.55,-40.74 143.56,-38.26 151.69,-45.63"/>
</g>
<!-- Like -->
<g id="node11" class="node">
<title>Like</title>
<ellipse fill="none" stroke="black" cx="365.88" cy="-91" rx="27.81" ry="18"/>
<text text-anchor="middle" x="365.88" y="-85.95" font-family="Times,serif" font-size="14.00">Like</text>
</g>
<!-- Article&#45;&gt;Like -->
<g id="edge6" class="edge">
<title>Article&#45;&gt;Like</title>
<path fill="none" stroke="#1e0b39" d="M341,-151.77C345.43,-141.14 350.51,-128.93 354.92,-118.33"/>
<polygon fill="#1e0b39" stroke="#1e0b39" points="340.96,-151.87 332.96,-159.37 338.91,-156.79 337.24,-160.79 337.24,-160.79 337.24,-160.79 338.91,-156.79 341.27,-162.83 340.96,-151.87"/>
<polygon fill="#1e0b39" stroke="#1e0b39" points="354.93,-118.3 362.93,-110.8 356.98,-113.38 358.64,-109.38 358.64,-109.38 358.64,-109.38 356.98,-113.38 354.62,-107.34 354.93,-118.3"/>
</g>
<!-- User -->
<g id="node12" class="node">
<title>User</title>
<ellipse fill="none" stroke="black" cx="269.88" cy="-18" rx="28.32" ry="18"/>
<text text-anchor="middle" x="269.88" y="-12.95" font-family="Times,serif" font-size="14.00">User</text>
</g>
<!-- Article&#45;&gt;User -->
<g id="edge4" class="edge">
<title>Article&#45;&gt;User</title>
<path fill="none" stroke="#833745" d="M288.63,-166.38C261.28,-155.95 227.48,-137.92 210.88,-109 202.91,-95.12 204.43,-87.64 210.88,-73 217.22,-58.58 229.54,-46.34 241.28,-37.17"/>
<polygon fill="#833745" stroke="#833745" points="288.64,-166.38 296.53,-174 293.66,-168.19 297.74,-169.65 297.74,-169.65 297.74,-169.65 293.66,-168.19 299.57,-165.53 288.64,-166.38"/>
<polygon fill="#833745" stroke="#833745" points="241.29,-37.16 252.02,-34.88 245.6,-34.01 249.09,-31.45 249.09,-31.45 249.09,-31.45 245.6,-34.01 246.7,-27.62 241.29,-37.16"/>
</g>
<!-- Impression -->
<g id="node13" class="node">
<title>Impression</title>
<ellipse fill="none" stroke="black" cx="463.88" cy="-91" rx="52.38" ry="18"/>
<text text-anchor="middle" x="463.88" y="-85.95" font-family="Times,serif" font-size="14.00">Impression</text>
</g>
<!-- Article&#45;&gt;Impression -->
<g id="edge9" class="edge">
<title>Article&#45;&gt;Impression</title>
<path fill="none" stroke="#26a1b3" d="M359.87,-159.14C381.17,-145.39 409.74,-126.94 431.55,-112.87"/>
<polygon fill="#26a1b3" stroke="#26a1b3" points="360.09,-159 349.24,-160.64 355.61,-161.89 351.97,-164.24 351.97,-164.24 351.97,-164.24 355.61,-161.89 354.13,-168.2 360.09,-159"/>
<polygon fill="#26a1b3" stroke="#26a1b3" points="431.46,-112.93 442.3,-111.28 435.94,-110.03 439.58,-107.68 439.58,-107.68 439.58,-107.68 435.94,-110.03 437.42,-103.72 431.46,-112.93"/>
</g>
<!-- ActiveStorage::Attachment -->
<g id="node14" class="node">
<title>ActiveStorage::Attachment</title>
<ellipse fill="none" stroke="black" cx="646.88" cy="-91" rx="112.26" ry="18"/>
<text text-anchor="middle" x="646.88" y="-85.95" font-family="Times,serif" font-size="14.00">ActiveStorage::Attachment</text>
</g>
<!-- Article&#45;&gt;ActiveStorage::Attachment -->
<g id="edge10" class="edge">
<title>Article&#45;&gt;ActiveStorage::Attachment</title>
<path fill="none" stroke="#c14fed" d="M371.43,-167.16C425,-152.54 518.76,-126.96 581.82,-109.75"/>
<polygon fill="#c14fed" stroke="#c14fed" points="371.4,-167.17 360.57,-165.46 366.25,-168.57 362.07,-169.71 362.07,-169.71 362.07,-169.71 366.25,-168.57 362.94,-174.14 371.4,-167.17"/>
<polygon fill="#c14fed" stroke="#c14fed" points="581.69,-109.79 592.53,-111.49 586.84,-108.38 591.02,-107.24 591.02,-107.24 591.02,-107.24 586.84,-108.38 590.16,-102.81 581.69,-109.79"/>
<text text-anchor="middle" x="558.25" y="-130.2" font-family="Times,serif" font-size="14.00">file_attachment</text>
</g>
<!-- ActiveStorage::Blob -->
<g id="node15" class="node">
<title>ActiveStorage::Blob</title>
<ellipse fill="none" stroke="black" cx="863.88" cy="-91" rx="86.67" ry="18"/>
<text text-anchor="middle" x="863.88" y="-85.95" font-family="Times,serif" font-size="14.00">ActiveStorage::Blob</text>
</g>
<!-- Article&#45;&gt;ActiveStorage::Blob -->
<g id="edge11" class="edge">
<title>Article&#45;&gt;ActiveStorage::Blob</title>
<path fill="none" stroke="#d808aa" d="M375.66,-173.66C430.35,-167.65 524.55,-156.58 604.88,-143.5 669.89,-132.91 743.5,-117.99 795.59,-106.93"/>
<polygon fill="#d808aa" stroke="#d808aa" points="375.86,-173.64 365.43,-170.25 370.56,-174.22 366.25,-174.69 366.25,-174.69 366.25,-174.69 370.56,-174.22 366.41,-179.2 375.86,-173.64"/>
<polygon fill="#d808aa" stroke="#d808aa" points="795.6,-106.93 806.32,-109.24 800.82,-105.81 805.06,-104.91 805.06,-104.91 805.06,-104.91 800.82,-105.81 804.44,-100.44 795.6,-106.93"/>
<text text-anchor="middle" x="714.25" y="-130.2" font-family="Times,serif" font-size="14.00">file_blob</text>
</g>
<!-- Bookmark&#45;&gt;User -->
<g id="edge12" class="edge">
<title>Bookmark&#45;&gt;User</title>
<path fill="none" stroke="#b19bdc" d="M269.88,-62.46C269.88,-57.17 269.88,-51.64 269.88,-46.35"/>
<polygon fill="#b19bdc" stroke="#b19bdc" points="269.88,-62.48 265.38,-72.48 269.88,-67.81 269.88,-72.14 269.88,-72.14 269.88,-72.14 269.88,-67.81 274.38,-72.48 269.88,-62.48"/>
<polygon fill="#b19bdc" stroke="#b19bdc" points="269.88,-46.36 274.38,-36.36 269.88,-41.03 269.88,-36.7 269.88,-36.7 269.88,-36.7 269.88,-41.03 265.38,-36.36 269.88,-46.36"/>
</g>
<!-- Category&#45;&gt;CategoryArticle -->
<g id="edge13" class="edge">
<title>Category&#45;&gt;CategoryArticle</title>
<path fill="none" stroke="#d7a775" d="M101.44,-65.66C107.4,-58.61 113.91,-50.9 119.9,-43.82"/>
<polygon fill="#d7a775" stroke="#d7a775" points="101.46,-65.64 91.57,-70.37 98.02,-69.71 95.22,-73.02 95.22,-73.02 95.22,-73.02 98.02,-69.71 98.44,-76.18 101.46,-65.64"/>
<polygon fill="#d7a775" stroke="#d7a775" points="119.95,-43.76 129.84,-39.03 123.39,-39.69 126.19,-36.38 126.19,-36.38 126.19,-36.38 123.39,-39.69 122.96,-33.22 119.95,-43.76"/>
</g>
<!-- Company -->
<g id="node10" class="node">
<title>Company</title>
<ellipse fill="none" stroke="black" cx="640.88" cy="-349" rx="47.26" ry="18"/>
<text text-anchor="middle" x="640.88" y="-343.95" font-family="Times,serif" font-size="14.00">Company</text>
</g>
<!-- Like&#45;&gt;User -->
<g id="edge14" class="edge">
<title>Like&#45;&gt;User</title>
<path fill="none" stroke="#38f955" d="M340.07,-70.92C326.35,-60.77 309.53,-48.33 295.8,-38.17"/>
<polygon fill="#38f955" stroke="#38f955" points="339.96,-70.83 345.32,-80.4 344.25,-74 347.73,-76.58 347.73,-76.58 347.73,-76.58 344.25,-74 350.67,-73.16 339.96,-70.83"/>
<polygon fill="#38f955" stroke="#38f955" points="296.01,-38.33 290.64,-28.76 291.72,-35.15 288.23,-32.58 288.23,-32.58 288.23,-32.58 291.72,-35.15 285.29,-36 296.01,-38.33"/>
</g>
</g>
</svg>
