<?xml version="1.0" encoding="UTF-8" standalone="no"?>
<!DOCTYPE svg PUBLIC "-//W3C//DTD SVG 1.1//EN"
 "http://www.w3.org/Graphics/SVG/1.1/DTD/svg11.dtd">
<!-- Generated by graphviz version 9.0.0 (20230911.1827)
 -->
<!-- Title: models_diagram Pages: 1 -->
<svg width="1625pt" height="1433pt"
 viewBox="0.00 0.00 1625.25 1433.00" xmlns="http://www.w3.org/2000/svg" xmlns:xlink="http://www.w3.org/1999/xlink">
<g id="graph0" class="graph" transform="scale(1 1) rotate(0) translate(4 1429)">
<title>models_diagram</title>
<polygon fill="none" stroke="none" points="-4,4 -4,-1429 1621.25,-1429 1621.25,4 -4,4"/>
<!-- _diagram_info -->
<g id="node1" class="node">
<title>_diagram_info</title>
<text text-anchor="start" x="315.38" y="-1342.65" font-family="Times,serif" font-size="13.00">Models diagram</text>
<text text-anchor="start" x="315.38" y="-1327.65" font-family="Times,serif" font-size="13.00">Date: Sep 20 2024 &#45; 23:47</text>
<text text-anchor="start" x="315.38" y="-1312.65" font-family="Times,serif" font-size="13.00">Migration version: 20240919133444</text>
<text text-anchor="start" x="315.38" y="-1297.65" font-family="Times,serif" font-size="13.00">Generated by RailRoady 1.6.0</text>
<text text-anchor="start" x="315.38" y="-1282.65" font-family="Times,serif" font-size="13.00">http://railroady.prestonlee.com</text>
</g>
<!-- Ability -->
<g id="node2" class="node">
<title>Ability</title>
<polygon fill="none" stroke="black" points="538.88,-1293 538.88,-1342 593.12,-1342 593.12,-1293 538.88,-1293"/>
<text text-anchor="middle" x="566" y="-1324.7" font-family="Times,serif" font-size="14.00">Ability</text>
<polyline fill="none" stroke="black" points="538.88,-1317.5 593.12,-1317.5"/>
<text text-anchor="middle" x="566" y="-1300.2" font-family="Times,serif" font-size="14.00"> </text>
</g>
<!-- Applicant -->
<g id="node3" class="node">
<title>Applicant</title>
<path fill="none" stroke="black" d="M623.5,-1210.5C623.5,-1210.5 858.5,-1210.5 858.5,-1210.5 864.5,-1210.5 870.5,-1216.5 870.5,-1222.5 870.5,-1222.5 870.5,-1412.5 870.5,-1412.5 870.5,-1418.5 864.5,-1424.5 858.5,-1424.5 858.5,-1424.5 623.5,-1424.5 623.5,-1424.5 617.5,-1424.5 611.5,-1418.5 611.5,-1412.5 611.5,-1412.5 611.5,-1222.5 611.5,-1222.5 611.5,-1216.5 617.5,-1210.5 623.5,-1210.5"/>
<text text-anchor="middle" x="741" y="-1407.2" font-family="Times,serif" font-size="14.00">Applicant</text>
<polyline fill="none" stroke="black" points="611.5,-1400 870.5,-1400"/>
<text text-anchor="start" x="619.5" y="-1382.7" font-family="Times,serif" font-size="14.00">desired_salary :text</text>
<text text-anchor="start" x="619.5" y="-1366.2" font-family="Times,serif" font-size="14.00">name :character varying</text>
<text text-anchor="start" x="619.5" y="-1349.7" font-family="Times,serif" font-size="14.00">user_id :integer</text>
<text text-anchor="start" x="619.5" y="-1333.2" font-family="Times,serif" font-size="14.00">created_at :timestamp(6) without time zone</text>
<text text-anchor="start" x="619.5" y="-1316.7" font-family="Times,serif" font-size="14.00">updated_at :timestamp(6) without time zone</text>
<text text-anchor="start" x="619.5" y="-1300.2" font-family="Times,serif" font-size="14.00">birthday :date</text>
<text text-anchor="start" x="619.5" y="-1283.7" font-family="Times,serif" font-size="14.00">age :integer</text>
<text text-anchor="start" x="619.5" y="-1267.2" font-family="Times,serif" font-size="14.00">nationality :integer</text>
<text text-anchor="start" x="619.5" y="-1250.7" font-family="Times,serif" font-size="14.00">phone_number :integer</text>
<text text-anchor="start" x="619.5" y="-1234.2" font-family="Times,serif" font-size="14.00">self_introduction :text</text>
<text text-anchor="start" x="619.5" y="-1217.7" font-family="Times,serif" font-size="14.00">id :bigint</text>
</g>
<!-- ApplicantArticle -->
<g id="node4" class="node">
<title>ApplicantArticle</title>
<path fill="none" stroke="black" d="M623.5,-1057.5C623.5,-1057.5 858.5,-1057.5 858.5,-1057.5 864.5,-1057.5 870.5,-1063.5 870.5,-1069.5 870.5,-1069.5 870.5,-1160.5 870.5,-1160.5 870.5,-1166.5 864.5,-1172.5 858.5,-1172.5 858.5,-1172.5 623.5,-1172.5 623.5,-1172.5 617.5,-1172.5 611.5,-1166.5 611.5,-1160.5 611.5,-1160.5 611.5,-1069.5 611.5,-1069.5 611.5,-1063.5 617.5,-1057.5 623.5,-1057.5"/>
<text text-anchor="middle" x="741" y="-1155.2" font-family="Times,serif" font-size="14.00">ApplicantArticle</text>
<polyline fill="none" stroke="black" points="611.5,-1148 870.5,-1148"/>
<text text-anchor="start" x="619.5" y="-1130.7" font-family="Times,serif" font-size="14.00">id :bigint</text>
<text text-anchor="start" x="619.5" y="-1114.2" font-family="Times,serif" font-size="14.00">applicant_id :bigint</text>
<text text-anchor="start" x="619.5" y="-1097.7" font-family="Times,serif" font-size="14.00">article_id :bigint</text>
<text text-anchor="start" x="619.5" y="-1081.2" font-family="Times,serif" font-size="14.00">created_at :timestamp(6) without time zone</text>
<text text-anchor="start" x="619.5" y="-1064.7" font-family="Times,serif" font-size="14.00">updated_at :timestamp(6) without time zone</text>
</g>
<!-- Applicant&#45;&gt;ApplicantArticle -->
<g id="edge1" class="edge">
<title>Applicant&#45;&gt;ApplicantArticle</title>
<path fill="none" stroke="#fa2436" d="M741,-1199.9C741,-1194.21 741,-1188.6 741,-1183.13"/>
<polygon fill="#fa2436" stroke="#fa2436" points="741,-1199.75 736.5,-1209.75 741,-1205.09 741,-1209.42 741,-1209.42 741,-1209.42 741,-1205.09 745.5,-1209.75 741,-1199.75"/>
<polygon fill="#fa2436" stroke="#fa2436" points="741,-1183.15 745.5,-1173.15 741,-1177.82 741,-1173.49 741,-1173.49 741,-1173.49 741,-1177.82 736.5,-1173.15 741,-1183.15"/>
</g>
<!-- Article -->
<g id="node6" class="node">
<title>Article</title>
<path fill="none" stroke="black" d="M781.5,-541.5C781.5,-541.5 1016.5,-541.5 1016.5,-541.5 1022.5,-541.5 1028.5,-547.5 1028.5,-553.5 1028.5,-553.5 1028.5,-1007.5 1028.5,-1007.5 1028.5,-1013.5 1022.5,-1019.5 1016.5,-1019.5 1016.5,-1019.5 781.5,-1019.5 781.5,-1019.5 775.5,-1019.5 769.5,-1013.5 769.5,-1007.5 769.5,-1007.5 769.5,-553.5 769.5,-553.5 769.5,-547.5 775.5,-541.5 781.5,-541.5"/>
<text text-anchor="middle" x="899" y="-1002.2" font-family="Times,serif" font-size="14.00">Article</text>
<polyline fill="none" stroke="black" points="769.5,-995 1028.5,-995"/>
<text text-anchor="start" x="777.5" y="-977.7" font-family="Times,serif" font-size="14.00">status :integer</text>
<text text-anchor="start" x="777.5" y="-961.2" font-family="Times,serif" font-size="14.00">body :text</text>
<text text-anchor="start" x="777.5" y="-944.7" font-family="Times,serif" font-size="14.00">user_id :bigint</text>
<text text-anchor="start" x="777.5" y="-928.2" font-family="Times,serif" font-size="14.00">created_at :timestamp(6) without time zone</text>
<text text-anchor="start" x="777.5" y="-911.7" font-family="Times,serif" font-size="14.00">updated_at :timestamp(6) without time zone</text>
<text text-anchor="start" x="777.5" y="-895.2" font-family="Times,serif" font-size="14.00">impressions_count :integer</text>
<text text-anchor="start" x="777.5" y="-878.7" font-family="Times,serif" font-size="14.00">start_time :timestamp(6) without time zone</text>
<text text-anchor="start" x="777.5" y="-862.2" font-family="Times,serif" font-size="14.00">end_time :timestamp(6) without time zone</text>
<text text-anchor="start" x="777.5" y="-845.7" font-family="Times,serif" font-size="14.00">title :character varying</text>
<text text-anchor="start" x="777.5" y="-829.2" font-family="Times,serif" font-size="14.00">application_deadline :date</text>
<text text-anchor="start" x="777.5" y="-812.7" font-family="Times,serif" font-size="14.00">salary_details :text</text>
<text text-anchor="start" x="777.5" y="-796.2" font-family="Times,serif" font-size="14.00">work_location :character varying</text>
<text text-anchor="start" x="777.5" y="-779.7" font-family="Times,serif" font-size="14.00">language_requirement :character varying</text>
<text text-anchor="start" x="777.5" y="-763.2" font-family="Times,serif" font-size="14.00">japanese_level :character varying</text>
<text text-anchor="start" x="777.5" y="-746.7" font-family="Times,serif" font-size="14.00">skills_required :text</text>
<text text-anchor="start" x="777.5" y="-730.2" font-family="Times,serif" font-size="14.00">employment_type :character varying</text>
<text text-anchor="start" x="777.5" y="-713.7" font-family="Times,serif" font-size="14.00">description :text</text>
<text text-anchor="start" x="777.5" y="-697.2" font-family="Times,serif" font-size="14.00">work_hours :character varying</text>
<text text-anchor="start" x="777.5" y="-680.7" font-family="Times,serif" font-size="14.00">trial_period :character varying</text>
<text text-anchor="start" x="777.5" y="-664.2" font-family="Times,serif" font-size="14.00">days_off :character varying</text>
<text text-anchor="start" x="777.5" y="-647.7" font-family="Times,serif" font-size="14.00">overtime :character varying</text>
<text text-anchor="start" x="777.5" y="-631.2" font-family="Times,serif" font-size="14.00">transportation :character varying</text>
<text text-anchor="start" x="777.5" y="-614.7" font-family="Times,serif" font-size="14.00">work_environment :character varying</text>
<text text-anchor="start" x="777.5" y="-598.2" font-family="Times,serif" font-size="14.00">other_allowances :character varying</text>
<text text-anchor="start" x="777.5" y="-581.7" font-family="Times,serif" font-size="14.00">insurance :character varying</text>
<text text-anchor="start" x="777.5" y="-565.2" font-family="Times,serif" font-size="14.00">other_benefits :character varying</text>
<text text-anchor="start" x="777.5" y="-548.7" font-family="Times,serif" font-size="14.00">id :bigint</text>
</g>
<!-- Applicant&#45;&gt;Article -->
<g id="edge2" class="edge">
<title>Applicant&#45;&gt;Article</title>
<path fill="none" stroke="#f56e22" d="M863.33,-1201.94C869.36,-1192.63 874.69,-1182.96 879,-1173 898.15,-1128.76 908.23,-1079.02 912.8,-1030.22"/>
<polygon fill="#f56e22" stroke="#f56e22" points="863.41,-1201.83 854.07,-1207.58 860.41,-1206.25 857.98,-1209.83 857.98,-1209.83 857.98,-1209.83 860.41,-1206.25 861.52,-1212.63 863.41,-1201.83"/>
<polygon fill="#f56e22" stroke="#f56e22" points="912.81,-1030.12 918.15,-1020.55 913.26,-1024.81 913.63,-1020.49 913.63,-1020.49 913.63,-1020.49 913.26,-1024.81 909.18,-1019.78 912.81,-1030.12"/>
</g>
<!-- User -->
<g id="node13" class="node">
<title>User</title>
<path fill="none" stroke="black" d="M438.5,-89C438.5,-89 673.5,-89 673.5,-89 679.5,-89 685.5,-95 685.5,-101 685.5,-101 685.5,-274.5 685.5,-274.5 685.5,-280.5 679.5,-286.5 673.5,-286.5 673.5,-286.5 438.5,-286.5 438.5,-286.5 432.5,-286.5 426.5,-280.5 426.5,-274.5 426.5,-274.5 426.5,-101 426.5,-101 426.5,-95 432.5,-89 438.5,-89"/>
<text text-anchor="middle" x="556" y="-269.2" font-family="Times,serif" font-size="14.00">User</text>
<polyline fill="none" stroke="black" points="426.5,-262 685.5,-262"/>
<text text-anchor="start" x="434.5" y="-244.7" font-family="Times,serif" font-size="14.00">uid :character varying</text>
<text text-anchor="start" x="434.5" y="-228.2" font-family="Times,serif" font-size="14.00">email :character varying</text>
<text text-anchor="start" x="434.5" y="-211.7" font-family="Times,serif" font-size="14.00">created_at :timestamp(6) without time zone</text>
<text text-anchor="start" x="434.5" y="-195.2" font-family="Times,serif" font-size="14.00">updated_at :timestamp(6) without time zone</text>
<text text-anchor="start" x="434.5" y="-178.7" font-family="Times,serif" font-size="14.00">role :integer</text>
<text text-anchor="start" x="434.5" y="-162.2" font-family="Times,serif" font-size="14.00">username :character varying</text>
<text text-anchor="start" x="434.5" y="-145.7" font-family="Times,serif" font-size="14.00">avatar :character varying</text>
<text text-anchor="start" x="434.5" y="-129.2" font-family="Times,serif" font-size="14.00">rolable_type :character varying</text>
<text text-anchor="start" x="434.5" y="-112.7" font-family="Times,serif" font-size="14.00">rolable_id :bigint</text>
<text text-anchor="start" x="434.5" y="-96.2" font-family="Times,serif" font-size="14.00">id :bigint</text>
</g>
<!-- Applicant&#45;&gt;User -->
<g id="edge3" class="edge">
<title>Applicant&#45;&gt;User</title>
<path fill="none" stroke="#596ce2" d="M601.44,-1210.49C479.36,-1167.79 110,-1224.27 110,-1116 110,-1116 110,-1116 110,-413 110,-379.26 106.19,-364.37 129,-339.5 202.83,-259 322.29,-221.48 416.11,-203.99"/>
<polygon fill="#596ce2" stroke="#596ce2" points="601.53,-1210.52 609.16,-1218.39 606.48,-1212.49 610.51,-1214.08 610.51,-1214.08 610.51,-1214.08 606.48,-1212.49 612.48,-1210.02 601.53,-1210.52"/>
<polygon fill="#596ce2" stroke="#596ce2" points="416.09,-203.99 426.73,-206.64 421.34,-203.05 425.6,-202.28 425.6,-202.28 425.6,-202.28 421.34,-203.05 425.13,-197.79 416.09,-203.99"/>
</g>
<!-- ActiveStorage::Attachment -->
<g id="node14" class="node">
<title>ActiveStorage::Attachment</title>
<ellipse fill="none" stroke="black" cx="389" cy="-18" rx="112.26" ry="18"/>
<text text-anchor="middle" x="389" y="-12.95" font-family="Times,serif" font-size="14.00">ActiveStorage::Attachment</text>
</g>
<!-- Applicant&#45;&gt;ActiveStorage::Attachment -->
<g id="edge4" class="edge">
<title>Applicant&#45;&gt;ActiveStorage::Attachment</title>
<path fill="none" stroke="#3bcfc4" d="M601.67,-1210.55C454.36,-1165.69 0,-1248.36 0,-1116 0,-1116 0,-1116 0,-186.75 0,-68.33 153.89,-32.51 268.08,-22.24"/>
<polygon fill="#3bcfc4" stroke="#3bcfc4" points="601.55,-1210.51 609.56,-1218 606.6,-1212.23 610.7,-1213.63 610.7,-1213.63 610.7,-1213.63 606.6,-1212.23 612.47,-1209.48 601.55,-1210.51"/>
<polygon fill="#3bcfc4" stroke="#3bcfc4" points="268.01,-22.24 278.35,-25.89 273.33,-21.79 277.64,-21.43 277.64,-21.43 277.64,-21.43 273.33,-21.79 277.6,-16.92 268.01,-22.24"/>
<text text-anchor="middle" x="47.62" y="-509.7" font-family="Times,serif" font-size="14.00">files_attachments</text>
</g>
<!-- ActiveStorage::Blob -->
<g id="node15" class="node">
<title>ActiveStorage::Blob</title>
<ellipse fill="none" stroke="black" cx="1494" cy="-18" rx="86.67" ry="18"/>
<text text-anchor="middle" x="1494" y="-12.95" font-family="Times,serif" font-size="14.00">ActiveStorage::Blob</text>
</g>
<!-- Applicant&#45;&gt;ActiveStorage::Blob -->
<g id="edge5" class="edge">
<title>Applicant&#45;&gt;ActiveStorage::Blob</title>
<path fill="none" stroke="#ccdddb" d="M880.46,-1210.48C1042.18,-1156.03 1558,-1264.99 1558,-1116 1558,-1116 1558,-1116 1558,-186.75 1558,-133.7 1529.71,-77.04 1510.75,-45.02"/>
<polygon fill="#ccdddb" stroke="#ccdddb" points="880.45,-1210.48 869.5,-1209.79 875.45,-1212.36 871.4,-1213.88 871.4,-1213.88 871.4,-1213.88 875.45,-1212.36 872.67,-1218.21 880.45,-1210.48"/>
<polygon fill="#ccdddb" stroke="#ccdddb" points="1510.81,-45.12 1509.46,-34.24 1508.04,-40.56 1505.79,-36.86 1505.79,-36.86 1505.79,-36.86 1508.04,-40.56 1501.77,-38.91 1510.81,-45.12"/>
<text text-anchor="middle" x="1587.62" y="-509.7" font-family="Times,serif" font-size="14.00">files_blobs</text>
</g>
<!-- ApplicantArticle&#45;&gt;Article -->
<g id="edge6" class="edge">
<title>ApplicantArticle&#45;&gt;Article</title>
<path fill="none" stroke="#6f3894" d="M772.42,-1047.88C775.31,-1041.8 778.33,-1035.44 781.46,-1028.86"/>
<polygon fill="#6f3894" stroke="#6f3894" points="772.42,-1047.88 764.06,-1054.99 770.13,-1052.7 768.27,-1056.61 768.27,-1056.61 768.27,-1056.61 770.13,-1052.7 772.19,-1058.85 772.42,-1047.88"/>
<polygon fill="#6f3894" stroke="#6f3894" points="781.35,-1029.08 789.71,-1021.98 783.64,-1024.26 785.5,-1020.35 785.5,-1020.35 785.5,-1020.35 783.64,-1024.26 781.58,-1018.12 781.35,-1029.08"/>
</g>
<!-- ApplicationRecord -->
<g id="node5" class="node">
<title>ApplicationRecord</title>
<ellipse fill="none" stroke="black" cx="970" cy="-1317.5" rx="81.04" ry="18"/>
<text text-anchor="middle" x="970" y="-1312.45" font-family="Times,serif" font-size="14.00">ApplicationRecord</text>
</g>
<!-- Bookmark -->
<g id="node7" class="node">
<title>Bookmark</title>
<path fill="none" stroke="black" d="M781.5,-356.5C781.5,-356.5 1016.5,-356.5 1016.5,-356.5 1022.5,-356.5 1028.5,-362.5 1028.5,-368.5 1028.5,-368.5 1028.5,-459.5 1028.5,-459.5 1028.5,-465.5 1022.5,-471.5 1016.5,-471.5 1016.5,-471.5 781.5,-471.5 781.5,-471.5 775.5,-471.5 769.5,-465.5 769.5,-459.5 769.5,-459.5 769.5,-368.5 769.5,-368.5 769.5,-362.5 775.5,-356.5 781.5,-356.5"/>
<text text-anchor="middle" x="899" y="-454.2" font-family="Times,serif" font-size="14.00">Bookmark</text>
<polyline fill="none" stroke="black" points="769.5,-447 1028.5,-447"/>
<text text-anchor="start" x="777.5" y="-429.7" font-family="Times,serif" font-size="14.00">id :bigint</text>
<text text-anchor="start" x="777.5" y="-413.2" font-family="Times,serif" font-size="14.00">user_id :bigint</text>
<text text-anchor="start" x="777.5" y="-396.7" font-family="Times,serif" font-size="14.00">article_id :bigint</text>
<text text-anchor="start" x="777.5" y="-380.2" font-family="Times,serif" font-size="14.00">created_at :timestamp(6) without time zone</text>
<text text-anchor="start" x="777.5" y="-363.7" font-family="Times,serif" font-size="14.00">updated_at :timestamp(6) without time zone</text>
</g>
<!-- Article&#45;&gt;Bookmark -->
<g id="edge8" class="edge">
<title>Article&#45;&gt;Bookmark</title>
<path fill="none" stroke="#4756c9" d="M899,-530.85C899,-513.48 899,-497.04 899,-482.3"/>
<polygon fill="#4756c9" stroke="#4756c9" points="899,-530.87 894.5,-540.87 899,-536.21 899,-540.54 899,-540.54 899,-540.54 899,-536.21 903.5,-540.87 899,-530.87"/>
<polygon fill="#4756c9" stroke="#4756c9" points="899,-482.21 903.5,-472.21 899,-476.88 899,-472.55 899,-472.55 899,-472.55 899,-476.88 894.5,-472.21 899,-482.21"/>
</g>
<!-- Category -->
<g id="node8" class="node">
<title>Category</title>
<path fill="none" stroke="black" d="M1058.5,-364.75C1058.5,-364.75 1293.5,-364.75 1293.5,-364.75 1299.5,-364.75 1305.5,-370.75 1305.5,-376.75 1305.5,-376.75 1305.5,-451.25 1305.5,-451.25 1305.5,-457.25 1299.5,-463.25 1293.5,-463.25 1293.5,-463.25 1058.5,-463.25 1058.5,-463.25 1052.5,-463.25 1046.5,-457.25 1046.5,-451.25 1046.5,-451.25 1046.5,-376.75 1046.5,-376.75 1046.5,-370.75 1052.5,-364.75 1058.5,-364.75"/>
<text text-anchor="middle" x="1176" y="-445.95" font-family="Times,serif" font-size="14.00">Category</text>
<polyline fill="none" stroke="black" points="1046.5,-438.75 1305.5,-438.75"/>
<text text-anchor="start" x="1054.5" y="-421.45" font-family="Times,serif" font-size="14.00">id :bigint</text>
<text text-anchor="start" x="1054.5" y="-404.95" font-family="Times,serif" font-size="14.00">name :character varying</text>
<text text-anchor="start" x="1054.5" y="-388.45" font-family="Times,serif" font-size="14.00">created_at :timestamp(6) without time zone</text>
<text text-anchor="start" x="1054.5" y="-371.95" font-family="Times,serif" font-size="14.00">updated_at :timestamp(6) without time zone</text>
</g>
<!-- Article&#45;&gt;Category -->
<g id="edge11" class="edge">
<title>Article&#45;&gt;Category</title>
<path fill="none" stroke="#99bd74" d="M1035.14,-600.36C1070.64,-553.64 1106.36,-506.64 1132.94,-471.66"/>
<polygon fill="#99bd74" stroke="#99bd74" points="1035.24,-600.23 1025.6,-605.47 1032.01,-604.48 1029.39,-607.92 1029.39,-607.92 1029.39,-607.92 1032.01,-604.48 1032.77,-610.91 1035.24,-600.23"/>
<polygon fill="#99bd74" stroke="#99bd74" points="1132.9,-471.72 1142.53,-466.48 1136.13,-467.47 1138.75,-464.02 1138.75,-464.02 1138.75,-464.02 1136.13,-467.47 1135.37,-461.03 1132.9,-471.72"/>
</g>
<!-- CategoryArticle -->
<g id="node9" class="node">
<title>CategoryArticle</title>
<path fill="none" stroke="black" d="M1138.5,-130.25C1138.5,-130.25 1373.5,-130.25 1373.5,-130.25 1379.5,-130.25 1385.5,-136.25 1385.5,-142.25 1385.5,-142.25 1385.5,-233.25 1385.5,-233.25 1385.5,-239.25 1379.5,-245.25 1373.5,-245.25 1373.5,-245.25 1138.5,-245.25 1138.5,-245.25 1132.5,-245.25 1126.5,-239.25 1126.5,-233.25 1126.5,-233.25 1126.5,-142.25 1126.5,-142.25 1126.5,-136.25 1132.5,-130.25 1138.5,-130.25"/>
<text text-anchor="middle" x="1256" y="-227.95" font-family="Times,serif" font-size="14.00">CategoryArticle</text>
<polyline fill="none" stroke="black" points="1126.5,-220.75 1385.5,-220.75"/>
<text text-anchor="start" x="1134.5" y="-203.45" font-family="Times,serif" font-size="14.00">id :bigint</text>
<text text-anchor="start" x="1134.5" y="-186.95" font-family="Times,serif" font-size="14.00">category_id :bigint</text>
<text text-anchor="start" x="1134.5" y="-170.45" font-family="Times,serif" font-size="14.00">article_id :bigint</text>
<text text-anchor="start" x="1134.5" y="-153.95" font-family="Times,serif" font-size="14.00">created_at :timestamp(6) without time zone</text>
<text text-anchor="start" x="1134.5" y="-137.45" font-family="Times,serif" font-size="14.00">updated_at :timestamp(6) without time zone</text>
</g>
<!-- Article&#45;&gt;CategoryArticle -->
<g id="edge10" class="edge">
<title>Article&#45;&gt;CategoryArticle</title>
<path fill="none" stroke="#9b741d" d="M1038.87,-747.14C1167.7,-709.11 1351.43,-632.08 1437,-488.5 1470.9,-431.62 1465.1,-399.47 1437,-339.5 1420.67,-304.66 1391.9,-275.06 1362.03,-251.56"/>
<polygon fill="#9b741d" stroke="#9b741d" points="1038.84,-747.15 1027.98,-745.62 1033.72,-748.64 1029.56,-749.85 1029.56,-749.85 1029.56,-749.85 1033.72,-748.64 1030.49,-754.27 1038.84,-747.15"/>
<polygon fill="#9b741d" stroke="#9b741d" points="1362.21,-251.7 1357.01,-242.04 1357.97,-248.45 1354.53,-245.82 1354.53,-245.82 1354.53,-245.82 1357.97,-248.45 1351.53,-249.19 1362.21,-251.7"/>
</g>
<!-- Like -->
<g id="node12" class="node">
<title>Like</title>
<path fill="none" stroke="black" d="M504.5,-356.5C504.5,-356.5 739.5,-356.5 739.5,-356.5 745.5,-356.5 751.5,-362.5 751.5,-368.5 751.5,-368.5 751.5,-459.5 751.5,-459.5 751.5,-465.5 745.5,-471.5 739.5,-471.5 739.5,-471.5 504.5,-471.5 504.5,-471.5 498.5,-471.5 492.5,-465.5 492.5,-459.5 492.5,-459.5 492.5,-368.5 492.5,-368.5 492.5,-362.5 498.5,-356.5 504.5,-356.5"/>
<text text-anchor="middle" x="622" y="-454.2" font-family="Times,serif" font-size="14.00">Like</text>
<polyline fill="none" stroke="black" points="492.5,-447 751.5,-447"/>
<text text-anchor="start" x="500.5" y="-429.7" font-family="Times,serif" font-size="14.00">id :bigint</text>
<text text-anchor="start" x="500.5" y="-413.2" font-family="Times,serif" font-size="14.00">user_id :bigint</text>
<text text-anchor="start" x="500.5" y="-396.7" font-family="Times,serif" font-size="14.00">article_id :bigint</text>
<text text-anchor="start" x="500.5" y="-380.2" font-family="Times,serif" font-size="14.00">created_at :timestamp(6) without time zone</text>
<text text-anchor="start" x="500.5" y="-363.7" font-family="Times,serif" font-size="14.00">updated_at :timestamp(6) without time zone</text>
</g>
<!-- Article&#45;&gt;Like -->
<g id="edge9" class="edge">
<title>Article&#45;&gt;Like</title>
<path fill="none" stroke="#21fe85" d="M762.88,-600.38C730.1,-557.25 697.15,-513.89 671.37,-479.96"/>
<polygon fill="#21fe85" stroke="#21fe85" points="762.76,-600.23 765.23,-610.91 765.99,-604.48 768.61,-607.92 768.61,-607.92 768.61,-607.92 765.99,-604.48 772.4,-605.47 762.76,-600.23"/>
<polygon fill="#21fe85" stroke="#21fe85" points="671.56,-480.22 669.09,-469.53 668.33,-475.97 665.71,-472.52 665.71,-472.52 665.71,-472.52 668.33,-475.97 661.93,-474.98 671.56,-480.22"/>
</g>
<!-- Article&#45;&gt;User -->
<g id="edge7" class="edge">
<title>Article&#45;&gt;User</title>
<path fill="none" stroke="#8669ca" d="M759.72,-723.97C662.77,-677.07 540.88,-599.63 483,-488.5 451.88,-428.75 468.96,-355.36 494.39,-296.16"/>
<polygon fill="#8669ca" stroke="#8669ca" points="759.7,-723.96 766.78,-732.33 764.51,-726.26 768.42,-728.13 768.42,-728.13 768.42,-728.13 764.51,-726.26 770.66,-724.21 759.7,-723.96"/>
<polygon fill="#8669ca" stroke="#8669ca" points="494.35,-296.23 502.51,-288.91 496.51,-291.35 498.26,-287.39 498.26,-287.39 498.26,-287.39 496.51,-291.35 494.28,-285.26 494.35,-296.23"/>
</g>
<!-- Article&#45;&gt;ActiveStorage::Attachment -->
<g id="edge13" class="edge">
<title>Article&#45;&gt;ActiveStorage::Attachment</title>
<path fill="none" stroke="#6c0975" d="M759.8,-726.55C658.73,-680.15 528.63,-602.19 463,-488.5 427.55,-427.1 434.19,-404.56 406,-339.5 402.46,-331.34 399.36,-330.14 397.25,-321.5 373.08,-222.67 380.76,-100.26 385.93,-46.5"/>
<polygon fill="#6c0975" stroke="#6c0975" points="759.77,-726.53 767.02,-734.76 764.63,-728.74 768.57,-730.52 768.57,-730.52 768.57,-730.52 764.63,-728.74 770.74,-726.56 759.77,-726.53"/>
<polygon fill="#6c0975" stroke="#6c0975" points="385.91,-46.68 391.39,-37.18 386.45,-41.37 386.88,-37.06 386.88,-37.06 386.88,-37.06 386.45,-41.37 382.44,-36.27 385.91,-46.68"/>
<text text-anchor="middle" x="440.38" y="-308.2" font-family="Times,serif" font-size="14.00">file_attachment</text>
</g>
<!-- Article&#45;&gt;ActiveStorage::Blob -->
<g id="edge14" class="edge">
<title>Article&#45;&gt;ActiveStorage::Blob</title>
<path fill="none" stroke="#2d05f2" d="M1038.76,-758.59C1182.46,-728.18 1394.49,-655.82 1462,-488.5 1494.65,-407.58 1495.09,-134.8 1494.34,-46.7"/>
<polygon fill="#2d05f2" stroke="#2d05f2" points="1039.08,-758.52 1028.38,-756.14 1033.86,-759.6 1029.62,-760.48 1029.62,-760.48 1029.62,-760.48 1033.86,-759.6 1030.21,-764.96 1039.08,-758.52"/>
<polygon fill="#2d05f2" stroke="#2d05f2" points="1494.34,-46.77 1498.75,-36.72 1494.29,-41.43 1494.25,-37.1 1494.25,-37.1 1494.25,-37.1 1494.29,-41.43 1489.75,-36.81 1494.34,-46.77"/>
<text text-anchor="middle" x="1512.38" y="-308.2" font-family="Times,serif" font-size="14.00">file_blob</text>
</g>
<!-- Impression -->
<g id="node16" class="node">
<title>Impression</title>
<ellipse fill="none" stroke="black" cx="1376" cy="-414" rx="52.38" ry="18"/>
<text text-anchor="middle" x="1376" y="-408.95" font-family="Times,serif" font-size="14.00">Impression</text>
</g>
<!-- Article&#45;&gt;Impression -->
<g id="edge12" class="edge">
<title>Article&#45;&gt;Impression</title>
<path fill="none" stroke="#b04ba5" d="M1037.54,-695.95C1121.94,-641.91 1229.6,-567.15 1315,-488.5 1330.91,-473.85 1346.44,-455.05 1357.85,-440.14"/>
<polygon fill="#b04ba5" stroke="#b04ba5" points="1037.64,-695.89 1026.79,-697.47 1033.15,-698.76 1029.49,-701.09 1029.49,-701.09 1029.49,-701.09 1033.15,-698.76 1031.63,-705.06 1037.64,-695.89"/>
<polygon fill="#b04ba5" stroke="#b04ba5" points="1357.85,-440.13 1367.46,-434.83 1361.06,-435.86 1363.66,-432.4 1363.66,-432.4 1363.66,-432.4 1361.06,-435.86 1360.26,-429.43 1357.85,-440.13"/>
</g>
<!-- Bookmark&#45;&gt;User -->
<g id="edge15" class="edge">
<title>Bookmark&#45;&gt;User</title>
<path fill="none" stroke="#036eb3" d="M803.36,-350.47C769.48,-328.32 730.66,-302.94 693.97,-278.96"/>
<polygon fill="#036eb3" stroke="#036eb3" points="803.35,-350.47 809.26,-359.71 807.82,-353.39 811.44,-355.76 811.44,-355.76 811.44,-355.76 807.82,-353.39 814.19,-352.17 803.35,-350.47"/>
<polygon fill="#036eb3" stroke="#036eb3" points="694.34,-279.2 688.43,-269.96 689.87,-276.28 686.25,-273.91 686.25,-273.91 686.25,-273.91 689.87,-276.28 683.51,-277.49 694.34,-279.2"/>
</g>
<!-- Category&#45;&gt;CategoryArticle -->
<g id="edge16" class="edge">
<title>Category&#45;&gt;CategoryArticle</title>
<path fill="none" stroke="#7d0096" d="M1196.82,-354.65C1207.68,-324.2 1221.02,-286.8 1232.28,-255.23"/>
<polygon fill="#7d0096" stroke="#7d0096" points="1196.83,-354.61 1189.23,-362.51 1195.04,-359.63 1193.58,-363.71 1193.58,-363.71 1193.58,-363.71 1195.04,-359.63 1197.71,-365.54 1196.83,-354.61"/>
<polygon fill="#7d0096" stroke="#7d0096" points="1232.23,-255.37 1239.83,-247.46 1234.03,-250.34 1235.48,-246.26 1235.48,-246.26 1235.48,-246.26 1234.03,-250.34 1231.36,-244.44 1232.23,-255.37"/>
</g>
<!-- Company -->
<g id="node10" class="node">
<title>Company</title>
<path fill="none" stroke="black" d="M150.5,-698.25C150.5,-698.25 385.5,-698.25 385.5,-698.25 391.5,-698.25 397.5,-704.25 397.5,-710.25 397.5,-710.25 397.5,-850.75 397.5,-850.75 397.5,-856.75 391.5,-862.75 385.5,-862.75 385.5,-862.75 150.5,-862.75 150.5,-862.75 144.5,-862.75 138.5,-856.75 138.5,-850.75 138.5,-850.75 138.5,-710.25 138.5,-710.25 138.5,-704.25 144.5,-698.25 150.5,-698.25"/>
<text text-anchor="middle" x="268" y="-845.45" font-family="Times,serif" font-size="14.00">Company</text>
<polyline fill="none" stroke="black" points="138.5,-838.25 397.5,-838.25"/>
<text text-anchor="start" x="146.5" y="-820.95" font-family="Times,serif" font-size="14.00">updated_at :timestamp(6) without time zone</text>
<text text-anchor="start" x="146.5" y="-804.45" font-family="Times,serif" font-size="14.00">name :character varying</text>
<text text-anchor="start" x="146.5" y="-787.95" font-family="Times,serif" font-size="14.00">area :integer</text>
<text text-anchor="start" x="146.5" y="-771.45" font-family="Times,serif" font-size="14.00">location :character varying</text>
<text text-anchor="start" x="146.5" y="-754.95" font-family="Times,serif" font-size="14.00">website_url :character varying</text>
<text text-anchor="start" x="146.5" y="-738.45" font-family="Times,serif" font-size="14.00">string :character varying</text>
<text text-anchor="start" x="146.5" y="-721.95" font-family="Times,serif" font-size="14.00">created_at :timestamp(6) without time zone</text>
<text text-anchor="start" x="146.5" y="-705.45" font-family="Times,serif" font-size="14.00">id :bigint</text>
</g>
<!-- Employee -->
<g id="node11" class="node">
<title>Employee</title>
<path fill="none" stroke="black" d="M150.5,-340C150.5,-340 385.5,-340 385.5,-340 391.5,-340 397.5,-346 397.5,-352 397.5,-352 397.5,-476 397.5,-476 397.5,-482 391.5,-488 385.5,-488 385.5,-488 150.5,-488 150.5,-488 144.5,-488 138.5,-482 138.5,-476 138.5,-476 138.5,-352 138.5,-352 138.5,-346 144.5,-340 150.5,-340"/>
<text text-anchor="middle" x="268" y="-470.7" font-family="Times,serif" font-size="14.00">Employee</text>
<polyline fill="none" stroke="black" points="138.5,-463.5 397.5,-463.5"/>
<text text-anchor="start" x="146.5" y="-446.2" font-family="Times,serif" font-size="14.00">id :bigint</text>
<text text-anchor="start" x="146.5" y="-429.7" font-family="Times,serif" font-size="14.00">name :character varying</text>
<text text-anchor="start" x="146.5" y="-413.2" font-family="Times,serif" font-size="14.00">department :character varying</text>
<text text-anchor="start" x="146.5" y="-396.7" font-family="Times,serif" font-size="14.00">position :character varying</text>
<text text-anchor="start" x="146.5" y="-380.2" font-family="Times,serif" font-size="14.00">user_id :integer</text>
<text text-anchor="start" x="146.5" y="-363.7" font-family="Times,serif" font-size="14.00">created_at :timestamp(6) without time zone</text>
<text text-anchor="start" x="146.5" y="-347.2" font-family="Times,serif" font-size="14.00">updated_at :timestamp(6) without time zone</text>
</g>
<!-- Company&#45;&gt;Employee -->
<g id="edge17" class="edge">
<title>Company&#45;&gt;Employee</title>
<path fill="none" stroke="#d6c9e3" d="M268,-688.02C268,-629.91 268,-555.26 268,-498.7"/>
<polygon fill="#d6c9e3" stroke="#d6c9e3" points="268,-687.82 263.5,-697.82 268,-693.15 268,-697.48 268,-697.48 268,-697.48 268,-693.15 272.5,-697.82 268,-687.82"/>
<polygon fill="#d6c9e3" stroke="#d6c9e3" points="268,-498.7 272.5,-488.7 268,-493.36 268,-489.03 268,-489.03 268,-489.03 268,-493.36 263.5,-488.7 268,-498.7"/>
</g>
<!-- Employee&#45;&gt;User -->
<g id="edge18" class="edge">
<title>Employee&#45;&gt;User</title>
<path fill="none" stroke="#6046ed" d="M341.96,-332.62C352.06,-322.95 362.55,-313.5 373,-305 387.04,-293.58 402.27,-282.35 417.74,-271.64"/>
<polygon fill="#6046ed" stroke="#6046ed" points="342.09,-332.49 331.78,-336.23 338.27,-336.21 335.16,-339.23 335.16,-339.23 335.16,-339.23 338.27,-336.21 338.06,-342.69 342.09,-332.49"/>
<polygon fill="#6046ed" stroke="#6046ed" points="417.82,-271.58 428.62,-269.64 422.23,-268.56 425.8,-266.12 425.8,-266.12 425.8,-266.12 422.23,-268.56 423.53,-262.22 417.82,-271.58"/>
</g>
<!-- Like&#45;&gt;User -->
<g id="edge19" class="edge">
<title>Like&#45;&gt;User</title>
<path fill="none" stroke="#7db857" d="M602.37,-346.29C597.78,-330.72 592.79,-313.74 587.83,-296.89"/>
<polygon fill="#7db857" stroke="#7db857" points="602.34,-346.21 600.85,-357.07 603.85,-351.33 605.07,-355.48 605.07,-355.48 605.07,-355.48 603.85,-351.33 609.48,-354.53 602.34,-346.21"/>
<polygon fill="#7db857" stroke="#7db857" points="587.83,-296.9 589.32,-286.04 586.32,-291.78 585.1,-287.63 585.1,-287.63 585.1,-287.63 586.32,-291.78 580.69,-288.58 587.83,-296.9"/>
</g>
<!-- User&#45;&gt;ActiveStorage::Attachment -->
<g id="edge21" class="edge">
<title>User&#45;&gt;ActiveStorage::Attachment</title>
<path fill="none" stroke="#9ef7a6" d="M451.3,-81.58C437.14,-67.36 423.85,-54.01 413.21,-43.32"/>
<polygon fill="#9ef7a6" stroke="#9ef7a6" points="451.08,-81.36 454.95,-91.62 454.84,-85.14 457.9,-88.21 457.9,-88.21 457.9,-88.21 454.84,-85.14 461.33,-85.27 451.08,-81.36"/>
<polygon fill="#9ef7a6" stroke="#9ef7a6" points="413.25,-43.36 409.38,-33.1 409.49,-39.58 406.43,-36.51 406.43,-36.51 406.43,-36.51 409.49,-39.58 403.01,-39.45 413.25,-43.36"/>
<text text-anchor="middle" x="488.88" y="-57.2" font-family="Times,serif" font-size="14.00">avatar_attachment</text>
</g>
<!-- User&#45;&gt;ActiveStorage::Blob -->
<g id="edge22" class="edge">
<title>User&#45;&gt;ActiveStorage::Blob</title>
<path fill="none" stroke="#e3ce34" d="M695.93,-161.73C897.76,-125.63 1263.49,-60.22 1419.86,-32.26"/>
<polygon fill="#e3ce34" stroke="#e3ce34" points="696.11,-161.69 685.47,-159.02 690.85,-162.63 686.59,-163.4 686.59,-163.4 686.59,-163.4 690.85,-162.63 687.05,-167.88 696.11,-161.69"/>
<polygon fill="#e3ce34" stroke="#e3ce34" points="1419.68,-32.29 1430.31,-34.96 1424.93,-31.35 1429.19,-30.59 1429.19,-30.59 1429.19,-30.59 1424.93,-31.35 1428.73,-26.1 1419.68,-32.29"/>
<text text-anchor="middle" x="1322.88" y="-57.2" font-family="Times,serif" font-size="14.00">avatar_blob</text>
</g>
<!-- Rolable -->
<g id="node17" class="node">
<title>Rolable</title>
<ellipse fill="none" stroke="black" cx="559" cy="-18" rx="39.58" ry="18"/>
<text text-anchor="middle" x="559" y="-12.95" font-family="Times,serif" font-size="14.00">Rolable</text>
</g>
<!-- User&#45;&gt;Rolable -->
<g id="edge20" class="edge">
<title>User&#45;&gt;Rolable</title>
<path fill="none" stroke="#5758c3" d="M557.94,-78.38C558.15,-66.79 558.34,-55.89 558.51,-46.66"/>
<polygon fill="#5758c3" stroke="#5758c3" points="557.94,-78.35 553.26,-88.27 557.84,-83.68 557.77,-88.01 557.77,-88.01 557.77,-88.01 557.84,-83.68 562.26,-88.43 557.94,-78.35"/>
<polygon fill="#5758c3" stroke="#5758c3" points="558.51,-46.64 563.18,-36.73 558.6,-41.31 558.68,-36.98 558.68,-36.98 558.68,-36.98 558.6,-41.31 554.19,-36.57 558.51,-46.64"/>
</g>
</g>
</svg>
