<?xml version="1.0" encoding="UTF-8" standalone="no"?>
<!DOCTYPE svg PUBLIC "-//W3C//DTD SVG 1.1//EN"
 "http://www.w3.org/Graphics/SVG/1.1/DTD/svg11.dtd">
<!-- Generated by graphviz version 9.0.0 (20230911.1827)
 -->
<!-- Title: models_diagram Pages: 1 -->
<svg width="1455pt" height="818pt"
 viewBox="0.00 0.00 1455.17 817.50" xmlns="http://www.w3.org/2000/svg" xmlns:xlink="http://www.w3.org/1999/xlink">
<g id="graph0" class="graph" transform="scale(1 1) rotate(0) translate(4 813.5)">
<title>models_diagram</title>
<polygon fill="none" stroke="none" points="-4,4 -4,-813.5 1451.17,-813.5 1451.17,4 -4,4"/>
<!-- _diagram_info -->
<g id="node1" class="node">
<title>_diagram_info</title>
<text text-anchor="start" x="243.88" y="-784.9" font-family="Times,serif" font-size="13.00">Models diagram</text>
<text text-anchor="start" x="243.88" y="-769.9" font-family="Times,serif" font-size="13.00">Date: Oct 19 2023 &#45; 17:23</text>
<text text-anchor="start" x="243.88" y="-754.9" font-family="Times,serif" font-size="13.00">Migration version: 20231008063216</text>
<text text-anchor="start" x="243.88" y="-739.9" font-family="Times,serif" font-size="13.00">Generated by RailRoady 1.6.0</text>
<text text-anchor="start" x="243.88" y="-724.9" font-family="Times,serif" font-size="13.00">http://railroady.prestonlee.com</text>
</g>
<!-- ApplicationRecord -->
<g id="node2" class="node">
<title>ApplicationRecord</title>
<ellipse fill="none" stroke="black" cx="548.5" cy="-759.75" rx="81.04" ry="18"/>
<text text-anchor="middle" x="548.5" y="-754.7" font-family="Times,serif" font-size="14.00">ApplicationRecord</text>
</g>
<!-- Article -->
<g id="node3" class="node">
<title>Article</title>
<path fill="none" stroke="black" d="M531,-338.5C531,-338.5 766,-338.5 766,-338.5 772,-338.5 778,-344.5 778,-350.5 778,-350.5 778,-507.5 778,-507.5 778,-513.5 772,-519.5 766,-519.5 766,-519.5 531,-519.5 531,-519.5 525,-519.5 519,-513.5 519,-507.5 519,-507.5 519,-350.5 519,-350.5 519,-344.5 525,-338.5 531,-338.5"/>
<text text-anchor="middle" x="648.5" y="-502.2" font-family="Times,serif" font-size="14.00">Article</text>
<polyline fill="none" stroke="black" points="519,-495 778,-495"/>
<text text-anchor="start" x="527" y="-477.7" font-family="Times,serif" font-size="14.00">end_time :timestamp(6) without time zone</text>
<text text-anchor="start" x="527" y="-461.2" font-family="Times,serif" font-size="14.00">body :text</text>
<text text-anchor="start" x="527" y="-444.7" font-family="Times,serif" font-size="14.00">user_id :bigint</text>
<text text-anchor="start" x="527" y="-428.2" font-family="Times,serif" font-size="14.00">created_at :timestamp(6) without time zone</text>
<text text-anchor="start" x="527" y="-411.7" font-family="Times,serif" font-size="14.00">updated_at :timestamp(6) without time zone</text>
<text text-anchor="start" x="527" y="-395.2" font-family="Times,serif" font-size="14.00">impressions_count :integer</text>
<text text-anchor="start" x="527" y="-378.7" font-family="Times,serif" font-size="14.00">file :character varying</text>
<text text-anchor="start" x="527" y="-362.2" font-family="Times,serif" font-size="14.00">start_time :timestamp(6) without time zone</text>
<text text-anchor="start" x="527" y="-345.7" font-family="Times,serif" font-size="14.00">id :bigint</text>
</g>
<!-- Bookmark -->
<g id="node4" class="node">
<title>Bookmark</title>
<path fill="none" stroke="black" d="M12,-161.75C12,-161.75 247,-161.75 247,-161.75 253,-161.75 259,-167.75 259,-173.75 259,-173.75 259,-264.75 259,-264.75 259,-270.75 253,-276.75 247,-276.75 247,-276.75 12,-276.75 12,-276.75 6,-276.75 0,-270.75 0,-264.75 0,-264.75 0,-173.75 0,-173.75 0,-167.75 6,-161.75 12,-161.75"/>
<text text-anchor="middle" x="129.5" y="-259.45" font-family="Times,serif" font-size="14.00">Bookmark</text>
<polyline fill="none" stroke="black" points="0,-252.25 259,-252.25"/>
<text text-anchor="start" x="8" y="-234.95" font-family="Times,serif" font-size="14.00">id :bigint</text>
<text text-anchor="start" x="8" y="-218.45" font-family="Times,serif" font-size="14.00">user_id :bigint</text>
<text text-anchor="start" x="8" y="-201.95" font-family="Times,serif" font-size="14.00">article_id :bigint</text>
<text text-anchor="start" x="8" y="-185.45" font-family="Times,serif" font-size="14.00">created_at :timestamp(6) without time zone</text>
<text text-anchor="start" x="8" y="-168.95" font-family="Times,serif" font-size="14.00">updated_at :timestamp(6) without time zone</text>
</g>
<!-- Article&#45;&gt;Bookmark -->
<g id="edge4" class="edge">
<title>Article&#45;&gt;Bookmark</title>
<path fill="none" stroke="#486a26" d="M509.03,-379.01C436.44,-352.72 346.57,-318.91 267.5,-285.5 264.23,-284.12 260.92,-282.7 257.59,-281.26"/>
<polygon fill="#486a26" stroke="#486a26" points="508.98,-378.99 516.86,-386.63 514,-380.81 518.07,-382.28 518.07,-382.28 518.07,-382.28 514,-380.81 519.92,-378.16 508.98,-378.99"/>
<polygon fill="#486a26" stroke="#486a26" points="257.62,-281.27 250.26,-273.14 252.73,-279.13 248.76,-277.39 248.76,-277.39 248.76,-277.39 252.73,-279.13 246.65,-281.38 257.62,-281.27"/>
</g>
<!-- Like -->
<g id="node7" class="node">
<title>Like</title>
<path fill="none" stroke="black" d="M289,-161.75C289,-161.75 524,-161.75 524,-161.75 530,-161.75 536,-167.75 536,-173.75 536,-173.75 536,-264.75 536,-264.75 536,-270.75 530,-276.75 524,-276.75 524,-276.75 289,-276.75 289,-276.75 283,-276.75 277,-270.75 277,-264.75 277,-264.75 277,-173.75 277,-173.75 277,-167.75 283,-161.75 289,-161.75"/>
<text text-anchor="middle" x="406.5" y="-259.45" font-family="Times,serif" font-size="14.00">Like</text>
<polyline fill="none" stroke="black" points="277,-252.25 536,-252.25"/>
<text text-anchor="start" x="285" y="-234.95" font-family="Times,serif" font-size="14.00">id :bigint</text>
<text text-anchor="start" x="285" y="-218.45" font-family="Times,serif" font-size="14.00">user_id :bigint</text>
<text text-anchor="start" x="285" y="-201.95" font-family="Times,serif" font-size="14.00">article_id :bigint</text>
<text text-anchor="start" x="285" y="-185.45" font-family="Times,serif" font-size="14.00">created_at :timestamp(6) without time zone</text>
<text text-anchor="start" x="285" y="-168.95" font-family="Times,serif" font-size="14.00">updated_at :timestamp(6) without time zone</text>
</g>
<!-- Article&#45;&gt;Like -->
<g id="edge5" class="edge">
<title>Article&#45;&gt;Like</title>
<path fill="none" stroke="#9104fb" d="M536.1,-331.51C517.09,-315.19 497.8,-298.63 480.11,-283.44"/>
<polygon fill="#9104fb" stroke="#9104fb" points="535.92,-331.35 540.58,-341.28 539.97,-334.83 543.26,-337.65 543.26,-337.65 543.26,-337.65 539.97,-334.83 546.44,-334.45 535.92,-331.35"/>
<polygon fill="#9104fb" stroke="#9104fb" points="480.48,-283.76 475.82,-273.83 476.43,-280.28 473.14,-277.46 473.14,-277.46 473.14,-277.46 476.43,-280.28 469.96,-280.66 480.48,-283.76"/>
</g>
<!-- Person -->
<g id="node8" class="node">
<title>Person</title>
<path fill="none" stroke="black" d="M643,-153.5C643,-153.5 878,-153.5 878,-153.5 884,-153.5 890,-159.5 890,-165.5 890,-165.5 890,-273 890,-273 890,-279 884,-285 878,-285 878,-285 643,-285 643,-285 637,-285 631,-279 631,-273 631,-273 631,-165.5 631,-165.5 631,-159.5 637,-153.5 643,-153.5"/>
<text text-anchor="middle" x="760.5" y="-267.7" font-family="Times,serif" font-size="14.00">Person</text>
<polyline fill="none" stroke="black" points="631,-260.5 890,-260.5"/>
<text text-anchor="start" x="639" y="-243.2" font-family="Times,serif" font-size="14.00">id :bigint</text>
<text text-anchor="start" x="639" y="-226.7" font-family="Times,serif" font-size="14.00">name :character varying</text>
<text text-anchor="start" x="639" y="-210.2" font-family="Times,serif" font-size="14.00">user_id :integer</text>
<text text-anchor="start" x="639" y="-193.7" font-family="Times,serif" font-size="14.00">created_at :timestamp(6) without time zone</text>
<text text-anchor="start" x="639" y="-177.2" font-family="Times,serif" font-size="14.00">updated_at :timestamp(6) without time zone</text>
<text text-anchor="start" x="639" y="-160.7" font-family="Times,serif" font-size="14.00">creater_id :integer</text>
</g>
<!-- Article&#45;&gt;Person -->
<g id="edge3" class="edge">
<title>Article&#45;&gt;Person</title>
<path fill="none" stroke="#5d9099" d="M701.71,-329.31C708.07,-317.51 714.48,-305.62 720.61,-294.25"/>
<polygon fill="#5d9099" stroke="#5d9099" points="701.88,-328.99 693.17,-335.66 699.35,-333.68 697.29,-337.5 697.29,-337.5 697.29,-337.5 699.35,-333.68 701.09,-339.93 701.88,-328.99"/>
<polygon fill="#5d9099" stroke="#5d9099" points="720.55,-294.35 729.26,-287.69 723.08,-289.66 725.14,-285.84 725.14,-285.84 725.14,-285.84 723.08,-289.66 721.34,-283.41 720.55,-294.35"/>
</g>
<!-- PersonArticle -->
<g id="node9" class="node">
<title>PersonArticle</title>
<path fill="none" stroke="black" d="M604,-0.5C604,-0.5 839,-0.5 839,-0.5 845,-0.5 851,-6.5 851,-12.5 851,-12.5 851,-103.5 851,-103.5 851,-109.5 845,-115.5 839,-115.5 839,-115.5 604,-115.5 604,-115.5 598,-115.5 592,-109.5 592,-103.5 592,-103.5 592,-12.5 592,-12.5 592,-6.5 598,-0.5 604,-0.5"/>
<text text-anchor="middle" x="721.5" y="-98.2" font-family="Times,serif" font-size="14.00">PersonArticle</text>
<polyline fill="none" stroke="black" points="592,-91 851,-91"/>
<text text-anchor="start" x="600" y="-73.7" font-family="Times,serif" font-size="14.00">id :bigint</text>
<text text-anchor="start" x="600" y="-57.2" font-family="Times,serif" font-size="14.00">person_id :bigint</text>
<text text-anchor="start" x="600" y="-40.7" font-family="Times,serif" font-size="14.00">article_id :bigint</text>
<text text-anchor="start" x="600" y="-24.2" font-family="Times,serif" font-size="14.00">created_at :timestamp(6) without time zone</text>
<text text-anchor="start" x="600" y="-7.7" font-family="Times,serif" font-size="14.00">updated_at :timestamp(6) without time zone</text>
</g>
<!-- Article&#45;&gt;PersonArticle -->
<g id="edge2" class="edge">
<title>Article&#45;&gt;PersonArticle</title>
<path fill="none" stroke="#345b94" d="M615.68,-328.26C603.53,-274.36 597.79,-207.82 621.5,-153 626.04,-142.51 632.38,-132.66 639.7,-123.56"/>
<polygon fill="#345b94" stroke="#345b94" points="615.65,-328.11 613.56,-338.88 616.87,-333.3 617.87,-337.52 617.87,-337.52 617.87,-337.52 616.87,-333.3 622.32,-336.81 615.65,-328.11"/>
<polygon fill="#345b94" stroke="#345b94" points="639.64,-123.63 649.56,-118.95 643.11,-119.57 645.92,-116.28 645.92,-116.28 645.92,-116.28 643.11,-119.57 642.72,-113.1 639.64,-123.63"/>
</g>
<!-- User -->
<g id="node10" class="node">
<title>User</title>
<path fill="none" stroke="black" d="M289,-8.75C289,-8.75 524,-8.75 524,-8.75 530,-8.75 536,-14.75 536,-20.75 536,-20.75 536,-95.25 536,-95.25 536,-101.25 530,-107.25 524,-107.25 524,-107.25 289,-107.25 289,-107.25 283,-107.25 277,-101.25 277,-95.25 277,-95.25 277,-20.75 277,-20.75 277,-14.75 283,-8.75 289,-8.75"/>
<text text-anchor="middle" x="406.5" y="-89.95" font-family="Times,serif" font-size="14.00">User</text>
<polyline fill="none" stroke="black" points="277,-82.75 536,-82.75"/>
<text text-anchor="start" x="285" y="-65.45" font-family="Times,serif" font-size="14.00">id :bigint</text>
<text text-anchor="start" x="285" y="-48.95" font-family="Times,serif" font-size="14.00">email :character varying</text>
<text text-anchor="start" x="285" y="-32.45" font-family="Times,serif" font-size="14.00">created_at :timestamp(6) without time zone</text>
<text text-anchor="start" x="285" y="-15.95" font-family="Times,serif" font-size="14.00">updated_at :timestamp(6) without time zone</text>
</g>
<!-- Article&#45;&gt;User -->
<g id="edge1" class="edge">
<title>Article&#45;&gt;User</title>
<path fill="none" stroke="#b98c2f" d="M610.69,-328.41C609.61,-325.58 608.55,-322.77 607.5,-320 579.42,-245.81 593.56,-215.34 544.5,-153 532.97,-138.35 518.53,-125.14 503.37,-113.55"/>
<polygon fill="#b98c2f" stroke="#b98c2f" points="610.71,-328.47 610.04,-339.42 612.6,-333.46 614.13,-337.51 614.13,-337.51 614.13,-337.51 612.6,-333.46 618.46,-336.23 610.71,-328.47"/>
<polygon fill="#b98c2f" stroke="#b98c2f" points="503.69,-113.79 498.33,-104.23 499.4,-110.62 495.92,-108.04 495.92,-108.04 495.92,-108.04 499.4,-110.62 492.98,-111.46 503.69,-113.79"/>
</g>
<!-- Impression -->
<g id="node13" class="node">
<title>Impression</title>
<ellipse fill="none" stroke="black" cx="960.5" cy="-219.25" rx="52.38" ry="18"/>
<text text-anchor="middle" x="960.5" y="-214.2" font-family="Times,serif" font-size="14.00">Impression</text>
</g>
<!-- Article&#45;&gt;Impression -->
<g id="edge6" class="edge">
<title>Article&#45;&gt;Impression</title>
<path fill="none" stroke="#920ee3" d="M787.45,-359C825.29,-337.61 865.26,-312.5 899.5,-285.5 914.63,-273.57 929.44,-257.86 940.67,-244.84"/>
<polygon fill="#920ee3" stroke="#920ee3" points="787.41,-359.02 776.49,-359.98 782.76,-361.62 778.98,-363.74 778.98,-363.74 778.98,-363.74 782.76,-361.62 780.88,-367.83 787.41,-359.02"/>
<polygon fill="#920ee3" stroke="#920ee3" points="940.51,-245.03 950.4,-240.3 943.95,-240.96 946.75,-237.65 946.75,-237.65 946.75,-237.65 943.95,-240.96 943.53,-234.49 940.51,-245.03"/>
</g>
<!-- ActiveStorage::Attachment -->
<g id="node14" class="node">
<title>ActiveStorage::Attachment</title>
<ellipse fill="none" stroke="black" cx="1143.5" cy="-219.25" rx="112.26" ry="18"/>
<text text-anchor="middle" x="1143.5" y="-214.2" font-family="Times,serif" font-size="14.00">ActiveStorage::Attachment</text>
</g>
<!-- Article&#45;&gt;ActiveStorage::Attachment -->
<g id="edge7" class="edge">
<title>Article&#45;&gt;ActiveStorage::Attachment</title>
<path fill="none" stroke="#9f989d" d="M787.77,-379.54C858.63,-353.69 945.6,-320.13 1021.5,-285.5 1050.44,-272.3 1082.08,-255.29 1105.89,-241.96"/>
<polygon fill="#9f989d" stroke="#9f989d" points="788.04,-379.44 777.1,-378.63 783.03,-381.26 778.96,-382.74 778.96,-382.74 778.96,-382.74 783.03,-381.26 780.18,-387.09 788.04,-379.44"/>
<polygon fill="#9f989d" stroke="#9f989d" points="1105.93,-241.93 1116.85,-240.94 1110.58,-239.31 1114.35,-237.18 1114.35,-237.18 1114.35,-237.18 1110.58,-239.31 1112.43,-233.1 1105.93,-241.93"/>
<text text-anchor="middle" x="1013.88" y="-306.7" font-family="Times,serif" font-size="14.00">file_attachment</text>
</g>
<!-- ActiveStorage::Blob -->
<g id="node15" class="node">
<title>ActiveStorage::Blob</title>
<ellipse fill="none" stroke="black" cx="1360.5" cy="-219.25" rx="86.67" ry="18"/>
<text text-anchor="middle" x="1360.5" y="-214.2" font-family="Times,serif" font-size="14.00">ActiveStorage::Blob</text>
</g>
<!-- Article&#45;&gt;ActiveStorage::Blob -->
<g id="edge8" class="edge">
<title>Article&#45;&gt;ActiveStorage::Blob</title>
<path fill="none" stroke="#eb1781" d="M788.47,-410.67C916.45,-391.36 1108.92,-353.52 1264.5,-285.5 1289.16,-274.72 1314.22,-257.43 1332.54,-243.36"/>
<polygon fill="#eb1781" stroke="#eb1781" points="788.44,-410.67 777.89,-407.7 783.17,-411.46 778.88,-412.1 778.88,-412.1 778.88,-412.1 783.17,-411.46 779.21,-416.6 788.44,-410.67"/>
<polygon fill="#eb1781" stroke="#eb1781" points="1332.33,-243.52 1342.98,-240.9 1336.53,-240.23 1339.94,-237.56 1339.94,-237.56 1339.94,-237.56 1336.53,-240.23 1337.43,-233.81 1332.33,-243.52"/>
<text text-anchor="middle" x="1240.88" y="-306.7" font-family="Times,serif" font-size="14.00">file_blob</text>
</g>
<!-- Bookmark&#45;&gt;User -->
<g id="edge9" class="edge">
<title>Bookmark&#45;&gt;User</title>
<path fill="none" stroke="#e6c9a0" d="M237.37,-156.23C262.36,-141.87 288.75,-126.69 313.06,-112.72"/>
<polygon fill="#e6c9a0" stroke="#e6c9a0" points="237.29,-156.28 226.38,-157.36 232.66,-158.94 228.91,-161.1 228.91,-161.1 228.91,-161.1 232.66,-158.94 230.86,-165.17 237.29,-156.28"/>
<polygon fill="#e6c9a0" stroke="#e6c9a0" points="312.96,-112.78 323.87,-111.69 317.59,-110.12 321.34,-107.96 321.34,-107.96 321.34,-107.96 317.59,-110.12 319.39,-103.89 312.96,-112.78"/>
</g>
<!-- Category -->
<g id="node5" class="node">
<title>Category</title>
<path fill="none" stroke="black" d="M660,-710.5C660,-710.5 895,-710.5 895,-710.5 901,-710.5 907,-716.5 907,-722.5 907,-722.5 907,-797 907,-797 907,-803 901,-809 895,-809 895,-809 660,-809 660,-809 654,-809 648,-803 648,-797 648,-797 648,-722.5 648,-722.5 648,-716.5 654,-710.5 660,-710.5"/>
<text text-anchor="middle" x="777.5" y="-791.7" font-family="Times,serif" font-size="14.00">Category</text>
<polyline fill="none" stroke="black" points="648,-784.5 907,-784.5"/>
<text text-anchor="start" x="656" y="-767.2" font-family="Times,serif" font-size="14.00">id :bigint</text>
<text text-anchor="start" x="656" y="-750.7" font-family="Times,serif" font-size="14.00">name :character varying</text>
<text text-anchor="start" x="656" y="-734.2" font-family="Times,serif" font-size="14.00">created_at :timestamp(6) without time zone</text>
<text text-anchor="start" x="656" y="-717.7" font-family="Times,serif" font-size="14.00">updated_at :timestamp(6) without time zone</text>
</g>
<!-- CategoryArticle -->
<g id="node6" class="node">
<title>CategoryArticle</title>
<path fill="none" stroke="black" d="M531,-557.5C531,-557.5 766,-557.5 766,-557.5 772,-557.5 778,-563.5 778,-569.5 778,-569.5 778,-660.5 778,-660.5 778,-666.5 772,-672.5 766,-672.5 766,-672.5 531,-672.5 531,-672.5 525,-672.5 519,-666.5 519,-660.5 519,-660.5 519,-569.5 519,-569.5 519,-563.5 525,-557.5 531,-557.5"/>
<text text-anchor="middle" x="648.5" y="-655.2" font-family="Times,serif" font-size="14.00">CategoryArticle</text>
<polyline fill="none" stroke="black" points="519,-648 778,-648"/>
<text text-anchor="start" x="527" y="-630.7" font-family="Times,serif" font-size="14.00">id :bigint</text>
<text text-anchor="start" x="527" y="-614.2" font-family="Times,serif" font-size="14.00">category_id :bigint</text>
<text text-anchor="start" x="527" y="-597.7" font-family="Times,serif" font-size="14.00">article_id :bigint</text>
<text text-anchor="start" x="527" y="-581.2" font-family="Times,serif" font-size="14.00">created_at :timestamp(6) without time zone</text>
<text text-anchor="start" x="527" y="-564.7" font-family="Times,serif" font-size="14.00">updated_at :timestamp(6) without time zone</text>
</g>
<!-- Category&#45;&gt;CategoryArticle -->
<g id="edge10" class="edge">
<title>Category&#45;&gt;CategoryArticle</title>
<path fill="none" stroke="#21d8d2" d="M726.53,-702.35C719.96,-695.08 713.19,-687.59 706.52,-680.21"/>
<polygon fill="#21d8d2" stroke="#21d8d2" points="726.54,-702.36 729.9,-712.79 730.11,-706.31 733.02,-709.53 733.02,-709.53 733.02,-709.53 730.11,-706.31 736.58,-706.76 726.54,-702.36"/>
<polygon fill="#21d8d2" stroke="#21d8d2" points="706.82,-680.54 703.46,-670.1 703.24,-676.58 700.34,-673.37 700.34,-673.37 700.34,-673.37 703.24,-676.58 696.78,-676.14 706.82,-680.54"/>
</g>
<!-- Aricle -->
<g id="node16" class="node">
<title>Aricle</title>
<ellipse fill="none" stroke="black" cx="829.5" cy="-615" rx="33.95" ry="18"/>
<text text-anchor="middle" x="829.5" y="-609.95" font-family="Times,serif" font-size="14.00">Aricle</text>
</g>
<!-- Category&#45;&gt;Aricle -->
<g id="edge11" class="edge">
<title>Category&#45;&gt;Aricle</title>
<path fill="none" stroke="#a33e45" d="M798.72,-700.49C806.05,-680.37 813.91,-658.81 819.85,-642.5"/>
<polygon fill="#a33e45" stroke="#a33e45" points="798.79,-700.31 791.14,-708.17 796.96,-705.32 795.48,-709.39 795.48,-709.39 795.48,-709.39 796.96,-705.32 799.59,-711.25 798.79,-700.31"/>
<polygon fill="#a33e45" stroke="#a33e45" points="819.74,-642.8 827.39,-634.95 821.56,-637.79 823.05,-633.72 823.05,-633.72 823.05,-633.72 821.56,-637.79 818.93,-631.87 819.74,-642.8"/>
</g>
<!-- CategoryArticle&#45;&gt;Article -->
<g id="edge12" class="edge">
<title>CategoryArticle&#45;&gt;Article</title>
<path fill="none" stroke="#e8ebea" d="M648.5,-546.87C648.5,-541.37 648.5,-535.73 648.5,-530.06"/>
<polygon fill="#e8ebea" stroke="#e8ebea" points="648.5,-546.71 644,-556.71 648.5,-552.04 648.5,-556.37 648.5,-556.37 648.5,-556.37 648.5,-552.04 653,-556.71 648.5,-546.71"/>
<polygon fill="#e8ebea" stroke="#e8ebea" points="648.5,-530.15 653,-520.15 648.5,-524.82 648.5,-520.49 648.5,-520.49 648.5,-520.49 648.5,-524.82 644,-520.15 648.5,-530.15"/>
</g>
<!-- Like&#45;&gt;User -->
<g id="edge13" class="edge">
<title>Like&#45;&gt;User</title>
<path fill="none" stroke="#d699f2" d="M406.5,-151.55C406.5,-140.35 406.5,-128.8 406.5,-117.82"/>
<polygon fill="#d699f2" stroke="#d699f2" points="406.5,-151.32 402,-161.32 406.5,-156.66 406.5,-160.99 406.5,-160.99 406.5,-160.99 406.5,-156.66 411,-161.32 406.5,-151.32"/>
<polygon fill="#d699f2" stroke="#d699f2" points="406.5,-117.83 411,-107.83 406.5,-112.5 406.5,-108.17 406.5,-108.17 406.5,-108.17 406.5,-112.5 402,-107.83 406.5,-117.83"/>
</g>
<!-- Person&#45;&gt;PersonArticle -->
<g id="edge14" class="edge">
<title>Person&#45;&gt;PersonArticle</title>
<path fill="none" stroke="#97fa50" d="M742.11,-143.15C740.71,-137.44 739.3,-131.69 737.92,-126.04"/>
<polygon fill="#97fa50" stroke="#97fa50" points="742.07,-142.98 740.07,-153.76 743.34,-148.16 744.37,-152.37 744.37,-152.37 744.37,-152.37 743.34,-148.16 748.82,-151.62 742.07,-142.98"/>
<polygon fill="#97fa50" stroke="#97fa50" points="737.91,-126.01 739.9,-115.23 736.64,-120.83 735.61,-116.62 735.61,-116.62 735.61,-116.62 736.64,-120.83 731.16,-117.37 737.91,-126.01"/>
</g>
<!-- VirtualArticle -->
<g id="node11" class="node">
<title>VirtualArticle</title>
<polygon fill="none" stroke="black" points="924.62,-735.25 924.62,-784.25 1016.38,-784.25 1016.38,-735.25 924.62,-735.25"/>
<text text-anchor="middle" x="970.5" y="-766.95" font-family="Times,serif" font-size="14.00">VirtualArticle</text>
<polyline fill="none" stroke="black" points="924.62,-759.75 1016.38,-759.75"/>
<text text-anchor="middle" x="970.5" y="-742.45" font-family="Times,serif" font-size="14.00"> </text>
</g>
<!-- VirtualPerson -->
<g id="node12" class="node">
<title>VirtualPerson</title>
<polygon fill="none" stroke="black" points="1034,-735.25 1034,-784.25 1125,-784.25 1125,-735.25 1034,-735.25"/>
<text text-anchor="middle" x="1079.5" y="-766.95" font-family="Times,serif" font-size="14.00">VirtualPerson</text>
<polyline fill="none" stroke="black" points="1034,-759.75 1125,-759.75"/>
<text text-anchor="middle" x="1079.5" y="-742.45" font-family="Times,serif" font-size="14.00"> </text>
</g>
</g>
</svg>
